M48
; DRILL file {KiCad 9.0.3+dfsg-1} date 2026-03-01T17:05:38+0100
; FORMAT={-:-/ absolute / inch / decimal}
; #@! TF.CreationDate,2026-03-01T17:05:38+01:00
; #@! TF.GenerationSoftware,Kicad,Pcbnew,9.0.3+dfsg-1
; #@! TF.FileFunction,Plated,1,2,PTH
FMAT,2
INCH
; #@! TA.AperFunction,Plated,PTH,ViaDrill
T1C0.0118
; #@! TA.AperFunction,Plated,PTH,ComponentDrill
T2C0.0236
; #@! TA.AperFunction,Plated,PTH,ComponentDrill
T3C0.0433
; #@! TA.AperFunction,Plated,PTH,ComponentDrill
T4C0.0689
; #@! TA.AperFunction,Plated,PTH,ComponentDrill
T5C0.0701
%
G90
G05
T1
X3.4646Y-3.1201
X3.5433Y-3.1201
X3.6319Y-3.0315
X3.6319Y-3.1201
X3.6425Y-3.0632
X3.6516Y-3.75
X3.674Y-3.4252
X3.6788Y-3.5408
X3.6837Y-3.3931
X3.6921Y-3.5715
X3.7008Y-3.622
X3.703Y-3.3071
X3.75Y-3.5335
X3.7598Y-3.435
X3.7992Y-3.1496
X3.8061Y-3.0967
X3.8338Y-3.1118
X3.8386Y-3.4055
X3.9272Y-3.5335
X4.0354Y-3.622
X4.0354Y-3.8091
X4.1299Y-3.8642
X4.2224Y-3.5827
X4.2323Y-3.8484
X4.4882Y-3.4941
X4.5079Y-3.8484
X4.6654Y-3.4941
X4.8031Y-3.8484
T3
X4.0953Y-3.0988
X4.0953Y-3.1988
X4.0953Y-3.2988
T4
X5.128Y-3.135
X5.128Y-3.335
X5.128Y-3.535
X5.128Y-3.735
T5
X5.5041Y-3.135
X5.5041Y-3.335
X5.5041Y-3.535
X5.5041Y-3.735
T2
G00X3.4675Y-3.3043
M15
G01X3.436Y-3.3043
M16
G05
G00X3.4675Y-3.6445
M15
G01X3.436Y-3.6445
M16
G05
G00X3.638Y-3.3043
M15
G01X3.5947Y-3.3043
M16
G05
G00X3.638Y-3.6445
M15
G01X3.5947Y-3.6445
M16
G05
M30
