%TF.GenerationSoftware,KiCad,Pcbnew,9.0.3+dfsg-1*%
%TF.CreationDate,2026-04-25T17:25:00+02:00*%
%TF.ProjectId,usbpd-adapter,75736270-642d-4616-9461-707465722e6b,rev?*%
%TF.SameCoordinates,Original*%
%TF.FileFunction,Copper,L1,Top*%
%TF.FilePolarity,Positive*%
%FSLAX46Y46*%
G04 Gerber Fmt 4.6, Leading zero omitted, Abs format (unit mm)*
G04 Created by KiCad (PCBNEW 9.0.3+dfsg-1) date 2026-04-25 17:25:00*
%MOMM*%
%LPD*%
G01*
G04 APERTURE LIST*
G04 Aperture macros list*
%AMRoundRect*
0 Rectangle with rounded corners*
0 $1 Rounding radius*
0 $2 $3 $4 $5 $6 $7 $8 $9 X,Y pos of 4 corners*
0 Add a 4 corners polygon primitive as box body*
4,1,4,$2,$3,$4,$5,$6,$7,$8,$9,$2,$3,0*
0 Add four circle primitives for the rounded corners*
1,1,$1+$1,$2,$3*
1,1,$1+$1,$4,$5*
1,1,$1+$1,$6,$7*
1,1,$1+$1,$8,$9*
0 Add four rect primitives between the rounded corners*
20,1,$1+$1,$2,$3,$4,$5,0*
20,1,$1+$1,$4,$5,$6,$7,0*
20,1,$1+$1,$6,$7,$8,$9,0*
20,1,$1+$1,$8,$9,$2,$3,0*%
%AMFreePoly0*
4,1,23,0.500000,-0.750000,0.000000,-0.750000,0.000000,-0.745722,-0.065263,-0.745722,-0.191342,-0.711940,-0.304381,-0.646677,-0.396677,-0.554381,-0.461940,-0.441342,-0.495722,-0.315263,-0.495722,-0.250000,-0.500000,-0.250000,-0.500000,0.250000,-0.495722,0.250000,-0.495722,0.315263,-0.461940,0.441342,-0.396677,0.554381,-0.304381,0.646677,-0.191342,0.711940,-0.065263,0.745722,0.000000,0.745722,
0.000000,0.750000,0.500000,0.750000,0.500000,-0.750000,0.500000,-0.750000,$1*%
%AMFreePoly1*
4,1,23,0.000000,0.745722,0.065263,0.745722,0.191342,0.711940,0.304381,0.646677,0.396677,0.554381,0.461940,0.441342,0.495722,0.315263,0.495722,0.250000,0.500000,0.250000,0.500000,-0.250000,0.495722,-0.250000,0.495722,-0.315263,0.461940,-0.441342,0.396677,-0.554381,0.304381,-0.646677,0.191342,-0.711940,0.065263,-0.745722,0.000000,-0.745722,0.000000,-0.750000,-0.500000,-0.750000,
-0.500000,0.750000,0.000000,0.750000,0.000000,0.745722,0.000000,0.745722,$1*%
G04 Aperture macros list end*
%TA.AperFunction,SMDPad,CuDef*%
%ADD10RoundRect,0.250000X0.650000X-1.500000X0.650000X1.500000X-0.650000X1.500000X-0.650000X-1.500000X0*%
%TD*%
%TA.AperFunction,SMDPad,CuDef*%
%ADD11RoundRect,0.250000X-0.850000X-0.350000X0.850000X-0.350000X0.850000X0.350000X-0.850000X0.350000X0*%
%TD*%
%TA.AperFunction,SMDPad,CuDef*%
%ADD12RoundRect,0.249997X-2.950003X-2.650003X2.950003X-2.650003X2.950003X2.650003X-2.950003X2.650003X0*%
%TD*%
%TA.AperFunction,SMDPad,CuDef*%
%ADD13RoundRect,0.237500X-0.237500X0.250000X-0.237500X-0.250000X0.237500X-0.250000X0.237500X0.250000X0*%
%TD*%
%TA.AperFunction,SMDPad,CuDef*%
%ADD14RoundRect,0.237500X-0.237500X0.287500X-0.237500X-0.287500X0.237500X-0.287500X0.237500X0.287500X0*%
%TD*%
%TA.AperFunction,ComponentPad*%
%ADD15RoundRect,0.250001X0.949999X-0.949999X0.949999X0.949999X-0.949999X0.949999X-0.949999X-0.949999X0*%
%TD*%
%TA.AperFunction,ComponentPad*%
%ADD16C,2.400000*%
%TD*%
%TA.AperFunction,SMDPad,CuDef*%
%ADD17RoundRect,0.250000X1.000000X-1.750000X1.000000X1.750000X-1.000000X1.750000X-1.000000X-1.750000X0*%
%TD*%
%TA.AperFunction,SMDPad,CuDef*%
%ADD18RoundRect,0.250000X0.925000X1.500000X-0.925000X1.500000X-0.925000X-1.500000X0.925000X-1.500000X0*%
%TD*%
%TA.AperFunction,SMDPad,CuDef*%
%ADD19RoundRect,0.250000X0.350000X-0.850000X0.350000X0.850000X-0.350000X0.850000X-0.350000X-0.850000X0*%
%TD*%
%TA.AperFunction,SMDPad,CuDef*%
%ADD20RoundRect,0.249997X2.650003X-2.950003X2.650003X2.950003X-2.650003X2.950003X-2.650003X-2.950003X0*%
%TD*%
%TA.AperFunction,SMDPad,CuDef*%
%ADD21R,1.550000X0.600000*%
%TD*%
%TA.AperFunction,ComponentPad*%
%ADD22C,0.600000*%
%TD*%
%TA.AperFunction,SMDPad,CuDef*%
%ADD23R,2.600000X3.100000*%
%TD*%
%TA.AperFunction,SMDPad,CuDef*%
%ADD24R,2.950000X4.500000*%
%TD*%
%TA.AperFunction,SMDPad,CuDef*%
%ADD25RoundRect,0.237500X-0.250000X-0.237500X0.250000X-0.237500X0.250000X0.237500X-0.250000X0.237500X0*%
%TD*%
%TA.AperFunction,SMDPad,CuDef*%
%ADD26RoundRect,0.237500X0.300000X0.237500X-0.300000X0.237500X-0.300000X-0.237500X0.300000X-0.237500X0*%
%TD*%
%TA.AperFunction,SMDPad,CuDef*%
%ADD27RoundRect,0.250000X0.412500X0.650000X-0.412500X0.650000X-0.412500X-0.650000X0.412500X-0.650000X0*%
%TD*%
%TA.AperFunction,SMDPad,CuDef*%
%ADD28RoundRect,0.237500X0.237500X-0.300000X0.237500X0.300000X-0.237500X0.300000X-0.237500X-0.300000X0*%
%TD*%
%TA.AperFunction,SMDPad,CuDef*%
%ADD29RoundRect,0.250000X-0.412500X-0.650000X0.412500X-0.650000X0.412500X0.650000X-0.412500X0.650000X0*%
%TD*%
%TA.AperFunction,SMDPad,CuDef*%
%ADD30RoundRect,0.237500X0.237500X-0.250000X0.237500X0.250000X-0.237500X0.250000X-0.237500X-0.250000X0*%
%TD*%
%TA.AperFunction,SMDPad,CuDef*%
%ADD31RoundRect,0.237500X0.237500X-0.287500X0.237500X0.287500X-0.237500X0.287500X-0.237500X-0.287500X0*%
%TD*%
%TA.AperFunction,SMDPad,CuDef*%
%ADD32RoundRect,0.250000X-0.650000X0.412500X-0.650000X-0.412500X0.650000X-0.412500X0.650000X0.412500X0*%
%TD*%
%TA.AperFunction,SMDPad,CuDef*%
%ADD33RoundRect,0.250000X1.600000X-0.300000X1.600000X0.300000X-1.600000X0.300000X-1.600000X-0.300000X0*%
%TD*%
%TA.AperFunction,SMDPad,CuDef*%
%ADD34RoundRect,0.150000X-0.150000X0.512500X-0.150000X-0.512500X0.150000X-0.512500X0.150000X0.512500X0*%
%TD*%
%TA.AperFunction,SMDPad,CuDef*%
%ADD35RoundRect,0.150000X0.587500X0.150000X-0.587500X0.150000X-0.587500X-0.150000X0.587500X-0.150000X0*%
%TD*%
%TA.AperFunction,SMDPad,CuDef*%
%ADD36FreePoly0,180.000000*%
%TD*%
%TA.AperFunction,SMDPad,CuDef*%
%ADD37FreePoly1,180.000000*%
%TD*%
%TA.AperFunction,ComponentPad*%
%ADD38R,2.780000X2.780000*%
%TD*%
%TA.AperFunction,ComponentPad*%
%ADD39C,2.780000*%
%TD*%
%TA.AperFunction,SMDPad,CuDef*%
%ADD40RoundRect,0.100000X-0.637500X-0.100000X0.637500X-0.100000X0.637500X0.100000X-0.637500X0.100000X0*%
%TD*%
%TA.AperFunction,ComponentPad*%
%ADD41R,2.800000X2.800000*%
%TD*%
%TA.AperFunction,ComponentPad*%
%ADD42C,2.800000*%
%TD*%
%TA.AperFunction,SMDPad,CuDef*%
%ADD43RoundRect,0.150000X-0.425000X0.150000X-0.425000X-0.150000X0.425000X-0.150000X0.425000X0.150000X0*%
%TD*%
%TA.AperFunction,SMDPad,CuDef*%
%ADD44RoundRect,0.075000X-0.500000X0.075000X-0.500000X-0.075000X0.500000X-0.075000X0.500000X0.075000X0*%
%TD*%
%TA.AperFunction,HeatsinkPad*%
%ADD45O,2.100000X1.000000*%
%TD*%
%TA.AperFunction,HeatsinkPad*%
%ADD46O,1.800000X1.000000*%
%TD*%
%TA.AperFunction,ViaPad*%
%ADD47C,0.900000*%
%TD*%
%TA.AperFunction,ViaPad*%
%ADD48C,0.600000*%
%TD*%
%TA.AperFunction,Conductor*%
%ADD49C,0.800000*%
%TD*%
%TA.AperFunction,Conductor*%
%ADD50C,0.400000*%
%TD*%
%TA.AperFunction,Conductor*%
%ADD51C,0.200000*%
%TD*%
%TA.AperFunction,Conductor*%
%ADD52C,0.500000*%
%TD*%
G04 APERTURE END LIST*
D10*
%TO.P,D4,1,K*%
%TO.N,Net-(D4-K)*%
X108600000Y-66700000D03*
%TO.P,D4,2,A*%
%TO.N,-12V*%
X108600000Y-61700000D03*
%TD*%
D11*
%TO.P,U2,1,IN*%
%TO.N,VIN*%
X107560000Y-78520000D03*
D12*
%TO.P,U2,2,GND*%
%TO.N,GND*%
X113860000Y-80800000D03*
D11*
%TO.P,U2,3,OUT*%
%TO.N,12V*%
X107560000Y-83080000D03*
%TD*%
D13*
%TO.P,R13,1*%
%TO.N,Net-(D7-K)*%
X91750000Y-61087500D03*
%TO.P,R13,2*%
%TO.N,-12V*%
X91750000Y-62912500D03*
%TD*%
%TO.P,R12,1*%
%TO.N,Net-(D6-K)*%
X91800000Y-57287500D03*
%TO.P,R12,2*%
%TO.N,-5V*%
X91800000Y-59112500D03*
%TD*%
D14*
%TO.P,D7,1,K*%
%TO.N,Net-(D7-K)*%
X88800000Y-61125000D03*
%TO.P,D7,2,A*%
%TO.N,GND*%
X88800000Y-62875000D03*
%TD*%
%TO.P,D6,1,K*%
%TO.N,Net-(D6-K)*%
X88800000Y-57325000D03*
%TO.P,D6,2,A*%
%TO.N,GND*%
X88800000Y-59075000D03*
%TD*%
D15*
%TO.P,J5,1,Pin_1*%
%TO.N,-12V*%
X139892500Y-69630000D03*
D16*
%TO.P,J5,2,Pin_2*%
%TO.N,GND*%
X139892500Y-64550000D03*
%TO.P,J5,3,Pin_3*%
%TO.N,-5V*%
X139892500Y-59470000D03*
%TD*%
D17*
%TO.P,C14,1*%
%TO.N,GND*%
X128000000Y-70750000D03*
%TO.P,C14,2*%
%TO.N,-12V*%
X128000000Y-62750000D03*
%TD*%
D18*
%TO.P,L2,1,1*%
%TO.N,Net-(D4-K)*%
X102275000Y-61500000D03*
%TO.P,L2,2,2*%
%TO.N,GND*%
X96225000Y-61500000D03*
%TD*%
D19*
%TO.P,U5,1,GND*%
%TO.N,GND*%
X114220000Y-67790000D03*
%TO.P,U5,2,VI*%
%TO.N,-12V*%
X116500000Y-67790000D03*
D20*
X116500000Y-61490000D03*
D19*
%TO.P,U5,3,VO*%
%TO.N,-5V*%
X118780000Y-67790000D03*
%TD*%
D21*
%TO.P,U4,1,BOOT*%
%TO.N,Net-(U4-BOOT)*%
X101950000Y-70905000D03*
%TO.P,U4,2,NC*%
%TO.N,unconnected-(U4-NC-Pad2)*%
X101950000Y-69635000D03*
%TO.P,U4,3,NC*%
%TO.N,unconnected-(U4-NC-Pad3)*%
X101950000Y-68365000D03*
%TO.P,U4,4,VSENSE*%
%TO.N,Net-(U4-VSENSE)*%
X101950000Y-67095000D03*
%TO.P,U4,5,EN*%
%TO.N,unconnected-(U4-EN-Pad5)*%
X96550000Y-67095000D03*
%TO.P,U4,6,GND*%
%TO.N,-12V*%
X96550000Y-68365000D03*
%TO.P,U4,7,VIN*%
%TO.N,VIN*%
X96550000Y-69635000D03*
%TO.P,U4,8,PH*%
%TO.N,Net-(D4-K)*%
X96550000Y-70905000D03*
D22*
%TO.P,U4,9,GNDPAD*%
%TO.N,-12V*%
X99850000Y-70800000D03*
X99850000Y-69600000D03*
X99850000Y-68300000D03*
X99850000Y-67200000D03*
D23*
X99250000Y-69000000D03*
D24*
X99250000Y-69000000D03*
D22*
X98650000Y-70800000D03*
X98650000Y-69600000D03*
X98650000Y-68300000D03*
X98650000Y-67200000D03*
%TD*%
D25*
%TO.P,R10,1*%
%TO.N,-12V*%
X109087500Y-71250000D03*
%TO.P,R10,2*%
%TO.N,Net-(U4-VSENSE)*%
X110912500Y-71250000D03*
%TD*%
%TO.P,R9,1*%
%TO.N,Net-(U4-VSENSE)*%
X113087500Y-71250000D03*
%TO.P,R9,2*%
%TO.N,GND*%
X114912500Y-71250000D03*
%TD*%
D26*
%TO.P,C18,1*%
%TO.N,-5V*%
X111862500Y-57750000D03*
%TO.P,C18,2*%
%TO.N,GND*%
X110137500Y-57750000D03*
%TD*%
D27*
%TO.P,C17,1*%
%TO.N,GND*%
X120562500Y-71250000D03*
%TO.P,C17,2*%
%TO.N,-12V*%
X117437500Y-71250000D03*
%TD*%
%TO.P,C16,1*%
%TO.N,GND*%
X125062500Y-58250000D03*
%TO.P,C16,2*%
%TO.N,-5V*%
X121937500Y-58250000D03*
%TD*%
D28*
%TO.P,C15,1*%
%TO.N,VIN*%
X94500000Y-69862500D03*
%TO.P,C15,2*%
%TO.N,-12V*%
X94500000Y-68137500D03*
%TD*%
D26*
%TO.P,C13,1*%
%TO.N,Net-(U4-BOOT)*%
X106612500Y-71250000D03*
%TO.P,C13,2*%
%TO.N,Net-(D4-K)*%
X104887500Y-71250000D03*
%TD*%
D29*
%TO.P,C12,1*%
%TO.N,VIN*%
X88687500Y-67250000D03*
%TO.P,C12,2*%
%TO.N,-12V*%
X91812500Y-67250000D03*
%TD*%
D27*
%TO.P,C11,1*%
%TO.N,VIN*%
X91812500Y-70750000D03*
%TO.P,C11,2*%
%TO.N,GND*%
X88687500Y-70750000D03*
%TD*%
D30*
%TO.P,R4,1*%
%TO.N,Net-(D1-A)*%
X102000000Y-88662500D03*
%TO.P,R4,2*%
%TO.N,VIN*%
X102000000Y-86837500D03*
%TD*%
D31*
%TO.P,D1,1,K*%
%TO.N,GND*%
X102000000Y-92125000D03*
%TO.P,D1,2,A*%
%TO.N,Net-(D1-A)*%
X102000000Y-90375000D03*
%TD*%
D28*
%TO.P,C10,1*%
%TO.N,Net-(J3-SHIELD)*%
X90250000Y-81862500D03*
%TO.P,C10,2*%
%TO.N,GND*%
X90250000Y-80137500D03*
%TD*%
D32*
%TO.P,C6,1*%
%TO.N,12V*%
X104500000Y-87687500D03*
%TO.P,C6,2*%
%TO.N,GND*%
X104500000Y-90812500D03*
%TD*%
%TO.P,C8,1*%
%TO.N,VIN*%
X96400000Y-94437500D03*
%TO.P,C8,2*%
%TO.N,GND*%
X96400000Y-97562500D03*
%TD*%
D33*
%TO.P,L1,1,1*%
%TO.N,Net-(U1-SW)*%
X110900000Y-97500000D03*
%TO.P,L1,2,2*%
%TO.N,5V*%
X110900000Y-94500000D03*
%TD*%
D14*
%TO.P,D2,1,K*%
%TO.N,GND*%
X114500000Y-89125000D03*
%TO.P,D2,2,A*%
%TO.N,Net-(D2-A)*%
X114500000Y-90875000D03*
%TD*%
D13*
%TO.P,R1,1*%
%TO.N,Net-(J3-CC2)*%
X95250000Y-90337500D03*
%TO.P,R1,2*%
%TO.N,GND*%
X95250000Y-92162500D03*
%TD*%
D30*
%TO.P,R3,1*%
%TO.N,Net-(U3-SEL)*%
X91000000Y-77412500D03*
%TO.P,R3,2*%
%TO.N,Net-(JP1-A)*%
X91000000Y-75587500D03*
%TD*%
D34*
%TO.P,U1,1,FB*%
%TO.N,5V*%
X105850000Y-94862500D03*
%TO.P,U1,2,EN*%
%TO.N,Net-(U1-EN)*%
X104900000Y-94862500D03*
%TO.P,U1,3,IN*%
%TO.N,VIN*%
X103950000Y-94862500D03*
%TO.P,U1,4,GND*%
%TO.N,GND*%
X103950000Y-97137500D03*
%TO.P,U1,5,SW*%
%TO.N,Net-(U1-SW)*%
X104900000Y-97137500D03*
%TO.P,U1,6,BST*%
%TO.N,Net-(U1-BST)*%
X105850000Y-97137500D03*
%TD*%
D32*
%TO.P,C1,1*%
%TO.N,VIN*%
X100400000Y-94437500D03*
%TO.P,C1,2*%
%TO.N,GND*%
X100400000Y-97562500D03*
%TD*%
D25*
%TO.P,R8,1*%
%TO.N,VIN*%
X103837500Y-93000000D03*
%TO.P,R8,2*%
%TO.N,Net-(U1-EN)*%
X105662500Y-93000000D03*
%TD*%
D30*
%TO.P,R5,1*%
%TO.N,Net-(D2-A)*%
X112250000Y-90912500D03*
%TO.P,R5,2*%
%TO.N,5V*%
X112250000Y-89087500D03*
%TD*%
%TO.P,R7,1*%
%TO.N,Net-(J3-SHIELD)*%
X88000000Y-81912500D03*
%TO.P,R7,2*%
%TO.N,GND*%
X88000000Y-80087500D03*
%TD*%
D35*
%TO.P,Q1,1,G*%
%TO.N,Net-(Q1-G)*%
X98437500Y-89700000D03*
%TO.P,Q1,2,S*%
%TO.N,VIN*%
X98437500Y-87800000D03*
%TO.P,Q1,3,D*%
%TO.N,VBUS*%
X96562500Y-88750000D03*
%TD*%
D36*
%TO.P,JP1,1,A*%
%TO.N,Net-(JP1-A)*%
X88650000Y-76750000D03*
D37*
%TO.P,JP1,2,B*%
%TO.N,VBUS*%
X87350000Y-76750000D03*
%TD*%
D38*
%TO.P,J1,1,Pin_1*%
%TO.N,12V*%
X139805000Y-79630000D03*
D39*
%TO.P,J1,2,Pin_2*%
%TO.N,GND*%
X139805000Y-84710000D03*
%TO.P,J1,3,Pin_3*%
X139805000Y-89790000D03*
%TO.P,J1,4,Pin_4*%
%TO.N,5V*%
X139805000Y-94870000D03*
%TD*%
D30*
%TO.P,R2,1*%
%TO.N,Net-(J3-CC1)*%
X95000000Y-87162500D03*
%TO.P,R2,2*%
%TO.N,GND*%
X95000000Y-85337500D03*
%TD*%
D14*
%TO.P,D3,1,K*%
%TO.N,GND*%
X119000000Y-89125000D03*
%TO.P,D3,2,A*%
%TO.N,Net-(D3-A)*%
X119000000Y-90875000D03*
%TD*%
D26*
%TO.P,C2,1*%
%TO.N,Net-(U1-BST)*%
X106112500Y-99000000D03*
%TO.P,C2,2*%
%TO.N,Net-(U1-SW)*%
X104387500Y-99000000D03*
%TD*%
D27*
%TO.P,C5,1*%
%TO.N,VIN*%
X99312500Y-83250000D03*
%TO.P,C5,2*%
%TO.N,GND*%
X96187500Y-83250000D03*
%TD*%
D28*
%TO.P,C7,1*%
%TO.N,GND*%
X109000000Y-90862500D03*
%TO.P,C7,2*%
%TO.N,12V*%
X109000000Y-89137500D03*
%TD*%
D32*
%TO.P,C3,1*%
%TO.N,5V*%
X120250000Y-94437500D03*
%TO.P,C3,2*%
%TO.N,GND*%
X120250000Y-97562500D03*
%TD*%
D40*
%TO.P,U3,1,VBUSG*%
%TO.N,Net-(Q1-G)*%
X93887500Y-76725000D03*
%TO.P,U3,2,VIN*%
%TO.N,VBUS*%
X93887500Y-77375000D03*
%TO.P,U3,3,NC*%
%TO.N,unconnected-(U3-NC-Pad3)*%
X93887500Y-78025000D03*
%TO.P,U3,4,NC*%
%TO.N,unconnected-(U3-NC-Pad4)*%
X93887500Y-78675000D03*
%TO.P,U3,5,GND*%
%TO.N,GND*%
X93887500Y-79325000D03*
%TO.P,U3,6,NC*%
%TO.N,unconnected-(U3-NC-Pad6)*%
X93887500Y-79975000D03*
%TO.P,U3,7,NC*%
%TO.N,unconnected-(U3-NC-Pad7)*%
X93887500Y-80625000D03*
%TO.P,U3,8,NC*%
%TO.N,unconnected-(U3-NC-Pad8)*%
X93887500Y-81275000D03*
%TO.P,U3,9,NC*%
%TO.N,unconnected-(U3-NC-Pad9)*%
X99612500Y-81275000D03*
%TO.P,U3,10,NC*%
%TO.N,unconnected-(U3-NC-Pad10)*%
X99612500Y-80625000D03*
%TO.P,U3,11,SEL*%
%TO.N,Net-(U3-SEL)*%
X99612500Y-79975000D03*
%TO.P,U3,12,CC2*%
%TO.N,Net-(J3-CC2)*%
X99612500Y-79325000D03*
%TO.P,U3,13,CC1*%
%TO.N,Net-(J3-CC1)*%
X99612500Y-78675000D03*
%TO.P,U3,14,NC*%
%TO.N,unconnected-(U3-NC-Pad14)*%
X99612500Y-78025000D03*
%TO.P,U3,15,NC*%
%TO.N,unconnected-(U3-NC-Pad15)*%
X99612500Y-77375000D03*
%TO.P,U3,16,VBUS*%
%TO.N,VIN*%
X99612500Y-76725000D03*
%TD*%
D41*
%TO.P,J2,1,Pin_1*%
%TO.N,12V*%
X130250000Y-79630000D03*
D42*
%TO.P,J2,2,Pin_2*%
%TO.N,GND*%
X130250000Y-84710000D03*
%TO.P,J2,3,Pin_3*%
X130250000Y-89790000D03*
%TO.P,J2,4,Pin_4*%
%TO.N,5V*%
X130250000Y-94870000D03*
%TD*%
D32*
%TO.P,C4,1*%
%TO.N,5V*%
X116400000Y-94437500D03*
%TO.P,C4,2*%
%TO.N,GND*%
X116400000Y-97562500D03*
%TD*%
D27*
%TO.P,C9,1*%
%TO.N,VBUS*%
X91062500Y-95750000D03*
%TO.P,C9,2*%
%TO.N,GND*%
X87937500Y-95750000D03*
%TD*%
D43*
%TO.P,J3,A1,GND*%
%TO.N,GND*%
X92430000Y-85050000D03*
%TO.P,J3,A4,VBUS*%
%TO.N,VBUS*%
X92430000Y-85850000D03*
D44*
%TO.P,J3,A5,CC1*%
%TO.N,Net-(J3-CC1)*%
X92430000Y-87000000D03*
%TO.P,J3,A6,D+*%
%TO.N,unconnected-(J3-D+-PadA6)*%
X92430000Y-88000000D03*
%TO.P,J3,A7,D-*%
%TO.N,unconnected-(J3-D--PadA7)*%
X92430000Y-88500000D03*
%TO.P,J3,A8,SBU1*%
%TO.N,unconnected-(J3-SBU1-PadA8)*%
X92430000Y-89500000D03*
D43*
%TO.P,J3,A9,VBUS*%
%TO.N,VBUS*%
X92430000Y-90650000D03*
%TO.P,J3,A12,GND*%
%TO.N,GND*%
X92430000Y-91450000D03*
%TO.P,J3,B1,GND*%
X92430000Y-91450000D03*
%TO.P,J3,B4,VBUS*%
%TO.N,VBUS*%
X92430000Y-90650000D03*
D44*
%TO.P,J3,B5,CC2*%
%TO.N,Net-(J3-CC2)*%
X92430000Y-90000000D03*
%TO.P,J3,B6,D+*%
%TO.N,unconnected-(J3-D+-PadB6)*%
X92430000Y-89000000D03*
%TO.P,J3,B7,D-*%
%TO.N,unconnected-(J3-D--PadB7)*%
X92430000Y-87500000D03*
%TO.P,J3,B8,SBU2*%
%TO.N,unconnected-(J3-SBU2-PadB8)*%
X92430000Y-86500000D03*
D43*
%TO.P,J3,B9,VBUS*%
%TO.N,VBUS*%
X92430000Y-85850000D03*
%TO.P,J3,B12,GND*%
%TO.N,GND*%
X92430000Y-85050000D03*
D45*
%TO.P,J3,S1,SHIELD*%
%TO.N,Net-(J3-SHIELD)*%
X91855000Y-83930000D03*
D46*
X87675000Y-83930000D03*
D45*
X91855000Y-92570000D03*
D46*
X87675000Y-92570000D03*
%TD*%
D30*
%TO.P,R6,1*%
%TO.N,Net-(D3-A)*%
X116750000Y-90912500D03*
%TO.P,R6,2*%
%TO.N,12V*%
X116750000Y-89087500D03*
%TD*%
D47*
%TO.N,Net-(D4-K)*%
X105200000Y-72200000D03*
X105800000Y-67200000D03*
D48*
%TO.N,GND*%
X116000000Y-76000000D03*
X112000000Y-76000000D03*
X108000000Y-76000000D03*
X108000000Y-86000000D03*
X110000000Y-86000000D03*
X112000000Y-86000000D03*
X114000000Y-86000000D03*
X116000000Y-86000000D03*
X122000000Y-78000000D03*
X118000000Y-78000000D03*
X122000000Y-82000000D03*
X118000000Y-82000000D03*
X122000000Y-86000000D03*
X118000000Y-86000000D03*
X118000000Y-84000000D03*
X122000000Y-84000000D03*
X122000000Y-80000000D03*
X118000000Y-80000000D03*
X122000000Y-76000000D03*
X118000000Y-76000000D03*
X114000000Y-76000000D03*
X110000000Y-76000000D03*
X106200000Y-76000000D03*
X104020000Y-81250000D03*
%TO.N,-12V*%
X92800000Y-63000000D03*
X93000000Y-66200000D03*
%TO.N,Net-(U4-VSENSE)*%
X112000000Y-71250000D03*
X103250000Y-67250000D03*
D47*
%TO.N,Net-(D4-K)*%
X105500000Y-62500000D03*
%TO.N,GND*%
X126750000Y-58250000D03*
X111500000Y-59500000D03*
X112500000Y-67000000D03*
D48*
X107000000Y-57750000D03*
X97500000Y-58250000D03*
D47*
X114750000Y-69750000D03*
X130250000Y-67000000D03*
X121000000Y-69750000D03*
D48*
X88750000Y-72750000D03*
X122000000Y-97750000D03*
X114000000Y-88750000D03*
X102500000Y-96750000D03*
X102500000Y-92000000D03*
X92250000Y-79250000D03*
X107250000Y-91000000D03*
X94000000Y-92000000D03*
X94056000Y-84000000D03*
X88000000Y-79250000D03*
X114500000Y-97750000D03*
X90000000Y-79250000D03*
X118500000Y-88750000D03*
%TO.N,Net-(U1-SW)*%
X107500000Y-97750000D03*
X104900000Y-98150000D03*
%TO.N,VBUS*%
X93565006Y-86184994D03*
X92750000Y-95250000D03*
X93778567Y-90715888D03*
X92518794Y-77806383D03*
%TO.N,Net-(J3-CC2)*%
X93440447Y-89936029D03*
X97379444Y-79040965D03*
X95250000Y-89750000D03*
%TO.N,Net-(J3-CC1)*%
X95500000Y-87250000D03*
X93319352Y-87000000D03*
X96675949Y-78655238D03*
%TO.N,Net-(Q1-G)*%
X99750000Y-89750000D03*
X97500000Y-86500000D03*
%TO.N,Net-(U3-SEL)*%
X96500000Y-80000000D03*
X92250000Y-77000000D03*
%TD*%
D49*
%TO.N,Net-(D4-K)*%
X104887500Y-71250000D02*
X104887500Y-71887500D01*
X104887500Y-71887500D02*
X105200000Y-72200000D01*
X96550000Y-70905000D02*
X96550000Y-71750000D01*
X96800000Y-72000000D02*
X104137500Y-72000000D01*
X96550000Y-71750000D02*
X96800000Y-72000000D01*
X104137500Y-72000000D02*
X104887500Y-71250000D01*
X105800000Y-67200000D02*
X108100000Y-67200000D01*
X108100000Y-67200000D02*
X108600000Y-66700000D01*
D50*
X108600000Y-66700000D02*
X108600000Y-67300000D01*
X108600000Y-67300000D02*
X108250000Y-67650000D01*
D49*
%TO.N,-12V*%
X104000000Y-66250000D02*
X108760000Y-61490000D01*
X108760000Y-61490000D02*
X116500000Y-61490000D01*
%TO.N,VIN*%
X99312500Y-83250000D02*
X99562500Y-83000000D01*
X99562500Y-83000000D02*
X100800000Y-83000000D01*
X100800000Y-83000000D02*
X104020000Y-79780000D01*
X104020000Y-79780000D02*
X104020000Y-78710000D01*
D50*
%TO.N,GND*%
X113860000Y-80800000D02*
X104470000Y-80800000D01*
X104470000Y-80800000D02*
X104020000Y-81250000D01*
D49*
%TO.N,12V*%
X104500000Y-86140000D02*
X107560000Y-83080000D01*
X104500000Y-87687500D02*
X104500000Y-86140000D01*
%TO.N,VIN*%
X107560000Y-78520000D02*
X104210000Y-78520000D01*
X104210000Y-78520000D02*
X104020000Y-78710000D01*
D51*
%TO.N,-5V*%
X91800000Y-59112500D02*
X94687500Y-59112500D01*
X94687500Y-59112500D02*
X97000000Y-56800000D01*
X97000000Y-56800000D02*
X110912500Y-56800000D01*
X110912500Y-56800000D02*
X111862500Y-57750000D01*
%TO.N,-12V*%
X91750000Y-62912500D02*
X92712500Y-62912500D01*
X92712500Y-62912500D02*
X92800000Y-63000000D01*
D49*
X93000000Y-67250000D02*
X93612500Y-67250000D01*
D51*
X93000000Y-66200000D02*
X93000000Y-67250000D01*
%TO.N,Net-(D6-K)*%
X88800000Y-57325000D02*
X91762500Y-57325000D01*
X91762500Y-57325000D02*
X91800000Y-57287500D01*
%TO.N,Net-(D7-K)*%
X88800000Y-61125000D02*
X91712500Y-61125000D01*
X91712500Y-61125000D02*
X91750000Y-61087500D01*
%TO.N,GND*%
X88800000Y-59075000D02*
X88024000Y-59851000D01*
X88024000Y-59851000D02*
X88024000Y-62099000D01*
X88024000Y-62099000D02*
X88800000Y-62875000D01*
D49*
X92975000Y-64750000D02*
X89000000Y-64750000D01*
D51*
X88800000Y-62875000D02*
X88800000Y-64550000D01*
X88800000Y-64550000D02*
X89000000Y-64750000D01*
D49*
X96225000Y-61500000D02*
X92975000Y-64750000D01*
X89000000Y-64750000D02*
X88000000Y-64750000D01*
X88000000Y-64750000D02*
X86750000Y-66000000D01*
X86750000Y-66000000D02*
X86750000Y-69500000D01*
X86750000Y-69500000D02*
X88000000Y-70750000D01*
X88000000Y-70750000D02*
X88687500Y-70750000D01*
D51*
%TO.N,Net-(U4-VSENSE)*%
X113087500Y-71250000D02*
X112000000Y-71250000D01*
X112000000Y-71250000D02*
X110912500Y-71250000D01*
D49*
%TO.N,-12V*%
X107587500Y-69750000D02*
X109087500Y-71250000D01*
X104200000Y-66450000D02*
X104200000Y-68950000D01*
D51*
%TO.N,Net-(U4-VSENSE)*%
X103095000Y-67095000D02*
X103250000Y-67250000D01*
D49*
%TO.N,-12V*%
X104700000Y-69450000D02*
X105943870Y-69450000D01*
X105943870Y-69450000D02*
X106243871Y-69750000D01*
X104000000Y-66250000D02*
X104200000Y-66450000D01*
X104200000Y-68950000D02*
X104700000Y-69450000D01*
X106243871Y-69750000D02*
X107587500Y-69750000D01*
D51*
%TO.N,Net-(U4-VSENSE)*%
X101950000Y-67095000D02*
X103095000Y-67095000D01*
D49*
%TO.N,Net-(D4-K)*%
X102275000Y-61500000D02*
X104500000Y-61500000D01*
X104500000Y-61500000D02*
X105500000Y-62500000D01*
%TO.N,-5V*%
X121937500Y-66062500D02*
X121937500Y-60000000D01*
X121937500Y-60000000D02*
X139362500Y-60000000D01*
X139362500Y-60000000D02*
X139892500Y-59470000D01*
X118780000Y-67790000D02*
X120210000Y-67790000D01*
X120210000Y-67790000D02*
X121937500Y-66062500D01*
X121937500Y-60000000D02*
X121937500Y-58250000D01*
%TO.N,GND*%
X125062500Y-58250000D02*
X126750000Y-58250000D01*
%TO.N,-5V*%
X111862500Y-57750000D02*
X112112500Y-57500000D01*
X112112500Y-57500000D02*
X120500000Y-57500000D01*
X120500000Y-57500000D02*
X121250000Y-58250000D01*
X121250000Y-58250000D02*
X121937500Y-58250000D01*
%TO.N,GND*%
X110137500Y-57750000D02*
X110137500Y-58137500D01*
X110137500Y-58137500D02*
X111500000Y-59500000D01*
X112500000Y-67000000D02*
X113430000Y-67000000D01*
X113430000Y-67000000D02*
X114220000Y-67790000D01*
X110137500Y-57750000D02*
X107000000Y-57750000D01*
X107000000Y-57750000D02*
X98000000Y-57750000D01*
X98000000Y-57750000D02*
X97500000Y-58250000D01*
X96225000Y-61500000D02*
X96225000Y-59525000D01*
X96225000Y-59525000D02*
X97500000Y-58250000D01*
X114750000Y-69750000D02*
X114750000Y-71087500D01*
X114750000Y-71087500D02*
X114912500Y-71250000D01*
X114220000Y-67790000D02*
X114220000Y-69220000D01*
X114220000Y-69220000D02*
X114750000Y-69750000D01*
X134200000Y-64550000D02*
X130875000Y-67875000D01*
X130875000Y-67875000D02*
X130875000Y-67625000D01*
X130875000Y-67625000D02*
X130250000Y-67000000D01*
X121000000Y-70812500D02*
X120562500Y-71250000D01*
X121000000Y-69750000D02*
X121000000Y-70812500D01*
X139892500Y-64550000D02*
X134200000Y-64550000D01*
X130875000Y-67875000D02*
X128000000Y-70750000D01*
%TO.N,-12V*%
X124000000Y-72750000D02*
X125000000Y-73750000D01*
X125000000Y-73750000D02*
X138000000Y-73750000D01*
X138000000Y-73750000D02*
X139892500Y-71857500D01*
X139892500Y-71857500D02*
X139892500Y-69630000D01*
X117437500Y-71250000D02*
X117437500Y-72187500D01*
X124000000Y-66750000D02*
X128000000Y-62750000D01*
X117437500Y-72187500D02*
X118500000Y-73250000D01*
X118500000Y-73250000D02*
X123500000Y-73250000D01*
X123500000Y-73250000D02*
X124000000Y-72750000D01*
X124000000Y-72750000D02*
X124000000Y-66750000D01*
X109087500Y-71250000D02*
X109087500Y-71837500D01*
X109087500Y-71837500D02*
X110250000Y-73000000D01*
X110250000Y-73000000D02*
X115687500Y-73000000D01*
X115687500Y-73000000D02*
X117437500Y-71250000D01*
X116500000Y-67790000D02*
X116500000Y-70312500D01*
X116500000Y-70312500D02*
X117437500Y-71250000D01*
X116500000Y-61490000D02*
X116500000Y-67790000D01*
X99250000Y-69000000D02*
X99250000Y-66650000D01*
X99250000Y-66650000D02*
X99900000Y-66000000D01*
X99900000Y-66000000D02*
X103750000Y-66000000D01*
X103750000Y-66000000D02*
X104000000Y-66250000D01*
D50*
%TO.N,Net-(U4-BOOT)*%
X103780000Y-70250000D02*
X105612500Y-70250000D01*
X103125000Y-70905000D02*
X103780000Y-70250000D01*
X101950000Y-70905000D02*
X103125000Y-70905000D01*
X105612500Y-70250000D02*
X106612500Y-71250000D01*
D49*
%TO.N,-12V*%
X96550000Y-68365000D02*
X98615000Y-68365000D01*
X98615000Y-68365000D02*
X99250000Y-69000000D01*
%TO.N,VIN*%
X94500000Y-69862500D02*
X94500000Y-72250000D01*
X94500000Y-72250000D02*
X96750000Y-74500000D01*
X96750000Y-74500000D02*
X101500000Y-74500000D01*
X101500000Y-74500000D02*
X104020000Y-77020000D01*
X104020000Y-77020000D02*
X104020000Y-78710000D01*
X96550000Y-69635000D02*
X94727500Y-69635000D01*
X94727500Y-69635000D02*
X94500000Y-69862500D01*
%TO.N,-12V*%
X96550000Y-68365000D02*
X94727500Y-68365000D01*
X94727500Y-68365000D02*
X94500000Y-68137500D01*
X91812500Y-67250000D02*
X93000000Y-67250000D01*
X93612500Y-67250000D02*
X94500000Y-68137500D01*
%TO.N,VIN*%
X94500000Y-69862500D02*
X92700000Y-69862500D01*
X92700000Y-69862500D02*
X91812500Y-70750000D01*
X88687500Y-67250000D02*
X88687500Y-67937500D01*
X88687500Y-67937500D02*
X89750000Y-69000000D01*
X89750000Y-69000000D02*
X91000000Y-69000000D01*
X91000000Y-69000000D02*
X91812500Y-69812500D01*
X91812500Y-69812500D02*
X91812500Y-70750000D01*
%TO.N,GND*%
X88687500Y-70750000D02*
X88687500Y-72687500D01*
X88687500Y-72687500D02*
X88750000Y-72750000D01*
D50*
X102500000Y-97562500D02*
X103525000Y-97562500D01*
X94000000Y-85050000D02*
X95000000Y-85050000D01*
X108750000Y-91000000D02*
X107250000Y-91000000D01*
X114687500Y-97562500D02*
X114500000Y-97750000D01*
X91500000Y-80000000D02*
X92250000Y-79250000D01*
X93000000Y-94162500D02*
X93000000Y-94000000D01*
X103842500Y-90907500D02*
X102750000Y-92000000D01*
X100400000Y-97562500D02*
X102500000Y-97562500D01*
X96400000Y-97562500D02*
X93000000Y-94162500D01*
X104500000Y-90812500D02*
X104405000Y-90907500D01*
X95000000Y-85337500D02*
X95000000Y-85050000D01*
X94207500Y-91450000D02*
X94245000Y-91412500D01*
X102500000Y-96750000D02*
X102500000Y-97562500D01*
X109000000Y-90750000D02*
X108750000Y-91000000D01*
X120250000Y-97562500D02*
X121812500Y-97562500D01*
X121812500Y-97562500D02*
X122000000Y-97750000D01*
X92430000Y-91450000D02*
X94000000Y-91450000D01*
X103525000Y-97562500D02*
X103950000Y-97137500D01*
X116400000Y-97562500D02*
X120250000Y-97562500D01*
X95000000Y-85050000D02*
X95387500Y-85050000D01*
X94000000Y-91450000D02*
X94207500Y-91450000D01*
X94500000Y-91412500D02*
X95250000Y-92162500D01*
X88000000Y-79250000D02*
X88000000Y-80087500D01*
X114500000Y-89250000D02*
X114000000Y-88750000D01*
X87937500Y-95750000D02*
X87937500Y-95312500D01*
X91500000Y-80000000D02*
X91500000Y-81500000D01*
X94000000Y-93000000D02*
X94000000Y-92000000D01*
X96400000Y-97562500D02*
X100400000Y-97562500D01*
X107062500Y-90812500D02*
X107250000Y-91000000D01*
X91500000Y-81500000D02*
X94000000Y-84000000D01*
X94000000Y-84056000D02*
X94056000Y-84000000D01*
X94245000Y-91412500D02*
X94500000Y-91412500D01*
X87937500Y-95312500D02*
X89250000Y-94000000D01*
X96187500Y-84250000D02*
X96187500Y-83250000D01*
X90750000Y-79250000D02*
X90000000Y-79250000D01*
X102750000Y-92000000D02*
X102500000Y-92000000D01*
X95387500Y-85050000D02*
X96187500Y-84250000D01*
X92430000Y-85050000D02*
X94000000Y-85050000D01*
X92325000Y-79325000D02*
X92250000Y-79250000D01*
X119000000Y-89250000D02*
X118500000Y-88750000D01*
X90250000Y-80137500D02*
X90250000Y-79500000D01*
X90250000Y-79500000D02*
X90000000Y-79250000D01*
X93887500Y-79325000D02*
X92325000Y-79325000D01*
X91500000Y-80000000D02*
X90750000Y-79250000D01*
X94000000Y-84000000D02*
X94056000Y-84000000D01*
X93000000Y-94000000D02*
X94000000Y-93000000D01*
X94000000Y-85050000D02*
X94000000Y-84056000D01*
X104405000Y-90907500D02*
X103842500Y-90907500D01*
X116400000Y-97562500D02*
X114687500Y-97562500D01*
X88000000Y-79250000D02*
X90000000Y-79250000D01*
X94000000Y-91450000D02*
X94000000Y-92000000D01*
X89250000Y-94000000D02*
X93000000Y-94000000D01*
X104500000Y-90812500D02*
X107062500Y-90812500D01*
%TO.N,VIN*%
X100500000Y-94337500D02*
X100400000Y-94437500D01*
X99612500Y-76725000D02*
X102035000Y-76725000D01*
D49*
X100750000Y-94087500D02*
X100500000Y-94337500D01*
D50*
X102035000Y-76725000D02*
X104020000Y-78710000D01*
D49*
X98737500Y-85725000D02*
X99312500Y-85150000D01*
D50*
X100500000Y-87800000D02*
X101037500Y-87800000D01*
D49*
X100750000Y-88050000D02*
X100750000Y-94087500D01*
X99312500Y-85150000D02*
X99312500Y-83250000D01*
D50*
X103842500Y-94755000D02*
X103842500Y-93505000D01*
D49*
X100400000Y-94437500D02*
X103525000Y-94437500D01*
D50*
X103837500Y-93500000D02*
X103837500Y-93000000D01*
D49*
X98437500Y-87800000D02*
X100500000Y-87800000D01*
X96400000Y-94437500D02*
X100400000Y-94437500D01*
X98737500Y-87500000D02*
X98737500Y-85725000D01*
D50*
X103525000Y-94437500D02*
X103950000Y-94862500D01*
X98437500Y-87800000D02*
X98737500Y-87500000D01*
X103842500Y-93505000D02*
X103837500Y-93500000D01*
X103950000Y-94862500D02*
X103842500Y-94755000D01*
X101037500Y-87800000D02*
X102000000Y-86837500D01*
D49*
X100500000Y-87800000D02*
X100750000Y-88050000D01*
D50*
%TO.N,Net-(U1-BST)*%
X106042500Y-98930000D02*
X106112500Y-99000000D01*
X105850000Y-98557500D02*
X106042500Y-98750000D01*
X106042500Y-98750000D02*
X106042500Y-98930000D01*
X105850000Y-97137500D02*
X105850000Y-98557500D01*
%TO.N,Net-(U1-SW)*%
X107750000Y-97500000D02*
X108000000Y-97500000D01*
X104900000Y-97137500D02*
X104900000Y-96641612D01*
D52*
X106500000Y-96000000D02*
X108000000Y-97500000D01*
D50*
X104387500Y-98750000D02*
X104387500Y-99000000D01*
D49*
X108000000Y-97500000D02*
X110900000Y-97500000D01*
D50*
X104900000Y-97137500D02*
X104900000Y-98150000D01*
X104900000Y-98237500D02*
X104900000Y-98150000D01*
D52*
X105446900Y-96024000D02*
X105517612Y-96024000D01*
X104900000Y-96641612D02*
X105099000Y-96442612D01*
D50*
X104900000Y-98237500D02*
X104387500Y-98750000D01*
D52*
X105099000Y-96442612D02*
X105099000Y-96371900D01*
X105517612Y-96024000D02*
X105541612Y-96000000D01*
D50*
X107500000Y-97750000D02*
X107750000Y-97500000D01*
D52*
X105099000Y-96371900D02*
X105446900Y-96024000D01*
X105541612Y-96000000D02*
X106500000Y-96000000D01*
D49*
%TO.N,5V*%
X110900000Y-94500000D02*
X116337500Y-94500000D01*
X120250000Y-94437500D02*
X129817500Y-94437500D01*
D50*
X112036208Y-89592500D02*
X112036208Y-89301292D01*
X110900000Y-94500000D02*
X110900000Y-90728708D01*
D49*
X116400000Y-94437500D02*
X120250000Y-94437500D01*
D50*
X112036208Y-89301292D02*
X112250000Y-89087500D01*
X110900000Y-90728708D02*
X112036208Y-89592500D01*
X129817500Y-94437500D02*
X130250000Y-94870000D01*
X116337500Y-94500000D02*
X116400000Y-94437500D01*
D49*
X130250000Y-94870000D02*
X139805000Y-94870000D01*
X106212500Y-94500000D02*
X110900000Y-94500000D01*
D50*
X105850000Y-94862500D02*
X106212500Y-94500000D01*
D49*
%TO.N,12V*%
X109000000Y-87687500D02*
X116750000Y-87687500D01*
D50*
X109000000Y-89137500D02*
X109000000Y-87687500D01*
D49*
X116750000Y-87687500D02*
X123312500Y-87687500D01*
X104500000Y-87687500D02*
X109000000Y-87687500D01*
X123312500Y-87687500D02*
X130250000Y-80750000D01*
D50*
X116750000Y-89087500D02*
X116750000Y-87687500D01*
D49*
X130250000Y-79630000D02*
X139805000Y-79630000D01*
X130250000Y-80750000D02*
X130250000Y-79630000D01*
D50*
%TO.N,VBUS*%
X87350000Y-77600000D02*
X88250000Y-78500000D01*
X92430000Y-90650000D02*
X93776069Y-90650000D01*
X92250000Y-95750000D02*
X92750000Y-95250000D01*
X94069352Y-86689339D02*
X94069352Y-88569352D01*
X94149000Y-88851000D02*
X94250000Y-88750000D01*
X92430000Y-85850000D02*
X93230013Y-85850000D01*
X93565006Y-86184994D02*
X94069352Y-86689339D01*
X91825177Y-78500000D02*
X92518794Y-77806383D01*
X91062500Y-95750000D02*
X92250000Y-95750000D01*
X87350000Y-76750000D02*
X87350000Y-77600000D01*
X93887500Y-77375000D02*
X92950177Y-77375000D01*
X94250000Y-88750000D02*
X96562500Y-88750000D01*
X94069352Y-88569352D02*
X94250000Y-88750000D01*
X92950177Y-77375000D02*
X92518794Y-77806383D01*
X93776069Y-90650000D02*
X94149000Y-90277069D01*
X93230013Y-85850000D02*
X93565006Y-86184994D01*
X94149000Y-90277069D02*
X94149000Y-88851000D01*
X88250000Y-78500000D02*
X91825177Y-78500000D01*
%TO.N,Net-(J3-SHIELD)*%
X87675000Y-83930000D02*
X87675000Y-82237500D01*
X88000000Y-81912500D02*
X90200000Y-81912500D01*
X87675000Y-82237500D02*
X88000000Y-81912500D01*
X87675000Y-83930000D02*
X88000000Y-83605000D01*
X91855000Y-83930000D02*
X91855000Y-83467500D01*
X91855000Y-83467500D02*
X90250000Y-81862500D01*
X90200000Y-81912500D02*
X90250000Y-81862500D01*
D51*
%TO.N,Net-(D1-A)*%
X102000000Y-88662500D02*
X102000000Y-90092500D01*
D50*
%TO.N,Net-(D2-A)*%
X112300000Y-90862500D02*
X114500000Y-90862500D01*
X112250000Y-90912500D02*
X112300000Y-90862500D01*
%TO.N,Net-(D3-A)*%
X116837500Y-91000000D02*
X118862500Y-91000000D01*
X116750000Y-90912500D02*
X116837500Y-91000000D01*
X118862500Y-91000000D02*
X119000000Y-90862500D01*
D51*
%TO.N,Net-(J3-CC2)*%
X95250000Y-89750000D02*
X95250000Y-90337500D01*
X99612500Y-79325000D02*
X97663479Y-79325000D01*
X97663479Y-79325000D02*
X97379444Y-79040965D01*
X93376476Y-90000000D02*
X93440447Y-89936029D01*
X92430000Y-90000000D02*
X93376476Y-90000000D01*
%TO.N,Net-(J3-CC1)*%
X99612500Y-78675000D02*
X97932718Y-78675000D01*
X95092500Y-87250000D02*
X95005000Y-87162500D01*
X97648683Y-78390965D02*
X96940222Y-78390965D01*
X96940222Y-78390965D02*
X96675949Y-78655238D01*
X95500000Y-87250000D02*
X95092500Y-87250000D01*
X95005000Y-87162500D02*
X95000000Y-87162500D01*
X97932718Y-78675000D02*
X97648683Y-78390965D01*
X92430000Y-87000000D02*
X93319352Y-87000000D01*
%TO.N,Net-(JP1-A)*%
X88650000Y-76750000D02*
X89057500Y-76342500D01*
X90745000Y-76342500D02*
X91000000Y-76087500D01*
X91000000Y-76087500D02*
X91000000Y-75587500D01*
X89057500Y-76342500D02*
X90745000Y-76342500D01*
D50*
%TO.N,Net-(Q1-G)*%
X93887500Y-76725000D02*
X94975000Y-76725000D01*
X98487500Y-89750000D02*
X98437500Y-89700000D01*
X95500000Y-80500000D02*
X97500000Y-82500000D01*
X95500000Y-79689339D02*
X95500000Y-80500000D01*
X95750000Y-77500000D02*
X95750000Y-79439339D01*
X97500000Y-82500000D02*
X97500000Y-86500000D01*
X95750000Y-79439339D02*
X95500000Y-79689339D01*
X99750000Y-89750000D02*
X98487500Y-89750000D01*
X94975000Y-76725000D02*
X95750000Y-77500000D01*
D51*
%TO.N,Net-(U3-SEL)*%
X92250000Y-77000000D02*
X91657500Y-77000000D01*
X91657500Y-77000000D02*
X91250000Y-77407500D01*
X91250000Y-77407500D02*
X91005000Y-77407500D01*
X91005000Y-77407500D02*
X91000000Y-77412500D01*
X99612500Y-79975000D02*
X96525000Y-79975000D01*
X96525000Y-79975000D02*
X96500000Y-80000000D01*
D50*
%TO.N,Net-(U1-EN)*%
X105482500Y-93180000D02*
X105162500Y-93180000D01*
X105662500Y-93000000D02*
X105482500Y-93180000D01*
X105000000Y-93342500D02*
X105000000Y-94762500D01*
X105162500Y-93180000D02*
X105000000Y-93342500D01*
X105000000Y-94762500D02*
X104900000Y-94862500D01*
%TD*%
%TA.AperFunction,Conductor*%
%TO.N,GND*%
G36*
X124721747Y-74609439D02*
G01*
X124733932Y-74614486D01*
X124737334Y-74615895D01*
X124911304Y-74650499D01*
X124911308Y-74650500D01*
X125073258Y-74650500D01*
X125140297Y-74670185D01*
X125186052Y-74722989D01*
X125197243Y-74776437D01*
X125043220Y-84633838D01*
X125022490Y-84700562D01*
X125006916Y-84719582D01*
X122975819Y-86750681D01*
X122914496Y-86784166D01*
X122888138Y-86787000D01*
X105774730Y-86787000D01*
X105752713Y-86780535D01*
X105729847Y-86778592D01*
X105716538Y-86769913D01*
X105707691Y-86767315D01*
X105699099Y-86761265D01*
X105692734Y-86756366D01*
X105618656Y-86682288D01*
X105507034Y-86613439D01*
X105501960Y-86609534D01*
X105485017Y-86586258D01*
X105465770Y-86564860D01*
X105464713Y-86558365D01*
X105460840Y-86553045D01*
X105459170Y-86524309D01*
X105454547Y-86495898D01*
X105457169Y-86489861D01*
X105456788Y-86483293D01*
X105470918Y-86458217D01*
X105482390Y-86431816D01*
X105489899Y-86423599D01*
X107696680Y-84216817D01*
X107758003Y-84183333D01*
X107784361Y-84180499D01*
X108460002Y-84180499D01*
X108460008Y-84180499D01*
X108562797Y-84169999D01*
X108729334Y-84114814D01*
X108878656Y-84022712D01*
X109002712Y-83898656D01*
X109094814Y-83749334D01*
X109149999Y-83582797D01*
X109158459Y-83499988D01*
X110160001Y-83499988D01*
X110170494Y-83602699D01*
X110225640Y-83769120D01*
X110225642Y-83769125D01*
X110317683Y-83918346D01*
X110441653Y-84042316D01*
X110590874Y-84134357D01*
X110590879Y-84134359D01*
X110757301Y-84189505D01*
X110860017Y-84199999D01*
X113609999Y-84199999D01*
X114110000Y-84199999D01*
X116859974Y-84199999D01*
X116859988Y-84199998D01*
X116962699Y-84189505D01*
X117129120Y-84134359D01*
X117129125Y-84134357D01*
X117278346Y-84042316D01*
X117402316Y-83918346D01*
X117494357Y-83769125D01*
X117494359Y-83769120D01*
X117549505Y-83602698D01*
X117559999Y-83499988D01*
X117560000Y-83499975D01*
X117560000Y-81050000D01*
X114110000Y-81050000D01*
X114110000Y-84199999D01*
X113609999Y-84199999D01*
X113610000Y-84199998D01*
X113610000Y-81050000D01*
X110160001Y-81050000D01*
X110160001Y-83499988D01*
X109158459Y-83499988D01*
X109160500Y-83480009D01*
X109160499Y-82679992D01*
X109149999Y-82577203D01*
X109094814Y-82410666D01*
X109002712Y-82261344D01*
X108878656Y-82137288D01*
X108729334Y-82045186D01*
X108562797Y-81990001D01*
X108562795Y-81990000D01*
X108460010Y-81979500D01*
X106659998Y-81979500D01*
X106659981Y-81979501D01*
X106557203Y-81990000D01*
X106557200Y-81990001D01*
X106390668Y-82045185D01*
X106390663Y-82045187D01*
X106241342Y-82137289D01*
X106117289Y-82261342D01*
X106025187Y-82410663D01*
X106025185Y-82410668D01*
X105997349Y-82494670D01*
X105970001Y-82577203D01*
X105970001Y-82577204D01*
X105970000Y-82577204D01*
X105959500Y-82679983D01*
X105959500Y-83355637D01*
X105939815Y-83422676D01*
X105923181Y-83443318D01*
X104611681Y-84754818D01*
X104550358Y-84788303D01*
X104480666Y-84783319D01*
X104424733Y-84741447D01*
X104400316Y-84675983D01*
X104400000Y-84667137D01*
X104400000Y-80724861D01*
X104419685Y-80657822D01*
X104436319Y-80637180D01*
X104719459Y-80354040D01*
X104719458Y-80354040D01*
X104719464Y-80354035D01*
X104739898Y-80323453D01*
X104818013Y-80206547D01*
X104837895Y-80158547D01*
X104885895Y-80042666D01*
X104920500Y-79868691D01*
X104920500Y-79691308D01*
X104920500Y-79544500D01*
X104940185Y-79477461D01*
X104992989Y-79431706D01*
X105044500Y-79420500D01*
X106147770Y-79420500D01*
X106214809Y-79440185D01*
X106235451Y-79456819D01*
X106241344Y-79462712D01*
X106390666Y-79554814D01*
X106557203Y-79609999D01*
X106659991Y-79620500D01*
X108460008Y-79620499D01*
X108562797Y-79609999D01*
X108729334Y-79554814D01*
X108878656Y-79462712D01*
X109002712Y-79338656D01*
X109094814Y-79189334D01*
X109149999Y-79022797D01*
X109160500Y-78920009D01*
X109160499Y-78119992D01*
X109160427Y-78119292D01*
X109159424Y-78109460D01*
X109158458Y-78100011D01*
X110160000Y-78100011D01*
X110160000Y-80550000D01*
X113610000Y-80550000D01*
X114110000Y-80550000D01*
X117559999Y-80550000D01*
X117559999Y-78100026D01*
X117559998Y-78100011D01*
X117549505Y-77997300D01*
X117494359Y-77830879D01*
X117494357Y-77830874D01*
X117402316Y-77681653D01*
X117278346Y-77557683D01*
X117129125Y-77465642D01*
X117129120Y-77465640D01*
X116962698Y-77410494D01*
X116859988Y-77400000D01*
X114110000Y-77400000D01*
X114110000Y-80550000D01*
X113610000Y-80550000D01*
X113610000Y-77400000D01*
X110860026Y-77400000D01*
X110860010Y-77400001D01*
X110757300Y-77410494D01*
X110590879Y-77465640D01*
X110590874Y-77465642D01*
X110441653Y-77557683D01*
X110317683Y-77681653D01*
X110225642Y-77830874D01*
X110225640Y-77830879D01*
X110170494Y-77997301D01*
X110160000Y-78100011D01*
X109158458Y-78100011D01*
X109154827Y-78064474D01*
X109149999Y-78017203D01*
X109094814Y-77850666D01*
X109002712Y-77701344D01*
X108878656Y-77577288D01*
X108729334Y-77485186D01*
X108562797Y-77430001D01*
X108562795Y-77430000D01*
X108460010Y-77419500D01*
X106659998Y-77419500D01*
X106659981Y-77419501D01*
X106557203Y-77430000D01*
X106557200Y-77430001D01*
X106390668Y-77485185D01*
X106390663Y-77485187D01*
X106241342Y-77577289D01*
X106235451Y-77583181D01*
X106174128Y-77616666D01*
X106147770Y-77619500D01*
X105044500Y-77619500D01*
X104977461Y-77599815D01*
X104931706Y-77547011D01*
X104920500Y-77495500D01*
X104920500Y-76931310D01*
X104920500Y-76931309D01*
X104920106Y-76929328D01*
X104885895Y-76757334D01*
X104843923Y-76656006D01*
X104818013Y-76593453D01*
X104758936Y-76505040D01*
X104756214Y-76500966D01*
X104719466Y-76445966D01*
X104436319Y-76162819D01*
X104402834Y-76101496D01*
X104400000Y-76075138D01*
X104400000Y-74724000D01*
X104419685Y-74656961D01*
X104472489Y-74611206D01*
X104524000Y-74600000D01*
X124674295Y-74600000D01*
X124721747Y-74609439D01*
G37*
%TD.AperFunction*%
%TD*%
M02*
