M48
; DRILL file KiCad 10.0.1 date 2026-05-09T17:36:02
; FORMAT={-:-/ absolute / inch / decimal}
; #@! TF.CreationDate,2026-05-09T17:36:02+02:00
; #@! TF.GenerationSoftware,Kicad,Pcbnew,10.0.1
; #@! TF.FileFunction,Plated,1,2,PTH
FMAT,2
INCH
; #@! TA.AperFunction,Plated,PTH,ViaDrill
T1C0.0118
; #@! TA.AperFunction,Plated,PTH,ComponentDrill
T2C0.0118
; #@! TA.AperFunction,Plated,PTH,ViaDrill
T3C0.0197
; #@! TA.AperFunction,Plated,PTH,ComponentDrill
T4C0.0236
; #@! TA.AperFunction,Plated,PTH,ComponentDrill
T5C0.0630
; #@! TA.AperFunction,Plated,PTH,ComponentDrill
T6C0.0689
; #@! TA.AperFunction,Plated,PTH,ComponentDrill
T7C0.0701
%
G90
G05
T1
X3.4646Y-3.1201
X3.4941Y-2.8642
X3.5433Y-3.1201
X3.6319Y-3.0315
X3.6319Y-3.1201
X3.6425Y-3.0632
X3.6516Y-3.75
X3.6535Y-2.4803
X3.6614Y-2.6063
X3.674Y-3.4252
X3.6788Y-3.5408
X3.6837Y-3.3931
X3.6921Y-3.5715
X3.7008Y-3.622
X3.703Y-3.3071
X3.75Y-3.5335
X3.7598Y-3.435
X3.7992Y-3.1496
X3.8061Y-3.0967
X3.8338Y-3.1118
X3.8386Y-2.2933
X3.8386Y-3.4055
X3.9272Y-3.5335
X4.0354Y-3.622
X4.0354Y-3.8091
X4.065Y-2.6476
X4.0953Y-3.1988
X4.1299Y-3.8642
X4.1811Y-2.9921
X4.2126Y-2.2736
X4.2224Y-3.5827
X4.2323Y-3.8484
X4.252Y-2.9921
X4.252Y-3.3858
X4.3307Y-2.9921
X4.3307Y-3.3858
X4.4094Y-2.8051
X4.4094Y-2.9921
X4.4094Y-3.3858
X4.4882Y-2.9921
X4.4882Y-3.3858
X4.4882Y-3.4941
X4.5079Y-3.8484
X4.5669Y-2.9921
X4.5669Y-3.3858
X4.6457Y-2.9921
X4.6457Y-3.0709
X4.6457Y-3.1496
X4.6457Y-3.2283
X4.6457Y-3.3071
X4.6457Y-3.3858
X4.6654Y-3.4941
X4.8031Y-2.9921
X4.8031Y-3.0709
X4.8031Y-3.1496
X4.8031Y-3.2283
X4.8031Y-3.3071
X4.8031Y-3.3858
X4.8031Y-3.8484
T2
X3.8839Y-2.6457
X3.8839Y-2.689
X3.8839Y-2.7402
X3.8839Y-2.7874
X3.9311Y-2.6457
X3.9311Y-2.689
X3.9311Y-2.7402
X3.9311Y-2.7874
T3
X4.1417Y-2.8425
X4.1535Y-2.4606
X4.1654Y-2.6457
X4.3898Y-2.3425
X4.4291Y-2.6378
X4.5177Y-2.7461
X4.7638Y-2.7461
X4.9902Y-2.2933
X5.128Y-2.6378
T5
X5.5076Y-2.3413
X5.5076Y-2.5413
X5.5076Y-2.7413
T6
X5.128Y-3.135
X5.128Y-3.335
X5.128Y-3.535
X5.128Y-3.735
T7
X5.5041Y-3.135
X5.5041Y-3.335
X5.5041Y-3.535
X5.5041Y-3.735
T4
G00X3.4675Y-3.3043
M15
G01X3.436Y-3.3043
M16
G05
G00X3.4675Y-3.6445
M15
G01X3.436Y-3.6445
M16
G05
G00X3.638Y-3.3043
M15
G01X3.5947Y-3.3043
M16
G05
G00X3.638Y-3.6445
M15
G01X3.5947Y-3.6445
M16
G05
M30
