%TF.GenerationSoftware,KiCad,Pcbnew,9.0.3+dfsg-1*%
%TF.CreationDate,2026-03-01T17:05:38+01:00*%
%TF.ProjectId,usbpd-adapter,75736270-642d-4616-9461-707465722e6b,rev?*%
%TF.SameCoordinates,Original*%
%TF.FileFunction,Legend,Top*%
%TF.FilePolarity,Positive*%
%FSLAX46Y46*%
G04 Gerber Fmt 4.6, Leading zero omitted, Abs format (unit mm)*
G04 Created by KiCad (PCBNEW 9.0.3+dfsg-1) date 2026-03-01 17:05:38*
%MOMM*%
%LPD*%
G01*
G04 APERTURE LIST*
G04 Aperture macros list*
%AMRoundRect*
0 Rectangle with rounded corners*
0 $1 Rounding radius*
0 $2 $3 $4 $5 $6 $7 $8 $9 X,Y pos of 4 corners*
0 Add a 4 corners polygon primitive as box body*
4,1,4,$2,$3,$4,$5,$6,$7,$8,$9,$2,$3,0*
0 Add four circle primitives for the rounded corners*
1,1,$1+$1,$2,$3*
1,1,$1+$1,$4,$5*
1,1,$1+$1,$6,$7*
1,1,$1+$1,$8,$9*
0 Add four rect primitives between the rounded corners*
20,1,$1+$1,$2,$3,$4,$5,0*
20,1,$1+$1,$4,$5,$6,$7,0*
20,1,$1+$1,$6,$7,$8,$9,0*
20,1,$1+$1,$8,$9,$2,$3,0*%
%AMFreePoly0*
4,1,23,0.500000,-0.750000,0.000000,-0.750000,0.000000,-0.745722,-0.065263,-0.745722,-0.191342,-0.711940,-0.304381,-0.646677,-0.396677,-0.554381,-0.461940,-0.441342,-0.495722,-0.315263,-0.495722,-0.250000,-0.500000,-0.250000,-0.500000,0.250000,-0.495722,0.250000,-0.495722,0.315263,-0.461940,0.441342,-0.396677,0.554381,-0.304381,0.646677,-0.191342,0.711940,-0.065263,0.745722,0.000000,0.745722,
0.000000,0.750000,0.500000,0.750000,0.500000,-0.750000,0.500000,-0.750000,$1*%
%AMFreePoly1*
4,1,23,0.000000,0.745722,0.065263,0.745722,0.191342,0.711940,0.304381,0.646677,0.396677,0.554381,0.461940,0.441342,0.495722,0.315263,0.495722,0.250000,0.500000,0.250000,0.500000,-0.250000,0.495722,-0.250000,0.495722,-0.315263,0.461940,-0.441342,0.396677,-0.554381,0.304381,-0.646677,0.191342,-0.711940,0.065263,-0.745722,0.000000,-0.745722,0.000000,-0.750000,-0.500000,-0.750000,
-0.500000,0.750000,0.000000,0.750000,0.000000,0.745722,0.000000,0.745722,$1*%
G04 Aperture macros list end*
%ADD10C,0.100000*%
%ADD11C,0.250000*%
%ADD12C,0.150000*%
%ADD13C,0.120000*%
%ADD14RoundRect,0.237500X-0.237500X0.287500X-0.237500X-0.287500X0.237500X-0.287500X0.237500X0.287500X0*%
%ADD15RoundRect,0.237500X0.237500X-0.250000X0.237500X0.250000X-0.237500X0.250000X-0.237500X-0.250000X0*%
%ADD16RoundRect,0.237500X0.237500X-0.287500X0.237500X0.287500X-0.237500X0.287500X-0.237500X-0.287500X0*%
%ADD17RoundRect,0.237500X0.237500X-0.300000X0.237500X0.300000X-0.237500X0.300000X-0.237500X-0.300000X0*%
%ADD18RoundRect,0.250000X-0.650000X0.412500X-0.650000X-0.412500X0.650000X-0.412500X0.650000X0.412500X0*%
%ADD19RoundRect,0.250000X1.600000X-0.300000X1.600000X0.300000X-1.600000X0.300000X-1.600000X-0.300000X0*%
%ADD20RoundRect,0.237500X-0.237500X0.250000X-0.237500X-0.250000X0.237500X-0.250000X0.237500X0.250000X0*%
%ADD21RoundRect,0.150000X-0.150000X0.512500X-0.150000X-0.512500X0.150000X-0.512500X0.150000X0.512500X0*%
%ADD22RoundRect,0.237500X-0.250000X-0.237500X0.250000X-0.237500X0.250000X0.237500X-0.250000X0.237500X0*%
%ADD23RoundRect,0.150000X0.587500X0.150000X-0.587500X0.150000X-0.587500X-0.150000X0.587500X-0.150000X0*%
%ADD24FreePoly0,180.000000*%
%ADD25FreePoly1,180.000000*%
%ADD26R,2.780000X2.780000*%
%ADD27C,2.780000*%
%ADD28RoundRect,0.237500X0.300000X0.237500X-0.300000X0.237500X-0.300000X-0.237500X0.300000X-0.237500X0*%
%ADD29RoundRect,0.250000X0.412500X0.650000X-0.412500X0.650000X-0.412500X-0.650000X0.412500X-0.650000X0*%
%ADD30RoundRect,0.100000X-0.637500X-0.100000X0.637500X-0.100000X0.637500X0.100000X-0.637500X0.100000X0*%
%ADD31R,2.800000X2.800000*%
%ADD32C,2.800000*%
%ADD33C,3.500000*%
%ADD34R,2.000000X1.905000*%
%ADD35O,2.000000X1.905000*%
%ADD36C,0.650000*%
%ADD37RoundRect,0.150000X-0.425000X0.150000X-0.425000X-0.150000X0.425000X-0.150000X0.425000X0.150000X0*%
%ADD38RoundRect,0.075000X-0.500000X0.075000X-0.500000X-0.075000X0.500000X-0.075000X0.500000X0.075000X0*%
%ADD39O,2.100000X1.000000*%
%ADD40O,1.800000X1.000000*%
G04 APERTURE END LIST*
D10*
X118327693Y-88122419D02*
X117756265Y-88122419D01*
X118041979Y-88122419D02*
X118041979Y-87122419D01*
X118041979Y-87122419D02*
X117946741Y-87265276D01*
X117946741Y-87265276D02*
X117851503Y-87360514D01*
X117851503Y-87360514D02*
X117756265Y-87408133D01*
X118708646Y-87217657D02*
X118756265Y-87170038D01*
X118756265Y-87170038D02*
X118851503Y-87122419D01*
X118851503Y-87122419D02*
X119089598Y-87122419D01*
X119089598Y-87122419D02*
X119184836Y-87170038D01*
X119184836Y-87170038D02*
X119232455Y-87217657D01*
X119232455Y-87217657D02*
X119280074Y-87312895D01*
X119280074Y-87312895D02*
X119280074Y-87408133D01*
X119280074Y-87408133D02*
X119232455Y-87550990D01*
X119232455Y-87550990D02*
X118661027Y-88122419D01*
X118661027Y-88122419D02*
X119280074Y-88122419D01*
X119565789Y-87122419D02*
X119899122Y-88122419D01*
X119899122Y-88122419D02*
X120232455Y-87122419D01*
X114280074Y-87122419D02*
X113803884Y-87122419D01*
X113803884Y-87122419D02*
X113756265Y-87598609D01*
X113756265Y-87598609D02*
X113803884Y-87550990D01*
X113803884Y-87550990D02*
X113899122Y-87503371D01*
X113899122Y-87503371D02*
X114137217Y-87503371D01*
X114137217Y-87503371D02*
X114232455Y-87550990D01*
X114232455Y-87550990D02*
X114280074Y-87598609D01*
X114280074Y-87598609D02*
X114327693Y-87693847D01*
X114327693Y-87693847D02*
X114327693Y-87931942D01*
X114327693Y-87931942D02*
X114280074Y-88027180D01*
X114280074Y-88027180D02*
X114232455Y-88074800D01*
X114232455Y-88074800D02*
X114137217Y-88122419D01*
X114137217Y-88122419D02*
X113899122Y-88122419D01*
X113899122Y-88122419D02*
X113803884Y-88074800D01*
X113803884Y-88074800D02*
X113756265Y-88027180D01*
X114613408Y-87122419D02*
X114946741Y-88122419D01*
X114946741Y-88122419D02*
X115280074Y-87122419D01*
X99161027Y-92122419D02*
X99494360Y-93122419D01*
X99494360Y-93122419D02*
X99827693Y-92122419D01*
X100161027Y-93122419D02*
X100161027Y-92455752D01*
X100161027Y-92122419D02*
X100113408Y-92170038D01*
X100113408Y-92170038D02*
X100161027Y-92217657D01*
X100161027Y-92217657D02*
X100208646Y-92170038D01*
X100208646Y-92170038D02*
X100161027Y-92122419D01*
X100161027Y-92122419D02*
X100161027Y-92217657D01*
X100637217Y-92455752D02*
X100637217Y-93122419D01*
X100637217Y-92550990D02*
X100684836Y-92503371D01*
X100684836Y-92503371D02*
X100780074Y-92455752D01*
X100780074Y-92455752D02*
X100922931Y-92455752D01*
X100922931Y-92455752D02*
X101018169Y-92503371D01*
X101018169Y-92503371D02*
X101065788Y-92598609D01*
X101065788Y-92598609D02*
X101065788Y-93122419D01*
D11*
X125995571Y-96061717D02*
X125947952Y-96109336D01*
X125947952Y-96109336D02*
X125805095Y-96204574D01*
X125805095Y-96204574D02*
X125709857Y-96252193D01*
X125709857Y-96252193D02*
X125567000Y-96299812D01*
X125567000Y-96299812D02*
X125328904Y-96347431D01*
X125328904Y-96347431D02*
X125138428Y-96347431D01*
X125138428Y-96347431D02*
X124900333Y-96299812D01*
X124900333Y-96299812D02*
X124757476Y-96252193D01*
X124757476Y-96252193D02*
X124662238Y-96204574D01*
X124662238Y-96204574D02*
X124519380Y-96109336D01*
X124519380Y-96109336D02*
X124471761Y-96061717D01*
X125519380Y-95109336D02*
X125567000Y-95156955D01*
X125567000Y-95156955D02*
X125614619Y-95299812D01*
X125614619Y-95299812D02*
X125614619Y-95395050D01*
X125614619Y-95395050D02*
X125567000Y-95537907D01*
X125567000Y-95537907D02*
X125471761Y-95633145D01*
X125471761Y-95633145D02*
X125376523Y-95680764D01*
X125376523Y-95680764D02*
X125186047Y-95728383D01*
X125186047Y-95728383D02*
X125043190Y-95728383D01*
X125043190Y-95728383D02*
X124852714Y-95680764D01*
X124852714Y-95680764D02*
X124757476Y-95633145D01*
X124757476Y-95633145D02*
X124662238Y-95537907D01*
X124662238Y-95537907D02*
X124614619Y-95395050D01*
X124614619Y-95395050D02*
X124614619Y-95299812D01*
X124614619Y-95299812D02*
X124662238Y-95156955D01*
X124662238Y-95156955D02*
X124709857Y-95109336D01*
X125995571Y-94776002D02*
X125947952Y-94728383D01*
X125947952Y-94728383D02*
X125805095Y-94633145D01*
X125805095Y-94633145D02*
X125709857Y-94585526D01*
X125709857Y-94585526D02*
X125567000Y-94537907D01*
X125567000Y-94537907D02*
X125328904Y-94490288D01*
X125328904Y-94490288D02*
X125138428Y-94490288D01*
X125138428Y-94490288D02*
X124900333Y-94537907D01*
X124900333Y-94537907D02*
X124757476Y-94585526D01*
X124757476Y-94585526D02*
X124662238Y-94633145D01*
X124662238Y-94633145D02*
X124519380Y-94728383D01*
X124519380Y-94728383D02*
X124471761Y-94776002D01*
X125328904Y-93299811D02*
X125328904Y-92823621D01*
X125614619Y-93395049D02*
X124614619Y-93061716D01*
X124614619Y-93061716D02*
X125614619Y-92728383D01*
X125519380Y-92395049D02*
X125567000Y-92347430D01*
X125567000Y-92347430D02*
X125614619Y-92395049D01*
X125614619Y-92395049D02*
X125567000Y-92442668D01*
X125567000Y-92442668D02*
X125519380Y-92395049D01*
X125519380Y-92395049D02*
X125614619Y-92395049D01*
X125090809Y-90823621D02*
X125090809Y-91156954D01*
X125614619Y-91156954D02*
X124614619Y-91156954D01*
X124614619Y-91156954D02*
X124614619Y-90680764D01*
X125614619Y-89871240D02*
X125090809Y-89871240D01*
X125090809Y-89871240D02*
X124995571Y-89918859D01*
X124995571Y-89918859D02*
X124947952Y-90014097D01*
X124947952Y-90014097D02*
X124947952Y-90204573D01*
X124947952Y-90204573D02*
X124995571Y-90299811D01*
X125567000Y-89871240D02*
X125614619Y-89966478D01*
X125614619Y-89966478D02*
X125614619Y-90204573D01*
X125614619Y-90204573D02*
X125567000Y-90299811D01*
X125567000Y-90299811D02*
X125471761Y-90347430D01*
X125471761Y-90347430D02*
X125376523Y-90347430D01*
X125376523Y-90347430D02*
X125281285Y-90299811D01*
X125281285Y-90299811D02*
X125233666Y-90204573D01*
X125233666Y-90204573D02*
X125233666Y-89966478D01*
X125233666Y-89966478D02*
X125186047Y-89871240D01*
X125567000Y-88966478D02*
X125614619Y-89061716D01*
X125614619Y-89061716D02*
X125614619Y-89252192D01*
X125614619Y-89252192D02*
X125567000Y-89347430D01*
X125567000Y-89347430D02*
X125519380Y-89395049D01*
X125519380Y-89395049D02*
X125424142Y-89442668D01*
X125424142Y-89442668D02*
X125138428Y-89442668D01*
X125138428Y-89442668D02*
X125043190Y-89395049D01*
X125043190Y-89395049D02*
X124995571Y-89347430D01*
X124995571Y-89347430D02*
X124947952Y-89252192D01*
X124947952Y-89252192D02*
X124947952Y-89061716D01*
X124947952Y-89061716D02*
X124995571Y-88966478D01*
X125614619Y-88537906D02*
X124614619Y-88537906D01*
X125614619Y-88109335D02*
X125090809Y-88109335D01*
X125090809Y-88109335D02*
X124995571Y-88156954D01*
X124995571Y-88156954D02*
X124947952Y-88252192D01*
X124947952Y-88252192D02*
X124947952Y-88395049D01*
X124947952Y-88395049D02*
X124995571Y-88490287D01*
X124995571Y-88490287D02*
X125043190Y-88537906D01*
X125614619Y-87204573D02*
X125090809Y-87204573D01*
X125090809Y-87204573D02*
X124995571Y-87252192D01*
X124995571Y-87252192D02*
X124947952Y-87347430D01*
X124947952Y-87347430D02*
X124947952Y-87537906D01*
X124947952Y-87537906D02*
X124995571Y-87633144D01*
X125567000Y-87204573D02*
X125614619Y-87299811D01*
X125614619Y-87299811D02*
X125614619Y-87537906D01*
X125614619Y-87537906D02*
X125567000Y-87633144D01*
X125567000Y-87633144D02*
X125471761Y-87680763D01*
X125471761Y-87680763D02*
X125376523Y-87680763D01*
X125376523Y-87680763D02*
X125281285Y-87633144D01*
X125281285Y-87633144D02*
X125233666Y-87537906D01*
X125233666Y-87537906D02*
X125233666Y-87299811D01*
X125233666Y-87299811D02*
X125186047Y-87204573D01*
X124947952Y-86871239D02*
X124947952Y-86490287D01*
X124614619Y-86728382D02*
X125471761Y-86728382D01*
X125471761Y-86728382D02*
X125567000Y-86680763D01*
X125567000Y-86680763D02*
X125614619Y-86585525D01*
X125614619Y-86585525D02*
X125614619Y-86490287D01*
X109652568Y-98614619D02*
X109652568Y-99424142D01*
X109652568Y-99424142D02*
X109700187Y-99519380D01*
X109700187Y-99519380D02*
X109747806Y-99567000D01*
X109747806Y-99567000D02*
X109843044Y-99614619D01*
X109843044Y-99614619D02*
X110033520Y-99614619D01*
X110033520Y-99614619D02*
X110128758Y-99567000D01*
X110128758Y-99567000D02*
X110176377Y-99519380D01*
X110176377Y-99519380D02*
X110223996Y-99424142D01*
X110223996Y-99424142D02*
X110223996Y-98614619D01*
X110652568Y-99567000D02*
X110795425Y-99614619D01*
X110795425Y-99614619D02*
X111033520Y-99614619D01*
X111033520Y-99614619D02*
X111128758Y-99567000D01*
X111128758Y-99567000D02*
X111176377Y-99519380D01*
X111176377Y-99519380D02*
X111223996Y-99424142D01*
X111223996Y-99424142D02*
X111223996Y-99328904D01*
X111223996Y-99328904D02*
X111176377Y-99233666D01*
X111176377Y-99233666D02*
X111128758Y-99186047D01*
X111128758Y-99186047D02*
X111033520Y-99138428D01*
X111033520Y-99138428D02*
X110843044Y-99090809D01*
X110843044Y-99090809D02*
X110747806Y-99043190D01*
X110747806Y-99043190D02*
X110700187Y-98995571D01*
X110700187Y-98995571D02*
X110652568Y-98900333D01*
X110652568Y-98900333D02*
X110652568Y-98805095D01*
X110652568Y-98805095D02*
X110700187Y-98709857D01*
X110700187Y-98709857D02*
X110747806Y-98662238D01*
X110747806Y-98662238D02*
X110843044Y-98614619D01*
X110843044Y-98614619D02*
X111081139Y-98614619D01*
X111081139Y-98614619D02*
X111223996Y-98662238D01*
X111985901Y-99090809D02*
X112128758Y-99138428D01*
X112128758Y-99138428D02*
X112176377Y-99186047D01*
X112176377Y-99186047D02*
X112223996Y-99281285D01*
X112223996Y-99281285D02*
X112223996Y-99424142D01*
X112223996Y-99424142D02*
X112176377Y-99519380D01*
X112176377Y-99519380D02*
X112128758Y-99567000D01*
X112128758Y-99567000D02*
X112033520Y-99614619D01*
X112033520Y-99614619D02*
X111652568Y-99614619D01*
X111652568Y-99614619D02*
X111652568Y-98614619D01*
X111652568Y-98614619D02*
X111985901Y-98614619D01*
X111985901Y-98614619D02*
X112081139Y-98662238D01*
X112081139Y-98662238D02*
X112128758Y-98709857D01*
X112128758Y-98709857D02*
X112176377Y-98805095D01*
X112176377Y-98805095D02*
X112176377Y-98900333D01*
X112176377Y-98900333D02*
X112128758Y-98995571D01*
X112128758Y-98995571D02*
X112081139Y-99043190D01*
X112081139Y-99043190D02*
X111985901Y-99090809D01*
X111985901Y-99090809D02*
X111652568Y-99090809D01*
X112652568Y-99233666D02*
X113414473Y-99233666D01*
X114462091Y-99519380D02*
X114414472Y-99567000D01*
X114414472Y-99567000D02*
X114271615Y-99614619D01*
X114271615Y-99614619D02*
X114176377Y-99614619D01*
X114176377Y-99614619D02*
X114033520Y-99567000D01*
X114033520Y-99567000D02*
X113938282Y-99471761D01*
X113938282Y-99471761D02*
X113890663Y-99376523D01*
X113890663Y-99376523D02*
X113843044Y-99186047D01*
X113843044Y-99186047D02*
X113843044Y-99043190D01*
X113843044Y-99043190D02*
X113890663Y-98852714D01*
X113890663Y-98852714D02*
X113938282Y-98757476D01*
X113938282Y-98757476D02*
X114033520Y-98662238D01*
X114033520Y-98662238D02*
X114176377Y-98614619D01*
X114176377Y-98614619D02*
X114271615Y-98614619D01*
X114271615Y-98614619D02*
X114414472Y-98662238D01*
X114414472Y-98662238D02*
X114462091Y-98709857D01*
X114890663Y-99233666D02*
X115652568Y-99233666D01*
X116128758Y-99614619D02*
X116128758Y-98614619D01*
X116128758Y-98614619D02*
X116509710Y-98614619D01*
X116509710Y-98614619D02*
X116604948Y-98662238D01*
X116604948Y-98662238D02*
X116652567Y-98709857D01*
X116652567Y-98709857D02*
X116700186Y-98805095D01*
X116700186Y-98805095D02*
X116700186Y-98947952D01*
X116700186Y-98947952D02*
X116652567Y-99043190D01*
X116652567Y-99043190D02*
X116604948Y-99090809D01*
X116604948Y-99090809D02*
X116509710Y-99138428D01*
X116509710Y-99138428D02*
X116128758Y-99138428D01*
X117033520Y-98614619D02*
X117271615Y-99614619D01*
X117271615Y-99614619D02*
X117462091Y-98900333D01*
X117462091Y-98900333D02*
X117652567Y-99614619D01*
X117652567Y-99614619D02*
X117890663Y-98614619D01*
X118843043Y-99614619D02*
X118509710Y-99138428D01*
X118271615Y-99614619D02*
X118271615Y-98614619D01*
X118271615Y-98614619D02*
X118652567Y-98614619D01*
X118652567Y-98614619D02*
X118747805Y-98662238D01*
X118747805Y-98662238D02*
X118795424Y-98709857D01*
X118795424Y-98709857D02*
X118843043Y-98805095D01*
X118843043Y-98805095D02*
X118843043Y-98947952D01*
X118843043Y-98947952D02*
X118795424Y-99043190D01*
X118795424Y-99043190D02*
X118747805Y-99090809D01*
X118747805Y-99090809D02*
X118652567Y-99138428D01*
X118652567Y-99138428D02*
X118271615Y-99138428D01*
X119271615Y-99233666D02*
X120033520Y-99233666D01*
X120366853Y-98614619D02*
X120700186Y-99614619D01*
X120700186Y-99614619D02*
X121033519Y-98614619D01*
X121890662Y-99614619D02*
X121319234Y-99614619D01*
X121604948Y-99614619D02*
X121604948Y-98614619D01*
X121604948Y-98614619D02*
X121509710Y-98757476D01*
X121509710Y-98757476D02*
X121414472Y-98852714D01*
X121414472Y-98852714D02*
X121319234Y-98900333D01*
X122319234Y-99519380D02*
X122366853Y-99567000D01*
X122366853Y-99567000D02*
X122319234Y-99614619D01*
X122319234Y-99614619D02*
X122271615Y-99567000D01*
X122271615Y-99567000D02*
X122319234Y-99519380D01*
X122319234Y-99519380D02*
X122319234Y-99614619D01*
X122985900Y-98614619D02*
X123081138Y-98614619D01*
X123081138Y-98614619D02*
X123176376Y-98662238D01*
X123176376Y-98662238D02*
X123223995Y-98709857D01*
X123223995Y-98709857D02*
X123271614Y-98805095D01*
X123271614Y-98805095D02*
X123319233Y-98995571D01*
X123319233Y-98995571D02*
X123319233Y-99233666D01*
X123319233Y-99233666D02*
X123271614Y-99424142D01*
X123271614Y-99424142D02*
X123223995Y-99519380D01*
X123223995Y-99519380D02*
X123176376Y-99567000D01*
X123176376Y-99567000D02*
X123081138Y-99614619D01*
X123081138Y-99614619D02*
X122985900Y-99614619D01*
X122985900Y-99614619D02*
X122890662Y-99567000D01*
X122890662Y-99567000D02*
X122843043Y-99519380D01*
X122843043Y-99519380D02*
X122795424Y-99424142D01*
X122795424Y-99424142D02*
X122747805Y-99233666D01*
X122747805Y-99233666D02*
X122747805Y-98995571D01*
X122747805Y-98995571D02*
X122795424Y-98805095D01*
X122795424Y-98805095D02*
X122843043Y-98709857D01*
X122843043Y-98709857D02*
X122890662Y-98662238D01*
X122890662Y-98662238D02*
X122985900Y-98614619D01*
X123700186Y-99328904D02*
X124176376Y-99328904D01*
X123604948Y-99614619D02*
X123938281Y-98614619D01*
X123938281Y-98614619D02*
X124271614Y-99614619D01*
X124604948Y-99233666D02*
X125366853Y-99233666D01*
X125795424Y-98709857D02*
X125843043Y-98662238D01*
X125843043Y-98662238D02*
X125938281Y-98614619D01*
X125938281Y-98614619D02*
X126176376Y-98614619D01*
X126176376Y-98614619D02*
X126271614Y-98662238D01*
X126271614Y-98662238D02*
X126319233Y-98709857D01*
X126319233Y-98709857D02*
X126366852Y-98805095D01*
X126366852Y-98805095D02*
X126366852Y-98900333D01*
X126366852Y-98900333D02*
X126319233Y-99043190D01*
X126319233Y-99043190D02*
X125747805Y-99614619D01*
X125747805Y-99614619D02*
X126366852Y-99614619D01*
X126985900Y-98614619D02*
X127081138Y-98614619D01*
X127081138Y-98614619D02*
X127176376Y-98662238D01*
X127176376Y-98662238D02*
X127223995Y-98709857D01*
X127223995Y-98709857D02*
X127271614Y-98805095D01*
X127271614Y-98805095D02*
X127319233Y-98995571D01*
X127319233Y-98995571D02*
X127319233Y-99233666D01*
X127319233Y-99233666D02*
X127271614Y-99424142D01*
X127271614Y-99424142D02*
X127223995Y-99519380D01*
X127223995Y-99519380D02*
X127176376Y-99567000D01*
X127176376Y-99567000D02*
X127081138Y-99614619D01*
X127081138Y-99614619D02*
X126985900Y-99614619D01*
X126985900Y-99614619D02*
X126890662Y-99567000D01*
X126890662Y-99567000D02*
X126843043Y-99519380D01*
X126843043Y-99519380D02*
X126795424Y-99424142D01*
X126795424Y-99424142D02*
X126747805Y-99233666D01*
X126747805Y-99233666D02*
X126747805Y-98995571D01*
X126747805Y-98995571D02*
X126795424Y-98805095D01*
X126795424Y-98805095D02*
X126843043Y-98709857D01*
X126843043Y-98709857D02*
X126890662Y-98662238D01*
X126890662Y-98662238D02*
X126985900Y-98614619D01*
X127700186Y-98709857D02*
X127747805Y-98662238D01*
X127747805Y-98662238D02*
X127843043Y-98614619D01*
X127843043Y-98614619D02*
X128081138Y-98614619D01*
X128081138Y-98614619D02*
X128176376Y-98662238D01*
X128176376Y-98662238D02*
X128223995Y-98709857D01*
X128223995Y-98709857D02*
X128271614Y-98805095D01*
X128271614Y-98805095D02*
X128271614Y-98900333D01*
X128271614Y-98900333D02*
X128223995Y-99043190D01*
X128223995Y-99043190D02*
X127652567Y-99614619D01*
X127652567Y-99614619D02*
X128271614Y-99614619D01*
X129128757Y-98614619D02*
X128938281Y-98614619D01*
X128938281Y-98614619D02*
X128843043Y-98662238D01*
X128843043Y-98662238D02*
X128795424Y-98709857D01*
X128795424Y-98709857D02*
X128700186Y-98852714D01*
X128700186Y-98852714D02*
X128652567Y-99043190D01*
X128652567Y-99043190D02*
X128652567Y-99424142D01*
X128652567Y-99424142D02*
X128700186Y-99519380D01*
X128700186Y-99519380D02*
X128747805Y-99567000D01*
X128747805Y-99567000D02*
X128843043Y-99614619D01*
X128843043Y-99614619D02*
X129033519Y-99614619D01*
X129033519Y-99614619D02*
X129128757Y-99567000D01*
X129128757Y-99567000D02*
X129176376Y-99519380D01*
X129176376Y-99519380D02*
X129223995Y-99424142D01*
X129223995Y-99424142D02*
X129223995Y-99186047D01*
X129223995Y-99186047D02*
X129176376Y-99090809D01*
X129176376Y-99090809D02*
X129128757Y-99043190D01*
X129128757Y-99043190D02*
X129033519Y-98995571D01*
X129033519Y-98995571D02*
X128843043Y-98995571D01*
X128843043Y-98995571D02*
X128747805Y-99043190D01*
X128747805Y-99043190D02*
X128700186Y-99090809D01*
X128700186Y-99090809D02*
X128652567Y-99186047D01*
X129843043Y-98614619D02*
X129938281Y-98614619D01*
X129938281Y-98614619D02*
X130033519Y-98662238D01*
X130033519Y-98662238D02*
X130081138Y-98709857D01*
X130081138Y-98709857D02*
X130128757Y-98805095D01*
X130128757Y-98805095D02*
X130176376Y-98995571D01*
X130176376Y-98995571D02*
X130176376Y-99233666D01*
X130176376Y-99233666D02*
X130128757Y-99424142D01*
X130128757Y-99424142D02*
X130081138Y-99519380D01*
X130081138Y-99519380D02*
X130033519Y-99567000D01*
X130033519Y-99567000D02*
X129938281Y-99614619D01*
X129938281Y-99614619D02*
X129843043Y-99614619D01*
X129843043Y-99614619D02*
X129747805Y-99567000D01*
X129747805Y-99567000D02*
X129700186Y-99519380D01*
X129700186Y-99519380D02*
X129652567Y-99424142D01*
X129652567Y-99424142D02*
X129604948Y-99233666D01*
X129604948Y-99233666D02*
X129604948Y-98995571D01*
X129604948Y-98995571D02*
X129652567Y-98805095D01*
X129652567Y-98805095D02*
X129700186Y-98709857D01*
X129700186Y-98709857D02*
X129747805Y-98662238D01*
X129747805Y-98662238D02*
X129843043Y-98614619D01*
X130509710Y-98614619D02*
X131128757Y-98614619D01*
X131128757Y-98614619D02*
X130795424Y-98995571D01*
X130795424Y-98995571D02*
X130938281Y-98995571D01*
X130938281Y-98995571D02*
X131033519Y-99043190D01*
X131033519Y-99043190D02*
X131081138Y-99090809D01*
X131081138Y-99090809D02*
X131128757Y-99186047D01*
X131128757Y-99186047D02*
X131128757Y-99424142D01*
X131128757Y-99424142D02*
X131081138Y-99519380D01*
X131081138Y-99519380D02*
X131033519Y-99567000D01*
X131033519Y-99567000D02*
X130938281Y-99614619D01*
X130938281Y-99614619D02*
X130652567Y-99614619D01*
X130652567Y-99614619D02*
X130557329Y-99567000D01*
X130557329Y-99567000D02*
X130509710Y-99519380D01*
X131747805Y-98614619D02*
X131843043Y-98614619D01*
X131843043Y-98614619D02*
X131938281Y-98662238D01*
X131938281Y-98662238D02*
X131985900Y-98709857D01*
X131985900Y-98709857D02*
X132033519Y-98805095D01*
X132033519Y-98805095D02*
X132081138Y-98995571D01*
X132081138Y-98995571D02*
X132081138Y-99233666D01*
X132081138Y-99233666D02*
X132033519Y-99424142D01*
X132033519Y-99424142D02*
X131985900Y-99519380D01*
X131985900Y-99519380D02*
X131938281Y-99567000D01*
X131938281Y-99567000D02*
X131843043Y-99614619D01*
X131843043Y-99614619D02*
X131747805Y-99614619D01*
X131747805Y-99614619D02*
X131652567Y-99567000D01*
X131652567Y-99567000D02*
X131604948Y-99519380D01*
X131604948Y-99519380D02*
X131557329Y-99424142D01*
X131557329Y-99424142D02*
X131509710Y-99233666D01*
X131509710Y-99233666D02*
X131509710Y-98995571D01*
X131509710Y-98995571D02*
X131557329Y-98805095D01*
X131557329Y-98805095D02*
X131604948Y-98709857D01*
X131604948Y-98709857D02*
X131652567Y-98662238D01*
X131652567Y-98662238D02*
X131747805Y-98614619D01*
X133033519Y-99614619D02*
X132462091Y-99614619D01*
X132747805Y-99614619D02*
X132747805Y-98614619D01*
X132747805Y-98614619D02*
X132652567Y-98757476D01*
X132652567Y-98757476D02*
X132557329Y-98852714D01*
X132557329Y-98852714D02*
X132462091Y-98900333D01*
D12*
X118261905Y-92704819D02*
X118261905Y-91704819D01*
X118261905Y-91704819D02*
X118500000Y-91704819D01*
X118500000Y-91704819D02*
X118642857Y-91752438D01*
X118642857Y-91752438D02*
X118738095Y-91847676D01*
X118738095Y-91847676D02*
X118785714Y-91942914D01*
X118785714Y-91942914D02*
X118833333Y-92133390D01*
X118833333Y-92133390D02*
X118833333Y-92276247D01*
X118833333Y-92276247D02*
X118785714Y-92466723D01*
X118785714Y-92466723D02*
X118738095Y-92561961D01*
X118738095Y-92561961D02*
X118642857Y-92657200D01*
X118642857Y-92657200D02*
X118500000Y-92704819D01*
X118500000Y-92704819D02*
X118261905Y-92704819D01*
X119166667Y-91704819D02*
X119785714Y-91704819D01*
X119785714Y-91704819D02*
X119452381Y-92085771D01*
X119452381Y-92085771D02*
X119595238Y-92085771D01*
X119595238Y-92085771D02*
X119690476Y-92133390D01*
X119690476Y-92133390D02*
X119738095Y-92181009D01*
X119738095Y-92181009D02*
X119785714Y-92276247D01*
X119785714Y-92276247D02*
X119785714Y-92514342D01*
X119785714Y-92514342D02*
X119738095Y-92609580D01*
X119738095Y-92609580D02*
X119690476Y-92657200D01*
X119690476Y-92657200D02*
X119595238Y-92704819D01*
X119595238Y-92704819D02*
X119309524Y-92704819D01*
X119309524Y-92704819D02*
X119214286Y-92657200D01*
X119214286Y-92657200D02*
X119166667Y-92609580D01*
X113761905Y-92704819D02*
X113761905Y-91704819D01*
X113761905Y-91704819D02*
X114000000Y-91704819D01*
X114000000Y-91704819D02*
X114142857Y-91752438D01*
X114142857Y-91752438D02*
X114238095Y-91847676D01*
X114238095Y-91847676D02*
X114285714Y-91942914D01*
X114285714Y-91942914D02*
X114333333Y-92133390D01*
X114333333Y-92133390D02*
X114333333Y-92276247D01*
X114333333Y-92276247D02*
X114285714Y-92466723D01*
X114285714Y-92466723D02*
X114238095Y-92561961D01*
X114238095Y-92561961D02*
X114142857Y-92657200D01*
X114142857Y-92657200D02*
X114000000Y-92704819D01*
X114000000Y-92704819D02*
X113761905Y-92704819D01*
X114714286Y-91800057D02*
X114761905Y-91752438D01*
X114761905Y-91752438D02*
X114857143Y-91704819D01*
X114857143Y-91704819D02*
X115095238Y-91704819D01*
X115095238Y-91704819D02*
X115190476Y-91752438D01*
X115190476Y-91752438D02*
X115238095Y-91800057D01*
X115238095Y-91800057D02*
X115285714Y-91895295D01*
X115285714Y-91895295D02*
X115285714Y-91990533D01*
X115285714Y-91990533D02*
X115238095Y-92133390D01*
X115238095Y-92133390D02*
X114666667Y-92704819D01*
X114666667Y-92704819D02*
X115285714Y-92704819D01*
X101024819Y-87916666D02*
X100548628Y-88249999D01*
X101024819Y-88488094D02*
X100024819Y-88488094D01*
X100024819Y-88488094D02*
X100024819Y-88107142D01*
X100024819Y-88107142D02*
X100072438Y-88011904D01*
X100072438Y-88011904D02*
X100120057Y-87964285D01*
X100120057Y-87964285D02*
X100215295Y-87916666D01*
X100215295Y-87916666D02*
X100358152Y-87916666D01*
X100358152Y-87916666D02*
X100453390Y-87964285D01*
X100453390Y-87964285D02*
X100501009Y-88011904D01*
X100501009Y-88011904D02*
X100548628Y-88107142D01*
X100548628Y-88107142D02*
X100548628Y-88488094D01*
X100358152Y-87059523D02*
X101024819Y-87059523D01*
X99977200Y-87297618D02*
X100691485Y-87535713D01*
X100691485Y-87535713D02*
X100691485Y-86916666D01*
X101024819Y-91238094D02*
X100024819Y-91238094D01*
X100024819Y-91238094D02*
X100024819Y-90999999D01*
X100024819Y-90999999D02*
X100072438Y-90857142D01*
X100072438Y-90857142D02*
X100167676Y-90761904D01*
X100167676Y-90761904D02*
X100262914Y-90714285D01*
X100262914Y-90714285D02*
X100453390Y-90666666D01*
X100453390Y-90666666D02*
X100596247Y-90666666D01*
X100596247Y-90666666D02*
X100786723Y-90714285D01*
X100786723Y-90714285D02*
X100881961Y-90761904D01*
X100881961Y-90761904D02*
X100977200Y-90857142D01*
X100977200Y-90857142D02*
X101024819Y-90999999D01*
X101024819Y-90999999D02*
X101024819Y-91238094D01*
X101024819Y-89714285D02*
X101024819Y-90285713D01*
X101024819Y-89999999D02*
X100024819Y-89999999D01*
X100024819Y-89999999D02*
X100167676Y-90095237D01*
X100167676Y-90095237D02*
X100262914Y-90190475D01*
X100262914Y-90190475D02*
X100310533Y-90285713D01*
X92109580Y-81642857D02*
X92157200Y-81690476D01*
X92157200Y-81690476D02*
X92204819Y-81833333D01*
X92204819Y-81833333D02*
X92204819Y-81928571D01*
X92204819Y-81928571D02*
X92157200Y-82071428D01*
X92157200Y-82071428D02*
X92061961Y-82166666D01*
X92061961Y-82166666D02*
X91966723Y-82214285D01*
X91966723Y-82214285D02*
X91776247Y-82261904D01*
X91776247Y-82261904D02*
X91633390Y-82261904D01*
X91633390Y-82261904D02*
X91442914Y-82214285D01*
X91442914Y-82214285D02*
X91347676Y-82166666D01*
X91347676Y-82166666D02*
X91252438Y-82071428D01*
X91252438Y-82071428D02*
X91204819Y-81928571D01*
X91204819Y-81928571D02*
X91204819Y-81833333D01*
X91204819Y-81833333D02*
X91252438Y-81690476D01*
X91252438Y-81690476D02*
X91300057Y-81642857D01*
X92204819Y-80690476D02*
X92204819Y-81261904D01*
X92204819Y-80976190D02*
X91204819Y-80976190D01*
X91204819Y-80976190D02*
X91347676Y-81071428D01*
X91347676Y-81071428D02*
X91442914Y-81166666D01*
X91442914Y-81166666D02*
X91490533Y-81261904D01*
X91204819Y-80071428D02*
X91204819Y-79976190D01*
X91204819Y-79976190D02*
X91252438Y-79880952D01*
X91252438Y-79880952D02*
X91300057Y-79833333D01*
X91300057Y-79833333D02*
X91395295Y-79785714D01*
X91395295Y-79785714D02*
X91585771Y-79738095D01*
X91585771Y-79738095D02*
X91823866Y-79738095D01*
X91823866Y-79738095D02*
X92014342Y-79785714D01*
X92014342Y-79785714D02*
X92109580Y-79833333D01*
X92109580Y-79833333D02*
X92157200Y-79880952D01*
X92157200Y-79880952D02*
X92204819Y-79976190D01*
X92204819Y-79976190D02*
X92204819Y-80071428D01*
X92204819Y-80071428D02*
X92157200Y-80166666D01*
X92157200Y-80166666D02*
X92109580Y-80214285D01*
X92109580Y-80214285D02*
X92014342Y-80261904D01*
X92014342Y-80261904D02*
X91823866Y-80309523D01*
X91823866Y-80309523D02*
X91585771Y-80309523D01*
X91585771Y-80309523D02*
X91395295Y-80261904D01*
X91395295Y-80261904D02*
X91300057Y-80214285D01*
X91300057Y-80214285D02*
X91252438Y-80166666D01*
X91252438Y-80166666D02*
X91204819Y-80071428D01*
X106859580Y-89416666D02*
X106907200Y-89464285D01*
X106907200Y-89464285D02*
X106954819Y-89607142D01*
X106954819Y-89607142D02*
X106954819Y-89702380D01*
X106954819Y-89702380D02*
X106907200Y-89845237D01*
X106907200Y-89845237D02*
X106811961Y-89940475D01*
X106811961Y-89940475D02*
X106716723Y-89988094D01*
X106716723Y-89988094D02*
X106526247Y-90035713D01*
X106526247Y-90035713D02*
X106383390Y-90035713D01*
X106383390Y-90035713D02*
X106192914Y-89988094D01*
X106192914Y-89988094D02*
X106097676Y-89940475D01*
X106097676Y-89940475D02*
X106002438Y-89845237D01*
X106002438Y-89845237D02*
X105954819Y-89702380D01*
X105954819Y-89702380D02*
X105954819Y-89607142D01*
X105954819Y-89607142D02*
X106002438Y-89464285D01*
X106002438Y-89464285D02*
X106050057Y-89416666D01*
X105954819Y-88559523D02*
X105954819Y-88749999D01*
X105954819Y-88749999D02*
X106002438Y-88845237D01*
X106002438Y-88845237D02*
X106050057Y-88892856D01*
X106050057Y-88892856D02*
X106192914Y-88988094D01*
X106192914Y-88988094D02*
X106383390Y-89035713D01*
X106383390Y-89035713D02*
X106764342Y-89035713D01*
X106764342Y-89035713D02*
X106859580Y-88988094D01*
X106859580Y-88988094D02*
X106907200Y-88940475D01*
X106907200Y-88940475D02*
X106954819Y-88845237D01*
X106954819Y-88845237D02*
X106954819Y-88654761D01*
X106954819Y-88654761D02*
X106907200Y-88559523D01*
X106907200Y-88559523D02*
X106859580Y-88511904D01*
X106859580Y-88511904D02*
X106764342Y-88464285D01*
X106764342Y-88464285D02*
X106526247Y-88464285D01*
X106526247Y-88464285D02*
X106431009Y-88511904D01*
X106431009Y-88511904D02*
X106383390Y-88559523D01*
X106383390Y-88559523D02*
X106335771Y-88654761D01*
X106335771Y-88654761D02*
X106335771Y-88845237D01*
X106335771Y-88845237D02*
X106383390Y-88940475D01*
X106383390Y-88940475D02*
X106431009Y-88988094D01*
X106431009Y-88988094D02*
X106526247Y-89035713D01*
X98609580Y-96166666D02*
X98657200Y-96214285D01*
X98657200Y-96214285D02*
X98704819Y-96357142D01*
X98704819Y-96357142D02*
X98704819Y-96452380D01*
X98704819Y-96452380D02*
X98657200Y-96595237D01*
X98657200Y-96595237D02*
X98561961Y-96690475D01*
X98561961Y-96690475D02*
X98466723Y-96738094D01*
X98466723Y-96738094D02*
X98276247Y-96785713D01*
X98276247Y-96785713D02*
X98133390Y-96785713D01*
X98133390Y-96785713D02*
X97942914Y-96738094D01*
X97942914Y-96738094D02*
X97847676Y-96690475D01*
X97847676Y-96690475D02*
X97752438Y-96595237D01*
X97752438Y-96595237D02*
X97704819Y-96452380D01*
X97704819Y-96452380D02*
X97704819Y-96357142D01*
X97704819Y-96357142D02*
X97752438Y-96214285D01*
X97752438Y-96214285D02*
X97800057Y-96166666D01*
X98133390Y-95595237D02*
X98085771Y-95690475D01*
X98085771Y-95690475D02*
X98038152Y-95738094D01*
X98038152Y-95738094D02*
X97942914Y-95785713D01*
X97942914Y-95785713D02*
X97895295Y-95785713D01*
X97895295Y-95785713D02*
X97800057Y-95738094D01*
X97800057Y-95738094D02*
X97752438Y-95690475D01*
X97752438Y-95690475D02*
X97704819Y-95595237D01*
X97704819Y-95595237D02*
X97704819Y-95404761D01*
X97704819Y-95404761D02*
X97752438Y-95309523D01*
X97752438Y-95309523D02*
X97800057Y-95261904D01*
X97800057Y-95261904D02*
X97895295Y-95214285D01*
X97895295Y-95214285D02*
X97942914Y-95214285D01*
X97942914Y-95214285D02*
X98038152Y-95261904D01*
X98038152Y-95261904D02*
X98085771Y-95309523D01*
X98085771Y-95309523D02*
X98133390Y-95404761D01*
X98133390Y-95404761D02*
X98133390Y-95595237D01*
X98133390Y-95595237D02*
X98181009Y-95690475D01*
X98181009Y-95690475D02*
X98228628Y-95738094D01*
X98228628Y-95738094D02*
X98323866Y-95785713D01*
X98323866Y-95785713D02*
X98514342Y-95785713D01*
X98514342Y-95785713D02*
X98609580Y-95738094D01*
X98609580Y-95738094D02*
X98657200Y-95690475D01*
X98657200Y-95690475D02*
X98704819Y-95595237D01*
X98704819Y-95595237D02*
X98704819Y-95404761D01*
X98704819Y-95404761D02*
X98657200Y-95309523D01*
X98657200Y-95309523D02*
X98609580Y-95261904D01*
X98609580Y-95261904D02*
X98514342Y-95214285D01*
X98514342Y-95214285D02*
X98323866Y-95214285D01*
X98323866Y-95214285D02*
X98228628Y-95261904D01*
X98228628Y-95261904D02*
X98181009Y-95309523D01*
X98181009Y-95309523D02*
X98133390Y-95404761D01*
X114454819Y-95916666D02*
X114454819Y-96392856D01*
X114454819Y-96392856D02*
X113454819Y-96392856D01*
X114454819Y-95059523D02*
X114454819Y-95630951D01*
X114454819Y-95345237D02*
X113454819Y-95345237D01*
X113454819Y-95345237D02*
X113597676Y-95440475D01*
X113597676Y-95440475D02*
X113692914Y-95535713D01*
X113692914Y-95535713D02*
X113740533Y-95630951D01*
X97134819Y-92166666D02*
X96658628Y-92499999D01*
X97134819Y-92738094D02*
X96134819Y-92738094D01*
X96134819Y-92738094D02*
X96134819Y-92357142D01*
X96134819Y-92357142D02*
X96182438Y-92261904D01*
X96182438Y-92261904D02*
X96230057Y-92214285D01*
X96230057Y-92214285D02*
X96325295Y-92166666D01*
X96325295Y-92166666D02*
X96468152Y-92166666D01*
X96468152Y-92166666D02*
X96563390Y-92214285D01*
X96563390Y-92214285D02*
X96611009Y-92261904D01*
X96611009Y-92261904D02*
X96658628Y-92357142D01*
X96658628Y-92357142D02*
X96658628Y-92738094D01*
X97134819Y-91214285D02*
X97134819Y-91785713D01*
X97134819Y-91499999D02*
X96134819Y-91499999D01*
X96134819Y-91499999D02*
X96277676Y-91595237D01*
X96277676Y-91595237D02*
X96372914Y-91690475D01*
X96372914Y-91690475D02*
X96420533Y-91785713D01*
X92954819Y-75166666D02*
X92478628Y-75499999D01*
X92954819Y-75738094D02*
X91954819Y-75738094D01*
X91954819Y-75738094D02*
X91954819Y-75357142D01*
X91954819Y-75357142D02*
X92002438Y-75261904D01*
X92002438Y-75261904D02*
X92050057Y-75214285D01*
X92050057Y-75214285D02*
X92145295Y-75166666D01*
X92145295Y-75166666D02*
X92288152Y-75166666D01*
X92288152Y-75166666D02*
X92383390Y-75214285D01*
X92383390Y-75214285D02*
X92431009Y-75261904D01*
X92431009Y-75261904D02*
X92478628Y-75357142D01*
X92478628Y-75357142D02*
X92478628Y-75738094D01*
X91954819Y-74833332D02*
X91954819Y-74214285D01*
X91954819Y-74214285D02*
X92335771Y-74547618D01*
X92335771Y-74547618D02*
X92335771Y-74404761D01*
X92335771Y-74404761D02*
X92383390Y-74309523D01*
X92383390Y-74309523D02*
X92431009Y-74261904D01*
X92431009Y-74261904D02*
X92526247Y-74214285D01*
X92526247Y-74214285D02*
X92764342Y-74214285D01*
X92764342Y-74214285D02*
X92859580Y-74261904D01*
X92859580Y-74261904D02*
X92907200Y-74309523D01*
X92907200Y-74309523D02*
X92954819Y-74404761D01*
X92954819Y-74404761D02*
X92954819Y-74690475D01*
X92954819Y-74690475D02*
X92907200Y-74785713D01*
X92907200Y-74785713D02*
X92859580Y-74833332D01*
X106754819Y-96761904D02*
X107564342Y-96761904D01*
X107564342Y-96761904D02*
X107659580Y-96714285D01*
X107659580Y-96714285D02*
X107707200Y-96666666D01*
X107707200Y-96666666D02*
X107754819Y-96571428D01*
X107754819Y-96571428D02*
X107754819Y-96380952D01*
X107754819Y-96380952D02*
X107707200Y-96285714D01*
X107707200Y-96285714D02*
X107659580Y-96238095D01*
X107659580Y-96238095D02*
X107564342Y-96190476D01*
X107564342Y-96190476D02*
X106754819Y-96190476D01*
X107754819Y-95190476D02*
X107754819Y-95761904D01*
X107754819Y-95476190D02*
X106754819Y-95476190D01*
X106754819Y-95476190D02*
X106897676Y-95571428D01*
X106897676Y-95571428D02*
X106992914Y-95666666D01*
X106992914Y-95666666D02*
X107040533Y-95761904D01*
X102609580Y-96166666D02*
X102657200Y-96214285D01*
X102657200Y-96214285D02*
X102704819Y-96357142D01*
X102704819Y-96357142D02*
X102704819Y-96452380D01*
X102704819Y-96452380D02*
X102657200Y-96595237D01*
X102657200Y-96595237D02*
X102561961Y-96690475D01*
X102561961Y-96690475D02*
X102466723Y-96738094D01*
X102466723Y-96738094D02*
X102276247Y-96785713D01*
X102276247Y-96785713D02*
X102133390Y-96785713D01*
X102133390Y-96785713D02*
X101942914Y-96738094D01*
X101942914Y-96738094D02*
X101847676Y-96690475D01*
X101847676Y-96690475D02*
X101752438Y-96595237D01*
X101752438Y-96595237D02*
X101704819Y-96452380D01*
X101704819Y-96452380D02*
X101704819Y-96357142D01*
X101704819Y-96357142D02*
X101752438Y-96214285D01*
X101752438Y-96214285D02*
X101800057Y-96166666D01*
X102704819Y-95214285D02*
X102704819Y-95785713D01*
X102704819Y-95499999D02*
X101704819Y-95499999D01*
X101704819Y-95499999D02*
X101847676Y-95595237D01*
X101847676Y-95595237D02*
X101942914Y-95690475D01*
X101942914Y-95690475D02*
X101990533Y-95785713D01*
X107083333Y-93454819D02*
X106750000Y-92978628D01*
X106511905Y-93454819D02*
X106511905Y-92454819D01*
X106511905Y-92454819D02*
X106892857Y-92454819D01*
X106892857Y-92454819D02*
X106988095Y-92502438D01*
X106988095Y-92502438D02*
X107035714Y-92550057D01*
X107035714Y-92550057D02*
X107083333Y-92645295D01*
X107083333Y-92645295D02*
X107083333Y-92788152D01*
X107083333Y-92788152D02*
X107035714Y-92883390D01*
X107035714Y-92883390D02*
X106988095Y-92931009D01*
X106988095Y-92931009D02*
X106892857Y-92978628D01*
X106892857Y-92978628D02*
X106511905Y-92978628D01*
X107654762Y-92883390D02*
X107559524Y-92835771D01*
X107559524Y-92835771D02*
X107511905Y-92788152D01*
X107511905Y-92788152D02*
X107464286Y-92692914D01*
X107464286Y-92692914D02*
X107464286Y-92645295D01*
X107464286Y-92645295D02*
X107511905Y-92550057D01*
X107511905Y-92550057D02*
X107559524Y-92502438D01*
X107559524Y-92502438D02*
X107654762Y-92454819D01*
X107654762Y-92454819D02*
X107845238Y-92454819D01*
X107845238Y-92454819D02*
X107940476Y-92502438D01*
X107940476Y-92502438D02*
X107988095Y-92550057D01*
X107988095Y-92550057D02*
X108035714Y-92645295D01*
X108035714Y-92645295D02*
X108035714Y-92692914D01*
X108035714Y-92692914D02*
X107988095Y-92788152D01*
X107988095Y-92788152D02*
X107940476Y-92835771D01*
X107940476Y-92835771D02*
X107845238Y-92883390D01*
X107845238Y-92883390D02*
X107654762Y-92883390D01*
X107654762Y-92883390D02*
X107559524Y-92931009D01*
X107559524Y-92931009D02*
X107511905Y-92978628D01*
X107511905Y-92978628D02*
X107464286Y-93073866D01*
X107464286Y-93073866D02*
X107464286Y-93264342D01*
X107464286Y-93264342D02*
X107511905Y-93359580D01*
X107511905Y-93359580D02*
X107559524Y-93407200D01*
X107559524Y-93407200D02*
X107654762Y-93454819D01*
X107654762Y-93454819D02*
X107845238Y-93454819D01*
X107845238Y-93454819D02*
X107940476Y-93407200D01*
X107940476Y-93407200D02*
X107988095Y-93359580D01*
X107988095Y-93359580D02*
X108035714Y-93264342D01*
X108035714Y-93264342D02*
X108035714Y-93073866D01*
X108035714Y-93073866D02*
X107988095Y-92978628D01*
X107988095Y-92978628D02*
X107940476Y-92931009D01*
X107940476Y-92931009D02*
X107845238Y-92883390D01*
X112083333Y-92704819D02*
X111750000Y-92228628D01*
X111511905Y-92704819D02*
X111511905Y-91704819D01*
X111511905Y-91704819D02*
X111892857Y-91704819D01*
X111892857Y-91704819D02*
X111988095Y-91752438D01*
X111988095Y-91752438D02*
X112035714Y-91800057D01*
X112035714Y-91800057D02*
X112083333Y-91895295D01*
X112083333Y-91895295D02*
X112083333Y-92038152D01*
X112083333Y-92038152D02*
X112035714Y-92133390D01*
X112035714Y-92133390D02*
X111988095Y-92181009D01*
X111988095Y-92181009D02*
X111892857Y-92228628D01*
X111892857Y-92228628D02*
X111511905Y-92228628D01*
X112988095Y-91704819D02*
X112511905Y-91704819D01*
X112511905Y-91704819D02*
X112464286Y-92181009D01*
X112464286Y-92181009D02*
X112511905Y-92133390D01*
X112511905Y-92133390D02*
X112607143Y-92085771D01*
X112607143Y-92085771D02*
X112845238Y-92085771D01*
X112845238Y-92085771D02*
X112940476Y-92133390D01*
X112940476Y-92133390D02*
X112988095Y-92181009D01*
X112988095Y-92181009D02*
X113035714Y-92276247D01*
X113035714Y-92276247D02*
X113035714Y-92514342D01*
X113035714Y-92514342D02*
X112988095Y-92609580D01*
X112988095Y-92609580D02*
X112940476Y-92657200D01*
X112940476Y-92657200D02*
X112845238Y-92704819D01*
X112845238Y-92704819D02*
X112607143Y-92704819D01*
X112607143Y-92704819D02*
X112511905Y-92657200D01*
X112511905Y-92657200D02*
X112464286Y-92609580D01*
X87024819Y-81166666D02*
X86548628Y-81499999D01*
X87024819Y-81738094D02*
X86024819Y-81738094D01*
X86024819Y-81738094D02*
X86024819Y-81357142D01*
X86024819Y-81357142D02*
X86072438Y-81261904D01*
X86072438Y-81261904D02*
X86120057Y-81214285D01*
X86120057Y-81214285D02*
X86215295Y-81166666D01*
X86215295Y-81166666D02*
X86358152Y-81166666D01*
X86358152Y-81166666D02*
X86453390Y-81214285D01*
X86453390Y-81214285D02*
X86501009Y-81261904D01*
X86501009Y-81261904D02*
X86548628Y-81357142D01*
X86548628Y-81357142D02*
X86548628Y-81738094D01*
X86024819Y-80833332D02*
X86024819Y-80166666D01*
X86024819Y-80166666D02*
X87024819Y-80595237D01*
X98404761Y-91800057D02*
X98309523Y-91752438D01*
X98309523Y-91752438D02*
X98214285Y-91657200D01*
X98214285Y-91657200D02*
X98071428Y-91514342D01*
X98071428Y-91514342D02*
X97976190Y-91466723D01*
X97976190Y-91466723D02*
X97880952Y-91466723D01*
X97928571Y-91704819D02*
X97833333Y-91657200D01*
X97833333Y-91657200D02*
X97738095Y-91561961D01*
X97738095Y-91561961D02*
X97690476Y-91371485D01*
X97690476Y-91371485D02*
X97690476Y-91038152D01*
X97690476Y-91038152D02*
X97738095Y-90847676D01*
X97738095Y-90847676D02*
X97833333Y-90752438D01*
X97833333Y-90752438D02*
X97928571Y-90704819D01*
X97928571Y-90704819D02*
X98119047Y-90704819D01*
X98119047Y-90704819D02*
X98214285Y-90752438D01*
X98214285Y-90752438D02*
X98309523Y-90847676D01*
X98309523Y-90847676D02*
X98357142Y-91038152D01*
X98357142Y-91038152D02*
X98357142Y-91371485D01*
X98357142Y-91371485D02*
X98309523Y-91561961D01*
X98309523Y-91561961D02*
X98214285Y-91657200D01*
X98214285Y-91657200D02*
X98119047Y-91704819D01*
X98119047Y-91704819D02*
X97928571Y-91704819D01*
X99309523Y-91704819D02*
X98738095Y-91704819D01*
X99023809Y-91704819D02*
X99023809Y-90704819D01*
X99023809Y-90704819D02*
X98928571Y-90847676D01*
X98928571Y-90847676D02*
X98833333Y-90942914D01*
X98833333Y-90942914D02*
X98738095Y-90990533D01*
X87166666Y-78004819D02*
X87166666Y-78719104D01*
X87166666Y-78719104D02*
X87119047Y-78861961D01*
X87119047Y-78861961D02*
X87023809Y-78957200D01*
X87023809Y-78957200D02*
X86880952Y-79004819D01*
X86880952Y-79004819D02*
X86785714Y-79004819D01*
X87642857Y-79004819D02*
X87642857Y-78004819D01*
X87642857Y-78004819D02*
X88023809Y-78004819D01*
X88023809Y-78004819D02*
X88119047Y-78052438D01*
X88119047Y-78052438D02*
X88166666Y-78100057D01*
X88166666Y-78100057D02*
X88214285Y-78195295D01*
X88214285Y-78195295D02*
X88214285Y-78338152D01*
X88214285Y-78338152D02*
X88166666Y-78433390D01*
X88166666Y-78433390D02*
X88119047Y-78481009D01*
X88119047Y-78481009D02*
X88023809Y-78528628D01*
X88023809Y-78528628D02*
X87642857Y-78528628D01*
X89166666Y-79004819D02*
X88595238Y-79004819D01*
X88880952Y-79004819D02*
X88880952Y-78004819D01*
X88880952Y-78004819D02*
X88785714Y-78147676D01*
X88785714Y-78147676D02*
X88690476Y-78242914D01*
X88690476Y-78242914D02*
X88595238Y-78290533D01*
X134166666Y-75204819D02*
X134166666Y-75919104D01*
X134166666Y-75919104D02*
X134119047Y-76061961D01*
X134119047Y-76061961D02*
X134023809Y-76157200D01*
X134023809Y-76157200D02*
X133880952Y-76204819D01*
X133880952Y-76204819D02*
X133785714Y-76204819D01*
X135166666Y-76204819D02*
X134595238Y-76204819D01*
X134880952Y-76204819D02*
X134880952Y-75204819D01*
X134880952Y-75204819D02*
X134785714Y-75347676D01*
X134785714Y-75347676D02*
X134690476Y-75442914D01*
X134690476Y-75442914D02*
X134595238Y-75490533D01*
X96954819Y-85916666D02*
X96478628Y-86249999D01*
X96954819Y-86488094D02*
X95954819Y-86488094D01*
X95954819Y-86488094D02*
X95954819Y-86107142D01*
X95954819Y-86107142D02*
X96002438Y-86011904D01*
X96002438Y-86011904D02*
X96050057Y-85964285D01*
X96050057Y-85964285D02*
X96145295Y-85916666D01*
X96145295Y-85916666D02*
X96288152Y-85916666D01*
X96288152Y-85916666D02*
X96383390Y-85964285D01*
X96383390Y-85964285D02*
X96431009Y-86011904D01*
X96431009Y-86011904D02*
X96478628Y-86107142D01*
X96478628Y-86107142D02*
X96478628Y-86488094D01*
X96050057Y-85535713D02*
X96002438Y-85488094D01*
X96002438Y-85488094D02*
X95954819Y-85392856D01*
X95954819Y-85392856D02*
X95954819Y-85154761D01*
X95954819Y-85154761D02*
X96002438Y-85059523D01*
X96002438Y-85059523D02*
X96050057Y-85011904D01*
X96050057Y-85011904D02*
X96145295Y-84964285D01*
X96145295Y-84964285D02*
X96240533Y-84964285D01*
X96240533Y-84964285D02*
X96383390Y-85011904D01*
X96383390Y-85011904D02*
X96954819Y-85583332D01*
X96954819Y-85583332D02*
X96954819Y-84964285D01*
X102333333Y-99359580D02*
X102285714Y-99407200D01*
X102285714Y-99407200D02*
X102142857Y-99454819D01*
X102142857Y-99454819D02*
X102047619Y-99454819D01*
X102047619Y-99454819D02*
X101904762Y-99407200D01*
X101904762Y-99407200D02*
X101809524Y-99311961D01*
X101809524Y-99311961D02*
X101761905Y-99216723D01*
X101761905Y-99216723D02*
X101714286Y-99026247D01*
X101714286Y-99026247D02*
X101714286Y-98883390D01*
X101714286Y-98883390D02*
X101761905Y-98692914D01*
X101761905Y-98692914D02*
X101809524Y-98597676D01*
X101809524Y-98597676D02*
X101904762Y-98502438D01*
X101904762Y-98502438D02*
X102047619Y-98454819D01*
X102047619Y-98454819D02*
X102142857Y-98454819D01*
X102142857Y-98454819D02*
X102285714Y-98502438D01*
X102285714Y-98502438D02*
X102333333Y-98550057D01*
X102714286Y-98550057D02*
X102761905Y-98502438D01*
X102761905Y-98502438D02*
X102857143Y-98454819D01*
X102857143Y-98454819D02*
X103095238Y-98454819D01*
X103095238Y-98454819D02*
X103190476Y-98502438D01*
X103190476Y-98502438D02*
X103238095Y-98550057D01*
X103238095Y-98550057D02*
X103285714Y-98645295D01*
X103285714Y-98645295D02*
X103285714Y-98740533D01*
X103285714Y-98740533D02*
X103238095Y-98883390D01*
X103238095Y-98883390D02*
X102666667Y-99454819D01*
X102666667Y-99454819D02*
X103285714Y-99454819D01*
X98083333Y-85459580D02*
X98035714Y-85507200D01*
X98035714Y-85507200D02*
X97892857Y-85554819D01*
X97892857Y-85554819D02*
X97797619Y-85554819D01*
X97797619Y-85554819D02*
X97654762Y-85507200D01*
X97654762Y-85507200D02*
X97559524Y-85411961D01*
X97559524Y-85411961D02*
X97511905Y-85316723D01*
X97511905Y-85316723D02*
X97464286Y-85126247D01*
X97464286Y-85126247D02*
X97464286Y-84983390D01*
X97464286Y-84983390D02*
X97511905Y-84792914D01*
X97511905Y-84792914D02*
X97559524Y-84697676D01*
X97559524Y-84697676D02*
X97654762Y-84602438D01*
X97654762Y-84602438D02*
X97797619Y-84554819D01*
X97797619Y-84554819D02*
X97892857Y-84554819D01*
X97892857Y-84554819D02*
X98035714Y-84602438D01*
X98035714Y-84602438D02*
X98083333Y-84650057D01*
X98988095Y-84554819D02*
X98511905Y-84554819D01*
X98511905Y-84554819D02*
X98464286Y-85031009D01*
X98464286Y-85031009D02*
X98511905Y-84983390D01*
X98511905Y-84983390D02*
X98607143Y-84935771D01*
X98607143Y-84935771D02*
X98845238Y-84935771D01*
X98845238Y-84935771D02*
X98940476Y-84983390D01*
X98940476Y-84983390D02*
X98988095Y-85031009D01*
X98988095Y-85031009D02*
X99035714Y-85126247D01*
X99035714Y-85126247D02*
X99035714Y-85364342D01*
X99035714Y-85364342D02*
X98988095Y-85459580D01*
X98988095Y-85459580D02*
X98940476Y-85507200D01*
X98940476Y-85507200D02*
X98845238Y-85554819D01*
X98845238Y-85554819D02*
X98607143Y-85554819D01*
X98607143Y-85554819D02*
X98511905Y-85507200D01*
X98511905Y-85507200D02*
X98464286Y-85459580D01*
X108833333Y-92609580D02*
X108785714Y-92657200D01*
X108785714Y-92657200D02*
X108642857Y-92704819D01*
X108642857Y-92704819D02*
X108547619Y-92704819D01*
X108547619Y-92704819D02*
X108404762Y-92657200D01*
X108404762Y-92657200D02*
X108309524Y-92561961D01*
X108309524Y-92561961D02*
X108261905Y-92466723D01*
X108261905Y-92466723D02*
X108214286Y-92276247D01*
X108214286Y-92276247D02*
X108214286Y-92133390D01*
X108214286Y-92133390D02*
X108261905Y-91942914D01*
X108261905Y-91942914D02*
X108309524Y-91847676D01*
X108309524Y-91847676D02*
X108404762Y-91752438D01*
X108404762Y-91752438D02*
X108547619Y-91704819D01*
X108547619Y-91704819D02*
X108642857Y-91704819D01*
X108642857Y-91704819D02*
X108785714Y-91752438D01*
X108785714Y-91752438D02*
X108833333Y-91800057D01*
X109166667Y-91704819D02*
X109833333Y-91704819D01*
X109833333Y-91704819D02*
X109404762Y-92704819D01*
X122459580Y-96166666D02*
X122507200Y-96214285D01*
X122507200Y-96214285D02*
X122554819Y-96357142D01*
X122554819Y-96357142D02*
X122554819Y-96452380D01*
X122554819Y-96452380D02*
X122507200Y-96595237D01*
X122507200Y-96595237D02*
X122411961Y-96690475D01*
X122411961Y-96690475D02*
X122316723Y-96738094D01*
X122316723Y-96738094D02*
X122126247Y-96785713D01*
X122126247Y-96785713D02*
X121983390Y-96785713D01*
X121983390Y-96785713D02*
X121792914Y-96738094D01*
X121792914Y-96738094D02*
X121697676Y-96690475D01*
X121697676Y-96690475D02*
X121602438Y-96595237D01*
X121602438Y-96595237D02*
X121554819Y-96452380D01*
X121554819Y-96452380D02*
X121554819Y-96357142D01*
X121554819Y-96357142D02*
X121602438Y-96214285D01*
X121602438Y-96214285D02*
X121650057Y-96166666D01*
X121554819Y-95833332D02*
X121554819Y-95214285D01*
X121554819Y-95214285D02*
X121935771Y-95547618D01*
X121935771Y-95547618D02*
X121935771Y-95404761D01*
X121935771Y-95404761D02*
X121983390Y-95309523D01*
X121983390Y-95309523D02*
X122031009Y-95261904D01*
X122031009Y-95261904D02*
X122126247Y-95214285D01*
X122126247Y-95214285D02*
X122364342Y-95214285D01*
X122364342Y-95214285D02*
X122459580Y-95261904D01*
X122459580Y-95261904D02*
X122507200Y-95309523D01*
X122507200Y-95309523D02*
X122554819Y-95404761D01*
X122554819Y-95404761D02*
X122554819Y-95690475D01*
X122554819Y-95690475D02*
X122507200Y-95785713D01*
X122507200Y-95785713D02*
X122459580Y-95833332D01*
X95988095Y-75004819D02*
X95988095Y-75814342D01*
X95988095Y-75814342D02*
X96035714Y-75909580D01*
X96035714Y-75909580D02*
X96083333Y-75957200D01*
X96083333Y-75957200D02*
X96178571Y-76004819D01*
X96178571Y-76004819D02*
X96369047Y-76004819D01*
X96369047Y-76004819D02*
X96464285Y-75957200D01*
X96464285Y-75957200D02*
X96511904Y-75909580D01*
X96511904Y-75909580D02*
X96559523Y-75814342D01*
X96559523Y-75814342D02*
X96559523Y-75004819D01*
X96940476Y-75004819D02*
X97559523Y-75004819D01*
X97559523Y-75004819D02*
X97226190Y-75385771D01*
X97226190Y-75385771D02*
X97369047Y-75385771D01*
X97369047Y-75385771D02*
X97464285Y-75433390D01*
X97464285Y-75433390D02*
X97511904Y-75481009D01*
X97511904Y-75481009D02*
X97559523Y-75576247D01*
X97559523Y-75576247D02*
X97559523Y-75814342D01*
X97559523Y-75814342D02*
X97511904Y-75909580D01*
X97511904Y-75909580D02*
X97464285Y-75957200D01*
X97464285Y-75957200D02*
X97369047Y-76004819D01*
X97369047Y-76004819D02*
X97083333Y-76004819D01*
X97083333Y-76004819D02*
X96988095Y-75957200D01*
X96988095Y-75957200D02*
X96940476Y-75909580D01*
X129916666Y-75204819D02*
X129916666Y-75919104D01*
X129916666Y-75919104D02*
X129869047Y-76061961D01*
X129869047Y-76061961D02*
X129773809Y-76157200D01*
X129773809Y-76157200D02*
X129630952Y-76204819D01*
X129630952Y-76204819D02*
X129535714Y-76204819D01*
X130345238Y-75300057D02*
X130392857Y-75252438D01*
X130392857Y-75252438D02*
X130488095Y-75204819D01*
X130488095Y-75204819D02*
X130726190Y-75204819D01*
X130726190Y-75204819D02*
X130821428Y-75252438D01*
X130821428Y-75252438D02*
X130869047Y-75300057D01*
X130869047Y-75300057D02*
X130916666Y-75395295D01*
X130916666Y-75395295D02*
X130916666Y-75490533D01*
X130916666Y-75490533D02*
X130869047Y-75633390D01*
X130869047Y-75633390D02*
X130297619Y-76204819D01*
X130297619Y-76204819D02*
X130916666Y-76204819D01*
X118609580Y-96166666D02*
X118657200Y-96214285D01*
X118657200Y-96214285D02*
X118704819Y-96357142D01*
X118704819Y-96357142D02*
X118704819Y-96452380D01*
X118704819Y-96452380D02*
X118657200Y-96595237D01*
X118657200Y-96595237D02*
X118561961Y-96690475D01*
X118561961Y-96690475D02*
X118466723Y-96738094D01*
X118466723Y-96738094D02*
X118276247Y-96785713D01*
X118276247Y-96785713D02*
X118133390Y-96785713D01*
X118133390Y-96785713D02*
X117942914Y-96738094D01*
X117942914Y-96738094D02*
X117847676Y-96690475D01*
X117847676Y-96690475D02*
X117752438Y-96595237D01*
X117752438Y-96595237D02*
X117704819Y-96452380D01*
X117704819Y-96452380D02*
X117704819Y-96357142D01*
X117704819Y-96357142D02*
X117752438Y-96214285D01*
X117752438Y-96214285D02*
X117800057Y-96166666D01*
X118038152Y-95309523D02*
X118704819Y-95309523D01*
X117657200Y-95547618D02*
X118371485Y-95785713D01*
X118371485Y-95785713D02*
X118371485Y-95166666D01*
X89333333Y-97959580D02*
X89285714Y-98007200D01*
X89285714Y-98007200D02*
X89142857Y-98054819D01*
X89142857Y-98054819D02*
X89047619Y-98054819D01*
X89047619Y-98054819D02*
X88904762Y-98007200D01*
X88904762Y-98007200D02*
X88809524Y-97911961D01*
X88809524Y-97911961D02*
X88761905Y-97816723D01*
X88761905Y-97816723D02*
X88714286Y-97626247D01*
X88714286Y-97626247D02*
X88714286Y-97483390D01*
X88714286Y-97483390D02*
X88761905Y-97292914D01*
X88761905Y-97292914D02*
X88809524Y-97197676D01*
X88809524Y-97197676D02*
X88904762Y-97102438D01*
X88904762Y-97102438D02*
X89047619Y-97054819D01*
X89047619Y-97054819D02*
X89142857Y-97054819D01*
X89142857Y-97054819D02*
X89285714Y-97102438D01*
X89285714Y-97102438D02*
X89333333Y-97150057D01*
X89809524Y-98054819D02*
X90000000Y-98054819D01*
X90000000Y-98054819D02*
X90095238Y-98007200D01*
X90095238Y-98007200D02*
X90142857Y-97959580D01*
X90142857Y-97959580D02*
X90238095Y-97816723D01*
X90238095Y-97816723D02*
X90285714Y-97626247D01*
X90285714Y-97626247D02*
X90285714Y-97245295D01*
X90285714Y-97245295D02*
X90238095Y-97150057D01*
X90238095Y-97150057D02*
X90190476Y-97102438D01*
X90190476Y-97102438D02*
X90095238Y-97054819D01*
X90095238Y-97054819D02*
X89904762Y-97054819D01*
X89904762Y-97054819D02*
X89809524Y-97102438D01*
X89809524Y-97102438D02*
X89761905Y-97150057D01*
X89761905Y-97150057D02*
X89714286Y-97245295D01*
X89714286Y-97245295D02*
X89714286Y-97483390D01*
X89714286Y-97483390D02*
X89761905Y-97578628D01*
X89761905Y-97578628D02*
X89809524Y-97626247D01*
X89809524Y-97626247D02*
X89904762Y-97673866D01*
X89904762Y-97673866D02*
X90095238Y-97673866D01*
X90095238Y-97673866D02*
X90190476Y-97626247D01*
X90190476Y-97626247D02*
X90238095Y-97578628D01*
X90238095Y-97578628D02*
X90285714Y-97483390D01*
X123884819Y-82011904D02*
X124694342Y-82011904D01*
X124694342Y-82011904D02*
X124789580Y-81964285D01*
X124789580Y-81964285D02*
X124837200Y-81916666D01*
X124837200Y-81916666D02*
X124884819Y-81821428D01*
X124884819Y-81821428D02*
X124884819Y-81630952D01*
X124884819Y-81630952D02*
X124837200Y-81535714D01*
X124837200Y-81535714D02*
X124789580Y-81488095D01*
X124789580Y-81488095D02*
X124694342Y-81440476D01*
X124694342Y-81440476D02*
X123884819Y-81440476D01*
X123980057Y-81011904D02*
X123932438Y-80964285D01*
X123932438Y-80964285D02*
X123884819Y-80869047D01*
X123884819Y-80869047D02*
X123884819Y-80630952D01*
X123884819Y-80630952D02*
X123932438Y-80535714D01*
X123932438Y-80535714D02*
X123980057Y-80488095D01*
X123980057Y-80488095D02*
X124075295Y-80440476D01*
X124075295Y-80440476D02*
X124170533Y-80440476D01*
X124170533Y-80440476D02*
X124313390Y-80488095D01*
X124313390Y-80488095D02*
X124884819Y-81059523D01*
X124884819Y-81059523D02*
X124884819Y-80440476D01*
X85916666Y-93704819D02*
X85916666Y-94419104D01*
X85916666Y-94419104D02*
X85869047Y-94561961D01*
X85869047Y-94561961D02*
X85773809Y-94657200D01*
X85773809Y-94657200D02*
X85630952Y-94704819D01*
X85630952Y-94704819D02*
X85535714Y-94704819D01*
X86297619Y-93704819D02*
X86916666Y-93704819D01*
X86916666Y-93704819D02*
X86583333Y-94085771D01*
X86583333Y-94085771D02*
X86726190Y-94085771D01*
X86726190Y-94085771D02*
X86821428Y-94133390D01*
X86821428Y-94133390D02*
X86869047Y-94181009D01*
X86869047Y-94181009D02*
X86916666Y-94276247D01*
X86916666Y-94276247D02*
X86916666Y-94514342D01*
X86916666Y-94514342D02*
X86869047Y-94609580D01*
X86869047Y-94609580D02*
X86821428Y-94657200D01*
X86821428Y-94657200D02*
X86726190Y-94704819D01*
X86726190Y-94704819D02*
X86440476Y-94704819D01*
X86440476Y-94704819D02*
X86345238Y-94657200D01*
X86345238Y-94657200D02*
X86297619Y-94609580D01*
X116583333Y-92704819D02*
X116250000Y-92228628D01*
X116011905Y-92704819D02*
X116011905Y-91704819D01*
X116011905Y-91704819D02*
X116392857Y-91704819D01*
X116392857Y-91704819D02*
X116488095Y-91752438D01*
X116488095Y-91752438D02*
X116535714Y-91800057D01*
X116535714Y-91800057D02*
X116583333Y-91895295D01*
X116583333Y-91895295D02*
X116583333Y-92038152D01*
X116583333Y-92038152D02*
X116535714Y-92133390D01*
X116535714Y-92133390D02*
X116488095Y-92181009D01*
X116488095Y-92181009D02*
X116392857Y-92228628D01*
X116392857Y-92228628D02*
X116011905Y-92228628D01*
X117440476Y-91704819D02*
X117250000Y-91704819D01*
X117250000Y-91704819D02*
X117154762Y-91752438D01*
X117154762Y-91752438D02*
X117107143Y-91800057D01*
X117107143Y-91800057D02*
X117011905Y-91942914D01*
X117011905Y-91942914D02*
X116964286Y-92133390D01*
X116964286Y-92133390D02*
X116964286Y-92514342D01*
X116964286Y-92514342D02*
X117011905Y-92609580D01*
X117011905Y-92609580D02*
X117059524Y-92657200D01*
X117059524Y-92657200D02*
X117154762Y-92704819D01*
X117154762Y-92704819D02*
X117345238Y-92704819D01*
X117345238Y-92704819D02*
X117440476Y-92657200D01*
X117440476Y-92657200D02*
X117488095Y-92609580D01*
X117488095Y-92609580D02*
X117535714Y-92514342D01*
X117535714Y-92514342D02*
X117535714Y-92276247D01*
X117535714Y-92276247D02*
X117488095Y-92181009D01*
X117488095Y-92181009D02*
X117440476Y-92133390D01*
X117440476Y-92133390D02*
X117345238Y-92085771D01*
X117345238Y-92085771D02*
X117154762Y-92085771D01*
X117154762Y-92085771D02*
X117059524Y-92133390D01*
X117059524Y-92133390D02*
X117011905Y-92181009D01*
X117011905Y-92181009D02*
X116964286Y-92276247D01*
D13*
%TO.C,D3*%
X119735000Y-88340000D02*
X118265000Y-88340000D01*
X118265000Y-88340000D02*
X118265000Y-90800000D01*
X119735000Y-90800000D02*
X119735000Y-88340000D01*
%TO.C,D2*%
X115235000Y-88340000D02*
X113765000Y-88340000D01*
X113765000Y-88340000D02*
X113765000Y-90800000D01*
X115235000Y-90800000D02*
X115235000Y-88340000D01*
%TO.C,R4*%
X101477500Y-88004724D02*
X101477500Y-87495276D01*
X102522500Y-88004724D02*
X102522500Y-87495276D01*
%TO.C,D1*%
X101265000Y-90450000D02*
X101265000Y-92910000D01*
X101265000Y-92910000D02*
X102735000Y-92910000D01*
X102735000Y-92910000D02*
X102735000Y-90450000D01*
%TO.C,C10*%
X89740000Y-81146267D02*
X89740000Y-80853733D01*
X90760000Y-81146267D02*
X90760000Y-80853733D01*
%TO.C,C6*%
X103590000Y-88538748D02*
X103590000Y-89961252D01*
X105410000Y-88538748D02*
X105410000Y-89961252D01*
%TO.C,C8*%
X95490000Y-95288748D02*
X95490000Y-96711252D01*
X97310000Y-95288748D02*
X97310000Y-96711252D01*
%TO.C,L1*%
X108790000Y-98110000D02*
X108790000Y-93890000D01*
X113010000Y-93890000D02*
X113010000Y-98110000D01*
%TO.C,R1*%
X94727500Y-90995276D02*
X94727500Y-91504724D01*
X95772500Y-90995276D02*
X95772500Y-91504724D01*
%TO.C,R3*%
X90477500Y-76754724D02*
X90477500Y-76245276D01*
X91522500Y-76754724D02*
X91522500Y-76245276D01*
%TO.C,U1*%
X103340000Y-96000000D02*
X103340000Y-95200000D01*
X103340000Y-96000000D02*
X103340000Y-96800000D01*
X106460000Y-96000000D02*
X106460000Y-95200000D01*
X106460000Y-96000000D02*
X106460000Y-96800000D01*
X106740000Y-94940000D02*
X106410000Y-94700000D01*
X106740000Y-94460000D01*
X106740000Y-94940000D01*
G36*
X106740000Y-94940000D02*
G01*
X106410000Y-94700000D01*
X106740000Y-94460000D01*
X106740000Y-94940000D01*
G37*
%TO.C,C1*%
X99490000Y-95288748D02*
X99490000Y-96711252D01*
X101310000Y-95288748D02*
X101310000Y-96711252D01*
%TO.C,R8*%
X104495276Y-92477500D02*
X105004724Y-92477500D01*
X104495276Y-93522500D02*
X105004724Y-93522500D01*
%TO.C,R5*%
X111727500Y-90254724D02*
X111727500Y-89745276D01*
X112772500Y-90254724D02*
X112772500Y-89745276D01*
%TO.C,R7*%
X87477500Y-81254724D02*
X87477500Y-80745276D01*
X88522500Y-81254724D02*
X88522500Y-80745276D01*
%TO.C,Q1*%
X97500000Y-87190000D02*
X96850000Y-87190000D01*
X97500000Y-87190000D02*
X98150000Y-87190000D01*
X97500000Y-90310000D02*
X96850000Y-90310000D01*
X97500000Y-90310000D02*
X98150000Y-90310000D01*
X98902500Y-90590000D02*
X98422500Y-90590000D01*
X98662500Y-90260000D01*
X98902500Y-90590000D01*
G36*
X98902500Y-90590000D02*
G01*
X98422500Y-90590000D01*
X98662500Y-90260000D01*
X98902500Y-90590000D01*
G37*
%TO.C,JP1*%
X86600000Y-77050000D02*
X86600000Y-76450000D01*
X87300000Y-75750000D02*
X88700000Y-75750000D01*
X88700000Y-77750000D02*
X87300000Y-77750000D01*
X89400000Y-76450000D02*
X89400000Y-77050000D01*
X86600000Y-76450000D02*
G75*
G02*
X87300000Y-75750000I700000J0D01*
G01*
X87300000Y-77750000D02*
G75*
G02*
X86600000Y-77050000I0J700000D01*
G01*
X88700000Y-75750000D02*
G75*
G02*
X89400000Y-76450000I1J-699999D01*
G01*
X89400000Y-77050000D02*
G75*
G02*
X88700000Y-77750000I-699999J-1D01*
G01*
%TO.C,J1*%
X135525000Y-76620000D02*
X135525000Y-97880000D01*
X136585000Y-78510000D02*
X138415000Y-76680000D01*
X136585000Y-95990000D02*
X136585000Y-78510000D01*
X136665000Y-99020000D02*
X145475000Y-99020000D01*
X137945000Y-74400000D02*
X141665000Y-74400000D01*
X137945000Y-75480000D02*
X137945000Y-74400000D01*
X137945000Y-99020000D02*
X137945000Y-100100000D01*
X137945000Y-100100000D02*
X141665000Y-100100000D01*
X138415000Y-76680000D02*
X143025000Y-76680000D01*
X138415000Y-97820000D02*
X136585000Y-95990000D01*
X141665000Y-74400000D02*
X141665000Y-75480000D01*
X141665000Y-100100000D02*
X141665000Y-99020000D01*
X142945000Y-75480000D02*
X136665000Y-75480000D01*
X143025000Y-76680000D02*
X143025000Y-97820000D01*
X143025000Y-97820000D02*
X138415000Y-97820000D01*
X144085000Y-77160000D02*
X145475000Y-77160000D01*
X144085000Y-82050000D02*
X145475000Y-82050000D01*
X144085000Y-87130000D02*
X145475000Y-87130000D01*
X144085000Y-92230000D02*
X145475000Y-92230000D01*
X144085000Y-97330000D02*
X145475000Y-97330000D01*
X144085000Y-97880000D02*
X144085000Y-76620000D01*
X145475000Y-77160000D02*
X145475000Y-78850000D01*
X145475000Y-78850000D02*
X144085000Y-78850000D01*
X145475000Y-82050000D02*
X145475000Y-83740000D01*
X145475000Y-83740000D02*
X144085000Y-83740000D01*
X145475000Y-87130000D02*
X145475000Y-88820000D01*
X145475000Y-88820000D02*
X144085000Y-88820000D01*
X145475000Y-92230000D02*
X145475000Y-93920000D01*
X145475000Y-93920000D02*
X144085000Y-93920000D01*
X145475000Y-97330000D02*
X145475000Y-99020000D01*
X135525000Y-76620000D02*
G75*
G02*
X136665000Y-75480000I1139999J1D01*
G01*
X136665000Y-99020000D02*
G75*
G02*
X135525000Y-97880000I0J1140000D01*
G01*
X142945000Y-75480000D02*
G75*
G02*
X144085000Y-76620000I1J-1139999D01*
G01*
X144085000Y-97880000D02*
G75*
G02*
X142945000Y-99020000I-1140000J0D01*
G01*
%TO.C,R2*%
X94477500Y-86504724D02*
X94477500Y-85995276D01*
X95522500Y-86504724D02*
X95522500Y-85995276D01*
%TO.C,C2*%
X105396267Y-98490000D02*
X105103733Y-98490000D01*
X105396267Y-99510000D02*
X105103733Y-99510000D01*
%TO.C,C5*%
X98461252Y-82340000D02*
X97038748Y-82340000D01*
X98461252Y-84160000D02*
X97038748Y-84160000D01*
%TO.C,C7*%
X108490000Y-90146267D02*
X108490000Y-89853733D01*
X109510000Y-90146267D02*
X109510000Y-89853733D01*
%TO.C,C3*%
X119340000Y-95288748D02*
X119340000Y-96711252D01*
X121160000Y-95288748D02*
X121160000Y-96711252D01*
%TO.C,U3*%
X96750000Y-76265000D02*
X94550000Y-76265000D01*
X96750000Y-76265000D02*
X98950000Y-76265000D01*
X96750000Y-81735000D02*
X94550000Y-81735000D01*
X96750000Y-81735000D02*
X98950000Y-81735000D01*
X92890000Y-76725000D02*
X92560000Y-76965000D01*
X92560000Y-76485000D01*
X92890000Y-76725000D01*
G36*
X92890000Y-76725000D02*
G01*
X92560000Y-76965000D01*
X92560000Y-76485000D01*
X92890000Y-76725000D01*
G37*
%TO.C,J2*%
X126965000Y-76980000D02*
X130250000Y-76980000D01*
X126965000Y-79630000D02*
X126965000Y-76980000D01*
X126965000Y-82170000D02*
X126965000Y-97520000D01*
X126965000Y-82170000D02*
X133535000Y-82170000D01*
X126965000Y-97520000D02*
X133535000Y-97520000D01*
X133535000Y-82170000D02*
X133535000Y-97520000D01*
%TO.C,C4*%
X115490000Y-95288748D02*
X115490000Y-96711252D01*
X117310000Y-95288748D02*
X117310000Y-96711252D01*
%TO.C,C9*%
X90211252Y-94840000D02*
X88788748Y-94840000D01*
X90211252Y-96660000D02*
X88788748Y-96660000D01*
%TO.C,U2*%
X107720000Y-76140000D02*
X107720000Y-86360000D01*
X107720000Y-76140000D02*
X123590000Y-76140000D01*
X107720000Y-78225000D02*
X105280000Y-78225000D01*
X107720000Y-79195000D02*
X105280000Y-79195000D01*
X107720000Y-80765000D02*
X105280000Y-80765000D01*
X107720000Y-81735000D02*
X105280000Y-81735000D01*
X107720000Y-83305000D02*
X105280000Y-83305000D01*
X107720000Y-84275000D02*
X105280000Y-84275000D01*
X107720000Y-86360000D02*
X123590000Y-86360000D01*
X123590000Y-76140000D02*
X123590000Y-86360000D01*
%TO.C,J3*%
X88850000Y-83580000D02*
X90550000Y-83580000D01*
X88850000Y-92920000D02*
X90550000Y-92920000D01*
%TO.C,R6*%
X116227500Y-90254724D02*
X116227500Y-89745276D01*
X117272500Y-90254724D02*
X117272500Y-89745276D01*
%TD*%
%LPC*%
%TO.C,JP1*%
G36*
X88150000Y-77500000D02*
G01*
X87850000Y-77500000D01*
X87850000Y-76000000D01*
X88150000Y-76000000D01*
X88150000Y-77500000D01*
G37*
%TD*%
D14*
%TO.C,D3*%
X119000000Y-89125000D03*
X119000000Y-90875000D03*
%TD*%
%TO.C,D2*%
X114500000Y-89125000D03*
X114500000Y-90875000D03*
%TD*%
D15*
%TO.C,R4*%
X102000000Y-88662500D03*
X102000000Y-86837500D03*
%TD*%
D16*
%TO.C,D1*%
X102000000Y-92125000D03*
X102000000Y-90375000D03*
%TD*%
D17*
%TO.C,C10*%
X90250000Y-81862500D03*
X90250000Y-80137500D03*
%TD*%
D18*
%TO.C,C6*%
X104500000Y-87687500D03*
X104500000Y-90812500D03*
%TD*%
%TO.C,C8*%
X96400000Y-94437500D03*
X96400000Y-97562500D03*
%TD*%
D19*
%TO.C,L1*%
X110900000Y-97500000D03*
X110900000Y-94500000D03*
%TD*%
D20*
%TO.C,R1*%
X95250000Y-90337500D03*
X95250000Y-92162500D03*
%TD*%
D15*
%TO.C,R3*%
X91000000Y-77412500D03*
X91000000Y-75587500D03*
%TD*%
D21*
%TO.C,U1*%
X105850000Y-94862500D03*
X104900000Y-94862500D03*
X103950000Y-94862500D03*
X103950000Y-97137500D03*
X104900000Y-97137500D03*
X105850000Y-97137500D03*
%TD*%
D18*
%TO.C,C1*%
X100400000Y-94437500D03*
X100400000Y-97562500D03*
%TD*%
D22*
%TO.C,R8*%
X103837500Y-93000000D03*
X105662500Y-93000000D03*
%TD*%
D15*
%TO.C,R5*%
X112250000Y-90912500D03*
X112250000Y-89087500D03*
%TD*%
%TO.C,R7*%
X88000000Y-81912500D03*
X88000000Y-80087500D03*
%TD*%
D23*
%TO.C,Q1*%
X98437500Y-89700000D03*
X98437500Y-87800000D03*
X96562500Y-88750000D03*
%TD*%
D24*
%TO.C,JP1*%
X88650000Y-76750000D03*
D25*
X87350000Y-76750000D03*
%TD*%
D26*
%TO.C,J1*%
X139805000Y-79630000D03*
D27*
X139805000Y-84710000D03*
X139805000Y-89790000D03*
X139805000Y-94870000D03*
%TD*%
D15*
%TO.C,R2*%
X95000000Y-87162500D03*
X95000000Y-85337500D03*
%TD*%
D28*
%TO.C,C2*%
X106112500Y-99000000D03*
X104387500Y-99000000D03*
%TD*%
D29*
%TO.C,C5*%
X99312500Y-83250000D03*
X96187500Y-83250000D03*
%TD*%
D17*
%TO.C,C7*%
X109000000Y-90862500D03*
X109000000Y-89137500D03*
%TD*%
D18*
%TO.C,C3*%
X120250000Y-94437500D03*
X120250000Y-97562500D03*
%TD*%
D30*
%TO.C,U3*%
X93887500Y-76725000D03*
X93887500Y-77375000D03*
X93887500Y-78025000D03*
X93887500Y-78675000D03*
X93887500Y-79325000D03*
X93887500Y-79975000D03*
X93887500Y-80625000D03*
X93887500Y-81275000D03*
X99612500Y-81275000D03*
X99612500Y-80625000D03*
X99612500Y-79975000D03*
X99612500Y-79325000D03*
X99612500Y-78675000D03*
X99612500Y-78025000D03*
X99612500Y-77375000D03*
X99612500Y-76725000D03*
%TD*%
D31*
%TO.C,J2*%
X130250000Y-79630000D03*
D32*
X130250000Y-84710000D03*
X130250000Y-89790000D03*
X130250000Y-94870000D03*
%TD*%
D18*
%TO.C,C4*%
X116400000Y-94437500D03*
X116400000Y-97562500D03*
%TD*%
D29*
%TO.C,C9*%
X91062500Y-95750000D03*
X87937500Y-95750000D03*
%TD*%
D33*
%TO.C,U2*%
X120680000Y-81250000D03*
D34*
X104020000Y-78710000D03*
D35*
X104020000Y-81250000D03*
X104020000Y-83790000D03*
%TD*%
D36*
%TO.C,J3*%
X91355000Y-85360000D03*
X91355000Y-91140000D03*
D37*
X92430000Y-85050000D03*
X92430000Y-85850000D03*
D38*
X92430000Y-87000000D03*
X92430000Y-88000000D03*
X92430000Y-88500000D03*
X92430000Y-89500000D03*
D37*
X92430000Y-90650000D03*
X92430000Y-91450000D03*
X92430000Y-91450000D03*
X92430000Y-90650000D03*
D38*
X92430000Y-90000000D03*
X92430000Y-89000000D03*
X92430000Y-87500000D03*
X92430000Y-86500000D03*
D37*
X92430000Y-85850000D03*
X92430000Y-85050000D03*
D39*
X91855000Y-83930000D03*
D40*
X87675000Y-83930000D03*
D39*
X91855000Y-92570000D03*
D40*
X87675000Y-92570000D03*
%TD*%
D15*
%TO.C,R6*%
X116750000Y-90912500D03*
X116750000Y-89087500D03*
%TD*%
%LPD*%
M02*
