M48
; DRILL file KiCad 10.0.6-10.0.6~ubuntu26.04.1 date 2026-09-10T11:04:04
; FORMAT={-:-/ absolute / inch / decimal}
; #@! TF.CreationDate,2026-09-10T11:04:04+02:00
; #@! TF.GenerationSoftware,Kicad,Pcbnew,10.0.6-10.0.6~ubuntu26.04.1
; #@! TF.FileFunction,Plated,1,2,PTH
FMAT,2
INCH
; #@! TA.AperFunction,Plated,PTH,ViaDrill
T1C0.0118
; #@! TA.AperFunction,Plated,PTH,ComponentDrill
T2C0.0118
; #@! TA.AperFunction,Plated,PTH,ViaDrill
T3C0.0197
; #@! TA.AperFunction,Plated,PTH,ComponentDrill
T4C0.0236
; #@! TA.AperFunction,Plated,PTH,ComponentDrill
T5C0.0335
; #@! TA.AperFunction,Plated,PTH,ComponentDrill
T6C0.0701
%
G90
G05
T1
X3.08Y-3.06
X3.09Y-2.895
X3.14Y-2.98
X3.295Y-2.935
X3.36Y-3.205
X3.36Y-3.455
X3.4154Y-2.7362
X3.42Y-3.235
X3.42Y-3.425
X3.424Y-2.556
X3.4252Y-2.5245
X3.4409Y-2.9291
X3.4941Y-2.8642
X3.58Y-3.295
X3.595Y-2.885
X3.5955Y-3.075
X3.5984Y-2.9291
X3.635Y-2.3408
X3.6457Y-3.1339
X3.655Y-3.425
X3.66Y-3.54
X3.6846Y-3.0134
X3.6907Y-3.0463
X3.703Y-3.3071
X3.706Y-2.586
X3.718Y-2.512
X3.728Y-2.36
X3.735Y-2.015
X3.7402Y-3.2913
X3.7412Y-3.206
X3.815Y-3.525
X3.8386Y-2.2933
X3.845Y-3.495
X3.9213Y-3.4016
X3.9624Y-3.0629
X3.988Y-3.026
X3.988Y-3.908
X4.0079Y-3.5748
X4.0354Y-3.622
X4.0354Y-3.8091
X4.065Y-2.6476
X4.0953Y-3.1988
X4.1299Y-3.8642
X4.1811Y-2.9921
X4.195Y-1.985
X4.195Y-2.18
X4.2126Y-2.2736
X4.2224Y-3.5827
X4.2323Y-3.8484
X4.24Y-2.2
X4.245Y-2.1
X4.252Y-2.9921
X4.252Y-3.3858
X4.268Y-3.7205
X4.3307Y-2.9921
X4.3307Y-3.3858
X4.335Y-1.595
X4.35Y-1.98
X4.385Y-2.07
X4.39Y-2.2
X4.4094Y-2.8051
X4.4094Y-2.9921
X4.4094Y-3.3858
X4.4882Y-2.9921
X4.4882Y-3.3858
X4.5079Y-3.8484
X4.5669Y-2.9921
X4.5669Y-3.3858
X4.6457Y-2.9921
X4.6457Y-3.0709
X4.6457Y-3.1496
X4.6457Y-3.2283
X4.6457Y-3.3071
X4.6457Y-3.3858
X4.79Y-1.97
X4.8031Y-2.9921
X4.8031Y-3.0709
X4.8031Y-3.1496
X4.8031Y-3.2283
X4.8031Y-3.3071
X4.8031Y-3.3858
X4.8031Y-3.8484
X4.915Y-1.645
X4.98Y-2.13
X4.985Y-1.59
X5.128Y-3.735
X5.13Y-3.135
X5.1417Y-2.2992
X5.2677Y-2.3937
X5.2835Y-2.8425
X5.32Y-3.43
X5.3768Y-2.7492
X5.41Y-2.09
X5.46Y-1.99
X5.466Y-3.208
X5.468Y-3.735
X5.475Y-2.22
X5.49Y-2.71
X5.505Y-2.495
X5.5055Y-3.6259
X5.53Y-2.105
X5.54Y-3.47
X5.56Y-2.34
X5.58Y-2.295
X5.615Y-2.68
X5.625Y-2.42
X5.625Y-3.184
X5.63Y-3.67
X5.6414Y-3.1319
X5.6525Y-3.0535
X5.6782Y-2.8816
X5.7Y-3.42
X5.725Y-3.135
X5.745Y-2.565
X5.7638Y-2.9764
X5.765Y-3.085
X5.77Y-3.75
X5.785Y-3.655
X5.7965Y-3.085
X5.81Y-3.595
X5.815Y-2.88
X5.8209Y-3.135
X5.825Y-2.195
X5.83Y-3.86
X5.835Y-2.075
X5.845Y-1.975
X5.845Y-3.64
X5.855Y-2.005
X5.9Y-2.18
X5.96Y-2.98
X5.965Y-3.495
X5.98Y-3.615
X5.995Y-1.85
X6.0Y-3.045
X6.005Y-2.69
X6.055Y-2.885
X6.07Y-2.13
X6.09Y-3.605
X6.105Y-1.945
X6.11Y-3.3
X6.13Y-2.745
X6.1491Y-2.1991
X6.15Y-2.39
X6.275Y-2.735
X6.31Y-2.155
X6.31Y-2.275
X6.32Y-3.3254
X6.395Y-3.29
X6.395Y-3.38
X6.415Y-2.39
X6.435Y-2.19
X6.44Y-2.98
X6.46Y-3.095
X6.475Y-1.62
X6.51Y-2.615
X6.555Y-2.765
X6.565Y-1.725
X6.585Y-2.385
X6.59Y-2.2
X6.6Y-3.205
X6.6Y-3.755
X6.675Y-1.99
X6.73Y-2.72
X6.765Y-2.25
X6.77Y-2.36
X6.875Y-2.39
T2
X3.8839Y-2.6457
X3.8839Y-2.689
X3.8839Y-2.7402
X3.8839Y-2.7874
X3.9311Y-2.6457
X3.9311Y-2.689
X3.9311Y-2.7402
X3.9311Y-2.7874
T3
X4.1417Y-2.8425
X4.1535Y-2.4606
X4.1654Y-2.6457
X4.3898Y-2.3425
X4.4291Y-2.6378
X4.5177Y-2.7461
X4.7638Y-2.7461
X4.9902Y-2.2933
X5.128Y-2.6378
T6
X7.0776Y-2.61
X7.0776Y-2.81
X7.0776Y-3.01
X7.0776Y-3.21
T4
G00X3.142Y-3.1599
M15
G01X3.1105Y-3.1599
M16
G05
G00X3.142Y-3.5001
M15
G01X3.1105Y-3.5001
M16
G05
G00X3.3125Y-3.1599
M15
G01X3.2692Y-3.1599
M16
G05
G00X3.3125Y-3.5001
M15
G01X3.2692Y-3.5001
M16
G05
T5
G00X3.5948Y-1.72
M15
G01X3.5672Y-1.72
M16
G05
G00X3.9688Y-1.72
M15
G01X3.9412Y-1.72
M16
G05
G00X4.3428Y-1.72
M15
G01X4.3152Y-1.72
M16
G05
G00X4.8148Y-1.72
M15
G01X4.7872Y-1.72
M16
G05
G00X5.1888Y-1.72
M15
G01X5.1612Y-1.72
M16
G05
G00X5.5628Y-1.72
M15
G01X5.5352Y-1.72
M16
G05
G00X6.0298Y-1.72
M15
G01X6.0022Y-1.72
M16
G05
G00X6.4038Y-1.72
M15
G01X6.3762Y-1.72
M16
G05
G00X6.7778Y-1.72
M15
G01X6.7502Y-1.72
M16
G05
M30
