%TF.GenerationSoftware,KiCad,Pcbnew,9.0.3+dfsg-1*%
%TF.CreationDate,2026-03-01T17:05:38+01:00*%
%TF.ProjectId,usbpd-adapter,75736270-642d-4616-9461-707465722e6b,rev?*%
%TF.SameCoordinates,Original*%
%TF.FileFunction,Copper,L2,Bot*%
%TF.FilePolarity,Positive*%
%FSLAX46Y46*%
G04 Gerber Fmt 4.6, Leading zero omitted, Abs format (unit mm)*
G04 Created by KiCad (PCBNEW 9.0.3+dfsg-1) date 2026-03-01 17:05:38*
%MOMM*%
%LPD*%
G01*
G04 APERTURE LIST*
%TA.AperFunction,ComponentPad*%
%ADD10R,2.780000X2.780000*%
%TD*%
%TA.AperFunction,ComponentPad*%
%ADD11C,2.780000*%
%TD*%
%TA.AperFunction,ComponentPad*%
%ADD12R,2.800000X2.800000*%
%TD*%
%TA.AperFunction,ComponentPad*%
%ADD13C,2.800000*%
%TD*%
%TA.AperFunction,ComponentPad*%
%ADD14R,2.000000X1.905000*%
%TD*%
%TA.AperFunction,ComponentPad*%
%ADD15O,2.000000X1.905000*%
%TD*%
%TA.AperFunction,HeatsinkPad*%
%ADD16O,2.100000X1.000000*%
%TD*%
%TA.AperFunction,HeatsinkPad*%
%ADD17O,1.800000X1.000000*%
%TD*%
%TA.AperFunction,ViaPad*%
%ADD18C,0.600000*%
%TD*%
%TA.AperFunction,Conductor*%
%ADD19C,0.400000*%
%TD*%
%TA.AperFunction,Conductor*%
%ADD20C,0.200000*%
%TD*%
G04 APERTURE END LIST*
D10*
%TO.P,J1,1,Pin_1*%
%TO.N,12V*%
X139805000Y-79630000D03*
D11*
%TO.P,J1,2,Pin_2*%
%TO.N,GND*%
X139805000Y-84710000D03*
%TO.P,J1,3,Pin_3*%
X139805000Y-89790000D03*
%TO.P,J1,4,Pin_4*%
%TO.N,5V*%
X139805000Y-94870000D03*
%TD*%
D12*
%TO.P,J2,1,Pin_1*%
%TO.N,12V*%
X130250000Y-79630000D03*
D13*
%TO.P,J2,2,Pin_2*%
%TO.N,GND*%
X130250000Y-84710000D03*
%TO.P,J2,3,Pin_3*%
X130250000Y-89790000D03*
%TO.P,J2,4,Pin_4*%
%TO.N,5V*%
X130250000Y-94870000D03*
%TD*%
D14*
%TO.P,U2,1,IN*%
%TO.N,VIN*%
X104020000Y-78710000D03*
D15*
%TO.P,U2,2,GND*%
%TO.N,GND*%
X104020000Y-81250000D03*
%TO.P,U2,3,OUT*%
%TO.N,12V*%
X104020000Y-83790000D03*
%TD*%
D16*
%TO.P,J3,S1,SHIELD*%
%TO.N,Net-(J3-SHIELD)*%
X91855000Y-83930000D03*
D17*
X87675000Y-83930000D03*
D16*
X91855000Y-92570000D03*
D17*
X87675000Y-92570000D03*
%TD*%
D18*
%TO.N,GND*%
X122000000Y-97750000D03*
X114000000Y-88750000D03*
X102500000Y-96750000D03*
X102500000Y-92000000D03*
X92250000Y-79250000D03*
X107250000Y-91000000D03*
X94000000Y-92000000D03*
X94056000Y-84000000D03*
X88000000Y-79250000D03*
X114500000Y-97750000D03*
X90000000Y-79250000D03*
X118500000Y-88750000D03*
%TO.N,Net-(U1-SW)*%
X107500000Y-97750000D03*
X104900000Y-98150000D03*
%TO.N,VBUS*%
X93565006Y-86184994D03*
X92750000Y-95250000D03*
X93778567Y-90715888D03*
X92518794Y-77806383D03*
%TO.N,Net-(J3-CC2)*%
X93440447Y-89936029D03*
X97379444Y-79040965D03*
X95250000Y-89750000D03*
%TO.N,Net-(J3-CC1)*%
X95500000Y-87250000D03*
X93319352Y-87000000D03*
X96675949Y-78655238D03*
%TO.N,Net-(Q1-G)*%
X99750000Y-89750000D03*
X97500000Y-86500000D03*
%TO.N,Net-(U3-SEL)*%
X96500000Y-80000000D03*
X92250000Y-77000000D03*
%TD*%
D19*
%TO.N,GND*%
X102500000Y-96750000D02*
X102500000Y-92000000D01*
X107250000Y-91000000D02*
X111750000Y-91000000D01*
X111750000Y-91000000D02*
X114000000Y-88750000D01*
X104020000Y-81250000D02*
X102500000Y-82770000D01*
X102500000Y-82770000D02*
X102500000Y-92000000D01*
X114000000Y-88750000D02*
X118500000Y-88750000D01*
X114000000Y-88750000D02*
X114000000Y-97250000D01*
X114000000Y-97250000D02*
X114500000Y-97750000D01*
%TO.N,Net-(U1-SW)*%
X104900000Y-98150000D02*
X105000000Y-98250000D01*
X105000000Y-98250000D02*
X107000000Y-98250000D01*
X107000000Y-98250000D02*
X107500000Y-97750000D01*
%TO.N,VBUS*%
X93565006Y-86184994D02*
X93306000Y-85925988D01*
X93306000Y-85925988D02*
X93306000Y-78593589D01*
X93250000Y-91244455D02*
X93250000Y-92140794D01*
X93306000Y-94694000D02*
X92750000Y-95250000D01*
X93306000Y-92196794D02*
X93306000Y-94694000D01*
X93306000Y-78593589D02*
X92518794Y-77806383D01*
X93778567Y-90715888D02*
X93250000Y-91244455D01*
X93250000Y-92140794D02*
X93306000Y-92196794D01*
%TO.N,Net-(J3-SHIELD)*%
X87675000Y-83930000D02*
X87675000Y-92570000D01*
X91855000Y-83930000D02*
X87675000Y-83930000D01*
X87675000Y-92570000D02*
X91855000Y-92570000D01*
D20*
%TO.N,Net-(J3-CC2)*%
X97550000Y-80434924D02*
X97550000Y-79211521D01*
X93442510Y-89933966D02*
X93440447Y-89936029D01*
X95066034Y-89933966D02*
X93442510Y-89933966D01*
X97250000Y-85850000D02*
X97250000Y-80734925D01*
X96850000Y-88150000D02*
X96850000Y-86250000D01*
X95250000Y-89750000D02*
X96850000Y-88150000D01*
X97250000Y-80734925D02*
X97550000Y-80434924D01*
X96850000Y-86250000D02*
X97250000Y-85850000D01*
X97550000Y-79211521D02*
X97379444Y-79040965D01*
X95250000Y-89750000D02*
X95066034Y-89933966D01*
%TO.N,Net-(J3-CC1)*%
X96450000Y-86065075D02*
X96750000Y-85765075D01*
X96750000Y-80669239D02*
X97150000Y-80269239D01*
X93319352Y-87000000D02*
X95250000Y-87000000D01*
X95250000Y-87000000D02*
X95500000Y-87250000D01*
X96750000Y-85765075D02*
X96750000Y-80669239D01*
X97150000Y-80269239D02*
X97150000Y-79730761D01*
X96675949Y-79256710D02*
X96675949Y-78655238D01*
X95500000Y-87250000D02*
X96450000Y-86300000D01*
X97150000Y-79730761D02*
X96675949Y-79256710D01*
X96450000Y-86300000D02*
X96450000Y-86065075D01*
D19*
%TO.N,Net-(Q1-G)*%
X97500000Y-87500000D02*
X99750000Y-89750000D01*
X97500000Y-86500000D02*
X97500000Y-87500000D01*
D20*
%TO.N,Net-(U3-SEL)*%
X93500000Y-77000000D02*
X92250000Y-77000000D01*
X96500000Y-80000000D02*
X93500000Y-77000000D01*
%TD*%
%TA.AperFunction,Conductor*%
%TO.N,GND*%
G36*
X94211703Y-78561384D02*
G01*
X94218181Y-78567416D01*
X95665425Y-80014660D01*
X95698910Y-80075983D01*
X95699361Y-80078149D01*
X95730261Y-80233491D01*
X95730264Y-80233501D01*
X95790602Y-80379172D01*
X95790609Y-80379185D01*
X95878210Y-80510288D01*
X95878213Y-80510292D01*
X95989710Y-80621789D01*
X96094391Y-80691734D01*
X96139196Y-80745346D01*
X96149500Y-80794836D01*
X96149500Y-85464976D01*
X96140855Y-85494415D01*
X96134333Y-85524401D01*
X96130577Y-85529417D01*
X96129815Y-85532015D01*
X96113183Y-85552656D01*
X96081286Y-85584553D01*
X96081284Y-85584554D01*
X96081283Y-85584555D01*
X96081284Y-85584555D01*
X95969481Y-85696357D01*
X95969479Y-85696359D01*
X95951598Y-85727331D01*
X95944040Y-85740423D01*
X95890423Y-85833290D01*
X95849499Y-85986018D01*
X95849499Y-85986020D01*
X95849499Y-85999903D01*
X95829814Y-86066942D01*
X95813180Y-86087584D01*
X95515496Y-86385268D01*
X95454173Y-86418753D01*
X95395722Y-86417362D01*
X95329057Y-86399499D01*
X95170943Y-86399499D01*
X95163347Y-86399499D01*
X95163331Y-86399500D01*
X94488957Y-86399500D01*
X94421918Y-86379815D01*
X94376163Y-86327011D01*
X94366652Y-86269928D01*
X94365506Y-86269928D01*
X94365506Y-86106149D01*
X94365505Y-86106147D01*
X94361813Y-86087584D01*
X94334743Y-85951497D01*
X94328117Y-85935500D01*
X94274403Y-85805821D01*
X94274396Y-85805808D01*
X94186795Y-85674705D01*
X94186792Y-85674701D01*
X94075302Y-85563211D01*
X94075296Y-85563206D01*
X94061606Y-85554058D01*
X94016802Y-85500444D01*
X94006500Y-85450958D01*
X94006500Y-78655097D01*
X94026185Y-78588058D01*
X94078989Y-78542303D01*
X94148147Y-78532359D01*
X94211703Y-78561384D01*
G37*
%TD.AperFunction*%
%TA.AperFunction,Conductor*%
G36*
X144943039Y-74020185D02*
G01*
X144988794Y-74072989D01*
X145000000Y-74124500D01*
X145000000Y-99875500D01*
X144980315Y-99942539D01*
X144927511Y-99988294D01*
X144876000Y-99999500D01*
X86124000Y-99999500D01*
X86056961Y-99979815D01*
X86011206Y-99927011D01*
X86000000Y-99875500D01*
X86000000Y-98071153D01*
X104099500Y-98071153D01*
X104099500Y-98228846D01*
X104130261Y-98383489D01*
X104130264Y-98383501D01*
X104190602Y-98529172D01*
X104190609Y-98529185D01*
X104278210Y-98660288D01*
X104278213Y-98660292D01*
X104389707Y-98771786D01*
X104389711Y-98771789D01*
X104520814Y-98859390D01*
X104520827Y-98859397D01*
X104666498Y-98919735D01*
X104666503Y-98919737D01*
X104821153Y-98950499D01*
X104821156Y-98950500D01*
X104821158Y-98950500D01*
X107068996Y-98950500D01*
X107160040Y-98932389D01*
X107204328Y-98923580D01*
X107268069Y-98897177D01*
X107331807Y-98870777D01*
X107331808Y-98870776D01*
X107331811Y-98870775D01*
X107446543Y-98794114D01*
X107694588Y-98546067D01*
X107734810Y-98519192D01*
X107789435Y-98496566D01*
X107879173Y-98459397D01*
X107879176Y-98459395D01*
X107879179Y-98459394D01*
X108010289Y-98371789D01*
X108121789Y-98260289D01*
X108209394Y-98129179D01*
X108269737Y-97983497D01*
X108300500Y-97828842D01*
X108300500Y-97671158D01*
X108300500Y-97671155D01*
X108300499Y-97671153D01*
X108294244Y-97639707D01*
X108269737Y-97516503D01*
X108238298Y-97440602D01*
X108209397Y-97370827D01*
X108209390Y-97370814D01*
X108121789Y-97239711D01*
X108121786Y-97239707D01*
X108010292Y-97128213D01*
X108010288Y-97128210D01*
X107879185Y-97040609D01*
X107879172Y-97040602D01*
X107733501Y-96980264D01*
X107733489Y-96980261D01*
X107578845Y-96949500D01*
X107578842Y-96949500D01*
X107421158Y-96949500D01*
X107421155Y-96949500D01*
X107266510Y-96980261D01*
X107266498Y-96980264D01*
X107120827Y-97040602D01*
X107120814Y-97040609D01*
X106989711Y-97128210D01*
X106989707Y-97128213D01*
X106878213Y-97239707D01*
X106878210Y-97239711D01*
X106790609Y-97370814D01*
X106790602Y-97370827D01*
X106748302Y-97472952D01*
X106704462Y-97527356D01*
X106638167Y-97549421D01*
X106633741Y-97549500D01*
X105479766Y-97549500D01*
X105412727Y-97529815D01*
X105410875Y-97528602D01*
X105279185Y-97440609D01*
X105279172Y-97440602D01*
X105133501Y-97380264D01*
X105133489Y-97380261D01*
X104978845Y-97349500D01*
X104978842Y-97349500D01*
X104821158Y-97349500D01*
X104821155Y-97349500D01*
X104666510Y-97380261D01*
X104666498Y-97380264D01*
X104520827Y-97440602D01*
X104520814Y-97440609D01*
X104389711Y-97528210D01*
X104389707Y-97528213D01*
X104278213Y-97639707D01*
X104278210Y-97639711D01*
X104190609Y-97770814D01*
X104190602Y-97770827D01*
X104130264Y-97916498D01*
X104130261Y-97916510D01*
X104099500Y-98071153D01*
X86000000Y-98071153D01*
X86000000Y-84028543D01*
X86274499Y-84028543D01*
X86312947Y-84221829D01*
X86312950Y-84221839D01*
X86388364Y-84403907D01*
X86388371Y-84403920D01*
X86497860Y-84567781D01*
X86497863Y-84567785D01*
X86637217Y-84707139D01*
X86770477Y-84796180D01*
X86801086Y-84816632D01*
X86897953Y-84856755D01*
X86952355Y-84900594D01*
X86974421Y-84966888D01*
X86974500Y-84971315D01*
X86974500Y-91528683D01*
X86954815Y-91595722D01*
X86902011Y-91641477D01*
X86897953Y-91643244D01*
X86801089Y-91683366D01*
X86801079Y-91683371D01*
X86637218Y-91792860D01*
X86637214Y-91792863D01*
X86497863Y-91932214D01*
X86497860Y-91932218D01*
X86388371Y-92096079D01*
X86388364Y-92096092D01*
X86312950Y-92278160D01*
X86312947Y-92278170D01*
X86274500Y-92471456D01*
X86274500Y-92471459D01*
X86274500Y-92668541D01*
X86274500Y-92668543D01*
X86274499Y-92668543D01*
X86312947Y-92861829D01*
X86312950Y-92861839D01*
X86388364Y-93043907D01*
X86388371Y-93043920D01*
X86497860Y-93207781D01*
X86497863Y-93207785D01*
X86637214Y-93347136D01*
X86637218Y-93347139D01*
X86801079Y-93456628D01*
X86801092Y-93456635D01*
X86983160Y-93532049D01*
X86983165Y-93532051D01*
X86983169Y-93532051D01*
X86983170Y-93532052D01*
X87176456Y-93570500D01*
X87176459Y-93570500D01*
X88173543Y-93570500D01*
X88303582Y-93544632D01*
X88366835Y-93532051D01*
X88548914Y-93456632D01*
X88712782Y-93347139D01*
X88753101Y-93306820D01*
X88814424Y-93273334D01*
X88840783Y-93270500D01*
X90539217Y-93270500D01*
X90606256Y-93290185D01*
X90626899Y-93306820D01*
X90667214Y-93347136D01*
X90667218Y-93347139D01*
X90831079Y-93456628D01*
X90831092Y-93456635D01*
X91013160Y-93532049D01*
X91013165Y-93532051D01*
X91013169Y-93532051D01*
X91013170Y-93532052D01*
X91206456Y-93570500D01*
X92481500Y-93570500D01*
X92548539Y-93590185D01*
X92594294Y-93642989D01*
X92605500Y-93694500D01*
X92605500Y-94352479D01*
X92596854Y-94381923D01*
X92590330Y-94411910D01*
X92586577Y-94416922D01*
X92585815Y-94419518D01*
X92569178Y-94440163D01*
X92555408Y-94453932D01*
X92515183Y-94480809D01*
X92370824Y-94540604D01*
X92370814Y-94540609D01*
X92239711Y-94628210D01*
X92239707Y-94628213D01*
X92128213Y-94739707D01*
X92128210Y-94739711D01*
X92040609Y-94870814D01*
X92040602Y-94870827D01*
X91980264Y-95016498D01*
X91980261Y-95016510D01*
X91949500Y-95171153D01*
X91949500Y-95328846D01*
X91980261Y-95483489D01*
X91980264Y-95483501D01*
X92040602Y-95629172D01*
X92040609Y-95629185D01*
X92128210Y-95760288D01*
X92128213Y-95760292D01*
X92239707Y-95871786D01*
X92239711Y-95871789D01*
X92370814Y-95959390D01*
X92370827Y-95959397D01*
X92516498Y-96019735D01*
X92516503Y-96019737D01*
X92671153Y-96050499D01*
X92671156Y-96050500D01*
X92671158Y-96050500D01*
X92828844Y-96050500D01*
X92828845Y-96050499D01*
X92983497Y-96019737D01*
X93129179Y-95959394D01*
X93260289Y-95871789D01*
X93371789Y-95760289D01*
X93459394Y-95629179D01*
X93459395Y-95629176D01*
X93459397Y-95629173D01*
X93519192Y-95484812D01*
X93546067Y-95444588D01*
X93850114Y-95140543D01*
X93926775Y-95025811D01*
X93930631Y-95016503D01*
X93979578Y-94898332D01*
X93979580Y-94898328D01*
X94006500Y-94762994D01*
X94006500Y-94745441D01*
X128349500Y-94745441D01*
X128349500Y-94994558D01*
X128349501Y-94994575D01*
X128382017Y-95241561D01*
X128446498Y-95482207D01*
X128541830Y-95712361D01*
X128541837Y-95712376D01*
X128666400Y-95928126D01*
X128818060Y-96125774D01*
X128818066Y-96125781D01*
X128994218Y-96301933D01*
X128994225Y-96301939D01*
X129191873Y-96453599D01*
X129407623Y-96578162D01*
X129407638Y-96578169D01*
X129506825Y-96619253D01*
X129637793Y-96673502D01*
X129878435Y-96737982D01*
X130125435Y-96770500D01*
X130125442Y-96770500D01*
X130374558Y-96770500D01*
X130374565Y-96770500D01*
X130621565Y-96737982D01*
X130862207Y-96673502D01*
X131092373Y-96578164D01*
X131308127Y-96453599D01*
X131505776Y-96301938D01*
X131681938Y-96125776D01*
X131833599Y-95928127D01*
X131958164Y-95712373D01*
X132053502Y-95482207D01*
X132117982Y-95241565D01*
X132150500Y-94994565D01*
X132150500Y-94746096D01*
X137914500Y-94746096D01*
X137914500Y-94993903D01*
X137914501Y-94993919D01*
X137946846Y-95239606D01*
X138010990Y-95478992D01*
X138105819Y-95707931D01*
X138105827Y-95707948D01*
X138229729Y-95922551D01*
X138229740Y-95922567D01*
X138380595Y-96119166D01*
X138380601Y-96119173D01*
X138555826Y-96294398D01*
X138555832Y-96294403D01*
X138752441Y-96445266D01*
X138752448Y-96445270D01*
X138967051Y-96569172D01*
X138967056Y-96569174D01*
X138967059Y-96569176D01*
X138967063Y-96569177D01*
X138967068Y-96569180D01*
X139196007Y-96664009D01*
X139196009Y-96664009D01*
X139196015Y-96664012D01*
X139435390Y-96728153D01*
X139681090Y-96760500D01*
X139681097Y-96760500D01*
X139928903Y-96760500D01*
X139928910Y-96760500D01*
X140174610Y-96728153D01*
X140413985Y-96664012D01*
X140642941Y-96569176D01*
X140857559Y-96445266D01*
X141054168Y-96294403D01*
X141229403Y-96119168D01*
X141380266Y-95922559D01*
X141504176Y-95707941D01*
X141599012Y-95478985D01*
X141663153Y-95239610D01*
X141695500Y-94993910D01*
X141695500Y-94746090D01*
X141663153Y-94500390D01*
X141599012Y-94261015D01*
X141597677Y-94257793D01*
X141504180Y-94032068D01*
X141504172Y-94032051D01*
X141380270Y-93817448D01*
X141380266Y-93817441D01*
X141229403Y-93620832D01*
X141229398Y-93620826D01*
X141054173Y-93445601D01*
X141054166Y-93445595D01*
X140857567Y-93294740D01*
X140857565Y-93294738D01*
X140857559Y-93294734D01*
X140857554Y-93294731D01*
X140857551Y-93294729D01*
X140642948Y-93170827D01*
X140642931Y-93170819D01*
X140413992Y-93075990D01*
X140294306Y-93043920D01*
X140174610Y-93011847D01*
X140174609Y-93011846D01*
X140174606Y-93011846D01*
X139928919Y-92979501D01*
X139928916Y-92979500D01*
X139928910Y-92979500D01*
X139681090Y-92979500D01*
X139681084Y-92979500D01*
X139681080Y-92979501D01*
X139435393Y-93011846D01*
X139196007Y-93075990D01*
X138967068Y-93170819D01*
X138967051Y-93170827D01*
X138752448Y-93294729D01*
X138752432Y-93294740D01*
X138555833Y-93445595D01*
X138555826Y-93445601D01*
X138380601Y-93620826D01*
X138380595Y-93620833D01*
X138229740Y-93817432D01*
X138229729Y-93817448D01*
X138105827Y-94032051D01*
X138105819Y-94032068D01*
X138010990Y-94261007D01*
X137946846Y-94500393D01*
X137914501Y-94746080D01*
X137914500Y-94746096D01*
X132150500Y-94746096D01*
X132150500Y-94745435D01*
X132117982Y-94498435D01*
X132053502Y-94257793D01*
X131960000Y-94032059D01*
X131958169Y-94027638D01*
X131958162Y-94027623D01*
X131833599Y-93811873D01*
X131681939Y-93614225D01*
X131681933Y-93614218D01*
X131505781Y-93438066D01*
X131505774Y-93438060D01*
X131308126Y-93286400D01*
X131092376Y-93161837D01*
X131092361Y-93161830D01*
X130862207Y-93066498D01*
X130777945Y-93043920D01*
X130621565Y-93002018D01*
X130621564Y-93002017D01*
X130621561Y-93002017D01*
X130374575Y-92969501D01*
X130374570Y-92969500D01*
X130374565Y-92969500D01*
X130125435Y-92969500D01*
X130125429Y-92969500D01*
X130125424Y-92969501D01*
X129878438Y-93002017D01*
X129637792Y-93066498D01*
X129407638Y-93161830D01*
X129407623Y-93161837D01*
X129191873Y-93286400D01*
X128994225Y-93438060D01*
X128994218Y-93438066D01*
X128818066Y-93614218D01*
X128818060Y-93614225D01*
X128666400Y-93811873D01*
X128541837Y-94027623D01*
X128541830Y-94027638D01*
X128446498Y-94257792D01*
X128382017Y-94498438D01*
X128349501Y-94745424D01*
X128349500Y-94745441D01*
X94006500Y-94745441D01*
X94006500Y-94625006D01*
X94006500Y-92127801D01*
X94000191Y-92096086D01*
X93979580Y-91992466D01*
X93956905Y-91937725D01*
X93954830Y-91930077D01*
X93955029Y-91920367D01*
X93950500Y-91897596D01*
X93950500Y-91593979D01*
X93970185Y-91526940D01*
X94022989Y-91481185D01*
X94026979Y-91479446D01*
X94157746Y-91425282D01*
X94288856Y-91337677D01*
X94400356Y-91226177D01*
X94409201Y-91212938D01*
X94430038Y-91181756D01*
X94430038Y-91181755D01*
X94487957Y-91095073D01*
X94487957Y-91095072D01*
X94487961Y-91095067D01*
X94548304Y-90949385D01*
X94579067Y-90794730D01*
X94579067Y-90658466D01*
X94598752Y-90591427D01*
X94651556Y-90545672D01*
X94703067Y-90534466D01*
X94979366Y-90534466D01*
X94986973Y-90534466D01*
X94986977Y-90534467D01*
X95078345Y-90534467D01*
X95102534Y-90536849D01*
X95115209Y-90539371D01*
X95171156Y-90550500D01*
X95171158Y-90550500D01*
X95328844Y-90550500D01*
X95328845Y-90550499D01*
X95483497Y-90519737D01*
X95629179Y-90459394D01*
X95760289Y-90371789D01*
X95871789Y-90260289D01*
X95959394Y-90129179D01*
X96019737Y-89983497D01*
X96044863Y-89857182D01*
X96050638Y-89828150D01*
X96083023Y-89766239D01*
X96084517Y-89764717D01*
X97330520Y-88518716D01*
X97330520Y-88518715D01*
X97336267Y-88512969D01*
X97337266Y-88513968D01*
X97386632Y-88477918D01*
X97456378Y-88473760D01*
X97516267Y-88506924D01*
X98953928Y-89944585D01*
X98980808Y-89984814D01*
X99040602Y-90129172D01*
X99040609Y-90129185D01*
X99128210Y-90260288D01*
X99128213Y-90260292D01*
X99239707Y-90371786D01*
X99239711Y-90371789D01*
X99370814Y-90459390D01*
X99370827Y-90459397D01*
X99423726Y-90481308D01*
X99516503Y-90519737D01*
X99671153Y-90550499D01*
X99671156Y-90550500D01*
X99671158Y-90550500D01*
X99828844Y-90550500D01*
X99828845Y-90550499D01*
X99983497Y-90519737D01*
X100129179Y-90459394D01*
X100260289Y-90371789D01*
X100371789Y-90260289D01*
X100459394Y-90129179D01*
X100519737Y-89983497D01*
X100550500Y-89828842D01*
X100550500Y-89671158D01*
X100549368Y-89665466D01*
X128350000Y-89665466D01*
X128350000Y-89914533D01*
X128382508Y-90161463D01*
X128446973Y-90402049D01*
X128542283Y-90632148D01*
X128542288Y-90632159D01*
X128666813Y-90847841D01*
X128666819Y-90847849D01*
X128741400Y-90945045D01*
X129477546Y-90208899D01*
X129570343Y-90347780D01*
X129692220Y-90469657D01*
X129831099Y-90562453D01*
X129094953Y-91298598D01*
X129192150Y-91373180D01*
X129192158Y-91373186D01*
X129407840Y-91497711D01*
X129407851Y-91497716D01*
X129637950Y-91593026D01*
X129878536Y-91657491D01*
X130125466Y-91690000D01*
X130374534Y-91690000D01*
X130621463Y-91657491D01*
X130862049Y-91593026D01*
X131092148Y-91497716D01*
X131092159Y-91497711D01*
X131307855Y-91373178D01*
X131405045Y-91298600D01*
X131405045Y-91298597D01*
X130668900Y-90562453D01*
X130807780Y-90469657D01*
X130929657Y-90347780D01*
X131022452Y-90208900D01*
X131758597Y-90945045D01*
X131758600Y-90945045D01*
X131833178Y-90847855D01*
X131957711Y-90632159D01*
X131957716Y-90632148D01*
X132053026Y-90402049D01*
X132117491Y-90161463D01*
X132150000Y-89914533D01*
X132150000Y-89666115D01*
X137915000Y-89666115D01*
X137915000Y-89913884D01*
X137947338Y-90159503D01*
X137947340Y-90159514D01*
X138011460Y-90398817D01*
X138011465Y-90398831D01*
X138106271Y-90627712D01*
X138106275Y-90627722D01*
X138230144Y-90842271D01*
X138230149Y-90842278D01*
X138303532Y-90937913D01*
X139021732Y-90219713D01*
X139113692Y-90357342D01*
X139237658Y-90481308D01*
X139375285Y-90573266D01*
X138657085Y-91291466D01*
X138657085Y-91291467D01*
X138752719Y-91364849D01*
X138967277Y-91488724D01*
X138967287Y-91488728D01*
X139196168Y-91583534D01*
X139196182Y-91583539D01*
X139435485Y-91647659D01*
X139435496Y-91647661D01*
X139681115Y-91679999D01*
X139681130Y-91680000D01*
X139928870Y-91680000D01*
X139928884Y-91679999D01*
X140174503Y-91647661D01*
X140174514Y-91647659D01*
X140413817Y-91583539D01*
X140413831Y-91583534D01*
X140642712Y-91488728D01*
X140642722Y-91488724D01*
X140857276Y-91364852D01*
X140952913Y-91291466D01*
X140234714Y-90573267D01*
X140372342Y-90481308D01*
X140496308Y-90357342D01*
X140588267Y-90219714D01*
X141306466Y-90937913D01*
X141379852Y-90842276D01*
X141503724Y-90627722D01*
X141503728Y-90627712D01*
X141598534Y-90398831D01*
X141598539Y-90398817D01*
X141662659Y-90159514D01*
X141662661Y-90159503D01*
X141694999Y-89913884D01*
X141695000Y-89913870D01*
X141695000Y-89666129D01*
X141694999Y-89666115D01*
X141662661Y-89420496D01*
X141662659Y-89420485D01*
X141598539Y-89181182D01*
X141598534Y-89181168D01*
X141503728Y-88952287D01*
X141503724Y-88952277D01*
X141379849Y-88737719D01*
X141306467Y-88642085D01*
X141306466Y-88642085D01*
X140588266Y-89360284D01*
X140496308Y-89222658D01*
X140372342Y-89098692D01*
X140234713Y-89006731D01*
X140952913Y-88288532D01*
X140952913Y-88288531D01*
X140857278Y-88215149D01*
X140857271Y-88215144D01*
X140642722Y-88091275D01*
X140642712Y-88091271D01*
X140413831Y-87996465D01*
X140413817Y-87996460D01*
X140174514Y-87932340D01*
X140174503Y-87932338D01*
X139928884Y-87900000D01*
X139681115Y-87900000D01*
X139435496Y-87932338D01*
X139435485Y-87932340D01*
X139196182Y-87996460D01*
X139196168Y-87996465D01*
X138967287Y-88091271D01*
X138967277Y-88091275D01*
X138752726Y-88215146D01*
X138752710Y-88215156D01*
X138657085Y-88288531D01*
X138657085Y-88288532D01*
X139375285Y-89006732D01*
X139237658Y-89098692D01*
X139113692Y-89222658D01*
X139021732Y-89360285D01*
X138303532Y-88642085D01*
X138303531Y-88642085D01*
X138230156Y-88737710D01*
X138230146Y-88737726D01*
X138106275Y-88952277D01*
X138106271Y-88952287D01*
X138011465Y-89181168D01*
X138011460Y-89181182D01*
X137947340Y-89420485D01*
X137947338Y-89420496D01*
X137915000Y-89666115D01*
X132150000Y-89666115D01*
X132150000Y-89665466D01*
X132117491Y-89418536D01*
X132053026Y-89177950D01*
X131957716Y-88947851D01*
X131957711Y-88947840D01*
X131833186Y-88732158D01*
X131833180Y-88732150D01*
X131758598Y-88634953D01*
X131022452Y-89371098D01*
X130929657Y-89232220D01*
X130807780Y-89110343D01*
X130668899Y-89017545D01*
X131405045Y-88281400D01*
X131307849Y-88206819D01*
X131307841Y-88206813D01*
X131092159Y-88082288D01*
X131092148Y-88082283D01*
X130862049Y-87986973D01*
X130621463Y-87922508D01*
X130374534Y-87890000D01*
X130125466Y-87890000D01*
X129878536Y-87922508D01*
X129637950Y-87986973D01*
X129407851Y-88082283D01*
X129407847Y-88082285D01*
X129192143Y-88206823D01*
X129094953Y-88281399D01*
X129094953Y-88281400D01*
X129831099Y-89017546D01*
X129692220Y-89110343D01*
X129570343Y-89232220D01*
X129477546Y-89371099D01*
X128741400Y-88634953D01*
X128741399Y-88634953D01*
X128666823Y-88732143D01*
X128542285Y-88947847D01*
X128542283Y-88947851D01*
X128446973Y-89177950D01*
X128382508Y-89418536D01*
X128350000Y-89665466D01*
X100549368Y-89665466D01*
X100519737Y-89516503D01*
X100482142Y-89425740D01*
X100459397Y-89370827D01*
X100459390Y-89370814D01*
X100371789Y-89239711D01*
X100371786Y-89239707D01*
X100260292Y-89128213D01*
X100260288Y-89128210D01*
X100129185Y-89040609D01*
X100129172Y-89040602D01*
X99984814Y-88980808D01*
X99944585Y-88953928D01*
X98236819Y-87246162D01*
X98222115Y-87219234D01*
X98205523Y-87193416D01*
X98204631Y-87187215D01*
X98203334Y-87184839D01*
X98200500Y-87158481D01*
X98200500Y-86925316D01*
X98209939Y-86877864D01*
X98238478Y-86808963D01*
X98269737Y-86733497D01*
X98300500Y-86578842D01*
X98300500Y-86421158D01*
X98300500Y-86421155D01*
X98300499Y-86421153D01*
X98299745Y-86417362D01*
X98269737Y-86266503D01*
X98249895Y-86218600D01*
X98249687Y-86218097D01*
X98249686Y-86218096D01*
X98246940Y-86211467D01*
X98213327Y-86130316D01*
X98209395Y-86120823D01*
X98209390Y-86120814D01*
X98121789Y-85989711D01*
X98121786Y-85989707D01*
X98010289Y-85878210D01*
X97905609Y-85808266D01*
X97860804Y-85754654D01*
X97850500Y-85705164D01*
X97850500Y-81035022D01*
X97870185Y-80967983D01*
X97886817Y-80947341D01*
X97918716Y-80915444D01*
X98030520Y-80803640D01*
X98078075Y-80721272D01*
X98109576Y-80666710D01*
X98109577Y-80666707D01*
X98117281Y-80637955D01*
X98150501Y-80513980D01*
X98150501Y-80355865D01*
X98150501Y-80348270D01*
X98150500Y-80348252D01*
X98150500Y-79300575D01*
X98150500Y-79290580D01*
X98150501Y-79290579D01*
X98150501Y-79280027D01*
X98152884Y-79255845D01*
X98179944Y-79119809D01*
X98179944Y-78962120D01*
X98179943Y-78962118D01*
X98169327Y-78908749D01*
X98149181Y-78807468D01*
X98149179Y-78807463D01*
X98088841Y-78661792D01*
X98088834Y-78661779D01*
X98001233Y-78530676D01*
X98001230Y-78530672D01*
X97889736Y-78419178D01*
X97889732Y-78419175D01*
X97758629Y-78331574D01*
X97758616Y-78331567D01*
X97612945Y-78271229D01*
X97612933Y-78271226D01*
X97458289Y-78240465D01*
X97458286Y-78240465D01*
X97427839Y-78240465D01*
X97360800Y-78220780D01*
X97324737Y-78185356D01*
X97297738Y-78144949D01*
X97297736Y-78144946D01*
X97186241Y-78033451D01*
X97186237Y-78033448D01*
X97055134Y-77945847D01*
X97055121Y-77945840D01*
X96909450Y-77885502D01*
X96909438Y-77885499D01*
X96754794Y-77854738D01*
X96754791Y-77854738D01*
X96597107Y-77854738D01*
X96597104Y-77854738D01*
X96442459Y-77885499D01*
X96442447Y-77885502D01*
X96296776Y-77945840D01*
X96296763Y-77945847D01*
X96165660Y-78033448D01*
X96165656Y-78033451D01*
X96054162Y-78144945D01*
X96054159Y-78144949D01*
X95966558Y-78276052D01*
X95966555Y-78276059D01*
X95937619Y-78345915D01*
X95893777Y-78400318D01*
X95827483Y-78422382D01*
X95759783Y-78405102D01*
X95735377Y-78386142D01*
X95058870Y-77709635D01*
X102519500Y-77709635D01*
X102519500Y-79710370D01*
X102519501Y-79710376D01*
X102525908Y-79769983D01*
X102576202Y-79904828D01*
X102576206Y-79904835D01*
X102662452Y-80020044D01*
X102662455Y-80020047D01*
X102777664Y-80106293D01*
X102777667Y-80106295D01*
X102777668Y-80106295D01*
X102777669Y-80106296D01*
X102806025Y-80116872D01*
X102861958Y-80158742D01*
X102886376Y-80224206D01*
X102871525Y-80292479D01*
X102863010Y-80305939D01*
X102730213Y-80488719D01*
X102626417Y-80692429D01*
X102555765Y-80909871D01*
X102541491Y-81000000D01*
X103529252Y-81000000D01*
X103507482Y-81037708D01*
X103470000Y-81177591D01*
X103470000Y-81322409D01*
X103507482Y-81462292D01*
X103529252Y-81500000D01*
X102541491Y-81500000D01*
X102555765Y-81590128D01*
X102626417Y-81807570D01*
X102730211Y-82011276D01*
X102864597Y-82196242D01*
X103026257Y-82357902D01*
X103026263Y-82357907D01*
X103110863Y-82419372D01*
X103153529Y-82474701D01*
X103159508Y-82544315D01*
X103126903Y-82606110D01*
X103110864Y-82620007D01*
X103025940Y-82681709D01*
X103025931Y-82681716D01*
X102864216Y-82843431D01*
X102864216Y-82843432D01*
X102864214Y-82843434D01*
X102843068Y-82872539D01*
X102729783Y-83028461D01*
X102625950Y-83232244D01*
X102555278Y-83449750D01*
X102555278Y-83449753D01*
X102519500Y-83675646D01*
X102519500Y-83904353D01*
X102555278Y-84130246D01*
X102555278Y-84130249D01*
X102625950Y-84347755D01*
X102654561Y-84403907D01*
X102729783Y-84551538D01*
X102864214Y-84736566D01*
X103025934Y-84898286D01*
X103210962Y-85032717D01*
X103306632Y-85081463D01*
X103414744Y-85136549D01*
X103632251Y-85207221D01*
X103632252Y-85207221D01*
X103632255Y-85207222D01*
X103858146Y-85243000D01*
X103858147Y-85243000D01*
X104181853Y-85243000D01*
X104181854Y-85243000D01*
X104407745Y-85207222D01*
X104407748Y-85207221D01*
X104407749Y-85207221D01*
X104625255Y-85136549D01*
X104625255Y-85136548D01*
X104625258Y-85136548D01*
X104829038Y-85032717D01*
X105014066Y-84898286D01*
X105175786Y-84736566D01*
X105285567Y-84585466D01*
X128350000Y-84585466D01*
X128350000Y-84834533D01*
X128382508Y-85081463D01*
X128446973Y-85322049D01*
X128542283Y-85552148D01*
X128542288Y-85552159D01*
X128666813Y-85767841D01*
X128666819Y-85767849D01*
X128741400Y-85865045D01*
X129477546Y-85128899D01*
X129570343Y-85267780D01*
X129692220Y-85389657D01*
X129831099Y-85482453D01*
X129094953Y-86218598D01*
X129192150Y-86293180D01*
X129192158Y-86293186D01*
X129407840Y-86417711D01*
X129407851Y-86417716D01*
X129637950Y-86513026D01*
X129878536Y-86577491D01*
X130125466Y-86610000D01*
X130374534Y-86610000D01*
X130621463Y-86577491D01*
X130862049Y-86513026D01*
X131092148Y-86417716D01*
X131092159Y-86417711D01*
X131307855Y-86293178D01*
X131405045Y-86218600D01*
X131405045Y-86218597D01*
X130668900Y-85482453D01*
X130807780Y-85389657D01*
X130929657Y-85267780D01*
X131022452Y-85128900D01*
X131758597Y-85865045D01*
X131758600Y-85865045D01*
X131833178Y-85767855D01*
X131957711Y-85552159D01*
X131957716Y-85552148D01*
X132053026Y-85322049D01*
X132117491Y-85081463D01*
X132150000Y-84834533D01*
X132150000Y-84586115D01*
X137915000Y-84586115D01*
X137915000Y-84833884D01*
X137947338Y-85079503D01*
X137947340Y-85079514D01*
X138011460Y-85318817D01*
X138011465Y-85318831D01*
X138106271Y-85547712D01*
X138106275Y-85547722D01*
X138230144Y-85762271D01*
X138230149Y-85762278D01*
X138303532Y-85857913D01*
X139021732Y-85139713D01*
X139113692Y-85277342D01*
X139237658Y-85401308D01*
X139375285Y-85493266D01*
X138657085Y-86211466D01*
X138657085Y-86211467D01*
X138752719Y-86284849D01*
X138967277Y-86408724D01*
X138967287Y-86408728D01*
X139196168Y-86503534D01*
X139196182Y-86503539D01*
X139435485Y-86567659D01*
X139435496Y-86567661D01*
X139681115Y-86599999D01*
X139681130Y-86600000D01*
X139928870Y-86600000D01*
X139928884Y-86599999D01*
X140174503Y-86567661D01*
X140174514Y-86567659D01*
X140413817Y-86503539D01*
X140413831Y-86503534D01*
X140642712Y-86408728D01*
X140642722Y-86408724D01*
X140857276Y-86284852D01*
X140952913Y-86211466D01*
X140234714Y-85493267D01*
X140372342Y-85401308D01*
X140496308Y-85277342D01*
X140588267Y-85139714D01*
X141306466Y-85857913D01*
X141379852Y-85762276D01*
X141503724Y-85547722D01*
X141503728Y-85547712D01*
X141598534Y-85318831D01*
X141598539Y-85318817D01*
X141662659Y-85079514D01*
X141662661Y-85079503D01*
X141694999Y-84833884D01*
X141695000Y-84833870D01*
X141695000Y-84586129D01*
X141694999Y-84586115D01*
X141662661Y-84340496D01*
X141662659Y-84340485D01*
X141598539Y-84101182D01*
X141598534Y-84101168D01*
X141503728Y-83872287D01*
X141503724Y-83872277D01*
X141379849Y-83657719D01*
X141306467Y-83562085D01*
X141306466Y-83562085D01*
X140588266Y-84280284D01*
X140496308Y-84142658D01*
X140372342Y-84018692D01*
X140234713Y-83926731D01*
X140952913Y-83208532D01*
X140952913Y-83208531D01*
X140857278Y-83135149D01*
X140857271Y-83135144D01*
X140642722Y-83011275D01*
X140642712Y-83011271D01*
X140413831Y-82916465D01*
X140413817Y-82916460D01*
X140174514Y-82852340D01*
X140174503Y-82852338D01*
X139928884Y-82820000D01*
X139681115Y-82820000D01*
X139435496Y-82852338D01*
X139435485Y-82852340D01*
X139196182Y-82916460D01*
X139196168Y-82916465D01*
X138967287Y-83011271D01*
X138967277Y-83011275D01*
X138752726Y-83135146D01*
X138752710Y-83135156D01*
X138657085Y-83208531D01*
X138657085Y-83208532D01*
X139375285Y-83926732D01*
X139237658Y-84018692D01*
X139113692Y-84142658D01*
X139021732Y-84280285D01*
X138303532Y-83562085D01*
X138303531Y-83562085D01*
X138230156Y-83657710D01*
X138230146Y-83657726D01*
X138106275Y-83872277D01*
X138106271Y-83872287D01*
X138011465Y-84101168D01*
X138011460Y-84101182D01*
X137947340Y-84340485D01*
X137947338Y-84340496D01*
X137915000Y-84586115D01*
X132150000Y-84586115D01*
X132150000Y-84585466D01*
X132117491Y-84338536D01*
X132053026Y-84097950D01*
X131957716Y-83867851D01*
X131957711Y-83867840D01*
X131833186Y-83652158D01*
X131833180Y-83652150D01*
X131758598Y-83554953D01*
X131022452Y-84291098D01*
X130929657Y-84152220D01*
X130807780Y-84030343D01*
X130668899Y-83937545D01*
X131405045Y-83201400D01*
X131307849Y-83126819D01*
X131307841Y-83126813D01*
X131092159Y-83002288D01*
X131092148Y-83002283D01*
X130862049Y-82906973D01*
X130621463Y-82842508D01*
X130374534Y-82810000D01*
X130125466Y-82810000D01*
X129878536Y-82842508D01*
X129637950Y-82906973D01*
X129407851Y-83002283D01*
X129407847Y-83002285D01*
X129192143Y-83126823D01*
X129094953Y-83201399D01*
X129094953Y-83201400D01*
X129831099Y-83937546D01*
X129692220Y-84030343D01*
X129570343Y-84152220D01*
X129477546Y-84291099D01*
X128741400Y-83554953D01*
X128741399Y-83554953D01*
X128666823Y-83652143D01*
X128542285Y-83867847D01*
X128542283Y-83867851D01*
X128446973Y-84097950D01*
X128382508Y-84338536D01*
X128350000Y-84585466D01*
X105285567Y-84585466D01*
X105310217Y-84551538D01*
X105414048Y-84347758D01*
X105433326Y-84288427D01*
X105484721Y-84130249D01*
X105484721Y-84130248D01*
X105484722Y-84130245D01*
X105520500Y-83904354D01*
X105520500Y-83675646D01*
X105484722Y-83449755D01*
X105484721Y-83449751D01*
X105484721Y-83449750D01*
X105414049Y-83232244D01*
X105364580Y-83135156D01*
X105310217Y-83028462D01*
X105175786Y-82843434D01*
X105014066Y-82681714D01*
X104929134Y-82620007D01*
X104886470Y-82564678D01*
X104880491Y-82495064D01*
X104913097Y-82433269D01*
X104929137Y-82419371D01*
X105013739Y-82357905D01*
X105175402Y-82196242D01*
X105309788Y-82011276D01*
X105413582Y-81807570D01*
X105484234Y-81590128D01*
X105498509Y-81500000D01*
X104510748Y-81500000D01*
X104532518Y-81462292D01*
X104570000Y-81322409D01*
X104570000Y-81177591D01*
X104554266Y-81118872D01*
X118679500Y-81118872D01*
X118679500Y-81381127D01*
X118699167Y-81530500D01*
X118713730Y-81641116D01*
X118756303Y-81800000D01*
X118781602Y-81894418D01*
X118781605Y-81894428D01*
X118881953Y-82136690D01*
X118881958Y-82136700D01*
X119013075Y-82363803D01*
X119172718Y-82571851D01*
X119172726Y-82571860D01*
X119358140Y-82757274D01*
X119358148Y-82757281D01*
X119566196Y-82916924D01*
X119793299Y-83048041D01*
X119793309Y-83048046D01*
X120003595Y-83135149D01*
X120035581Y-83148398D01*
X120288884Y-83216270D01*
X120548880Y-83250500D01*
X120548887Y-83250500D01*
X120811113Y-83250500D01*
X120811120Y-83250500D01*
X121071116Y-83216270D01*
X121324419Y-83148398D01*
X121566697Y-83048043D01*
X121793803Y-82916924D01*
X122001851Y-82757282D01*
X122001855Y-82757277D01*
X122001860Y-82757274D01*
X122187274Y-82571860D01*
X122187277Y-82571855D01*
X122187282Y-82571851D01*
X122346924Y-82363803D01*
X122478043Y-82136697D01*
X122578398Y-81894419D01*
X122646270Y-81641116D01*
X122680500Y-81381120D01*
X122680500Y-81118880D01*
X122646270Y-80858884D01*
X122578398Y-80605581D01*
X122538927Y-80510289D01*
X122478046Y-80363309D01*
X122478041Y-80363299D01*
X122346924Y-80136196D01*
X122187281Y-79928148D01*
X122187274Y-79928140D01*
X122001860Y-79742726D01*
X122001851Y-79742718D01*
X121793803Y-79583075D01*
X121566700Y-79451958D01*
X121566690Y-79451953D01*
X121324428Y-79351605D01*
X121324421Y-79351603D01*
X121324419Y-79351602D01*
X121071116Y-79283730D01*
X121013339Y-79276123D01*
X120811127Y-79249500D01*
X120811120Y-79249500D01*
X120548880Y-79249500D01*
X120548872Y-79249500D01*
X120317772Y-79279926D01*
X120288884Y-79283730D01*
X120035581Y-79351602D01*
X120035571Y-79351605D01*
X119793309Y-79451953D01*
X119793299Y-79451958D01*
X119566196Y-79583075D01*
X119358148Y-79742718D01*
X119172718Y-79928148D01*
X119013075Y-80136196D01*
X118881958Y-80363299D01*
X118881953Y-80363309D01*
X118781605Y-80605571D01*
X118781602Y-80605581D01*
X118728534Y-80803637D01*
X118713730Y-80858885D01*
X118679500Y-81118872D01*
X104554266Y-81118872D01*
X104532518Y-81037708D01*
X104510748Y-81000000D01*
X105498509Y-81000000D01*
X105498509Y-80999999D01*
X105484234Y-80909871D01*
X105413582Y-80692429D01*
X105309788Y-80488723D01*
X105176988Y-80305940D01*
X105153508Y-80240133D01*
X105169333Y-80172079D01*
X105219439Y-80123384D01*
X105233966Y-80116875D01*
X105262331Y-80106296D01*
X105377546Y-80020046D01*
X105463796Y-79904831D01*
X105514091Y-79769983D01*
X105520500Y-79710373D01*
X105520499Y-78182135D01*
X128349500Y-78182135D01*
X128349500Y-81077870D01*
X128349501Y-81077876D01*
X128355908Y-81137483D01*
X128406202Y-81272328D01*
X128406206Y-81272335D01*
X128492452Y-81387544D01*
X128492455Y-81387547D01*
X128607664Y-81473793D01*
X128607671Y-81473797D01*
X128742517Y-81524091D01*
X128742516Y-81524091D01*
X128749444Y-81524835D01*
X128802127Y-81530500D01*
X131697872Y-81530499D01*
X131757483Y-81524091D01*
X131892331Y-81473796D01*
X132007546Y-81387546D01*
X132093796Y-81272331D01*
X132144091Y-81137483D01*
X132150500Y-81077873D01*
X132150499Y-78192135D01*
X137914500Y-78192135D01*
X137914500Y-81067870D01*
X137914501Y-81067876D01*
X137920908Y-81127483D01*
X137971202Y-81262328D01*
X137971206Y-81262335D01*
X138057452Y-81377544D01*
X138057455Y-81377547D01*
X138172664Y-81463793D01*
X138172671Y-81463797D01*
X138307517Y-81514091D01*
X138307516Y-81514091D01*
X138314444Y-81514835D01*
X138367127Y-81520500D01*
X141242872Y-81520499D01*
X141302483Y-81514091D01*
X141437331Y-81463796D01*
X141552546Y-81377546D01*
X141638796Y-81262331D01*
X141689091Y-81127483D01*
X141695500Y-81067873D01*
X141695499Y-78192128D01*
X141689091Y-78132517D01*
X141685361Y-78122517D01*
X141638797Y-77997671D01*
X141638793Y-77997664D01*
X141552547Y-77882455D01*
X141552544Y-77882452D01*
X141437335Y-77796206D01*
X141437328Y-77796202D01*
X141302482Y-77745908D01*
X141302483Y-77745908D01*
X141242883Y-77739501D01*
X141242881Y-77739500D01*
X141242873Y-77739500D01*
X141242864Y-77739500D01*
X138367129Y-77739500D01*
X138367123Y-77739501D01*
X138307516Y-77745908D01*
X138172671Y-77796202D01*
X138172664Y-77796206D01*
X138057455Y-77882452D01*
X138057452Y-77882455D01*
X137971206Y-77997664D01*
X137971202Y-77997671D01*
X137920908Y-78132517D01*
X137915206Y-78185562D01*
X137914501Y-78192123D01*
X137914500Y-78192135D01*
X132150499Y-78192135D01*
X132150499Y-78182128D01*
X132144091Y-78122517D01*
X132113269Y-78039880D01*
X132093797Y-77987671D01*
X132093793Y-77987664D01*
X132007547Y-77872455D01*
X132007544Y-77872452D01*
X131892335Y-77786206D01*
X131892328Y-77786202D01*
X131757482Y-77735908D01*
X131757483Y-77735908D01*
X131697883Y-77729501D01*
X131697881Y-77729500D01*
X131697873Y-77729500D01*
X131697864Y-77729500D01*
X128802129Y-77729500D01*
X128802123Y-77729501D01*
X128742516Y-77735908D01*
X128607671Y-77786202D01*
X128607664Y-77786206D01*
X128492455Y-77872452D01*
X128492452Y-77872455D01*
X128406206Y-77987664D01*
X128406202Y-77987671D01*
X128355908Y-78122517D01*
X128353497Y-78144949D01*
X128349501Y-78182123D01*
X128349500Y-78182135D01*
X105520499Y-78182135D01*
X105520499Y-77709628D01*
X105514091Y-77650017D01*
X105463796Y-77515169D01*
X105463795Y-77515168D01*
X105463793Y-77515164D01*
X105377547Y-77399955D01*
X105377544Y-77399952D01*
X105262335Y-77313706D01*
X105262328Y-77313702D01*
X105127482Y-77263408D01*
X105127483Y-77263408D01*
X105067883Y-77257001D01*
X105067881Y-77257000D01*
X105067873Y-77257000D01*
X105067864Y-77257000D01*
X102972129Y-77257000D01*
X102972123Y-77257001D01*
X102912516Y-77263408D01*
X102777671Y-77313702D01*
X102777664Y-77313706D01*
X102662455Y-77399952D01*
X102662452Y-77399955D01*
X102576206Y-77515164D01*
X102576202Y-77515171D01*
X102525908Y-77650017D01*
X102521989Y-77686473D01*
X102519501Y-77709623D01*
X102519500Y-77709635D01*
X95058870Y-77709635D01*
X93987590Y-76638355D01*
X93987588Y-76638352D01*
X93868717Y-76519481D01*
X93868716Y-76519480D01*
X93781904Y-76469360D01*
X93781904Y-76469359D01*
X93781900Y-76469358D01*
X93731785Y-76440423D01*
X93579057Y-76399499D01*
X93420943Y-76399499D01*
X93413347Y-76399499D01*
X93413331Y-76399500D01*
X92829766Y-76399500D01*
X92762727Y-76379815D01*
X92760875Y-76378602D01*
X92629185Y-76290609D01*
X92629172Y-76290602D01*
X92483501Y-76230264D01*
X92483489Y-76230261D01*
X92328845Y-76199500D01*
X92328842Y-76199500D01*
X92171158Y-76199500D01*
X92171155Y-76199500D01*
X92016510Y-76230261D01*
X92016498Y-76230264D01*
X91870827Y-76290602D01*
X91870814Y-76290609D01*
X91739711Y-76378210D01*
X91739707Y-76378213D01*
X91628213Y-76489707D01*
X91628210Y-76489711D01*
X91540609Y-76620814D01*
X91540602Y-76620827D01*
X91480264Y-76766498D01*
X91480261Y-76766510D01*
X91449500Y-76921153D01*
X91449500Y-77078846D01*
X91480261Y-77233489D01*
X91480264Y-77233501D01*
X91540602Y-77379172D01*
X91540609Y-77379185D01*
X91628209Y-77510287D01*
X91628210Y-77510288D01*
X91628211Y-77510289D01*
X91692526Y-77574604D01*
X91726010Y-77635925D01*
X91726462Y-77686473D01*
X91718294Y-77727540D01*
X91718294Y-77885229D01*
X91749055Y-78039872D01*
X91749058Y-78039884D01*
X91809396Y-78185555D01*
X91809403Y-78185568D01*
X91897004Y-78316671D01*
X91897007Y-78316675D01*
X92008501Y-78428169D01*
X92008505Y-78428172D01*
X92139608Y-78515773D01*
X92139621Y-78515780D01*
X92283979Y-78575574D01*
X92324208Y-78602454D01*
X92569181Y-78847426D01*
X92602666Y-78908749D01*
X92605500Y-78935107D01*
X92605500Y-82805500D01*
X92585815Y-82872539D01*
X92533011Y-82918294D01*
X92481500Y-82929500D01*
X91206457Y-82929500D01*
X91013170Y-82967947D01*
X91013160Y-82967950D01*
X90831092Y-83043364D01*
X90831079Y-83043371D01*
X90667218Y-83152860D01*
X90667214Y-83152863D01*
X90626899Y-83193180D01*
X90565576Y-83226666D01*
X90539217Y-83229500D01*
X88840783Y-83229500D01*
X88773744Y-83209815D01*
X88753101Y-83193180D01*
X88712785Y-83152863D01*
X88712781Y-83152860D01*
X88548920Y-83043371D01*
X88548907Y-83043364D01*
X88366839Y-82967950D01*
X88366829Y-82967947D01*
X88173543Y-82929500D01*
X88173541Y-82929500D01*
X87176459Y-82929500D01*
X87176457Y-82929500D01*
X86983170Y-82967947D01*
X86983160Y-82967950D01*
X86801092Y-83043364D01*
X86801079Y-83043371D01*
X86637218Y-83152860D01*
X86637214Y-83152863D01*
X86497863Y-83292214D01*
X86497860Y-83292218D01*
X86388371Y-83456079D01*
X86388364Y-83456092D01*
X86312950Y-83638160D01*
X86312947Y-83638170D01*
X86274500Y-83831456D01*
X86274500Y-83831459D01*
X86274500Y-84028541D01*
X86274500Y-84028543D01*
X86274499Y-84028543D01*
X86000000Y-84028543D01*
X86000000Y-74124500D01*
X86019685Y-74057461D01*
X86072489Y-74011706D01*
X86124000Y-74000500D01*
X144876000Y-74000500D01*
X144943039Y-74020185D01*
G37*
%TD.AperFunction*%
%TD*%
M02*
