%TF.GenerationSoftware,KiCad,Pcbnew,10.0.5-10.0.5~ubuntu26.04.1*%
%TF.CreationDate,2026-08-19T00:09:19+02:00*%
%TF.ProjectId,usbpd-adapter,75736270-642d-4616-9461-707465722e6b,rev?*%
%TF.SameCoordinates,Original*%
%TF.FileFunction,Copper,L2,Bot*%
%TF.FilePolarity,Positive*%
%FSLAX46Y46*%
G04 Gerber Fmt 4.6, Leading zero omitted, Abs format (unit mm)*
G04 Created by KiCad (PCBNEW 10.0.5-10.0.5~ubuntu26.04.1) date 2026-08-19 00:09:19*
%MOMM*%
%LPD*%
G01*
G04 APERTURE LIST*
G04 Aperture macros list*
%AMRoundRect*
0 Rectangle with rounded corners*
0 $1 Rounding radius*
0 $2 $3 $4 $5 $6 $7 $8 $9 X,Y pos of 4 corners*
0 Add a 4 corners polygon primitive as box body*
4,1,4,$2,$3,$4,$5,$6,$7,$8,$9,$2,$3,0*
0 Add four circle primitives for the rounded corners*
1,1,$1+$1,$2,$3*
1,1,$1+$1,$4,$5*
1,1,$1+$1,$6,$7*
1,1,$1+$1,$8,$9*
0 Add four rect primitives between the rounded corners*
20,1,$1+$1,$2,$3,$4,$5,0*
20,1,$1+$1,$4,$5,$6,$7,0*
20,1,$1+$1,$6,$7,$8,$9,0*
20,1,$1+$1,$8,$9,$2,$3,0*%
G04 Aperture macros list end*
%TA.AperFunction,ComponentPad*%
%ADD10RoundRect,0.250001X0.949999X-0.949999X0.949999X0.949999X-0.949999X0.949999X-0.949999X-0.949999X0*%
%TD*%
%TA.AperFunction,ComponentPad*%
%ADD11C,2.400000*%
%TD*%
%TA.AperFunction,ComponentPad*%
%ADD12C,0.600000*%
%TD*%
%TA.AperFunction,SMDPad,CuDef*%
%ADD13R,2.950000X4.500000*%
%TD*%
%TA.AperFunction,ComponentPad*%
%ADD14R,2.780000X2.780000*%
%TD*%
%TA.AperFunction,ComponentPad*%
%ADD15C,2.780000*%
%TD*%
%TA.AperFunction,ComponentPad*%
%ADD16R,2.800000X2.800000*%
%TD*%
%TA.AperFunction,ComponentPad*%
%ADD17C,2.800000*%
%TD*%
%TA.AperFunction,HeatsinkPad*%
%ADD18O,2.100000X1.000000*%
%TD*%
%TA.AperFunction,HeatsinkPad*%
%ADD19O,1.800000X1.000000*%
%TD*%
%TA.AperFunction,ViaPad*%
%ADD20C,0.600000*%
%TD*%
%TA.AperFunction,ViaPad*%
%ADD21C,0.900000*%
%TD*%
%TA.AperFunction,Conductor*%
%ADD22C,0.200000*%
%TD*%
%TA.AperFunction,Conductor*%
%ADD23C,0.800000*%
%TD*%
%TA.AperFunction,Conductor*%
%ADD24C,0.400000*%
%TD*%
G04 APERTURE END LIST*
D10*
%TO.P,J5,1,Pin_1_1*%
%TO.N,-12V*%
X154042500Y-69630000D03*
D11*
%TO.P,J5,2,Pin_2_2*%
%TO.N,GND*%
X154042500Y-64550000D03*
%TO.P,J5,3,Pin_3_3*%
%TO.N,-5V*%
X154042500Y-59470000D03*
%TD*%
D12*
%TO.P,U4,9,GNDPAD_9*%
%TO.N,/Negative Voltages/-12VP*%
X99850000Y-70800000D03*
X99850000Y-69600000D03*
X99850000Y-68300000D03*
X99850000Y-67200000D03*
D13*
X99250000Y-69000000D03*
D12*
X98650000Y-70800000D03*
X98650000Y-69600000D03*
X98650000Y-68300000D03*
X98650000Y-67200000D03*
%TD*%
D14*
%TO.P,J1,1,Pin_1_1*%
%TO.N,12V*%
X153955000Y-79630000D03*
D15*
%TO.P,J1,2,Pin_2_2*%
%TO.N,GND*%
X153955000Y-84710000D03*
%TO.P,J1,3,Pin_3_3*%
X153955000Y-89790000D03*
%TO.P,J1,4,Pin_4_4*%
%TO.N,5V*%
X153955000Y-94870000D03*
%TD*%
D16*
%TO.P,J2,1,Pin_1_1*%
%TO.N,12V*%
X130250000Y-79630000D03*
D17*
%TO.P,J2,2,Pin_2_2*%
%TO.N,GND*%
X130250000Y-84710000D03*
%TO.P,J2,3,Pin_3_3*%
X130250000Y-89790000D03*
%TO.P,J2,4,Pin_4_4*%
%TO.N,5V*%
X130250000Y-94870000D03*
%TD*%
D18*
%TO.P,J3,S1,SHIELD_S1*%
%TO.N,Net-(J3-SHIELD)*%
X91855000Y-83930000D03*
D19*
X87675000Y-83930000D03*
D18*
X91855000Y-92570000D03*
D19*
X87675000Y-92570000D03*
%TD*%
D20*
%TO.N,Net-(D1-A)*%
X91826179Y-97066390D03*
X101800000Y-90800000D03*
%TO.N,5V*%
X146400000Y-75600000D03*
X143400000Y-72600000D03*
%TO.N,GND*%
X122000000Y-97750000D03*
X92600000Y-79600000D03*
X118000000Y-78000000D03*
X146200000Y-71800000D03*
X141600000Y-68600000D03*
X122000000Y-76000000D03*
X118000000Y-82000000D03*
D21*
X111500000Y-59500000D03*
D20*
X112000000Y-86000000D03*
X95000000Y-83600000D03*
X118000000Y-76000000D03*
X102500000Y-96750000D03*
X104020000Y-81250000D03*
X88750000Y-72750000D03*
X139800000Y-91000000D03*
X141200000Y-64000000D03*
X122000000Y-84000000D03*
X102500000Y-92000000D03*
X139100000Y-86200000D03*
D21*
X121000000Y-69750000D03*
D20*
X116000000Y-76000000D03*
X122000000Y-82000000D03*
X108000000Y-76000000D03*
X97500000Y-58250000D03*
D21*
X126750000Y-58250000D03*
D20*
X116000000Y-86000000D03*
X107250000Y-91000000D03*
X94055000Y-92000000D03*
X94056000Y-84000000D03*
D21*
X114750000Y-69750000D03*
D20*
X114000000Y-76000000D03*
X147150000Y-67000000D03*
X110000000Y-86000000D03*
X112000000Y-76000000D03*
X88000000Y-79250000D03*
X114500000Y-97750000D03*
X147000000Y-93000000D03*
X89400000Y-79250000D03*
X110000000Y-76000000D03*
X122000000Y-80000000D03*
D21*
X112500000Y-67000000D03*
D20*
X95026684Y-81433206D03*
X138200000Y-67400000D03*
X122000000Y-78000000D03*
X118000000Y-86000000D03*
X114000000Y-86000000D03*
X88800000Y-60600000D03*
X107000000Y-57750000D03*
X118000000Y-84000000D03*
X122000000Y-86000000D03*
X133800000Y-60800000D03*
X106200000Y-76000000D03*
D21*
X130250000Y-67000000D03*
D20*
X108000000Y-86000000D03*
X118000000Y-80000000D03*
%TO.N,Net-(D9-K)*%
X91505904Y-98305905D03*
X86050000Y-72501480D03*
%TO.N,-5V*%
X147400000Y-59470000D03*
X140412500Y-59350000D03*
X130600000Y-58400000D03*
%TO.N,Net-(U1-SW)*%
X107500000Y-97750000D03*
X104900000Y-98150000D03*
%TO.N,5VP*%
X92600000Y-63800000D03*
X99600000Y-86400000D03*
%TO.N,12V*%
X146500000Y-86600000D03*
X142100000Y-79000000D03*
%TO.N,Net-(J3-CC2)*%
X93588713Y-76539132D03*
X93440447Y-89936029D03*
X95250000Y-89750000D03*
%TO.N,-12V*%
X141800000Y-69630000D03*
X134200000Y-72200000D03*
X137000000Y-69630000D03*
D21*
%TO.N,Net-(D4-K)*%
X105800000Y-67200000D03*
X105200000Y-72200000D03*
X105500000Y-62500000D03*
D20*
%TO.N,Net-(U4-VSENSE)*%
X112000000Y-71250000D03*
X103250000Y-67250000D03*
%TO.N,Net-(D14-A)*%
X141800000Y-58200000D03*
X138800000Y-58000000D03*
%TO.N,Net-(D9-A)*%
X92542831Y-95917831D03*
X86550000Y-64375495D03*
%TO.N,VBUS*%
X93565006Y-86184994D03*
X91400000Y-74400000D03*
X87200000Y-56400000D03*
X91325000Y-76704017D03*
X87200000Y-74200000D03*
%TO.N,Net-(J3-CC1)*%
X95094669Y-86844669D03*
X93743690Y-77374887D03*
X93319352Y-87000000D03*
%TO.N,Net-(JP1-B)*%
X92600000Y-94800000D03*
X96857911Y-81221044D03*
%TD*%
%TO.N,Net-(D1-A)*%
D22*
X93192831Y-95699738D02*
X98092569Y-90800000D01*
X91826179Y-97066390D02*
X92313511Y-97066390D01*
X93192831Y-96187070D02*
X93192831Y-95699738D01*
X92313511Y-97066390D02*
X93192831Y-96187070D01*
X98092569Y-90800000D02*
X101800000Y-90800000D01*
%TO.N,5V*%
X143400000Y-72600000D02*
X146400000Y-75600000D01*
D23*
X130250000Y-94870000D02*
X153955000Y-94870000D01*
%TO.N,GND*%
X130250000Y-61750000D02*
X130250000Y-67000000D01*
D24*
X102500000Y-96750000D02*
X102500000Y-92000000D01*
D23*
X88750000Y-72750000D02*
X88750000Y-75750000D01*
X127500000Y-69750000D02*
X121000000Y-69750000D01*
X111500000Y-59500000D02*
X111500000Y-66000000D01*
D24*
X102500000Y-82770000D02*
X104020000Y-81250000D01*
D23*
X114750000Y-69750000D02*
X121000000Y-69750000D01*
D24*
X102500000Y-92000000D02*
X102500000Y-82770000D01*
X114000000Y-97250000D02*
X114500000Y-97750000D01*
D23*
X111500000Y-66000000D02*
X112500000Y-67000000D01*
D22*
X139400000Y-68600000D02*
X138200000Y-67400000D01*
X141600000Y-68600000D02*
X139400000Y-68600000D01*
D24*
X114000000Y-91000000D02*
X114000000Y-97250000D01*
D23*
X130250000Y-67000000D02*
X127500000Y-69750000D01*
X126750000Y-58250000D02*
X130250000Y-61750000D01*
D24*
X107250000Y-91000000D02*
X114000000Y-91000000D01*
D23*
X88750000Y-75750000D02*
X92600000Y-79600000D01*
%TO.N,Net-(D9-K)*%
D22*
X89200000Y-96000000D02*
X89007944Y-96000000D01*
X89007944Y-96000000D02*
X86050000Y-93042056D01*
X91505904Y-98305905D02*
X89200000Y-96000000D01*
X86050000Y-93042056D02*
X86050000Y-72501480D01*
%TO.N,Net-(J3-SHIELD)*%
D24*
X87675000Y-83930000D02*
X87675000Y-92570000D01*
X91855000Y-83930000D02*
X87675000Y-83930000D01*
X87675000Y-92570000D02*
X91855000Y-92570000D01*
%TO.N,-5V*%
D23*
X130600000Y-58800000D02*
X131270000Y-59470000D01*
X147400000Y-59470000D02*
X140532500Y-59470000D01*
X131270000Y-59470000D02*
X140292500Y-59470000D01*
X154042500Y-59470000D02*
X147400000Y-59470000D01*
X130600000Y-58400000D02*
X130600000Y-58800000D01*
X140532500Y-59470000D02*
X140412500Y-59350000D01*
X140292500Y-59470000D02*
X140412500Y-59350000D01*
%TO.N,Net-(U1-SW)*%
D24*
X104900000Y-98150000D02*
X105000000Y-98250000D01*
X105000000Y-98250000D02*
X107000000Y-98250000D01*
X107000000Y-98250000D02*
X107500000Y-97750000D01*
%TO.N,5VP*%
D22*
X97475000Y-72075000D02*
X98400000Y-73000000D01*
X92600000Y-63800000D02*
X97475000Y-68675000D01*
X98400000Y-80724809D02*
X98750818Y-81075627D01*
X98750818Y-81075627D02*
X98750818Y-85550818D01*
X97475000Y-68675000D02*
X97475000Y-72075000D01*
X98750818Y-85550818D02*
X99600000Y-86400000D01*
X98400000Y-73000000D02*
X98400000Y-80724809D01*
%TO.N,12V*%
D23*
X142100000Y-79000000D02*
X140600000Y-79000000D01*
D22*
X146500000Y-86600000D02*
X146500000Y-79830000D01*
D23*
X142100000Y-79000000D02*
X142730000Y-79630000D01*
D22*
X146500000Y-79830000D02*
X146300000Y-79630000D01*
D23*
X142730000Y-79630000D02*
X146300000Y-79630000D01*
X139970000Y-79630000D02*
X130250000Y-79630000D01*
X146300000Y-79630000D02*
X153955000Y-79630000D01*
X140600000Y-79000000D02*
X139970000Y-79630000D01*
%TO.N,Net-(J3-CC2)*%
D22*
X94393690Y-77393690D02*
X94393690Y-77105648D01*
X97700000Y-86207106D02*
X97700000Y-81792893D01*
X93827174Y-76539132D02*
X93588713Y-76539132D01*
X93442510Y-89933966D02*
X93440447Y-89936029D01*
X96850000Y-87057106D02*
X97700000Y-86207106D01*
X97700000Y-81792893D02*
X97500000Y-81592893D01*
X94393690Y-77105648D02*
X93827174Y-76539132D01*
X95066034Y-89933966D02*
X93442510Y-89933966D01*
X96850000Y-88150000D02*
X96850000Y-87057106D01*
X97500000Y-80500000D02*
X94393690Y-77393690D01*
X97500000Y-81592893D02*
X97500000Y-80500000D01*
X95250000Y-89750000D02*
X95066034Y-89933966D01*
X95250000Y-89750000D02*
X96850000Y-88150000D01*
%TO.N,-12V*%
D23*
X136570000Y-69830000D02*
X136570000Y-69630000D01*
X141800000Y-69630000D02*
X137000000Y-69630000D01*
X154042500Y-69630000D02*
X141800000Y-69630000D01*
X137000000Y-69630000D02*
X136570000Y-69630000D01*
X134200000Y-72200000D02*
X136570000Y-69830000D01*
%TO.N,Net-(D4-K)*%
X105200000Y-67800000D02*
X105800000Y-67200000D01*
X105600000Y-67000000D02*
X105800000Y-67200000D01*
X105200000Y-72200000D02*
X105200000Y-67800000D01*
X105500000Y-67000000D02*
X105600000Y-67000000D01*
X105500000Y-62500000D02*
X105500000Y-67000000D01*
%TO.N,Net-(U4-VSENSE)*%
D22*
X111500000Y-72750000D02*
X112000000Y-72250000D01*
X106050000Y-72750000D02*
X111500000Y-72750000D01*
X103250000Y-67250000D02*
X103250000Y-72000000D01*
X112000000Y-72250000D02*
X112000000Y-71250000D01*
X103250000Y-72000000D02*
X104250000Y-73000000D01*
X104250000Y-73000000D02*
X105800000Y-73000000D01*
X105800000Y-73000000D02*
X106050000Y-72750000D01*
%TO.N,Net-(D14-A)*%
X141600000Y-58000000D02*
X138800000Y-58000000D01*
X141800000Y-58200000D02*
X141600000Y-58000000D01*
%TO.N,Net-(D9-A)*%
X86800000Y-64625495D02*
X86800000Y-72599984D01*
X92225000Y-95600000D02*
X92542831Y-95917831D01*
X86475000Y-92901371D02*
X89173629Y-95600000D01*
X86475000Y-72924984D02*
X86475000Y-92901371D01*
X89173629Y-95600000D02*
X92225000Y-95600000D01*
X86800000Y-72599984D02*
X86475000Y-72924984D01*
X86550000Y-64375495D02*
X86800000Y-64625495D01*
%TO.N,VBUS*%
D24*
X93400000Y-79931370D02*
X93400000Y-78687589D01*
D22*
X87200000Y-56400000D02*
X87200000Y-74200000D01*
D24*
X91400000Y-76687589D02*
X91400000Y-74400000D01*
X93306000Y-85925988D02*
X93306000Y-80025370D01*
X93400000Y-78687589D02*
X91400000Y-76687589D01*
X93306000Y-80025370D02*
X93400000Y-79931370D01*
X93565006Y-86184994D02*
X93306000Y-85925988D01*
%TO.N,Net-(J3-CC1)*%
D22*
X95700000Y-81192894D02*
X95700000Y-86239338D01*
X93743690Y-77374887D02*
X93774887Y-77374887D01*
X93774887Y-77374887D02*
X95950000Y-79550000D01*
X93319352Y-87000000D02*
X94939338Y-87000000D01*
X95700000Y-86239338D02*
X95094669Y-86844669D01*
X94939338Y-87000000D02*
X95094669Y-86844669D01*
X95950000Y-80942894D02*
X95700000Y-81192894D01*
X95950000Y-79550000D02*
X95950000Y-80942894D01*
%TO.N,Net-(JP1-B)*%
D24*
X92600000Y-94800000D02*
X93305000Y-94095000D01*
X97000000Y-86000000D02*
X97000000Y-81363133D01*
X93305000Y-91905000D02*
X92400000Y-91000000D01*
X97000000Y-81363133D02*
X96857911Y-81221044D01*
X94600000Y-88400000D02*
X97000000Y-86000000D01*
X92400000Y-91000000D02*
X92400000Y-89600000D01*
X93600000Y-88400000D02*
X94600000Y-88400000D01*
X93305000Y-94095000D02*
X93305000Y-91905000D01*
X92400000Y-89600000D02*
X93600000Y-88400000D01*
%TD*%
%TA.AperFunction,Conductor*%
%TO.N,GND*%
G36*
X87734338Y-55502141D02*
G01*
X87734407Y-55502161D01*
X87734407Y-55502141D01*
X87734847Y-55502141D01*
X158476153Y-55589477D01*
X158543168Y-55609244D01*
X158588858Y-55662105D01*
X158600000Y-55713477D01*
X158600000Y-99697046D01*
X158580315Y-99764085D01*
X158527511Y-99809840D01*
X158476306Y-99821046D01*
X86124306Y-99999693D01*
X86057218Y-99980174D01*
X86011333Y-99927483D01*
X86000000Y-99875693D01*
X86000000Y-94140653D01*
X86019685Y-94073614D01*
X86072489Y-94027859D01*
X86141647Y-94017915D01*
X86205203Y-94046940D01*
X86211678Y-94052969D01*
X88639228Y-96480520D01*
X88639230Y-96480521D01*
X88639234Y-96480524D01*
X88769590Y-96555784D01*
X88776160Y-96559577D01*
X88927366Y-96600093D01*
X88982951Y-96632186D01*
X90671329Y-98320564D01*
X90704814Y-98381887D01*
X90705265Y-98384053D01*
X90736165Y-98539396D01*
X90736168Y-98539406D01*
X90796506Y-98685077D01*
X90796513Y-98685090D01*
X90884114Y-98816193D01*
X90884117Y-98816197D01*
X90995611Y-98927691D01*
X90995615Y-98927694D01*
X91126718Y-99015295D01*
X91126731Y-99015302D01*
X91272402Y-99075640D01*
X91272407Y-99075642D01*
X91427057Y-99106404D01*
X91427060Y-99106405D01*
X91427062Y-99106405D01*
X91584748Y-99106405D01*
X91584749Y-99106404D01*
X91739401Y-99075642D01*
X91885083Y-99015299D01*
X92016193Y-98927694D01*
X92127693Y-98816194D01*
X92215298Y-98685084D01*
X92275641Y-98539402D01*
X92306404Y-98384747D01*
X92306404Y-98227063D01*
X92306404Y-98227060D01*
X92286935Y-98129185D01*
X92275641Y-98072408D01*
X92275121Y-98071153D01*
X104099500Y-98071153D01*
X104099500Y-98228846D01*
X104130261Y-98383489D01*
X104130264Y-98383501D01*
X104190602Y-98529172D01*
X104190609Y-98529185D01*
X104278210Y-98660288D01*
X104278213Y-98660292D01*
X104389707Y-98771786D01*
X104389711Y-98771789D01*
X104520814Y-98859390D01*
X104520827Y-98859397D01*
X104666498Y-98919735D01*
X104666503Y-98919737D01*
X104821153Y-98950499D01*
X104821156Y-98950500D01*
X104821158Y-98950500D01*
X107068996Y-98950500D01*
X107160040Y-98932389D01*
X107204328Y-98923580D01*
X107268069Y-98897177D01*
X107331807Y-98870777D01*
X107331808Y-98870776D01*
X107331811Y-98870775D01*
X107446543Y-98794114D01*
X107694588Y-98546067D01*
X107734810Y-98519192D01*
X107789435Y-98496566D01*
X107879173Y-98459397D01*
X107879176Y-98459395D01*
X107879179Y-98459394D01*
X108010289Y-98371789D01*
X108121789Y-98260289D01*
X108209394Y-98129179D01*
X108269737Y-97983497D01*
X108300500Y-97828842D01*
X108300500Y-97671158D01*
X108300500Y-97671155D01*
X108300499Y-97671153D01*
X108291510Y-97625965D01*
X108269737Y-97516503D01*
X108236022Y-97435106D01*
X108209397Y-97370827D01*
X108209390Y-97370814D01*
X108121789Y-97239711D01*
X108121786Y-97239707D01*
X108010292Y-97128213D01*
X108010288Y-97128210D01*
X107879185Y-97040609D01*
X107879172Y-97040602D01*
X107733501Y-96980264D01*
X107733489Y-96980261D01*
X107578845Y-96949500D01*
X107578842Y-96949500D01*
X107421158Y-96949500D01*
X107421155Y-96949500D01*
X107266510Y-96980261D01*
X107266498Y-96980264D01*
X107120827Y-97040602D01*
X107120814Y-97040609D01*
X106989711Y-97128210D01*
X106989707Y-97128213D01*
X106878213Y-97239707D01*
X106878210Y-97239711D01*
X106790609Y-97370814D01*
X106790602Y-97370827D01*
X106748302Y-97472952D01*
X106704462Y-97527356D01*
X106638167Y-97549421D01*
X106633741Y-97549500D01*
X105479766Y-97549500D01*
X105412727Y-97529815D01*
X105410875Y-97528602D01*
X105279185Y-97440609D01*
X105279172Y-97440602D01*
X105133501Y-97380264D01*
X105133489Y-97380261D01*
X104978845Y-97349500D01*
X104978842Y-97349500D01*
X104821158Y-97349500D01*
X104821155Y-97349500D01*
X104666510Y-97380261D01*
X104666498Y-97380264D01*
X104520827Y-97440602D01*
X104520814Y-97440609D01*
X104389711Y-97528210D01*
X104389707Y-97528213D01*
X104278213Y-97639707D01*
X104278210Y-97639711D01*
X104190609Y-97770814D01*
X104190602Y-97770827D01*
X104130264Y-97916498D01*
X104130261Y-97916510D01*
X104099500Y-98071153D01*
X92275121Y-98071153D01*
X92215298Y-97926726D01*
X92204307Y-97910277D01*
X92199530Y-97898457D01*
X92197297Y-97875865D01*
X92190516Y-97854208D01*
X92193928Y-97841767D01*
X92192660Y-97828926D01*
X92202995Y-97808715D01*
X92209000Y-97786827D01*
X92220040Y-97775384D01*
X92224473Y-97766718D01*
X92233432Y-97761505D01*
X92245602Y-97748893D01*
X92336468Y-97688179D01*
X92336469Y-97688177D01*
X92338341Y-97686927D01*
X92384833Y-97669429D01*
X92384717Y-97668994D01*
X92389136Y-97667809D01*
X92391049Y-97667090D01*
X92392554Y-97666891D01*
X92392568Y-97666891D01*
X92545296Y-97625967D01*
X92596315Y-97596511D01*
X92682227Y-97546910D01*
X92794031Y-97435106D01*
X92794031Y-97435104D01*
X92804235Y-97424901D01*
X92804239Y-97424896D01*
X93551337Y-96677798D01*
X93551342Y-96677794D01*
X93561545Y-96667590D01*
X93561547Y-96667590D01*
X93673351Y-96555786D01*
X93737541Y-96444603D01*
X93737543Y-96444602D01*
X93743575Y-96434153D01*
X93752408Y-96418855D01*
X93793331Y-96266128D01*
X93793331Y-96108013D01*
X93793331Y-95999835D01*
X93813016Y-95932796D01*
X93829650Y-95912154D01*
X94996363Y-94745441D01*
X128349500Y-94745441D01*
X128349500Y-94994558D01*
X128349501Y-94994575D01*
X128382017Y-95241561D01*
X128446498Y-95482207D01*
X128541830Y-95712361D01*
X128541837Y-95712376D01*
X128666400Y-95928126D01*
X128818060Y-96125774D01*
X128818066Y-96125781D01*
X128994218Y-96301933D01*
X128994225Y-96301939D01*
X129191873Y-96453599D01*
X129407623Y-96578162D01*
X129407638Y-96578169D01*
X129461553Y-96600501D01*
X129637793Y-96673502D01*
X129878435Y-96737982D01*
X130125435Y-96770500D01*
X130125442Y-96770500D01*
X130374558Y-96770500D01*
X130374565Y-96770500D01*
X130621565Y-96737982D01*
X130862207Y-96673502D01*
X131092373Y-96578164D01*
X131308127Y-96453599D01*
X131505776Y-96301938D01*
X131681938Y-96125776D01*
X131833599Y-95928127D01*
X131888809Y-95832499D01*
X131939376Y-95784284D01*
X131996196Y-95770500D01*
X152220351Y-95770500D01*
X152287390Y-95790185D01*
X152327738Y-95832500D01*
X152379733Y-95922558D01*
X152530595Y-96119166D01*
X152530601Y-96119173D01*
X152705826Y-96294398D01*
X152705832Y-96294403D01*
X152902441Y-96445266D01*
X152902448Y-96445270D01*
X153117051Y-96569172D01*
X153117056Y-96569174D01*
X153117059Y-96569176D01*
X153117063Y-96569177D01*
X153117068Y-96569180D01*
X153346007Y-96664009D01*
X153346009Y-96664009D01*
X153346015Y-96664012D01*
X153585390Y-96728153D01*
X153831090Y-96760500D01*
X153831097Y-96760500D01*
X154078903Y-96760500D01*
X154078910Y-96760500D01*
X154324610Y-96728153D01*
X154563985Y-96664012D01*
X154792941Y-96569176D01*
X155007559Y-96445266D01*
X155204168Y-96294403D01*
X155379403Y-96119168D01*
X155530266Y-95922559D01*
X155654176Y-95707941D01*
X155749012Y-95478985D01*
X155813153Y-95239610D01*
X155845500Y-94993910D01*
X155845500Y-94746090D01*
X155813153Y-94500390D01*
X155749012Y-94261015D01*
X155747677Y-94257793D01*
X155654180Y-94032068D01*
X155654172Y-94032051D01*
X155530270Y-93817448D01*
X155530266Y-93817441D01*
X155379403Y-93620832D01*
X155379398Y-93620826D01*
X155204173Y-93445601D01*
X155204166Y-93445595D01*
X155007567Y-93294740D01*
X155007565Y-93294738D01*
X155007559Y-93294734D01*
X155007554Y-93294731D01*
X155007551Y-93294729D01*
X154792948Y-93170827D01*
X154792931Y-93170819D01*
X154563992Y-93075990D01*
X154324606Y-93011846D01*
X154078919Y-92979501D01*
X154078916Y-92979500D01*
X154078910Y-92979500D01*
X153831090Y-92979500D01*
X153831084Y-92979500D01*
X153831080Y-92979501D01*
X153585393Y-93011846D01*
X153346007Y-93075990D01*
X153117068Y-93170819D01*
X153117051Y-93170827D01*
X152902448Y-93294729D01*
X152902432Y-93294740D01*
X152705833Y-93445595D01*
X152705826Y-93445601D01*
X152530601Y-93620826D01*
X152530595Y-93620833D01*
X152379733Y-93817441D01*
X152327738Y-93907500D01*
X152277171Y-93955716D01*
X152220351Y-93969500D01*
X131996196Y-93969500D01*
X131929157Y-93949815D01*
X131888809Y-93907500D01*
X131833599Y-93811873D01*
X131687009Y-93620833D01*
X131681939Y-93614225D01*
X131681933Y-93614218D01*
X131505781Y-93438066D01*
X131505774Y-93438060D01*
X131308126Y-93286400D01*
X131092376Y-93161837D01*
X131092361Y-93161830D01*
X130862207Y-93066498D01*
X130621561Y-93002017D01*
X130374575Y-92969501D01*
X130374570Y-92969500D01*
X130374565Y-92969500D01*
X130125435Y-92969500D01*
X130125429Y-92969500D01*
X130125424Y-92969501D01*
X129878438Y-93002017D01*
X129637792Y-93066498D01*
X129407638Y-93161830D01*
X129407623Y-93161837D01*
X129191873Y-93286400D01*
X128994225Y-93438060D01*
X128994218Y-93438066D01*
X128818066Y-93614218D01*
X128818060Y-93614225D01*
X128666400Y-93811873D01*
X128541837Y-94027623D01*
X128541830Y-94027638D01*
X128446498Y-94257792D01*
X128382017Y-94498438D01*
X128349501Y-94745424D01*
X128349500Y-94745441D01*
X94996363Y-94745441D01*
X98304985Y-91436819D01*
X98366308Y-91403334D01*
X98392666Y-91400500D01*
X101220234Y-91400500D01*
X101287273Y-91420185D01*
X101289125Y-91421398D01*
X101420814Y-91509390D01*
X101420827Y-91509397D01*
X101529920Y-91554584D01*
X101566503Y-91569737D01*
X101683584Y-91593026D01*
X101721153Y-91600499D01*
X101721156Y-91600500D01*
X101721158Y-91600500D01*
X101878844Y-91600500D01*
X101878845Y-91600499D01*
X102033497Y-91569737D01*
X102179179Y-91509394D01*
X102310289Y-91421789D01*
X102421789Y-91310289D01*
X102507673Y-91181755D01*
X102507675Y-91181753D01*
X102507676Y-91181751D01*
X102509390Y-91179185D01*
X102509390Y-91179184D01*
X102509394Y-91179179D01*
X102569737Y-91033497D01*
X102600500Y-90878842D01*
X102600500Y-90721158D01*
X102600500Y-90721155D01*
X102600499Y-90721153D01*
X102598249Y-90709843D01*
X102569737Y-90566503D01*
X102565123Y-90555364D01*
X102509397Y-90420827D01*
X102509390Y-90420814D01*
X102421789Y-90289711D01*
X102421786Y-90289707D01*
X102310292Y-90178213D01*
X102310288Y-90178210D01*
X102179185Y-90090609D01*
X102179172Y-90090602D01*
X102033501Y-90030264D01*
X102033489Y-90030261D01*
X101878845Y-89999500D01*
X101878842Y-89999500D01*
X101721158Y-89999500D01*
X101721155Y-89999500D01*
X101566510Y-90030261D01*
X101566498Y-90030264D01*
X101420827Y-90090602D01*
X101420814Y-90090609D01*
X101289125Y-90178602D01*
X101222447Y-90199480D01*
X101220234Y-90199500D01*
X98179238Y-90199500D01*
X98179222Y-90199499D01*
X98171626Y-90199499D01*
X98013512Y-90199499D01*
X97906156Y-90228265D01*
X97860779Y-90240424D01*
X97860778Y-90240425D01*
X97810665Y-90269359D01*
X97810664Y-90269360D01*
X97775422Y-90289707D01*
X97723854Y-90319479D01*
X97723851Y-90319481D01*
X94217181Y-93826152D01*
X94155858Y-93859637D01*
X94086166Y-93854653D01*
X94030233Y-93812781D01*
X94005816Y-93747317D01*
X94005500Y-93738471D01*
X94005500Y-91836004D01*
X93983934Y-91727591D01*
X93978580Y-91700671D01*
X93960694Y-91657491D01*
X93925776Y-91573190D01*
X93849112Y-91458454D01*
X93849111Y-91458453D01*
X93338867Y-90948210D01*
X93305382Y-90886887D01*
X93310366Y-90817196D01*
X93352237Y-90761262D01*
X93417702Y-90736845D01*
X93426548Y-90736529D01*
X93519291Y-90736529D01*
X93519292Y-90736528D01*
X93673944Y-90705766D01*
X93819626Y-90645423D01*
X93846132Y-90627712D01*
X93954409Y-90555364D01*
X94021086Y-90534486D01*
X94023300Y-90534466D01*
X94979365Y-90534466D01*
X94979381Y-90534467D01*
X94986977Y-90534467D01*
X95078344Y-90534467D01*
X95102534Y-90536849D01*
X95123826Y-90541085D01*
X95171156Y-90550500D01*
X95171158Y-90550500D01*
X95328844Y-90550500D01*
X95328845Y-90550499D01*
X95483497Y-90519737D01*
X95629179Y-90459394D01*
X95760289Y-90371789D01*
X95871789Y-90260289D01*
X95959394Y-90129179D01*
X96019737Y-89983497D01*
X96050500Y-89828842D01*
X96050638Y-89828150D01*
X96083023Y-89766239D01*
X96084517Y-89764717D01*
X96183768Y-89665466D01*
X128350000Y-89665466D01*
X128350000Y-89914533D01*
X128382508Y-90161463D01*
X128446973Y-90402049D01*
X128542283Y-90632148D01*
X128542288Y-90632159D01*
X128666813Y-90847841D01*
X128666819Y-90847849D01*
X128741400Y-90945045D01*
X129477546Y-90208899D01*
X129570343Y-90347780D01*
X129692220Y-90469657D01*
X129831099Y-90562453D01*
X129094953Y-91298598D01*
X129192150Y-91373180D01*
X129192158Y-91373186D01*
X129407840Y-91497711D01*
X129407851Y-91497716D01*
X129637950Y-91593026D01*
X129878536Y-91657491D01*
X130125466Y-91690000D01*
X130374534Y-91690000D01*
X130621463Y-91657491D01*
X130862049Y-91593026D01*
X131092148Y-91497716D01*
X131092159Y-91497711D01*
X131307855Y-91373178D01*
X131405045Y-91298600D01*
X131405045Y-91298597D01*
X130668900Y-90562453D01*
X130807780Y-90469657D01*
X130929657Y-90347780D01*
X131022452Y-90208900D01*
X131758597Y-90945045D01*
X131758600Y-90945045D01*
X131833178Y-90847855D01*
X131957711Y-90632159D01*
X131957716Y-90632148D01*
X132053026Y-90402049D01*
X132117491Y-90161463D01*
X132150000Y-89914533D01*
X132150000Y-89666115D01*
X152065000Y-89666115D01*
X152065000Y-89913884D01*
X152097338Y-90159503D01*
X152097340Y-90159514D01*
X152161460Y-90398817D01*
X152161465Y-90398831D01*
X152256271Y-90627712D01*
X152256275Y-90627722D01*
X152380144Y-90842271D01*
X152380149Y-90842278D01*
X152453532Y-90937913D01*
X153171732Y-90219713D01*
X153263692Y-90357342D01*
X153387658Y-90481308D01*
X153525285Y-90573266D01*
X152807085Y-91291466D01*
X152807085Y-91291467D01*
X152902719Y-91364849D01*
X153117277Y-91488724D01*
X153117287Y-91488728D01*
X153346168Y-91583534D01*
X153346182Y-91583539D01*
X153585485Y-91647659D01*
X153585496Y-91647661D01*
X153831115Y-91679999D01*
X153831130Y-91680000D01*
X154078870Y-91680000D01*
X154078884Y-91679999D01*
X154324503Y-91647661D01*
X154324514Y-91647659D01*
X154563817Y-91583539D01*
X154563831Y-91583534D01*
X154792712Y-91488728D01*
X154792722Y-91488724D01*
X155007276Y-91364852D01*
X155102913Y-91291466D01*
X154384714Y-90573267D01*
X154522342Y-90481308D01*
X154646308Y-90357342D01*
X154738267Y-90219714D01*
X155456466Y-90937913D01*
X155529852Y-90842276D01*
X155653724Y-90627722D01*
X155653728Y-90627712D01*
X155748534Y-90398831D01*
X155748539Y-90398817D01*
X155812659Y-90159514D01*
X155812661Y-90159503D01*
X155844999Y-89913884D01*
X155845000Y-89913870D01*
X155845000Y-89666129D01*
X155844999Y-89666115D01*
X155812661Y-89420496D01*
X155812659Y-89420485D01*
X155748539Y-89181182D01*
X155748534Y-89181168D01*
X155653728Y-88952287D01*
X155653724Y-88952277D01*
X155529849Y-88737719D01*
X155456467Y-88642085D01*
X155456466Y-88642085D01*
X154738266Y-89360284D01*
X154646308Y-89222658D01*
X154522342Y-89098692D01*
X154384713Y-89006731D01*
X155102913Y-88288532D01*
X155102913Y-88288531D01*
X155007278Y-88215149D01*
X155007271Y-88215144D01*
X154792722Y-88091275D01*
X154792712Y-88091271D01*
X154563831Y-87996465D01*
X154563817Y-87996460D01*
X154324514Y-87932340D01*
X154324503Y-87932338D01*
X154078884Y-87900000D01*
X153831115Y-87900000D01*
X153585496Y-87932338D01*
X153585485Y-87932340D01*
X153346182Y-87996460D01*
X153346168Y-87996465D01*
X153117287Y-88091271D01*
X153117277Y-88091275D01*
X152902726Y-88215146D01*
X152902710Y-88215156D01*
X152807085Y-88288531D01*
X152807085Y-88288532D01*
X153525285Y-89006732D01*
X153387658Y-89098692D01*
X153263692Y-89222658D01*
X153171732Y-89360285D01*
X152453532Y-88642085D01*
X152453531Y-88642085D01*
X152380156Y-88737710D01*
X152380146Y-88737726D01*
X152256275Y-88952277D01*
X152256271Y-88952287D01*
X152161465Y-89181168D01*
X152161460Y-89181182D01*
X152097340Y-89420485D01*
X152097338Y-89420496D01*
X152065000Y-89666115D01*
X132150000Y-89666115D01*
X132150000Y-89665466D01*
X132117491Y-89418536D01*
X132053026Y-89177950D01*
X131957716Y-88947851D01*
X131957711Y-88947840D01*
X131833186Y-88732158D01*
X131833180Y-88732150D01*
X131758598Y-88634953D01*
X131022452Y-89371098D01*
X130929657Y-89232220D01*
X130807780Y-89110343D01*
X130668899Y-89017545D01*
X131405045Y-88281400D01*
X131307849Y-88206819D01*
X131307841Y-88206813D01*
X131092159Y-88082288D01*
X131092148Y-88082283D01*
X130862049Y-87986973D01*
X130621463Y-87922508D01*
X130374534Y-87890000D01*
X130125466Y-87890000D01*
X129878536Y-87922508D01*
X129637950Y-87986973D01*
X129407851Y-88082283D01*
X129407847Y-88082285D01*
X129192143Y-88206823D01*
X129094953Y-88281399D01*
X129094953Y-88281400D01*
X129831099Y-89017546D01*
X129692220Y-89110343D01*
X129570343Y-89232220D01*
X129477546Y-89371099D01*
X128741400Y-88634953D01*
X128741399Y-88634953D01*
X128666823Y-88732143D01*
X128542285Y-88947847D01*
X128542283Y-88947851D01*
X128446973Y-89177950D01*
X128382508Y-89418536D01*
X128350000Y-89665466D01*
X96183768Y-89665466D01*
X97330520Y-88518716D01*
X97409577Y-88381784D01*
X97450501Y-88229057D01*
X97450501Y-88070942D01*
X97450501Y-88063347D01*
X97450500Y-88063329D01*
X97450500Y-87357203D01*
X97470185Y-87290164D01*
X97486819Y-87269522D01*
X97777169Y-86979172D01*
X98180520Y-86575822D01*
X98259577Y-86438890D01*
X98300501Y-86286163D01*
X98300501Y-86249098D01*
X98320186Y-86182059D01*
X98372990Y-86136304D01*
X98442148Y-86126360D01*
X98505704Y-86155385D01*
X98512182Y-86161417D01*
X98765425Y-86414660D01*
X98798910Y-86475983D01*
X98799361Y-86478149D01*
X98830261Y-86633491D01*
X98830264Y-86633501D01*
X98890602Y-86779172D01*
X98890609Y-86779185D01*
X98978210Y-86910288D01*
X98978213Y-86910292D01*
X99089707Y-87021786D01*
X99089711Y-87021789D01*
X99220814Y-87109390D01*
X99220827Y-87109397D01*
X99366498Y-87169735D01*
X99366503Y-87169737D01*
X99521153Y-87200499D01*
X99521156Y-87200500D01*
X99521158Y-87200500D01*
X99678844Y-87200500D01*
X99678845Y-87200499D01*
X99833497Y-87169737D01*
X99979179Y-87109394D01*
X100110289Y-87021789D01*
X100221789Y-86910289D01*
X100309394Y-86779179D01*
X100369737Y-86633497D01*
X100400500Y-86478842D01*
X100400500Y-86321158D01*
X100400500Y-86321155D01*
X100400499Y-86321153D01*
X100375374Y-86194837D01*
X100369738Y-86166507D01*
X100369735Y-86166498D01*
X100309397Y-86020827D01*
X100309390Y-86020814D01*
X100221789Y-85889711D01*
X100221786Y-85889707D01*
X100110292Y-85778213D01*
X100110288Y-85778210D01*
X99979185Y-85690609D01*
X99979172Y-85690602D01*
X99833501Y-85630264D01*
X99833491Y-85630261D01*
X99678151Y-85599362D01*
X99616241Y-85566977D01*
X99614662Y-85565426D01*
X99387637Y-85338401D01*
X99354152Y-85277078D01*
X99351318Y-85250720D01*
X99351318Y-84585466D01*
X128350000Y-84585466D01*
X128350000Y-84834533D01*
X128382508Y-85081463D01*
X128446973Y-85322049D01*
X128542283Y-85552148D01*
X128542288Y-85552159D01*
X128666813Y-85767841D01*
X128666819Y-85767849D01*
X128741400Y-85865045D01*
X129477546Y-85128899D01*
X129570343Y-85267780D01*
X129692220Y-85389657D01*
X129831099Y-85482453D01*
X129094953Y-86218598D01*
X129192150Y-86293180D01*
X129192158Y-86293186D01*
X129407840Y-86417711D01*
X129407851Y-86417716D01*
X129637950Y-86513026D01*
X129878536Y-86577491D01*
X130125466Y-86610000D01*
X130374534Y-86610000D01*
X130621463Y-86577491D01*
X130862049Y-86513026D01*
X131092148Y-86417716D01*
X131092159Y-86417711D01*
X131307855Y-86293178D01*
X131405045Y-86218600D01*
X131405045Y-86218597D01*
X130668900Y-85482453D01*
X130807780Y-85389657D01*
X130929657Y-85267780D01*
X131022452Y-85128900D01*
X131758597Y-85865045D01*
X131758600Y-85865045D01*
X131833178Y-85767855D01*
X131957711Y-85552159D01*
X131957716Y-85552148D01*
X132053026Y-85322049D01*
X132117491Y-85081463D01*
X132150000Y-84834533D01*
X132150000Y-84585466D01*
X132117491Y-84338536D01*
X132053026Y-84097950D01*
X131957716Y-83867851D01*
X131957711Y-83867840D01*
X131833186Y-83652158D01*
X131833180Y-83652150D01*
X131758598Y-83554953D01*
X131022452Y-84291098D01*
X130929657Y-84152220D01*
X130807780Y-84030343D01*
X130668899Y-83937545D01*
X131405045Y-83201400D01*
X131307849Y-83126819D01*
X131307841Y-83126813D01*
X131092159Y-83002288D01*
X131092148Y-83002283D01*
X130862049Y-82906973D01*
X130621463Y-82842508D01*
X130374534Y-82810000D01*
X130125466Y-82810000D01*
X129878536Y-82842508D01*
X129637950Y-82906973D01*
X129407851Y-83002283D01*
X129407847Y-83002285D01*
X129192143Y-83126823D01*
X129094953Y-83201399D01*
X129094953Y-83201400D01*
X129831099Y-83937546D01*
X129692220Y-84030343D01*
X129570343Y-84152220D01*
X129477546Y-84291099D01*
X128741400Y-83554953D01*
X128741399Y-83554953D01*
X128666823Y-83652143D01*
X128542285Y-83867847D01*
X128542283Y-83867851D01*
X128446973Y-84097950D01*
X128382508Y-84338536D01*
X128350000Y-84585466D01*
X99351318Y-84585466D01*
X99351318Y-81164687D01*
X99351319Y-81164674D01*
X99351319Y-80996571D01*
X99341817Y-80961109D01*
X99310395Y-80843843D01*
X99244944Y-80730477D01*
X99231342Y-80706917D01*
X99231336Y-80706909D01*
X99036819Y-80512392D01*
X99003334Y-80451069D01*
X99000500Y-80424711D01*
X99000500Y-78182135D01*
X128349500Y-78182135D01*
X128349500Y-81077870D01*
X128349501Y-81077876D01*
X128355908Y-81137483D01*
X128406202Y-81272328D01*
X128406206Y-81272335D01*
X128492452Y-81387544D01*
X128492455Y-81387547D01*
X128607664Y-81473793D01*
X128607671Y-81473797D01*
X128742517Y-81524091D01*
X128742516Y-81524091D01*
X128749444Y-81524835D01*
X128802127Y-81530500D01*
X131697872Y-81530499D01*
X131757483Y-81524091D01*
X131892331Y-81473796D01*
X132007546Y-81387546D01*
X132093796Y-81272331D01*
X132144091Y-81137483D01*
X132150500Y-81077873D01*
X132150500Y-80654500D01*
X132170185Y-80587461D01*
X132222989Y-80541706D01*
X132274500Y-80530500D01*
X140058693Y-80530500D01*
X140058694Y-80530499D01*
X140232666Y-80495895D01*
X140314606Y-80461953D01*
X140396547Y-80428013D01*
X140396549Y-80428011D01*
X140396552Y-80428010D01*
X140484955Y-80368939D01*
X140484955Y-80368938D01*
X140484959Y-80368936D01*
X140544036Y-80329464D01*
X140936680Y-79936818D01*
X140998003Y-79903334D01*
X141024361Y-79900500D01*
X141675638Y-79900500D01*
X141742677Y-79920185D01*
X141763319Y-79936819D01*
X142030536Y-80204035D01*
X142155965Y-80329464D01*
X142303453Y-80428013D01*
X142351452Y-80447895D01*
X142467334Y-80495895D01*
X142641304Y-80530499D01*
X142641308Y-80530500D01*
X142641309Y-80530500D01*
X145775500Y-80530500D01*
X145842539Y-80550185D01*
X145888294Y-80602989D01*
X145899500Y-80654500D01*
X145899500Y-86020234D01*
X145879815Y-86087273D01*
X145878602Y-86089125D01*
X145790609Y-86220814D01*
X145790602Y-86220827D01*
X145730264Y-86366498D01*
X145730261Y-86366510D01*
X145699500Y-86521153D01*
X145699500Y-86678846D01*
X145730261Y-86833489D01*
X145730264Y-86833501D01*
X145790602Y-86979172D01*
X145790609Y-86979185D01*
X145878210Y-87110288D01*
X145878213Y-87110292D01*
X145989707Y-87221786D01*
X145989711Y-87221789D01*
X146120814Y-87309390D01*
X146120827Y-87309397D01*
X146236243Y-87357203D01*
X146266503Y-87369737D01*
X146421153Y-87400499D01*
X146421156Y-87400500D01*
X146421158Y-87400500D01*
X146578844Y-87400500D01*
X146578845Y-87400499D01*
X146733497Y-87369737D01*
X146879179Y-87309394D01*
X147010289Y-87221789D01*
X147121789Y-87110289D01*
X147209394Y-86979179D01*
X147269737Y-86833497D01*
X147300500Y-86678842D01*
X147300500Y-86521158D01*
X147300500Y-86521155D01*
X147300499Y-86521153D01*
X147294245Y-86489711D01*
X147269737Y-86366503D01*
X147209394Y-86220821D01*
X147121789Y-86089711D01*
X147121776Y-86089698D01*
X147121108Y-86088689D01*
X147110885Y-86055552D01*
X147100520Y-86022447D01*
X147100515Y-86021934D01*
X147100512Y-86021924D01*
X147100515Y-86021912D01*
X147100500Y-86020234D01*
X147100500Y-84586115D01*
X152065000Y-84586115D01*
X152065000Y-84833884D01*
X152097338Y-85079503D01*
X152097340Y-85079514D01*
X152161460Y-85318817D01*
X152161465Y-85318831D01*
X152256271Y-85547712D01*
X152256275Y-85547722D01*
X152380144Y-85762271D01*
X152380149Y-85762278D01*
X152453532Y-85857913D01*
X153171732Y-85139713D01*
X153263692Y-85277342D01*
X153387658Y-85401308D01*
X153525285Y-85493266D01*
X152807085Y-86211466D01*
X152807085Y-86211467D01*
X152902719Y-86284849D01*
X153117277Y-86408724D01*
X153117287Y-86408728D01*
X153346168Y-86503534D01*
X153346182Y-86503539D01*
X153585485Y-86567659D01*
X153585496Y-86567661D01*
X153831115Y-86599999D01*
X153831130Y-86600000D01*
X154078870Y-86600000D01*
X154078884Y-86599999D01*
X154324503Y-86567661D01*
X154324514Y-86567659D01*
X154563817Y-86503539D01*
X154563831Y-86503534D01*
X154792712Y-86408728D01*
X154792722Y-86408724D01*
X155007276Y-86284852D01*
X155102913Y-86211466D01*
X154384714Y-85493267D01*
X154522342Y-85401308D01*
X154646308Y-85277342D01*
X154738267Y-85139714D01*
X155456466Y-85857913D01*
X155529852Y-85762276D01*
X155653724Y-85547722D01*
X155653728Y-85547712D01*
X155748534Y-85318831D01*
X155748539Y-85318817D01*
X155812659Y-85079514D01*
X155812661Y-85079503D01*
X155844999Y-84833884D01*
X155845000Y-84833870D01*
X155845000Y-84586129D01*
X155844999Y-84586115D01*
X155812661Y-84340496D01*
X155812659Y-84340485D01*
X155748539Y-84101182D01*
X155748534Y-84101168D01*
X155653728Y-83872287D01*
X155653724Y-83872277D01*
X155529849Y-83657719D01*
X155456467Y-83562085D01*
X155456466Y-83562085D01*
X154738266Y-84280284D01*
X154646308Y-84142658D01*
X154522342Y-84018692D01*
X154384713Y-83926731D01*
X155102913Y-83208532D01*
X155102913Y-83208531D01*
X155007278Y-83135149D01*
X155007271Y-83135144D01*
X154792722Y-83011275D01*
X154792712Y-83011271D01*
X154563831Y-82916465D01*
X154563817Y-82916460D01*
X154324514Y-82852340D01*
X154324503Y-82852338D01*
X154078884Y-82820000D01*
X153831115Y-82820000D01*
X153585496Y-82852338D01*
X153585485Y-82852340D01*
X153346182Y-82916460D01*
X153346168Y-82916465D01*
X153117287Y-83011271D01*
X153117277Y-83011275D01*
X152902726Y-83135146D01*
X152902710Y-83135156D01*
X152807085Y-83208531D01*
X152807085Y-83208532D01*
X153525285Y-83926732D01*
X153387658Y-84018692D01*
X153263692Y-84142658D01*
X153171732Y-84280285D01*
X152453532Y-83562085D01*
X152453531Y-83562085D01*
X152380156Y-83657710D01*
X152380146Y-83657726D01*
X152256275Y-83872277D01*
X152256271Y-83872287D01*
X152161465Y-84101168D01*
X152161460Y-84101182D01*
X152097340Y-84340485D01*
X152097338Y-84340496D01*
X152065000Y-84586115D01*
X147100500Y-84586115D01*
X147100500Y-80654500D01*
X147120185Y-80587461D01*
X147172989Y-80541706D01*
X147224500Y-80530500D01*
X151940501Y-80530500D01*
X152007540Y-80550185D01*
X152053295Y-80602989D01*
X152064501Y-80654500D01*
X152064501Y-81067876D01*
X152070908Y-81127483D01*
X152121202Y-81262328D01*
X152121206Y-81262335D01*
X152207452Y-81377544D01*
X152207455Y-81377547D01*
X152322664Y-81463793D01*
X152322671Y-81463797D01*
X152457517Y-81514091D01*
X152457516Y-81514091D01*
X152464444Y-81514835D01*
X152517127Y-81520500D01*
X155392872Y-81520499D01*
X155452483Y-81514091D01*
X155587331Y-81463796D01*
X155702546Y-81377546D01*
X155788796Y-81262331D01*
X155839091Y-81127483D01*
X155845500Y-81067873D01*
X155845499Y-78192128D01*
X155839262Y-78134105D01*
X155839091Y-78132516D01*
X155788797Y-77997671D01*
X155788793Y-77997664D01*
X155702547Y-77882455D01*
X155702544Y-77882452D01*
X155587335Y-77796206D01*
X155587328Y-77796202D01*
X155452482Y-77745908D01*
X155452483Y-77745908D01*
X155392883Y-77739501D01*
X155392881Y-77739500D01*
X155392873Y-77739500D01*
X155392864Y-77739500D01*
X152517129Y-77739500D01*
X152517123Y-77739501D01*
X152457516Y-77745908D01*
X152322671Y-77796202D01*
X152322664Y-77796206D01*
X152207455Y-77882452D01*
X152207452Y-77882455D01*
X152121206Y-77997664D01*
X152121202Y-77997671D01*
X152070908Y-78132517D01*
X152065575Y-78182127D01*
X152064501Y-78192123D01*
X152064500Y-78192135D01*
X152064500Y-78605500D01*
X152044815Y-78672539D01*
X151992011Y-78718294D01*
X151940500Y-78729500D01*
X143154361Y-78729500D01*
X143087322Y-78709815D01*
X143066680Y-78693181D01*
X142674039Y-78300538D01*
X142674038Y-78300537D01*
X142633931Y-78273739D01*
X142585004Y-78241047D01*
X142585002Y-78241046D01*
X142585002Y-78241045D01*
X142526544Y-78201985D01*
X142526542Y-78201984D01*
X142444607Y-78168046D01*
X142444606Y-78168046D01*
X142362666Y-78134105D01*
X142362658Y-78134103D01*
X142188696Y-78099500D01*
X142188692Y-78099500D01*
X142188691Y-78099500D01*
X140688692Y-78099500D01*
X140511309Y-78099500D01*
X140511304Y-78099500D01*
X140337339Y-78134103D01*
X140337323Y-78134108D01*
X140221453Y-78182102D01*
X140221454Y-78182103D01*
X140173454Y-78201986D01*
X140066071Y-78273738D01*
X140066070Y-78273739D01*
X140025962Y-78300537D01*
X140025961Y-78300538D01*
X139633319Y-78693181D01*
X139571996Y-78726666D01*
X139545638Y-78729500D01*
X132274499Y-78729500D01*
X132207460Y-78709815D01*
X132161705Y-78657011D01*
X132150499Y-78605500D01*
X132150499Y-78182129D01*
X132150498Y-78182123D01*
X132144091Y-78122516D01*
X132093797Y-77987671D01*
X132093793Y-77987664D01*
X132007547Y-77872455D01*
X132007544Y-77872452D01*
X131892335Y-77786206D01*
X131892328Y-77786202D01*
X131757482Y-77735908D01*
X131757483Y-77735908D01*
X131697883Y-77729501D01*
X131697881Y-77729500D01*
X131697873Y-77729500D01*
X131697864Y-77729500D01*
X128802129Y-77729500D01*
X128802123Y-77729501D01*
X128742516Y-77735908D01*
X128607671Y-77786202D01*
X128607664Y-77786206D01*
X128492455Y-77872452D01*
X128492452Y-77872455D01*
X128406206Y-77987664D01*
X128406202Y-77987671D01*
X128355908Y-78122517D01*
X128349502Y-78182103D01*
X128349502Y-78182104D01*
X128349501Y-78182123D01*
X128349500Y-78182135D01*
X99000500Y-78182135D01*
X99000500Y-73089060D01*
X99000501Y-73089047D01*
X99000501Y-72920944D01*
X98994746Y-72899465D01*
X98959577Y-72768216D01*
X98907980Y-72678846D01*
X98880524Y-72631290D01*
X98880518Y-72631282D01*
X98211416Y-71962180D01*
X98177931Y-71900857D01*
X98182915Y-71831165D01*
X98224787Y-71775232D01*
X98290251Y-71750815D01*
X98299097Y-71750499D01*
X100772871Y-71750499D01*
X100772872Y-71750499D01*
X100832483Y-71744091D01*
X100967331Y-71693796D01*
X101082546Y-71607546D01*
X101168796Y-71492331D01*
X101219091Y-71357483D01*
X101225500Y-71297873D01*
X101225499Y-67171153D01*
X102449500Y-67171153D01*
X102449500Y-67328846D01*
X102480261Y-67483489D01*
X102480264Y-67483501D01*
X102540602Y-67629172D01*
X102540609Y-67629185D01*
X102628602Y-67760874D01*
X102649480Y-67827551D01*
X102649500Y-67829765D01*
X102649500Y-71913330D01*
X102649499Y-71913348D01*
X102649499Y-72079054D01*
X102649498Y-72079054D01*
X102690424Y-72231789D01*
X102690425Y-72231790D01*
X102712186Y-72269480D01*
X102712187Y-72269482D01*
X102769475Y-72368709D01*
X102769481Y-72368717D01*
X102888349Y-72487585D01*
X102888354Y-72487589D01*
X103881284Y-73480520D01*
X103881286Y-73480521D01*
X103881290Y-73480524D01*
X104018209Y-73559573D01*
X104018216Y-73559577D01*
X104170943Y-73600501D01*
X104170945Y-73600501D01*
X104336654Y-73600501D01*
X104336670Y-73600500D01*
X105713331Y-73600500D01*
X105713347Y-73600501D01*
X105720943Y-73600501D01*
X105879054Y-73600501D01*
X105879057Y-73600501D01*
X106031785Y-73559577D01*
X106081904Y-73530639D01*
X106168716Y-73480520D01*
X106262418Y-73386817D01*
X106323739Y-73353334D01*
X106350098Y-73350500D01*
X111413331Y-73350500D01*
X111413347Y-73350501D01*
X111420943Y-73350501D01*
X111579054Y-73350501D01*
X111579057Y-73350501D01*
X111731785Y-73309577D01*
X111798226Y-73271217D01*
X111868716Y-73230520D01*
X111980520Y-73118716D01*
X111980521Y-73118714D01*
X112480520Y-72618716D01*
X112559577Y-72481784D01*
X112600501Y-72329057D01*
X112600501Y-72170942D01*
X112600501Y-72163347D01*
X112600500Y-72163329D01*
X112600500Y-72111303D01*
X133299500Y-72111303D01*
X133299500Y-72288696D01*
X133334103Y-72462658D01*
X133334105Y-72462666D01*
X133401988Y-72626548D01*
X133500534Y-72774034D01*
X133500540Y-72774041D01*
X133625958Y-72899459D01*
X133625965Y-72899465D01*
X133773451Y-72998011D01*
X133773452Y-72998011D01*
X133773453Y-72998012D01*
X133937334Y-73065895D01*
X134111303Y-73100499D01*
X134111307Y-73100500D01*
X134111308Y-73100500D01*
X134288693Y-73100500D01*
X134288694Y-73100499D01*
X134462666Y-73065895D01*
X134626547Y-72998012D01*
X134774036Y-72899464D01*
X134994658Y-72678842D01*
X135152348Y-72521153D01*
X142599500Y-72521153D01*
X142599500Y-72678846D01*
X142630261Y-72833489D01*
X142630264Y-72833501D01*
X142690602Y-72979172D01*
X142690609Y-72979185D01*
X142778210Y-73110288D01*
X142778213Y-73110292D01*
X142889707Y-73221786D01*
X142889711Y-73221789D01*
X143020814Y-73309390D01*
X143020827Y-73309397D01*
X143126902Y-73353334D01*
X143166503Y-73369737D01*
X143231147Y-73382595D01*
X143321849Y-73400638D01*
X143383760Y-73433023D01*
X143385339Y-73434574D01*
X145565425Y-75614660D01*
X145598910Y-75675983D01*
X145599361Y-75678149D01*
X145630261Y-75833491D01*
X145630264Y-75833501D01*
X145690602Y-75979172D01*
X145690609Y-75979185D01*
X145778210Y-76110288D01*
X145778213Y-76110292D01*
X145889707Y-76221786D01*
X145889711Y-76221789D01*
X146020814Y-76309390D01*
X146020827Y-76309397D01*
X146109365Y-76346070D01*
X146166503Y-76369737D01*
X146305734Y-76397432D01*
X146321153Y-76400499D01*
X146321156Y-76400500D01*
X146321158Y-76400500D01*
X146478844Y-76400500D01*
X146478845Y-76400499D01*
X146633497Y-76369737D01*
X146779179Y-76309394D01*
X146910289Y-76221789D01*
X147021789Y-76110289D01*
X147109394Y-75979179D01*
X147169737Y-75833497D01*
X147200500Y-75678842D01*
X147200500Y-75521158D01*
X147200500Y-75521155D01*
X147200499Y-75521153D01*
X147169738Y-75366510D01*
X147169737Y-75366503D01*
X147169735Y-75366498D01*
X147109397Y-75220827D01*
X147109390Y-75220814D01*
X147021789Y-75089711D01*
X147021786Y-75089707D01*
X146910292Y-74978213D01*
X146910288Y-74978210D01*
X146779185Y-74890609D01*
X146779172Y-74890602D01*
X146633501Y-74830264D01*
X146633491Y-74830261D01*
X146478151Y-74799362D01*
X146416241Y-74766977D01*
X146414662Y-74765426D01*
X144234573Y-72585337D01*
X144201088Y-72524014D01*
X144200637Y-72521847D01*
X144192417Y-72480521D01*
X144169737Y-72366503D01*
X144169735Y-72366498D01*
X144109397Y-72220827D01*
X144109390Y-72220814D01*
X144021789Y-72089711D01*
X144021786Y-72089707D01*
X143910292Y-71978213D01*
X143910288Y-71978210D01*
X143779185Y-71890609D01*
X143779172Y-71890602D01*
X143633501Y-71830264D01*
X143633489Y-71830261D01*
X143478845Y-71799500D01*
X143478842Y-71799500D01*
X143321158Y-71799500D01*
X143321155Y-71799500D01*
X143166510Y-71830261D01*
X143166498Y-71830264D01*
X143020827Y-71890602D01*
X143020814Y-71890609D01*
X142889711Y-71978210D01*
X142889707Y-71978213D01*
X142778213Y-72089707D01*
X142778210Y-72089711D01*
X142690609Y-72220814D01*
X142690602Y-72220827D01*
X142630264Y-72366498D01*
X142630261Y-72366510D01*
X142599500Y-72521153D01*
X135152348Y-72521153D01*
X135246116Y-72427385D01*
X137106681Y-70566819D01*
X137168004Y-70533334D01*
X137194362Y-70530500D01*
X141711309Y-70530500D01*
X152219856Y-70530500D01*
X152286895Y-70550185D01*
X152332650Y-70602989D01*
X152343214Y-70641897D01*
X152352500Y-70732794D01*
X152352501Y-70732796D01*
X152407686Y-70899335D01*
X152407687Y-70899337D01*
X152499786Y-71048651D01*
X152499789Y-71048655D01*
X152623844Y-71172710D01*
X152623848Y-71172713D01*
X152773162Y-71264812D01*
X152773164Y-71264813D01*
X152773166Y-71264814D01*
X152939703Y-71319999D01*
X153042492Y-71330500D01*
X153042497Y-71330500D01*
X155042503Y-71330500D01*
X155042508Y-71330500D01*
X155145297Y-71319999D01*
X155311834Y-71264814D01*
X155461155Y-71172711D01*
X155585211Y-71048655D01*
X155677314Y-70899334D01*
X155732499Y-70732797D01*
X155743000Y-70630008D01*
X155743000Y-68629992D01*
X155732499Y-68527203D01*
X155677314Y-68360666D01*
X155585211Y-68211345D01*
X155461155Y-68087289D01*
X155461151Y-68087286D01*
X155311837Y-67995187D01*
X155311835Y-67995186D01*
X155228565Y-67967593D01*
X155145297Y-67940001D01*
X155145295Y-67940000D01*
X155042515Y-67929500D01*
X155042508Y-67929500D01*
X153042492Y-67929500D01*
X153042484Y-67929500D01*
X152939704Y-67940000D01*
X152939703Y-67940001D01*
X152773164Y-67995186D01*
X152773162Y-67995187D01*
X152623848Y-68087286D01*
X152623844Y-68087289D01*
X152499789Y-68211344D01*
X152499786Y-68211348D01*
X152407687Y-68360662D01*
X152407686Y-68360664D01*
X152352501Y-68527203D01*
X152352500Y-68527205D01*
X152343214Y-68618103D01*
X152316817Y-68682795D01*
X152259636Y-68722946D01*
X152219856Y-68729500D01*
X136481306Y-68729500D01*
X136307341Y-68764103D01*
X136307332Y-68764106D01*
X136143459Y-68831983D01*
X136143446Y-68831990D01*
X135995965Y-68930535D01*
X135995961Y-68930538D01*
X135870538Y-69055961D01*
X135870535Y-69055965D01*
X135771990Y-69203446D01*
X135771983Y-69203459D01*
X135704107Y-69367329D01*
X135704104Y-69367338D01*
X135697772Y-69399174D01*
X135665386Y-69461084D01*
X135663836Y-69462662D01*
X133500540Y-71625958D01*
X133500534Y-71625965D01*
X133401988Y-71773451D01*
X133334105Y-71937333D01*
X133334103Y-71937341D01*
X133299500Y-72111303D01*
X112600500Y-72111303D01*
X112600500Y-71829765D01*
X112620185Y-71762726D01*
X112621398Y-71760874D01*
X112709390Y-71629185D01*
X112709390Y-71629184D01*
X112709394Y-71629179D01*
X112769737Y-71483497D01*
X112800500Y-71328842D01*
X112800500Y-71171158D01*
X112800500Y-71171155D01*
X112800499Y-71171153D01*
X112776132Y-71048655D01*
X112769737Y-71016503D01*
X112721205Y-70899335D01*
X112709397Y-70870827D01*
X112709390Y-70870814D01*
X112621789Y-70739711D01*
X112621786Y-70739707D01*
X112510292Y-70628213D01*
X112510288Y-70628210D01*
X112379185Y-70540609D01*
X112379172Y-70540602D01*
X112233501Y-70480264D01*
X112233489Y-70480261D01*
X112078845Y-70449500D01*
X112078842Y-70449500D01*
X111921158Y-70449500D01*
X111921155Y-70449500D01*
X111766510Y-70480261D01*
X111766498Y-70480264D01*
X111620827Y-70540602D01*
X111620814Y-70540609D01*
X111489711Y-70628210D01*
X111489707Y-70628213D01*
X111378213Y-70739707D01*
X111378210Y-70739711D01*
X111290609Y-70870814D01*
X111290602Y-70870827D01*
X111230264Y-71016498D01*
X111230261Y-71016510D01*
X111199500Y-71171153D01*
X111199500Y-71328846D01*
X111230261Y-71483489D01*
X111230264Y-71483501D01*
X111290602Y-71629172D01*
X111290609Y-71629185D01*
X111378602Y-71760874D01*
X111399480Y-71827551D01*
X111399500Y-71829765D01*
X111399500Y-71949901D01*
X111379815Y-72016940D01*
X111363182Y-72037582D01*
X111287584Y-72113181D01*
X111226261Y-72146666D01*
X111199902Y-72149500D01*
X106260841Y-72149500D01*
X106193802Y-72129815D01*
X106148047Y-72077011D01*
X106139224Y-72049691D01*
X106113975Y-71922756D01*
X106113973Y-71922753D01*
X106113973Y-71922749D01*
X106109937Y-71913006D01*
X106100500Y-71865558D01*
X106100500Y-68224362D01*
X106120185Y-68157323D01*
X106136815Y-68136684D01*
X106200266Y-68073232D01*
X106240496Y-68046353D01*
X106250231Y-68042322D01*
X106405908Y-67938302D01*
X106538302Y-67805908D01*
X106642322Y-67650231D01*
X106713973Y-67477251D01*
X106750500Y-67293616D01*
X106750500Y-67106384D01*
X106713973Y-66922749D01*
X106642322Y-66749769D01*
X106642321Y-66749768D01*
X106642318Y-66749762D01*
X106538302Y-66594092D01*
X106538299Y-66594088D01*
X106436819Y-66492608D01*
X106403334Y-66431285D01*
X106400500Y-66404927D01*
X106400500Y-64438575D01*
X152342500Y-64438575D01*
X152342500Y-64661424D01*
X152371585Y-64882354D01*
X152371588Y-64882367D01*
X152429263Y-65097618D01*
X152514545Y-65303502D01*
X152514554Y-65303520D01*
X152625964Y-65496491D01*
X152625973Y-65496504D01*
X152676540Y-65562403D01*
X152676543Y-65562403D01*
X153326652Y-64912293D01*
X153333549Y-64928942D01*
X153421099Y-65059970D01*
X153532530Y-65171401D01*
X153663558Y-65258951D01*
X153680205Y-65265846D01*
X153030095Y-65915955D01*
X153030095Y-65915956D01*
X153096007Y-65966533D01*
X153288985Y-66077949D01*
X153288997Y-66077954D01*
X153494881Y-66163236D01*
X153710132Y-66220911D01*
X153710145Y-66220914D01*
X153931075Y-66250000D01*
X154153925Y-66250000D01*
X154374854Y-66220914D01*
X154374867Y-66220911D01*
X154590118Y-66163236D01*
X154796002Y-66077954D01*
X154796014Y-66077949D01*
X154988998Y-65966530D01*
X155054903Y-65915957D01*
X155054904Y-65915956D01*
X154404794Y-65265846D01*
X154421442Y-65258951D01*
X154552470Y-65171401D01*
X154663901Y-65059970D01*
X154751451Y-64928942D01*
X154758346Y-64912294D01*
X155408456Y-65562404D01*
X155408457Y-65562403D01*
X155459030Y-65496498D01*
X155570449Y-65303514D01*
X155570454Y-65303502D01*
X155655736Y-65097618D01*
X155713411Y-64882367D01*
X155713414Y-64882354D01*
X155742500Y-64661424D01*
X155742500Y-64438575D01*
X155713414Y-64217645D01*
X155713411Y-64217632D01*
X155655736Y-64002381D01*
X155570454Y-63796497D01*
X155570449Y-63796485D01*
X155459033Y-63603507D01*
X155408456Y-63537595D01*
X155408455Y-63537595D01*
X154758346Y-64187704D01*
X154751451Y-64171058D01*
X154663901Y-64040030D01*
X154552470Y-63928599D01*
X154421442Y-63841049D01*
X154404793Y-63834152D01*
X155054903Y-63184043D01*
X155054903Y-63184040D01*
X154989004Y-63133473D01*
X154988991Y-63133464D01*
X154796020Y-63022054D01*
X154796002Y-63022045D01*
X154590118Y-62936763D01*
X154374867Y-62879088D01*
X154374854Y-62879085D01*
X154153925Y-62850000D01*
X153931075Y-62850000D01*
X153710145Y-62879085D01*
X153710132Y-62879088D01*
X153494881Y-62936763D01*
X153288997Y-63022045D01*
X153288979Y-63022054D01*
X153096011Y-63133462D01*
X153030095Y-63184042D01*
X153680206Y-63834152D01*
X153663558Y-63841049D01*
X153532530Y-63928599D01*
X153421099Y-64040030D01*
X153333549Y-64171058D01*
X153326653Y-64187706D01*
X152676542Y-63537595D01*
X152625962Y-63603511D01*
X152514554Y-63796479D01*
X152514545Y-63796497D01*
X152429263Y-64002381D01*
X152371588Y-64217632D01*
X152371585Y-64217645D01*
X152342500Y-64438575D01*
X106400500Y-64438575D01*
X106400500Y-62834442D01*
X106409938Y-62786991D01*
X106413973Y-62777251D01*
X106450500Y-62593616D01*
X106450500Y-62406384D01*
X106413973Y-62222749D01*
X106342322Y-62049769D01*
X106342321Y-62049768D01*
X106342318Y-62049762D01*
X106238302Y-61894092D01*
X106238299Y-61894088D01*
X106105911Y-61761700D01*
X106105907Y-61761697D01*
X105950237Y-61657681D01*
X105950228Y-61657676D01*
X105777251Y-61586027D01*
X105777243Y-61586025D01*
X105593620Y-61549500D01*
X105593616Y-61549500D01*
X105406384Y-61549500D01*
X105406379Y-61549500D01*
X105222756Y-61586025D01*
X105222748Y-61586027D01*
X105049771Y-61657676D01*
X105049762Y-61657681D01*
X104894092Y-61761697D01*
X104894088Y-61761700D01*
X104761700Y-61894088D01*
X104761697Y-61894092D01*
X104657681Y-62049762D01*
X104657676Y-62049771D01*
X104586027Y-62222748D01*
X104586025Y-62222756D01*
X104549500Y-62406379D01*
X104549500Y-62593620D01*
X104586025Y-62777243D01*
X104586027Y-62777251D01*
X104590061Y-62786991D01*
X104599500Y-62834442D01*
X104599500Y-67075636D01*
X104579815Y-67142675D01*
X104563183Y-67163316D01*
X104500533Y-67225967D01*
X104500529Y-67225971D01*
X104465204Y-67278841D01*
X104465204Y-67278842D01*
X104401990Y-67373446D01*
X104401983Y-67373459D01*
X104383157Y-67418912D01*
X104383157Y-67418913D01*
X104334106Y-67537331D01*
X104334103Y-67537341D01*
X104306042Y-67678417D01*
X104299500Y-67711304D01*
X104299500Y-71865558D01*
X104290062Y-71913006D01*
X104286777Y-71920939D01*
X104286024Y-71922757D01*
X104284623Y-71927375D01*
X104246320Y-71985810D01*
X104182505Y-72014260D01*
X104113439Y-72003693D01*
X104078285Y-71979049D01*
X103886819Y-71787583D01*
X103853334Y-71726260D01*
X103850500Y-71699902D01*
X103850500Y-67829765D01*
X103870185Y-67762726D01*
X103871398Y-67760874D01*
X103959390Y-67629185D01*
X103959390Y-67629184D01*
X103959394Y-67629179D01*
X104019737Y-67483497D01*
X104050500Y-67328842D01*
X104050500Y-67171158D01*
X104050500Y-67171155D01*
X104050499Y-67171153D01*
X104040452Y-67120644D01*
X104019737Y-67016503D01*
X103980903Y-66922748D01*
X103959397Y-66870827D01*
X103959390Y-66870814D01*
X103871789Y-66739711D01*
X103871786Y-66739707D01*
X103760292Y-66628213D01*
X103760288Y-66628210D01*
X103629185Y-66540609D01*
X103629172Y-66540602D01*
X103483501Y-66480264D01*
X103483489Y-66480261D01*
X103328845Y-66449500D01*
X103328842Y-66449500D01*
X103171158Y-66449500D01*
X103171155Y-66449500D01*
X103016510Y-66480261D01*
X103016498Y-66480264D01*
X102870827Y-66540602D01*
X102870814Y-66540609D01*
X102739711Y-66628210D01*
X102739707Y-66628213D01*
X102628213Y-66739707D01*
X102628210Y-66739711D01*
X102540609Y-66870814D01*
X102540602Y-66870827D01*
X102480264Y-67016498D01*
X102480261Y-67016510D01*
X102449500Y-67171153D01*
X101225499Y-67171153D01*
X101225499Y-66702128D01*
X101219091Y-66642517D01*
X101213755Y-66628211D01*
X101168797Y-66507671D01*
X101168793Y-66507664D01*
X101082547Y-66392455D01*
X101082544Y-66392452D01*
X100967335Y-66306206D01*
X100967328Y-66306202D01*
X100832482Y-66255908D01*
X100832483Y-66255908D01*
X100772883Y-66249501D01*
X100772881Y-66249500D01*
X100772873Y-66249500D01*
X100772864Y-66249500D01*
X97727129Y-66249500D01*
X97727123Y-66249501D01*
X97667516Y-66255908D01*
X97532671Y-66306202D01*
X97532664Y-66306206D01*
X97417455Y-66392452D01*
X97417452Y-66392455D01*
X97331206Y-66507664D01*
X97331202Y-66507671D01*
X97280908Y-66642517D01*
X97274501Y-66702116D01*
X97274501Y-66702123D01*
X97274500Y-66702135D01*
X97274500Y-67325903D01*
X97254815Y-67392942D01*
X97202011Y-67438697D01*
X97132853Y-67448641D01*
X97069297Y-67419616D01*
X97062819Y-67413584D01*
X93434574Y-63785339D01*
X93401089Y-63724016D01*
X93400638Y-63721849D01*
X93382595Y-63631147D01*
X93369737Y-63566503D01*
X93349661Y-63518034D01*
X93309397Y-63420827D01*
X93309390Y-63420814D01*
X93221789Y-63289711D01*
X93221786Y-63289707D01*
X93110292Y-63178213D01*
X93110288Y-63178210D01*
X92979185Y-63090609D01*
X92979172Y-63090602D01*
X92833501Y-63030264D01*
X92833489Y-63030261D01*
X92678845Y-62999500D01*
X92678842Y-62999500D01*
X92521158Y-62999500D01*
X92521155Y-62999500D01*
X92366510Y-63030261D01*
X92366498Y-63030264D01*
X92220827Y-63090602D01*
X92220814Y-63090609D01*
X92089711Y-63178210D01*
X92089707Y-63178213D01*
X91978213Y-63289707D01*
X91978210Y-63289711D01*
X91890609Y-63420814D01*
X91890602Y-63420827D01*
X91830264Y-63566498D01*
X91830261Y-63566510D01*
X91799500Y-63721153D01*
X91799500Y-63878846D01*
X91830261Y-64033489D01*
X91830264Y-64033501D01*
X91890602Y-64179172D01*
X91890609Y-64179185D01*
X91978210Y-64310288D01*
X91978213Y-64310292D01*
X92089707Y-64421786D01*
X92089711Y-64421789D01*
X92220814Y-64509390D01*
X92220827Y-64509397D01*
X92366498Y-64569735D01*
X92366503Y-64569737D01*
X92431147Y-64582595D01*
X92521849Y-64600638D01*
X92583760Y-64633023D01*
X92585339Y-64634574D01*
X96838181Y-68887416D01*
X96871666Y-68948739D01*
X96874500Y-68975097D01*
X96874500Y-71988330D01*
X96874499Y-71988348D01*
X96874499Y-72154054D01*
X96874498Y-72154054D01*
X96915423Y-72306785D01*
X96925642Y-72324484D01*
X96925643Y-72324487D01*
X96994475Y-72443709D01*
X96994481Y-72443717D01*
X97113349Y-72562585D01*
X97113355Y-72562590D01*
X97763181Y-73212416D01*
X97796666Y-73273739D01*
X97799500Y-73300097D01*
X97799500Y-79650902D01*
X97779815Y-79717941D01*
X97727011Y-79763696D01*
X97657853Y-79773640D01*
X97594297Y-79744615D01*
X97587819Y-79738583D01*
X95030510Y-77181274D01*
X94997025Y-77119951D01*
X94994191Y-77093593D01*
X94994191Y-77026592D01*
X94994191Y-77026591D01*
X94953267Y-76873864D01*
X94900639Y-76782708D01*
X94874214Y-76736938D01*
X94874208Y-76736930D01*
X94308507Y-76171229D01*
X94293086Y-76152438D01*
X94210505Y-76028847D01*
X94210499Y-76028839D01*
X94099005Y-75917345D01*
X94099001Y-75917342D01*
X93967898Y-75829741D01*
X93967885Y-75829734D01*
X93822214Y-75769396D01*
X93822202Y-75769393D01*
X93667558Y-75738632D01*
X93667555Y-75738632D01*
X93509871Y-75738632D01*
X93509868Y-75738632D01*
X93355223Y-75769393D01*
X93355211Y-75769396D01*
X93209540Y-75829734D01*
X93209527Y-75829741D01*
X93078424Y-75917342D01*
X93078420Y-75917345D01*
X92966926Y-76028839D01*
X92966923Y-76028843D01*
X92879322Y-76159946D01*
X92879315Y-76159959D01*
X92818977Y-76305630D01*
X92818974Y-76305642D01*
X92788213Y-76460285D01*
X92788213Y-76617978D01*
X92818974Y-76772621D01*
X92818976Y-76772628D01*
X92823151Y-76782708D01*
X92830619Y-76852177D01*
X92799343Y-76914656D01*
X92739254Y-76950308D01*
X92669428Y-76947813D01*
X92620908Y-76917840D01*
X92136819Y-76433751D01*
X92103334Y-76372428D01*
X92100500Y-76346070D01*
X92100500Y-74825316D01*
X92109939Y-74777864D01*
X92169735Y-74633501D01*
X92169737Y-74633497D01*
X92200500Y-74478842D01*
X92200500Y-74321158D01*
X92200500Y-74321155D01*
X92200499Y-74321153D01*
X92169737Y-74166503D01*
X92150955Y-74121158D01*
X92109397Y-74020827D01*
X92109390Y-74020814D01*
X92021789Y-73889711D01*
X92021786Y-73889707D01*
X91910292Y-73778213D01*
X91910288Y-73778210D01*
X91779185Y-73690609D01*
X91779172Y-73690602D01*
X91633501Y-73630264D01*
X91633489Y-73630261D01*
X91478845Y-73599500D01*
X91478842Y-73599500D01*
X91321158Y-73599500D01*
X91321155Y-73599500D01*
X91166510Y-73630261D01*
X91166498Y-73630264D01*
X91020827Y-73690602D01*
X91020814Y-73690609D01*
X90889711Y-73778210D01*
X90889707Y-73778213D01*
X90778213Y-73889707D01*
X90778210Y-73889711D01*
X90690609Y-74020814D01*
X90690602Y-74020827D01*
X90630264Y-74166498D01*
X90630261Y-74166510D01*
X90599500Y-74321153D01*
X90599500Y-74478846D01*
X90630261Y-74633489D01*
X90630264Y-74633501D01*
X90690061Y-74777864D01*
X90699500Y-74825316D01*
X90699500Y-76161667D01*
X90679815Y-76228706D01*
X90678602Y-76230558D01*
X90615609Y-76324832D01*
X90615602Y-76324845D01*
X90555264Y-76470515D01*
X90555261Y-76470527D01*
X90524500Y-76625170D01*
X90524500Y-76782863D01*
X90555261Y-76937506D01*
X90555264Y-76937518D01*
X90615602Y-77083189D01*
X90615609Y-77083202D01*
X90703210Y-77214305D01*
X90703213Y-77214309D01*
X90814707Y-77325803D01*
X90814711Y-77325806D01*
X90945814Y-77413407D01*
X90945827Y-77413414D01*
X91033230Y-77449616D01*
X91091503Y-77473754D01*
X91184442Y-77492240D01*
X91246349Y-77524623D01*
X91247929Y-77526175D01*
X92663181Y-78941427D01*
X92696666Y-79002750D01*
X92699500Y-79029108D01*
X92699500Y-79635791D01*
X92686547Y-79687514D01*
X92687556Y-79687932D01*
X92632420Y-79821041D01*
X92632418Y-79821049D01*
X92624198Y-79862376D01*
X92605653Y-79955610D01*
X92605500Y-79956377D01*
X92605500Y-79956379D01*
X92605500Y-82805500D01*
X92585815Y-82872539D01*
X92533011Y-82918294D01*
X92481500Y-82929500D01*
X91206457Y-82929500D01*
X91013170Y-82967947D01*
X91013160Y-82967950D01*
X90831092Y-83043364D01*
X90831079Y-83043371D01*
X90667218Y-83152860D01*
X90667214Y-83152863D01*
X90626899Y-83193180D01*
X90565576Y-83226666D01*
X90539217Y-83229500D01*
X88840783Y-83229500D01*
X88773744Y-83209815D01*
X88753101Y-83193180D01*
X88712785Y-83152863D01*
X88712781Y-83152860D01*
X88548920Y-83043371D01*
X88548907Y-83043364D01*
X88366839Y-82967950D01*
X88366829Y-82967947D01*
X88173543Y-82929500D01*
X88173541Y-82929500D01*
X87199500Y-82929500D01*
X87132461Y-82909815D01*
X87086706Y-82857011D01*
X87075500Y-82805500D01*
X87075500Y-75124500D01*
X87095185Y-75057461D01*
X87147989Y-75011706D01*
X87199500Y-75000500D01*
X87278844Y-75000500D01*
X87278845Y-75000499D01*
X87433497Y-74969737D01*
X87579179Y-74909394D01*
X87710289Y-74821789D01*
X87821789Y-74710289D01*
X87909394Y-74579179D01*
X87969737Y-74433497D01*
X88000500Y-74278842D01*
X88000500Y-74121158D01*
X88000500Y-74121155D01*
X88000499Y-74121153D01*
X87980543Y-74020827D01*
X87969737Y-73966503D01*
X87937929Y-73889711D01*
X87909397Y-73820827D01*
X87909390Y-73820814D01*
X87821398Y-73689125D01*
X87800520Y-73622447D01*
X87800500Y-73620234D01*
X87800500Y-58311304D01*
X129699500Y-58311304D01*
X129699500Y-58888696D01*
X129734103Y-59062658D01*
X129734105Y-59062666D01*
X129765118Y-59137537D01*
X129765118Y-59137538D01*
X129801984Y-59226542D01*
X129801985Y-59226544D01*
X129861063Y-59314960D01*
X129861064Y-59314961D01*
X129900534Y-59374034D01*
X130695966Y-60169466D01*
X130755036Y-60208933D01*
X130755039Y-60208936D01*
X130777168Y-60223722D01*
X130843453Y-60268013D01*
X130925393Y-60301953D01*
X131007334Y-60335895D01*
X131174194Y-60369085D01*
X131181303Y-60370499D01*
X131181307Y-60370500D01*
X131181308Y-60370500D01*
X140381193Y-60370500D01*
X140383453Y-60370050D01*
X140388300Y-60369085D01*
X140436695Y-60369085D01*
X140443809Y-60370500D01*
X140621192Y-60370500D01*
X147311309Y-60370500D01*
X152528895Y-60370500D01*
X152595934Y-60390185D01*
X152627271Y-60419014D01*
X152761251Y-60593622D01*
X152761257Y-60593629D01*
X152918870Y-60751242D01*
X152918876Y-60751247D01*
X153095726Y-60886948D01*
X153288774Y-60998405D01*
X153494719Y-61083710D01*
X153710037Y-61141404D01*
X153931043Y-61170500D01*
X153931050Y-61170500D01*
X154153950Y-61170500D01*
X154153957Y-61170500D01*
X154374963Y-61141404D01*
X154590281Y-61083710D01*
X154796226Y-60998405D01*
X154989274Y-60886948D01*
X155166124Y-60751247D01*
X155323747Y-60593624D01*
X155459448Y-60416774D01*
X155570905Y-60223726D01*
X155656210Y-60017781D01*
X155713904Y-59802463D01*
X155743000Y-59581457D01*
X155743000Y-59358543D01*
X155713904Y-59137537D01*
X155656210Y-58922219D01*
X155570905Y-58716274D01*
X155459448Y-58523226D01*
X155381245Y-58421309D01*
X155323748Y-58346377D01*
X155323742Y-58346370D01*
X155166129Y-58188757D01*
X155166122Y-58188751D01*
X154989282Y-58053058D01*
X154989280Y-58053057D01*
X154989274Y-58053052D01*
X154796226Y-57941595D01*
X154796222Y-57941593D01*
X154590290Y-57856293D01*
X154590283Y-57856291D01*
X154590281Y-57856290D01*
X154374963Y-57798596D01*
X154374957Y-57798595D01*
X154374952Y-57798594D01*
X154153966Y-57769501D01*
X154153963Y-57769500D01*
X154153957Y-57769500D01*
X153931043Y-57769500D01*
X153931037Y-57769500D01*
X153931033Y-57769501D01*
X153710047Y-57798594D01*
X153710040Y-57798595D01*
X153710037Y-57798596D01*
X153607909Y-57825961D01*
X153494719Y-57856290D01*
X153494709Y-57856293D01*
X153288777Y-57941593D01*
X153288773Y-57941595D01*
X153095726Y-58053052D01*
X153095717Y-58053058D01*
X152918877Y-58188751D01*
X152918870Y-58188757D01*
X152761257Y-58346370D01*
X152761251Y-58346377D01*
X152627271Y-58520986D01*
X152570844Y-58562189D01*
X152528895Y-58569500D01*
X142693779Y-58569500D01*
X142626740Y-58549815D01*
X142580985Y-58497011D01*
X142571041Y-58427853D01*
X142572162Y-58421309D01*
X142600499Y-58278846D01*
X142600500Y-58278844D01*
X142600500Y-58121155D01*
X142600499Y-58121153D01*
X142569737Y-57966503D01*
X142511525Y-57825965D01*
X142509397Y-57820827D01*
X142509390Y-57820814D01*
X142421789Y-57689711D01*
X142421786Y-57689707D01*
X142310292Y-57578213D01*
X142310288Y-57578210D01*
X142179185Y-57490609D01*
X142179172Y-57490602D01*
X142033501Y-57430264D01*
X142033489Y-57430261D01*
X141878845Y-57399500D01*
X141878842Y-57399500D01*
X141721158Y-57399500D01*
X141721157Y-57399500D01*
X141715095Y-57400097D01*
X141715002Y-57399153D01*
X141684095Y-57400162D01*
X141679059Y-57399499D01*
X141679057Y-57399499D01*
X141520943Y-57399499D01*
X141513347Y-57399499D01*
X141513331Y-57399500D01*
X139379766Y-57399500D01*
X139312727Y-57379815D01*
X139310875Y-57378602D01*
X139179185Y-57290609D01*
X139179172Y-57290602D01*
X139033501Y-57230264D01*
X139033489Y-57230261D01*
X138878845Y-57199500D01*
X138878842Y-57199500D01*
X138721158Y-57199500D01*
X138721155Y-57199500D01*
X138566510Y-57230261D01*
X138566498Y-57230264D01*
X138420827Y-57290602D01*
X138420814Y-57290609D01*
X138289711Y-57378210D01*
X138289707Y-57378213D01*
X138178213Y-57489707D01*
X138178210Y-57489711D01*
X138090609Y-57620814D01*
X138090602Y-57620827D01*
X138030264Y-57766498D01*
X138030261Y-57766510D01*
X137999500Y-57921153D01*
X137999500Y-58078846D01*
X138030261Y-58233489D01*
X138030264Y-58233501D01*
X138090602Y-58379172D01*
X138093479Y-58384554D01*
X138091677Y-58385516D01*
X138109766Y-58443290D01*
X138091279Y-58510670D01*
X138039299Y-58557359D01*
X137985786Y-58569500D01*
X131694362Y-58569500D01*
X131627323Y-58549815D01*
X131606681Y-58533181D01*
X131536819Y-58463319D01*
X131503334Y-58401996D01*
X131500500Y-58375638D01*
X131500500Y-58311306D01*
X131500499Y-58311304D01*
X131465896Y-58137341D01*
X131465893Y-58137332D01*
X131459192Y-58121155D01*
X131430984Y-58053052D01*
X131398016Y-57973459D01*
X131398009Y-57973446D01*
X131299464Y-57825965D01*
X131299461Y-57825961D01*
X131174038Y-57700538D01*
X131174034Y-57700535D01*
X131026553Y-57601990D01*
X131026540Y-57601983D01*
X130862667Y-57534106D01*
X130862658Y-57534103D01*
X130688694Y-57499500D01*
X130688691Y-57499500D01*
X130511309Y-57499500D01*
X130511306Y-57499500D01*
X130337341Y-57534103D01*
X130337332Y-57534106D01*
X130173459Y-57601983D01*
X130173446Y-57601990D01*
X130025965Y-57700535D01*
X130025961Y-57700538D01*
X129900538Y-57825961D01*
X129900535Y-57825965D01*
X129801990Y-57973446D01*
X129801983Y-57973459D01*
X129734106Y-58137332D01*
X129734103Y-58137341D01*
X129699500Y-58311304D01*
X87800500Y-58311304D01*
X87800500Y-56979765D01*
X87820185Y-56912726D01*
X87821398Y-56910874D01*
X87909390Y-56779185D01*
X87909390Y-56779184D01*
X87909394Y-56779179D01*
X87969737Y-56633497D01*
X88000500Y-56478842D01*
X88000500Y-56321158D01*
X88000500Y-56321155D01*
X88000499Y-56321153D01*
X87969738Y-56166510D01*
X87969737Y-56166503D01*
X87969735Y-56166498D01*
X87909397Y-56020827D01*
X87909390Y-56020814D01*
X87821789Y-55889711D01*
X87821786Y-55889707D01*
X87710289Y-55778210D01*
X87636975Y-55729224D01*
X87592170Y-55675612D01*
X87583463Y-55606287D01*
X87613617Y-55543260D01*
X87673060Y-55506540D01*
X87705941Y-55502122D01*
X87734338Y-55502141D01*
G37*
%TD.AperFunction*%
%TA.AperFunction,Conductor*%
G36*
X94305703Y-78755384D02*
G01*
X94312181Y-78761416D01*
X95313181Y-79762416D01*
X95346666Y-79823739D01*
X95349500Y-79850097D01*
X95349500Y-80642796D01*
X95329815Y-80709835D01*
X95313181Y-80730477D01*
X95219481Y-80824176D01*
X95219479Y-80824178D01*
X95193079Y-80869905D01*
X95181921Y-80889233D01*
X95140423Y-80961109D01*
X95099499Y-81113837D01*
X95099499Y-81113839D01*
X95099499Y-81281940D01*
X95099500Y-81281953D01*
X95099500Y-85925761D01*
X95079815Y-85992800D01*
X95027011Y-86038555D01*
X94999691Y-86047378D01*
X94861179Y-86074930D01*
X94861167Y-86074933D01*
X94715496Y-86135271D01*
X94715483Y-86135278D01*
X94584380Y-86222879D01*
X94584376Y-86222882D01*
X94577187Y-86230072D01*
X94515864Y-86263557D01*
X94446172Y-86258573D01*
X94390239Y-86216701D01*
X94365822Y-86151237D01*
X94365506Y-86142391D01*
X94365506Y-86106149D01*
X94365505Y-86106147D01*
X94359296Y-86074932D01*
X94334743Y-85951497D01*
X94328117Y-85935500D01*
X94274403Y-85805821D01*
X94274396Y-85805808D01*
X94186795Y-85674705D01*
X94186792Y-85674701D01*
X94075302Y-85563211D01*
X94075296Y-85563206D01*
X94061606Y-85554058D01*
X94016802Y-85500444D01*
X94006500Y-85450958D01*
X94006500Y-80320948D01*
X94019455Y-80269229D01*
X94018444Y-80268810D01*
X94073578Y-80135702D01*
X94073580Y-80135698D01*
X94100500Y-80000364D01*
X94100500Y-79862376D01*
X94100500Y-78849097D01*
X94120185Y-78782058D01*
X94172989Y-78736303D01*
X94242147Y-78726359D01*
X94305703Y-78755384D01*
G37*
%TD.AperFunction*%
%TD*%
M02*
