%TF.GenerationSoftware,KiCad,Pcbnew,10.0.6-10.0.6~ubuntu26.04.1*%
%TF.CreationDate,2026-09-09T01:59:43+02:00*%
%TF.ProjectId,usbpd-adapter,75736270-642d-4616-9461-707465722e6b,rev?*%
%TF.SameCoordinates,Original*%
%TF.FileFunction,Copper,L2,Bot*%
%TF.FilePolarity,Positive*%
%FSLAX46Y46*%
G04 Gerber Fmt 4.6, Leading zero omitted, Abs format (unit mm)*
G04 Created by KiCad (PCBNEW 10.0.6-10.0.6~ubuntu26.04.1) date 2026-09-09 01:59:43*
%MOMM*%
%LPD*%
G01*
G04 APERTURE LIST*
%TA.AperFunction,ComponentPad*%
%ADD10O,2.200000X1.450000*%
%TD*%
%TA.AperFunction,ComponentPad*%
%ADD11C,0.600000*%
%TD*%
%TA.AperFunction,SMDPad,CuDef*%
%ADD12R,2.950000X4.500000*%
%TD*%
%TA.AperFunction,ComponentPad*%
%ADD13R,2.780000X2.780000*%
%TD*%
%TA.AperFunction,ComponentPad*%
%ADD14C,2.780000*%
%TD*%
%TA.AperFunction,HeatsinkPad*%
%ADD15O,2.100000X1.000000*%
%TD*%
%TA.AperFunction,HeatsinkPad*%
%ADD16O,1.800000X1.000000*%
%TD*%
%TA.AperFunction,ViaPad*%
%ADD17C,0.600000*%
%TD*%
%TA.AperFunction,ViaPad*%
%ADD18C,0.900000*%
%TD*%
%TA.AperFunction,Conductor*%
%ADD19C,0.800000*%
%TD*%
%TA.AperFunction,Conductor*%
%ADD20C,0.200000*%
%TD*%
%TA.AperFunction,Conductor*%
%ADD21C,0.400000*%
%TD*%
G04 APERTURE END LIST*
D10*
%TO.P,J7,1,Pin_1_1*%
%TO.N,12V*%
X152806000Y-43688000D03*
%TO.P,J7,2,Pin_2_2*%
%TO.N,GND*%
X162306000Y-43688000D03*
%TO.P,J7,3,Pin_3_3*%
%TO.N,5V*%
X171806000Y-43688000D03*
%TD*%
%TO.P,J5,1,Pin_1_1*%
%TO.N,-12V*%
X90957000Y-43688000D03*
%TO.P,J5,2,Pin_2_2*%
%TO.N,GND*%
X100457000Y-43688000D03*
%TO.P,J5,3,Pin_3_3*%
%TO.N,-5V*%
X109957000Y-43688000D03*
%TD*%
D11*
%TO.P,U4,9,GNDPAD_9*%
%TO.N,/Negative Voltages/-12VP*%
X99850000Y-70800000D03*
X99850000Y-69600000D03*
X99850000Y-68300000D03*
X99850000Y-67200000D03*
D12*
X99250000Y-69000000D03*
D11*
X98650000Y-70800000D03*
X98650000Y-69600000D03*
X98650000Y-68300000D03*
X98650000Y-67200000D03*
%TD*%
D13*
%TO.P,J1,1,Pin_1_1*%
%TO.N,12V*%
X179772000Y-66294000D03*
D14*
%TO.P,J1,2,Pin_2_2*%
%TO.N,GND*%
X179772000Y-71374000D03*
%TO.P,J1,3,Pin_3_3*%
X179772000Y-76454000D03*
%TO.P,J1,4,Pin_4_4*%
%TO.N,5V*%
X179772000Y-81534000D03*
%TD*%
D10*
%TO.P,J6,1,Pin_1_1*%
%TO.N,9V*%
X121945000Y-43688000D03*
%TO.P,J6,2,Pin_2_2*%
%TO.N,GND*%
X131445000Y-43688000D03*
%TO.P,J6,3,Pin_3_3*%
%TO.N,3.3V*%
X140945000Y-43688000D03*
%TD*%
D15*
%TO.P,J3,S1,SHIELD_S1*%
%TO.N,Net-(J3-SHIELD)*%
X83587000Y-80262000D03*
D16*
X79407000Y-80262000D03*
D15*
X83587000Y-88902000D03*
D16*
X79407000Y-88902000D03*
%TD*%
D17*
%TO.N,5V*%
X167640000Y-81407000D03*
%TO.N,GND*%
X90932000Y-83693000D03*
%TO.N,Net-(U9-DP)*%
X96901000Y-89535000D03*
%TO.N,Net-(U9-DM)*%
X97663000Y-88773000D03*
%TO.N,Net-(J3-CC1)*%
X92837000Y-86995000D03*
%TO.N,Net-(J3-CC2)*%
X92964000Y-89916000D03*
%TO.N,GND*%
X85344000Y-87757000D03*
X85344000Y-81407000D03*
%TO.N,VBUS*%
X86868000Y-82169000D03*
X86868000Y-86995000D03*
%TO.N,Net-(D9-K)*%
X79756000Y-75692000D03*
%TO.N,5VP*%
X91313000Y-73279000D03*
%TO.N,Net-(D1-A)*%
X78232000Y-77724000D03*
%TO.N,GND*%
X83693000Y-74549000D03*
X78486000Y-73533000D03*
%TO.N,Net-(D1-A)*%
X101800000Y-90800000D03*
%TO.N,VBUS*%
X87000347Y-64122989D03*
X91400000Y-74400000D03*
X91325000Y-78105000D03*
X87400000Y-74400000D03*
%TO.N,Net-(D9-K)*%
X86969600Y-64922400D03*
%TO.N,5VP*%
X101295200Y-99263200D03*
X108407200Y-94500000D03*
X94437200Y-63804800D03*
X99600000Y-86400000D03*
%TO.N,5V*%
X167259000Y-60579000D03*
X167386000Y-55880000D03*
X156186500Y-55856500D03*
X135128000Y-87122000D03*
X140462000Y-53467000D03*
X130250000Y-94870000D03*
X138887200Y-94870000D03*
X144227158Y-73191624D03*
X154178000Y-54102000D03*
X139065000Y-56388000D03*
X146400000Y-75600000D03*
X167640000Y-95377000D03*
X156210000Y-60706000D03*
X166751000Y-43815000D03*
X137414000Y-53086000D03*
%TO.N,Net-(D10-K)*%
X149860000Y-55372000D03*
X147574000Y-91313000D03*
%TO.N,GND*%
X156845000Y-50419000D03*
X122000000Y-97750000D03*
X92600000Y-79600000D03*
X118000000Y-78000000D03*
X138684000Y-50546000D03*
X122000000Y-76000000D03*
X118000000Y-82000000D03*
X154686000Y-91567000D03*
D18*
X111500000Y-59500000D03*
D17*
X112000000Y-86000000D03*
X95000000Y-83600000D03*
X118000000Y-76000000D03*
X148463000Y-92456000D03*
X140716000Y-88138000D03*
X102500000Y-96750000D03*
X110490000Y-50292000D03*
X146558000Y-95250000D03*
X104020000Y-81250000D03*
X170942000Y-69088000D03*
X88750000Y-72750000D03*
X166497000Y-70231000D03*
X122000000Y-84000000D03*
X102500000Y-92000000D03*
D18*
X121000000Y-69750000D03*
D17*
X116000000Y-76000000D03*
X122000000Y-82000000D03*
X108000000Y-76000000D03*
X97500000Y-58250000D03*
X94132400Y-65684400D03*
D18*
X126750000Y-58250000D03*
D17*
X116000000Y-86000000D03*
X107250000Y-91000000D03*
X159385000Y-69469000D03*
X94056000Y-84000000D03*
X148082000Y-98044000D03*
X144780000Y-86868000D03*
D18*
X114750000Y-69750000D03*
D17*
X114000000Y-76000000D03*
X139827000Y-63373000D03*
X110000000Y-86000000D03*
X112000000Y-76000000D03*
X91186000Y-49657000D03*
X114500000Y-97750000D03*
X92330200Y-59457179D03*
X169545000Y-50546000D03*
X146939000Y-92837000D03*
X143573771Y-77558951D03*
X121666000Y-50038000D03*
X110000000Y-76000000D03*
X122000000Y-80000000D03*
X162433000Y-83566000D03*
D18*
X112500000Y-67000000D03*
D17*
X174625000Y-60706000D03*
X95026684Y-81433206D03*
X155702000Y-69723000D03*
X86750000Y-69500000D03*
X151511000Y-88773000D03*
X162433000Y-85852000D03*
X122000000Y-78000000D03*
X118000000Y-86000000D03*
X94691200Y-59944000D03*
X114000000Y-86000000D03*
X142875000Y-80873600D03*
X162941000Y-60706000D03*
X107000000Y-57750000D03*
X118000000Y-84000000D03*
X122000000Y-86000000D03*
X133800000Y-60800000D03*
X139446000Y-68834000D03*
X106200000Y-76000000D03*
D18*
X130250000Y-67000000D03*
D17*
X108000000Y-86000000D03*
X145923000Y-65151000D03*
X138836400Y-81483200D03*
X118000000Y-80000000D03*
%TO.N,Net-(U8-K)*%
X139838733Y-92098000D03*
X143002000Y-93218000D03*
%TO.N,Net-(D6-K)*%
X106553000Y-55372000D03*
X106553000Y-50419000D03*
%TO.N,-5V*%
X141224000Y-59436000D03*
X110109000Y-40513000D03*
X130600000Y-58400000D03*
X126619000Y-40386000D03*
%TO.N,Net-(U1-SW)*%
X107500000Y-97750000D03*
X104900000Y-98150000D03*
%TO.N,Net-(D8-K)*%
X146431000Y-78359000D03*
X149352000Y-52705000D03*
%TO.N,12V*%
X130302000Y-79630000D03*
X147850000Y-79629000D03*
X145415000Y-79630000D03*
X153797000Y-73279000D03*
X143291000Y-79550035D03*
%TO.N,Net-(D11-K)*%
X141732000Y-58293000D03*
X142875000Y-61468000D03*
%TO.N,-12V*%
X136570000Y-69830000D03*
X134200000Y-72200000D03*
X124841000Y-41783000D03*
D18*
%TO.N,Net-(D4-K)*%
X105800000Y-67200000D03*
X105200000Y-72200000D03*
X105500000Y-62500000D03*
D17*
%TO.N,Net-(U4-VSENSE)*%
X112000000Y-71250000D03*
X103250000Y-67250000D03*
%TO.N,Net-(D14-A)*%
X111379000Y-52578000D03*
X111506000Y-55880000D03*
%TO.N,Net-(D7-K)*%
X94869000Y-50546000D03*
X94869000Y-55626000D03*
%TO.N,Net-(D13-A)*%
X147955000Y-55753000D03*
X147701000Y-73152000D03*
%TO.N,Net-(D3-A)*%
X147231003Y-78359000D03*
X150749000Y-50800000D03*
%TO.N,Net-(U9-DP)*%
X100645200Y-77797830D03*
%TO.N,Net-(U9-DM)*%
X101295200Y-76860400D03*
%TO.N,Net-(J3-CC2)*%
X93588713Y-76539132D03*
%TO.N,Net-(J3-CC1)*%
X93743690Y-77374887D03*
%TO.N,Net-(D13-K)*%
X142621000Y-68072000D03*
X126492000Y-54102000D03*
%TO.N,Net-(D14-K)*%
X107696000Y-55880000D03*
X107823000Y-53340000D03*
%TO.N,9V*%
X164084000Y-78613000D03*
X164465000Y-41148000D03*
X165354000Y-66421000D03*
%TO.N,3.3V*%
X152527000Y-68326000D03*
X152273000Y-46990000D03*
X151892000Y-91821000D03*
X152400000Y-77343000D03*
%TO.N,Net-(D5-A)*%
X151384000Y-75692000D03*
X151257000Y-50165000D03*
%TO.N,Net-(D16-A)*%
X163449000Y-55626000D03*
X163576000Y-75692000D03*
%TO.N,Net-(D17-K)*%
X171958000Y-59944000D03*
X171831000Y-57150000D03*
%TO.N,Net-(D18-K)*%
X160274000Y-54737000D03*
X160274000Y-57785000D03*
%TO.N,Net-(U3-FB)*%
X160528000Y-84466000D03*
X155194000Y-83820000D03*
%TD*%
%TO.N,3.3V*%
D19*
X151892000Y-91821000D02*
X152781000Y-90932000D01*
X152781000Y-90932000D02*
X152781000Y-77724000D01*
X152781000Y-77724000D02*
X152400000Y-77343000D01*
%TO.N,VBUS*%
D20*
X87200000Y-69969239D02*
X87400000Y-69769239D01*
X87200000Y-65572400D02*
X87619600Y-65152800D01*
X87400000Y-74400000D02*
X87200000Y-74200000D01*
X87200000Y-74200000D02*
X87200000Y-69969239D01*
X87400000Y-69769239D02*
X87400000Y-69230761D01*
X87400000Y-69230761D02*
X87200000Y-69030761D01*
X87199758Y-64322400D02*
X87000347Y-64122989D01*
X87200000Y-69030761D02*
X87200000Y-65572400D01*
X87619600Y-65152800D02*
X87619600Y-64653161D01*
X87288839Y-64322400D02*
X87199758Y-64322400D01*
X87619600Y-64653161D02*
X87288839Y-64322400D01*
D19*
X91325000Y-78105000D02*
X91400000Y-78030000D01*
X91400000Y-78030000D02*
X91400000Y-74400000D01*
%TO.N,GND*%
X88750000Y-72750000D02*
X88750000Y-78082000D01*
X88750000Y-78082000D02*
X90268000Y-79600000D01*
X90268000Y-79600000D02*
X92600000Y-79600000D01*
%TO.N,3.3V*%
X152273000Y-46990000D02*
X152273000Y-61976000D01*
X152273000Y-61976000D02*
X152527000Y-62230000D01*
X152527000Y-62230000D02*
X152527000Y-68326000D01*
%TO.N,Net-(D5-A)*%
D20*
X151257000Y-50165000D02*
X151257000Y-50292000D01*
X151257000Y-50292000D02*
X151384000Y-50419000D01*
X151384000Y-50419000D02*
X151384000Y-75692000D01*
%TO.N,12V*%
D19*
X153554000Y-45961000D02*
X153554000Y-49139993D01*
X153278000Y-54474793D02*
X153543000Y-54739793D01*
X153278000Y-53729207D02*
X153278000Y-54474793D01*
X153543000Y-61341000D02*
X153797000Y-61595000D01*
X152806000Y-45213000D02*
X153554000Y-45961000D01*
X153665001Y-51644691D02*
X153554000Y-51755692D01*
X153797000Y-61595000D02*
X153797000Y-73279000D01*
X153554000Y-51755692D02*
X153554000Y-53453207D01*
X153554000Y-53453207D02*
X153278000Y-53729207D01*
X153554000Y-49139993D02*
X153665001Y-49250994D01*
X153665001Y-49250994D02*
X153665001Y-51644691D01*
X153543000Y-54739793D02*
X153543000Y-61341000D01*
X152806000Y-43688000D02*
X152806000Y-45213000D01*
%TO.N,Net-(D3-A)*%
D20*
X150749000Y-50800000D02*
X150749000Y-52451000D01*
X150749000Y-52451000D02*
X148555000Y-54645000D01*
X147231003Y-77304997D02*
X147231003Y-78359000D01*
X148555000Y-54645000D02*
X148555000Y-73217239D01*
X148082000Y-73690239D02*
X148082000Y-76454000D01*
X148555000Y-73217239D02*
X148082000Y-73690239D01*
X148082000Y-76454000D02*
X147231003Y-77304997D01*
%TO.N,5V*%
D19*
X167640000Y-80010000D02*
X167640000Y-81407000D01*
%TO.N,Net-(U9-DM)*%
D20*
X101295200Y-87357486D02*
X101295200Y-76860400D01*
X97663000Y-88773000D02*
X99879686Y-88773000D01*
%TO.N,Net-(U9-DP)*%
X97663000Y-88138000D02*
X97449471Y-88138000D01*
%TO.N,Net-(U9-DM)*%
X99879686Y-88773000D02*
X101295200Y-87357486D01*
%TO.N,Net-(U9-DP)*%
X100645200Y-77797830D02*
X100746800Y-77899430D01*
X100746800Y-77899430D02*
X100746800Y-87340200D01*
X100746800Y-87340200D02*
X99914000Y-88173000D01*
X99914000Y-88173000D02*
X97698000Y-88173000D01*
X97698000Y-88173000D02*
X97663000Y-88138000D01*
X97449471Y-88138000D02*
X96901000Y-88686471D01*
X96901000Y-88686471D02*
X96901000Y-89535000D01*
%TO.N,Net-(J3-CC1)*%
X92837000Y-86995000D02*
X92842000Y-87000000D01*
X95700000Y-81192894D02*
X95950000Y-80942894D01*
X95950000Y-80942894D02*
X95950000Y-79550000D01*
X94939338Y-87000000D02*
X95700000Y-86239338D01*
X92842000Y-87000000D02*
X94939338Y-87000000D01*
X95700000Y-86239338D02*
X95700000Y-81192894D01*
X95950000Y-79550000D02*
X93774887Y-77374887D01*
X93774887Y-77374887D02*
X93743690Y-77374887D01*
%TO.N,Net-(J3-CC2)*%
X97700000Y-81792893D02*
X97500000Y-81592893D01*
X96850000Y-87057106D02*
X97700000Y-86207106D01*
X96850000Y-88150000D02*
X96850000Y-87057106D01*
X95066034Y-89933966D02*
X96850000Y-88150000D01*
X92981966Y-89933966D02*
X95066034Y-89933966D01*
X97500000Y-80500000D02*
X94393690Y-77393690D01*
X92964000Y-89916000D02*
X92981966Y-89933966D01*
X94393690Y-77393690D02*
X94393690Y-77105648D01*
X97700000Y-86207106D02*
X97700000Y-81792893D01*
X97500000Y-81592893D02*
X97500000Y-80500000D01*
X94393690Y-77105648D02*
X93827174Y-76539132D01*
X93827174Y-76539132D02*
X93588713Y-76539132D01*
%TO.N,VBUS*%
D19*
X86868000Y-82169000D02*
X86868000Y-86995000D01*
%TO.N,Net-(J3-SHIELD)*%
X79407000Y-88902000D02*
X79407000Y-80262000D01*
X83587000Y-88902000D02*
X79407000Y-88902000D01*
X79407000Y-80262000D02*
X83587000Y-80262000D01*
%TO.N,Net-(D9-K)*%
D20*
X79756000Y-75692000D02*
X81499000Y-73949000D01*
X81499000Y-73949000D02*
X85436000Y-73949000D01*
X85436000Y-73949000D02*
X85471000Y-73914000D01*
X85471000Y-73914000D02*
X85471000Y-66421000D01*
X85471000Y-66421000D02*
X86969600Y-64922400D01*
%TO.N,5VP*%
X97475000Y-72075000D02*
X97980500Y-72580500D01*
X92011500Y-72580500D02*
X97980500Y-72580500D01*
X91313000Y-73279000D02*
X92011500Y-72580500D01*
%TO.N,Net-(D1-A)*%
X78232000Y-77724000D02*
X77978000Y-77978000D01*
X79121000Y-91059000D02*
X98787486Y-91059000D01*
X77978000Y-77978000D02*
X77978000Y-89916000D01*
X77978000Y-89916000D02*
X79121000Y-91059000D01*
X98787486Y-91059000D02*
X99046486Y-90800000D01*
X99046486Y-90800000D02*
X101800000Y-90800000D01*
%TO.N,5VP*%
X94437200Y-63804800D02*
X97475000Y-66842600D01*
X98400000Y-73000000D02*
X98400000Y-80724809D01*
X98750818Y-81075627D02*
X98750818Y-85550818D01*
X98400000Y-80724809D02*
X98750818Y-81075627D01*
X97980500Y-72580500D02*
X98400000Y-73000000D01*
X101295200Y-99263200D02*
X107188000Y-99263200D01*
X107188000Y-99263200D02*
X108407200Y-98044000D01*
X108407200Y-98044000D02*
X108407200Y-94500000D01*
X98750818Y-85550818D02*
X99600000Y-86400000D01*
X97475000Y-66842600D02*
X97475000Y-72075000D01*
%TO.N,5V*%
D19*
X165597000Y-68464000D02*
X165597000Y-77967000D01*
D20*
X155932500Y-55856500D02*
X156186500Y-55856500D01*
X167386000Y-60452000D02*
X167259000Y-60579000D01*
X139065000Y-54640239D02*
X139192000Y-54513239D01*
D19*
X166254000Y-66048207D02*
X166254000Y-67807000D01*
D20*
X138303000Y-53975000D02*
X139192000Y-53975000D01*
X135128000Y-87122000D02*
X135128000Y-94870000D01*
D19*
X167640000Y-81407000D02*
X167640000Y-95377000D01*
X130250000Y-94870000D02*
X135128000Y-94870000D01*
X165735000Y-65529207D02*
X166254000Y-66048207D01*
D20*
X144227158Y-73191624D02*
X144227158Y-73427158D01*
X140589000Y-53594000D02*
X140462000Y-53467000D01*
X140320000Y-53325000D02*
X140462000Y-53467000D01*
D19*
X165597000Y-77967000D02*
X167640000Y-80010000D01*
D20*
X167386000Y-55880000D02*
X167386000Y-60452000D01*
X139065000Y-56388000D02*
X139065000Y-54640239D01*
D19*
X135128000Y-94870000D02*
X138887200Y-94870000D01*
D20*
X139334239Y-53325000D02*
X140320000Y-53325000D01*
D19*
X165735000Y-44831000D02*
X165735000Y-65529207D01*
D20*
X144227158Y-73427158D02*
X146400000Y-75600000D01*
D19*
X166254000Y-67807000D02*
X165597000Y-68464000D01*
D20*
X139192000Y-53467239D02*
X139334239Y-53325000D01*
X156210000Y-60706000D02*
X156210000Y-55880000D01*
X139192000Y-54513239D02*
X139192000Y-53975000D01*
X154178000Y-54102000D02*
X155932500Y-55856500D01*
X156210000Y-55880000D02*
X156186500Y-55856500D01*
D19*
X166751000Y-43815000D02*
X165735000Y-44831000D01*
D20*
X139192000Y-53975000D02*
X139192000Y-53467239D01*
X137414000Y-53086000D02*
X138303000Y-53975000D01*
%TO.N,Net-(D10-K)*%
X148590000Y-79121239D02*
X148590000Y-90297000D01*
X147970000Y-78501239D02*
X148590000Y-79121239D01*
X149117000Y-73220925D02*
X148555000Y-73782925D01*
X149860000Y-55372000D02*
X149352000Y-55372000D01*
X149352000Y-55372000D02*
X149117000Y-55607000D01*
X148555000Y-76546686D02*
X147970000Y-77131686D01*
X148590000Y-90297000D02*
X147574000Y-91313000D01*
X147970000Y-77131686D02*
X147970000Y-78501239D01*
X148555000Y-73782925D02*
X148555000Y-76546686D01*
X149117000Y-55607000D02*
X149117000Y-73220925D01*
%TO.N,GND*%
D21*
X102500000Y-96750000D02*
X102500000Y-92000000D01*
D20*
X86800000Y-69550000D02*
X86750000Y-69500000D01*
X94691200Y-59944000D02*
X94640400Y-59893200D01*
D19*
X127500000Y-69750000D02*
X121000000Y-69750000D01*
D20*
X92330200Y-59676200D02*
X92547200Y-59893200D01*
D19*
X111500000Y-59500000D02*
X111500000Y-66000000D01*
D21*
X102500000Y-82770000D02*
X104020000Y-81250000D01*
D19*
X114750000Y-69750000D02*
X121000000Y-69750000D01*
X126750000Y-59076214D02*
X130250000Y-62576214D01*
D21*
X102500000Y-92000000D02*
X102500000Y-82770000D01*
D20*
X92330200Y-59457179D02*
X92330200Y-59676200D01*
D21*
X114000000Y-97250000D02*
X114500000Y-97750000D01*
D19*
X111500000Y-66000000D02*
X112500000Y-67000000D01*
X126750000Y-58250000D02*
X126750000Y-59076214D01*
D20*
X94640400Y-59893200D02*
X92547200Y-59893200D01*
D21*
X114000000Y-91000000D02*
X114000000Y-97250000D01*
D19*
X130250000Y-67000000D02*
X127500000Y-69750000D01*
D21*
X107250000Y-91000000D02*
X114000000Y-91000000D01*
D19*
X130250000Y-62576214D02*
X130250000Y-67000000D01*
%TO.N,Net-(U8-K)*%
D20*
X140958733Y-93218000D02*
X143002000Y-93218000D01*
X139838733Y-92098000D02*
X140958733Y-93218000D01*
%TO.N,Net-(D6-K)*%
X106553000Y-55372000D02*
X106553000Y-50419000D01*
%TO.N,-5V*%
D19*
X110109000Y-40513000D02*
X110109000Y-43536000D01*
D20*
X141224000Y-59436000D02*
X140326500Y-59436000D01*
D19*
X130600000Y-58800000D02*
X131270000Y-59470000D01*
D20*
X140326500Y-59436000D02*
X140292500Y-59470000D01*
D19*
X130600000Y-58400000D02*
X130600000Y-56813000D01*
X130600000Y-56813000D02*
X126619000Y-52832000D01*
X131270000Y-59470000D02*
X140292500Y-59470000D01*
X130600000Y-58400000D02*
X130600000Y-58800000D01*
X126619000Y-52832000D02*
X126619000Y-40386000D01*
X110109000Y-43536000D02*
X109957000Y-43688000D01*
%TO.N,Net-(U1-SW)*%
D21*
X104900000Y-98150000D02*
X105000000Y-98250000D01*
X105000000Y-98250000D02*
X107000000Y-98250000D01*
X107000000Y-98250000D02*
X107500000Y-97750000D01*
%TO.N,Net-(D8-K)*%
D20*
X146920000Y-68414314D02*
X147066000Y-68268314D01*
X146431000Y-77978000D02*
X146831003Y-77577997D01*
X146831003Y-77577997D02*
X146831003Y-76758311D01*
X147066000Y-68268314D02*
X147066000Y-54991000D01*
X147066000Y-73717686D02*
X146920000Y-73571686D01*
X146920000Y-73571686D02*
X146920000Y-68414314D01*
X146431000Y-78359000D02*
X146431000Y-77978000D01*
X146831003Y-76758311D02*
X147066000Y-76523314D01*
X147066000Y-54991000D02*
X149352000Y-52705000D01*
X147066000Y-76523314D02*
X147066000Y-73717686D01*
%TO.N,12V*%
D19*
X142728265Y-79000000D02*
X140600000Y-79000000D01*
X140600000Y-79000000D02*
X139970000Y-79630000D01*
X130302000Y-79630000D02*
X130250000Y-79630000D01*
X147850000Y-79629000D02*
X146301000Y-79629000D01*
X139970000Y-79630000D02*
X130302000Y-79630000D01*
X146301000Y-79629000D02*
X146300000Y-79630000D01*
X143430000Y-79630000D02*
X145415000Y-79630000D01*
X143291000Y-79550035D02*
X143350035Y-79550035D01*
X143278300Y-79550035D02*
X142728265Y-79000000D01*
X143291000Y-79550035D02*
X143278300Y-79550035D01*
X145415000Y-79630000D02*
X146300000Y-79630000D01*
X143350035Y-79550035D02*
X143430000Y-79630000D01*
%TO.N,Net-(D11-K)*%
D20*
X142875000Y-61468000D02*
X142875000Y-59436000D01*
X142875000Y-59436000D02*
X141732000Y-58293000D01*
%TO.N,-12V*%
D19*
X135521500Y-70878500D02*
X131300000Y-66657000D01*
X131300000Y-66657000D02*
X131300000Y-61831000D01*
X131300000Y-61831000D02*
X128016000Y-58547000D01*
X134200000Y-72200000D02*
X135521500Y-70878500D01*
X124841000Y-54483000D02*
X124841000Y-41783000D01*
X128016000Y-58547000D02*
X128016000Y-57658000D01*
X128016000Y-57658000D02*
X124841000Y-54483000D01*
X135521500Y-70878500D02*
X136570000Y-69830000D01*
%TO.N,Net-(D4-K)*%
X105200000Y-67800000D02*
X105800000Y-67200000D01*
X105600000Y-67000000D02*
X105800000Y-67200000D01*
X105200000Y-72200000D02*
X105200000Y-67800000D01*
X105500000Y-67000000D02*
X105600000Y-67000000D01*
X105500000Y-62500000D02*
X105500000Y-67000000D01*
%TO.N,Net-(U4-VSENSE)*%
D20*
X111500000Y-72750000D02*
X112000000Y-72250000D01*
X106050000Y-72750000D02*
X111500000Y-72750000D01*
X103250000Y-67250000D02*
X103250000Y-72000000D01*
X112000000Y-72250000D02*
X112000000Y-71250000D01*
X103250000Y-72000000D02*
X104250000Y-73000000D01*
X104250000Y-73000000D02*
X105800000Y-73000000D01*
X105800000Y-73000000D02*
X106050000Y-72750000D01*
%TO.N,Net-(D14-A)*%
X111506000Y-55880000D02*
X111506000Y-52705000D01*
X111506000Y-52705000D02*
X111379000Y-52578000D01*
%TO.N,Net-(D7-K)*%
X94869000Y-55626000D02*
X94869000Y-50546000D01*
%TO.N,Net-(D13-A)*%
X147955000Y-55753000D02*
X147955000Y-72898000D01*
X147955000Y-72898000D02*
X147701000Y-73152000D01*
%TO.N,Net-(D13-K)*%
X135001000Y-65405000D02*
X132000000Y-62404000D01*
X128716000Y-57368050D02*
X126492000Y-55144050D01*
X132000000Y-61541050D02*
X128716000Y-58257050D01*
X132000000Y-62404000D02*
X132000000Y-61541050D01*
X126492000Y-55144050D02*
X126492000Y-54102000D01*
X128716000Y-58257050D02*
X128716000Y-57368050D01*
X142621000Y-66040000D02*
X141986000Y-65405000D01*
X142621000Y-68072000D02*
X142621000Y-66040000D01*
X141986000Y-65405000D02*
X135001000Y-65405000D01*
%TO.N,Net-(D14-K)*%
X107696000Y-53467000D02*
X107823000Y-53340000D01*
X107696000Y-55880000D02*
X107696000Y-53467000D01*
%TO.N,9V*%
X165354000Y-66421000D02*
X164476000Y-66421000D01*
D19*
X164476000Y-41159000D02*
X164476000Y-66421000D01*
X164476000Y-78221000D02*
X164084000Y-78613000D01*
X164465000Y-41148000D02*
X164476000Y-41159000D01*
X164476000Y-66421000D02*
X164476000Y-78221000D01*
%TO.N,3.3V*%
X152400000Y-68453000D02*
X152400000Y-77343000D01*
D21*
X152527000Y-68326000D02*
X152400000Y-68453000D01*
%TO.N,Net-(D16-A)*%
D20*
X163449000Y-55626000D02*
X163576000Y-55753000D01*
X163576000Y-55753000D02*
X163576000Y-75692000D01*
%TO.N,Net-(D17-K)*%
X171831000Y-57150000D02*
X171831000Y-59817000D01*
X171831000Y-59817000D02*
X171958000Y-59944000D01*
%TO.N,Net-(D18-K)*%
X160274000Y-57785000D02*
X160274000Y-54737000D01*
%TO.N,Net-(U3-FB)*%
X155840000Y-84466000D02*
X160528000Y-84466000D01*
X155194000Y-83820000D02*
X155840000Y-84466000D01*
%TD*%
%TA.AperFunction,Conductor*%
%TO.N,GND*%
G36*
X183645153Y-32206733D02*
G01*
X183712168Y-32226500D01*
X183757858Y-32279361D01*
X183769000Y-32330733D01*
X183769000Y-99634900D01*
X183749315Y-99701939D01*
X183696511Y-99747694D01*
X183645306Y-99758900D01*
X107653570Y-99946534D01*
X107586482Y-99927015D01*
X107540597Y-99874324D01*
X107530483Y-99805190D01*
X107559351Y-99741563D01*
X107565583Y-99734853D01*
X107598497Y-99701939D01*
X107668520Y-99631916D01*
X107668520Y-99631914D01*
X107678724Y-99621711D01*
X107678728Y-99621706D01*
X108765706Y-98534728D01*
X108765711Y-98534724D01*
X108775914Y-98524520D01*
X108775916Y-98524520D01*
X108887720Y-98412716D01*
X108941831Y-98318993D01*
X108966777Y-98275785D01*
X109007700Y-98123057D01*
X109007700Y-97964943D01*
X109007700Y-95079765D01*
X109027385Y-95012726D01*
X109028598Y-95010874D01*
X109116590Y-94879185D01*
X109116590Y-94879184D01*
X109116594Y-94879179D01*
X109157135Y-94781304D01*
X129349500Y-94781304D01*
X129349500Y-94958695D01*
X129384103Y-95132658D01*
X129384106Y-95132667D01*
X129451983Y-95296540D01*
X129451990Y-95296553D01*
X129550535Y-95444034D01*
X129550538Y-95444038D01*
X129675961Y-95569461D01*
X129675965Y-95569464D01*
X129823446Y-95668009D01*
X129823459Y-95668016D01*
X129946363Y-95718923D01*
X129987334Y-95735894D01*
X129987336Y-95735894D01*
X129987341Y-95735896D01*
X130161304Y-95770499D01*
X130161307Y-95770500D01*
X130161309Y-95770500D01*
X138975893Y-95770500D01*
X138975894Y-95770499D01*
X139033882Y-95758964D01*
X139149858Y-95735896D01*
X139149861Y-95735894D01*
X139149866Y-95735894D01*
X139313747Y-95668013D01*
X139461235Y-95569464D01*
X139586664Y-95444035D01*
X139685213Y-95296547D01*
X139753094Y-95132666D01*
X139787700Y-94958691D01*
X139787700Y-94781309D01*
X139787700Y-94781306D01*
X139787699Y-94781304D01*
X139753096Y-94607341D01*
X139753093Y-94607332D01*
X139685216Y-94443459D01*
X139685209Y-94443446D01*
X139586664Y-94295965D01*
X139586661Y-94295961D01*
X139461238Y-94170538D01*
X139461234Y-94170535D01*
X139313753Y-94071990D01*
X139313740Y-94071983D01*
X139149867Y-94004106D01*
X139149858Y-94004103D01*
X138975894Y-93969500D01*
X138975891Y-93969500D01*
X135852500Y-93969500D01*
X135785461Y-93949815D01*
X135739706Y-93897011D01*
X135728500Y-93845500D01*
X135728500Y-92019153D01*
X139038233Y-92019153D01*
X139038233Y-92176846D01*
X139068994Y-92331489D01*
X139068997Y-92331501D01*
X139129335Y-92477172D01*
X139129342Y-92477185D01*
X139216943Y-92608288D01*
X139216946Y-92608292D01*
X139328440Y-92719786D01*
X139328444Y-92719789D01*
X139459547Y-92807390D01*
X139459560Y-92807397D01*
X139605231Y-92867735D01*
X139605236Y-92867737D01*
X139669880Y-92880595D01*
X139760582Y-92898638D01*
X139822493Y-92931023D01*
X139824072Y-92932574D01*
X140473872Y-93582374D01*
X140473882Y-93582385D01*
X140478212Y-93586715D01*
X140478213Y-93586716D01*
X140590017Y-93698520D01*
X140641578Y-93728288D01*
X140676828Y-93748639D01*
X140676830Y-93748641D01*
X140726946Y-93777576D01*
X140726948Y-93777577D01*
X140879675Y-93818500D01*
X140879676Y-93818500D01*
X142422234Y-93818500D01*
X142489273Y-93838185D01*
X142491125Y-93839398D01*
X142622814Y-93927390D01*
X142622827Y-93927397D01*
X142768498Y-93987735D01*
X142768503Y-93987737D01*
X142923153Y-94018499D01*
X142923156Y-94018500D01*
X142923158Y-94018500D01*
X143080844Y-94018500D01*
X143080845Y-94018499D01*
X143235497Y-93987737D01*
X143381179Y-93927394D01*
X143512289Y-93839789D01*
X143623789Y-93728289D01*
X143711394Y-93597179D01*
X143771737Y-93451497D01*
X143802500Y-93296842D01*
X143802500Y-93139158D01*
X143802500Y-93139155D01*
X143802499Y-93139153D01*
X143771738Y-92984510D01*
X143771737Y-92984503D01*
X143771735Y-92984498D01*
X143711397Y-92838827D01*
X143711390Y-92838814D01*
X143623789Y-92707711D01*
X143623786Y-92707707D01*
X143512292Y-92596213D01*
X143512288Y-92596210D01*
X143381185Y-92508609D01*
X143381172Y-92508602D01*
X143235501Y-92448264D01*
X143235489Y-92448261D01*
X143080845Y-92417500D01*
X143080842Y-92417500D01*
X142923158Y-92417500D01*
X142923155Y-92417500D01*
X142768510Y-92448261D01*
X142768498Y-92448264D01*
X142622827Y-92508602D01*
X142622814Y-92508609D01*
X142491125Y-92596602D01*
X142424447Y-92617480D01*
X142422234Y-92617500D01*
X141258830Y-92617500D01*
X141191791Y-92597815D01*
X141171149Y-92581181D01*
X140673307Y-92083339D01*
X140639822Y-92022016D01*
X140639371Y-92019849D01*
X140621328Y-91929147D01*
X140608470Y-91864503D01*
X140591399Y-91823289D01*
X140548130Y-91718827D01*
X140548123Y-91718814D01*
X140460522Y-91587711D01*
X140460519Y-91587707D01*
X140349025Y-91476213D01*
X140349021Y-91476210D01*
X140217918Y-91388609D01*
X140217905Y-91388602D01*
X140072234Y-91328264D01*
X140072222Y-91328261D01*
X139917578Y-91297500D01*
X139917575Y-91297500D01*
X139759891Y-91297500D01*
X139759888Y-91297500D01*
X139605243Y-91328261D01*
X139605231Y-91328264D01*
X139459560Y-91388602D01*
X139459547Y-91388609D01*
X139328444Y-91476210D01*
X139328440Y-91476213D01*
X139216946Y-91587707D01*
X139216943Y-91587711D01*
X139129342Y-91718814D01*
X139129335Y-91718827D01*
X139068997Y-91864498D01*
X139068994Y-91864510D01*
X139038233Y-92019153D01*
X135728500Y-92019153D01*
X135728500Y-87701765D01*
X135748185Y-87634726D01*
X135749398Y-87632874D01*
X135806266Y-87547766D01*
X135837394Y-87501179D01*
X135897737Y-87355497D01*
X135928500Y-87200842D01*
X135928500Y-87043158D01*
X135928500Y-87043155D01*
X135928499Y-87043153D01*
X135902071Y-86910292D01*
X135897737Y-86888503D01*
X135897735Y-86888498D01*
X135837397Y-86742827D01*
X135837390Y-86742814D01*
X135749789Y-86611711D01*
X135749786Y-86611707D01*
X135638292Y-86500213D01*
X135638288Y-86500210D01*
X135507185Y-86412609D01*
X135507172Y-86412602D01*
X135361501Y-86352264D01*
X135361489Y-86352261D01*
X135206845Y-86321500D01*
X135206842Y-86321500D01*
X135049158Y-86321500D01*
X135049155Y-86321500D01*
X134894510Y-86352261D01*
X134894498Y-86352264D01*
X134748827Y-86412602D01*
X134748814Y-86412609D01*
X134617711Y-86500210D01*
X134617707Y-86500213D01*
X134506213Y-86611707D01*
X134506210Y-86611711D01*
X134418609Y-86742814D01*
X134418602Y-86742827D01*
X134358264Y-86888498D01*
X134358261Y-86888510D01*
X134327500Y-87043153D01*
X134327500Y-87200846D01*
X134358261Y-87355489D01*
X134358264Y-87355501D01*
X134418602Y-87501172D01*
X134418609Y-87501185D01*
X134506602Y-87632874D01*
X134527480Y-87699551D01*
X134527500Y-87701765D01*
X134527500Y-93845500D01*
X134507815Y-93912539D01*
X134455011Y-93958294D01*
X134403500Y-93969500D01*
X130161306Y-93969500D01*
X129987341Y-94004103D01*
X129987332Y-94004106D01*
X129823459Y-94071983D01*
X129823446Y-94071990D01*
X129675965Y-94170535D01*
X129675961Y-94170538D01*
X129550538Y-94295961D01*
X129550535Y-94295965D01*
X129451990Y-94443446D01*
X129451983Y-94443459D01*
X129384106Y-94607332D01*
X129384103Y-94607341D01*
X129349500Y-94781304D01*
X109157135Y-94781304D01*
X109176937Y-94733497D01*
X109207700Y-94578842D01*
X109207700Y-94421158D01*
X109207700Y-94421155D01*
X109207699Y-94421153D01*
X109182797Y-94295965D01*
X109176937Y-94266503D01*
X109157553Y-94219706D01*
X109116597Y-94120827D01*
X109116590Y-94120814D01*
X109028989Y-93989711D01*
X109028986Y-93989707D01*
X108917492Y-93878213D01*
X108917488Y-93878210D01*
X108786385Y-93790609D01*
X108786372Y-93790602D01*
X108640701Y-93730264D01*
X108640689Y-93730261D01*
X108486045Y-93699500D01*
X108486042Y-93699500D01*
X108328358Y-93699500D01*
X108328355Y-93699500D01*
X108173710Y-93730261D01*
X108173698Y-93730264D01*
X108028027Y-93790602D01*
X108028014Y-93790609D01*
X107896911Y-93878210D01*
X107896907Y-93878213D01*
X107785413Y-93989707D01*
X107785410Y-93989711D01*
X107697809Y-94120814D01*
X107697802Y-94120827D01*
X107637464Y-94266498D01*
X107637461Y-94266510D01*
X107606700Y-94421153D01*
X107606700Y-94578846D01*
X107637461Y-94733489D01*
X107637464Y-94733501D01*
X107697802Y-94879172D01*
X107697809Y-94879185D01*
X107785802Y-95010874D01*
X107806680Y-95077551D01*
X107806700Y-95079765D01*
X107806700Y-96843729D01*
X107787015Y-96910768D01*
X107734211Y-96956523D01*
X107665053Y-96966467D01*
X107658509Y-96965346D01*
X107578846Y-96949500D01*
X107578842Y-96949500D01*
X107421158Y-96949500D01*
X107421155Y-96949500D01*
X107266510Y-96980261D01*
X107266498Y-96980264D01*
X107120827Y-97040602D01*
X107120814Y-97040609D01*
X106989711Y-97128210D01*
X106989707Y-97128213D01*
X106878213Y-97239707D01*
X106878210Y-97239711D01*
X106790609Y-97370814D01*
X106790602Y-97370827D01*
X106748302Y-97472952D01*
X106704462Y-97527356D01*
X106638167Y-97549421D01*
X106633741Y-97549500D01*
X105479766Y-97549500D01*
X105412727Y-97529815D01*
X105410875Y-97528602D01*
X105279185Y-97440609D01*
X105279172Y-97440602D01*
X105133501Y-97380264D01*
X105133489Y-97380261D01*
X104978845Y-97349500D01*
X104978842Y-97349500D01*
X104821158Y-97349500D01*
X104821155Y-97349500D01*
X104666510Y-97380261D01*
X104666498Y-97380264D01*
X104520827Y-97440602D01*
X104520814Y-97440609D01*
X104389711Y-97528210D01*
X104389707Y-97528213D01*
X104278213Y-97639707D01*
X104278210Y-97639711D01*
X104190609Y-97770814D01*
X104190602Y-97770827D01*
X104130264Y-97916498D01*
X104130261Y-97916510D01*
X104099500Y-98071153D01*
X104099500Y-98228846D01*
X104130261Y-98383489D01*
X104130264Y-98383501D01*
X104174894Y-98491248D01*
X104182363Y-98560717D01*
X104151087Y-98623196D01*
X104090998Y-98658848D01*
X104060333Y-98662700D01*
X101874966Y-98662700D01*
X101807927Y-98643015D01*
X101806075Y-98641802D01*
X101674385Y-98553809D01*
X101674372Y-98553802D01*
X101528701Y-98493464D01*
X101528689Y-98493461D01*
X101374045Y-98462700D01*
X101374042Y-98462700D01*
X101216358Y-98462700D01*
X101216355Y-98462700D01*
X101061710Y-98493461D01*
X101061698Y-98493464D01*
X100916027Y-98553802D01*
X100916014Y-98553809D01*
X100784911Y-98641410D01*
X100784907Y-98641413D01*
X100673413Y-98752907D01*
X100673410Y-98752911D01*
X100585809Y-98884014D01*
X100585802Y-98884027D01*
X100525464Y-99029698D01*
X100525461Y-99029710D01*
X100494700Y-99184353D01*
X100494700Y-99342046D01*
X100525461Y-99496689D01*
X100525464Y-99496701D01*
X100585802Y-99642372D01*
X100585809Y-99642385D01*
X100671838Y-99771136D01*
X100692716Y-99837814D01*
X100674231Y-99905194D01*
X100622253Y-99951884D01*
X100569042Y-99964027D01*
X77594306Y-100020755D01*
X77527218Y-100001236D01*
X77481333Y-99948545D01*
X77470000Y-99896755D01*
X77470000Y-95128711D01*
X79683500Y-95128711D01*
X79683500Y-95371288D01*
X79715161Y-95611785D01*
X79777947Y-95846104D01*
X79870773Y-96070205D01*
X79870777Y-96070214D01*
X79892974Y-96108661D01*
X79992064Y-96280289D01*
X79992066Y-96280292D01*
X79992067Y-96280293D01*
X80139733Y-96472736D01*
X80139739Y-96472743D01*
X80311256Y-96644260D01*
X80311262Y-96644265D01*
X80503711Y-96791936D01*
X80713788Y-96913224D01*
X80937900Y-97006054D01*
X81172211Y-97068838D01*
X81352586Y-97092584D01*
X81412711Y-97100500D01*
X81412712Y-97100500D01*
X81655289Y-97100500D01*
X81703388Y-97094167D01*
X81895789Y-97068838D01*
X82130100Y-97006054D01*
X82354212Y-96913224D01*
X82564289Y-96791936D01*
X82756738Y-96644265D01*
X82928265Y-96472738D01*
X83075936Y-96280289D01*
X83197224Y-96070212D01*
X83290054Y-95846100D01*
X83352838Y-95611789D01*
X83384500Y-95371288D01*
X83384500Y-95128712D01*
X83352838Y-94888211D01*
X83290054Y-94653900D01*
X83197224Y-94429788D01*
X83075936Y-94219711D01*
X82928265Y-94027262D01*
X82928260Y-94027256D01*
X82756743Y-93855739D01*
X82756736Y-93855733D01*
X82564293Y-93708067D01*
X82564292Y-93708066D01*
X82564289Y-93708064D01*
X82372231Y-93597179D01*
X82354214Y-93586777D01*
X82354205Y-93586773D01*
X82130104Y-93493947D01*
X82012944Y-93462554D01*
X81895789Y-93431162D01*
X81895788Y-93431161D01*
X81895785Y-93431161D01*
X81655289Y-93399500D01*
X81655288Y-93399500D01*
X81412712Y-93399500D01*
X81412711Y-93399500D01*
X81172214Y-93431161D01*
X80937895Y-93493947D01*
X80713794Y-93586773D01*
X80713785Y-93586777D01*
X80503706Y-93708067D01*
X80311263Y-93855733D01*
X80311256Y-93855739D01*
X80139739Y-94027256D01*
X80139733Y-94027263D01*
X79992067Y-94219706D01*
X79870777Y-94429785D01*
X79870773Y-94429794D01*
X79777947Y-94653895D01*
X79715161Y-94888214D01*
X79683500Y-95128711D01*
X77470000Y-95128711D01*
X77470000Y-90556597D01*
X77489685Y-90489558D01*
X77542489Y-90443803D01*
X77611647Y-90433859D01*
X77675203Y-90462884D01*
X77681681Y-90468916D01*
X78636139Y-91423374D01*
X78636149Y-91423385D01*
X78640479Y-91427715D01*
X78640480Y-91427716D01*
X78752284Y-91539520D01*
X78835394Y-91587503D01*
X78889215Y-91618577D01*
X79041943Y-91659500D01*
X79200057Y-91659500D01*
X98700817Y-91659500D01*
X98700833Y-91659501D01*
X98708429Y-91659501D01*
X98866540Y-91659501D01*
X98866543Y-91659501D01*
X99019271Y-91618577D01*
X99073092Y-91587503D01*
X99156202Y-91539520D01*
X99258903Y-91436819D01*
X99320226Y-91403334D01*
X99346584Y-91400500D01*
X101220234Y-91400500D01*
X101287273Y-91420185D01*
X101289125Y-91421398D01*
X101420814Y-91509390D01*
X101420827Y-91509397D01*
X101538990Y-91558341D01*
X101566503Y-91569737D01*
X101721153Y-91600499D01*
X101721156Y-91600500D01*
X101721158Y-91600500D01*
X101878844Y-91600500D01*
X101878845Y-91600499D01*
X102033497Y-91569737D01*
X102179179Y-91509394D01*
X102310289Y-91421789D01*
X102421789Y-91310289D01*
X102509394Y-91179179D01*
X102569737Y-91033497D01*
X102600500Y-90878842D01*
X102600500Y-90721158D01*
X102600500Y-90721155D01*
X102600499Y-90721153D01*
X102569737Y-90566503D01*
X102560110Y-90543261D01*
X102509397Y-90420827D01*
X102509390Y-90420814D01*
X102421789Y-90289711D01*
X102421786Y-90289707D01*
X102310292Y-90178213D01*
X102310288Y-90178210D01*
X102179185Y-90090609D01*
X102179172Y-90090602D01*
X102033501Y-90030264D01*
X102033489Y-90030261D01*
X101878845Y-89999500D01*
X101878842Y-89999500D01*
X101721158Y-89999500D01*
X101721155Y-89999500D01*
X101566510Y-90030261D01*
X101566498Y-90030264D01*
X101420827Y-90090602D01*
X101420814Y-90090609D01*
X101289125Y-90178602D01*
X101222447Y-90199480D01*
X101220234Y-90199500D01*
X99125543Y-90199500D01*
X98967428Y-90199500D01*
X98814701Y-90240423D01*
X98814700Y-90240423D01*
X98814698Y-90240424D01*
X98814695Y-90240425D01*
X98764582Y-90269359D01*
X98764581Y-90269360D01*
X98737474Y-90285010D01*
X98677771Y-90319479D01*
X98677768Y-90319481D01*
X98575069Y-90422181D01*
X98513746Y-90455666D01*
X98487388Y-90458500D01*
X97368521Y-90458500D01*
X97301482Y-90438815D01*
X97255727Y-90386011D01*
X97245783Y-90316853D01*
X97274808Y-90253297D01*
X97299630Y-90231398D01*
X97358950Y-90191760D01*
X97411289Y-90156789D01*
X97522789Y-90045289D01*
X97610394Y-89914179D01*
X97670737Y-89768497D01*
X97692029Y-89661454D01*
X97724413Y-89599544D01*
X97785129Y-89564970D01*
X97789448Y-89564030D01*
X97896497Y-89542737D01*
X98042179Y-89482394D01*
X98042185Y-89482390D01*
X98173875Y-89394398D01*
X98240553Y-89373520D01*
X98242766Y-89373500D01*
X99793017Y-89373500D01*
X99793033Y-89373501D01*
X99800629Y-89373501D01*
X99958740Y-89373501D01*
X99958743Y-89373501D01*
X100111471Y-89332577D01*
X100177922Y-89294211D01*
X100248402Y-89253520D01*
X100360206Y-89141716D01*
X100360206Y-89141714D01*
X100370410Y-89131511D01*
X100370414Y-89131506D01*
X101653706Y-87848214D01*
X101653711Y-87848210D01*
X101663914Y-87838006D01*
X101663916Y-87838006D01*
X101775720Y-87726202D01*
X101829940Y-87632289D01*
X101854777Y-87589271D01*
X101895700Y-87436543D01*
X101895700Y-87278429D01*
X101895700Y-79541304D01*
X129349500Y-79541304D01*
X129349500Y-79718695D01*
X129384103Y-79892658D01*
X129384106Y-79892667D01*
X129451983Y-80056540D01*
X129451990Y-80056553D01*
X129550535Y-80204034D01*
X129550538Y-80204038D01*
X129675961Y-80329461D01*
X129675965Y-80329464D01*
X129823446Y-80428009D01*
X129823459Y-80428016D01*
X129939481Y-80476073D01*
X129987334Y-80495894D01*
X129987336Y-80495894D01*
X129987341Y-80495896D01*
X130161304Y-80530499D01*
X130161307Y-80530500D01*
X130161309Y-80530500D01*
X140058693Y-80530500D01*
X140058694Y-80530499D01*
X140232666Y-80495895D01*
X140342173Y-80450535D01*
X140396547Y-80428013D01*
X140463913Y-80382999D01*
X140484955Y-80368939D01*
X140484955Y-80368938D01*
X140484959Y-80368936D01*
X140544036Y-80329464D01*
X140936680Y-79936818D01*
X140998003Y-79903334D01*
X141024361Y-79900500D01*
X142303903Y-79900500D01*
X142370942Y-79920185D01*
X142391584Y-79936819D01*
X142704259Y-80249495D01*
X142704262Y-80249497D01*
X142704264Y-80249499D01*
X142749164Y-80279500D01*
X142851753Y-80348048D01*
X142923586Y-80377801D01*
X142924724Y-80378273D01*
X142946157Y-80389728D01*
X143003453Y-80428013D01*
X143024054Y-80436546D01*
X143167334Y-80495895D01*
X143336282Y-80529500D01*
X143341304Y-80530499D01*
X143341308Y-80530500D01*
X143341309Y-80530500D01*
X146388696Y-80530500D01*
X146392789Y-80530097D01*
X146404940Y-80529500D01*
X147865500Y-80529500D01*
X147932539Y-80549185D01*
X147978294Y-80601989D01*
X147989500Y-80653500D01*
X147989500Y-89996903D01*
X147969815Y-90063942D01*
X147953181Y-90084584D01*
X147559339Y-90478425D01*
X147498016Y-90511910D01*
X147495850Y-90512361D01*
X147340508Y-90543261D01*
X147340498Y-90543264D01*
X147194827Y-90603602D01*
X147194814Y-90603609D01*
X147063711Y-90691210D01*
X147063707Y-90691213D01*
X146952213Y-90802707D01*
X146952210Y-90802711D01*
X146864609Y-90933814D01*
X146864602Y-90933827D01*
X146804264Y-91079498D01*
X146804261Y-91079510D01*
X146773500Y-91234153D01*
X146773500Y-91391846D01*
X146804261Y-91546489D01*
X146804264Y-91546501D01*
X146864602Y-91692172D01*
X146864609Y-91692185D01*
X146952210Y-91823288D01*
X146952213Y-91823292D01*
X147063707Y-91934786D01*
X147063711Y-91934789D01*
X147194814Y-92022390D01*
X147194827Y-92022397D01*
X147340498Y-92082735D01*
X147340503Y-92082737D01*
X147495153Y-92113499D01*
X147495156Y-92113500D01*
X147495158Y-92113500D01*
X147652844Y-92113500D01*
X147652845Y-92113499D01*
X147807497Y-92082737D01*
X147953179Y-92022394D01*
X148084289Y-91934789D01*
X148195789Y-91823289D01*
X148283394Y-91692179D01*
X148343737Y-91546497D01*
X148363113Y-91449085D01*
X148374638Y-91391150D01*
X148407023Y-91329239D01*
X148408521Y-91327713D01*
X148948506Y-90787727D01*
X148948511Y-90787724D01*
X148958714Y-90777520D01*
X148958716Y-90777520D01*
X149070520Y-90665716D01*
X149146297Y-90534466D01*
X149149577Y-90528785D01*
X149190501Y-90376057D01*
X149190501Y-90217943D01*
X149190501Y-90210348D01*
X149190500Y-90210330D01*
X149190500Y-79042182D01*
X149189853Y-79039770D01*
X149189853Y-79039744D01*
X149189847Y-79039746D01*
X149173436Y-78978500D01*
X149149577Y-78889455D01*
X149149575Y-78889451D01*
X149149574Y-78889448D01*
X149070524Y-78752529D01*
X149070521Y-78752525D01*
X149070520Y-78752523D01*
X148958716Y-78640719D01*
X148958715Y-78640718D01*
X148954385Y-78636388D01*
X148954374Y-78636378D01*
X148606819Y-78288823D01*
X148573334Y-78227500D01*
X148570500Y-78201142D01*
X148570500Y-77431782D01*
X148590185Y-77364743D01*
X148606815Y-77344105D01*
X148913506Y-77037413D01*
X148913511Y-77037410D01*
X148923714Y-77027206D01*
X148923716Y-77027206D01*
X149035520Y-76915402D01*
X149106079Y-76793189D01*
X149114577Y-76778471D01*
X149155501Y-76625743D01*
X149155501Y-76467629D01*
X149155501Y-76460034D01*
X149155500Y-76460016D01*
X149155500Y-74083021D01*
X149175185Y-74015982D01*
X149191815Y-73995344D01*
X149475506Y-73711652D01*
X149475511Y-73711649D01*
X149485714Y-73701445D01*
X149485716Y-73701445D01*
X149597520Y-73589641D01*
X149608400Y-73570796D01*
X149650140Y-73498501D01*
X149650141Y-73498499D01*
X149676574Y-73452715D01*
X149676575Y-73452714D01*
X149676575Y-73452712D01*
X149676577Y-73452710D01*
X149717501Y-73299982D01*
X149717501Y-73141868D01*
X149717501Y-73134273D01*
X149717500Y-73134255D01*
X149717500Y-56296500D01*
X149737185Y-56229461D01*
X149789989Y-56183706D01*
X149841500Y-56172500D01*
X149938844Y-56172500D01*
X149938845Y-56172499D01*
X150093497Y-56141737D01*
X150239179Y-56081394D01*
X150370289Y-55993789D01*
X150481789Y-55882289D01*
X150497018Y-55859497D01*
X150556398Y-55770629D01*
X150610010Y-55725824D01*
X150679335Y-55717117D01*
X150742362Y-55747271D01*
X150779082Y-55806714D01*
X150783500Y-55839520D01*
X150783500Y-75112234D01*
X150763815Y-75179273D01*
X150762602Y-75181125D01*
X150674609Y-75312814D01*
X150674602Y-75312827D01*
X150614264Y-75458498D01*
X150614261Y-75458510D01*
X150583500Y-75613153D01*
X150583500Y-75770846D01*
X150614261Y-75925489D01*
X150614264Y-75925501D01*
X150674602Y-76071172D01*
X150674609Y-76071185D01*
X150762210Y-76202288D01*
X150762213Y-76202292D01*
X150873707Y-76313786D01*
X150873711Y-76313789D01*
X151004814Y-76401390D01*
X151004827Y-76401397D01*
X151150498Y-76461735D01*
X151150503Y-76461737D01*
X151305153Y-76492499D01*
X151305156Y-76492500D01*
X151375500Y-76492500D01*
X151442539Y-76512185D01*
X151488294Y-76564989D01*
X151499500Y-76616500D01*
X151499500Y-77431696D01*
X151534103Y-77605659D01*
X151534106Y-77605669D01*
X151535605Y-77609287D01*
X151562292Y-77673713D01*
X151601986Y-77769546D01*
X151601987Y-77769547D01*
X151654882Y-77848710D01*
X151654884Y-77848712D01*
X151700534Y-77917034D01*
X151700535Y-77917035D01*
X151700536Y-77917036D01*
X151844182Y-78060681D01*
X151877666Y-78122002D01*
X151880500Y-78148361D01*
X151880500Y-90507637D01*
X151860815Y-90574676D01*
X151844181Y-90595318D01*
X151192540Y-91246958D01*
X151192534Y-91246965D01*
X151093988Y-91394451D01*
X151026105Y-91558333D01*
X151026103Y-91558341D01*
X150991500Y-91732303D01*
X150991500Y-91909696D01*
X151026103Y-92083658D01*
X151026105Y-92083666D01*
X151093988Y-92247548D01*
X151192534Y-92395034D01*
X151192540Y-92395041D01*
X151317958Y-92520459D01*
X151317965Y-92520465D01*
X151465451Y-92619011D01*
X151465452Y-92619011D01*
X151465453Y-92619012D01*
X151629334Y-92686895D01*
X151794691Y-92719786D01*
X151803303Y-92721499D01*
X151803307Y-92721500D01*
X151803308Y-92721500D01*
X151980693Y-92721500D01*
X151980694Y-92721499D01*
X152154666Y-92686895D01*
X152318547Y-92619012D01*
X152466036Y-92520464D01*
X153480464Y-91506036D01*
X153579013Y-91358547D01*
X153646895Y-91194666D01*
X153681500Y-91020692D01*
X153681500Y-90843308D01*
X153681500Y-83741153D01*
X154393500Y-83741153D01*
X154393500Y-83898846D01*
X154424261Y-84053489D01*
X154424264Y-84053501D01*
X154484602Y-84199172D01*
X154484609Y-84199185D01*
X154572210Y-84330288D01*
X154572213Y-84330292D01*
X154683707Y-84441786D01*
X154683711Y-84441789D01*
X154814814Y-84529390D01*
X154814827Y-84529397D01*
X154960498Y-84589735D01*
X154960503Y-84589737D01*
X155025147Y-84602595D01*
X155115849Y-84620638D01*
X155177760Y-84653023D01*
X155179339Y-84654574D01*
X155355139Y-84830374D01*
X155355149Y-84830385D01*
X155359479Y-84834715D01*
X155359480Y-84834716D01*
X155471284Y-84946520D01*
X155548744Y-84991241D01*
X155608215Y-85025577D01*
X155760943Y-85066501D01*
X155760946Y-85066501D01*
X155926653Y-85066501D01*
X155926669Y-85066500D01*
X159948234Y-85066500D01*
X160015273Y-85086185D01*
X160017125Y-85087398D01*
X160148814Y-85175390D01*
X160148827Y-85175397D01*
X160294498Y-85235735D01*
X160294503Y-85235737D01*
X160449153Y-85266499D01*
X160449156Y-85266500D01*
X160449158Y-85266500D01*
X160606844Y-85266500D01*
X160606845Y-85266499D01*
X160761497Y-85235737D01*
X160907179Y-85175394D01*
X161038289Y-85087789D01*
X161149789Y-84976289D01*
X161237394Y-84845179D01*
X161297737Y-84699497D01*
X161328500Y-84544842D01*
X161328500Y-84387158D01*
X161328500Y-84387155D01*
X161328499Y-84387153D01*
X161297737Y-84232503D01*
X161297735Y-84232498D01*
X161237397Y-84086827D01*
X161237390Y-84086814D01*
X161149789Y-83955711D01*
X161149786Y-83955707D01*
X161038292Y-83844213D01*
X161038288Y-83844210D01*
X160907185Y-83756609D01*
X160907172Y-83756602D01*
X160761501Y-83696264D01*
X160761489Y-83696261D01*
X160606845Y-83665500D01*
X160606842Y-83665500D01*
X160449158Y-83665500D01*
X160449155Y-83665500D01*
X160294510Y-83696261D01*
X160294498Y-83696264D01*
X160148827Y-83756602D01*
X160148814Y-83756609D01*
X160017125Y-83844602D01*
X159950447Y-83865480D01*
X159948234Y-83865500D01*
X156140097Y-83865500D01*
X156073058Y-83845815D01*
X156052416Y-83829181D01*
X156028574Y-83805339D01*
X155995089Y-83744016D01*
X155994638Y-83741849D01*
X155963738Y-83586510D01*
X155963737Y-83586503D01*
X155963735Y-83586498D01*
X155903397Y-83440827D01*
X155903390Y-83440814D01*
X155815789Y-83309711D01*
X155815786Y-83309707D01*
X155704292Y-83198213D01*
X155704288Y-83198210D01*
X155573185Y-83110609D01*
X155573172Y-83110602D01*
X155427501Y-83050264D01*
X155427489Y-83050261D01*
X155272845Y-83019500D01*
X155272842Y-83019500D01*
X155115158Y-83019500D01*
X155115155Y-83019500D01*
X154960510Y-83050261D01*
X154960498Y-83050264D01*
X154814827Y-83110602D01*
X154814814Y-83110609D01*
X154683711Y-83198210D01*
X154683707Y-83198213D01*
X154572213Y-83309707D01*
X154572210Y-83309711D01*
X154484609Y-83440814D01*
X154484602Y-83440827D01*
X154424264Y-83586498D01*
X154424261Y-83586510D01*
X154393500Y-83741153D01*
X153681500Y-83741153D01*
X153681500Y-77635309D01*
X153675163Y-77603453D01*
X153673283Y-77594000D01*
X153646896Y-77461341D01*
X153646893Y-77461332D01*
X153643745Y-77453733D01*
X153634616Y-77431692D01*
X153613379Y-77380421D01*
X153579016Y-77297459D01*
X153579009Y-77297446D01*
X153480465Y-77149966D01*
X153418931Y-77088432D01*
X153355035Y-77024536D01*
X153336815Y-77006316D01*
X153303333Y-76944993D01*
X153300500Y-76918638D01*
X153300500Y-74233615D01*
X153320185Y-74166576D01*
X153372989Y-74120821D01*
X153442147Y-74110877D01*
X153471944Y-74119051D01*
X153534334Y-74144894D01*
X153534337Y-74144894D01*
X153534341Y-74144896D01*
X153708304Y-74179499D01*
X153708307Y-74179500D01*
X153708309Y-74179500D01*
X153885693Y-74179500D01*
X153885694Y-74179499D01*
X153951056Y-74166498D01*
X154059658Y-74144896D01*
X154059661Y-74144894D01*
X154059666Y-74144894D01*
X154223547Y-74077013D01*
X154371035Y-73978464D01*
X154496464Y-73853035D01*
X154595013Y-73705547D01*
X154662894Y-73541666D01*
X154667062Y-73520716D01*
X154697499Y-73367695D01*
X154697500Y-73367693D01*
X154697500Y-61506308D01*
X154697499Y-61506307D01*
X154688685Y-61461992D01*
X154662895Y-61332334D01*
X154628953Y-61250393D01*
X154595013Y-61168453D01*
X154496464Y-61020965D01*
X154496461Y-61020961D01*
X154479819Y-61004319D01*
X154446334Y-60942996D01*
X154443500Y-60916638D01*
X154443500Y-55516097D01*
X154463185Y-55449058D01*
X154515989Y-55403303D01*
X154585147Y-55393359D01*
X154648703Y-55422384D01*
X154655178Y-55428413D01*
X155083186Y-55856422D01*
X155497995Y-56271231D01*
X155513416Y-56290021D01*
X155564709Y-56366787D01*
X155564710Y-56366788D01*
X155564711Y-56366789D01*
X155573179Y-56375257D01*
X155606665Y-56436577D01*
X155609500Y-56462940D01*
X155609500Y-60126234D01*
X155589815Y-60193273D01*
X155588602Y-60195125D01*
X155500609Y-60326814D01*
X155500602Y-60326827D01*
X155440264Y-60472498D01*
X155440261Y-60472510D01*
X155409500Y-60627153D01*
X155409500Y-60784846D01*
X155440261Y-60939489D01*
X155440264Y-60939501D01*
X155500602Y-61085172D01*
X155500609Y-61085185D01*
X155588210Y-61216288D01*
X155588213Y-61216292D01*
X155699707Y-61327786D01*
X155699711Y-61327789D01*
X155830814Y-61415390D01*
X155830827Y-61415397D01*
X155976498Y-61475735D01*
X155976503Y-61475737D01*
X156130188Y-61506307D01*
X156131153Y-61506499D01*
X156131156Y-61506500D01*
X156131158Y-61506500D01*
X156288844Y-61506500D01*
X156288845Y-61506499D01*
X156443497Y-61475737D01*
X156589179Y-61415394D01*
X156720289Y-61327789D01*
X156831789Y-61216289D01*
X156919394Y-61085179D01*
X156979737Y-60939497D01*
X157010500Y-60784842D01*
X157010500Y-60627158D01*
X157010500Y-60627155D01*
X157010499Y-60627153D01*
X156979738Y-60472510D01*
X156979737Y-60472503D01*
X156947731Y-60395233D01*
X156919397Y-60326827D01*
X156919390Y-60326814D01*
X156831398Y-60195125D01*
X156810520Y-60128447D01*
X156810500Y-60126234D01*
X156810500Y-56401095D01*
X156830185Y-56334056D01*
X156831398Y-56332204D01*
X156895890Y-56235685D01*
X156895890Y-56235684D01*
X156895894Y-56235679D01*
X156956237Y-56089997D01*
X156987000Y-55935342D01*
X156987000Y-55777658D01*
X156987000Y-55777655D01*
X156986999Y-55777653D01*
X156981733Y-55751179D01*
X156956237Y-55623003D01*
X156956235Y-55622998D01*
X156895897Y-55477327D01*
X156895890Y-55477314D01*
X156808289Y-55346211D01*
X156808286Y-55346207D01*
X156696792Y-55234713D01*
X156696788Y-55234710D01*
X156565685Y-55147109D01*
X156565672Y-55147102D01*
X156420001Y-55086764D01*
X156419989Y-55086761D01*
X156265345Y-55056000D01*
X156265342Y-55056000D01*
X156107658Y-55056000D01*
X156107657Y-55056000D01*
X156067212Y-55064044D01*
X155997621Y-55057815D01*
X155955343Y-55030107D01*
X155583389Y-54658153D01*
X159473500Y-54658153D01*
X159473500Y-54815846D01*
X159504261Y-54970489D01*
X159504264Y-54970501D01*
X159564602Y-55116172D01*
X159564609Y-55116185D01*
X159652602Y-55247874D01*
X159673480Y-55314551D01*
X159673500Y-55316765D01*
X159673500Y-57205234D01*
X159653815Y-57272273D01*
X159652602Y-57274125D01*
X159564609Y-57405814D01*
X159564602Y-57405827D01*
X159504264Y-57551498D01*
X159504261Y-57551510D01*
X159473500Y-57706153D01*
X159473500Y-57863846D01*
X159504261Y-58018489D01*
X159504264Y-58018501D01*
X159564602Y-58164172D01*
X159564609Y-58164185D01*
X159652210Y-58295288D01*
X159652213Y-58295292D01*
X159763707Y-58406786D01*
X159763711Y-58406789D01*
X159894814Y-58494390D01*
X159894827Y-58494397D01*
X160007872Y-58541221D01*
X160040503Y-58554737D01*
X160195153Y-58585499D01*
X160195156Y-58585500D01*
X160195158Y-58585500D01*
X160352844Y-58585500D01*
X160352845Y-58585499D01*
X160507497Y-58554737D01*
X160653179Y-58494394D01*
X160784289Y-58406789D01*
X160895789Y-58295289D01*
X160983394Y-58164179D01*
X161043737Y-58018497D01*
X161074500Y-57863842D01*
X161074500Y-57706158D01*
X161074500Y-57706155D01*
X161074499Y-57706153D01*
X161067549Y-57671213D01*
X161043737Y-57551503D01*
X161032039Y-57523261D01*
X160983397Y-57405827D01*
X160983390Y-57405814D01*
X160895398Y-57274125D01*
X160874520Y-57207447D01*
X160874500Y-57205234D01*
X160874500Y-55316765D01*
X160894185Y-55249726D01*
X160895398Y-55247874D01*
X160916205Y-55216735D01*
X160983394Y-55116179D01*
X160985845Y-55110263D01*
X161007569Y-55057815D01*
X161043737Y-54970497D01*
X161074500Y-54815842D01*
X161074500Y-54658158D01*
X161074500Y-54658155D01*
X161074499Y-54658153D01*
X161058058Y-54575500D01*
X161043737Y-54503503D01*
X161015024Y-54434182D01*
X160983397Y-54357827D01*
X160983390Y-54357814D01*
X160895789Y-54226711D01*
X160895786Y-54226707D01*
X160784292Y-54115213D01*
X160784288Y-54115210D01*
X160653185Y-54027609D01*
X160653172Y-54027602D01*
X160507501Y-53967264D01*
X160507489Y-53967261D01*
X160352845Y-53936500D01*
X160352842Y-53936500D01*
X160195158Y-53936500D01*
X160195155Y-53936500D01*
X160040510Y-53967261D01*
X160040498Y-53967264D01*
X159894827Y-54027602D01*
X159894814Y-54027609D01*
X159763711Y-54115210D01*
X159763707Y-54115213D01*
X159652213Y-54226707D01*
X159652210Y-54226711D01*
X159564609Y-54357814D01*
X159564602Y-54357827D01*
X159504264Y-54503498D01*
X159504261Y-54503510D01*
X159473500Y-54658153D01*
X155583389Y-54658153D01*
X155012573Y-54087337D01*
X154979088Y-54026014D01*
X154978637Y-54023847D01*
X154970492Y-53982901D01*
X154947737Y-53868503D01*
X154917456Y-53795397D01*
X154887397Y-53722827D01*
X154887390Y-53722814D01*
X154799789Y-53591711D01*
X154799786Y-53591707D01*
X154688292Y-53480213D01*
X154688288Y-53480210D01*
X154557185Y-53392609D01*
X154557173Y-53392603D01*
X154531045Y-53381780D01*
X154476643Y-53337938D01*
X154454579Y-53271644D01*
X154454500Y-53267220D01*
X154454500Y-52116458D01*
X154463938Y-52069007D01*
X154464475Y-52067711D01*
X154506561Y-51966105D01*
X154530896Y-51907357D01*
X154565501Y-51733383D01*
X154565501Y-51555999D01*
X154565501Y-49162303D01*
X154565501Y-49162302D01*
X154530896Y-48988328D01*
X154484917Y-48877327D01*
X154463938Y-48826677D01*
X154454500Y-48779226D01*
X154454500Y-45872307D01*
X154454499Y-45872303D01*
X154419895Y-45698334D01*
X154354339Y-45540071D01*
X154352695Y-45535474D01*
X154253465Y-45386966D01*
X154253464Y-45386965D01*
X154128035Y-45261536D01*
X153797706Y-44931206D01*
X153764221Y-44869883D01*
X153769205Y-44800191D01*
X153811077Y-44744258D01*
X153820611Y-44737789D01*
X153823287Y-44736148D01*
X153823302Y-44736141D01*
X153979359Y-44622759D01*
X154115759Y-44486359D01*
X154229141Y-44330302D01*
X154316715Y-44158429D01*
X154376324Y-43974972D01*
X154406500Y-43784449D01*
X154406500Y-43591551D01*
X154400289Y-43552334D01*
X154391123Y-43494461D01*
X154382180Y-43438000D01*
X160730327Y-43438000D01*
X161609590Y-43438000D01*
X161559963Y-43523956D01*
X161531000Y-43632048D01*
X161531000Y-43743952D01*
X161559963Y-43852044D01*
X161609590Y-43938000D01*
X160730327Y-43938000D01*
X160736164Y-43974855D01*
X160736164Y-43974858D01*
X160795746Y-44158234D01*
X160795747Y-44158237D01*
X160883288Y-44330043D01*
X160996616Y-44486027D01*
X160996620Y-44486032D01*
X161132967Y-44622379D01*
X161132972Y-44622383D01*
X161288956Y-44735711D01*
X161460762Y-44823252D01*
X161460765Y-44823253D01*
X161644143Y-44882835D01*
X161834591Y-44913000D01*
X162056000Y-44913000D01*
X162056000Y-44113000D01*
X162556000Y-44113000D01*
X162556000Y-44913000D01*
X162777409Y-44913000D01*
X162967856Y-44882835D01*
X163151234Y-44823253D01*
X163151237Y-44823252D01*
X163323043Y-44735711D01*
X163378615Y-44695337D01*
X163444421Y-44671857D01*
X163512475Y-44687682D01*
X163561170Y-44737788D01*
X163575500Y-44795655D01*
X163575500Y-54701500D01*
X163555815Y-54768539D01*
X163503011Y-54814294D01*
X163451500Y-54825500D01*
X163370155Y-54825500D01*
X163215510Y-54856261D01*
X163215498Y-54856264D01*
X163069827Y-54916602D01*
X163069814Y-54916609D01*
X162938711Y-55004210D01*
X162938707Y-55004213D01*
X162827213Y-55115707D01*
X162827210Y-55115711D01*
X162739609Y-55246814D01*
X162739602Y-55246827D01*
X162679264Y-55392498D01*
X162679261Y-55392510D01*
X162648500Y-55547153D01*
X162648500Y-55704846D01*
X162679261Y-55859489D01*
X162679264Y-55859501D01*
X162739602Y-56005172D01*
X162739609Y-56005185D01*
X162827209Y-56136287D01*
X162827210Y-56136288D01*
X162827211Y-56136289D01*
X162938711Y-56247789D01*
X162938714Y-56247791D01*
X162939181Y-56248258D01*
X162972666Y-56309581D01*
X162975500Y-56335940D01*
X162975500Y-75112234D01*
X162955815Y-75179273D01*
X162954602Y-75181125D01*
X162866609Y-75312814D01*
X162866602Y-75312827D01*
X162806264Y-75458498D01*
X162806261Y-75458510D01*
X162775500Y-75613153D01*
X162775500Y-75770846D01*
X162806261Y-75925489D01*
X162806264Y-75925501D01*
X162866602Y-76071172D01*
X162866609Y-76071185D01*
X162954210Y-76202288D01*
X162954213Y-76202292D01*
X163065707Y-76313786D01*
X163065711Y-76313789D01*
X163196814Y-76401390D01*
X163196827Y-76401397D01*
X163342498Y-76461735D01*
X163342503Y-76461737D01*
X163440420Y-76481214D01*
X163475691Y-76488230D01*
X163537602Y-76520615D01*
X163572176Y-76581330D01*
X163575500Y-76609847D01*
X163575500Y-77796637D01*
X163555815Y-77863676D01*
X163539181Y-77884318D01*
X163384540Y-78038958D01*
X163384534Y-78038965D01*
X163285988Y-78186451D01*
X163218105Y-78350333D01*
X163218103Y-78350341D01*
X163183500Y-78524303D01*
X163183500Y-78701696D01*
X163218103Y-78875658D01*
X163218105Y-78875666D01*
X163285988Y-79039548D01*
X163384534Y-79187034D01*
X163384540Y-79187041D01*
X163509958Y-79312459D01*
X163509965Y-79312465D01*
X163657451Y-79411011D01*
X163657452Y-79411011D01*
X163657453Y-79411012D01*
X163821334Y-79478895D01*
X163995303Y-79513499D01*
X163995307Y-79513500D01*
X163995308Y-79513500D01*
X164172693Y-79513500D01*
X164172694Y-79513499D01*
X164346666Y-79478895D01*
X164510547Y-79411012D01*
X164658036Y-79312464D01*
X165075819Y-78894678D01*
X165137140Y-78861195D01*
X165206832Y-78866179D01*
X165251180Y-78894680D01*
X166703181Y-80346680D01*
X166736666Y-80408003D01*
X166739500Y-80434361D01*
X166739500Y-95465695D01*
X166774103Y-95639658D01*
X166774106Y-95639667D01*
X166841983Y-95803540D01*
X166841990Y-95803553D01*
X166940535Y-95951034D01*
X166940538Y-95951038D01*
X167065961Y-96076461D01*
X167065965Y-96076464D01*
X167213446Y-96175009D01*
X167213459Y-96175016D01*
X167336363Y-96225923D01*
X167377334Y-96242894D01*
X167377336Y-96242894D01*
X167377341Y-96242896D01*
X167551304Y-96277499D01*
X167551307Y-96277500D01*
X167551309Y-96277500D01*
X167728693Y-96277500D01*
X167728694Y-96277499D01*
X167786682Y-96265964D01*
X167902658Y-96242896D01*
X167902661Y-96242894D01*
X167902666Y-96242894D01*
X168066547Y-96175013D01*
X168214035Y-96076464D01*
X168339464Y-95951035D01*
X168438013Y-95803547D01*
X168505894Y-95639666D01*
X168540500Y-95465691D01*
X168540500Y-95128711D01*
X179759500Y-95128711D01*
X179759500Y-95371288D01*
X179791161Y-95611785D01*
X179853947Y-95846104D01*
X179946773Y-96070205D01*
X179946777Y-96070214D01*
X179968974Y-96108661D01*
X180068064Y-96280289D01*
X180068066Y-96280292D01*
X180068067Y-96280293D01*
X180215733Y-96472736D01*
X180215739Y-96472743D01*
X180387256Y-96644260D01*
X180387262Y-96644265D01*
X180579711Y-96791936D01*
X180789788Y-96913224D01*
X181013900Y-97006054D01*
X181248211Y-97068838D01*
X181428586Y-97092584D01*
X181488711Y-97100500D01*
X181488712Y-97100500D01*
X181731289Y-97100500D01*
X181779388Y-97094167D01*
X181971789Y-97068838D01*
X182206100Y-97006054D01*
X182430212Y-96913224D01*
X182640289Y-96791936D01*
X182832738Y-96644265D01*
X183004265Y-96472738D01*
X183151936Y-96280289D01*
X183273224Y-96070212D01*
X183366054Y-95846100D01*
X183428838Y-95611789D01*
X183460500Y-95371288D01*
X183460500Y-95128712D01*
X183428838Y-94888211D01*
X183366054Y-94653900D01*
X183273224Y-94429788D01*
X183151936Y-94219711D01*
X183004265Y-94027262D01*
X183004260Y-94027256D01*
X182832743Y-93855739D01*
X182832736Y-93855733D01*
X182640293Y-93708067D01*
X182640292Y-93708066D01*
X182640289Y-93708064D01*
X182448231Y-93597179D01*
X182430214Y-93586777D01*
X182430205Y-93586773D01*
X182206104Y-93493947D01*
X182088944Y-93462554D01*
X181971789Y-93431162D01*
X181971788Y-93431161D01*
X181971785Y-93431161D01*
X181731289Y-93399500D01*
X181731288Y-93399500D01*
X181488712Y-93399500D01*
X181488711Y-93399500D01*
X181248214Y-93431161D01*
X181013895Y-93493947D01*
X180789794Y-93586773D01*
X180789785Y-93586777D01*
X180579706Y-93708067D01*
X180387263Y-93855733D01*
X180387256Y-93855739D01*
X180215739Y-94027256D01*
X180215733Y-94027263D01*
X180068067Y-94219706D01*
X179946777Y-94429785D01*
X179946773Y-94429794D01*
X179853947Y-94653895D01*
X179791161Y-94888214D01*
X179759500Y-95128711D01*
X168540500Y-95128711D01*
X168540500Y-81410096D01*
X177881500Y-81410096D01*
X177881500Y-81657903D01*
X177881501Y-81657919D01*
X177903455Y-81824680D01*
X177913847Y-81903610D01*
X177951829Y-82045361D01*
X177977990Y-82142992D01*
X178072819Y-82371931D01*
X178072827Y-82371948D01*
X178196729Y-82586551D01*
X178196740Y-82586567D01*
X178347595Y-82783166D01*
X178347601Y-82783173D01*
X178522826Y-82958398D01*
X178522832Y-82958403D01*
X178719441Y-83109266D01*
X178719448Y-83109270D01*
X178934051Y-83233172D01*
X178934056Y-83233174D01*
X178934059Y-83233176D01*
X178934063Y-83233177D01*
X178934068Y-83233180D01*
X179163007Y-83328009D01*
X179163009Y-83328009D01*
X179163015Y-83328012D01*
X179402390Y-83392153D01*
X179648090Y-83424500D01*
X179648097Y-83424500D01*
X179895903Y-83424500D01*
X179895910Y-83424500D01*
X180141610Y-83392153D01*
X180380985Y-83328012D01*
X180609941Y-83233176D01*
X180824559Y-83109266D01*
X181021168Y-82958403D01*
X181196403Y-82783168D01*
X181347266Y-82586559D01*
X181471176Y-82371941D01*
X181566012Y-82142985D01*
X181630153Y-81903610D01*
X181662500Y-81657910D01*
X181662500Y-81410090D01*
X181630153Y-81164390D01*
X181566012Y-80925015D01*
X181556364Y-80901723D01*
X181471180Y-80696068D01*
X181471172Y-80696051D01*
X181347270Y-80481448D01*
X181347266Y-80481441D01*
X181254498Y-80360543D01*
X181196404Y-80284833D01*
X181196398Y-80284826D01*
X181021173Y-80109601D01*
X181021166Y-80109595D01*
X180824567Y-79958740D01*
X180824565Y-79958738D01*
X180824559Y-79958734D01*
X180824554Y-79958731D01*
X180824551Y-79958729D01*
X180609948Y-79834827D01*
X180609931Y-79834819D01*
X180380992Y-79739990D01*
X180375741Y-79738583D01*
X180141610Y-79675847D01*
X180141609Y-79675846D01*
X180141606Y-79675846D01*
X179895919Y-79643501D01*
X179895916Y-79643500D01*
X179895910Y-79643500D01*
X179648090Y-79643500D01*
X179648084Y-79643500D01*
X179648080Y-79643501D01*
X179402393Y-79675846D01*
X179163007Y-79739990D01*
X178934068Y-79834819D01*
X178934051Y-79834827D01*
X178719448Y-79958729D01*
X178719432Y-79958740D01*
X178522833Y-80109595D01*
X178522826Y-80109601D01*
X178347601Y-80284826D01*
X178347595Y-80284833D01*
X178196740Y-80481432D01*
X178196729Y-80481448D01*
X178072827Y-80696051D01*
X178072819Y-80696068D01*
X177977990Y-80925007D01*
X177913846Y-81164393D01*
X177881501Y-81410080D01*
X177881500Y-81410096D01*
X168540500Y-81410096D01*
X168540500Y-81318309D01*
X168540500Y-79921309D01*
X168540276Y-79920185D01*
X168529000Y-79863498D01*
X168529000Y-79863496D01*
X168514000Y-79788086D01*
X168505894Y-79747334D01*
X168493616Y-79717692D01*
X168438016Y-79583459D01*
X168438009Y-79583446D01*
X168339465Y-79435966D01*
X168278863Y-79375364D01*
X168214035Y-79310536D01*
X167582533Y-78679034D01*
X166898695Y-77995195D01*
X166533819Y-77630319D01*
X166500334Y-77568996D01*
X166497500Y-77542638D01*
X166497500Y-76330115D01*
X177882000Y-76330115D01*
X177882000Y-76577884D01*
X177914338Y-76823503D01*
X177914340Y-76823514D01*
X177978460Y-77062817D01*
X177978465Y-77062831D01*
X178073271Y-77291712D01*
X178073275Y-77291722D01*
X178197144Y-77506271D01*
X178197149Y-77506278D01*
X178270532Y-77601913D01*
X178988732Y-76883713D01*
X179080692Y-77021342D01*
X179204658Y-77145308D01*
X179342285Y-77237266D01*
X178624085Y-77955466D01*
X178624085Y-77955467D01*
X178719719Y-78028849D01*
X178934277Y-78152724D01*
X178934287Y-78152728D01*
X179163168Y-78247534D01*
X179163182Y-78247539D01*
X179402485Y-78311659D01*
X179402496Y-78311661D01*
X179648115Y-78343999D01*
X179648130Y-78344000D01*
X179895870Y-78344000D01*
X179895884Y-78343999D01*
X180141503Y-78311661D01*
X180141514Y-78311659D01*
X180380817Y-78247539D01*
X180380831Y-78247534D01*
X180609712Y-78152728D01*
X180609722Y-78152724D01*
X180824276Y-78028852D01*
X180919913Y-77955466D01*
X180201714Y-77237267D01*
X180339342Y-77145308D01*
X180463308Y-77021342D01*
X180555267Y-76883714D01*
X181273466Y-77601913D01*
X181346852Y-77506276D01*
X181470724Y-77291722D01*
X181470728Y-77291712D01*
X181565534Y-77062831D01*
X181565539Y-77062817D01*
X181629659Y-76823514D01*
X181629661Y-76823503D01*
X181661999Y-76577884D01*
X181662000Y-76577870D01*
X181662000Y-76330129D01*
X181661999Y-76330115D01*
X181629661Y-76084496D01*
X181629659Y-76084485D01*
X181565539Y-75845182D01*
X181565534Y-75845168D01*
X181470728Y-75616287D01*
X181470724Y-75616277D01*
X181346849Y-75401719D01*
X181273467Y-75306085D01*
X181273466Y-75306085D01*
X180555266Y-76024284D01*
X180463308Y-75886658D01*
X180339342Y-75762692D01*
X180201713Y-75670731D01*
X180919913Y-74952532D01*
X180919913Y-74952531D01*
X180824278Y-74879149D01*
X180824271Y-74879144D01*
X180609722Y-74755275D01*
X180609712Y-74755271D01*
X180380831Y-74660465D01*
X180380817Y-74660460D01*
X180141514Y-74596340D01*
X180141503Y-74596338D01*
X179895884Y-74564000D01*
X179648115Y-74564000D01*
X179402496Y-74596338D01*
X179402485Y-74596340D01*
X179163182Y-74660460D01*
X179163168Y-74660465D01*
X178934287Y-74755271D01*
X178934277Y-74755275D01*
X178719726Y-74879146D01*
X178719710Y-74879156D01*
X178624085Y-74952531D01*
X178624085Y-74952532D01*
X179342285Y-75670732D01*
X179204658Y-75762692D01*
X179080692Y-75886658D01*
X178988732Y-76024285D01*
X178270532Y-75306085D01*
X178270531Y-75306085D01*
X178197156Y-75401710D01*
X178197146Y-75401726D01*
X178073275Y-75616277D01*
X178073271Y-75616287D01*
X177978465Y-75845168D01*
X177978460Y-75845182D01*
X177914340Y-76084485D01*
X177914338Y-76084496D01*
X177882000Y-76330115D01*
X166497500Y-76330115D01*
X166497500Y-71250115D01*
X177882000Y-71250115D01*
X177882000Y-71497884D01*
X177914338Y-71743503D01*
X177914340Y-71743514D01*
X177978460Y-71982817D01*
X177978465Y-71982831D01*
X178073271Y-72211712D01*
X178073275Y-72211722D01*
X178197144Y-72426271D01*
X178197149Y-72426278D01*
X178270532Y-72521913D01*
X178988732Y-71803713D01*
X179080692Y-71941342D01*
X179204658Y-72065308D01*
X179342285Y-72157266D01*
X178624085Y-72875466D01*
X178624085Y-72875467D01*
X178719719Y-72948849D01*
X178934277Y-73072724D01*
X178934287Y-73072728D01*
X179163168Y-73167534D01*
X179163182Y-73167539D01*
X179402485Y-73231659D01*
X179402496Y-73231661D01*
X179648115Y-73263999D01*
X179648130Y-73264000D01*
X179895870Y-73264000D01*
X179895884Y-73263999D01*
X180141503Y-73231661D01*
X180141514Y-73231659D01*
X180380817Y-73167539D01*
X180380831Y-73167534D01*
X180609712Y-73072728D01*
X180609722Y-73072724D01*
X180824276Y-72948852D01*
X180919913Y-72875466D01*
X180201714Y-72157267D01*
X180339342Y-72065308D01*
X180463308Y-71941342D01*
X180555267Y-71803714D01*
X181273466Y-72521913D01*
X181346852Y-72426276D01*
X181470724Y-72211722D01*
X181470728Y-72211712D01*
X181565534Y-71982831D01*
X181565539Y-71982817D01*
X181629659Y-71743514D01*
X181629661Y-71743503D01*
X181661999Y-71497884D01*
X181662000Y-71497870D01*
X181662000Y-71250129D01*
X181661999Y-71250115D01*
X181629661Y-71004496D01*
X181629659Y-71004485D01*
X181565539Y-70765182D01*
X181565534Y-70765168D01*
X181470728Y-70536287D01*
X181470724Y-70536277D01*
X181346849Y-70321719D01*
X181273467Y-70226085D01*
X181273466Y-70226085D01*
X180555266Y-70944284D01*
X180463308Y-70806658D01*
X180339342Y-70682692D01*
X180201713Y-70590731D01*
X180919913Y-69872532D01*
X180919913Y-69872531D01*
X180824278Y-69799149D01*
X180824271Y-69799144D01*
X180609722Y-69675275D01*
X180609712Y-69675271D01*
X180380831Y-69580465D01*
X180380817Y-69580460D01*
X180141514Y-69516340D01*
X180141503Y-69516338D01*
X179895884Y-69484000D01*
X179648115Y-69484000D01*
X179402496Y-69516338D01*
X179402485Y-69516340D01*
X179163182Y-69580460D01*
X179163168Y-69580465D01*
X178934287Y-69675271D01*
X178934277Y-69675275D01*
X178719726Y-69799146D01*
X178719710Y-69799156D01*
X178624085Y-69872531D01*
X178624085Y-69872532D01*
X179342285Y-70590732D01*
X179204658Y-70682692D01*
X179080692Y-70806658D01*
X178988732Y-70944285D01*
X178270532Y-70226085D01*
X178270531Y-70226085D01*
X178197156Y-70321710D01*
X178197146Y-70321726D01*
X178073275Y-70536277D01*
X178073271Y-70536287D01*
X177978465Y-70765168D01*
X177978460Y-70765182D01*
X177914340Y-71004485D01*
X177914338Y-71004496D01*
X177882000Y-71250115D01*
X166497500Y-71250115D01*
X166497500Y-68888361D01*
X166517185Y-68821322D01*
X166533819Y-68800680D01*
X166953463Y-68381036D01*
X166953465Y-68381033D01*
X167003935Y-68305501D01*
X167052013Y-68233547D01*
X167119894Y-68069666D01*
X167134907Y-67994189D01*
X167154500Y-67895692D01*
X167154500Y-67718309D01*
X167154500Y-65959516D01*
X167150840Y-65941116D01*
X167119895Y-65785541D01*
X167058277Y-65636784D01*
X167052013Y-65621660D01*
X167000248Y-65544189D01*
X166953464Y-65474171D01*
X166953462Y-65474168D01*
X166671819Y-65192525D01*
X166638334Y-65131202D01*
X166635500Y-65104844D01*
X166635500Y-64856127D01*
X177881500Y-64856127D01*
X177881500Y-67731870D01*
X177881501Y-67731876D01*
X177887908Y-67791483D01*
X177938202Y-67926328D01*
X177938206Y-67926335D01*
X178024452Y-68041544D01*
X178024455Y-68041547D01*
X178139664Y-68127793D01*
X178139671Y-68127797D01*
X178274517Y-68178091D01*
X178274516Y-68178091D01*
X178281444Y-68178835D01*
X178334127Y-68184500D01*
X181209872Y-68184499D01*
X181269483Y-68178091D01*
X181404331Y-68127796D01*
X181519546Y-68041546D01*
X181605796Y-67926331D01*
X181656091Y-67791483D01*
X181662500Y-67731873D01*
X181662499Y-64856128D01*
X181656091Y-64796517D01*
X181651726Y-64784815D01*
X181605797Y-64661671D01*
X181605793Y-64661664D01*
X181519547Y-64546455D01*
X181519544Y-64546452D01*
X181404335Y-64460206D01*
X181404328Y-64460202D01*
X181269482Y-64409908D01*
X181269483Y-64409908D01*
X181209883Y-64403501D01*
X181209881Y-64403500D01*
X181209873Y-64403500D01*
X181209864Y-64403500D01*
X178334129Y-64403500D01*
X178334123Y-64403501D01*
X178274516Y-64409908D01*
X178139671Y-64460202D01*
X178139664Y-64460206D01*
X178024455Y-64546452D01*
X178024452Y-64546455D01*
X177938206Y-64661664D01*
X177938202Y-64661671D01*
X177887908Y-64796517D01*
X177881501Y-64856116D01*
X177881500Y-64856127D01*
X166635500Y-64856127D01*
X166635500Y-61357132D01*
X166655185Y-61290093D01*
X166707989Y-61244338D01*
X166777147Y-61234394D01*
X166828391Y-61254030D01*
X166879814Y-61288390D01*
X166879827Y-61288397D01*
X166985902Y-61332334D01*
X167025503Y-61348737D01*
X167180153Y-61379499D01*
X167180156Y-61379500D01*
X167180158Y-61379500D01*
X167337844Y-61379500D01*
X167337845Y-61379499D01*
X167492497Y-61348737D01*
X167638179Y-61288394D01*
X167769289Y-61200789D01*
X167880789Y-61089289D01*
X167968394Y-60958179D01*
X168028737Y-60812497D01*
X168059500Y-60657842D01*
X168059500Y-60500158D01*
X168059500Y-60500155D01*
X168059499Y-60500153D01*
X168028739Y-60345511D01*
X168028736Y-60345501D01*
X167995939Y-60266321D01*
X167986500Y-60218869D01*
X167986500Y-57071153D01*
X171030500Y-57071153D01*
X171030500Y-57228846D01*
X171061261Y-57383489D01*
X171061264Y-57383501D01*
X171121602Y-57529172D01*
X171121609Y-57529185D01*
X171209602Y-57660874D01*
X171230480Y-57727551D01*
X171230500Y-57729765D01*
X171230500Y-59583869D01*
X171221061Y-59631321D01*
X171188263Y-59710501D01*
X171188260Y-59710511D01*
X171157500Y-59865153D01*
X171157500Y-60022846D01*
X171188261Y-60177489D01*
X171188264Y-60177501D01*
X171248602Y-60323172D01*
X171248609Y-60323185D01*
X171336210Y-60454288D01*
X171336213Y-60454292D01*
X171447707Y-60565786D01*
X171447711Y-60565789D01*
X171578814Y-60653390D01*
X171578827Y-60653397D01*
X171724498Y-60713735D01*
X171724503Y-60713737D01*
X171879153Y-60744499D01*
X171879156Y-60744500D01*
X171879158Y-60744500D01*
X172036844Y-60744500D01*
X172036845Y-60744499D01*
X172191497Y-60713737D01*
X172326436Y-60657844D01*
X172337172Y-60653397D01*
X172337172Y-60653396D01*
X172337179Y-60653394D01*
X172468289Y-60565789D01*
X172579789Y-60454289D01*
X172667394Y-60323179D01*
X172727737Y-60177497D01*
X172758500Y-60022842D01*
X172758500Y-59865158D01*
X172758500Y-59865155D01*
X172758499Y-59865153D01*
X172732828Y-59736097D01*
X172727737Y-59710503D01*
X172710752Y-59669497D01*
X172667397Y-59564827D01*
X172667390Y-59564814D01*
X172579789Y-59433711D01*
X172579786Y-59433707D01*
X172467819Y-59321740D01*
X172434334Y-59260417D01*
X172431500Y-59234059D01*
X172431500Y-57729765D01*
X172451185Y-57662726D01*
X172452398Y-57660874D01*
X172540390Y-57529185D01*
X172540390Y-57529184D01*
X172540394Y-57529179D01*
X172542845Y-57523263D01*
X172570246Y-57457109D01*
X172600737Y-57383497D01*
X172631500Y-57228842D01*
X172631500Y-57071158D01*
X172631500Y-57071155D01*
X172631499Y-57071153D01*
X172617089Y-56998712D01*
X172600737Y-56916503D01*
X172588735Y-56887528D01*
X172540397Y-56770827D01*
X172540390Y-56770814D01*
X172452789Y-56639711D01*
X172452786Y-56639707D01*
X172341292Y-56528213D01*
X172341288Y-56528210D01*
X172210185Y-56440609D01*
X172210172Y-56440602D01*
X172064501Y-56380264D01*
X172064489Y-56380261D01*
X171909845Y-56349500D01*
X171909842Y-56349500D01*
X171752158Y-56349500D01*
X171752155Y-56349500D01*
X171597510Y-56380261D01*
X171597498Y-56380264D01*
X171451827Y-56440602D01*
X171451814Y-56440609D01*
X171320711Y-56528210D01*
X171320707Y-56528213D01*
X171209213Y-56639707D01*
X171209210Y-56639711D01*
X171121609Y-56770814D01*
X171121602Y-56770827D01*
X171061264Y-56916498D01*
X171061261Y-56916510D01*
X171030500Y-57071153D01*
X167986500Y-57071153D01*
X167986500Y-56459765D01*
X168006185Y-56392726D01*
X168007398Y-56390874D01*
X168014490Y-56380261D01*
X168095394Y-56259179D01*
X168155737Y-56113497D01*
X168186500Y-55958842D01*
X168186500Y-55801158D01*
X168186500Y-55801155D01*
X168186499Y-55801153D01*
X168155737Y-55646503D01*
X168136500Y-55600060D01*
X168095397Y-55500827D01*
X168095390Y-55500814D01*
X168007789Y-55369711D01*
X168007786Y-55369707D01*
X167896292Y-55258213D01*
X167896288Y-55258210D01*
X167765185Y-55170609D01*
X167765172Y-55170602D01*
X167619501Y-55110264D01*
X167619489Y-55110261D01*
X167464845Y-55079500D01*
X167464842Y-55079500D01*
X167307158Y-55079500D01*
X167307155Y-55079500D01*
X167152510Y-55110261D01*
X167152498Y-55110264D01*
X167006827Y-55170602D01*
X167006814Y-55170609D01*
X166875711Y-55258210D01*
X166875707Y-55258213D01*
X166847181Y-55286740D01*
X166785858Y-55320225D01*
X166716166Y-55315241D01*
X166660233Y-55273369D01*
X166635816Y-55207905D01*
X166635500Y-55199059D01*
X166635500Y-45255362D01*
X166655185Y-45188323D01*
X166671819Y-45167681D01*
X167450459Y-44389041D01*
X167450464Y-44389036D01*
X167549012Y-44241547D01*
X167616895Y-44077666D01*
X167651500Y-43903692D01*
X167651500Y-43726308D01*
X167647126Y-43704318D01*
X167628539Y-43610870D01*
X167624696Y-43591551D01*
X170205500Y-43591551D01*
X170205500Y-43784448D01*
X170235675Y-43974969D01*
X170235676Y-43974972D01*
X170295285Y-44158429D01*
X170382859Y-44330302D01*
X170496241Y-44486359D01*
X170632641Y-44622759D01*
X170788698Y-44736141D01*
X170960571Y-44823715D01*
X171144028Y-44883324D01*
X171334551Y-44913500D01*
X171334552Y-44913500D01*
X172277448Y-44913500D01*
X172277449Y-44913500D01*
X172467972Y-44883324D01*
X172651429Y-44823715D01*
X172823302Y-44736141D01*
X172979359Y-44622759D01*
X173115759Y-44486359D01*
X173229141Y-44330302D01*
X173316715Y-44158429D01*
X173376324Y-43974972D01*
X173406500Y-43784449D01*
X173406500Y-43591551D01*
X173376324Y-43401028D01*
X173316715Y-43217571D01*
X173229141Y-43045698D01*
X173115759Y-42889641D01*
X172979359Y-42753241D01*
X172823302Y-42639859D01*
X172651429Y-42552285D01*
X172467972Y-42492676D01*
X172467970Y-42492675D01*
X172467969Y-42492675D01*
X172321614Y-42469495D01*
X172277449Y-42462500D01*
X171334551Y-42462500D01*
X171298697Y-42468178D01*
X171144030Y-42492675D01*
X170960568Y-42552286D01*
X170788697Y-42639859D01*
X170753501Y-42665431D01*
X170632641Y-42753241D01*
X170632639Y-42753243D01*
X170632638Y-42753243D01*
X170496243Y-42889638D01*
X170496243Y-42889639D01*
X170496241Y-42889641D01*
X170496001Y-42889972D01*
X170382859Y-43045697D01*
X170295286Y-43217568D01*
X170235675Y-43401030D01*
X170205500Y-43591551D01*
X167624696Y-43591551D01*
X167616896Y-43552341D01*
X167616895Y-43552334D01*
X167549012Y-43388453D01*
X167521926Y-43347916D01*
X167450465Y-43240965D01*
X167450459Y-43240958D01*
X167325041Y-43115540D01*
X167325034Y-43115534D01*
X167177548Y-43016988D01*
X167013666Y-42949105D01*
X167013658Y-42949103D01*
X166839696Y-42914500D01*
X166839692Y-42914500D01*
X166662308Y-42914500D01*
X166662303Y-42914500D01*
X166488341Y-42949103D01*
X166488333Y-42949105D01*
X166324451Y-43016988D01*
X166176965Y-43115534D01*
X166176958Y-43115540D01*
X165588181Y-43704318D01*
X165526858Y-43737803D01*
X165457166Y-43732819D01*
X165401233Y-43690947D01*
X165376816Y-43625483D01*
X165376500Y-43616637D01*
X165376500Y-41070306D01*
X165376499Y-41070304D01*
X165341896Y-40896341D01*
X165341893Y-40896332D01*
X165337340Y-40885341D01*
X165324923Y-40855363D01*
X165274016Y-40732459D01*
X165274009Y-40732446D01*
X165175465Y-40584966D01*
X165164457Y-40573958D01*
X165112998Y-40522499D01*
X165112996Y-40522497D01*
X165112995Y-40522495D01*
X165039035Y-40448535D01*
X164891545Y-40349986D01*
X164727666Y-40282105D01*
X164727658Y-40282103D01*
X164553696Y-40247500D01*
X164553692Y-40247500D01*
X164376308Y-40247500D01*
X164376303Y-40247500D01*
X164202341Y-40282103D01*
X164202333Y-40282105D01*
X164038451Y-40349988D01*
X163890965Y-40448534D01*
X163890958Y-40448540D01*
X163765540Y-40573958D01*
X163765534Y-40573965D01*
X163666988Y-40721451D01*
X163599105Y-40885333D01*
X163599103Y-40885341D01*
X163564500Y-41059303D01*
X163564500Y-41236693D01*
X163573117Y-41280012D01*
X163575500Y-41304204D01*
X163575500Y-42580344D01*
X163555815Y-42647383D01*
X163503011Y-42693138D01*
X163433853Y-42703082D01*
X163378616Y-42680663D01*
X163323042Y-42640287D01*
X163151237Y-42552747D01*
X163151234Y-42552746D01*
X162967856Y-42493164D01*
X162777409Y-42463000D01*
X162556000Y-42463000D01*
X162556000Y-43263000D01*
X162056000Y-43263000D01*
X162056000Y-42463000D01*
X161834591Y-42463000D01*
X161644143Y-42493164D01*
X161460765Y-42552746D01*
X161460762Y-42552747D01*
X161288956Y-42640288D01*
X161132972Y-42753616D01*
X161132967Y-42753620D01*
X160996620Y-42889967D01*
X160996616Y-42889972D01*
X160883288Y-43045956D01*
X160795747Y-43217762D01*
X160795746Y-43217765D01*
X160736164Y-43401141D01*
X160736164Y-43401144D01*
X160730327Y-43438000D01*
X154382180Y-43438000D01*
X154376324Y-43401028D01*
X154316715Y-43217571D01*
X154229141Y-43045698D01*
X154115759Y-42889641D01*
X153979359Y-42753241D01*
X153823302Y-42639859D01*
X153651429Y-42552285D01*
X153467972Y-42492676D01*
X153467970Y-42492675D01*
X153467969Y-42492675D01*
X153321614Y-42469495D01*
X153277449Y-42462500D01*
X152334551Y-42462500D01*
X152298697Y-42468178D01*
X152144030Y-42492675D01*
X151960568Y-42552286D01*
X151788697Y-42639859D01*
X151753501Y-42665431D01*
X151632641Y-42753241D01*
X151632639Y-42753243D01*
X151632638Y-42753243D01*
X151496243Y-42889638D01*
X151496243Y-42889639D01*
X151496241Y-42889641D01*
X151496001Y-42889972D01*
X151382859Y-43045697D01*
X151295286Y-43217568D01*
X151235675Y-43401030D01*
X151205500Y-43591551D01*
X151205500Y-43784448D01*
X151235675Y-43974969D01*
X151235676Y-43974972D01*
X151295285Y-44158429D01*
X151382859Y-44330302D01*
X151496241Y-44486359D01*
X151632641Y-44622759D01*
X151788698Y-44736141D01*
X151837794Y-44761156D01*
X151888590Y-44809130D01*
X151905500Y-44871641D01*
X151905500Y-45301696D01*
X151940103Y-45475658D01*
X151940105Y-45475666D01*
X151974046Y-45557606D01*
X151974046Y-45557607D01*
X152007984Y-45639542D01*
X152007985Y-45639544D01*
X152067063Y-45727960D01*
X152067064Y-45727961D01*
X152106534Y-45787034D01*
X152207681Y-45888181D01*
X152241166Y-45949504D01*
X152236182Y-46019196D01*
X152194310Y-46075129D01*
X152144192Y-46097479D01*
X152010340Y-46124104D01*
X152010332Y-46124106D01*
X151846459Y-46191983D01*
X151846446Y-46191990D01*
X151698965Y-46290535D01*
X151698961Y-46290538D01*
X151573538Y-46415961D01*
X151573535Y-46415965D01*
X151474990Y-46563446D01*
X151474983Y-46563459D01*
X151407106Y-46727332D01*
X151407103Y-46727341D01*
X151372500Y-46901304D01*
X151372500Y-49240500D01*
X151352815Y-49307539D01*
X151300011Y-49353294D01*
X151248500Y-49364500D01*
X151178155Y-49364500D01*
X151023510Y-49395261D01*
X151023498Y-49395264D01*
X150877827Y-49455602D01*
X150877814Y-49455609D01*
X150746711Y-49543210D01*
X150746707Y-49543213D01*
X150635213Y-49654707D01*
X150635210Y-49654711D01*
X150547609Y-49785814D01*
X150547602Y-49785827D01*
X150487264Y-49931498D01*
X150487261Y-49931507D01*
X150476248Y-49986873D01*
X150443862Y-50048784D01*
X150402086Y-50077240D01*
X150369826Y-50090603D01*
X150369814Y-50090609D01*
X150238711Y-50178210D01*
X150238707Y-50178213D01*
X150127213Y-50289707D01*
X150127210Y-50289711D01*
X150039609Y-50420814D01*
X150039602Y-50420827D01*
X149979264Y-50566498D01*
X149979261Y-50566510D01*
X149948500Y-50721153D01*
X149948500Y-50878846D01*
X149979261Y-51033489D01*
X149979264Y-51033501D01*
X150039602Y-51179172D01*
X150039609Y-51179185D01*
X150127602Y-51310874D01*
X150148480Y-51377551D01*
X150148500Y-51379765D01*
X150148500Y-52070059D01*
X150128815Y-52137098D01*
X150076011Y-52182853D01*
X150006853Y-52192797D01*
X149943297Y-52163772D01*
X149936819Y-52157740D01*
X149862292Y-52083213D01*
X149862288Y-52083210D01*
X149731185Y-51995609D01*
X149731172Y-51995602D01*
X149585501Y-51935264D01*
X149585489Y-51935261D01*
X149430845Y-51904500D01*
X149430842Y-51904500D01*
X149273158Y-51904500D01*
X149273155Y-51904500D01*
X149118510Y-51935261D01*
X149118498Y-51935264D01*
X148972827Y-51995602D01*
X148972814Y-51995609D01*
X148841711Y-52083210D01*
X148841707Y-52083213D01*
X148730213Y-52194707D01*
X148730210Y-52194711D01*
X148642609Y-52325814D01*
X148642602Y-52325827D01*
X148582264Y-52471498D01*
X148582261Y-52471508D01*
X148551361Y-52626850D01*
X148518976Y-52688761D01*
X148517425Y-52690339D01*
X146585481Y-54622282D01*
X146585479Y-54622285D01*
X146535361Y-54709094D01*
X146535359Y-54709096D01*
X146506424Y-54759210D01*
X146503131Y-54771500D01*
X146465499Y-54911943D01*
X146465499Y-54911945D01*
X146465499Y-55080046D01*
X146465500Y-55080059D01*
X146465500Y-67969595D01*
X146445815Y-68036634D01*
X146439879Y-68045078D01*
X146439478Y-68045600D01*
X146423524Y-68073235D01*
X146412400Y-68092503D01*
X146360423Y-68182529D01*
X146319499Y-68335257D01*
X146319499Y-68335259D01*
X146319499Y-68503360D01*
X146319500Y-68503373D01*
X146319500Y-73485016D01*
X146319499Y-73485034D01*
X146319499Y-73650740D01*
X146319498Y-73650740D01*
X146360423Y-73803471D01*
X146368661Y-73817739D01*
X146368662Y-73817741D01*
X146439477Y-73940398D01*
X146439874Y-73940915D01*
X146440073Y-73941429D01*
X146443543Y-73947440D01*
X146442605Y-73947981D01*
X146465070Y-74006083D01*
X146465500Y-74016404D01*
X146465500Y-74516902D01*
X146445815Y-74583941D01*
X146393011Y-74629696D01*
X146323853Y-74639640D01*
X146260297Y-74610615D01*
X146253819Y-74604583D01*
X145056613Y-73407378D01*
X145023128Y-73346055D01*
X145022677Y-73295505D01*
X145027658Y-73270466D01*
X145027658Y-73112782D01*
X145027658Y-73112779D01*
X145027657Y-73112777D01*
X145018332Y-73065896D01*
X144996895Y-72958127D01*
X144993052Y-72948849D01*
X144936555Y-72812451D01*
X144936548Y-72812438D01*
X144848947Y-72681335D01*
X144848944Y-72681331D01*
X144737450Y-72569837D01*
X144737446Y-72569834D01*
X144606343Y-72482233D01*
X144606330Y-72482226D01*
X144460659Y-72421888D01*
X144460647Y-72421885D01*
X144306003Y-72391124D01*
X144306000Y-72391124D01*
X144148316Y-72391124D01*
X144148313Y-72391124D01*
X143993668Y-72421885D01*
X143993656Y-72421888D01*
X143847985Y-72482226D01*
X143847972Y-72482233D01*
X143716869Y-72569834D01*
X143716865Y-72569837D01*
X143605371Y-72681331D01*
X143605368Y-72681335D01*
X143517767Y-72812438D01*
X143517760Y-72812451D01*
X143457422Y-72958122D01*
X143457419Y-72958134D01*
X143426658Y-73112777D01*
X143426658Y-73270470D01*
X143457419Y-73425113D01*
X143457422Y-73425125D01*
X143517760Y-73570796D01*
X143517767Y-73570809D01*
X143605368Y-73701912D01*
X143605371Y-73701916D01*
X143716865Y-73813410D01*
X143716873Y-73813416D01*
X143849288Y-73901893D01*
X143868079Y-73917314D01*
X145565425Y-75614660D01*
X145598910Y-75675983D01*
X145599361Y-75678149D01*
X145630261Y-75833491D01*
X145630264Y-75833501D01*
X145690602Y-75979172D01*
X145690609Y-75979185D01*
X145778210Y-76110288D01*
X145778213Y-76110292D01*
X145889707Y-76221786D01*
X145889711Y-76221789D01*
X146020814Y-76309390D01*
X146020827Y-76309397D01*
X146119121Y-76350111D01*
X146166503Y-76369737D01*
X146166505Y-76369737D01*
X146166507Y-76369738D01*
X146176154Y-76371657D01*
X146238064Y-76404043D01*
X146272638Y-76464759D01*
X146271736Y-76525367D01*
X146230502Y-76679254D01*
X146230502Y-76847357D01*
X146230503Y-76847370D01*
X146230503Y-77277898D01*
X146210818Y-77344937D01*
X146194184Y-77365579D01*
X146055214Y-77504548D01*
X146055215Y-77504549D01*
X145950477Y-77609287D01*
X145903688Y-77690328D01*
X145903689Y-77690329D01*
X145903688Y-77690331D01*
X145872233Y-77744813D01*
X145871421Y-77746219D01*
X145871420Y-77746221D01*
X145865274Y-77769156D01*
X145833185Y-77824735D01*
X145809213Y-77848708D01*
X145809210Y-77848712D01*
X145721609Y-77979814D01*
X145721602Y-77979827D01*
X145661264Y-78125498D01*
X145661261Y-78125510D01*
X145630500Y-78280153D01*
X145630500Y-78437846D01*
X145659037Y-78581309D01*
X145652810Y-78650900D01*
X145609947Y-78706078D01*
X145544057Y-78729322D01*
X145537420Y-78729500D01*
X143782627Y-78729500D01*
X143715588Y-78709815D01*
X143694946Y-78693181D01*
X143302304Y-78300538D01*
X143302303Y-78300537D01*
X143271795Y-78280153D01*
X143216940Y-78243500D01*
X143216938Y-78243499D01*
X143216938Y-78243498D01*
X143154809Y-78201985D01*
X143154807Y-78201984D01*
X143069250Y-78166546D01*
X142990931Y-78134105D01*
X142990923Y-78134103D01*
X142816961Y-78099500D01*
X142816957Y-78099500D01*
X142816956Y-78099500D01*
X140688692Y-78099500D01*
X140511309Y-78099500D01*
X140511304Y-78099500D01*
X140337341Y-78134103D01*
X140337333Y-78134105D01*
X140233756Y-78177009D01*
X140233755Y-78177009D01*
X140173457Y-78201984D01*
X140173455Y-78201985D01*
X140111325Y-78243500D01*
X140025965Y-78300535D01*
X140025961Y-78300538D01*
X139633319Y-78693181D01*
X139571996Y-78726666D01*
X139545638Y-78729500D01*
X130161306Y-78729500D01*
X129987341Y-78764103D01*
X129987332Y-78764106D01*
X129823459Y-78831983D01*
X129823446Y-78831990D01*
X129675965Y-78930535D01*
X129675961Y-78930538D01*
X129550538Y-79055961D01*
X129550535Y-79055965D01*
X129451990Y-79203446D01*
X129451983Y-79203459D01*
X129384106Y-79367332D01*
X129384103Y-79367341D01*
X129349500Y-79541304D01*
X101895700Y-79541304D01*
X101895700Y-77440165D01*
X101915385Y-77373126D01*
X101916598Y-77371274D01*
X101934755Y-77344101D01*
X102004594Y-77239579D01*
X102064937Y-77093897D01*
X102095700Y-76939242D01*
X102095700Y-76781558D01*
X102095700Y-76781555D01*
X102095699Y-76781553D01*
X102064938Y-76626910D01*
X102064937Y-76626903D01*
X102039292Y-76564989D01*
X102004597Y-76481227D01*
X102004590Y-76481214D01*
X101916989Y-76350111D01*
X101916986Y-76350107D01*
X101805492Y-76238613D01*
X101805488Y-76238610D01*
X101674385Y-76151009D01*
X101674372Y-76151002D01*
X101528701Y-76090664D01*
X101528689Y-76090661D01*
X101374045Y-76059900D01*
X101374042Y-76059900D01*
X101216358Y-76059900D01*
X101216355Y-76059900D01*
X101061710Y-76090661D01*
X101061698Y-76090664D01*
X100916027Y-76151002D01*
X100916014Y-76151009D01*
X100784911Y-76238610D01*
X100784907Y-76238613D01*
X100673413Y-76350107D01*
X100673410Y-76350111D01*
X100585809Y-76481214D01*
X100585802Y-76481227D01*
X100525464Y-76626898D01*
X100525461Y-76626910D01*
X100494700Y-76781553D01*
X100494700Y-76910951D01*
X100475015Y-76977990D01*
X100422211Y-77023745D01*
X100417269Y-77025615D01*
X100417330Y-77025762D01*
X100266027Y-77088432D01*
X100266014Y-77088439D01*
X100134911Y-77176040D01*
X100134907Y-77176043D01*
X100023413Y-77287537D01*
X100023410Y-77287541D01*
X99935809Y-77418644D01*
X99935802Y-77418657D01*
X99875464Y-77564328D01*
X99875461Y-77564340D01*
X99844700Y-77718983D01*
X99844700Y-77876676D01*
X99875461Y-78031319D01*
X99875464Y-78031331D01*
X99935802Y-78177002D01*
X99935809Y-78177015D01*
X100023410Y-78308118D01*
X100023413Y-78308122D01*
X100109981Y-78394690D01*
X100143466Y-78456013D01*
X100146300Y-78482371D01*
X100146300Y-85574250D01*
X100126615Y-85641289D01*
X100073811Y-85687044D01*
X100004653Y-85696988D01*
X99974848Y-85688811D01*
X99833501Y-85630264D01*
X99833491Y-85630261D01*
X99678151Y-85599362D01*
X99616241Y-85566977D01*
X99614662Y-85565426D01*
X99387637Y-85338401D01*
X99354152Y-85277078D01*
X99351318Y-85250720D01*
X99351318Y-81164687D01*
X99351319Y-81164674D01*
X99351319Y-80996571D01*
X99341817Y-80961109D01*
X99310395Y-80843843D01*
X99299040Y-80824176D01*
X99231342Y-80706917D01*
X99231336Y-80706909D01*
X99036819Y-80512392D01*
X99003334Y-80451069D01*
X99000500Y-80424711D01*
X99000500Y-73089060D01*
X99000501Y-73089047D01*
X99000501Y-72920944D01*
X98994746Y-72899465D01*
X98959577Y-72768216D01*
X98909417Y-72681335D01*
X98880524Y-72631290D01*
X98880518Y-72631282D01*
X98461020Y-72211784D01*
X98349216Y-72099980D01*
X98349215Y-72099979D01*
X98344885Y-72095649D01*
X98344874Y-72095639D01*
X98211415Y-71962180D01*
X98177930Y-71900857D01*
X98182914Y-71831165D01*
X98224786Y-71775232D01*
X98290250Y-71750815D01*
X98299096Y-71750499D01*
X100772871Y-71750499D01*
X100772872Y-71750499D01*
X100832483Y-71744091D01*
X100967331Y-71693796D01*
X101082546Y-71607546D01*
X101168796Y-71492331D01*
X101219091Y-71357483D01*
X101225500Y-71297873D01*
X101225499Y-67171153D01*
X102449500Y-67171153D01*
X102449500Y-67328846D01*
X102480261Y-67483489D01*
X102480264Y-67483501D01*
X102540602Y-67629172D01*
X102540609Y-67629185D01*
X102628602Y-67760874D01*
X102649480Y-67827551D01*
X102649500Y-67829765D01*
X102649500Y-71913330D01*
X102649499Y-71913348D01*
X102649499Y-72079054D01*
X102649498Y-72079054D01*
X102690424Y-72231789D01*
X102690425Y-72231790D01*
X102712186Y-72269480D01*
X102712187Y-72269482D01*
X102769475Y-72368709D01*
X102769481Y-72368717D01*
X102888349Y-72487585D01*
X102888354Y-72487589D01*
X103881284Y-73480520D01*
X103881286Y-73480521D01*
X103881290Y-73480524D01*
X104018209Y-73559573D01*
X104018212Y-73559575D01*
X104018216Y-73559577D01*
X104170943Y-73600501D01*
X104170945Y-73600501D01*
X104336654Y-73600501D01*
X104336670Y-73600500D01*
X105713331Y-73600500D01*
X105713347Y-73600501D01*
X105720943Y-73600501D01*
X105879054Y-73600501D01*
X105879057Y-73600501D01*
X106031785Y-73559577D01*
X106099094Y-73520716D01*
X106168716Y-73480520D01*
X106262417Y-73386819D01*
X106323740Y-73353334D01*
X106350098Y-73350500D01*
X111413331Y-73350500D01*
X111413347Y-73350501D01*
X111420943Y-73350501D01*
X111579054Y-73350501D01*
X111579057Y-73350501D01*
X111731785Y-73309577D01*
X111806022Y-73266716D01*
X111868716Y-73230520D01*
X111980520Y-73118716D01*
X111980521Y-73118714D01*
X112480520Y-72618716D01*
X112559577Y-72481784D01*
X112600501Y-72329057D01*
X112600501Y-72170942D01*
X112600501Y-72163347D01*
X112600500Y-72163329D01*
X112600500Y-71829765D01*
X112620185Y-71762726D01*
X112621398Y-71760874D01*
X112643663Y-71727553D01*
X112709394Y-71629179D01*
X112769737Y-71483497D01*
X112800500Y-71328842D01*
X112800500Y-71171158D01*
X112800500Y-71171155D01*
X112800499Y-71171153D01*
X112769738Y-71016510D01*
X112769737Y-71016503D01*
X112730524Y-70921833D01*
X112709397Y-70870827D01*
X112709390Y-70870814D01*
X112621789Y-70739711D01*
X112621786Y-70739707D01*
X112510292Y-70628213D01*
X112510288Y-70628210D01*
X112379185Y-70540609D01*
X112379172Y-70540602D01*
X112233501Y-70480264D01*
X112233489Y-70480261D01*
X112078845Y-70449500D01*
X112078842Y-70449500D01*
X111921158Y-70449500D01*
X111921155Y-70449500D01*
X111766510Y-70480261D01*
X111766498Y-70480264D01*
X111620827Y-70540602D01*
X111620814Y-70540609D01*
X111489711Y-70628210D01*
X111489707Y-70628213D01*
X111378213Y-70739707D01*
X111378210Y-70739711D01*
X111290609Y-70870814D01*
X111290602Y-70870827D01*
X111230264Y-71016498D01*
X111230261Y-71016510D01*
X111199500Y-71171153D01*
X111199500Y-71328846D01*
X111230261Y-71483489D01*
X111230264Y-71483501D01*
X111290602Y-71629172D01*
X111290609Y-71629185D01*
X111378602Y-71760874D01*
X111399480Y-71827551D01*
X111399500Y-71829765D01*
X111399500Y-71949901D01*
X111379815Y-72016940D01*
X111363182Y-72037582D01*
X111287584Y-72113181D01*
X111226261Y-72146666D01*
X111199902Y-72149500D01*
X106260841Y-72149500D01*
X106193802Y-72129815D01*
X106148047Y-72077011D01*
X106139224Y-72049691D01*
X106113975Y-71922756D01*
X106113973Y-71922753D01*
X106113973Y-71922749D01*
X106109937Y-71913006D01*
X106100500Y-71865558D01*
X106100500Y-68224362D01*
X106120185Y-68157323D01*
X106136815Y-68136684D01*
X106200266Y-68073232D01*
X106240496Y-68046353D01*
X106250231Y-68042322D01*
X106405908Y-67938302D01*
X106538302Y-67805908D01*
X106642322Y-67650231D01*
X106713973Y-67477251D01*
X106750500Y-67293616D01*
X106750500Y-67106384D01*
X106713973Y-66922749D01*
X106642322Y-66749769D01*
X106642321Y-66749768D01*
X106642318Y-66749762D01*
X106538302Y-66594092D01*
X106538299Y-66594088D01*
X106436819Y-66492608D01*
X106403334Y-66431285D01*
X106400500Y-66404927D01*
X106400500Y-62834442D01*
X106409938Y-62786991D01*
X106413973Y-62777251D01*
X106450500Y-62593616D01*
X106450500Y-62406384D01*
X106413973Y-62222749D01*
X106342322Y-62049769D01*
X106342321Y-62049768D01*
X106342318Y-62049762D01*
X106238302Y-61894092D01*
X106238299Y-61894088D01*
X106105911Y-61761700D01*
X106105907Y-61761697D01*
X105950237Y-61657681D01*
X105950228Y-61657676D01*
X105777251Y-61586027D01*
X105777243Y-61586025D01*
X105593620Y-61549500D01*
X105593616Y-61549500D01*
X105406384Y-61549500D01*
X105406379Y-61549500D01*
X105222756Y-61586025D01*
X105222748Y-61586027D01*
X105049771Y-61657676D01*
X105049762Y-61657681D01*
X104894092Y-61761697D01*
X104894088Y-61761700D01*
X104761700Y-61894088D01*
X104761697Y-61894092D01*
X104657681Y-62049762D01*
X104657676Y-62049771D01*
X104586027Y-62222748D01*
X104586025Y-62222756D01*
X104549500Y-62406379D01*
X104549500Y-62593620D01*
X104586025Y-62777243D01*
X104586027Y-62777251D01*
X104590061Y-62786991D01*
X104599500Y-62834442D01*
X104599500Y-67075636D01*
X104579815Y-67142675D01*
X104563183Y-67163316D01*
X104500533Y-67225967D01*
X104500529Y-67225971D01*
X104465204Y-67278841D01*
X104465204Y-67278842D01*
X104401990Y-67373447D01*
X104401985Y-67373456D01*
X104379995Y-67426547D01*
X104334105Y-67537333D01*
X104334103Y-67537341D01*
X104299705Y-67710276D01*
X104299702Y-67710293D01*
X104299500Y-67711306D01*
X104299500Y-71865558D01*
X104290062Y-71913006D01*
X104286777Y-71920939D01*
X104286024Y-71922757D01*
X104284623Y-71927375D01*
X104246320Y-71985810D01*
X104182505Y-72014260D01*
X104113439Y-72003693D01*
X104078285Y-71979049D01*
X103886819Y-71787583D01*
X103853334Y-71726260D01*
X103850500Y-71699902D01*
X103850500Y-67829765D01*
X103852285Y-67823685D01*
X103851112Y-67817456D01*
X103862011Y-67790562D01*
X103870185Y-67762726D01*
X103871398Y-67760874D01*
X103959390Y-67629185D01*
X103959390Y-67629184D01*
X103959394Y-67629179D01*
X104019737Y-67483497D01*
X104050500Y-67328842D01*
X104050500Y-67171158D01*
X104050500Y-67171155D01*
X104050499Y-67171153D01*
X104039596Y-67116339D01*
X104019737Y-67016503D01*
X103979623Y-66919658D01*
X103959397Y-66870827D01*
X103959390Y-66870814D01*
X103871789Y-66739711D01*
X103871786Y-66739707D01*
X103760292Y-66628213D01*
X103760288Y-66628210D01*
X103629185Y-66540609D01*
X103629172Y-66540602D01*
X103483501Y-66480264D01*
X103483489Y-66480261D01*
X103328845Y-66449500D01*
X103328842Y-66449500D01*
X103171158Y-66449500D01*
X103171155Y-66449500D01*
X103016510Y-66480261D01*
X103016498Y-66480264D01*
X102870827Y-66540602D01*
X102870814Y-66540609D01*
X102739711Y-66628210D01*
X102739707Y-66628213D01*
X102628213Y-66739707D01*
X102628210Y-66739711D01*
X102540609Y-66870814D01*
X102540602Y-66870827D01*
X102480264Y-67016498D01*
X102480261Y-67016510D01*
X102449500Y-67171153D01*
X101225499Y-67171153D01*
X101225499Y-66702128D01*
X101219091Y-66642517D01*
X101213755Y-66628211D01*
X101168797Y-66507671D01*
X101168793Y-66507664D01*
X101082547Y-66392455D01*
X101082544Y-66392452D01*
X100967335Y-66306206D01*
X100967328Y-66306202D01*
X100832482Y-66255908D01*
X100832483Y-66255908D01*
X100772883Y-66249501D01*
X100772881Y-66249500D01*
X100772873Y-66249500D01*
X100772865Y-66249500D01*
X97782497Y-66249500D01*
X97715458Y-66229815D01*
X97694816Y-66213181D01*
X95271774Y-63790139D01*
X95238289Y-63728816D01*
X95237838Y-63726649D01*
X95215171Y-63612700D01*
X95206937Y-63571303D01*
X95206935Y-63571298D01*
X95146597Y-63425627D01*
X95146590Y-63425614D01*
X95058989Y-63294511D01*
X95058986Y-63294507D01*
X94947492Y-63183013D01*
X94947488Y-63183010D01*
X94816385Y-63095409D01*
X94816372Y-63095402D01*
X94670701Y-63035064D01*
X94670689Y-63035061D01*
X94516045Y-63004300D01*
X94516042Y-63004300D01*
X94358358Y-63004300D01*
X94358355Y-63004300D01*
X94203710Y-63035061D01*
X94203698Y-63035064D01*
X94058027Y-63095402D01*
X94058014Y-63095409D01*
X93926911Y-63183010D01*
X93926907Y-63183013D01*
X93815413Y-63294507D01*
X93815410Y-63294511D01*
X93727809Y-63425614D01*
X93727802Y-63425627D01*
X93667464Y-63571298D01*
X93667461Y-63571310D01*
X93636700Y-63725953D01*
X93636700Y-63883646D01*
X93667461Y-64038289D01*
X93667464Y-64038301D01*
X93727802Y-64183972D01*
X93727809Y-64183985D01*
X93815410Y-64315088D01*
X93815413Y-64315092D01*
X93926907Y-64426586D01*
X93926911Y-64426589D01*
X94058014Y-64514190D01*
X94058027Y-64514197D01*
X94202660Y-64574105D01*
X94203703Y-64574537D01*
X94268347Y-64587395D01*
X94359049Y-64605438D01*
X94420960Y-64637823D01*
X94422539Y-64639374D01*
X96838181Y-67055016D01*
X96871666Y-67116339D01*
X96874500Y-67142697D01*
X96874500Y-71856000D01*
X96854815Y-71923039D01*
X96802011Y-71968794D01*
X96750500Y-71980000D01*
X92090557Y-71980000D01*
X91932443Y-71980000D01*
X91779715Y-72020923D01*
X91779714Y-72020923D01*
X91779712Y-72020924D01*
X91779709Y-72020925D01*
X91729596Y-72049859D01*
X91729595Y-72049860D01*
X91702838Y-72065308D01*
X91642785Y-72099979D01*
X91642782Y-72099981D01*
X91298339Y-72444425D01*
X91237016Y-72477910D01*
X91234850Y-72478361D01*
X91079508Y-72509261D01*
X91079498Y-72509264D01*
X90933827Y-72569602D01*
X90933814Y-72569609D01*
X90802711Y-72657210D01*
X90802707Y-72657213D01*
X90691213Y-72768707D01*
X90691210Y-72768711D01*
X90603609Y-72899814D01*
X90603602Y-72899827D01*
X90543264Y-73045498D01*
X90543261Y-73045510D01*
X90512500Y-73200153D01*
X90512500Y-73357846D01*
X90543261Y-73512489D01*
X90543264Y-73512501D01*
X90603602Y-73658172D01*
X90603612Y-73658190D01*
X90662094Y-73745715D01*
X90682972Y-73812392D01*
X90664487Y-73879772D01*
X90662094Y-73883496D01*
X90601990Y-73973446D01*
X90601983Y-73973459D01*
X90534106Y-74137332D01*
X90534103Y-74137341D01*
X90499500Y-74311304D01*
X90499500Y-77720147D01*
X90490061Y-77767600D01*
X90459105Y-77842333D01*
X90459103Y-77842341D01*
X90424500Y-78016303D01*
X90424500Y-78193696D01*
X90459103Y-78367658D01*
X90459105Y-78367666D01*
X90526988Y-78531548D01*
X90625534Y-78679034D01*
X90625540Y-78679041D01*
X90750958Y-78804459D01*
X90750965Y-78804465D01*
X90898451Y-78903011D01*
X90898452Y-78903011D01*
X90898453Y-78903012D01*
X91062334Y-78970895D01*
X91236303Y-79005499D01*
X91236307Y-79005500D01*
X91236308Y-79005500D01*
X91413693Y-79005500D01*
X91413694Y-79005499D01*
X91587666Y-78970895D01*
X91751547Y-78903012D01*
X91899036Y-78804464D01*
X92099464Y-78604036D01*
X92141559Y-78541036D01*
X92198013Y-78456547D01*
X92234828Y-78367666D01*
X92265895Y-78292666D01*
X92300500Y-78118692D01*
X92300500Y-77941308D01*
X92300500Y-74311309D01*
X92300500Y-74311306D01*
X92300499Y-74311304D01*
X92265896Y-74137341D01*
X92265893Y-74137332D01*
X92198016Y-73973459D01*
X92198009Y-73973446D01*
X92099464Y-73825965D01*
X92099461Y-73825961D01*
X92054411Y-73780912D01*
X92020925Y-73719589D01*
X92025909Y-73649898D01*
X92027510Y-73645826D01*
X92082737Y-73512497D01*
X92112969Y-73360511D01*
X92113638Y-73357150D01*
X92146023Y-73295239D01*
X92147467Y-73293767D01*
X92223918Y-73217316D01*
X92285240Y-73183834D01*
X92311597Y-73181000D01*
X97675500Y-73181000D01*
X97742539Y-73200685D01*
X97788294Y-73253489D01*
X97799500Y-73305000D01*
X97799500Y-79650902D01*
X97779815Y-79717941D01*
X97727011Y-79763696D01*
X97657853Y-79773640D01*
X97594297Y-79744615D01*
X97587819Y-79738583D01*
X95030510Y-77181274D01*
X94997025Y-77119951D01*
X94994191Y-77093593D01*
X94994191Y-77026592D01*
X94993929Y-77025615D01*
X94953267Y-76873864D01*
X94924198Y-76823514D01*
X94874214Y-76736938D01*
X94874208Y-76736930D01*
X94308507Y-76171229D01*
X94293086Y-76152438D01*
X94210505Y-76028847D01*
X94210499Y-76028839D01*
X94099005Y-75917345D01*
X94099001Y-75917342D01*
X93967898Y-75829741D01*
X93967885Y-75829734D01*
X93822214Y-75769396D01*
X93822202Y-75769393D01*
X93667558Y-75738632D01*
X93667555Y-75738632D01*
X93509871Y-75738632D01*
X93509868Y-75738632D01*
X93355223Y-75769393D01*
X93355211Y-75769396D01*
X93209540Y-75829734D01*
X93209527Y-75829741D01*
X93078424Y-75917342D01*
X93078420Y-75917345D01*
X92966926Y-76028839D01*
X92966923Y-76028843D01*
X92879322Y-76159946D01*
X92879315Y-76159959D01*
X92818977Y-76305630D01*
X92818974Y-76305642D01*
X92788213Y-76460285D01*
X92788213Y-76617978D01*
X92818974Y-76772621D01*
X92818977Y-76772633D01*
X92879315Y-76918304D01*
X92879322Y-76918317D01*
X92958362Y-77036608D01*
X92979240Y-77103286D01*
X92974778Y-77135342D01*
X92975141Y-77135415D01*
X92943190Y-77296040D01*
X92943190Y-77453733D01*
X92973951Y-77608376D01*
X92973954Y-77608388D01*
X93034292Y-77754059D01*
X93034299Y-77754072D01*
X93121900Y-77885175D01*
X93121903Y-77885179D01*
X93233397Y-77996673D01*
X93233401Y-77996676D01*
X93364504Y-78084277D01*
X93364517Y-78084284D01*
X93510188Y-78144622D01*
X93510193Y-78144624D01*
X93620402Y-78166546D01*
X93664843Y-78175386D01*
X93664846Y-78175387D01*
X93664848Y-78175387D01*
X93674790Y-78175387D01*
X93741829Y-78195072D01*
X93762471Y-78211706D01*
X95313181Y-79762416D01*
X95346666Y-79823739D01*
X95349500Y-79850097D01*
X95349500Y-80642796D01*
X95329815Y-80709835D01*
X95313181Y-80730477D01*
X95219481Y-80824176D01*
X95219475Y-80824184D01*
X95174709Y-80901723D01*
X95174709Y-80901724D01*
X95140423Y-80961109D01*
X95099499Y-81113837D01*
X95099499Y-81113839D01*
X95099499Y-81281940D01*
X95099500Y-81281953D01*
X95099500Y-85939240D01*
X95079815Y-86006279D01*
X95063181Y-86026921D01*
X94726922Y-86363181D01*
X94665599Y-86396666D01*
X94639241Y-86399500D01*
X93423691Y-86399500D01*
X93356652Y-86379815D01*
X93350805Y-86375560D01*
X93216185Y-86285609D01*
X93216172Y-86285602D01*
X93070501Y-86225264D01*
X93070489Y-86225261D01*
X92915845Y-86194500D01*
X92915842Y-86194500D01*
X92758158Y-86194500D01*
X92758155Y-86194500D01*
X92603510Y-86225261D01*
X92603498Y-86225264D01*
X92457827Y-86285602D01*
X92457814Y-86285609D01*
X92326711Y-86373210D01*
X92326707Y-86373213D01*
X92215213Y-86484707D01*
X92215210Y-86484711D01*
X92127609Y-86615814D01*
X92127602Y-86615827D01*
X92067264Y-86761498D01*
X92067261Y-86761510D01*
X92036500Y-86916153D01*
X92036500Y-87073846D01*
X92067261Y-87228489D01*
X92067264Y-87228501D01*
X92127602Y-87374172D01*
X92127609Y-87374185D01*
X92215210Y-87505288D01*
X92215213Y-87505292D01*
X92326707Y-87616786D01*
X92326711Y-87616789D01*
X92457814Y-87704390D01*
X92457827Y-87704397D01*
X92591712Y-87759853D01*
X92603503Y-87764737D01*
X92745635Y-87793009D01*
X92758153Y-87795499D01*
X92758156Y-87795500D01*
X92758158Y-87795500D01*
X92915844Y-87795500D01*
X92915845Y-87795499D01*
X93070497Y-87764737D01*
X93216179Y-87704394D01*
X93231533Y-87694135D01*
X93340392Y-87621398D01*
X93407070Y-87600520D01*
X93409283Y-87600500D01*
X94852669Y-87600500D01*
X94852685Y-87600501D01*
X94860281Y-87600501D01*
X95018392Y-87600501D01*
X95018395Y-87600501D01*
X95171123Y-87559577D01*
X95265152Y-87505289D01*
X95308054Y-87480520D01*
X95419858Y-87368716D01*
X95419858Y-87368714D01*
X95430062Y-87358511D01*
X95430065Y-87358506D01*
X96082946Y-86705627D01*
X96144268Y-86672143D01*
X96213960Y-86677127D01*
X96269893Y-86718999D01*
X96294310Y-86784463D01*
X96290400Y-86825403D01*
X96249499Y-86978049D01*
X96249499Y-86978051D01*
X96249499Y-87146152D01*
X96249500Y-87146165D01*
X96249500Y-87849903D01*
X96229815Y-87916942D01*
X96213181Y-87937584D01*
X94853618Y-89297147D01*
X94792295Y-89330632D01*
X94765937Y-89333466D01*
X93564907Y-89333466D01*
X93497868Y-89313781D01*
X93477226Y-89297147D01*
X93474292Y-89294213D01*
X93474287Y-89294209D01*
X93343185Y-89206609D01*
X93343172Y-89206602D01*
X93197501Y-89146264D01*
X93197489Y-89146261D01*
X93042845Y-89115500D01*
X93042842Y-89115500D01*
X92885158Y-89115500D01*
X92885155Y-89115500D01*
X92730510Y-89146261D01*
X92730498Y-89146264D01*
X92584827Y-89206602D01*
X92584814Y-89206609D01*
X92453713Y-89294209D01*
X92453707Y-89294213D01*
X92342213Y-89405707D01*
X92342210Y-89405711D01*
X92254609Y-89536814D01*
X92254602Y-89536827D01*
X92194264Y-89682498D01*
X92194261Y-89682510D01*
X92163500Y-89837153D01*
X92163500Y-89994846D01*
X92194261Y-90149489D01*
X92194264Y-90149501D01*
X92251237Y-90287048D01*
X92258706Y-90356518D01*
X92227430Y-90418997D01*
X92167341Y-90454648D01*
X92136676Y-90458500D01*
X79421097Y-90458500D01*
X79354058Y-90438815D01*
X79333416Y-90422181D01*
X79025416Y-90114181D01*
X78991931Y-90052858D01*
X78996915Y-89983166D01*
X79038787Y-89927233D01*
X79104251Y-89902816D01*
X79113097Y-89902500D01*
X79905543Y-89902500D01*
X80035582Y-89876632D01*
X80098835Y-89864051D01*
X80164280Y-89836943D01*
X80224646Y-89811939D01*
X80272098Y-89802500D01*
X82571902Y-89802500D01*
X82619354Y-89811939D01*
X82679720Y-89836943D01*
X82745165Y-89864051D01*
X82745169Y-89864051D01*
X82745170Y-89864052D01*
X82938456Y-89902500D01*
X82938459Y-89902500D01*
X84235543Y-89902500D01*
X84365582Y-89876632D01*
X84428835Y-89864051D01*
X84610914Y-89788632D01*
X84774782Y-89679139D01*
X84914139Y-89539782D01*
X85023632Y-89375914D01*
X85024632Y-89373501D01*
X85056258Y-89297147D01*
X85099051Y-89193835D01*
X85137500Y-89000541D01*
X85137500Y-88803459D01*
X85137500Y-88803456D01*
X85099052Y-88610170D01*
X85099051Y-88610169D01*
X85099051Y-88610165D01*
X85099049Y-88610160D01*
X85023635Y-88428092D01*
X85023628Y-88428079D01*
X84914139Y-88264218D01*
X84914136Y-88264214D01*
X84774785Y-88124863D01*
X84774781Y-88124860D01*
X84610920Y-88015371D01*
X84610907Y-88015364D01*
X84428839Y-87939950D01*
X84428829Y-87939947D01*
X84235543Y-87901500D01*
X84235541Y-87901500D01*
X83718333Y-87901500D01*
X83651294Y-87881815D01*
X83605539Y-87829011D01*
X83595595Y-87759853D01*
X83610947Y-87715499D01*
X83623278Y-87694140D01*
X83623279Y-87694138D01*
X83623281Y-87694135D01*
X83662500Y-87547766D01*
X83662500Y-87396234D01*
X83623281Y-87249865D01*
X83547515Y-87118635D01*
X83440365Y-87011485D01*
X83374750Y-86973602D01*
X83309136Y-86935719D01*
X83214224Y-86910288D01*
X83162766Y-86896500D01*
X83011234Y-86896500D01*
X82864863Y-86935719D01*
X82733635Y-87011485D01*
X82733632Y-87011487D01*
X82626487Y-87118632D01*
X82626485Y-87118635D01*
X82550719Y-87249863D01*
X82517408Y-87374185D01*
X82511500Y-87396234D01*
X82511500Y-87547766D01*
X82534304Y-87632874D01*
X82550720Y-87694137D01*
X82550720Y-87694138D01*
X82620789Y-87815500D01*
X82637262Y-87883400D01*
X82614410Y-87949427D01*
X82559488Y-87992617D01*
X82513402Y-88001500D01*
X80431500Y-88001500D01*
X80364461Y-87981815D01*
X80318706Y-87929011D01*
X80307500Y-87877500D01*
X80307500Y-81286500D01*
X80327185Y-81219461D01*
X80379989Y-81173706D01*
X80431500Y-81162500D01*
X82513402Y-81162500D01*
X82580441Y-81182185D01*
X82626196Y-81234989D01*
X82636140Y-81304147D01*
X82620789Y-81348500D01*
X82550720Y-81469861D01*
X82550720Y-81469862D01*
X82511500Y-81616234D01*
X82511500Y-81767765D01*
X82550719Y-81914136D01*
X82578128Y-81961609D01*
X82626485Y-82045365D01*
X82733635Y-82152515D01*
X82864865Y-82228281D01*
X83011234Y-82267500D01*
X83011236Y-82267500D01*
X83162764Y-82267500D01*
X83162766Y-82267500D01*
X83309135Y-82228281D01*
X83440365Y-82152515D01*
X83512576Y-82080304D01*
X85967500Y-82080304D01*
X85967500Y-87083695D01*
X86002103Y-87257658D01*
X86002106Y-87257667D01*
X86069983Y-87421540D01*
X86069990Y-87421553D01*
X86168535Y-87569034D01*
X86168538Y-87569038D01*
X86293961Y-87694461D01*
X86293965Y-87694464D01*
X86441446Y-87793009D01*
X86441459Y-87793016D01*
X86550077Y-87838006D01*
X86605334Y-87860894D01*
X86605336Y-87860894D01*
X86605341Y-87860896D01*
X86779304Y-87895499D01*
X86779307Y-87895500D01*
X86779309Y-87895500D01*
X86956693Y-87895500D01*
X86956694Y-87895499D01*
X87047183Y-87877500D01*
X87130658Y-87860896D01*
X87130661Y-87860894D01*
X87130666Y-87860894D01*
X87294547Y-87793013D01*
X87442035Y-87694464D01*
X87567464Y-87569035D01*
X87666013Y-87421547D01*
X87733894Y-87257666D01*
X87735447Y-87249863D01*
X87763388Y-87109390D01*
X87768500Y-87083691D01*
X87768500Y-82080309D01*
X87768500Y-82080306D01*
X87768499Y-82080304D01*
X87733896Y-81906341D01*
X87733893Y-81906332D01*
X87666016Y-81742459D01*
X87666009Y-81742446D01*
X87567464Y-81594965D01*
X87567461Y-81594961D01*
X87442038Y-81469538D01*
X87442034Y-81469535D01*
X87294553Y-81370990D01*
X87294540Y-81370983D01*
X87130667Y-81303106D01*
X87130658Y-81303103D01*
X86956694Y-81268500D01*
X86956691Y-81268500D01*
X86779309Y-81268500D01*
X86779306Y-81268500D01*
X86605341Y-81303103D01*
X86605332Y-81303106D01*
X86441459Y-81370983D01*
X86441446Y-81370990D01*
X86293965Y-81469535D01*
X86293961Y-81469538D01*
X86168538Y-81594961D01*
X86168535Y-81594965D01*
X86069990Y-81742446D01*
X86069983Y-81742459D01*
X86002106Y-81906332D01*
X86002103Y-81906341D01*
X85967500Y-82080304D01*
X83512576Y-82080304D01*
X83547515Y-82045365D01*
X83623281Y-81914135D01*
X83662500Y-81767766D01*
X83662500Y-81616234D01*
X83623281Y-81469865D01*
X83623278Y-81469859D01*
X83610947Y-81448501D01*
X83594473Y-81380602D01*
X83617325Y-81314574D01*
X83672245Y-81271383D01*
X83718333Y-81262500D01*
X84235543Y-81262500D01*
X84365582Y-81236632D01*
X84428835Y-81224051D01*
X84569655Y-81165721D01*
X84610907Y-81148635D01*
X84610907Y-81148634D01*
X84610914Y-81148632D01*
X84774782Y-81039139D01*
X84914139Y-80899782D01*
X85023632Y-80735914D01*
X85099051Y-80553835D01*
X85119599Y-80450533D01*
X85137500Y-80360543D01*
X85137500Y-80163456D01*
X85099052Y-79970170D01*
X85099051Y-79970169D01*
X85099051Y-79970165D01*
X85085239Y-79936819D01*
X85023635Y-79788092D01*
X85023628Y-79788079D01*
X84914139Y-79624218D01*
X84914136Y-79624214D01*
X84774785Y-79484863D01*
X84774781Y-79484860D01*
X84610920Y-79375371D01*
X84610907Y-79375364D01*
X84428839Y-79299950D01*
X84428829Y-79299947D01*
X84235543Y-79261500D01*
X84235541Y-79261500D01*
X82938459Y-79261500D01*
X82938457Y-79261500D01*
X82745170Y-79299947D01*
X82745160Y-79299950D01*
X82619354Y-79352061D01*
X82571902Y-79361500D01*
X80272098Y-79361500D01*
X80224646Y-79352061D01*
X80098839Y-79299950D01*
X80098829Y-79299947D01*
X79905543Y-79261500D01*
X79905541Y-79261500D01*
X78908459Y-79261500D01*
X78908454Y-79261500D01*
X78726691Y-79297655D01*
X78657099Y-79291428D01*
X78601922Y-79248565D01*
X78578678Y-79182675D01*
X78578500Y-79176038D01*
X78578500Y-78521508D01*
X78598185Y-78454469D01*
X78633606Y-78418408D01*
X78742289Y-78345789D01*
X78853789Y-78234289D01*
X78941394Y-78103179D01*
X79001737Y-77957497D01*
X79032500Y-77802842D01*
X79032500Y-77645158D01*
X79032500Y-77645155D01*
X79032499Y-77645153D01*
X79025185Y-77608384D01*
X79001737Y-77490503D01*
X78989654Y-77461332D01*
X78941397Y-77344827D01*
X78941390Y-77344814D01*
X78853789Y-77213711D01*
X78853786Y-77213707D01*
X78742292Y-77102213D01*
X78742288Y-77102210D01*
X78611185Y-77014609D01*
X78611172Y-77014602D01*
X78465501Y-76954264D01*
X78465489Y-76954261D01*
X78310845Y-76923500D01*
X78310842Y-76923500D01*
X78153158Y-76923500D01*
X78153155Y-76923500D01*
X77998510Y-76954261D01*
X77998498Y-76954264D01*
X77852827Y-77014602D01*
X77852814Y-77014609D01*
X77721711Y-77102210D01*
X77721707Y-77102213D01*
X77681681Y-77142240D01*
X77620358Y-77175725D01*
X77550666Y-77170741D01*
X77494733Y-77128869D01*
X77470316Y-77063405D01*
X77470000Y-77054559D01*
X77470000Y-75613153D01*
X78955500Y-75613153D01*
X78955500Y-75770846D01*
X78986261Y-75925489D01*
X78986264Y-75925501D01*
X79046602Y-76071172D01*
X79046609Y-76071185D01*
X79134210Y-76202288D01*
X79134213Y-76202292D01*
X79245707Y-76313786D01*
X79245711Y-76313789D01*
X79376814Y-76401390D01*
X79376827Y-76401397D01*
X79522498Y-76461735D01*
X79522503Y-76461737D01*
X79677153Y-76492499D01*
X79677156Y-76492500D01*
X79677158Y-76492500D01*
X79834844Y-76492500D01*
X79834845Y-76492499D01*
X79989497Y-76461737D01*
X80135179Y-76401394D01*
X80266289Y-76313789D01*
X80377789Y-76202289D01*
X80465394Y-76071179D01*
X80525737Y-75925497D01*
X80545113Y-75828085D01*
X80556638Y-75770150D01*
X80589023Y-75708239D01*
X80590518Y-75706716D01*
X81711416Y-74585819D01*
X81772739Y-74552334D01*
X81799097Y-74549500D01*
X85349331Y-74549500D01*
X85349347Y-74549501D01*
X85356943Y-74549501D01*
X85515054Y-74549501D01*
X85515057Y-74549501D01*
X85667785Y-74508577D01*
X85728406Y-74473577D01*
X85804716Y-74429520D01*
X85916520Y-74317716D01*
X85951520Y-74282716D01*
X86030577Y-74145784D01*
X86071500Y-73993057D01*
X86071500Y-66721097D01*
X86091185Y-66654058D01*
X86107819Y-66633416D01*
X86387819Y-66353416D01*
X86449142Y-66319931D01*
X86518834Y-66324915D01*
X86574767Y-66366787D01*
X86599184Y-66432251D01*
X86599500Y-66441097D01*
X86599500Y-68944091D01*
X86599499Y-68944109D01*
X86599499Y-69109815D01*
X86599498Y-69109815D01*
X86610722Y-69151704D01*
X86638659Y-69255964D01*
X86640424Y-69262548D01*
X86655533Y-69288717D01*
X86655534Y-69288719D01*
X86719477Y-69399473D01*
X86719481Y-69399478D01*
X86732322Y-69412319D01*
X86765807Y-69473642D01*
X86760823Y-69543334D01*
X86732322Y-69587681D01*
X86719481Y-69600521D01*
X86719480Y-69600523D01*
X86682792Y-69664069D01*
X86640423Y-69737454D01*
X86599499Y-69890182D01*
X86599499Y-69890184D01*
X86599499Y-70058285D01*
X86599500Y-70058298D01*
X86599500Y-74113330D01*
X86599499Y-74113348D01*
X86599499Y-74279059D01*
X86600162Y-74284095D01*
X86599153Y-74315002D01*
X86600097Y-74315095D01*
X86599500Y-74321157D01*
X86599500Y-74478846D01*
X86630261Y-74633489D01*
X86630264Y-74633501D01*
X86690602Y-74779172D01*
X86690609Y-74779185D01*
X86778210Y-74910288D01*
X86778213Y-74910292D01*
X86889707Y-75021786D01*
X86889711Y-75021789D01*
X87020814Y-75109390D01*
X87020827Y-75109397D01*
X87144014Y-75160422D01*
X87166503Y-75169737D01*
X87321153Y-75200499D01*
X87321156Y-75200500D01*
X87321158Y-75200500D01*
X87478844Y-75200500D01*
X87478845Y-75200499D01*
X87633497Y-75169737D01*
X87779179Y-75109394D01*
X87910289Y-75021789D01*
X88021789Y-74910289D01*
X88109394Y-74779179D01*
X88169737Y-74633497D01*
X88200500Y-74478842D01*
X88200500Y-74321158D01*
X88200500Y-74321157D01*
X88200500Y-74321155D01*
X88200499Y-74321153D01*
X88193128Y-74284095D01*
X88169737Y-74166503D01*
X88169735Y-74166498D01*
X88109397Y-74020827D01*
X88109390Y-74020814D01*
X88021789Y-73889711D01*
X88021786Y-73889707D01*
X87910292Y-73778213D01*
X87855608Y-73741674D01*
X87810804Y-73688061D01*
X87800500Y-73638572D01*
X87800500Y-70269337D01*
X87820185Y-70202298D01*
X87836820Y-70181655D01*
X87880517Y-70137958D01*
X87880517Y-70137957D01*
X87880520Y-70137955D01*
X87959577Y-70001023D01*
X88000501Y-69848296D01*
X88000501Y-69690181D01*
X88000501Y-69682586D01*
X88000500Y-69682568D01*
X88000500Y-69319821D01*
X88000501Y-69319808D01*
X88000501Y-69151705D01*
X87989277Y-69109818D01*
X87959577Y-68998977D01*
X87919465Y-68929500D01*
X87880524Y-68862051D01*
X87880518Y-68862043D01*
X87836819Y-68818344D01*
X87803334Y-68757021D01*
X87800500Y-68730663D01*
X87800500Y-65872496D01*
X87820185Y-65805457D01*
X87836810Y-65784824D01*
X87978109Y-65643524D01*
X87978114Y-65643521D01*
X87988314Y-65633320D01*
X87988316Y-65633320D01*
X88100120Y-65521516D01*
X88154298Y-65427676D01*
X88179177Y-65384585D01*
X88220101Y-65231857D01*
X88220101Y-65073743D01*
X88220101Y-65066148D01*
X88220100Y-65066130D01*
X88220100Y-64742221D01*
X88220101Y-64742208D01*
X88220101Y-64574105D01*
X88212692Y-64546454D01*
X88179177Y-64421377D01*
X88172556Y-64409909D01*
X88100124Y-64284451D01*
X88100118Y-64284443D01*
X87812801Y-63997126D01*
X87779316Y-63935803D01*
X87778877Y-63933702D01*
X87770084Y-63889492D01*
X87728931Y-63790139D01*
X87709744Y-63743816D01*
X87709737Y-63743803D01*
X87622136Y-63612700D01*
X87622133Y-63612696D01*
X87510639Y-63501202D01*
X87510635Y-63501199D01*
X87379532Y-63413598D01*
X87379519Y-63413591D01*
X87233848Y-63353253D01*
X87233836Y-63353250D01*
X87079192Y-63322489D01*
X87079189Y-63322489D01*
X86921505Y-63322489D01*
X86921502Y-63322489D01*
X86766857Y-63353250D01*
X86766845Y-63353253D01*
X86621174Y-63413591D01*
X86621161Y-63413598D01*
X86490058Y-63501199D01*
X86490054Y-63501202D01*
X86378560Y-63612696D01*
X86378557Y-63612700D01*
X86290956Y-63743803D01*
X86290949Y-63743816D01*
X86230611Y-63889487D01*
X86230608Y-63889499D01*
X86199847Y-64044142D01*
X86199847Y-64201835D01*
X86230607Y-64356477D01*
X86230609Y-64356482D01*
X86230610Y-64356486D01*
X86250084Y-64403501D01*
X86264666Y-64438707D01*
X86272133Y-64508177D01*
X86261985Y-64537364D01*
X86262537Y-64537593D01*
X86199864Y-64688898D01*
X86199861Y-64688908D01*
X86168961Y-64844250D01*
X86136576Y-64906161D01*
X86135025Y-64907739D01*
X84990481Y-66052282D01*
X84990477Y-66052287D01*
X84941628Y-66136898D01*
X84941628Y-66136899D01*
X84911423Y-66189214D01*
X84911423Y-66189215D01*
X84870499Y-66341943D01*
X84870499Y-66341945D01*
X84870499Y-66510046D01*
X84870500Y-66510059D01*
X84870500Y-73224500D01*
X84850815Y-73291539D01*
X84798011Y-73337294D01*
X84746500Y-73348500D01*
X81419942Y-73348500D01*
X81267213Y-73389423D01*
X81224285Y-73414209D01*
X81224284Y-73414209D01*
X81130287Y-73468477D01*
X81130282Y-73468481D01*
X79741339Y-74857425D01*
X79680016Y-74890910D01*
X79677850Y-74891361D01*
X79522508Y-74922261D01*
X79522498Y-74922264D01*
X79376827Y-74982602D01*
X79376814Y-74982609D01*
X79245711Y-75070210D01*
X79245707Y-75070213D01*
X79134213Y-75181707D01*
X79134210Y-75181711D01*
X79046609Y-75312814D01*
X79046602Y-75312827D01*
X78986264Y-75458498D01*
X78986261Y-75458510D01*
X78955500Y-75613153D01*
X77470000Y-75613153D01*
X77470000Y-50467153D01*
X94068500Y-50467153D01*
X94068500Y-50624846D01*
X94099261Y-50779489D01*
X94099264Y-50779501D01*
X94159602Y-50925172D01*
X94159609Y-50925185D01*
X94247602Y-51056874D01*
X94268480Y-51123551D01*
X94268500Y-51125765D01*
X94268500Y-55046234D01*
X94248815Y-55113273D01*
X94247602Y-55115125D01*
X94159609Y-55246814D01*
X94159602Y-55246827D01*
X94099264Y-55392498D01*
X94099261Y-55392510D01*
X94068500Y-55547153D01*
X94068500Y-55704846D01*
X94099261Y-55859489D01*
X94099264Y-55859501D01*
X94159602Y-56005172D01*
X94159609Y-56005185D01*
X94247210Y-56136288D01*
X94247213Y-56136292D01*
X94358707Y-56247786D01*
X94358711Y-56247789D01*
X94489814Y-56335390D01*
X94489827Y-56335397D01*
X94628234Y-56392726D01*
X94635503Y-56395737D01*
X94790153Y-56426499D01*
X94790156Y-56426500D01*
X94790158Y-56426500D01*
X94947844Y-56426500D01*
X94947845Y-56426499D01*
X95102497Y-56395737D01*
X95248179Y-56335394D01*
X95379289Y-56247789D01*
X95490789Y-56136289D01*
X95578394Y-56005179D01*
X95638737Y-55859497D01*
X95669500Y-55704842D01*
X95669500Y-55547158D01*
X95669500Y-55547155D01*
X95669499Y-55547153D01*
X95638737Y-55392503D01*
X95629054Y-55369125D01*
X95578397Y-55246827D01*
X95578390Y-55246814D01*
X95490398Y-55115125D01*
X95469520Y-55048447D01*
X95469500Y-55046234D01*
X95469500Y-51125765D01*
X95489185Y-51058726D01*
X95490398Y-51056874D01*
X95578390Y-50925185D01*
X95578390Y-50925184D01*
X95578394Y-50925179D01*
X95638737Y-50779497D01*
X95669500Y-50624842D01*
X95669500Y-50467158D01*
X95669500Y-50467155D01*
X95669499Y-50467153D01*
X95647839Y-50358257D01*
X95644238Y-50340153D01*
X105752500Y-50340153D01*
X105752500Y-50497846D01*
X105783261Y-50652489D01*
X105783264Y-50652501D01*
X105843602Y-50798172D01*
X105843609Y-50798185D01*
X105931602Y-50929874D01*
X105952480Y-50996551D01*
X105952500Y-50998765D01*
X105952500Y-54792234D01*
X105932815Y-54859273D01*
X105931602Y-54861125D01*
X105843609Y-54992814D01*
X105843602Y-54992827D01*
X105783264Y-55138498D01*
X105783261Y-55138510D01*
X105752500Y-55293153D01*
X105752500Y-55450846D01*
X105783261Y-55605489D01*
X105783264Y-55605501D01*
X105843602Y-55751172D01*
X105843609Y-55751185D01*
X105931210Y-55882288D01*
X105931213Y-55882292D01*
X106042707Y-55993786D01*
X106042711Y-55993789D01*
X106173814Y-56081390D01*
X106173827Y-56081397D01*
X106319498Y-56141735D01*
X106319503Y-56141737D01*
X106474153Y-56172499D01*
X106474156Y-56172500D01*
X106474158Y-56172500D01*
X106631844Y-56172500D01*
X106631845Y-56172499D01*
X106786497Y-56141737D01*
X106801217Y-56135639D01*
X106870684Y-56128170D01*
X106933164Y-56159443D01*
X106963231Y-56202747D01*
X106986604Y-56259176D01*
X106986609Y-56259185D01*
X107074210Y-56390288D01*
X107074213Y-56390292D01*
X107185707Y-56501786D01*
X107185711Y-56501789D01*
X107316814Y-56589390D01*
X107316827Y-56589397D01*
X107438288Y-56639707D01*
X107462503Y-56649737D01*
X107617153Y-56680499D01*
X107617156Y-56680500D01*
X107617158Y-56680500D01*
X107774844Y-56680500D01*
X107774845Y-56680499D01*
X107929497Y-56649737D01*
X108075179Y-56589394D01*
X108206289Y-56501789D01*
X108317789Y-56390289D01*
X108405394Y-56259179D01*
X108465737Y-56113497D01*
X108496500Y-55958842D01*
X108496500Y-55801158D01*
X108496500Y-55801155D01*
X108496499Y-55801153D01*
X108465737Y-55646503D01*
X108446500Y-55600060D01*
X108405397Y-55500827D01*
X108405390Y-55500814D01*
X108317398Y-55369125D01*
X108296520Y-55302447D01*
X108296500Y-55300234D01*
X108296500Y-54049940D01*
X108316185Y-53982901D01*
X108332819Y-53962258D01*
X108333285Y-53961791D01*
X108333289Y-53961789D01*
X108444789Y-53850289D01*
X108532394Y-53719179D01*
X108592737Y-53573497D01*
X108623500Y-53418842D01*
X108623500Y-53261158D01*
X108623500Y-53261155D01*
X108623499Y-53261153D01*
X108606681Y-53176606D01*
X108592737Y-53106503D01*
X108564058Y-53037265D01*
X108532397Y-52960827D01*
X108532390Y-52960814D01*
X108444789Y-52829711D01*
X108444786Y-52829707D01*
X108333292Y-52718213D01*
X108333288Y-52718210D01*
X108202185Y-52630609D01*
X108202172Y-52630602D01*
X108146703Y-52607627D01*
X108056501Y-52570264D01*
X108056489Y-52570261D01*
X107901845Y-52539500D01*
X107901842Y-52539500D01*
X107744158Y-52539500D01*
X107744155Y-52539500D01*
X107589510Y-52570261D01*
X107589498Y-52570264D01*
X107443827Y-52630602D01*
X107443814Y-52630609D01*
X107346391Y-52695706D01*
X107279713Y-52716584D01*
X107212333Y-52698099D01*
X107165643Y-52646121D01*
X107153500Y-52592604D01*
X107153500Y-52499153D01*
X110578500Y-52499153D01*
X110578500Y-52656846D01*
X110609261Y-52811489D01*
X110609264Y-52811501D01*
X110669602Y-52957172D01*
X110669609Y-52957185D01*
X110757209Y-53088287D01*
X110757210Y-53088288D01*
X110757211Y-53088289D01*
X110868711Y-53199789D01*
X110868714Y-53199791D01*
X110869181Y-53200258D01*
X110902666Y-53261581D01*
X110905500Y-53287940D01*
X110905500Y-55300234D01*
X110885815Y-55367273D01*
X110884602Y-55369125D01*
X110796609Y-55500814D01*
X110796602Y-55500827D01*
X110736264Y-55646498D01*
X110736261Y-55646510D01*
X110705500Y-55801153D01*
X110705500Y-55958846D01*
X110736261Y-56113489D01*
X110736264Y-56113501D01*
X110796602Y-56259172D01*
X110796609Y-56259185D01*
X110884210Y-56390288D01*
X110884213Y-56390292D01*
X110995707Y-56501786D01*
X110995711Y-56501789D01*
X111126814Y-56589390D01*
X111126827Y-56589397D01*
X111248288Y-56639707D01*
X111272503Y-56649737D01*
X111427153Y-56680499D01*
X111427156Y-56680500D01*
X111427158Y-56680500D01*
X111584844Y-56680500D01*
X111584845Y-56680499D01*
X111739497Y-56649737D01*
X111885179Y-56589394D01*
X112016289Y-56501789D01*
X112127789Y-56390289D01*
X112215394Y-56259179D01*
X112275737Y-56113497D01*
X112306500Y-55958842D01*
X112306500Y-55801158D01*
X112306500Y-55801155D01*
X112306499Y-55801153D01*
X112275737Y-55646503D01*
X112256500Y-55600060D01*
X112215397Y-55500827D01*
X112215390Y-55500814D01*
X112127398Y-55369125D01*
X112106520Y-55302447D01*
X112106500Y-55300234D01*
X112106500Y-52938131D01*
X112115939Y-52890678D01*
X112148737Y-52811497D01*
X112179500Y-52656842D01*
X112179500Y-52499158D01*
X112179500Y-52499155D01*
X112179499Y-52499153D01*
X112172549Y-52464213D01*
X112148737Y-52344503D01*
X112131948Y-52303970D01*
X112088397Y-52198827D01*
X112088390Y-52198814D01*
X112000789Y-52067711D01*
X112000786Y-52067707D01*
X111889292Y-51956213D01*
X111889288Y-51956210D01*
X111758185Y-51868609D01*
X111758172Y-51868602D01*
X111612501Y-51808264D01*
X111612489Y-51808261D01*
X111457845Y-51777500D01*
X111457842Y-51777500D01*
X111300158Y-51777500D01*
X111300155Y-51777500D01*
X111145510Y-51808261D01*
X111145498Y-51808264D01*
X110999827Y-51868602D01*
X110999814Y-51868609D01*
X110868711Y-51956210D01*
X110868707Y-51956213D01*
X110757213Y-52067707D01*
X110757210Y-52067711D01*
X110669609Y-52198814D01*
X110669602Y-52198827D01*
X110609264Y-52344498D01*
X110609261Y-52344510D01*
X110578500Y-52499153D01*
X107153500Y-52499153D01*
X107153500Y-50998765D01*
X107173185Y-50931726D01*
X107174398Y-50929874D01*
X107262390Y-50798185D01*
X107262390Y-50798184D01*
X107262394Y-50798179D01*
X107322737Y-50652497D01*
X107353500Y-50497842D01*
X107353500Y-50340158D01*
X107353500Y-50340155D01*
X107353499Y-50340153D01*
X107343465Y-50289711D01*
X107322737Y-50185503D01*
X107283430Y-50090606D01*
X107262397Y-50039827D01*
X107262390Y-50039814D01*
X107174789Y-49908711D01*
X107174786Y-49908707D01*
X107063292Y-49797213D01*
X107063288Y-49797210D01*
X106932185Y-49709609D01*
X106932172Y-49709602D01*
X106786501Y-49649264D01*
X106786489Y-49649261D01*
X106631845Y-49618500D01*
X106631842Y-49618500D01*
X106474158Y-49618500D01*
X106474155Y-49618500D01*
X106319510Y-49649261D01*
X106319498Y-49649264D01*
X106173827Y-49709602D01*
X106173814Y-49709609D01*
X106042711Y-49797210D01*
X106042707Y-49797213D01*
X105931213Y-49908707D01*
X105931210Y-49908711D01*
X105843609Y-50039814D01*
X105843602Y-50039827D01*
X105783264Y-50185498D01*
X105783261Y-50185510D01*
X105752500Y-50340153D01*
X95644238Y-50340153D01*
X95638738Y-50312508D01*
X95638737Y-50312507D01*
X95638737Y-50312503D01*
X95629295Y-50289707D01*
X95578397Y-50166827D01*
X95578390Y-50166814D01*
X95490789Y-50035711D01*
X95490786Y-50035707D01*
X95379292Y-49924213D01*
X95379288Y-49924210D01*
X95248185Y-49836609D01*
X95248172Y-49836602D01*
X95102501Y-49776264D01*
X95102489Y-49776261D01*
X94947845Y-49745500D01*
X94947842Y-49745500D01*
X94790158Y-49745500D01*
X94790155Y-49745500D01*
X94635510Y-49776261D01*
X94635498Y-49776264D01*
X94489827Y-49836602D01*
X94489814Y-49836609D01*
X94358711Y-49924210D01*
X94358707Y-49924213D01*
X94247213Y-50035707D01*
X94247210Y-50035711D01*
X94159609Y-50166814D01*
X94159602Y-50166827D01*
X94099264Y-50312498D01*
X94099261Y-50312510D01*
X94068500Y-50467153D01*
X77470000Y-50467153D01*
X77470000Y-43591551D01*
X89356500Y-43591551D01*
X89356500Y-43784448D01*
X89386675Y-43974969D01*
X89386676Y-43974972D01*
X89446285Y-44158429D01*
X89533859Y-44330302D01*
X89647241Y-44486359D01*
X89783641Y-44622759D01*
X89939698Y-44736141D01*
X90111571Y-44823715D01*
X90295028Y-44883324D01*
X90485551Y-44913500D01*
X90485552Y-44913500D01*
X91428448Y-44913500D01*
X91428449Y-44913500D01*
X91618972Y-44883324D01*
X91802429Y-44823715D01*
X91974302Y-44736141D01*
X92130359Y-44622759D01*
X92266759Y-44486359D01*
X92380141Y-44330302D01*
X92467715Y-44158429D01*
X92527324Y-43974972D01*
X92557500Y-43784449D01*
X92557500Y-43591551D01*
X92533180Y-43438000D01*
X98881327Y-43438000D01*
X99760590Y-43438000D01*
X99710963Y-43523956D01*
X99682000Y-43632048D01*
X99682000Y-43743952D01*
X99710963Y-43852044D01*
X99760590Y-43938000D01*
X98881327Y-43938000D01*
X98887164Y-43974855D01*
X98887164Y-43974858D01*
X98946746Y-44158234D01*
X98946747Y-44158237D01*
X99034288Y-44330043D01*
X99147616Y-44486027D01*
X99147620Y-44486032D01*
X99283967Y-44622379D01*
X99283972Y-44622383D01*
X99439956Y-44735711D01*
X99611762Y-44823252D01*
X99611765Y-44823253D01*
X99795143Y-44882835D01*
X99985591Y-44913000D01*
X100207000Y-44913000D01*
X100207000Y-44113000D01*
X100707000Y-44113000D01*
X100707000Y-44913000D01*
X100928409Y-44913000D01*
X101118856Y-44882835D01*
X101302234Y-44823253D01*
X101302237Y-44823252D01*
X101474043Y-44735711D01*
X101630027Y-44622383D01*
X101630032Y-44622379D01*
X101766379Y-44486032D01*
X101766383Y-44486027D01*
X101879711Y-44330043D01*
X101967252Y-44158237D01*
X101967253Y-44158234D01*
X102026835Y-43974858D01*
X102026835Y-43974855D01*
X102032673Y-43938000D01*
X101153410Y-43938000D01*
X101203037Y-43852044D01*
X101232000Y-43743952D01*
X101232000Y-43632048D01*
X101221149Y-43591551D01*
X108356500Y-43591551D01*
X108356500Y-43784448D01*
X108386675Y-43974969D01*
X108386676Y-43974972D01*
X108446285Y-44158429D01*
X108533859Y-44330302D01*
X108647241Y-44486359D01*
X108783641Y-44622759D01*
X108939698Y-44736141D01*
X109111571Y-44823715D01*
X109295028Y-44883324D01*
X109485551Y-44913500D01*
X109485552Y-44913500D01*
X110428448Y-44913500D01*
X110428449Y-44913500D01*
X110618972Y-44883324D01*
X110802429Y-44823715D01*
X110974302Y-44736141D01*
X111130359Y-44622759D01*
X111266759Y-44486359D01*
X111380141Y-44330302D01*
X111467715Y-44158429D01*
X111527324Y-43974972D01*
X111557500Y-43784449D01*
X111557500Y-43591551D01*
X120344500Y-43591551D01*
X120344500Y-43784448D01*
X120374675Y-43974969D01*
X120374676Y-43974972D01*
X120434285Y-44158429D01*
X120521859Y-44330302D01*
X120635241Y-44486359D01*
X120771641Y-44622759D01*
X120927698Y-44736141D01*
X121099571Y-44823715D01*
X121283028Y-44883324D01*
X121473551Y-44913500D01*
X121473552Y-44913500D01*
X122416448Y-44913500D01*
X122416449Y-44913500D01*
X122606972Y-44883324D01*
X122790429Y-44823715D01*
X122962302Y-44736141D01*
X123118359Y-44622759D01*
X123254759Y-44486359D01*
X123368141Y-44330302D01*
X123455715Y-44158429D01*
X123515324Y-43974972D01*
X123545500Y-43784449D01*
X123545500Y-43591551D01*
X123515324Y-43401028D01*
X123455715Y-43217571D01*
X123368141Y-43045698D01*
X123254759Y-42889641D01*
X123118359Y-42753241D01*
X122962302Y-42639859D01*
X122790429Y-42552285D01*
X122606972Y-42492676D01*
X122606970Y-42492675D01*
X122606969Y-42492675D01*
X122460614Y-42469495D01*
X122416449Y-42462500D01*
X121473551Y-42462500D01*
X121437697Y-42468178D01*
X121283030Y-42492675D01*
X121099568Y-42552286D01*
X120927697Y-42639859D01*
X120892501Y-42665431D01*
X120771641Y-42753241D01*
X120771639Y-42753243D01*
X120771638Y-42753243D01*
X120635243Y-42889638D01*
X120635243Y-42889639D01*
X120635241Y-42889641D01*
X120635001Y-42889972D01*
X120521859Y-43045697D01*
X120434286Y-43217568D01*
X120374675Y-43401030D01*
X120344500Y-43591551D01*
X111557500Y-43591551D01*
X111527324Y-43401028D01*
X111467715Y-43217571D01*
X111380141Y-43045698D01*
X111266759Y-42889641D01*
X111130359Y-42753241D01*
X111123827Y-42748495D01*
X111060614Y-42702567D01*
X111017948Y-42647237D01*
X111009500Y-42602250D01*
X111009500Y-41694304D01*
X123940500Y-41694304D01*
X123940500Y-54571696D01*
X123975103Y-54745658D01*
X123975105Y-54745666D01*
X124008174Y-54825501D01*
X124042984Y-54909542D01*
X124042985Y-54909543D01*
X124042987Y-54909547D01*
X124071688Y-54952500D01*
X124083712Y-54970495D01*
X124083712Y-54970496D01*
X124141537Y-55057038D01*
X124141540Y-55057041D01*
X127079181Y-57994681D01*
X127112666Y-58056004D01*
X127115500Y-58082362D01*
X127115500Y-58635696D01*
X127150103Y-58809659D01*
X127150104Y-58809663D01*
X127150105Y-58809666D01*
X127169940Y-58857550D01*
X127217984Y-58973542D01*
X127217985Y-58973544D01*
X127252698Y-59025496D01*
X127252699Y-59025497D01*
X127252702Y-59025501D01*
X127280622Y-59067286D01*
X127316537Y-59121038D01*
X127316538Y-59121039D01*
X130363181Y-62167680D01*
X130396666Y-62229003D01*
X130399500Y-62255361D01*
X130399500Y-66745696D01*
X130434103Y-66919658D01*
X130434105Y-66919666D01*
X130466331Y-66997465D01*
X130466331Y-66997466D01*
X130501984Y-67083542D01*
X130501985Y-67083543D01*
X130501987Y-67083547D01*
X130555288Y-67163316D01*
X130560383Y-67170941D01*
X130560383Y-67170942D01*
X130600537Y-67231038D01*
X130600540Y-67231041D01*
X134160318Y-70790818D01*
X134193803Y-70852141D01*
X134188819Y-70921833D01*
X134160318Y-70966180D01*
X133500540Y-71625958D01*
X133500534Y-71625965D01*
X133401988Y-71773451D01*
X133334105Y-71937333D01*
X133334103Y-71937341D01*
X133299500Y-72111303D01*
X133299500Y-72288696D01*
X133334103Y-72462658D01*
X133334105Y-72462666D01*
X133401988Y-72626548D01*
X133500534Y-72774034D01*
X133500540Y-72774041D01*
X133625958Y-72899459D01*
X133625965Y-72899465D01*
X133773451Y-72998011D01*
X133773452Y-72998011D01*
X133773453Y-72998012D01*
X133937334Y-73065895D01*
X134111303Y-73100499D01*
X134111307Y-73100500D01*
X134111308Y-73100500D01*
X134288693Y-73100500D01*
X134288694Y-73100499D01*
X134462666Y-73065895D01*
X134626547Y-72998012D01*
X134774036Y-72899464D01*
X136220964Y-71452536D01*
X137269464Y-70404036D01*
X137368012Y-70256547D01*
X137435895Y-70092666D01*
X137470500Y-69918692D01*
X137470500Y-69741308D01*
X137435895Y-69567334D01*
X137368012Y-69403453D01*
X137365355Y-69399477D01*
X137269465Y-69255965D01*
X137269459Y-69255958D01*
X137144041Y-69130540D01*
X137144034Y-69130534D01*
X136996548Y-69031988D01*
X136832666Y-68964105D01*
X136832658Y-68964103D01*
X136658696Y-68929500D01*
X136658692Y-68929500D01*
X136481308Y-68929500D01*
X136481303Y-68929500D01*
X136307341Y-68964103D01*
X136307333Y-68964105D01*
X136143451Y-69031988D01*
X135995965Y-69130534D01*
X135995958Y-69130540D01*
X135609180Y-69517318D01*
X135547857Y-69550803D01*
X135478165Y-69545819D01*
X135433818Y-69517318D01*
X132236819Y-66320319D01*
X132203334Y-66258996D01*
X132200500Y-66232638D01*
X132200500Y-63753097D01*
X132220185Y-63686058D01*
X132272989Y-63640303D01*
X132342147Y-63630359D01*
X132405703Y-63659384D01*
X132412181Y-63665416D01*
X134516139Y-65769374D01*
X134516149Y-65769385D01*
X134520479Y-65773715D01*
X134520480Y-65773716D01*
X134632284Y-65885520D01*
X134719095Y-65935639D01*
X134719097Y-65935641D01*
X134757151Y-65957611D01*
X134769215Y-65964577D01*
X134921943Y-66005501D01*
X134921946Y-66005501D01*
X135087653Y-66005501D01*
X135087669Y-66005500D01*
X141685903Y-66005500D01*
X141752942Y-66025185D01*
X141773584Y-66041819D01*
X141984181Y-66252416D01*
X142017666Y-66313739D01*
X142020500Y-66340097D01*
X142020500Y-67492234D01*
X142000815Y-67559273D01*
X141999602Y-67561125D01*
X141911609Y-67692814D01*
X141911602Y-67692827D01*
X141851264Y-67838498D01*
X141851261Y-67838510D01*
X141820500Y-67993153D01*
X141820500Y-68150846D01*
X141851261Y-68305489D01*
X141851264Y-68305501D01*
X141911602Y-68451172D01*
X141911609Y-68451185D01*
X141999210Y-68582288D01*
X141999213Y-68582292D01*
X142110707Y-68693786D01*
X142110711Y-68693789D01*
X142241814Y-68781390D01*
X142241827Y-68781397D01*
X142338216Y-68821322D01*
X142387503Y-68841737D01*
X142489598Y-68862045D01*
X142542153Y-68872499D01*
X142542156Y-68872500D01*
X142542158Y-68872500D01*
X142699844Y-68872500D01*
X142699845Y-68872499D01*
X142854497Y-68841737D01*
X143000179Y-68781394D01*
X143131289Y-68693789D01*
X143242789Y-68582289D01*
X143330394Y-68451179D01*
X143390737Y-68305497D01*
X143421500Y-68150842D01*
X143421500Y-67993158D01*
X143421500Y-67993155D01*
X143421499Y-67993153D01*
X143408207Y-67926331D01*
X143390737Y-67838503D01*
X143377236Y-67805908D01*
X143330397Y-67692827D01*
X143330390Y-67692814D01*
X143242398Y-67561125D01*
X143221520Y-67494447D01*
X143221500Y-67492234D01*
X143221500Y-66129060D01*
X143221501Y-66129047D01*
X143221501Y-65960944D01*
X143221119Y-65959517D01*
X143180577Y-65808216D01*
X143158152Y-65769374D01*
X143101524Y-65671290D01*
X143101518Y-65671282D01*
X142473590Y-65043355D01*
X142473588Y-65043352D01*
X142354717Y-64924481D01*
X142354709Y-64924475D01*
X142236327Y-64856128D01*
X142236324Y-64856127D01*
X142217785Y-64845423D01*
X142210825Y-64843558D01*
X142065057Y-64804499D01*
X141906943Y-64804499D01*
X141899347Y-64804499D01*
X141899331Y-64804500D01*
X135301097Y-64804500D01*
X135234058Y-64784815D01*
X135213416Y-64768181D01*
X132636819Y-62191584D01*
X132603334Y-62130261D01*
X132600500Y-62103903D01*
X132600500Y-61461993D01*
X132600499Y-61461991D01*
X132559577Y-61309266D01*
X132548508Y-61290093D01*
X132480524Y-61172340D01*
X132480521Y-61172336D01*
X132480520Y-61172334D01*
X132368716Y-61060530D01*
X132368715Y-61060529D01*
X132364385Y-61056199D01*
X132364374Y-61056189D01*
X131890366Y-60582181D01*
X131856881Y-60520858D01*
X131861865Y-60451166D01*
X131903737Y-60395233D01*
X131969201Y-60370816D01*
X131978047Y-60370500D01*
X140381193Y-60370500D01*
X140381194Y-60370499D01*
X140439182Y-60358964D01*
X140555158Y-60335896D01*
X140555161Y-60335894D01*
X140555166Y-60335894D01*
X140719047Y-60268013D01*
X140825356Y-60196979D01*
X140892030Y-60176102D01*
X140941697Y-60185520D01*
X140990503Y-60205737D01*
X141145153Y-60236499D01*
X141145156Y-60236500D01*
X141145158Y-60236500D01*
X141302844Y-60236500D01*
X141302845Y-60236499D01*
X141457497Y-60205737D01*
X141603179Y-60145394D01*
X141734289Y-60057789D01*
X141845789Y-59946289D01*
X141933394Y-59815179D01*
X141993737Y-59669497D01*
X141993737Y-59669493D01*
X141995480Y-59663750D01*
X142033774Y-59605309D01*
X142097585Y-59576849D01*
X142166652Y-59587406D01*
X142201823Y-59612058D01*
X142238181Y-59648416D01*
X142271666Y-59709739D01*
X142274500Y-59736097D01*
X142274500Y-60888234D01*
X142254815Y-60955273D01*
X142253602Y-60957125D01*
X142165609Y-61088814D01*
X142165602Y-61088827D01*
X142105264Y-61234498D01*
X142105261Y-61234510D01*
X142074500Y-61389153D01*
X142074500Y-61546846D01*
X142105261Y-61701489D01*
X142105264Y-61701501D01*
X142165602Y-61847172D01*
X142165609Y-61847185D01*
X142253210Y-61978288D01*
X142253213Y-61978292D01*
X142364707Y-62089786D01*
X142364711Y-62089789D01*
X142495814Y-62177390D01*
X142495827Y-62177397D01*
X142605316Y-62222748D01*
X142641503Y-62237737D01*
X142796153Y-62268499D01*
X142796156Y-62268500D01*
X142796158Y-62268500D01*
X142953844Y-62268500D01*
X142953845Y-62268499D01*
X143108497Y-62237737D01*
X143254179Y-62177394D01*
X143385289Y-62089789D01*
X143496789Y-61978289D01*
X143584394Y-61847179D01*
X143644737Y-61701497D01*
X143675500Y-61546842D01*
X143675500Y-61389158D01*
X143675500Y-61389155D01*
X143675499Y-61389153D01*
X143659607Y-61309259D01*
X143644737Y-61234503D01*
X143630771Y-61200786D01*
X143584397Y-61088827D01*
X143584390Y-61088814D01*
X143496398Y-60957125D01*
X143475520Y-60890447D01*
X143475500Y-60888234D01*
X143475500Y-59356945D01*
X143475500Y-59356943D01*
X143437868Y-59216499D01*
X143434577Y-59204215D01*
X143399523Y-59143500D01*
X143355520Y-59067284D01*
X143243716Y-58955480D01*
X143243715Y-58955479D01*
X143239385Y-58951149D01*
X143239374Y-58951139D01*
X142566574Y-58278339D01*
X142533089Y-58217016D01*
X142532638Y-58214849D01*
X142501738Y-58059510D01*
X142501737Y-58059503D01*
X142484749Y-58018489D01*
X142441397Y-57913827D01*
X142441390Y-57913814D01*
X142353789Y-57782711D01*
X142353786Y-57782707D01*
X142242292Y-57671213D01*
X142242288Y-57671210D01*
X142111185Y-57583609D01*
X142111172Y-57583602D01*
X141965501Y-57523264D01*
X141965489Y-57523261D01*
X141810845Y-57492500D01*
X141810842Y-57492500D01*
X141653158Y-57492500D01*
X141653155Y-57492500D01*
X141498510Y-57523261D01*
X141498498Y-57523264D01*
X141352827Y-57583602D01*
X141352814Y-57583609D01*
X141221711Y-57671210D01*
X141221707Y-57671213D01*
X141110213Y-57782707D01*
X141110210Y-57782711D01*
X141022609Y-57913814D01*
X141022602Y-57913827D01*
X140962264Y-58059498D01*
X140962261Y-58059510D01*
X140931500Y-58214153D01*
X140931500Y-58371846D01*
X140962260Y-58526488D01*
X140962262Y-58526493D01*
X140962263Y-58526497D01*
X140965032Y-58533181D01*
X140968362Y-58541221D01*
X140975828Y-58610691D01*
X140944551Y-58673169D01*
X140901251Y-58703232D01*
X140878873Y-58712501D01*
X140809403Y-58719969D01*
X140762530Y-58701041D01*
X140719050Y-58671988D01*
X140719047Y-58671987D01*
X140555167Y-58604106D01*
X140555158Y-58604103D01*
X140381194Y-58569500D01*
X140381191Y-58569500D01*
X131694362Y-58569500D01*
X131627323Y-58549815D01*
X131606681Y-58533181D01*
X131536819Y-58463319D01*
X131503334Y-58401996D01*
X131500500Y-58375638D01*
X131500500Y-56724307D01*
X131500499Y-56724303D01*
X131473664Y-56589394D01*
X131465895Y-56550334D01*
X131429468Y-56462394D01*
X131398013Y-56386453D01*
X131346362Y-56309153D01*
X131338936Y-56298039D01*
X131338936Y-56298038D01*
X131338933Y-56298036D01*
X131299466Y-56238966D01*
X128067653Y-53007153D01*
X136613500Y-53007153D01*
X136613500Y-53164843D01*
X136644261Y-53319489D01*
X136644264Y-53319501D01*
X136704602Y-53465172D01*
X136704609Y-53465185D01*
X136792210Y-53596288D01*
X136792213Y-53596292D01*
X136903707Y-53707786D01*
X136903711Y-53707789D01*
X137034814Y-53795390D01*
X137034827Y-53795397D01*
X137157442Y-53846185D01*
X137180503Y-53855737D01*
X137244656Y-53868498D01*
X137335849Y-53886638D01*
X137397760Y-53919023D01*
X137399339Y-53920574D01*
X137818139Y-54339374D01*
X137818149Y-54339385D01*
X137822479Y-54343715D01*
X137822480Y-54343716D01*
X137934284Y-54455520D01*
X138017394Y-54503503D01*
X138071215Y-54534577D01*
X138223943Y-54575501D01*
X138223946Y-54575501D01*
X138340499Y-54575501D01*
X138407538Y-54595186D01*
X138453293Y-54647990D01*
X138464499Y-54699501D01*
X138464499Y-54729285D01*
X138464500Y-54729298D01*
X138464500Y-55808234D01*
X138444815Y-55875273D01*
X138443602Y-55877125D01*
X138355609Y-56008814D01*
X138355602Y-56008827D01*
X138295264Y-56154498D01*
X138295261Y-56154510D01*
X138264500Y-56309153D01*
X138264500Y-56466846D01*
X138295261Y-56621489D01*
X138295264Y-56621501D01*
X138355602Y-56767172D01*
X138355609Y-56767185D01*
X138443210Y-56898288D01*
X138443213Y-56898292D01*
X138554707Y-57009786D01*
X138554711Y-57009789D01*
X138685814Y-57097390D01*
X138685827Y-57097397D01*
X138812054Y-57149681D01*
X138831503Y-57157737D01*
X138973590Y-57186000D01*
X138986153Y-57188499D01*
X138986156Y-57188500D01*
X138986158Y-57188500D01*
X139143844Y-57188500D01*
X139143845Y-57188499D01*
X139298497Y-57157737D01*
X139444179Y-57097394D01*
X139575289Y-57009789D01*
X139686789Y-56898289D01*
X139774394Y-56767179D01*
X139834737Y-56621497D01*
X139865500Y-56466842D01*
X139865500Y-56309158D01*
X139865500Y-56309155D01*
X139865499Y-56309153D01*
X139850884Y-56235679D01*
X139834737Y-56154503D01*
X139804456Y-56081397D01*
X139774397Y-56008827D01*
X139774390Y-56008814D01*
X139686398Y-55877125D01*
X139665520Y-55810447D01*
X139665500Y-55808234D01*
X139665500Y-54927339D01*
X139682113Y-54865339D01*
X139685615Y-54859273D01*
X139743383Y-54759216D01*
X139751577Y-54745024D01*
X139792500Y-54592296D01*
X139792500Y-54434182D01*
X139792500Y-54214395D01*
X139812185Y-54147356D01*
X139864989Y-54101601D01*
X139934147Y-54091657D01*
X139985390Y-54111292D01*
X140082821Y-54176394D01*
X140082823Y-54176395D01*
X140082827Y-54176397D01*
X140174564Y-54214395D01*
X140228503Y-54236737D01*
X140383153Y-54267499D01*
X140383156Y-54267500D01*
X140383158Y-54267500D01*
X140540844Y-54267500D01*
X140540845Y-54267499D01*
X140695497Y-54236737D01*
X140841179Y-54176394D01*
X140972289Y-54088789D01*
X141083789Y-53977289D01*
X141171394Y-53846179D01*
X141231737Y-53700497D01*
X141262500Y-53545842D01*
X141262500Y-53388158D01*
X141262500Y-53388155D01*
X141262499Y-53388153D01*
X141254925Y-53350075D01*
X141231737Y-53233503D01*
X141208170Y-53176606D01*
X141171397Y-53087827D01*
X141171390Y-53087814D01*
X141083789Y-52956711D01*
X141083786Y-52956707D01*
X140972292Y-52845213D01*
X140972288Y-52845210D01*
X140841185Y-52757609D01*
X140841172Y-52757602D01*
X140695501Y-52697264D01*
X140695489Y-52697261D01*
X140540845Y-52666500D01*
X140540842Y-52666500D01*
X140383158Y-52666500D01*
X140383155Y-52666500D01*
X140228510Y-52697261D01*
X140228498Y-52697264D01*
X140185534Y-52715061D01*
X140138082Y-52724500D01*
X139413296Y-52724500D01*
X139255181Y-52724500D01*
X139102454Y-52765423D01*
X139076998Y-52780120D01*
X139070176Y-52784059D01*
X139070175Y-52784058D01*
X138965526Y-52844477D01*
X138965521Y-52844481D01*
X138711481Y-53098521D01*
X138711479Y-53098524D01*
X138692335Y-53131682D01*
X138673191Y-53164842D01*
X138644569Y-53214416D01*
X138632794Y-53234811D01*
X138582226Y-53283026D01*
X138513619Y-53296248D01*
X138448754Y-53270280D01*
X138437726Y-53260491D01*
X138248574Y-53071339D01*
X138215089Y-53010016D01*
X138214638Y-53007849D01*
X138195863Y-52913466D01*
X138183737Y-52852503D01*
X138155387Y-52784059D01*
X138123397Y-52706827D01*
X138123390Y-52706814D01*
X138035789Y-52575711D01*
X138035786Y-52575707D01*
X137924292Y-52464213D01*
X137924288Y-52464210D01*
X137793185Y-52376609D01*
X137793172Y-52376602D01*
X137647501Y-52316264D01*
X137647489Y-52316261D01*
X137492845Y-52285500D01*
X137492842Y-52285500D01*
X137335158Y-52285500D01*
X137335155Y-52285500D01*
X137180510Y-52316261D01*
X137180498Y-52316264D01*
X137034827Y-52376602D01*
X137034814Y-52376609D01*
X136903711Y-52464210D01*
X136903707Y-52464213D01*
X136792213Y-52575707D01*
X136792210Y-52575711D01*
X136704609Y-52706814D01*
X136704602Y-52706827D01*
X136644264Y-52852498D01*
X136644261Y-52852510D01*
X136613500Y-53007153D01*
X128067653Y-53007153D01*
X127555819Y-52495319D01*
X127522334Y-52433996D01*
X127519500Y-52407638D01*
X127519500Y-43438000D01*
X129869327Y-43438000D01*
X130748590Y-43438000D01*
X130698963Y-43523956D01*
X130670000Y-43632048D01*
X130670000Y-43743952D01*
X130698963Y-43852044D01*
X130748590Y-43938000D01*
X129869327Y-43938000D01*
X129875164Y-43974855D01*
X129875164Y-43974858D01*
X129934746Y-44158234D01*
X129934747Y-44158237D01*
X130022288Y-44330043D01*
X130135616Y-44486027D01*
X130135620Y-44486032D01*
X130271967Y-44622379D01*
X130271972Y-44622383D01*
X130427956Y-44735711D01*
X130599762Y-44823252D01*
X130599765Y-44823253D01*
X130783143Y-44882835D01*
X130973591Y-44913000D01*
X131195000Y-44913000D01*
X131195000Y-44113000D01*
X131695000Y-44113000D01*
X131695000Y-44913000D01*
X131916409Y-44913000D01*
X132106856Y-44882835D01*
X132290234Y-44823253D01*
X132290237Y-44823252D01*
X132462043Y-44735711D01*
X132618027Y-44622383D01*
X132618032Y-44622379D01*
X132754379Y-44486032D01*
X132754383Y-44486027D01*
X132867711Y-44330043D01*
X132955252Y-44158237D01*
X132955253Y-44158234D01*
X133014835Y-43974858D01*
X133014835Y-43974855D01*
X133020673Y-43938000D01*
X132141410Y-43938000D01*
X132191037Y-43852044D01*
X132220000Y-43743952D01*
X132220000Y-43632048D01*
X132209149Y-43591551D01*
X139344500Y-43591551D01*
X139344500Y-43784448D01*
X139374675Y-43974969D01*
X139374676Y-43974972D01*
X139434285Y-44158429D01*
X139521859Y-44330302D01*
X139635241Y-44486359D01*
X139771641Y-44622759D01*
X139927698Y-44736141D01*
X140099571Y-44823715D01*
X140283028Y-44883324D01*
X140473551Y-44913500D01*
X140473552Y-44913500D01*
X141416448Y-44913500D01*
X141416449Y-44913500D01*
X141606972Y-44883324D01*
X141790429Y-44823715D01*
X141962302Y-44736141D01*
X142118359Y-44622759D01*
X142254759Y-44486359D01*
X142368141Y-44330302D01*
X142455715Y-44158429D01*
X142515324Y-43974972D01*
X142545500Y-43784449D01*
X142545500Y-43591551D01*
X142515324Y-43401028D01*
X142455715Y-43217571D01*
X142368141Y-43045698D01*
X142254759Y-42889641D01*
X142118359Y-42753241D01*
X141962302Y-42639859D01*
X141790429Y-42552285D01*
X141606972Y-42492676D01*
X141606970Y-42492675D01*
X141606969Y-42492675D01*
X141460614Y-42469495D01*
X141416449Y-42462500D01*
X140473551Y-42462500D01*
X140437697Y-42468178D01*
X140283030Y-42492675D01*
X140099568Y-42552286D01*
X139927697Y-42639859D01*
X139892501Y-42665431D01*
X139771641Y-42753241D01*
X139771639Y-42753243D01*
X139771638Y-42753243D01*
X139635243Y-42889638D01*
X139635243Y-42889639D01*
X139635241Y-42889641D01*
X139635001Y-42889972D01*
X139521859Y-43045697D01*
X139434286Y-43217568D01*
X139374675Y-43401030D01*
X139344500Y-43591551D01*
X132209149Y-43591551D01*
X132191037Y-43523956D01*
X132141410Y-43438000D01*
X133020673Y-43438000D01*
X133014835Y-43401144D01*
X133014835Y-43401141D01*
X132955253Y-43217765D01*
X132955252Y-43217762D01*
X132867711Y-43045956D01*
X132754383Y-42889972D01*
X132754379Y-42889967D01*
X132618032Y-42753620D01*
X132618027Y-42753616D01*
X132462043Y-42640288D01*
X132290237Y-42552747D01*
X132290234Y-42552746D01*
X132106856Y-42493164D01*
X131916409Y-42463000D01*
X131695000Y-42463000D01*
X131695000Y-43263000D01*
X131195000Y-43263000D01*
X131195000Y-42463000D01*
X130973591Y-42463000D01*
X130783143Y-42493164D01*
X130599765Y-42552746D01*
X130599762Y-42552747D01*
X130427956Y-42640288D01*
X130271972Y-42753616D01*
X130271967Y-42753620D01*
X130135620Y-42889967D01*
X130135616Y-42889972D01*
X130022288Y-43045956D01*
X129934747Y-43217762D01*
X129934746Y-43217765D01*
X129875164Y-43401141D01*
X129875164Y-43401144D01*
X129869327Y-43438000D01*
X127519500Y-43438000D01*
X127519500Y-40297306D01*
X127519499Y-40297304D01*
X127484896Y-40123341D01*
X127484893Y-40123332D01*
X127417016Y-39959459D01*
X127417009Y-39959446D01*
X127318464Y-39811965D01*
X127318461Y-39811961D01*
X127193038Y-39686538D01*
X127193034Y-39686535D01*
X127045553Y-39587990D01*
X127045540Y-39587983D01*
X126881667Y-39520106D01*
X126881658Y-39520103D01*
X126707694Y-39485500D01*
X126707691Y-39485500D01*
X126530309Y-39485500D01*
X126530306Y-39485500D01*
X126356341Y-39520103D01*
X126356332Y-39520106D01*
X126192459Y-39587983D01*
X126192446Y-39587990D01*
X126044965Y-39686535D01*
X126044961Y-39686538D01*
X125919538Y-39811961D01*
X125919535Y-39811965D01*
X125820990Y-39959446D01*
X125820983Y-39959459D01*
X125753106Y-40123332D01*
X125753103Y-40123341D01*
X125718500Y-40297304D01*
X125718500Y-41087638D01*
X125698815Y-41154677D01*
X125646011Y-41200432D01*
X125576853Y-41210376D01*
X125513297Y-41181351D01*
X125506819Y-41175319D01*
X125415038Y-41083538D01*
X125415034Y-41083535D01*
X125267553Y-40984990D01*
X125267540Y-40984983D01*
X125103667Y-40917106D01*
X125103658Y-40917103D01*
X124929694Y-40882500D01*
X124929691Y-40882500D01*
X124752309Y-40882500D01*
X124752306Y-40882500D01*
X124578341Y-40917103D01*
X124578332Y-40917106D01*
X124414459Y-40984983D01*
X124414446Y-40984990D01*
X124266965Y-41083535D01*
X124266961Y-41083538D01*
X124141538Y-41208961D01*
X124141535Y-41208965D01*
X124042990Y-41356446D01*
X124042983Y-41356459D01*
X123975106Y-41520332D01*
X123975103Y-41520341D01*
X123940500Y-41694304D01*
X111009500Y-41694304D01*
X111009500Y-40424306D01*
X111009499Y-40424304D01*
X110974896Y-40250341D01*
X110974893Y-40250332D01*
X110907016Y-40086459D01*
X110907009Y-40086446D01*
X110808464Y-39938965D01*
X110808461Y-39938961D01*
X110683038Y-39813538D01*
X110683034Y-39813535D01*
X110535553Y-39714990D01*
X110535540Y-39714983D01*
X110371667Y-39647106D01*
X110371658Y-39647103D01*
X110197694Y-39612500D01*
X110197691Y-39612500D01*
X110020309Y-39612500D01*
X110020306Y-39612500D01*
X109846341Y-39647103D01*
X109846332Y-39647106D01*
X109682459Y-39714983D01*
X109682446Y-39714990D01*
X109534965Y-39813535D01*
X109534961Y-39813538D01*
X109409538Y-39938961D01*
X109409535Y-39938965D01*
X109310990Y-40086446D01*
X109310983Y-40086459D01*
X109243106Y-40250332D01*
X109243103Y-40250341D01*
X109208500Y-40424304D01*
X109208500Y-42430699D01*
X109188815Y-42497738D01*
X109136011Y-42543493D01*
X109122824Y-42548628D01*
X109111575Y-42552283D01*
X108939697Y-42639859D01*
X108904501Y-42665431D01*
X108783641Y-42753241D01*
X108783639Y-42753243D01*
X108783638Y-42753243D01*
X108647243Y-42889638D01*
X108647243Y-42889639D01*
X108647241Y-42889641D01*
X108647001Y-42889972D01*
X108533859Y-43045697D01*
X108446286Y-43217568D01*
X108386675Y-43401030D01*
X108356500Y-43591551D01*
X101221149Y-43591551D01*
X101203037Y-43523956D01*
X101153410Y-43438000D01*
X102032673Y-43438000D01*
X102026835Y-43401144D01*
X102026835Y-43401141D01*
X101967253Y-43217765D01*
X101967252Y-43217762D01*
X101879711Y-43045956D01*
X101766383Y-42889972D01*
X101766379Y-42889967D01*
X101630032Y-42753620D01*
X101630027Y-42753616D01*
X101474043Y-42640288D01*
X101302237Y-42552747D01*
X101302234Y-42552746D01*
X101118856Y-42493164D01*
X100928409Y-42463000D01*
X100707000Y-42463000D01*
X100707000Y-43263000D01*
X100207000Y-43263000D01*
X100207000Y-42463000D01*
X99985591Y-42463000D01*
X99795143Y-42493164D01*
X99611765Y-42552746D01*
X99611762Y-42552747D01*
X99439956Y-42640288D01*
X99283972Y-42753616D01*
X99283967Y-42753620D01*
X99147620Y-42889967D01*
X99147616Y-42889972D01*
X99034288Y-43045956D01*
X98946747Y-43217762D01*
X98946746Y-43217765D01*
X98887164Y-43401141D01*
X98887164Y-43401144D01*
X98881327Y-43438000D01*
X92533180Y-43438000D01*
X92527324Y-43401028D01*
X92467715Y-43217571D01*
X92380141Y-43045698D01*
X92266759Y-42889641D01*
X92130359Y-42753241D01*
X91974302Y-42639859D01*
X91802429Y-42552285D01*
X91618972Y-42492676D01*
X91618970Y-42492675D01*
X91618969Y-42492675D01*
X91472614Y-42469495D01*
X91428449Y-42462500D01*
X90485551Y-42462500D01*
X90449697Y-42468178D01*
X90295030Y-42492675D01*
X90111568Y-42552286D01*
X89939697Y-42639859D01*
X89904501Y-42665431D01*
X89783641Y-42753241D01*
X89783639Y-42753243D01*
X89783638Y-42753243D01*
X89647243Y-42889638D01*
X89647243Y-42889639D01*
X89647241Y-42889641D01*
X89647001Y-42889972D01*
X89533859Y-43045697D01*
X89446286Y-43217568D01*
X89386675Y-43401030D01*
X89356500Y-43591551D01*
X77470000Y-43591551D01*
X77470000Y-37978711D01*
X79683500Y-37978711D01*
X79683500Y-38221288D01*
X79715161Y-38461785D01*
X79777947Y-38696104D01*
X79870773Y-38920205D01*
X79870776Y-38920212D01*
X79992064Y-39130289D01*
X79992066Y-39130292D01*
X79992067Y-39130293D01*
X80139733Y-39322736D01*
X80139739Y-39322743D01*
X80311256Y-39494260D01*
X80311262Y-39494265D01*
X80503711Y-39641936D01*
X80713788Y-39763224D01*
X80937900Y-39856054D01*
X81172211Y-39918838D01*
X81352586Y-39942584D01*
X81412711Y-39950500D01*
X81412712Y-39950500D01*
X81655289Y-39950500D01*
X81703388Y-39944167D01*
X81895789Y-39918838D01*
X82130100Y-39856054D01*
X82354212Y-39763224D01*
X82564289Y-39641936D01*
X82756738Y-39494265D01*
X82928265Y-39322738D01*
X83075936Y-39130289D01*
X83197224Y-38920212D01*
X83290054Y-38696100D01*
X83352838Y-38461789D01*
X83384500Y-38221288D01*
X83384500Y-37978712D01*
X83384500Y-37978711D01*
X179759500Y-37978711D01*
X179759500Y-38221288D01*
X179791161Y-38461785D01*
X179853947Y-38696104D01*
X179946773Y-38920205D01*
X179946776Y-38920212D01*
X180068064Y-39130289D01*
X180068066Y-39130292D01*
X180068067Y-39130293D01*
X180215733Y-39322736D01*
X180215739Y-39322743D01*
X180387256Y-39494260D01*
X180387262Y-39494265D01*
X180579711Y-39641936D01*
X180789788Y-39763224D01*
X181013900Y-39856054D01*
X181248211Y-39918838D01*
X181428586Y-39942584D01*
X181488711Y-39950500D01*
X181488712Y-39950500D01*
X181731289Y-39950500D01*
X181779388Y-39944167D01*
X181971789Y-39918838D01*
X182206100Y-39856054D01*
X182430212Y-39763224D01*
X182640289Y-39641936D01*
X182832738Y-39494265D01*
X183004265Y-39322738D01*
X183151936Y-39130289D01*
X183273224Y-38920212D01*
X183366054Y-38696100D01*
X183428838Y-38461789D01*
X183460500Y-38221288D01*
X183460500Y-37978712D01*
X183428838Y-37738211D01*
X183366054Y-37503900D01*
X183273224Y-37279788D01*
X183151936Y-37069711D01*
X183004265Y-36877262D01*
X183004260Y-36877256D01*
X182832743Y-36705739D01*
X182832736Y-36705733D01*
X182640293Y-36558067D01*
X182640292Y-36558066D01*
X182640289Y-36558064D01*
X182430212Y-36436776D01*
X182430205Y-36436773D01*
X182206104Y-36343947D01*
X181971785Y-36281161D01*
X181731289Y-36249500D01*
X181731288Y-36249500D01*
X181488712Y-36249500D01*
X181488711Y-36249500D01*
X181248214Y-36281161D01*
X181013895Y-36343947D01*
X180789794Y-36436773D01*
X180789785Y-36436777D01*
X180579706Y-36558067D01*
X180387263Y-36705733D01*
X180387256Y-36705739D01*
X180215739Y-36877256D01*
X180215733Y-36877263D01*
X180068067Y-37069706D01*
X179946777Y-37279785D01*
X179946773Y-37279794D01*
X179853947Y-37503895D01*
X179791161Y-37738214D01*
X179759500Y-37978711D01*
X83384500Y-37978711D01*
X83352838Y-37738211D01*
X83290054Y-37503900D01*
X83197224Y-37279788D01*
X83075936Y-37069711D01*
X82928265Y-36877262D01*
X82928260Y-36877256D01*
X82756743Y-36705739D01*
X82756736Y-36705733D01*
X82564293Y-36558067D01*
X82564292Y-36558066D01*
X82564289Y-36558064D01*
X82354212Y-36436776D01*
X82354205Y-36436773D01*
X82130104Y-36343947D01*
X81895785Y-36281161D01*
X81655289Y-36249500D01*
X81655288Y-36249500D01*
X81412712Y-36249500D01*
X81412711Y-36249500D01*
X81172214Y-36281161D01*
X80937895Y-36343947D01*
X80713794Y-36436773D01*
X80713785Y-36436777D01*
X80503706Y-36558067D01*
X80311263Y-36705733D01*
X80311256Y-36705739D01*
X80139739Y-36877256D01*
X80139733Y-36877263D01*
X79992067Y-37069706D01*
X79870777Y-37279785D01*
X79870773Y-37279794D01*
X79777947Y-37503895D01*
X79715161Y-37738214D01*
X79683500Y-37978711D01*
X77470000Y-37978711D01*
X77470000Y-32199805D01*
X77489685Y-32132766D01*
X77542489Y-32087011D01*
X77594151Y-32075805D01*
X183645153Y-32206733D01*
G37*
%TD.AperFunction*%
%TD*%
M02*
