%TF.GenerationSoftware,KiCad,Pcbnew,10.0.6-10.0.6~ubuntu26.04.1*%
%TF.CreationDate,2026-09-09T01:59:43+02:00*%
%TF.ProjectId,usbpd-adapter,75736270-642d-4616-9461-707465722e6b,rev?*%
%TF.SameCoordinates,Original*%
%TF.FileFunction,Paste,Top*%
%TF.FilePolarity,Positive*%
%FSLAX46Y46*%
G04 Gerber Fmt 4.6, Leading zero omitted, Abs format (unit mm)*
G04 Created by KiCad (PCBNEW 10.0.6-10.0.6~ubuntu26.04.1) date 2026-09-09 01:59:43*
%MOMM*%
%LPD*%
G01*
G04 APERTURE LIST*
G04 Aperture macros list*
%AMRoundRect*
0 Rectangle with rounded corners*
0 $1 Rounding radius*
0 $2 $3 $4 $5 $6 $7 $8 $9 X,Y pos of 4 corners*
0 Add a 4 corners polygon primitive as box body*
4,1,4,$2,$3,$4,$5,$6,$7,$8,$9,$2,$3,0*
0 Add four circle primitives for the rounded corners*
1,1,$1+$1,$2,$3*
1,1,$1+$1,$4,$5*
1,1,$1+$1,$6,$7*
1,1,$1+$1,$8,$9*
0 Add four rect primitives between the rounded corners*
20,1,$1+$1,$2,$3,$4,$5,0*
20,1,$1+$1,$4,$5,$6,$7,0*
20,1,$1+$1,$6,$7,$8,$9,0*
20,1,$1+$1,$8,$9,$2,$3,0*%
G04 Aperture macros list end*
%ADD10RoundRect,0.250000X-0.325000X-0.450000X0.325000X-0.450000X0.325000X0.450000X-0.325000X0.450000X0*%
%ADD11RoundRect,0.250000X0.450000X-0.325000X0.450000X0.325000X-0.450000X0.325000X-0.450000X-0.325000X0*%
%ADD12RoundRect,0.250000X0.325000X0.450000X-0.325000X0.450000X-0.325000X-0.450000X0.325000X-0.450000X0*%
%ADD13RoundRect,0.250000X-0.450000X0.325000X-0.450000X-0.325000X0.450000X-0.325000X0.450000X0.325000X0*%
%ADD14RoundRect,0.237500X-0.250000X-0.237500X0.250000X-0.237500X0.250000X0.237500X-0.250000X0.237500X0*%
%ADD15RoundRect,0.150000X0.587500X0.150000X-0.587500X0.150000X-0.587500X-0.150000X0.587500X-0.150000X0*%
%ADD16RoundRect,0.237500X0.237500X-0.250000X0.237500X0.250000X-0.237500X0.250000X-0.237500X-0.250000X0*%
%ADD17RoundRect,0.237500X-0.237500X0.300000X-0.237500X-0.300000X0.237500X-0.300000X0.237500X0.300000X0*%
%ADD18RoundRect,0.237500X0.237500X-0.300000X0.237500X0.300000X-0.237500X0.300000X-0.237500X-0.300000X0*%
%ADD19RoundRect,0.237500X0.300000X0.237500X-0.300000X0.237500X-0.300000X-0.237500X0.300000X-0.237500X0*%
%ADD20RoundRect,0.250000X-0.650000X0.412500X-0.650000X-0.412500X0.650000X-0.412500X0.650000X0.412500X0*%
%ADD21RoundRect,0.250000X1.600000X-0.300000X1.600000X0.300000X-1.600000X0.300000X-1.600000X-0.300000X0*%
%ADD22RoundRect,0.250000X-0.412500X-0.650000X0.412500X-0.650000X0.412500X0.650000X-0.412500X0.650000X0*%
%ADD23RoundRect,0.150000X-0.587500X-0.150000X0.587500X-0.150000X0.587500X0.150000X-0.587500X0.150000X0*%
%ADD24RoundRect,0.237500X0.250000X0.237500X-0.250000X0.237500X-0.250000X-0.237500X0.250000X-0.237500X0*%
%ADD25RoundRect,0.250000X-0.250000X-0.250000X0.250000X-0.250000X0.250000X0.250000X-0.250000X0.250000X0*%
%ADD26RoundRect,0.237500X-0.237500X0.250000X-0.237500X-0.250000X0.237500X-0.250000X0.237500X0.250000X0*%
%ADD27RoundRect,0.150000X-0.150000X0.512500X-0.150000X-0.512500X0.150000X-0.512500X0.150000X0.512500X0*%
%ADD28RoundRect,0.250000X1.125000X-1.275000X1.125000X1.275000X-1.125000X1.275000X-1.125000X-1.275000X0*%
%ADD29RoundRect,0.250000X0.350000X-0.850000X0.350000X0.850000X-0.350000X0.850000X-0.350000X-0.850000X0*%
%ADD30R,1.550000X0.600000*%
%ADD31R,2.600000X3.100000*%
%ADD32RoundRect,0.112500X-0.112500X0.187500X-0.112500X-0.187500X0.112500X-0.187500X0.112500X0.187500X0*%
%ADD33RoundRect,0.250000X0.412500X0.650000X-0.412500X0.650000X-0.412500X-0.650000X0.412500X-0.650000X0*%
%ADD34RoundRect,0.250000X0.650000X-1.500000X0.650000X1.500000X-0.650000X1.500000X-0.650000X-1.500000X0*%
%ADD35RoundRect,0.250000X-0.300000X-1.600000X0.300000X-1.600000X0.300000X1.600000X-0.300000X1.600000X0*%
%ADD36RoundRect,0.250000X0.595000X1.080000X-0.595000X1.080000X-0.595000X-1.080000X0.595000X-1.080000X0*%
%ADD37RoundRect,0.150000X0.687500X0.150000X-0.687500X0.150000X-0.687500X-0.150000X0.687500X-0.150000X0*%
%ADD38RoundRect,0.375000X-0.625000X-0.375000X0.625000X-0.375000X0.625000X0.375000X-0.625000X0.375000X0*%
%ADD39RoundRect,0.500000X-0.500000X-1.400000X0.500000X-1.400000X0.500000X1.400000X-0.500000X1.400000X0*%
%ADD40RoundRect,0.250000X0.925000X1.500000X-0.925000X1.500000X-0.925000X-1.500000X0.925000X-1.500000X0*%
%ADD41RoundRect,0.150000X0.512500X0.150000X-0.512500X0.150000X-0.512500X-0.150000X0.512500X-0.150000X0*%
%ADD42RoundRect,0.250000X-1.275000X-1.125000X1.275000X-1.125000X1.275000X1.125000X-1.275000X1.125000X0*%
%ADD43RoundRect,0.250000X-0.850000X-0.350000X0.850000X-0.350000X0.850000X0.350000X-0.850000X0.350000X0*%
%ADD44RoundRect,0.250000X1.000000X-1.750000X1.000000X1.750000X-1.000000X1.750000X-1.000000X-1.750000X0*%
%ADD45RoundRect,0.150000X-0.425000X0.150000X-0.425000X-0.150000X0.425000X-0.150000X0.425000X0.150000X0*%
%ADD46RoundRect,0.075000X-0.500000X0.075000X-0.500000X-0.075000X0.500000X-0.075000X0.500000X0.075000X0*%
%ADD47O,2.100000X1.000000*%
%ADD48O,1.800000X1.000000*%
G04 APERTURE END LIST*
D10*
%TO.C,D18*%
X139437000Y-52705000D03*
X141487000Y-52705000D03*
%TD*%
%TO.C,D17*%
X122546000Y-52705000D03*
X124596000Y-52705000D03*
%TD*%
%TO.C,D16*%
X122546000Y-50546000D03*
X124596000Y-50546000D03*
%TD*%
%TO.C,D14*%
X107560000Y-52578000D03*
X109610000Y-52578000D03*
%TD*%
%TO.C,D13*%
X91812000Y-52578000D03*
X93862000Y-52578000D03*
%TD*%
%TO.C,D10*%
X170425000Y-52578000D03*
X172475000Y-52578000D03*
%TD*%
D11*
%TO.C,D9*%
X80518000Y-76463000D03*
X80518000Y-74413000D03*
%TD*%
D12*
%TO.C,D8*%
X156092000Y-52578000D03*
X154042000Y-52578000D03*
%TD*%
%TO.C,D7*%
X93862000Y-50419000D03*
X91812000Y-50419000D03*
%TD*%
D10*
%TO.C,D6*%
X107560000Y-50419000D03*
X109610000Y-50419000D03*
%TD*%
%TO.C,D5*%
X139437000Y-50546000D03*
X141487000Y-50546000D03*
%TD*%
D12*
%TO.C,D3*%
X156092000Y-50419000D03*
X154042000Y-50419000D03*
%TD*%
D10*
%TO.C,D2*%
X170425000Y-50419000D03*
X172475000Y-50419000D03*
%TD*%
D13*
%TO.C,D1*%
X78359000Y-74413000D03*
X78359000Y-76463000D03*
%TD*%
D14*
%TO.C,R55*%
X156186500Y-64770000D03*
X158011500Y-64770000D03*
%TD*%
D15*
%TO.C,Q2*%
X89329500Y-64069000D03*
X89329500Y-62169000D03*
X87454500Y-63119000D03*
%TD*%
D16*
%TO.C,R4*%
X102000000Y-88662500D03*
X102000000Y-86837500D03*
%TD*%
D17*
%TO.C,C43*%
X149733000Y-90704500D03*
X149733000Y-92429500D03*
%TD*%
D14*
%TO.C,R21*%
X144187500Y-88800000D03*
X146012500Y-88800000D03*
%TD*%
%TO.C,R46*%
X91492700Y-60833000D03*
X93317700Y-60833000D03*
%TD*%
%TO.C,R57*%
X160504500Y-59944000D03*
X162329500Y-59944000D03*
%TD*%
%TO.C,R23*%
X158599500Y-87981000D03*
X160424500Y-87981000D03*
%TD*%
D18*
%TO.C,C10*%
X84963000Y-76300500D03*
X84963000Y-74575500D03*
%TD*%
D19*
%TO.C,C18*%
X111862500Y-57750000D03*
X110137500Y-57750000D03*
%TD*%
D14*
%TO.C,R47*%
X136196700Y-92506800D03*
X138021700Y-92506800D03*
%TD*%
D20*
%TO.C,C6*%
X104500000Y-87687500D03*
X104500000Y-90812500D03*
%TD*%
D14*
%TO.C,R12*%
X145187500Y-56800000D03*
X147012500Y-56800000D03*
%TD*%
D20*
%TO.C,C8*%
X96400000Y-94437500D03*
X96400000Y-97562500D03*
%TD*%
D21*
%TO.C,L1*%
X110900000Y-97500000D03*
X110900000Y-94500000D03*
%TD*%
D22*
%TO.C,C12*%
X88709100Y-68122800D03*
X91834100Y-68122800D03*
%TD*%
D14*
%TO.C,R33*%
X136552300Y-84074000D03*
X138377300Y-84074000D03*
%TD*%
D23*
%TO.C,Q1*%
X140438900Y-84038400D03*
X140438900Y-85938400D03*
X142313900Y-84988400D03*
%TD*%
%TO.C,Q4*%
X160860500Y-62804000D03*
X160860500Y-64704000D03*
X162735500Y-63754000D03*
%TD*%
D24*
%TO.C,R28*%
X121112500Y-88800000D03*
X119287500Y-88800000D03*
%TD*%
D25*
%TO.C,D11*%
X144450000Y-64000000D03*
X146950000Y-64000000D03*
%TD*%
D19*
%TO.C,C13*%
X106612500Y-71250000D03*
X104887500Y-71250000D03*
%TD*%
D14*
%TO.C,R11*%
X140787500Y-78000000D03*
X142612500Y-78000000D03*
%TD*%
D20*
%TO.C,C47*%
X149606000Y-94830500D03*
X149606000Y-97955500D03*
%TD*%
D14*
%TO.C,R49*%
X167489500Y-70231000D03*
X169314500Y-70231000D03*
%TD*%
D24*
%TO.C,R26*%
X130112500Y-57000000D03*
X128287500Y-57000000D03*
%TD*%
%TO.C,R27*%
X121112500Y-92000000D03*
X119287500Y-92000000D03*
%TD*%
D23*
%TO.C,U8*%
X144477500Y-91125000D03*
X144477500Y-93025000D03*
X146352500Y-92075000D03*
%TD*%
D16*
%TO.C,R31*%
X160655000Y-77493500D03*
X160655000Y-75668500D03*
%TD*%
D26*
%TO.C,R15*%
X156464000Y-75668500D03*
X156464000Y-77493500D03*
%TD*%
D18*
%TO.C,C50*%
X150495000Y-82777500D03*
X150495000Y-81052500D03*
%TD*%
D14*
%TO.C,R52*%
X171934500Y-60833000D03*
X173759500Y-60833000D03*
%TD*%
%TO.C,R10*%
X109087500Y-71250000D03*
X110912500Y-71250000D03*
%TD*%
D15*
%TO.C,U10*%
X162227500Y-69911000D03*
X162227500Y-68011000D03*
X160352500Y-68961000D03*
%TD*%
D27*
%TO.C,U1*%
X105850000Y-94862500D03*
X104900000Y-94862500D03*
X103950000Y-94862500D03*
X103950000Y-97137500D03*
X104900000Y-97137500D03*
X105850000Y-97137500D03*
%TD*%
D26*
%TO.C,R16*%
X144300000Y-83887500D03*
X144300000Y-85712500D03*
%TD*%
D15*
%TO.C,U11*%
X173657500Y-69530000D03*
X173657500Y-67630000D03*
X171782500Y-68580000D03*
%TD*%
D28*
%TO.C,U5*%
X114975000Y-63165000D03*
X118025000Y-63165000D03*
X114975000Y-59815000D03*
X118025000Y-59815000D03*
D29*
X114220000Y-67790000D03*
X116500000Y-67790000D03*
X118780000Y-67790000D03*
%TD*%
D20*
%TO.C,C1*%
X100400000Y-94437500D03*
X100400000Y-97562500D03*
%TD*%
D16*
%TO.C,R44*%
X137900000Y-58312500D03*
X137900000Y-56487500D03*
%TD*%
D14*
%TO.C,R19*%
X158599500Y-85471000D03*
X160424500Y-85471000D03*
%TD*%
D26*
%TO.C,R13*%
X136300000Y-73087500D03*
X136300000Y-74912500D03*
%TD*%
D14*
%TO.C,R8*%
X103837500Y-93000000D03*
X105662500Y-93000000D03*
%TD*%
D16*
%TO.C,R40*%
X135100000Y-62112500D03*
X135100000Y-60287500D03*
%TD*%
D14*
%TO.C,R20*%
X91492700Y-64262000D03*
X93317700Y-64262000D03*
%TD*%
D16*
%TO.C,R43*%
X140700000Y-58312500D03*
X140700000Y-56487500D03*
%TD*%
D14*
%TO.C,R22*%
X140187500Y-88800000D03*
X142012500Y-88800000D03*
%TD*%
D24*
%TO.C,R5*%
X172235500Y-54610000D03*
X170410500Y-54610000D03*
%TD*%
D16*
%TO.C,R7*%
X82713000Y-76350500D03*
X82713000Y-74525500D03*
%TD*%
D30*
%TO.C,U4*%
X101950000Y-70905000D03*
X101950000Y-69635000D03*
X101950000Y-68365000D03*
X101950000Y-67095000D03*
X96550000Y-67095000D03*
X96550000Y-68365000D03*
X96550000Y-69635000D03*
X96550000Y-70905000D03*
D31*
X99250000Y-69000000D03*
%TD*%
D32*
%TO.C,D15*%
X159385000Y-80230000D03*
X159385000Y-82330000D03*
%TD*%
D24*
%TO.C,R50*%
X169173000Y-64403500D03*
X167348000Y-64403500D03*
%TD*%
D14*
%TO.C,R29*%
X92487500Y-74400000D03*
X94312500Y-74400000D03*
%TD*%
D33*
%TO.C,C11*%
X91812500Y-70750000D03*
X88687500Y-70750000D03*
%TD*%
D24*
%TO.C,R38*%
X145212500Y-73600000D03*
X143387500Y-73600000D03*
%TD*%
D14*
%TO.C,R30*%
X90487500Y-76800000D03*
X92312500Y-76800000D03*
%TD*%
%TO.C,R51*%
X167348000Y-61468000D03*
X169173000Y-61468000D03*
%TD*%
%TO.C,R56*%
X156186500Y-61722000D03*
X158011500Y-61722000D03*
%TD*%
D23*
%TO.C,Q5*%
X172163500Y-63058000D03*
X172163500Y-64958000D03*
X174038500Y-64008000D03*
%TD*%
D24*
%TO.C,R34*%
X138377300Y-85902800D03*
X136552300Y-85902800D03*
%TD*%
D15*
%TO.C,U13*%
X145717500Y-60513000D03*
X145717500Y-58613000D03*
X143842500Y-59563000D03*
%TD*%
D34*
%TO.C,D4*%
X108600000Y-66700000D03*
X108600000Y-61700000D03*
%TD*%
D24*
%TO.C,R53*%
X158011500Y-68102000D03*
X156186500Y-68102000D03*
%TD*%
D35*
%TO.C,L3*%
X153567000Y-86614000D03*
X156567000Y-86614000D03*
%TD*%
D14*
%TO.C,R9*%
X113087500Y-71250000D03*
X114912500Y-71250000D03*
%TD*%
%TO.C,R32*%
X167489500Y-67721000D03*
X169314500Y-67721000D03*
%TD*%
D19*
%TO.C,C2*%
X106112500Y-99000000D03*
X104387500Y-99000000D03*
%TD*%
D33*
%TO.C,C5*%
X99312500Y-83250000D03*
X96187500Y-83250000D03*
%TD*%
D24*
%TO.C,R25*%
X132712500Y-73800000D03*
X130887500Y-73800000D03*
%TD*%
D20*
%TO.C,C48*%
X150241000Y-84797500D03*
X150241000Y-87922500D03*
%TD*%
D36*
%TO.C,U9*%
X97600000Y-78600000D03*
D37*
X100237500Y-80600000D03*
X100237500Y-79600000D03*
X100237500Y-78600000D03*
X100237500Y-77600000D03*
X100237500Y-76600000D03*
X94962500Y-76600000D03*
X94962500Y-77600000D03*
X94962500Y-78600000D03*
X94962500Y-79600000D03*
X94962500Y-80600000D03*
%TD*%
D38*
%TO.C,UX3*%
X156362000Y-92442000D03*
X156362000Y-94742000D03*
X156362000Y-97042000D03*
D39*
X162662000Y-94742000D03*
%TD*%
D26*
%TO.C,R39*%
X138100000Y-70087500D03*
X138100000Y-71912500D03*
%TD*%
D18*
%TO.C,C7*%
X109000000Y-90862500D03*
X109000000Y-89137500D03*
%TD*%
D40*
%TO.C,L2*%
X102275000Y-61500000D03*
X96225000Y-61500000D03*
%TD*%
D20*
%TO.C,C3*%
X120250000Y-94437500D03*
X120250000Y-97562500D03*
%TD*%
D24*
%TO.C,R48*%
X138021700Y-94132400D03*
X136196700Y-94132400D03*
%TD*%
D14*
%TO.C,R54*%
X156186500Y-70612000D03*
X158011500Y-70612000D03*
%TD*%
D20*
%TO.C,C19*%
X163957000Y-80479500D03*
X163957000Y-83604500D03*
%TD*%
D23*
%TO.C,U7*%
X87581500Y-58359000D03*
X87581500Y-60259000D03*
X89456500Y-59309000D03*
%TD*%
D20*
%TO.C,C4*%
X116400000Y-94437500D03*
X116400000Y-97562500D03*
%TD*%
D14*
%TO.C,R35*%
X136187500Y-68400000D03*
X138012500Y-68400000D03*
%TD*%
D41*
%TO.C,U3*%
X156331500Y-82992000D03*
X156331500Y-82042000D03*
X156331500Y-81092000D03*
X154056500Y-81092000D03*
X154056500Y-82042000D03*
X154056500Y-82992000D03*
%TD*%
D14*
%TO.C,R37*%
X139787500Y-73600000D03*
X141612500Y-73600000D03*
%TD*%
D24*
%TO.C,R14*%
X142612500Y-76400000D03*
X140787500Y-76400000D03*
%TD*%
D23*
%TO.C,Q3*%
X140159500Y-90998000D03*
X140159500Y-92898000D03*
X142034500Y-91948000D03*
%TD*%
D33*
%TO.C,C16*%
X125062500Y-58250000D03*
X121937500Y-58250000D03*
%TD*%
D18*
%TO.C,C15*%
X94500000Y-69862500D03*
X94500000Y-68137500D03*
%TD*%
D14*
%TO.C,R18*%
X91492700Y-59283600D03*
X93317700Y-59283600D03*
%TD*%
D25*
%TO.C,D12*%
X144546000Y-66675000D03*
X147046000Y-66675000D03*
%TD*%
D23*
%TO.C,Q7*%
X140162500Y-66450000D03*
X140162500Y-68350000D03*
X142037500Y-67400000D03*
%TD*%
D20*
%TO.C,C9*%
X92329000Y-81241500D03*
X92329000Y-84366500D03*
%TD*%
D42*
%TO.C,U2*%
X112185000Y-79275000D03*
X112185000Y-82325000D03*
X115535000Y-79275000D03*
X115535000Y-82325000D03*
D43*
X107560000Y-78520000D03*
X107560000Y-83080000D03*
%TD*%
D15*
%TO.C,U6*%
X141437500Y-81750000D03*
X141437500Y-79850000D03*
X139562500Y-80800000D03*
%TD*%
D24*
%TO.C,R41*%
X139812500Y-60000000D03*
X137987500Y-60000000D03*
%TD*%
D16*
%TO.C,R42*%
X135100000Y-58312500D03*
X135100000Y-56487500D03*
%TD*%
D14*
%TO.C,R24*%
X143867500Y-95123000D03*
X145692500Y-95123000D03*
%TD*%
D44*
%TO.C,C14*%
X128000000Y-70750000D03*
X128000000Y-62750000D03*
%TD*%
D15*
%TO.C,U12*%
X144828500Y-71308000D03*
X144828500Y-69408000D03*
X142953500Y-70358000D03*
%TD*%
D20*
%TO.C,C45*%
X152908000Y-94830500D03*
X152908000Y-97955500D03*
%TD*%
D23*
%TO.C,Q8*%
X141162500Y-61450000D03*
X141162500Y-63350000D03*
X143037500Y-62400000D03*
%TD*%
D24*
%TO.C,R36*%
X138012500Y-66000000D03*
X136187500Y-66000000D03*
%TD*%
D45*
%TO.C,J3*%
X84162000Y-81382000D03*
X84162000Y-82182000D03*
D46*
X84162000Y-83332000D03*
X84162000Y-84332000D03*
X84162000Y-84832000D03*
X84162000Y-85832000D03*
D45*
X84162000Y-86982000D03*
X84162000Y-87782000D03*
X84162000Y-87782000D03*
X84162000Y-86982000D03*
D46*
X84162000Y-86332000D03*
X84162000Y-85332000D03*
X84162000Y-83832000D03*
X84162000Y-82832000D03*
D45*
X84162000Y-82182000D03*
X84162000Y-81382000D03*
D47*
X83587000Y-80262000D03*
D48*
X79407000Y-80262000D03*
D47*
X83587000Y-88902000D03*
D48*
X79407000Y-88902000D03*
%TD*%
D18*
%TO.C,C46*%
X153035000Y-92429500D03*
X153035000Y-90704500D03*
%TD*%
D14*
%TO.C,R45*%
X91416500Y-62484000D03*
X93241500Y-62484000D03*
%TD*%
D26*
%TO.C,R6*%
X146300000Y-83887500D03*
X146300000Y-85712500D03*
%TD*%
D33*
%TO.C,C17*%
X120562500Y-71250000D03*
X117437500Y-71250000D03*
%TD*%
D14*
%TO.C,R17*%
X91487500Y-57600000D03*
X93312500Y-57600000D03*
%TD*%
D18*
%TO.C,C49*%
X163957000Y-87730500D03*
X163957000Y-86005500D03*
%TD*%
M02*
