%TF.GenerationSoftware,KiCad,Pcbnew,10.0.5-10.0.5~ubuntu26.04.1*%
%TF.CreationDate,2026-08-18T08:11:16+02:00*%
%TF.ProjectId,usbpd-adapter,75736270-642d-4616-9461-707465722e6b,rev?*%
%TF.SameCoordinates,Original*%
%TF.FileFunction,Soldermask,Top*%
%TF.FilePolarity,Negative*%
%FSLAX46Y46*%
G04 Gerber Fmt 4.6, Leading zero omitted, Abs format (unit mm)*
G04 Created by KiCad (PCBNEW 10.0.5-10.0.5~ubuntu26.04.1) date 2026-08-18 08:11:16*
%MOMM*%
%LPD*%
G01*
G04 APERTURE LIST*
G04 Aperture macros list*
%AMRoundRect*
0 Rectangle with rounded corners*
0 $1 Rounding radius*
0 $2 $3 $4 $5 $6 $7 $8 $9 X,Y pos of 4 corners*
0 Add a 4 corners polygon primitive as box body*
4,1,4,$2,$3,$4,$5,$6,$7,$8,$9,$2,$3,0*
0 Add four circle primitives for the rounded corners*
1,1,$1+$1,$2,$3*
1,1,$1+$1,$4,$5*
1,1,$1+$1,$6,$7*
1,1,$1+$1,$8,$9*
0 Add four rect primitives between the rounded corners*
20,1,$1+$1,$2,$3,$4,$5,0*
20,1,$1+$1,$4,$5,$6,$7,0*
20,1,$1+$1,$6,$7,$8,$9,0*
20,1,$1+$1,$8,$9,$2,$3,0*%
%AMFreePoly0*
4,1,23,0.500000,-0.750000,0.000000,-0.750000,0.000000,-0.745722,-0.065263,-0.745722,-0.191342,-0.711940,-0.304381,-0.646677,-0.396677,-0.554381,-0.461940,-0.441342,-0.495722,-0.315263,-0.495722,-0.250000,-0.500000,-0.250000,-0.500000,0.250000,-0.495722,0.250000,-0.495722,0.315263,-0.461940,0.441342,-0.396677,0.554381,-0.304381,0.646677,-0.191342,0.711940,-0.065263,0.745722,0.000000,0.745722,
0.000000,0.750000,0.500000,0.750000,0.500000,-0.750000,0.500000,-0.750000,$1*%
%AMFreePoly1*
4,1,23,0.000000,0.745722,0.065263,0.745722,0.191342,0.711940,0.304381,0.646677,0.396677,0.554381,0.461940,0.441342,0.495722,0.315263,0.495722,0.250000,0.500000,0.250000,0.500000,-0.250000,0.495722,-0.250000,0.495722,-0.315263,0.461940,-0.441342,0.396677,-0.554381,0.304381,-0.646677,0.191342,-0.711940,0.065263,-0.745722,0.000000,-0.745722,0.000000,-0.750000,-0.500000,-0.750000,
-0.500000,0.750000,0.000000,0.750000,0.000000,0.745722,0.000000,0.745722,$1*%
G04 Aperture macros list end*
%ADD10RoundRect,0.237500X0.250000X0.237500X-0.250000X0.237500X-0.250000X-0.237500X0.250000X-0.237500X0*%
%ADD11RoundRect,0.237500X0.237500X-0.250000X0.237500X0.250000X-0.237500X0.250000X-0.237500X-0.250000X0*%
%ADD12RoundRect,0.237500X-0.250000X-0.237500X0.250000X-0.237500X0.250000X0.237500X-0.250000X0.237500X0*%
%ADD13RoundRect,0.150000X-0.587500X-0.150000X0.587500X-0.150000X0.587500X0.150000X-0.587500X0.150000X0*%
%ADD14RoundRect,0.150000X0.587500X0.150000X-0.587500X0.150000X-0.587500X-0.150000X0.587500X-0.150000X0*%
%ADD15RoundRect,0.237500X-0.287500X-0.237500X0.287500X-0.237500X0.287500X0.237500X-0.287500X0.237500X0*%
%ADD16RoundRect,0.237500X0.237500X-0.300000X0.237500X0.300000X-0.237500X0.300000X-0.237500X-0.300000X0*%
%ADD17RoundRect,0.237500X0.300000X0.237500X-0.300000X0.237500X-0.300000X-0.237500X0.300000X-0.237500X0*%
%ADD18RoundRect,0.250000X-0.650000X0.412500X-0.650000X-0.412500X0.650000X-0.412500X0.650000X0.412500X0*%
%ADD19RoundRect,0.250000X1.600000X-0.300000X1.600000X0.300000X-1.600000X0.300000X-1.600000X-0.300000X0*%
%ADD20RoundRect,0.250000X-0.412500X-0.650000X0.412500X-0.650000X0.412500X0.650000X-0.412500X0.650000X0*%
%ADD21RoundRect,0.237500X-0.237500X0.287500X-0.237500X-0.287500X0.237500X-0.287500X0.237500X0.287500X0*%
%ADD22RoundRect,0.237500X-0.237500X0.250000X-0.237500X-0.250000X0.237500X-0.250000X0.237500X0.250000X0*%
%ADD23RoundRect,0.250000X-0.250000X-0.250000X0.250000X-0.250000X0.250000X0.250000X-0.250000X0.250000X0*%
%ADD24RoundRect,0.250001X0.949999X-0.949999X0.949999X0.949999X-0.949999X0.949999X-0.949999X-0.949999X0*%
%ADD25C,2.400000*%
%ADD26RoundRect,0.150000X-0.150000X0.512500X-0.150000X-0.512500X0.150000X-0.512500X0.150000X0.512500X0*%
%ADD27RoundRect,0.250000X0.350000X-0.850000X0.350000X0.850000X-0.350000X0.850000X-0.350000X-0.850000X0*%
%ADD28RoundRect,0.249997X2.650003X-2.950003X2.650003X2.950003X-2.650003X2.950003X-2.650003X-2.950003X0*%
%ADD29R,1.550000X0.600000*%
%ADD30R,2.600000X3.100000*%
%ADD31RoundRect,0.250000X0.412500X0.650000X-0.412500X0.650000X-0.412500X-0.650000X0.412500X-0.650000X0*%
%ADD32FreePoly0,180.000000*%
%ADD33FreePoly1,180.000000*%
%ADD34R,2.780000X2.780000*%
%ADD35C,2.780000*%
%ADD36RoundRect,0.250000X0.650000X-1.500000X0.650000X1.500000X-0.650000X1.500000X-0.650000X-1.500000X0*%
%ADD37RoundRect,0.250000X0.925000X1.500000X-0.925000X1.500000X-0.925000X-1.500000X0.925000X-1.500000X0*%
%ADD38RoundRect,0.100000X-0.637500X-0.100000X0.637500X-0.100000X0.637500X0.100000X-0.637500X0.100000X0*%
%ADD39R,2.800000X2.800000*%
%ADD40C,2.800000*%
%ADD41RoundRect,0.250000X-0.850000X-0.350000X0.850000X-0.350000X0.850000X0.350000X-0.850000X0.350000X0*%
%ADD42RoundRect,0.249997X-2.950003X-2.650003X2.950003X-2.650003X2.950003X2.650003X-2.950003X2.650003X0*%
%ADD43RoundRect,0.250000X1.000000X-1.750000X1.000000X1.750000X-1.000000X1.750000X-1.000000X-1.750000X0*%
%ADD44RoundRect,0.150000X-0.425000X0.150000X-0.425000X-0.150000X0.425000X-0.150000X0.425000X0.150000X0*%
%ADD45RoundRect,0.075000X-0.500000X0.075000X-0.500000X-0.075000X0.500000X-0.075000X0.500000X0.075000X0*%
%ADD46O,2.100000X1.000000*%
%ADD47O,1.800000X1.000000*%
G04 APERTURE END LIST*
%TO.C,JP1*%
G36*
X87850000Y-76000000D02*
G01*
X88150000Y-76000000D01*
X88150000Y-77500000D01*
X87850000Y-77500000D01*
X87850000Y-76000000D01*
G37*
%TD*%
D10*
%TO.C,R28*%
X121112500Y-88800000D03*
X119287500Y-88800000D03*
%TD*%
%TO.C,R27*%
X121112500Y-92000000D03*
X119287500Y-92000000D03*
%TD*%
%TO.C,R26*%
X130112500Y-57000000D03*
X128287500Y-57000000D03*
%TD*%
%TO.C,R25*%
X130887500Y-73800000D03*
X132712500Y-73800000D03*
%TD*%
D11*
%TO.C,R4*%
X102000000Y-88662500D03*
X102000000Y-86837500D03*
%TD*%
D12*
%TO.C,R21*%
X144187500Y-88800000D03*
X146012500Y-88800000D03*
%TD*%
D13*
%TO.C,Q4*%
X140362500Y-94650000D03*
X140362500Y-96550000D03*
X142237500Y-95600000D03*
%TD*%
D14*
%TO.C,U7*%
X89137500Y-59550000D03*
X89137500Y-57650000D03*
X87262500Y-58600000D03*
%TD*%
%TO.C,Q3*%
X89137500Y-63350000D03*
X89137500Y-61450000D03*
X87262500Y-62400000D03*
%TD*%
D15*
%TO.C,D1*%
X88125000Y-99200000D03*
X89875000Y-99200000D03*
%TD*%
D12*
%TO.C,R23*%
X144187500Y-91800000D03*
X146012500Y-91800000D03*
%TD*%
D16*
%TO.C,C10*%
X90250000Y-81862500D03*
X90250000Y-80137500D03*
%TD*%
D17*
%TO.C,C18*%
X111862500Y-57750000D03*
X110137500Y-57750000D03*
%TD*%
D18*
%TO.C,C6*%
X104500000Y-87687500D03*
X104500000Y-90812500D03*
%TD*%
D12*
%TO.C,R12*%
X145187500Y-56800000D03*
X147012500Y-56800000D03*
%TD*%
D18*
%TO.C,C8*%
X96400000Y-94437500D03*
X96400000Y-97562500D03*
%TD*%
D19*
%TO.C,L1*%
X110900000Y-97500000D03*
X110900000Y-94500000D03*
%TD*%
D20*
%TO.C,C12*%
X88687500Y-67250000D03*
X91812500Y-67250000D03*
%TD*%
D21*
%TO.C,D2*%
X146300000Y-93725000D03*
X146300000Y-95475000D03*
%TD*%
D12*
%TO.C,R19*%
X91487500Y-59400000D03*
X93312500Y-59400000D03*
%TD*%
D22*
%TO.C,R1*%
X95250000Y-90337500D03*
X95250000Y-92162500D03*
%TD*%
D21*
%TO.C,D10*%
X144300000Y-93725000D03*
X144300000Y-95475000D03*
%TD*%
D23*
%TO.C,D11*%
X144450000Y-64000000D03*
X146950000Y-64000000D03*
%TD*%
D24*
%TO.C,J5*%
X154042500Y-69630000D03*
D25*
X154042500Y-64550000D03*
X154042500Y-59470000D03*
%TD*%
D17*
%TO.C,C13*%
X106612500Y-71250000D03*
X104887500Y-71250000D03*
%TD*%
D12*
%TO.C,R11*%
X140787500Y-78000000D03*
X142612500Y-78000000D03*
%TD*%
D11*
%TO.C,R3*%
X91000000Y-77412500D03*
X91000000Y-75587500D03*
%TD*%
D12*
%TO.C,R10*%
X109087500Y-71250000D03*
X110912500Y-71250000D03*
%TD*%
D21*
%TO.C,D8*%
X144300000Y-78525000D03*
X144300000Y-80275000D03*
%TD*%
D26*
%TO.C,U1*%
X105850000Y-94862500D03*
X104900000Y-94862500D03*
X103950000Y-94862500D03*
X103950000Y-97137500D03*
X104900000Y-97137500D03*
X105850000Y-97137500D03*
%TD*%
D22*
%TO.C,R16*%
X144300000Y-83887500D03*
X144300000Y-85712500D03*
%TD*%
D27*
%TO.C,U5*%
X114220000Y-67790000D03*
X116500000Y-67790000D03*
D28*
X116500000Y-61490000D03*
D27*
X118780000Y-67790000D03*
%TD*%
D18*
%TO.C,C1*%
X100400000Y-94437500D03*
X100400000Y-97562500D03*
%TD*%
D11*
%TO.C,R44*%
X137900000Y-58312500D03*
X137900000Y-56487500D03*
%TD*%
D22*
%TO.C,R13*%
X136300000Y-73087500D03*
X136300000Y-74912500D03*
%TD*%
D12*
%TO.C,R8*%
X103837500Y-93000000D03*
X105662500Y-93000000D03*
%TD*%
D11*
%TO.C,R40*%
X135100000Y-62112500D03*
X135100000Y-60287500D03*
%TD*%
D12*
%TO.C,R20*%
X91487500Y-62600000D03*
X93312500Y-62600000D03*
%TD*%
D11*
%TO.C,R43*%
X140700000Y-58312500D03*
X140700000Y-56487500D03*
%TD*%
D21*
%TO.C,D7*%
X146300000Y-68925000D03*
X146300000Y-70675000D03*
%TD*%
D12*
%TO.C,R22*%
X140187500Y-88800000D03*
X142012500Y-88800000D03*
%TD*%
D22*
%TO.C,R5*%
X138500000Y-96887500D03*
X138500000Y-98712500D03*
%TD*%
D11*
%TO.C,R7*%
X88000000Y-81912500D03*
X88000000Y-80087500D03*
%TD*%
D29*
%TO.C,U4*%
X101950000Y-70905000D03*
X101950000Y-69635000D03*
X101950000Y-68365000D03*
X101950000Y-67095000D03*
X96550000Y-67095000D03*
X96550000Y-68365000D03*
X96550000Y-69635000D03*
X96550000Y-70905000D03*
D30*
X99250000Y-69000000D03*
%TD*%
D15*
%TO.C,D9*%
X91925000Y-99200000D03*
X93675000Y-99200000D03*
%TD*%
D31*
%TO.C,C11*%
X91812500Y-70750000D03*
X88687500Y-70750000D03*
%TD*%
D10*
%TO.C,R38*%
X145212500Y-73600000D03*
X143387500Y-73600000D03*
%TD*%
D14*
%TO.C,Q1*%
X98437500Y-89700000D03*
X98437500Y-87800000D03*
X96562500Y-88750000D03*
%TD*%
D32*
%TO.C,JP1*%
X88650000Y-76750000D03*
D33*
X87350000Y-76750000D03*
%TD*%
D34*
%TO.C,J1*%
X153955000Y-79630000D03*
D35*
X153955000Y-84710000D03*
X153955000Y-89790000D03*
X153955000Y-94870000D03*
%TD*%
D11*
%TO.C,R2*%
X95000000Y-87162500D03*
X95000000Y-85337500D03*
%TD*%
D14*
%TO.C,U8*%
X142037500Y-92750000D03*
X142037500Y-90850000D03*
X140162500Y-91800000D03*
%TD*%
D36*
%TO.C,D4*%
X108600000Y-66700000D03*
X108600000Y-61700000D03*
%TD*%
D21*
%TO.C,D3*%
X146300000Y-78525000D03*
X146300000Y-80275000D03*
%TD*%
D12*
%TO.C,R9*%
X113087500Y-71250000D03*
X114912500Y-71250000D03*
%TD*%
D17*
%TO.C,C2*%
X106112500Y-99000000D03*
X104387500Y-99000000D03*
%TD*%
D31*
%TO.C,C5*%
X99312500Y-83250000D03*
X96187500Y-83250000D03*
%TD*%
D13*
%TO.C,Q2*%
X139962500Y-83650000D03*
X139962500Y-85550000D03*
X141837500Y-84600000D03*
%TD*%
D22*
%TO.C,R39*%
X138100000Y-70087500D03*
X138100000Y-71912500D03*
%TD*%
D16*
%TO.C,C7*%
X109000000Y-90862500D03*
X109000000Y-89137500D03*
%TD*%
D37*
%TO.C,L2*%
X102275000Y-61500000D03*
X96225000Y-61500000D03*
%TD*%
D18*
%TO.C,C3*%
X120250000Y-94437500D03*
X120250000Y-97562500D03*
%TD*%
D38*
%TO.C,U3*%
X93887500Y-76725000D03*
X93887500Y-77375000D03*
X93887500Y-78025000D03*
X93887500Y-78675000D03*
X93887500Y-79325000D03*
X93887500Y-79975000D03*
X93887500Y-80625000D03*
X93887500Y-81275000D03*
X99612500Y-81275000D03*
X99612500Y-80625000D03*
X99612500Y-79975000D03*
X99612500Y-79325000D03*
X99612500Y-78675000D03*
X99612500Y-78025000D03*
X99612500Y-77375000D03*
X99612500Y-76725000D03*
%TD*%
D21*
%TO.C,D6*%
X146300000Y-58725000D03*
X146300000Y-60475000D03*
%TD*%
D39*
%TO.C,J2*%
X130250000Y-79630000D03*
D40*
X130250000Y-84710000D03*
X130250000Y-89790000D03*
X130250000Y-94870000D03*
%TD*%
D18*
%TO.C,C4*%
X116400000Y-94437500D03*
X116400000Y-97562500D03*
%TD*%
D12*
%TO.C,R35*%
X136187500Y-68400000D03*
X138012500Y-68400000D03*
%TD*%
%TO.C,R37*%
X139787500Y-73600000D03*
X141612500Y-73600000D03*
%TD*%
D10*
%TO.C,R14*%
X142612500Y-76400000D03*
X140787500Y-76400000D03*
%TD*%
D13*
%TO.C,U11*%
X140362500Y-70050000D03*
X140362500Y-71950000D03*
X142237500Y-71000000D03*
%TD*%
D12*
%TO.C,R15*%
X144587500Y-76800000D03*
X146412500Y-76800000D03*
%TD*%
D31*
%TO.C,C16*%
X125062500Y-58250000D03*
X121937500Y-58250000D03*
%TD*%
D16*
%TO.C,C15*%
X94500000Y-69862500D03*
X94500000Y-68137500D03*
%TD*%
D12*
%TO.C,R18*%
X91487500Y-61000000D03*
X93312500Y-61000000D03*
%TD*%
D23*
%TO.C,D12*%
X144050000Y-66800000D03*
X146550000Y-66800000D03*
%TD*%
D13*
%TO.C,Q7*%
X140162500Y-66450000D03*
X140162500Y-68350000D03*
X142037500Y-67400000D03*
%TD*%
D31*
%TO.C,C9*%
X91062500Y-95750000D03*
X87937500Y-95750000D03*
%TD*%
D41*
%TO.C,U2*%
X107560000Y-78520000D03*
D42*
X113860000Y-80800000D03*
D41*
X107560000Y-83080000D03*
%TD*%
D14*
%TO.C,U6*%
X141437500Y-81750000D03*
X141437500Y-79850000D03*
X139562500Y-80800000D03*
%TD*%
D10*
%TO.C,R41*%
X139812500Y-60000000D03*
X137987500Y-60000000D03*
%TD*%
D11*
%TO.C,R42*%
X135100000Y-58312500D03*
X135100000Y-56487500D03*
%TD*%
D13*
%TO.C,U12*%
X136962500Y-61650000D03*
X136962500Y-63550000D03*
X138837500Y-62600000D03*
%TD*%
D10*
%TO.C,R24*%
X142612500Y-98400000D03*
X140787500Y-98400000D03*
%TD*%
D43*
%TO.C,C14*%
X128000000Y-70750000D03*
X128000000Y-62750000D03*
%TD*%
D21*
%TO.C,D14*%
X144300000Y-58725000D03*
X144300000Y-60475000D03*
%TD*%
D13*
%TO.C,Q8*%
X141162500Y-61450000D03*
X141162500Y-63350000D03*
X143037500Y-62400000D03*
%TD*%
D21*
%TO.C,D13*%
X144300000Y-68925000D03*
X144300000Y-70675000D03*
%TD*%
D10*
%TO.C,R36*%
X138012500Y-66000000D03*
X136187500Y-66000000D03*
%TD*%
D44*
%TO.C,J3*%
X92430000Y-85050000D03*
X92430000Y-85850000D03*
D45*
X92430000Y-87000000D03*
X92430000Y-88000000D03*
X92430000Y-88500000D03*
X92430000Y-89500000D03*
D44*
X92430000Y-90650000D03*
X92430000Y-91450000D03*
X92430000Y-91450000D03*
X92430000Y-90650000D03*
D45*
X92430000Y-90000000D03*
X92430000Y-89000000D03*
X92430000Y-87500000D03*
X92430000Y-86500000D03*
D44*
X92430000Y-85850000D03*
X92430000Y-85050000D03*
D46*
X91855000Y-83930000D03*
D47*
X87675000Y-83930000D03*
D46*
X91855000Y-92570000D03*
D47*
X87675000Y-92570000D03*
%TD*%
D22*
%TO.C,R6*%
X146300000Y-83887500D03*
X146300000Y-85712500D03*
%TD*%
D31*
%TO.C,C17*%
X120562500Y-71250000D03*
X117437500Y-71250000D03*
%TD*%
D12*
%TO.C,R17*%
X91487500Y-57600000D03*
X93312500Y-57600000D03*
%TD*%
M02*
