%TF.GenerationSoftware,KiCad,Pcbnew,10.0.5-10.0.5~ubuntu26.04.1*%
%TF.CreationDate,2026-08-19T00:09:19+02:00*%
%TF.ProjectId,usbpd-adapter,75736270-642d-4616-9461-707465722e6b,rev?*%
%TF.SameCoordinates,Original*%
%TF.FileFunction,Legend,Top*%
%TF.FilePolarity,Positive*%
%FSLAX46Y46*%
G04 Gerber Fmt 4.6, Leading zero omitted, Abs format (unit mm)*
G04 Created by KiCad (PCBNEW 10.0.5-10.0.5~ubuntu26.04.1) date 2026-08-19 00:09:19*
%MOMM*%
%LPD*%
G01*
G04 APERTURE LIST*
G04 Aperture macros list*
%AMRoundRect*
0 Rectangle with rounded corners*
0 $1 Rounding radius*
0 $2 $3 $4 $5 $6 $7 $8 $9 X,Y pos of 4 corners*
0 Add a 4 corners polygon primitive as box body*
4,1,4,$2,$3,$4,$5,$6,$7,$8,$9,$2,$3,0*
0 Add four circle primitives for the rounded corners*
1,1,$1+$1,$2,$3*
1,1,$1+$1,$4,$5*
1,1,$1+$1,$6,$7*
1,1,$1+$1,$8,$9*
0 Add four rect primitives between the rounded corners*
20,1,$1+$1,$2,$3,$4,$5,0*
20,1,$1+$1,$4,$5,$6,$7,0*
20,1,$1+$1,$6,$7,$8,$9,0*
20,1,$1+$1,$8,$9,$2,$3,0*%
%AMFreePoly0*
4,1,23,0.500000,-0.750000,0.000000,-0.750000,0.000000,-0.745722,-0.065263,-0.745722,-0.191342,-0.711940,-0.304381,-0.646677,-0.396677,-0.554381,-0.461940,-0.441342,-0.495722,-0.315263,-0.495722,-0.250000,-0.500000,-0.250000,-0.500000,0.250000,-0.495722,0.250000,-0.495722,0.315263,-0.461940,0.441342,-0.396677,0.554381,-0.304381,0.646677,-0.191342,0.711940,-0.065263,0.745722,0.000000,0.745722,
0.000000,0.750000,0.500000,0.750000,0.500000,-0.750000,0.500000,-0.750000,$1*%
%AMFreePoly1*
4,1,23,0.000000,0.745722,0.065263,0.745722,0.191342,0.711940,0.304381,0.646677,0.396677,0.554381,0.461940,0.441342,0.495722,0.315263,0.495722,0.250000,0.500000,0.250000,0.500000,-0.250000,0.495722,-0.250000,0.495722,-0.315263,0.461940,-0.441342,0.396677,-0.554381,0.304381,-0.646677,0.191342,-0.711940,0.065263,-0.745722,0.000000,-0.745722,0.000000,-0.750000,-0.500000,-0.750000,
-0.500000,0.750000,0.000000,0.750000,0.000000,0.745722,0.000000,0.745722,$1*%
G04 Aperture macros list end*
%ADD10C,0.100000*%
%ADD11C,0.250000*%
%ADD12C,0.150000*%
%ADD13C,0.120000*%
%ADD14RoundRect,0.237500X0.237500X-0.250000X0.237500X0.250000X-0.237500X0.250000X-0.237500X-0.250000X0*%
%ADD15RoundRect,0.237500X-0.250000X-0.237500X0.250000X-0.237500X0.250000X0.237500X-0.250000X0.237500X0*%
%ADD16RoundRect,0.150000X-0.587500X-0.150000X0.587500X-0.150000X0.587500X0.150000X-0.587500X0.150000X0*%
%ADD17RoundRect,0.150000X0.587500X0.150000X-0.587500X0.150000X-0.587500X-0.150000X0.587500X-0.150000X0*%
%ADD18RoundRect,0.237500X-0.287500X-0.237500X0.287500X-0.237500X0.287500X0.237500X-0.287500X0.237500X0*%
%ADD19RoundRect,0.237500X0.237500X-0.300000X0.237500X0.300000X-0.237500X0.300000X-0.237500X-0.300000X0*%
%ADD20RoundRect,0.237500X0.300000X0.237500X-0.300000X0.237500X-0.300000X-0.237500X0.300000X-0.237500X0*%
%ADD21RoundRect,0.250000X-0.650000X0.412500X-0.650000X-0.412500X0.650000X-0.412500X0.650000X0.412500X0*%
%ADD22RoundRect,0.250000X1.600000X-0.300000X1.600000X0.300000X-1.600000X0.300000X-1.600000X-0.300000X0*%
%ADD23RoundRect,0.250000X-0.412500X-0.650000X0.412500X-0.650000X0.412500X0.650000X-0.412500X0.650000X0*%
%ADD24RoundRect,0.237500X-0.237500X0.287500X-0.237500X-0.287500X0.237500X-0.287500X0.237500X0.287500X0*%
%ADD25RoundRect,0.237500X0.250000X0.237500X-0.250000X0.237500X-0.250000X-0.237500X0.250000X-0.237500X0*%
%ADD26RoundRect,0.237500X-0.237500X0.250000X-0.237500X-0.250000X0.237500X-0.250000X0.237500X0.250000X0*%
%ADD27RoundRect,0.250000X-0.250000X-0.250000X0.250000X-0.250000X0.250000X0.250000X-0.250000X0.250000X0*%
%ADD28RoundRect,0.250001X0.949999X-0.949999X0.949999X0.949999X-0.949999X0.949999X-0.949999X-0.949999X0*%
%ADD29C,2.400000*%
%ADD30RoundRect,0.150000X-0.150000X0.512500X-0.150000X-0.512500X0.150000X-0.512500X0.150000X0.512500X0*%
%ADD31RoundRect,0.250000X0.350000X-0.850000X0.350000X0.850000X-0.350000X0.850000X-0.350000X-0.850000X0*%
%ADD32RoundRect,0.249997X2.650003X-2.950003X2.650003X2.950003X-2.650003X2.950003X-2.650003X-2.950003X0*%
%ADD33R,1.550000X0.600000*%
%ADD34R,2.600000X3.100000*%
%ADD35RoundRect,0.250000X0.412500X0.650000X-0.412500X0.650000X-0.412500X-0.650000X0.412500X-0.650000X0*%
%ADD36FreePoly0,180.000000*%
%ADD37FreePoly1,180.000000*%
%ADD38R,2.780000X2.780000*%
%ADD39C,2.780000*%
%ADD40RoundRect,0.250000X0.650000X-1.500000X0.650000X1.500000X-0.650000X1.500000X-0.650000X-1.500000X0*%
%ADD41RoundRect,0.150000X0.687500X0.150000X-0.687500X0.150000X-0.687500X-0.150000X0.687500X-0.150000X0*%
%ADD42R,2.100000X3.300000*%
%ADD43RoundRect,0.250000X0.925000X1.500000X-0.925000X1.500000X-0.925000X-1.500000X0.925000X-1.500000X0*%
%ADD44R,2.800000X2.800000*%
%ADD45C,2.800000*%
%ADD46RoundRect,0.250000X-0.850000X-0.350000X0.850000X-0.350000X0.850000X0.350000X-0.850000X0.350000X0*%
%ADD47RoundRect,0.249997X-2.950003X-2.650003X2.950003X-2.650003X2.950003X2.650003X-2.950003X2.650003X0*%
%ADD48RoundRect,0.250000X1.000000X-1.750000X1.000000X1.750000X-1.000000X1.750000X-1.000000X-1.750000X0*%
%ADD49C,0.650000*%
%ADD50RoundRect,0.150000X-0.425000X0.150000X-0.425000X-0.150000X0.425000X-0.150000X0.425000X0.150000X0*%
%ADD51RoundRect,0.075000X-0.500000X0.075000X-0.500000X-0.075000X0.500000X-0.075000X0.500000X0.075000X0*%
%ADD52O,2.100000X1.000000*%
%ADD53O,1.800000X1.000000*%
G04 APERTURE END LIST*
D10*
X99161027Y-92122419D02*
X99494360Y-93122419D01*
X99494360Y-93122419D02*
X99827693Y-92122419D01*
X100161027Y-93122419D02*
X100161027Y-92455752D01*
X100161027Y-92122419D02*
X100113408Y-92170038D01*
X100113408Y-92170038D02*
X100161027Y-92217657D01*
X100161027Y-92217657D02*
X100208646Y-92170038D01*
X100208646Y-92170038D02*
X100161027Y-92122419D01*
X100161027Y-92122419D02*
X100161027Y-92217657D01*
X100637217Y-92455752D02*
X100637217Y-93122419D01*
X100637217Y-92550990D02*
X100684836Y-92503371D01*
X100684836Y-92503371D02*
X100780074Y-92455752D01*
X100780074Y-92455752D02*
X100922931Y-92455752D01*
X100922931Y-92455752D02*
X101018169Y-92503371D01*
X101018169Y-92503371D02*
X101065788Y-92598609D01*
X101065788Y-92598609D02*
X101065788Y-93122419D01*
X114280074Y-87122419D02*
X113803884Y-87122419D01*
X113803884Y-87122419D02*
X113756265Y-87598609D01*
X113756265Y-87598609D02*
X113803884Y-87550990D01*
X113803884Y-87550990D02*
X113899122Y-87503371D01*
X113899122Y-87503371D02*
X114137217Y-87503371D01*
X114137217Y-87503371D02*
X114232455Y-87550990D01*
X114232455Y-87550990D02*
X114280074Y-87598609D01*
X114280074Y-87598609D02*
X114327693Y-87693847D01*
X114327693Y-87693847D02*
X114327693Y-87931942D01*
X114327693Y-87931942D02*
X114280074Y-88027180D01*
X114280074Y-88027180D02*
X114232455Y-88074800D01*
X114232455Y-88074800D02*
X114137217Y-88122419D01*
X114137217Y-88122419D02*
X113899122Y-88122419D01*
X113899122Y-88122419D02*
X113803884Y-88074800D01*
X113803884Y-88074800D02*
X113756265Y-88027180D01*
X114613408Y-87122419D02*
X114946741Y-88122419D01*
X114946741Y-88122419D02*
X115280074Y-87122419D01*
X118327693Y-88122419D02*
X117756265Y-88122419D01*
X118041979Y-88122419D02*
X118041979Y-87122419D01*
X118041979Y-87122419D02*
X117946741Y-87265276D01*
X117946741Y-87265276D02*
X117851503Y-87360514D01*
X117851503Y-87360514D02*
X117756265Y-87408133D01*
X118708646Y-87217657D02*
X118756265Y-87170038D01*
X118756265Y-87170038D02*
X118851503Y-87122419D01*
X118851503Y-87122419D02*
X119089598Y-87122419D01*
X119089598Y-87122419D02*
X119184836Y-87170038D01*
X119184836Y-87170038D02*
X119232455Y-87217657D01*
X119232455Y-87217657D02*
X119280074Y-87312895D01*
X119280074Y-87312895D02*
X119280074Y-87408133D01*
X119280074Y-87408133D02*
X119232455Y-87550990D01*
X119232455Y-87550990D02*
X118661027Y-88122419D01*
X118661027Y-88122419D02*
X119280074Y-88122419D01*
X119565789Y-87122419D02*
X119899122Y-88122419D01*
X119899122Y-88122419D02*
X120232455Y-87122419D01*
X125991466Y-81196115D02*
X125991466Y-80434211D01*
X126372419Y-80815163D02*
X125610514Y-80815163D01*
X126372419Y-79434211D02*
X126372419Y-80005639D01*
X126372419Y-79719925D02*
X125372419Y-79719925D01*
X125372419Y-79719925D02*
X125515276Y-79815163D01*
X125515276Y-79815163D02*
X125610514Y-79910401D01*
X125610514Y-79910401D02*
X125658133Y-80005639D01*
X125467657Y-79053258D02*
X125420038Y-79005639D01*
X125420038Y-79005639D02*
X125372419Y-78910401D01*
X125372419Y-78910401D02*
X125372419Y-78672306D01*
X125372419Y-78672306D02*
X125420038Y-78577068D01*
X125420038Y-78577068D02*
X125467657Y-78529449D01*
X125467657Y-78529449D02*
X125562895Y-78481830D01*
X125562895Y-78481830D02*
X125658133Y-78481830D01*
X125658133Y-78481830D02*
X125800990Y-78529449D01*
X125800990Y-78529449D02*
X126372419Y-79100877D01*
X126372419Y-79100877D02*
X126372419Y-78481830D01*
X125372419Y-78196115D02*
X126372419Y-77862782D01*
X126372419Y-77862782D02*
X125372419Y-77529449D01*
X125670038Y-85422306D02*
X125622419Y-85517544D01*
X125622419Y-85517544D02*
X125622419Y-85660401D01*
X125622419Y-85660401D02*
X125670038Y-85803258D01*
X125670038Y-85803258D02*
X125765276Y-85898496D01*
X125765276Y-85898496D02*
X125860514Y-85946115D01*
X125860514Y-85946115D02*
X126050990Y-85993734D01*
X126050990Y-85993734D02*
X126193847Y-85993734D01*
X126193847Y-85993734D02*
X126384323Y-85946115D01*
X126384323Y-85946115D02*
X126479561Y-85898496D01*
X126479561Y-85898496D02*
X126574800Y-85803258D01*
X126574800Y-85803258D02*
X126622419Y-85660401D01*
X126622419Y-85660401D02*
X126622419Y-85565163D01*
X126622419Y-85565163D02*
X126574800Y-85422306D01*
X126574800Y-85422306D02*
X126527180Y-85374687D01*
X126527180Y-85374687D02*
X126193847Y-85374687D01*
X126193847Y-85374687D02*
X126193847Y-85565163D01*
X126622419Y-84946115D02*
X125622419Y-84946115D01*
X125622419Y-84946115D02*
X126622419Y-84374687D01*
X126622419Y-84374687D02*
X125622419Y-84374687D01*
X126622419Y-83898496D02*
X125622419Y-83898496D01*
X125622419Y-83898496D02*
X125622419Y-83660401D01*
X125622419Y-83660401D02*
X125670038Y-83517544D01*
X125670038Y-83517544D02*
X125765276Y-83422306D01*
X125765276Y-83422306D02*
X125860514Y-83374687D01*
X125860514Y-83374687D02*
X126050990Y-83327068D01*
X126050990Y-83327068D02*
X126193847Y-83327068D01*
X126193847Y-83327068D02*
X126384323Y-83374687D01*
X126384323Y-83374687D02*
X126479561Y-83422306D01*
X126479561Y-83422306D02*
X126574800Y-83517544D01*
X126574800Y-83517544D02*
X126622419Y-83660401D01*
X126622419Y-83660401D02*
X126622419Y-83898496D01*
X125670038Y-90672306D02*
X125622419Y-90767544D01*
X125622419Y-90767544D02*
X125622419Y-90910401D01*
X125622419Y-90910401D02*
X125670038Y-91053258D01*
X125670038Y-91053258D02*
X125765276Y-91148496D01*
X125765276Y-91148496D02*
X125860514Y-91196115D01*
X125860514Y-91196115D02*
X126050990Y-91243734D01*
X126050990Y-91243734D02*
X126193847Y-91243734D01*
X126193847Y-91243734D02*
X126384323Y-91196115D01*
X126384323Y-91196115D02*
X126479561Y-91148496D01*
X126479561Y-91148496D02*
X126574800Y-91053258D01*
X126574800Y-91053258D02*
X126622419Y-90910401D01*
X126622419Y-90910401D02*
X126622419Y-90815163D01*
X126622419Y-90815163D02*
X126574800Y-90672306D01*
X126574800Y-90672306D02*
X126527180Y-90624687D01*
X126527180Y-90624687D02*
X126193847Y-90624687D01*
X126193847Y-90624687D02*
X126193847Y-90815163D01*
X126622419Y-90196115D02*
X125622419Y-90196115D01*
X125622419Y-90196115D02*
X126622419Y-89624687D01*
X126622419Y-89624687D02*
X125622419Y-89624687D01*
X126622419Y-89148496D02*
X125622419Y-89148496D01*
X125622419Y-89148496D02*
X125622419Y-88910401D01*
X125622419Y-88910401D02*
X125670038Y-88767544D01*
X125670038Y-88767544D02*
X125765276Y-88672306D01*
X125765276Y-88672306D02*
X125860514Y-88624687D01*
X125860514Y-88624687D02*
X126050990Y-88577068D01*
X126050990Y-88577068D02*
X126193847Y-88577068D01*
X126193847Y-88577068D02*
X126384323Y-88624687D01*
X126384323Y-88624687D02*
X126479561Y-88672306D01*
X126479561Y-88672306D02*
X126574800Y-88767544D01*
X126574800Y-88767544D02*
X126622419Y-88910401D01*
X126622419Y-88910401D02*
X126622419Y-89148496D01*
X126241466Y-96196115D02*
X126241466Y-95434211D01*
X126622419Y-95815163D02*
X125860514Y-95815163D01*
X125622419Y-94481830D02*
X125622419Y-94958020D01*
X125622419Y-94958020D02*
X126098609Y-95005639D01*
X126098609Y-95005639D02*
X126050990Y-94958020D01*
X126050990Y-94958020D02*
X126003371Y-94862782D01*
X126003371Y-94862782D02*
X126003371Y-94624687D01*
X126003371Y-94624687D02*
X126050990Y-94529449D01*
X126050990Y-94529449D02*
X126098609Y-94481830D01*
X126098609Y-94481830D02*
X126193847Y-94434211D01*
X126193847Y-94434211D02*
X126431942Y-94434211D01*
X126431942Y-94434211D02*
X126527180Y-94481830D01*
X126527180Y-94481830D02*
X126574800Y-94529449D01*
X126574800Y-94529449D02*
X126622419Y-94624687D01*
X126622419Y-94624687D02*
X126622419Y-94862782D01*
X126622419Y-94862782D02*
X126574800Y-94958020D01*
X126574800Y-94958020D02*
X126527180Y-95005639D01*
X125622419Y-94148496D02*
X126622419Y-93815163D01*
X126622419Y-93815163D02*
X125622419Y-93481830D01*
X148391466Y-60946115D02*
X148391466Y-60184211D01*
X147772419Y-59231830D02*
X147772419Y-59708020D01*
X147772419Y-59708020D02*
X148248609Y-59755639D01*
X148248609Y-59755639D02*
X148200990Y-59708020D01*
X148200990Y-59708020D02*
X148153371Y-59612782D01*
X148153371Y-59612782D02*
X148153371Y-59374687D01*
X148153371Y-59374687D02*
X148200990Y-59279449D01*
X148200990Y-59279449D02*
X148248609Y-59231830D01*
X148248609Y-59231830D02*
X148343847Y-59184211D01*
X148343847Y-59184211D02*
X148581942Y-59184211D01*
X148581942Y-59184211D02*
X148677180Y-59231830D01*
X148677180Y-59231830D02*
X148724800Y-59279449D01*
X148724800Y-59279449D02*
X148772419Y-59374687D01*
X148772419Y-59374687D02*
X148772419Y-59612782D01*
X148772419Y-59612782D02*
X148724800Y-59708020D01*
X148724800Y-59708020D02*
X148677180Y-59755639D01*
X147772419Y-58898496D02*
X148772419Y-58565163D01*
X148772419Y-58565163D02*
X147772419Y-58231830D01*
X147820038Y-65922306D02*
X147772419Y-66017544D01*
X147772419Y-66017544D02*
X147772419Y-66160401D01*
X147772419Y-66160401D02*
X147820038Y-66303258D01*
X147820038Y-66303258D02*
X147915276Y-66398496D01*
X147915276Y-66398496D02*
X148010514Y-66446115D01*
X148010514Y-66446115D02*
X148200990Y-66493734D01*
X148200990Y-66493734D02*
X148343847Y-66493734D01*
X148343847Y-66493734D02*
X148534323Y-66446115D01*
X148534323Y-66446115D02*
X148629561Y-66398496D01*
X148629561Y-66398496D02*
X148724800Y-66303258D01*
X148724800Y-66303258D02*
X148772419Y-66160401D01*
X148772419Y-66160401D02*
X148772419Y-66065163D01*
X148772419Y-66065163D02*
X148724800Y-65922306D01*
X148724800Y-65922306D02*
X148677180Y-65874687D01*
X148677180Y-65874687D02*
X148343847Y-65874687D01*
X148343847Y-65874687D02*
X148343847Y-66065163D01*
X148772419Y-65446115D02*
X147772419Y-65446115D01*
X147772419Y-65446115D02*
X148772419Y-64874687D01*
X148772419Y-64874687D02*
X147772419Y-64874687D01*
X148772419Y-64398496D02*
X147772419Y-64398496D01*
X147772419Y-64398496D02*
X147772419Y-64160401D01*
X147772419Y-64160401D02*
X147820038Y-64017544D01*
X147820038Y-64017544D02*
X147915276Y-63922306D01*
X147915276Y-63922306D02*
X148010514Y-63874687D01*
X148010514Y-63874687D02*
X148200990Y-63827068D01*
X148200990Y-63827068D02*
X148343847Y-63827068D01*
X148343847Y-63827068D02*
X148534323Y-63874687D01*
X148534323Y-63874687D02*
X148629561Y-63922306D01*
X148629561Y-63922306D02*
X148724800Y-64017544D01*
X148724800Y-64017544D02*
X148772419Y-64160401D01*
X148772419Y-64160401D02*
X148772419Y-64398496D01*
X148391466Y-71946115D02*
X148391466Y-71184211D01*
X148772419Y-70184211D02*
X148772419Y-70755639D01*
X148772419Y-70469925D02*
X147772419Y-70469925D01*
X147772419Y-70469925D02*
X147915276Y-70565163D01*
X147915276Y-70565163D02*
X148010514Y-70660401D01*
X148010514Y-70660401D02*
X148058133Y-70755639D01*
X147867657Y-69803258D02*
X147820038Y-69755639D01*
X147820038Y-69755639D02*
X147772419Y-69660401D01*
X147772419Y-69660401D02*
X147772419Y-69422306D01*
X147772419Y-69422306D02*
X147820038Y-69327068D01*
X147820038Y-69327068D02*
X147867657Y-69279449D01*
X147867657Y-69279449D02*
X147962895Y-69231830D01*
X147962895Y-69231830D02*
X148058133Y-69231830D01*
X148058133Y-69231830D02*
X148200990Y-69279449D01*
X148200990Y-69279449D02*
X148772419Y-69850877D01*
X148772419Y-69850877D02*
X148772419Y-69231830D01*
X147772419Y-68946115D02*
X148772419Y-68612782D01*
X148772419Y-68612782D02*
X147772419Y-68279449D01*
X148641466Y-81446115D02*
X148641466Y-80684211D01*
X149022419Y-81065163D02*
X148260514Y-81065163D01*
X149022419Y-79684211D02*
X149022419Y-80255639D01*
X149022419Y-79969925D02*
X148022419Y-79969925D01*
X148022419Y-79969925D02*
X148165276Y-80065163D01*
X148165276Y-80065163D02*
X148260514Y-80160401D01*
X148260514Y-80160401D02*
X148308133Y-80255639D01*
X148117657Y-79303258D02*
X148070038Y-79255639D01*
X148070038Y-79255639D02*
X148022419Y-79160401D01*
X148022419Y-79160401D02*
X148022419Y-78922306D01*
X148022419Y-78922306D02*
X148070038Y-78827068D01*
X148070038Y-78827068D02*
X148117657Y-78779449D01*
X148117657Y-78779449D02*
X148212895Y-78731830D01*
X148212895Y-78731830D02*
X148308133Y-78731830D01*
X148308133Y-78731830D02*
X148450990Y-78779449D01*
X148450990Y-78779449D02*
X149022419Y-79350877D01*
X149022419Y-79350877D02*
X149022419Y-78731830D01*
X148022419Y-78446115D02*
X149022419Y-78112782D01*
X149022419Y-78112782D02*
X148022419Y-77779449D01*
X148320038Y-85672306D02*
X148272419Y-85767544D01*
X148272419Y-85767544D02*
X148272419Y-85910401D01*
X148272419Y-85910401D02*
X148320038Y-86053258D01*
X148320038Y-86053258D02*
X148415276Y-86148496D01*
X148415276Y-86148496D02*
X148510514Y-86196115D01*
X148510514Y-86196115D02*
X148700990Y-86243734D01*
X148700990Y-86243734D02*
X148843847Y-86243734D01*
X148843847Y-86243734D02*
X149034323Y-86196115D01*
X149034323Y-86196115D02*
X149129561Y-86148496D01*
X149129561Y-86148496D02*
X149224800Y-86053258D01*
X149224800Y-86053258D02*
X149272419Y-85910401D01*
X149272419Y-85910401D02*
X149272419Y-85815163D01*
X149272419Y-85815163D02*
X149224800Y-85672306D01*
X149224800Y-85672306D02*
X149177180Y-85624687D01*
X149177180Y-85624687D02*
X148843847Y-85624687D01*
X148843847Y-85624687D02*
X148843847Y-85815163D01*
X149272419Y-85196115D02*
X148272419Y-85196115D01*
X148272419Y-85196115D02*
X149272419Y-84624687D01*
X149272419Y-84624687D02*
X148272419Y-84624687D01*
X149272419Y-84148496D02*
X148272419Y-84148496D01*
X148272419Y-84148496D02*
X148272419Y-83910401D01*
X148272419Y-83910401D02*
X148320038Y-83767544D01*
X148320038Y-83767544D02*
X148415276Y-83672306D01*
X148415276Y-83672306D02*
X148510514Y-83624687D01*
X148510514Y-83624687D02*
X148700990Y-83577068D01*
X148700990Y-83577068D02*
X148843847Y-83577068D01*
X148843847Y-83577068D02*
X149034323Y-83624687D01*
X149034323Y-83624687D02*
X149129561Y-83672306D01*
X149129561Y-83672306D02*
X149224800Y-83767544D01*
X149224800Y-83767544D02*
X149272419Y-83910401D01*
X149272419Y-83910401D02*
X149272419Y-84148496D01*
X148320038Y-90922306D02*
X148272419Y-91017544D01*
X148272419Y-91017544D02*
X148272419Y-91160401D01*
X148272419Y-91160401D02*
X148320038Y-91303258D01*
X148320038Y-91303258D02*
X148415276Y-91398496D01*
X148415276Y-91398496D02*
X148510514Y-91446115D01*
X148510514Y-91446115D02*
X148700990Y-91493734D01*
X148700990Y-91493734D02*
X148843847Y-91493734D01*
X148843847Y-91493734D02*
X149034323Y-91446115D01*
X149034323Y-91446115D02*
X149129561Y-91398496D01*
X149129561Y-91398496D02*
X149224800Y-91303258D01*
X149224800Y-91303258D02*
X149272419Y-91160401D01*
X149272419Y-91160401D02*
X149272419Y-91065163D01*
X149272419Y-91065163D02*
X149224800Y-90922306D01*
X149224800Y-90922306D02*
X149177180Y-90874687D01*
X149177180Y-90874687D02*
X148843847Y-90874687D01*
X148843847Y-90874687D02*
X148843847Y-91065163D01*
X149272419Y-90446115D02*
X148272419Y-90446115D01*
X148272419Y-90446115D02*
X149272419Y-89874687D01*
X149272419Y-89874687D02*
X148272419Y-89874687D01*
X149272419Y-89398496D02*
X148272419Y-89398496D01*
X148272419Y-89398496D02*
X148272419Y-89160401D01*
X148272419Y-89160401D02*
X148320038Y-89017544D01*
X148320038Y-89017544D02*
X148415276Y-88922306D01*
X148415276Y-88922306D02*
X148510514Y-88874687D01*
X148510514Y-88874687D02*
X148700990Y-88827068D01*
X148700990Y-88827068D02*
X148843847Y-88827068D01*
X148843847Y-88827068D02*
X149034323Y-88874687D01*
X149034323Y-88874687D02*
X149129561Y-88922306D01*
X149129561Y-88922306D02*
X149224800Y-89017544D01*
X149224800Y-89017544D02*
X149272419Y-89160401D01*
X149272419Y-89160401D02*
X149272419Y-89398496D01*
X148891466Y-96446115D02*
X148891466Y-95684211D01*
X149272419Y-96065163D02*
X148510514Y-96065163D01*
X148272419Y-94731830D02*
X148272419Y-95208020D01*
X148272419Y-95208020D02*
X148748609Y-95255639D01*
X148748609Y-95255639D02*
X148700990Y-95208020D01*
X148700990Y-95208020D02*
X148653371Y-95112782D01*
X148653371Y-95112782D02*
X148653371Y-94874687D01*
X148653371Y-94874687D02*
X148700990Y-94779449D01*
X148700990Y-94779449D02*
X148748609Y-94731830D01*
X148748609Y-94731830D02*
X148843847Y-94684211D01*
X148843847Y-94684211D02*
X149081942Y-94684211D01*
X149081942Y-94684211D02*
X149177180Y-94731830D01*
X149177180Y-94731830D02*
X149224800Y-94779449D01*
X149224800Y-94779449D02*
X149272419Y-94874687D01*
X149272419Y-94874687D02*
X149272419Y-95112782D01*
X149272419Y-95112782D02*
X149224800Y-95208020D01*
X149224800Y-95208020D02*
X149177180Y-95255639D01*
X148272419Y-94398496D02*
X149272419Y-94065163D01*
X149272419Y-94065163D02*
X148272419Y-93731830D01*
D11*
X109652568Y-98614619D02*
X109652568Y-99424142D01*
X109652568Y-99424142D02*
X109700187Y-99519380D01*
X109700187Y-99519380D02*
X109747806Y-99567000D01*
X109747806Y-99567000D02*
X109843044Y-99614619D01*
X109843044Y-99614619D02*
X110033520Y-99614619D01*
X110033520Y-99614619D02*
X110128758Y-99567000D01*
X110128758Y-99567000D02*
X110176377Y-99519380D01*
X110176377Y-99519380D02*
X110223996Y-99424142D01*
X110223996Y-99424142D02*
X110223996Y-98614619D01*
X110652568Y-99567000D02*
X110795425Y-99614619D01*
X110795425Y-99614619D02*
X111033520Y-99614619D01*
X111033520Y-99614619D02*
X111128758Y-99567000D01*
X111128758Y-99567000D02*
X111176377Y-99519380D01*
X111176377Y-99519380D02*
X111223996Y-99424142D01*
X111223996Y-99424142D02*
X111223996Y-99328904D01*
X111223996Y-99328904D02*
X111176377Y-99233666D01*
X111176377Y-99233666D02*
X111128758Y-99186047D01*
X111128758Y-99186047D02*
X111033520Y-99138428D01*
X111033520Y-99138428D02*
X110843044Y-99090809D01*
X110843044Y-99090809D02*
X110747806Y-99043190D01*
X110747806Y-99043190D02*
X110700187Y-98995571D01*
X110700187Y-98995571D02*
X110652568Y-98900333D01*
X110652568Y-98900333D02*
X110652568Y-98805095D01*
X110652568Y-98805095D02*
X110700187Y-98709857D01*
X110700187Y-98709857D02*
X110747806Y-98662238D01*
X110747806Y-98662238D02*
X110843044Y-98614619D01*
X110843044Y-98614619D02*
X111081139Y-98614619D01*
X111081139Y-98614619D02*
X111223996Y-98662238D01*
X111985901Y-99090809D02*
X112128758Y-99138428D01*
X112128758Y-99138428D02*
X112176377Y-99186047D01*
X112176377Y-99186047D02*
X112223996Y-99281285D01*
X112223996Y-99281285D02*
X112223996Y-99424142D01*
X112223996Y-99424142D02*
X112176377Y-99519380D01*
X112176377Y-99519380D02*
X112128758Y-99567000D01*
X112128758Y-99567000D02*
X112033520Y-99614619D01*
X112033520Y-99614619D02*
X111652568Y-99614619D01*
X111652568Y-99614619D02*
X111652568Y-98614619D01*
X111652568Y-98614619D02*
X111985901Y-98614619D01*
X111985901Y-98614619D02*
X112081139Y-98662238D01*
X112081139Y-98662238D02*
X112128758Y-98709857D01*
X112128758Y-98709857D02*
X112176377Y-98805095D01*
X112176377Y-98805095D02*
X112176377Y-98900333D01*
X112176377Y-98900333D02*
X112128758Y-98995571D01*
X112128758Y-98995571D02*
X112081139Y-99043190D01*
X112081139Y-99043190D02*
X111985901Y-99090809D01*
X111985901Y-99090809D02*
X111652568Y-99090809D01*
X112652568Y-99233666D02*
X113414473Y-99233666D01*
X114462091Y-99519380D02*
X114414472Y-99567000D01*
X114414472Y-99567000D02*
X114271615Y-99614619D01*
X114271615Y-99614619D02*
X114176377Y-99614619D01*
X114176377Y-99614619D02*
X114033520Y-99567000D01*
X114033520Y-99567000D02*
X113938282Y-99471761D01*
X113938282Y-99471761D02*
X113890663Y-99376523D01*
X113890663Y-99376523D02*
X113843044Y-99186047D01*
X113843044Y-99186047D02*
X113843044Y-99043190D01*
X113843044Y-99043190D02*
X113890663Y-98852714D01*
X113890663Y-98852714D02*
X113938282Y-98757476D01*
X113938282Y-98757476D02*
X114033520Y-98662238D01*
X114033520Y-98662238D02*
X114176377Y-98614619D01*
X114176377Y-98614619D02*
X114271615Y-98614619D01*
X114271615Y-98614619D02*
X114414472Y-98662238D01*
X114414472Y-98662238D02*
X114462091Y-98709857D01*
X114890663Y-99233666D02*
X115652568Y-99233666D01*
X116128758Y-99614619D02*
X116128758Y-98614619D01*
X116128758Y-98614619D02*
X116509710Y-98614619D01*
X116509710Y-98614619D02*
X116604948Y-98662238D01*
X116604948Y-98662238D02*
X116652567Y-98709857D01*
X116652567Y-98709857D02*
X116700186Y-98805095D01*
X116700186Y-98805095D02*
X116700186Y-98947952D01*
X116700186Y-98947952D02*
X116652567Y-99043190D01*
X116652567Y-99043190D02*
X116604948Y-99090809D01*
X116604948Y-99090809D02*
X116509710Y-99138428D01*
X116509710Y-99138428D02*
X116128758Y-99138428D01*
X117033520Y-98614619D02*
X117271615Y-99614619D01*
X117271615Y-99614619D02*
X117462091Y-98900333D01*
X117462091Y-98900333D02*
X117652567Y-99614619D01*
X117652567Y-99614619D02*
X117890663Y-98614619D01*
X118843043Y-99614619D02*
X118509710Y-99138428D01*
X118271615Y-99614619D02*
X118271615Y-98614619D01*
X118271615Y-98614619D02*
X118652567Y-98614619D01*
X118652567Y-98614619D02*
X118747805Y-98662238D01*
X118747805Y-98662238D02*
X118795424Y-98709857D01*
X118795424Y-98709857D02*
X118843043Y-98805095D01*
X118843043Y-98805095D02*
X118843043Y-98947952D01*
X118843043Y-98947952D02*
X118795424Y-99043190D01*
X118795424Y-99043190D02*
X118747805Y-99090809D01*
X118747805Y-99090809D02*
X118652567Y-99138428D01*
X118652567Y-99138428D02*
X118271615Y-99138428D01*
X119271615Y-99233666D02*
X120033520Y-99233666D01*
X120366853Y-98614619D02*
X120700186Y-99614619D01*
X120700186Y-99614619D02*
X121033519Y-98614619D01*
X121890662Y-99614619D02*
X121319234Y-99614619D01*
X121604948Y-99614619D02*
X121604948Y-98614619D01*
X121604948Y-98614619D02*
X121509710Y-98757476D01*
X121509710Y-98757476D02*
X121414472Y-98852714D01*
X121414472Y-98852714D02*
X121319234Y-98900333D01*
X122319234Y-99519380D02*
X122366853Y-99567000D01*
X122366853Y-99567000D02*
X122319234Y-99614619D01*
X122319234Y-99614619D02*
X122271615Y-99567000D01*
X122271615Y-99567000D02*
X122319234Y-99519380D01*
X122319234Y-99519380D02*
X122319234Y-99614619D01*
X122747805Y-98709857D02*
X122795424Y-98662238D01*
X122795424Y-98662238D02*
X122890662Y-98614619D01*
X122890662Y-98614619D02*
X123128757Y-98614619D01*
X123128757Y-98614619D02*
X123223995Y-98662238D01*
X123223995Y-98662238D02*
X123271614Y-98709857D01*
X123271614Y-98709857D02*
X123319233Y-98805095D01*
X123319233Y-98805095D02*
X123319233Y-98900333D01*
X123319233Y-98900333D02*
X123271614Y-99043190D01*
X123271614Y-99043190D02*
X122700186Y-99614619D01*
X122700186Y-99614619D02*
X123319233Y-99614619D01*
X123700186Y-99328904D02*
X124176376Y-99328904D01*
X123604948Y-99614619D02*
X123938281Y-98614619D01*
X123938281Y-98614619D02*
X124271614Y-99614619D01*
X124604948Y-99233666D02*
X125366853Y-99233666D01*
X125795424Y-98709857D02*
X125843043Y-98662238D01*
X125843043Y-98662238D02*
X125938281Y-98614619D01*
X125938281Y-98614619D02*
X126176376Y-98614619D01*
X126176376Y-98614619D02*
X126271614Y-98662238D01*
X126271614Y-98662238D02*
X126319233Y-98709857D01*
X126319233Y-98709857D02*
X126366852Y-98805095D01*
X126366852Y-98805095D02*
X126366852Y-98900333D01*
X126366852Y-98900333D02*
X126319233Y-99043190D01*
X126319233Y-99043190D02*
X125747805Y-99614619D01*
X125747805Y-99614619D02*
X126366852Y-99614619D01*
X126985900Y-98614619D02*
X127081138Y-98614619D01*
X127081138Y-98614619D02*
X127176376Y-98662238D01*
X127176376Y-98662238D02*
X127223995Y-98709857D01*
X127223995Y-98709857D02*
X127271614Y-98805095D01*
X127271614Y-98805095D02*
X127319233Y-98995571D01*
X127319233Y-98995571D02*
X127319233Y-99233666D01*
X127319233Y-99233666D02*
X127271614Y-99424142D01*
X127271614Y-99424142D02*
X127223995Y-99519380D01*
X127223995Y-99519380D02*
X127176376Y-99567000D01*
X127176376Y-99567000D02*
X127081138Y-99614619D01*
X127081138Y-99614619D02*
X126985900Y-99614619D01*
X126985900Y-99614619D02*
X126890662Y-99567000D01*
X126890662Y-99567000D02*
X126843043Y-99519380D01*
X126843043Y-99519380D02*
X126795424Y-99424142D01*
X126795424Y-99424142D02*
X126747805Y-99233666D01*
X126747805Y-99233666D02*
X126747805Y-98995571D01*
X126747805Y-98995571D02*
X126795424Y-98805095D01*
X126795424Y-98805095D02*
X126843043Y-98709857D01*
X126843043Y-98709857D02*
X126890662Y-98662238D01*
X126890662Y-98662238D02*
X126985900Y-98614619D01*
X127700186Y-98709857D02*
X127747805Y-98662238D01*
X127747805Y-98662238D02*
X127843043Y-98614619D01*
X127843043Y-98614619D02*
X128081138Y-98614619D01*
X128081138Y-98614619D02*
X128176376Y-98662238D01*
X128176376Y-98662238D02*
X128223995Y-98709857D01*
X128223995Y-98709857D02*
X128271614Y-98805095D01*
X128271614Y-98805095D02*
X128271614Y-98900333D01*
X128271614Y-98900333D02*
X128223995Y-99043190D01*
X128223995Y-99043190D02*
X127652567Y-99614619D01*
X127652567Y-99614619D02*
X128271614Y-99614619D01*
X129128757Y-98614619D02*
X128938281Y-98614619D01*
X128938281Y-98614619D02*
X128843043Y-98662238D01*
X128843043Y-98662238D02*
X128795424Y-98709857D01*
X128795424Y-98709857D02*
X128700186Y-98852714D01*
X128700186Y-98852714D02*
X128652567Y-99043190D01*
X128652567Y-99043190D02*
X128652567Y-99424142D01*
X128652567Y-99424142D02*
X128700186Y-99519380D01*
X128700186Y-99519380D02*
X128747805Y-99567000D01*
X128747805Y-99567000D02*
X128843043Y-99614619D01*
X128843043Y-99614619D02*
X129033519Y-99614619D01*
X129033519Y-99614619D02*
X129128757Y-99567000D01*
X129128757Y-99567000D02*
X129176376Y-99519380D01*
X129176376Y-99519380D02*
X129223995Y-99424142D01*
X129223995Y-99424142D02*
X129223995Y-99186047D01*
X129223995Y-99186047D02*
X129176376Y-99090809D01*
X129176376Y-99090809D02*
X129128757Y-99043190D01*
X129128757Y-99043190D02*
X129033519Y-98995571D01*
X129033519Y-98995571D02*
X128843043Y-98995571D01*
X128843043Y-98995571D02*
X128747805Y-99043190D01*
X128747805Y-99043190D02*
X128700186Y-99090809D01*
X128700186Y-99090809D02*
X128652567Y-99186047D01*
X129843043Y-98614619D02*
X129938281Y-98614619D01*
X129938281Y-98614619D02*
X130033519Y-98662238D01*
X130033519Y-98662238D02*
X130081138Y-98709857D01*
X130081138Y-98709857D02*
X130128757Y-98805095D01*
X130128757Y-98805095D02*
X130176376Y-98995571D01*
X130176376Y-98995571D02*
X130176376Y-99233666D01*
X130176376Y-99233666D02*
X130128757Y-99424142D01*
X130128757Y-99424142D02*
X130081138Y-99519380D01*
X130081138Y-99519380D02*
X130033519Y-99567000D01*
X130033519Y-99567000D02*
X129938281Y-99614619D01*
X129938281Y-99614619D02*
X129843043Y-99614619D01*
X129843043Y-99614619D02*
X129747805Y-99567000D01*
X129747805Y-99567000D02*
X129700186Y-99519380D01*
X129700186Y-99519380D02*
X129652567Y-99424142D01*
X129652567Y-99424142D02*
X129604948Y-99233666D01*
X129604948Y-99233666D02*
X129604948Y-98995571D01*
X129604948Y-98995571D02*
X129652567Y-98805095D01*
X129652567Y-98805095D02*
X129700186Y-98709857D01*
X129700186Y-98709857D02*
X129747805Y-98662238D01*
X129747805Y-98662238D02*
X129843043Y-98614619D01*
X130747805Y-99043190D02*
X130652567Y-98995571D01*
X130652567Y-98995571D02*
X130604948Y-98947952D01*
X130604948Y-98947952D02*
X130557329Y-98852714D01*
X130557329Y-98852714D02*
X130557329Y-98805095D01*
X130557329Y-98805095D02*
X130604948Y-98709857D01*
X130604948Y-98709857D02*
X130652567Y-98662238D01*
X130652567Y-98662238D02*
X130747805Y-98614619D01*
X130747805Y-98614619D02*
X130938281Y-98614619D01*
X130938281Y-98614619D02*
X131033519Y-98662238D01*
X131033519Y-98662238D02*
X131081138Y-98709857D01*
X131081138Y-98709857D02*
X131128757Y-98805095D01*
X131128757Y-98805095D02*
X131128757Y-98852714D01*
X131128757Y-98852714D02*
X131081138Y-98947952D01*
X131081138Y-98947952D02*
X131033519Y-98995571D01*
X131033519Y-98995571D02*
X130938281Y-99043190D01*
X130938281Y-99043190D02*
X130747805Y-99043190D01*
X130747805Y-99043190D02*
X130652567Y-99090809D01*
X130652567Y-99090809D02*
X130604948Y-99138428D01*
X130604948Y-99138428D02*
X130557329Y-99233666D01*
X130557329Y-99233666D02*
X130557329Y-99424142D01*
X130557329Y-99424142D02*
X130604948Y-99519380D01*
X130604948Y-99519380D02*
X130652567Y-99567000D01*
X130652567Y-99567000D02*
X130747805Y-99614619D01*
X130747805Y-99614619D02*
X130938281Y-99614619D01*
X130938281Y-99614619D02*
X131033519Y-99567000D01*
X131033519Y-99567000D02*
X131081138Y-99519380D01*
X131081138Y-99519380D02*
X131128757Y-99424142D01*
X131128757Y-99424142D02*
X131128757Y-99233666D01*
X131128757Y-99233666D02*
X131081138Y-99138428D01*
X131081138Y-99138428D02*
X131033519Y-99090809D01*
X131033519Y-99090809D02*
X130938281Y-99043190D01*
X132081138Y-99614619D02*
X131509710Y-99614619D01*
X131795424Y-99614619D02*
X131795424Y-98614619D01*
X131795424Y-98614619D02*
X131700186Y-98757476D01*
X131700186Y-98757476D02*
X131604948Y-98852714D01*
X131604948Y-98852714D02*
X131509710Y-98900333D01*
X132414472Y-98614619D02*
X133081138Y-98614619D01*
X133081138Y-98614619D02*
X132652567Y-99614619D01*
X124495571Y-96811717D02*
X124447952Y-96859336D01*
X124447952Y-96859336D02*
X124305095Y-96954574D01*
X124305095Y-96954574D02*
X124209857Y-97002193D01*
X124209857Y-97002193D02*
X124067000Y-97049812D01*
X124067000Y-97049812D02*
X123828904Y-97097431D01*
X123828904Y-97097431D02*
X123638428Y-97097431D01*
X123638428Y-97097431D02*
X123400333Y-97049812D01*
X123400333Y-97049812D02*
X123257476Y-97002193D01*
X123257476Y-97002193D02*
X123162238Y-96954574D01*
X123162238Y-96954574D02*
X123019380Y-96859336D01*
X123019380Y-96859336D02*
X122971761Y-96811717D01*
X124019380Y-95859336D02*
X124067000Y-95906955D01*
X124067000Y-95906955D02*
X124114619Y-96049812D01*
X124114619Y-96049812D02*
X124114619Y-96145050D01*
X124114619Y-96145050D02*
X124067000Y-96287907D01*
X124067000Y-96287907D02*
X123971761Y-96383145D01*
X123971761Y-96383145D02*
X123876523Y-96430764D01*
X123876523Y-96430764D02*
X123686047Y-96478383D01*
X123686047Y-96478383D02*
X123543190Y-96478383D01*
X123543190Y-96478383D02*
X123352714Y-96430764D01*
X123352714Y-96430764D02*
X123257476Y-96383145D01*
X123257476Y-96383145D02*
X123162238Y-96287907D01*
X123162238Y-96287907D02*
X123114619Y-96145050D01*
X123114619Y-96145050D02*
X123114619Y-96049812D01*
X123114619Y-96049812D02*
X123162238Y-95906955D01*
X123162238Y-95906955D02*
X123209857Y-95859336D01*
X124495571Y-95526002D02*
X124447952Y-95478383D01*
X124447952Y-95478383D02*
X124305095Y-95383145D01*
X124305095Y-95383145D02*
X124209857Y-95335526D01*
X124209857Y-95335526D02*
X124067000Y-95287907D01*
X124067000Y-95287907D02*
X123828904Y-95240288D01*
X123828904Y-95240288D02*
X123638428Y-95240288D01*
X123638428Y-95240288D02*
X123400333Y-95287907D01*
X123400333Y-95287907D02*
X123257476Y-95335526D01*
X123257476Y-95335526D02*
X123162238Y-95383145D01*
X123162238Y-95383145D02*
X123019380Y-95478383D01*
X123019380Y-95478383D02*
X122971761Y-95526002D01*
X123828904Y-94049811D02*
X123828904Y-93573621D01*
X124114619Y-94145049D02*
X123114619Y-93811716D01*
X123114619Y-93811716D02*
X124114619Y-93478383D01*
X124019380Y-93145049D02*
X124067000Y-93097430D01*
X124067000Y-93097430D02*
X124114619Y-93145049D01*
X124114619Y-93145049D02*
X124067000Y-93192668D01*
X124067000Y-93192668D02*
X124019380Y-93145049D01*
X124019380Y-93145049D02*
X124114619Y-93145049D01*
X123590809Y-91573621D02*
X123590809Y-91906954D01*
X124114619Y-91906954D02*
X123114619Y-91906954D01*
X123114619Y-91906954D02*
X123114619Y-91430764D01*
X124114619Y-90621240D02*
X123590809Y-90621240D01*
X123590809Y-90621240D02*
X123495571Y-90668859D01*
X123495571Y-90668859D02*
X123447952Y-90764097D01*
X123447952Y-90764097D02*
X123447952Y-90954573D01*
X123447952Y-90954573D02*
X123495571Y-91049811D01*
X124067000Y-90621240D02*
X124114619Y-90716478D01*
X124114619Y-90716478D02*
X124114619Y-90954573D01*
X124114619Y-90954573D02*
X124067000Y-91049811D01*
X124067000Y-91049811D02*
X123971761Y-91097430D01*
X123971761Y-91097430D02*
X123876523Y-91097430D01*
X123876523Y-91097430D02*
X123781285Y-91049811D01*
X123781285Y-91049811D02*
X123733666Y-90954573D01*
X123733666Y-90954573D02*
X123733666Y-90716478D01*
X123733666Y-90716478D02*
X123686047Y-90621240D01*
X124067000Y-89716478D02*
X124114619Y-89811716D01*
X124114619Y-89811716D02*
X124114619Y-90002192D01*
X124114619Y-90002192D02*
X124067000Y-90097430D01*
X124067000Y-90097430D02*
X124019380Y-90145049D01*
X124019380Y-90145049D02*
X123924142Y-90192668D01*
X123924142Y-90192668D02*
X123638428Y-90192668D01*
X123638428Y-90192668D02*
X123543190Y-90145049D01*
X123543190Y-90145049D02*
X123495571Y-90097430D01*
X123495571Y-90097430D02*
X123447952Y-90002192D01*
X123447952Y-90002192D02*
X123447952Y-89811716D01*
X123447952Y-89811716D02*
X123495571Y-89716478D01*
X124114619Y-89287906D02*
X123114619Y-89287906D01*
X124114619Y-88859335D02*
X123590809Y-88859335D01*
X123590809Y-88859335D02*
X123495571Y-88906954D01*
X123495571Y-88906954D02*
X123447952Y-89002192D01*
X123447952Y-89002192D02*
X123447952Y-89145049D01*
X123447952Y-89145049D02*
X123495571Y-89240287D01*
X123495571Y-89240287D02*
X123543190Y-89287906D01*
X124114619Y-87954573D02*
X123590809Y-87954573D01*
X123590809Y-87954573D02*
X123495571Y-88002192D01*
X123495571Y-88002192D02*
X123447952Y-88097430D01*
X123447952Y-88097430D02*
X123447952Y-88287906D01*
X123447952Y-88287906D02*
X123495571Y-88383144D01*
X124067000Y-87954573D02*
X124114619Y-88049811D01*
X124114619Y-88049811D02*
X124114619Y-88287906D01*
X124114619Y-88287906D02*
X124067000Y-88383144D01*
X124067000Y-88383144D02*
X123971761Y-88430763D01*
X123971761Y-88430763D02*
X123876523Y-88430763D01*
X123876523Y-88430763D02*
X123781285Y-88383144D01*
X123781285Y-88383144D02*
X123733666Y-88287906D01*
X123733666Y-88287906D02*
X123733666Y-88049811D01*
X123733666Y-88049811D02*
X123686047Y-87954573D01*
X123447952Y-87621239D02*
X123447952Y-87240287D01*
X123114619Y-87478382D02*
X123971761Y-87478382D01*
X123971761Y-87478382D02*
X124067000Y-87430763D01*
X124067000Y-87430763D02*
X124114619Y-87335525D01*
X124114619Y-87335525D02*
X124114619Y-87240287D01*
D12*
X101024819Y-87916666D02*
X100548628Y-88249999D01*
X101024819Y-88488094D02*
X100024819Y-88488094D01*
X100024819Y-88488094D02*
X100024819Y-88107142D01*
X100024819Y-88107142D02*
X100072438Y-88011904D01*
X100072438Y-88011904D02*
X100120057Y-87964285D01*
X100120057Y-87964285D02*
X100215295Y-87916666D01*
X100215295Y-87916666D02*
X100358152Y-87916666D01*
X100358152Y-87916666D02*
X100453390Y-87964285D01*
X100453390Y-87964285D02*
X100501009Y-88011904D01*
X100501009Y-88011904D02*
X100548628Y-88107142D01*
X100548628Y-88107142D02*
X100548628Y-88488094D01*
X100358152Y-87059523D02*
X101024819Y-87059523D01*
X99977200Y-87297618D02*
X100691485Y-87535713D01*
X100691485Y-87535713D02*
X100691485Y-86916666D01*
X144457142Y-87824819D02*
X144123809Y-87348628D01*
X143885714Y-87824819D02*
X143885714Y-86824819D01*
X143885714Y-86824819D02*
X144266666Y-86824819D01*
X144266666Y-86824819D02*
X144361904Y-86872438D01*
X144361904Y-86872438D02*
X144409523Y-86920057D01*
X144409523Y-86920057D02*
X144457142Y-87015295D01*
X144457142Y-87015295D02*
X144457142Y-87158152D01*
X144457142Y-87158152D02*
X144409523Y-87253390D01*
X144409523Y-87253390D02*
X144361904Y-87301009D01*
X144361904Y-87301009D02*
X144266666Y-87348628D01*
X144266666Y-87348628D02*
X143885714Y-87348628D01*
X144838095Y-86920057D02*
X144885714Y-86872438D01*
X144885714Y-86872438D02*
X144980952Y-86824819D01*
X144980952Y-86824819D02*
X145219047Y-86824819D01*
X145219047Y-86824819D02*
X145314285Y-86872438D01*
X145314285Y-86872438D02*
X145361904Y-86920057D01*
X145361904Y-86920057D02*
X145409523Y-87015295D01*
X145409523Y-87015295D02*
X145409523Y-87110533D01*
X145409523Y-87110533D02*
X145361904Y-87253390D01*
X145361904Y-87253390D02*
X144790476Y-87824819D01*
X144790476Y-87824819D02*
X145409523Y-87824819D01*
X146361904Y-87824819D02*
X145790476Y-87824819D01*
X146076190Y-87824819D02*
X146076190Y-86824819D01*
X146076190Y-86824819D02*
X145980952Y-86967676D01*
X145980952Y-86967676D02*
X145885714Y-87062914D01*
X145885714Y-87062914D02*
X145790476Y-87110533D01*
X138804761Y-93950057D02*
X138709523Y-93902438D01*
X138709523Y-93902438D02*
X138614285Y-93807200D01*
X138614285Y-93807200D02*
X138471428Y-93664342D01*
X138471428Y-93664342D02*
X138376190Y-93616723D01*
X138376190Y-93616723D02*
X138280952Y-93616723D01*
X138328571Y-93854819D02*
X138233333Y-93807200D01*
X138233333Y-93807200D02*
X138138095Y-93711961D01*
X138138095Y-93711961D02*
X138090476Y-93521485D01*
X138090476Y-93521485D02*
X138090476Y-93188152D01*
X138090476Y-93188152D02*
X138138095Y-92997676D01*
X138138095Y-92997676D02*
X138233333Y-92902438D01*
X138233333Y-92902438D02*
X138328571Y-92854819D01*
X138328571Y-92854819D02*
X138519047Y-92854819D01*
X138519047Y-92854819D02*
X138614285Y-92902438D01*
X138614285Y-92902438D02*
X138709523Y-92997676D01*
X138709523Y-92997676D02*
X138757142Y-93188152D01*
X138757142Y-93188152D02*
X138757142Y-93521485D01*
X138757142Y-93521485D02*
X138709523Y-93711961D01*
X138709523Y-93711961D02*
X138614285Y-93807200D01*
X138614285Y-93807200D02*
X138519047Y-93854819D01*
X138519047Y-93854819D02*
X138328571Y-93854819D01*
X139614285Y-93188152D02*
X139614285Y-93854819D01*
X139376190Y-92807200D02*
X139138095Y-93521485D01*
X139138095Y-93521485D02*
X139757142Y-93521485D01*
X97904761Y-85950057D02*
X97809523Y-85902438D01*
X97809523Y-85902438D02*
X97714285Y-85807200D01*
X97714285Y-85807200D02*
X97571428Y-85664342D01*
X97571428Y-85664342D02*
X97476190Y-85616723D01*
X97476190Y-85616723D02*
X97380952Y-85616723D01*
X97428571Y-85854819D02*
X97333333Y-85807200D01*
X97333333Y-85807200D02*
X97238095Y-85711961D01*
X97238095Y-85711961D02*
X97190476Y-85521485D01*
X97190476Y-85521485D02*
X97190476Y-85188152D01*
X97190476Y-85188152D02*
X97238095Y-84997676D01*
X97238095Y-84997676D02*
X97333333Y-84902438D01*
X97333333Y-84902438D02*
X97428571Y-84854819D01*
X97428571Y-84854819D02*
X97619047Y-84854819D01*
X97619047Y-84854819D02*
X97714285Y-84902438D01*
X97714285Y-84902438D02*
X97809523Y-84997676D01*
X97809523Y-84997676D02*
X97857142Y-85188152D01*
X97857142Y-85188152D02*
X97857142Y-85521485D01*
X97857142Y-85521485D02*
X97809523Y-85711961D01*
X97809523Y-85711961D02*
X97714285Y-85807200D01*
X97714285Y-85807200D02*
X97619047Y-85854819D01*
X97619047Y-85854819D02*
X97428571Y-85854819D01*
X98761904Y-84854819D02*
X98285714Y-84854819D01*
X98285714Y-84854819D02*
X98238095Y-85331009D01*
X98238095Y-85331009D02*
X98285714Y-85283390D01*
X98285714Y-85283390D02*
X98380952Y-85235771D01*
X98380952Y-85235771D02*
X98619047Y-85235771D01*
X98619047Y-85235771D02*
X98714285Y-85283390D01*
X98714285Y-85283390D02*
X98761904Y-85331009D01*
X98761904Y-85331009D02*
X98809523Y-85426247D01*
X98809523Y-85426247D02*
X98809523Y-85664342D01*
X98809523Y-85664342D02*
X98761904Y-85759580D01*
X98761904Y-85759580D02*
X98714285Y-85807200D01*
X98714285Y-85807200D02*
X98619047Y-85854819D01*
X98619047Y-85854819D02*
X98380952Y-85854819D01*
X98380952Y-85854819D02*
X98285714Y-85807200D01*
X98285714Y-85807200D02*
X98238095Y-85759580D01*
X87438095Y-60454819D02*
X87438095Y-61264342D01*
X87438095Y-61264342D02*
X87485714Y-61359580D01*
X87485714Y-61359580D02*
X87533333Y-61407200D01*
X87533333Y-61407200D02*
X87628571Y-61454819D01*
X87628571Y-61454819D02*
X87819047Y-61454819D01*
X87819047Y-61454819D02*
X87914285Y-61407200D01*
X87914285Y-61407200D02*
X87961904Y-61359580D01*
X87961904Y-61359580D02*
X88009523Y-61264342D01*
X88009523Y-61264342D02*
X88009523Y-60454819D01*
X88390476Y-60454819D02*
X89057142Y-60454819D01*
X89057142Y-60454819D02*
X88628571Y-61454819D01*
X88104761Y-65350057D02*
X88009523Y-65302438D01*
X88009523Y-65302438D02*
X87914285Y-65207200D01*
X87914285Y-65207200D02*
X87771428Y-65064342D01*
X87771428Y-65064342D02*
X87676190Y-65016723D01*
X87676190Y-65016723D02*
X87580952Y-65016723D01*
X87628571Y-65254819D02*
X87533333Y-65207200D01*
X87533333Y-65207200D02*
X87438095Y-65111961D01*
X87438095Y-65111961D02*
X87390476Y-64921485D01*
X87390476Y-64921485D02*
X87390476Y-64588152D01*
X87390476Y-64588152D02*
X87438095Y-64397676D01*
X87438095Y-64397676D02*
X87533333Y-64302438D01*
X87533333Y-64302438D02*
X87628571Y-64254819D01*
X87628571Y-64254819D02*
X87819047Y-64254819D01*
X87819047Y-64254819D02*
X87914285Y-64302438D01*
X87914285Y-64302438D02*
X88009523Y-64397676D01*
X88009523Y-64397676D02*
X88057142Y-64588152D01*
X88057142Y-64588152D02*
X88057142Y-64921485D01*
X88057142Y-64921485D02*
X88009523Y-65111961D01*
X88009523Y-65111961D02*
X87914285Y-65207200D01*
X87914285Y-65207200D02*
X87819047Y-65254819D01*
X87819047Y-65254819D02*
X87628571Y-65254819D01*
X88390476Y-64254819D02*
X89009523Y-64254819D01*
X89009523Y-64254819D02*
X88676190Y-64635771D01*
X88676190Y-64635771D02*
X88819047Y-64635771D01*
X88819047Y-64635771D02*
X88914285Y-64683390D01*
X88914285Y-64683390D02*
X88961904Y-64731009D01*
X88961904Y-64731009D02*
X89009523Y-64826247D01*
X89009523Y-64826247D02*
X89009523Y-65064342D01*
X89009523Y-65064342D02*
X88961904Y-65159580D01*
X88961904Y-65159580D02*
X88914285Y-65207200D01*
X88914285Y-65207200D02*
X88819047Y-65254819D01*
X88819047Y-65254819D02*
X88533333Y-65254819D01*
X88533333Y-65254819D02*
X88438095Y-65207200D01*
X88438095Y-65207200D02*
X88390476Y-65159580D01*
X89011905Y-98224819D02*
X89011905Y-97224819D01*
X89011905Y-97224819D02*
X89250000Y-97224819D01*
X89250000Y-97224819D02*
X89392857Y-97272438D01*
X89392857Y-97272438D02*
X89488095Y-97367676D01*
X89488095Y-97367676D02*
X89535714Y-97462914D01*
X89535714Y-97462914D02*
X89583333Y-97653390D01*
X89583333Y-97653390D02*
X89583333Y-97796247D01*
X89583333Y-97796247D02*
X89535714Y-97986723D01*
X89535714Y-97986723D02*
X89488095Y-98081961D01*
X89488095Y-98081961D02*
X89392857Y-98177200D01*
X89392857Y-98177200D02*
X89250000Y-98224819D01*
X89250000Y-98224819D02*
X89011905Y-98224819D01*
X90535714Y-98224819D02*
X89964286Y-98224819D01*
X90250000Y-98224819D02*
X90250000Y-97224819D01*
X90250000Y-97224819D02*
X90154762Y-97367676D01*
X90154762Y-97367676D02*
X90059524Y-97462914D01*
X90059524Y-97462914D02*
X89964286Y-97510533D01*
X144457142Y-90824819D02*
X144123809Y-90348628D01*
X143885714Y-90824819D02*
X143885714Y-89824819D01*
X143885714Y-89824819D02*
X144266666Y-89824819D01*
X144266666Y-89824819D02*
X144361904Y-89872438D01*
X144361904Y-89872438D02*
X144409523Y-89920057D01*
X144409523Y-89920057D02*
X144457142Y-90015295D01*
X144457142Y-90015295D02*
X144457142Y-90158152D01*
X144457142Y-90158152D02*
X144409523Y-90253390D01*
X144409523Y-90253390D02*
X144361904Y-90301009D01*
X144361904Y-90301009D02*
X144266666Y-90348628D01*
X144266666Y-90348628D02*
X143885714Y-90348628D01*
X144838095Y-89920057D02*
X144885714Y-89872438D01*
X144885714Y-89872438D02*
X144980952Y-89824819D01*
X144980952Y-89824819D02*
X145219047Y-89824819D01*
X145219047Y-89824819D02*
X145314285Y-89872438D01*
X145314285Y-89872438D02*
X145361904Y-89920057D01*
X145361904Y-89920057D02*
X145409523Y-90015295D01*
X145409523Y-90015295D02*
X145409523Y-90110533D01*
X145409523Y-90110533D02*
X145361904Y-90253390D01*
X145361904Y-90253390D02*
X144790476Y-90824819D01*
X144790476Y-90824819D02*
X145409523Y-90824819D01*
X145742857Y-89824819D02*
X146361904Y-89824819D01*
X146361904Y-89824819D02*
X146028571Y-90205771D01*
X146028571Y-90205771D02*
X146171428Y-90205771D01*
X146171428Y-90205771D02*
X146266666Y-90253390D01*
X146266666Y-90253390D02*
X146314285Y-90301009D01*
X146314285Y-90301009D02*
X146361904Y-90396247D01*
X146361904Y-90396247D02*
X146361904Y-90634342D01*
X146361904Y-90634342D02*
X146314285Y-90729580D01*
X146314285Y-90729580D02*
X146266666Y-90777200D01*
X146266666Y-90777200D02*
X146171428Y-90824819D01*
X146171428Y-90824819D02*
X145885714Y-90824819D01*
X145885714Y-90824819D02*
X145790476Y-90777200D01*
X145790476Y-90777200D02*
X145742857Y-90729580D01*
X110357142Y-59539580D02*
X110309523Y-59587200D01*
X110309523Y-59587200D02*
X110166666Y-59634819D01*
X110166666Y-59634819D02*
X110071428Y-59634819D01*
X110071428Y-59634819D02*
X109928571Y-59587200D01*
X109928571Y-59587200D02*
X109833333Y-59491961D01*
X109833333Y-59491961D02*
X109785714Y-59396723D01*
X109785714Y-59396723D02*
X109738095Y-59206247D01*
X109738095Y-59206247D02*
X109738095Y-59063390D01*
X109738095Y-59063390D02*
X109785714Y-58872914D01*
X109785714Y-58872914D02*
X109833333Y-58777676D01*
X109833333Y-58777676D02*
X109928571Y-58682438D01*
X109928571Y-58682438D02*
X110071428Y-58634819D01*
X110071428Y-58634819D02*
X110166666Y-58634819D01*
X110166666Y-58634819D02*
X110309523Y-58682438D01*
X110309523Y-58682438D02*
X110357142Y-58730057D01*
X111309523Y-59634819D02*
X110738095Y-59634819D01*
X111023809Y-59634819D02*
X111023809Y-58634819D01*
X111023809Y-58634819D02*
X110928571Y-58777676D01*
X110928571Y-58777676D02*
X110833333Y-58872914D01*
X110833333Y-58872914D02*
X110738095Y-58920533D01*
X111880952Y-59063390D02*
X111785714Y-59015771D01*
X111785714Y-59015771D02*
X111738095Y-58968152D01*
X111738095Y-58968152D02*
X111690476Y-58872914D01*
X111690476Y-58872914D02*
X111690476Y-58825295D01*
X111690476Y-58825295D02*
X111738095Y-58730057D01*
X111738095Y-58730057D02*
X111785714Y-58682438D01*
X111785714Y-58682438D02*
X111880952Y-58634819D01*
X111880952Y-58634819D02*
X112071428Y-58634819D01*
X112071428Y-58634819D02*
X112166666Y-58682438D01*
X112166666Y-58682438D02*
X112214285Y-58730057D01*
X112214285Y-58730057D02*
X112261904Y-58825295D01*
X112261904Y-58825295D02*
X112261904Y-58872914D01*
X112261904Y-58872914D02*
X112214285Y-58968152D01*
X112214285Y-58968152D02*
X112166666Y-59015771D01*
X112166666Y-59015771D02*
X112071428Y-59063390D01*
X112071428Y-59063390D02*
X111880952Y-59063390D01*
X111880952Y-59063390D02*
X111785714Y-59111009D01*
X111785714Y-59111009D02*
X111738095Y-59158628D01*
X111738095Y-59158628D02*
X111690476Y-59253866D01*
X111690476Y-59253866D02*
X111690476Y-59444342D01*
X111690476Y-59444342D02*
X111738095Y-59539580D01*
X111738095Y-59539580D02*
X111785714Y-59587200D01*
X111785714Y-59587200D02*
X111880952Y-59634819D01*
X111880952Y-59634819D02*
X112071428Y-59634819D01*
X112071428Y-59634819D02*
X112166666Y-59587200D01*
X112166666Y-59587200D02*
X112214285Y-59539580D01*
X112214285Y-59539580D02*
X112261904Y-59444342D01*
X112261904Y-59444342D02*
X112261904Y-59253866D01*
X112261904Y-59253866D02*
X112214285Y-59158628D01*
X112214285Y-59158628D02*
X112166666Y-59111009D01*
X112166666Y-59111009D02*
X112071428Y-59063390D01*
X106859580Y-89416666D02*
X106907200Y-89464285D01*
X106907200Y-89464285D02*
X106954819Y-89607142D01*
X106954819Y-89607142D02*
X106954819Y-89702380D01*
X106954819Y-89702380D02*
X106907200Y-89845237D01*
X106907200Y-89845237D02*
X106811961Y-89940475D01*
X106811961Y-89940475D02*
X106716723Y-89988094D01*
X106716723Y-89988094D02*
X106526247Y-90035713D01*
X106526247Y-90035713D02*
X106383390Y-90035713D01*
X106383390Y-90035713D02*
X106192914Y-89988094D01*
X106192914Y-89988094D02*
X106097676Y-89940475D01*
X106097676Y-89940475D02*
X106002438Y-89845237D01*
X106002438Y-89845237D02*
X105954819Y-89702380D01*
X105954819Y-89702380D02*
X105954819Y-89607142D01*
X105954819Y-89607142D02*
X106002438Y-89464285D01*
X106002438Y-89464285D02*
X106050057Y-89416666D01*
X105954819Y-88559523D02*
X105954819Y-88749999D01*
X105954819Y-88749999D02*
X106002438Y-88845237D01*
X106002438Y-88845237D02*
X106050057Y-88892856D01*
X106050057Y-88892856D02*
X106192914Y-88988094D01*
X106192914Y-88988094D02*
X106383390Y-89035713D01*
X106383390Y-89035713D02*
X106764342Y-89035713D01*
X106764342Y-89035713D02*
X106859580Y-88988094D01*
X106859580Y-88988094D02*
X106907200Y-88940475D01*
X106907200Y-88940475D02*
X106954819Y-88845237D01*
X106954819Y-88845237D02*
X106954819Y-88654761D01*
X106954819Y-88654761D02*
X106907200Y-88559523D01*
X106907200Y-88559523D02*
X106859580Y-88511904D01*
X106859580Y-88511904D02*
X106764342Y-88464285D01*
X106764342Y-88464285D02*
X106526247Y-88464285D01*
X106526247Y-88464285D02*
X106431009Y-88511904D01*
X106431009Y-88511904D02*
X106383390Y-88559523D01*
X106383390Y-88559523D02*
X106335771Y-88654761D01*
X106335771Y-88654761D02*
X106335771Y-88845237D01*
X106335771Y-88845237D02*
X106383390Y-88940475D01*
X106383390Y-88940475D02*
X106431009Y-88988094D01*
X106431009Y-88988094D02*
X106526247Y-89035713D01*
X142057142Y-56254819D02*
X141723809Y-55778628D01*
X141485714Y-56254819D02*
X141485714Y-55254819D01*
X141485714Y-55254819D02*
X141866666Y-55254819D01*
X141866666Y-55254819D02*
X141961904Y-55302438D01*
X141961904Y-55302438D02*
X142009523Y-55350057D01*
X142009523Y-55350057D02*
X142057142Y-55445295D01*
X142057142Y-55445295D02*
X142057142Y-55588152D01*
X142057142Y-55588152D02*
X142009523Y-55683390D01*
X142009523Y-55683390D02*
X141961904Y-55731009D01*
X141961904Y-55731009D02*
X141866666Y-55778628D01*
X141866666Y-55778628D02*
X141485714Y-55778628D01*
X143009523Y-56254819D02*
X142438095Y-56254819D01*
X142723809Y-56254819D02*
X142723809Y-55254819D01*
X142723809Y-55254819D02*
X142628571Y-55397676D01*
X142628571Y-55397676D02*
X142533333Y-55492914D01*
X142533333Y-55492914D02*
X142438095Y-55540533D01*
X143390476Y-55350057D02*
X143438095Y-55302438D01*
X143438095Y-55302438D02*
X143533333Y-55254819D01*
X143533333Y-55254819D02*
X143771428Y-55254819D01*
X143771428Y-55254819D02*
X143866666Y-55302438D01*
X143866666Y-55302438D02*
X143914285Y-55350057D01*
X143914285Y-55350057D02*
X143961904Y-55445295D01*
X143961904Y-55445295D02*
X143961904Y-55540533D01*
X143961904Y-55540533D02*
X143914285Y-55683390D01*
X143914285Y-55683390D02*
X143342857Y-56254819D01*
X143342857Y-56254819D02*
X143961904Y-56254819D01*
X98609580Y-96166666D02*
X98657200Y-96214285D01*
X98657200Y-96214285D02*
X98704819Y-96357142D01*
X98704819Y-96357142D02*
X98704819Y-96452380D01*
X98704819Y-96452380D02*
X98657200Y-96595237D01*
X98657200Y-96595237D02*
X98561961Y-96690475D01*
X98561961Y-96690475D02*
X98466723Y-96738094D01*
X98466723Y-96738094D02*
X98276247Y-96785713D01*
X98276247Y-96785713D02*
X98133390Y-96785713D01*
X98133390Y-96785713D02*
X97942914Y-96738094D01*
X97942914Y-96738094D02*
X97847676Y-96690475D01*
X97847676Y-96690475D02*
X97752438Y-96595237D01*
X97752438Y-96595237D02*
X97704819Y-96452380D01*
X97704819Y-96452380D02*
X97704819Y-96357142D01*
X97704819Y-96357142D02*
X97752438Y-96214285D01*
X97752438Y-96214285D02*
X97800057Y-96166666D01*
X98133390Y-95595237D02*
X98085771Y-95690475D01*
X98085771Y-95690475D02*
X98038152Y-95738094D01*
X98038152Y-95738094D02*
X97942914Y-95785713D01*
X97942914Y-95785713D02*
X97895295Y-95785713D01*
X97895295Y-95785713D02*
X97800057Y-95738094D01*
X97800057Y-95738094D02*
X97752438Y-95690475D01*
X97752438Y-95690475D02*
X97704819Y-95595237D01*
X97704819Y-95595237D02*
X97704819Y-95404761D01*
X97704819Y-95404761D02*
X97752438Y-95309523D01*
X97752438Y-95309523D02*
X97800057Y-95261904D01*
X97800057Y-95261904D02*
X97895295Y-95214285D01*
X97895295Y-95214285D02*
X97942914Y-95214285D01*
X97942914Y-95214285D02*
X98038152Y-95261904D01*
X98038152Y-95261904D02*
X98085771Y-95309523D01*
X98085771Y-95309523D02*
X98133390Y-95404761D01*
X98133390Y-95404761D02*
X98133390Y-95595237D01*
X98133390Y-95595237D02*
X98181009Y-95690475D01*
X98181009Y-95690475D02*
X98228628Y-95738094D01*
X98228628Y-95738094D02*
X98323866Y-95785713D01*
X98323866Y-95785713D02*
X98514342Y-95785713D01*
X98514342Y-95785713D02*
X98609580Y-95738094D01*
X98609580Y-95738094D02*
X98657200Y-95690475D01*
X98657200Y-95690475D02*
X98704819Y-95595237D01*
X98704819Y-95595237D02*
X98704819Y-95404761D01*
X98704819Y-95404761D02*
X98657200Y-95309523D01*
X98657200Y-95309523D02*
X98609580Y-95261904D01*
X98609580Y-95261904D02*
X98514342Y-95214285D01*
X98514342Y-95214285D02*
X98323866Y-95214285D01*
X98323866Y-95214285D02*
X98228628Y-95261904D01*
X98228628Y-95261904D02*
X98181009Y-95309523D01*
X98181009Y-95309523D02*
X98133390Y-95404761D01*
X114454819Y-95916666D02*
X114454819Y-96392856D01*
X114454819Y-96392856D02*
X113454819Y-96392856D01*
X114454819Y-95059523D02*
X114454819Y-95630951D01*
X114454819Y-95345237D02*
X113454819Y-95345237D01*
X113454819Y-95345237D02*
X113597676Y-95440475D01*
X113597676Y-95440475D02*
X113692914Y-95535713D01*
X113692914Y-95535713D02*
X113740533Y-95630951D01*
X89607142Y-65759580D02*
X89559523Y-65807200D01*
X89559523Y-65807200D02*
X89416666Y-65854819D01*
X89416666Y-65854819D02*
X89321428Y-65854819D01*
X89321428Y-65854819D02*
X89178571Y-65807200D01*
X89178571Y-65807200D02*
X89083333Y-65711961D01*
X89083333Y-65711961D02*
X89035714Y-65616723D01*
X89035714Y-65616723D02*
X88988095Y-65426247D01*
X88988095Y-65426247D02*
X88988095Y-65283390D01*
X88988095Y-65283390D02*
X89035714Y-65092914D01*
X89035714Y-65092914D02*
X89083333Y-64997676D01*
X89083333Y-64997676D02*
X89178571Y-64902438D01*
X89178571Y-64902438D02*
X89321428Y-64854819D01*
X89321428Y-64854819D02*
X89416666Y-64854819D01*
X89416666Y-64854819D02*
X89559523Y-64902438D01*
X89559523Y-64902438D02*
X89607142Y-64950057D01*
X90559523Y-65854819D02*
X89988095Y-65854819D01*
X90273809Y-65854819D02*
X90273809Y-64854819D01*
X90273809Y-64854819D02*
X90178571Y-64997676D01*
X90178571Y-64997676D02*
X90083333Y-65092914D01*
X90083333Y-65092914D02*
X89988095Y-65140533D01*
X90940476Y-64950057D02*
X90988095Y-64902438D01*
X90988095Y-64902438D02*
X91083333Y-64854819D01*
X91083333Y-64854819D02*
X91321428Y-64854819D01*
X91321428Y-64854819D02*
X91416666Y-64902438D01*
X91416666Y-64902438D02*
X91464285Y-64950057D01*
X91464285Y-64950057D02*
X91511904Y-65045295D01*
X91511904Y-65045295D02*
X91511904Y-65140533D01*
X91511904Y-65140533D02*
X91464285Y-65283390D01*
X91464285Y-65283390D02*
X90892857Y-65854819D01*
X90892857Y-65854819D02*
X91511904Y-65854819D01*
X146754819Y-97938094D02*
X145754819Y-97938094D01*
X145754819Y-97938094D02*
X145754819Y-97699999D01*
X145754819Y-97699999D02*
X145802438Y-97557142D01*
X145802438Y-97557142D02*
X145897676Y-97461904D01*
X145897676Y-97461904D02*
X145992914Y-97414285D01*
X145992914Y-97414285D02*
X146183390Y-97366666D01*
X146183390Y-97366666D02*
X146326247Y-97366666D01*
X146326247Y-97366666D02*
X146516723Y-97414285D01*
X146516723Y-97414285D02*
X146611961Y-97461904D01*
X146611961Y-97461904D02*
X146707200Y-97557142D01*
X146707200Y-97557142D02*
X146754819Y-97699999D01*
X146754819Y-97699999D02*
X146754819Y-97938094D01*
X145850057Y-96985713D02*
X145802438Y-96938094D01*
X145802438Y-96938094D02*
X145754819Y-96842856D01*
X145754819Y-96842856D02*
X145754819Y-96604761D01*
X145754819Y-96604761D02*
X145802438Y-96509523D01*
X145802438Y-96509523D02*
X145850057Y-96461904D01*
X145850057Y-96461904D02*
X145945295Y-96414285D01*
X145945295Y-96414285D02*
X146040533Y-96414285D01*
X146040533Y-96414285D02*
X146183390Y-96461904D01*
X146183390Y-96461904D02*
X146754819Y-97033332D01*
X146754819Y-97033332D02*
X146754819Y-96414285D01*
X90757142Y-80284819D02*
X90423809Y-79808628D01*
X90185714Y-80284819D02*
X90185714Y-79284819D01*
X90185714Y-79284819D02*
X90566666Y-79284819D01*
X90566666Y-79284819D02*
X90661904Y-79332438D01*
X90661904Y-79332438D02*
X90709523Y-79380057D01*
X90709523Y-79380057D02*
X90757142Y-79475295D01*
X90757142Y-79475295D02*
X90757142Y-79618152D01*
X90757142Y-79618152D02*
X90709523Y-79713390D01*
X90709523Y-79713390D02*
X90661904Y-79761009D01*
X90661904Y-79761009D02*
X90566666Y-79808628D01*
X90566666Y-79808628D02*
X90185714Y-79808628D01*
X91090476Y-79284819D02*
X91709523Y-79284819D01*
X91709523Y-79284819D02*
X91376190Y-79665771D01*
X91376190Y-79665771D02*
X91519047Y-79665771D01*
X91519047Y-79665771D02*
X91614285Y-79713390D01*
X91614285Y-79713390D02*
X91661904Y-79761009D01*
X91661904Y-79761009D02*
X91709523Y-79856247D01*
X91709523Y-79856247D02*
X91709523Y-80094342D01*
X91709523Y-80094342D02*
X91661904Y-80189580D01*
X91661904Y-80189580D02*
X91614285Y-80237200D01*
X91614285Y-80237200D02*
X91519047Y-80284819D01*
X91519047Y-80284819D02*
X91233333Y-80284819D01*
X91233333Y-80284819D02*
X91138095Y-80237200D01*
X91138095Y-80237200D02*
X91090476Y-80189580D01*
X92090476Y-79380057D02*
X92138095Y-79332438D01*
X92138095Y-79332438D02*
X92233333Y-79284819D01*
X92233333Y-79284819D02*
X92471428Y-79284819D01*
X92471428Y-79284819D02*
X92566666Y-79332438D01*
X92566666Y-79332438D02*
X92614285Y-79380057D01*
X92614285Y-79380057D02*
X92661904Y-79475295D01*
X92661904Y-79475295D02*
X92661904Y-79570533D01*
X92661904Y-79570533D02*
X92614285Y-79713390D01*
X92614285Y-79713390D02*
X92042857Y-80284819D01*
X92042857Y-80284819D02*
X92661904Y-80284819D01*
X92557142Y-83884819D02*
X92223809Y-83408628D01*
X91985714Y-83884819D02*
X91985714Y-82884819D01*
X91985714Y-82884819D02*
X92366666Y-82884819D01*
X92366666Y-82884819D02*
X92461904Y-82932438D01*
X92461904Y-82932438D02*
X92509523Y-82980057D01*
X92509523Y-82980057D02*
X92557142Y-83075295D01*
X92557142Y-83075295D02*
X92557142Y-83218152D01*
X92557142Y-83218152D02*
X92509523Y-83313390D01*
X92509523Y-83313390D02*
X92461904Y-83361009D01*
X92461904Y-83361009D02*
X92366666Y-83408628D01*
X92366666Y-83408628D02*
X91985714Y-83408628D01*
X92890476Y-82884819D02*
X93509523Y-82884819D01*
X93509523Y-82884819D02*
X93176190Y-83265771D01*
X93176190Y-83265771D02*
X93319047Y-83265771D01*
X93319047Y-83265771D02*
X93414285Y-83313390D01*
X93414285Y-83313390D02*
X93461904Y-83361009D01*
X93461904Y-83361009D02*
X93509523Y-83456247D01*
X93509523Y-83456247D02*
X93509523Y-83694342D01*
X93509523Y-83694342D02*
X93461904Y-83789580D01*
X93461904Y-83789580D02*
X93414285Y-83837200D01*
X93414285Y-83837200D02*
X93319047Y-83884819D01*
X93319047Y-83884819D02*
X93033333Y-83884819D01*
X93033333Y-83884819D02*
X92938095Y-83837200D01*
X92938095Y-83837200D02*
X92890476Y-83789580D01*
X94461904Y-83884819D02*
X93890476Y-83884819D01*
X94176190Y-83884819D02*
X94176190Y-82884819D01*
X94176190Y-82884819D02*
X94080952Y-83027676D01*
X94080952Y-83027676D02*
X93985714Y-83122914D01*
X93985714Y-83122914D02*
X93890476Y-83170533D01*
X95254819Y-58642857D02*
X94778628Y-58976190D01*
X95254819Y-59214285D02*
X94254819Y-59214285D01*
X94254819Y-59214285D02*
X94254819Y-58833333D01*
X94254819Y-58833333D02*
X94302438Y-58738095D01*
X94302438Y-58738095D02*
X94350057Y-58690476D01*
X94350057Y-58690476D02*
X94445295Y-58642857D01*
X94445295Y-58642857D02*
X94588152Y-58642857D01*
X94588152Y-58642857D02*
X94683390Y-58690476D01*
X94683390Y-58690476D02*
X94731009Y-58738095D01*
X94731009Y-58738095D02*
X94778628Y-58833333D01*
X94778628Y-58833333D02*
X94778628Y-59214285D01*
X95254819Y-57690476D02*
X95254819Y-58261904D01*
X95254819Y-57976190D02*
X94254819Y-57976190D01*
X94254819Y-57976190D02*
X94397676Y-58071428D01*
X94397676Y-58071428D02*
X94492914Y-58166666D01*
X94492914Y-58166666D02*
X94540533Y-58261904D01*
X95254819Y-57214285D02*
X95254819Y-57023809D01*
X95254819Y-57023809D02*
X95207200Y-56928571D01*
X95207200Y-56928571D02*
X95159580Y-56880952D01*
X95159580Y-56880952D02*
X95016723Y-56785714D01*
X95016723Y-56785714D02*
X94826247Y-56738095D01*
X94826247Y-56738095D02*
X94445295Y-56738095D01*
X94445295Y-56738095D02*
X94350057Y-56785714D01*
X94350057Y-56785714D02*
X94302438Y-56833333D01*
X94302438Y-56833333D02*
X94254819Y-56928571D01*
X94254819Y-56928571D02*
X94254819Y-57119047D01*
X94254819Y-57119047D02*
X94302438Y-57214285D01*
X94302438Y-57214285D02*
X94350057Y-57261904D01*
X94350057Y-57261904D02*
X94445295Y-57309523D01*
X94445295Y-57309523D02*
X94683390Y-57309523D01*
X94683390Y-57309523D02*
X94778628Y-57261904D01*
X94778628Y-57261904D02*
X94826247Y-57214285D01*
X94826247Y-57214285D02*
X94873866Y-57119047D01*
X94873866Y-57119047D02*
X94873866Y-56928571D01*
X94873866Y-56928571D02*
X94826247Y-56833333D01*
X94826247Y-56833333D02*
X94778628Y-56785714D01*
X94778628Y-56785714D02*
X94683390Y-56738095D01*
X119557142Y-90684819D02*
X119223809Y-90208628D01*
X118985714Y-90684819D02*
X118985714Y-89684819D01*
X118985714Y-89684819D02*
X119366666Y-89684819D01*
X119366666Y-89684819D02*
X119461904Y-89732438D01*
X119461904Y-89732438D02*
X119509523Y-89780057D01*
X119509523Y-89780057D02*
X119557142Y-89875295D01*
X119557142Y-89875295D02*
X119557142Y-90018152D01*
X119557142Y-90018152D02*
X119509523Y-90113390D01*
X119509523Y-90113390D02*
X119461904Y-90161009D01*
X119461904Y-90161009D02*
X119366666Y-90208628D01*
X119366666Y-90208628D02*
X118985714Y-90208628D01*
X119938095Y-89780057D02*
X119985714Y-89732438D01*
X119985714Y-89732438D02*
X120080952Y-89684819D01*
X120080952Y-89684819D02*
X120319047Y-89684819D01*
X120319047Y-89684819D02*
X120414285Y-89732438D01*
X120414285Y-89732438D02*
X120461904Y-89780057D01*
X120461904Y-89780057D02*
X120509523Y-89875295D01*
X120509523Y-89875295D02*
X120509523Y-89970533D01*
X120509523Y-89970533D02*
X120461904Y-90113390D01*
X120461904Y-90113390D02*
X119890476Y-90684819D01*
X119890476Y-90684819D02*
X120509523Y-90684819D01*
X121080952Y-90113390D02*
X120985714Y-90065771D01*
X120985714Y-90065771D02*
X120938095Y-90018152D01*
X120938095Y-90018152D02*
X120890476Y-89922914D01*
X120890476Y-89922914D02*
X120890476Y-89875295D01*
X120890476Y-89875295D02*
X120938095Y-89780057D01*
X120938095Y-89780057D02*
X120985714Y-89732438D01*
X120985714Y-89732438D02*
X121080952Y-89684819D01*
X121080952Y-89684819D02*
X121271428Y-89684819D01*
X121271428Y-89684819D02*
X121366666Y-89732438D01*
X121366666Y-89732438D02*
X121414285Y-89780057D01*
X121414285Y-89780057D02*
X121461904Y-89875295D01*
X121461904Y-89875295D02*
X121461904Y-89922914D01*
X121461904Y-89922914D02*
X121414285Y-90018152D01*
X121414285Y-90018152D02*
X121366666Y-90065771D01*
X121366666Y-90065771D02*
X121271428Y-90113390D01*
X121271428Y-90113390D02*
X121080952Y-90113390D01*
X121080952Y-90113390D02*
X120985714Y-90161009D01*
X120985714Y-90161009D02*
X120938095Y-90208628D01*
X120938095Y-90208628D02*
X120890476Y-90303866D01*
X120890476Y-90303866D02*
X120890476Y-90494342D01*
X120890476Y-90494342D02*
X120938095Y-90589580D01*
X120938095Y-90589580D02*
X120985714Y-90637200D01*
X120985714Y-90637200D02*
X121080952Y-90684819D01*
X121080952Y-90684819D02*
X121271428Y-90684819D01*
X121271428Y-90684819D02*
X121366666Y-90637200D01*
X121366666Y-90637200D02*
X121414285Y-90589580D01*
X121414285Y-90589580D02*
X121461904Y-90494342D01*
X121461904Y-90494342D02*
X121461904Y-90303866D01*
X121461904Y-90303866D02*
X121414285Y-90208628D01*
X121414285Y-90208628D02*
X121366666Y-90161009D01*
X121366666Y-90161009D02*
X121271428Y-90113390D01*
X97134819Y-92166666D02*
X96658628Y-92499999D01*
X97134819Y-92738094D02*
X96134819Y-92738094D01*
X96134819Y-92738094D02*
X96134819Y-92357142D01*
X96134819Y-92357142D02*
X96182438Y-92261904D01*
X96182438Y-92261904D02*
X96230057Y-92214285D01*
X96230057Y-92214285D02*
X96325295Y-92166666D01*
X96325295Y-92166666D02*
X96468152Y-92166666D01*
X96468152Y-92166666D02*
X96563390Y-92214285D01*
X96563390Y-92214285D02*
X96611009Y-92261904D01*
X96611009Y-92261904D02*
X96658628Y-92357142D01*
X96658628Y-92357142D02*
X96658628Y-92738094D01*
X97134819Y-91214285D02*
X97134819Y-91785713D01*
X97134819Y-91499999D02*
X96134819Y-91499999D01*
X96134819Y-91499999D02*
X96277676Y-91595237D01*
X96277676Y-91595237D02*
X96372914Y-91690475D01*
X96372914Y-91690475D02*
X96420533Y-91785713D01*
X144754819Y-99014285D02*
X143754819Y-99014285D01*
X143754819Y-99014285D02*
X143754819Y-98776190D01*
X143754819Y-98776190D02*
X143802438Y-98633333D01*
X143802438Y-98633333D02*
X143897676Y-98538095D01*
X143897676Y-98538095D02*
X143992914Y-98490476D01*
X143992914Y-98490476D02*
X144183390Y-98442857D01*
X144183390Y-98442857D02*
X144326247Y-98442857D01*
X144326247Y-98442857D02*
X144516723Y-98490476D01*
X144516723Y-98490476D02*
X144611961Y-98538095D01*
X144611961Y-98538095D02*
X144707200Y-98633333D01*
X144707200Y-98633333D02*
X144754819Y-98776190D01*
X144754819Y-98776190D02*
X144754819Y-99014285D01*
X144754819Y-97490476D02*
X144754819Y-98061904D01*
X144754819Y-97776190D02*
X143754819Y-97776190D01*
X143754819Y-97776190D02*
X143897676Y-97871428D01*
X143897676Y-97871428D02*
X143992914Y-97966666D01*
X143992914Y-97966666D02*
X144040533Y-98061904D01*
X143754819Y-96871428D02*
X143754819Y-96776190D01*
X143754819Y-96776190D02*
X143802438Y-96680952D01*
X143802438Y-96680952D02*
X143850057Y-96633333D01*
X143850057Y-96633333D02*
X143945295Y-96585714D01*
X143945295Y-96585714D02*
X144135771Y-96538095D01*
X144135771Y-96538095D02*
X144373866Y-96538095D01*
X144373866Y-96538095D02*
X144564342Y-96585714D01*
X144564342Y-96585714D02*
X144659580Y-96633333D01*
X144659580Y-96633333D02*
X144707200Y-96680952D01*
X144707200Y-96680952D02*
X144754819Y-96776190D01*
X144754819Y-96776190D02*
X144754819Y-96871428D01*
X144754819Y-96871428D02*
X144707200Y-96966666D01*
X144707200Y-96966666D02*
X144659580Y-97014285D01*
X144659580Y-97014285D02*
X144564342Y-97061904D01*
X144564342Y-97061904D02*
X144373866Y-97109523D01*
X144373866Y-97109523D02*
X144135771Y-97109523D01*
X144135771Y-97109523D02*
X143945295Y-97061904D01*
X143945295Y-97061904D02*
X143850057Y-97014285D01*
X143850057Y-97014285D02*
X143802438Y-96966666D01*
X143802438Y-96966666D02*
X143754819Y-96871428D01*
X144485714Y-63054819D02*
X144485714Y-62054819D01*
X144485714Y-62054819D02*
X144723809Y-62054819D01*
X144723809Y-62054819D02*
X144866666Y-62102438D01*
X144866666Y-62102438D02*
X144961904Y-62197676D01*
X144961904Y-62197676D02*
X145009523Y-62292914D01*
X145009523Y-62292914D02*
X145057142Y-62483390D01*
X145057142Y-62483390D02*
X145057142Y-62626247D01*
X145057142Y-62626247D02*
X145009523Y-62816723D01*
X145009523Y-62816723D02*
X144961904Y-62911961D01*
X144961904Y-62911961D02*
X144866666Y-63007200D01*
X144866666Y-63007200D02*
X144723809Y-63054819D01*
X144723809Y-63054819D02*
X144485714Y-63054819D01*
X146009523Y-63054819D02*
X145438095Y-63054819D01*
X145723809Y-63054819D02*
X145723809Y-62054819D01*
X145723809Y-62054819D02*
X145628571Y-62197676D01*
X145628571Y-62197676D02*
X145533333Y-62292914D01*
X145533333Y-62292914D02*
X145438095Y-62340533D01*
X146961904Y-63054819D02*
X146390476Y-63054819D01*
X146676190Y-63054819D02*
X146676190Y-62054819D01*
X146676190Y-62054819D02*
X146580952Y-62197676D01*
X146580952Y-62197676D02*
X146485714Y-62292914D01*
X146485714Y-62292914D02*
X146390476Y-62340533D01*
X149566666Y-72704819D02*
X149566666Y-73419104D01*
X149566666Y-73419104D02*
X149519047Y-73561961D01*
X149519047Y-73561961D02*
X149423809Y-73657200D01*
X149423809Y-73657200D02*
X149280952Y-73704819D01*
X149280952Y-73704819D02*
X149185714Y-73704819D01*
X150519047Y-72704819D02*
X150042857Y-72704819D01*
X150042857Y-72704819D02*
X149995238Y-73181009D01*
X149995238Y-73181009D02*
X150042857Y-73133390D01*
X150042857Y-73133390D02*
X150138095Y-73085771D01*
X150138095Y-73085771D02*
X150376190Y-73085771D01*
X150376190Y-73085771D02*
X150471428Y-73133390D01*
X150471428Y-73133390D02*
X150519047Y-73181009D01*
X150519047Y-73181009D02*
X150566666Y-73276247D01*
X150566666Y-73276247D02*
X150566666Y-73514342D01*
X150566666Y-73514342D02*
X150519047Y-73609580D01*
X150519047Y-73609580D02*
X150471428Y-73657200D01*
X150471428Y-73657200D02*
X150376190Y-73704819D01*
X150376190Y-73704819D02*
X150138095Y-73704819D01*
X150138095Y-73704819D02*
X150042857Y-73657200D01*
X150042857Y-73657200D02*
X149995238Y-73609580D01*
X105107142Y-73039580D02*
X105059523Y-73087200D01*
X105059523Y-73087200D02*
X104916666Y-73134819D01*
X104916666Y-73134819D02*
X104821428Y-73134819D01*
X104821428Y-73134819D02*
X104678571Y-73087200D01*
X104678571Y-73087200D02*
X104583333Y-72991961D01*
X104583333Y-72991961D02*
X104535714Y-72896723D01*
X104535714Y-72896723D02*
X104488095Y-72706247D01*
X104488095Y-72706247D02*
X104488095Y-72563390D01*
X104488095Y-72563390D02*
X104535714Y-72372914D01*
X104535714Y-72372914D02*
X104583333Y-72277676D01*
X104583333Y-72277676D02*
X104678571Y-72182438D01*
X104678571Y-72182438D02*
X104821428Y-72134819D01*
X104821428Y-72134819D02*
X104916666Y-72134819D01*
X104916666Y-72134819D02*
X105059523Y-72182438D01*
X105059523Y-72182438D02*
X105107142Y-72230057D01*
X106059523Y-73134819D02*
X105488095Y-73134819D01*
X105773809Y-73134819D02*
X105773809Y-72134819D01*
X105773809Y-72134819D02*
X105678571Y-72277676D01*
X105678571Y-72277676D02*
X105583333Y-72372914D01*
X105583333Y-72372914D02*
X105488095Y-72420533D01*
X106392857Y-72134819D02*
X107011904Y-72134819D01*
X107011904Y-72134819D02*
X106678571Y-72515771D01*
X106678571Y-72515771D02*
X106821428Y-72515771D01*
X106821428Y-72515771D02*
X106916666Y-72563390D01*
X106916666Y-72563390D02*
X106964285Y-72611009D01*
X106964285Y-72611009D02*
X107011904Y-72706247D01*
X107011904Y-72706247D02*
X107011904Y-72944342D01*
X107011904Y-72944342D02*
X106964285Y-73039580D01*
X106964285Y-73039580D02*
X106916666Y-73087200D01*
X106916666Y-73087200D02*
X106821428Y-73134819D01*
X106821428Y-73134819D02*
X106535714Y-73134819D01*
X106535714Y-73134819D02*
X106440476Y-73087200D01*
X106440476Y-73087200D02*
X106392857Y-73039580D01*
X137857142Y-78654819D02*
X137523809Y-78178628D01*
X137285714Y-78654819D02*
X137285714Y-77654819D01*
X137285714Y-77654819D02*
X137666666Y-77654819D01*
X137666666Y-77654819D02*
X137761904Y-77702438D01*
X137761904Y-77702438D02*
X137809523Y-77750057D01*
X137809523Y-77750057D02*
X137857142Y-77845295D01*
X137857142Y-77845295D02*
X137857142Y-77988152D01*
X137857142Y-77988152D02*
X137809523Y-78083390D01*
X137809523Y-78083390D02*
X137761904Y-78131009D01*
X137761904Y-78131009D02*
X137666666Y-78178628D01*
X137666666Y-78178628D02*
X137285714Y-78178628D01*
X138809523Y-78654819D02*
X138238095Y-78654819D01*
X138523809Y-78654819D02*
X138523809Y-77654819D01*
X138523809Y-77654819D02*
X138428571Y-77797676D01*
X138428571Y-77797676D02*
X138333333Y-77892914D01*
X138333333Y-77892914D02*
X138238095Y-77940533D01*
X139761904Y-78654819D02*
X139190476Y-78654819D01*
X139476190Y-78654819D02*
X139476190Y-77654819D01*
X139476190Y-77654819D02*
X139380952Y-77797676D01*
X139380952Y-77797676D02*
X139285714Y-77892914D01*
X139285714Y-77892914D02*
X139190476Y-77940533D01*
X128557142Y-58884819D02*
X128223809Y-58408628D01*
X127985714Y-58884819D02*
X127985714Y-57884819D01*
X127985714Y-57884819D02*
X128366666Y-57884819D01*
X128366666Y-57884819D02*
X128461904Y-57932438D01*
X128461904Y-57932438D02*
X128509523Y-57980057D01*
X128509523Y-57980057D02*
X128557142Y-58075295D01*
X128557142Y-58075295D02*
X128557142Y-58218152D01*
X128557142Y-58218152D02*
X128509523Y-58313390D01*
X128509523Y-58313390D02*
X128461904Y-58361009D01*
X128461904Y-58361009D02*
X128366666Y-58408628D01*
X128366666Y-58408628D02*
X127985714Y-58408628D01*
X128938095Y-57980057D02*
X128985714Y-57932438D01*
X128985714Y-57932438D02*
X129080952Y-57884819D01*
X129080952Y-57884819D02*
X129319047Y-57884819D01*
X129319047Y-57884819D02*
X129414285Y-57932438D01*
X129414285Y-57932438D02*
X129461904Y-57980057D01*
X129461904Y-57980057D02*
X129509523Y-58075295D01*
X129509523Y-58075295D02*
X129509523Y-58170533D01*
X129509523Y-58170533D02*
X129461904Y-58313390D01*
X129461904Y-58313390D02*
X128890476Y-58884819D01*
X128890476Y-58884819D02*
X129509523Y-58884819D01*
X130366666Y-57884819D02*
X130176190Y-57884819D01*
X130176190Y-57884819D02*
X130080952Y-57932438D01*
X130080952Y-57932438D02*
X130033333Y-57980057D01*
X130033333Y-57980057D02*
X129938095Y-58122914D01*
X129938095Y-58122914D02*
X129890476Y-58313390D01*
X129890476Y-58313390D02*
X129890476Y-58694342D01*
X129890476Y-58694342D02*
X129938095Y-58789580D01*
X129938095Y-58789580D02*
X129985714Y-58837200D01*
X129985714Y-58837200D02*
X130080952Y-58884819D01*
X130080952Y-58884819D02*
X130271428Y-58884819D01*
X130271428Y-58884819D02*
X130366666Y-58837200D01*
X130366666Y-58837200D02*
X130414285Y-58789580D01*
X130414285Y-58789580D02*
X130461904Y-58694342D01*
X130461904Y-58694342D02*
X130461904Y-58456247D01*
X130461904Y-58456247D02*
X130414285Y-58361009D01*
X130414285Y-58361009D02*
X130366666Y-58313390D01*
X130366666Y-58313390D02*
X130271428Y-58265771D01*
X130271428Y-58265771D02*
X130080952Y-58265771D01*
X130080952Y-58265771D02*
X129985714Y-58313390D01*
X129985714Y-58313390D02*
X129938095Y-58361009D01*
X129938095Y-58361009D02*
X129890476Y-58456247D01*
X119557142Y-93884819D02*
X119223809Y-93408628D01*
X118985714Y-93884819D02*
X118985714Y-92884819D01*
X118985714Y-92884819D02*
X119366666Y-92884819D01*
X119366666Y-92884819D02*
X119461904Y-92932438D01*
X119461904Y-92932438D02*
X119509523Y-92980057D01*
X119509523Y-92980057D02*
X119557142Y-93075295D01*
X119557142Y-93075295D02*
X119557142Y-93218152D01*
X119557142Y-93218152D02*
X119509523Y-93313390D01*
X119509523Y-93313390D02*
X119461904Y-93361009D01*
X119461904Y-93361009D02*
X119366666Y-93408628D01*
X119366666Y-93408628D02*
X118985714Y-93408628D01*
X119938095Y-92980057D02*
X119985714Y-92932438D01*
X119985714Y-92932438D02*
X120080952Y-92884819D01*
X120080952Y-92884819D02*
X120319047Y-92884819D01*
X120319047Y-92884819D02*
X120414285Y-92932438D01*
X120414285Y-92932438D02*
X120461904Y-92980057D01*
X120461904Y-92980057D02*
X120509523Y-93075295D01*
X120509523Y-93075295D02*
X120509523Y-93170533D01*
X120509523Y-93170533D02*
X120461904Y-93313390D01*
X120461904Y-93313390D02*
X119890476Y-93884819D01*
X119890476Y-93884819D02*
X120509523Y-93884819D01*
X120842857Y-92884819D02*
X121509523Y-92884819D01*
X121509523Y-92884819D02*
X121080952Y-93884819D01*
X109357142Y-73204819D02*
X109023809Y-72728628D01*
X108785714Y-73204819D02*
X108785714Y-72204819D01*
X108785714Y-72204819D02*
X109166666Y-72204819D01*
X109166666Y-72204819D02*
X109261904Y-72252438D01*
X109261904Y-72252438D02*
X109309523Y-72300057D01*
X109309523Y-72300057D02*
X109357142Y-72395295D01*
X109357142Y-72395295D02*
X109357142Y-72538152D01*
X109357142Y-72538152D02*
X109309523Y-72633390D01*
X109309523Y-72633390D02*
X109261904Y-72681009D01*
X109261904Y-72681009D02*
X109166666Y-72728628D01*
X109166666Y-72728628D02*
X108785714Y-72728628D01*
X110309523Y-73204819D02*
X109738095Y-73204819D01*
X110023809Y-73204819D02*
X110023809Y-72204819D01*
X110023809Y-72204819D02*
X109928571Y-72347676D01*
X109928571Y-72347676D02*
X109833333Y-72442914D01*
X109833333Y-72442914D02*
X109738095Y-72490533D01*
X110928571Y-72204819D02*
X111023809Y-72204819D01*
X111023809Y-72204819D02*
X111119047Y-72252438D01*
X111119047Y-72252438D02*
X111166666Y-72300057D01*
X111166666Y-72300057D02*
X111214285Y-72395295D01*
X111214285Y-72395295D02*
X111261904Y-72585771D01*
X111261904Y-72585771D02*
X111261904Y-72823866D01*
X111261904Y-72823866D02*
X111214285Y-73014342D01*
X111214285Y-73014342D02*
X111166666Y-73109580D01*
X111166666Y-73109580D02*
X111119047Y-73157200D01*
X111119047Y-73157200D02*
X111023809Y-73204819D01*
X111023809Y-73204819D02*
X110928571Y-73204819D01*
X110928571Y-73204819D02*
X110833333Y-73157200D01*
X110833333Y-73157200D02*
X110785714Y-73109580D01*
X110785714Y-73109580D02*
X110738095Y-73014342D01*
X110738095Y-73014342D02*
X110690476Y-72823866D01*
X110690476Y-72823866D02*
X110690476Y-72585771D01*
X110690476Y-72585771D02*
X110738095Y-72395295D01*
X110738095Y-72395295D02*
X110785714Y-72300057D01*
X110785714Y-72300057D02*
X110833333Y-72252438D01*
X110833333Y-72252438D02*
X110928571Y-72204819D01*
X144754819Y-82938094D02*
X143754819Y-82938094D01*
X143754819Y-82938094D02*
X143754819Y-82699999D01*
X143754819Y-82699999D02*
X143802438Y-82557142D01*
X143802438Y-82557142D02*
X143897676Y-82461904D01*
X143897676Y-82461904D02*
X143992914Y-82414285D01*
X143992914Y-82414285D02*
X144183390Y-82366666D01*
X144183390Y-82366666D02*
X144326247Y-82366666D01*
X144326247Y-82366666D02*
X144516723Y-82414285D01*
X144516723Y-82414285D02*
X144611961Y-82461904D01*
X144611961Y-82461904D02*
X144707200Y-82557142D01*
X144707200Y-82557142D02*
X144754819Y-82699999D01*
X144754819Y-82699999D02*
X144754819Y-82938094D01*
X144183390Y-81795237D02*
X144135771Y-81890475D01*
X144135771Y-81890475D02*
X144088152Y-81938094D01*
X144088152Y-81938094D02*
X143992914Y-81985713D01*
X143992914Y-81985713D02*
X143945295Y-81985713D01*
X143945295Y-81985713D02*
X143850057Y-81938094D01*
X143850057Y-81938094D02*
X143802438Y-81890475D01*
X143802438Y-81890475D02*
X143754819Y-81795237D01*
X143754819Y-81795237D02*
X143754819Y-81604761D01*
X143754819Y-81604761D02*
X143802438Y-81509523D01*
X143802438Y-81509523D02*
X143850057Y-81461904D01*
X143850057Y-81461904D02*
X143945295Y-81414285D01*
X143945295Y-81414285D02*
X143992914Y-81414285D01*
X143992914Y-81414285D02*
X144088152Y-81461904D01*
X144088152Y-81461904D02*
X144135771Y-81509523D01*
X144135771Y-81509523D02*
X144183390Y-81604761D01*
X144183390Y-81604761D02*
X144183390Y-81795237D01*
X144183390Y-81795237D02*
X144231009Y-81890475D01*
X144231009Y-81890475D02*
X144278628Y-81938094D01*
X144278628Y-81938094D02*
X144373866Y-81985713D01*
X144373866Y-81985713D02*
X144564342Y-81985713D01*
X144564342Y-81985713D02*
X144659580Y-81938094D01*
X144659580Y-81938094D02*
X144707200Y-81890475D01*
X144707200Y-81890475D02*
X144754819Y-81795237D01*
X144754819Y-81795237D02*
X144754819Y-81604761D01*
X144754819Y-81604761D02*
X144707200Y-81509523D01*
X144707200Y-81509523D02*
X144659580Y-81461904D01*
X144659580Y-81461904D02*
X144564342Y-81414285D01*
X144564342Y-81414285D02*
X144373866Y-81414285D01*
X144373866Y-81414285D02*
X144278628Y-81461904D01*
X144278628Y-81461904D02*
X144231009Y-81509523D01*
X144231009Y-81509523D02*
X144183390Y-81604761D01*
X106754819Y-96761904D02*
X107564342Y-96761904D01*
X107564342Y-96761904D02*
X107659580Y-96714285D01*
X107659580Y-96714285D02*
X107707200Y-96666666D01*
X107707200Y-96666666D02*
X107754819Y-96571428D01*
X107754819Y-96571428D02*
X107754819Y-96380952D01*
X107754819Y-96380952D02*
X107707200Y-96285714D01*
X107707200Y-96285714D02*
X107659580Y-96238095D01*
X107659580Y-96238095D02*
X107564342Y-96190476D01*
X107564342Y-96190476D02*
X106754819Y-96190476D01*
X107754819Y-95190476D02*
X107754819Y-95761904D01*
X107754819Y-95476190D02*
X106754819Y-95476190D01*
X106754819Y-95476190D02*
X106897676Y-95571428D01*
X106897676Y-95571428D02*
X106992914Y-95666666D01*
X106992914Y-95666666D02*
X107040533Y-95761904D01*
X143354819Y-83442857D02*
X142878628Y-83776190D01*
X143354819Y-84014285D02*
X142354819Y-84014285D01*
X142354819Y-84014285D02*
X142354819Y-83633333D01*
X142354819Y-83633333D02*
X142402438Y-83538095D01*
X142402438Y-83538095D02*
X142450057Y-83490476D01*
X142450057Y-83490476D02*
X142545295Y-83442857D01*
X142545295Y-83442857D02*
X142688152Y-83442857D01*
X142688152Y-83442857D02*
X142783390Y-83490476D01*
X142783390Y-83490476D02*
X142831009Y-83538095D01*
X142831009Y-83538095D02*
X142878628Y-83633333D01*
X142878628Y-83633333D02*
X142878628Y-84014285D01*
X143354819Y-82490476D02*
X143354819Y-83061904D01*
X143354819Y-82776190D02*
X142354819Y-82776190D01*
X142354819Y-82776190D02*
X142497676Y-82871428D01*
X142497676Y-82871428D02*
X142592914Y-82966666D01*
X142592914Y-82966666D02*
X142640533Y-83061904D01*
X142354819Y-81633333D02*
X142354819Y-81823809D01*
X142354819Y-81823809D02*
X142402438Y-81919047D01*
X142402438Y-81919047D02*
X142450057Y-81966666D01*
X142450057Y-81966666D02*
X142592914Y-82061904D01*
X142592914Y-82061904D02*
X142783390Y-82109523D01*
X142783390Y-82109523D02*
X143164342Y-82109523D01*
X143164342Y-82109523D02*
X143259580Y-82061904D01*
X143259580Y-82061904D02*
X143307200Y-82014285D01*
X143307200Y-82014285D02*
X143354819Y-81919047D01*
X143354819Y-81919047D02*
X143354819Y-81728571D01*
X143354819Y-81728571D02*
X143307200Y-81633333D01*
X143307200Y-81633333D02*
X143259580Y-81585714D01*
X143259580Y-81585714D02*
X143164342Y-81538095D01*
X143164342Y-81538095D02*
X142926247Y-81538095D01*
X142926247Y-81538095D02*
X142831009Y-81585714D01*
X142831009Y-81585714D02*
X142783390Y-81633333D01*
X142783390Y-81633333D02*
X142735771Y-81728571D01*
X142735771Y-81728571D02*
X142735771Y-81919047D01*
X142735771Y-81919047D02*
X142783390Y-82014285D01*
X142783390Y-82014285D02*
X142831009Y-82061904D01*
X142831009Y-82061904D02*
X142926247Y-82109523D01*
X115988095Y-56704819D02*
X115988095Y-57514342D01*
X115988095Y-57514342D02*
X116035714Y-57609580D01*
X116035714Y-57609580D02*
X116083333Y-57657200D01*
X116083333Y-57657200D02*
X116178571Y-57704819D01*
X116178571Y-57704819D02*
X116369047Y-57704819D01*
X116369047Y-57704819D02*
X116464285Y-57657200D01*
X116464285Y-57657200D02*
X116511904Y-57609580D01*
X116511904Y-57609580D02*
X116559523Y-57514342D01*
X116559523Y-57514342D02*
X116559523Y-56704819D01*
X117511904Y-56704819D02*
X117035714Y-56704819D01*
X117035714Y-56704819D02*
X116988095Y-57181009D01*
X116988095Y-57181009D02*
X117035714Y-57133390D01*
X117035714Y-57133390D02*
X117130952Y-57085771D01*
X117130952Y-57085771D02*
X117369047Y-57085771D01*
X117369047Y-57085771D02*
X117464285Y-57133390D01*
X117464285Y-57133390D02*
X117511904Y-57181009D01*
X117511904Y-57181009D02*
X117559523Y-57276247D01*
X117559523Y-57276247D02*
X117559523Y-57514342D01*
X117559523Y-57514342D02*
X117511904Y-57609580D01*
X117511904Y-57609580D02*
X117464285Y-57657200D01*
X117464285Y-57657200D02*
X117369047Y-57704819D01*
X117369047Y-57704819D02*
X117130952Y-57704819D01*
X117130952Y-57704819D02*
X117035714Y-57657200D01*
X117035714Y-57657200D02*
X116988095Y-57609580D01*
X102609580Y-96166666D02*
X102657200Y-96214285D01*
X102657200Y-96214285D02*
X102704819Y-96357142D01*
X102704819Y-96357142D02*
X102704819Y-96452380D01*
X102704819Y-96452380D02*
X102657200Y-96595237D01*
X102657200Y-96595237D02*
X102561961Y-96690475D01*
X102561961Y-96690475D02*
X102466723Y-96738094D01*
X102466723Y-96738094D02*
X102276247Y-96785713D01*
X102276247Y-96785713D02*
X102133390Y-96785713D01*
X102133390Y-96785713D02*
X101942914Y-96738094D01*
X101942914Y-96738094D02*
X101847676Y-96690475D01*
X101847676Y-96690475D02*
X101752438Y-96595237D01*
X101752438Y-96595237D02*
X101704819Y-96452380D01*
X101704819Y-96452380D02*
X101704819Y-96357142D01*
X101704819Y-96357142D02*
X101752438Y-96214285D01*
X101752438Y-96214285D02*
X101800057Y-96166666D01*
X102704819Y-95214285D02*
X102704819Y-95785713D01*
X102704819Y-95499999D02*
X101704819Y-95499999D01*
X101704819Y-95499999D02*
X101847676Y-95595237D01*
X101847676Y-95595237D02*
X101942914Y-95690475D01*
X101942914Y-95690475D02*
X101990533Y-95785713D01*
X136924819Y-58042857D02*
X136448628Y-58376190D01*
X136924819Y-58614285D02*
X135924819Y-58614285D01*
X135924819Y-58614285D02*
X135924819Y-58233333D01*
X135924819Y-58233333D02*
X135972438Y-58138095D01*
X135972438Y-58138095D02*
X136020057Y-58090476D01*
X136020057Y-58090476D02*
X136115295Y-58042857D01*
X136115295Y-58042857D02*
X136258152Y-58042857D01*
X136258152Y-58042857D02*
X136353390Y-58090476D01*
X136353390Y-58090476D02*
X136401009Y-58138095D01*
X136401009Y-58138095D02*
X136448628Y-58233333D01*
X136448628Y-58233333D02*
X136448628Y-58614285D01*
X136258152Y-57185714D02*
X136924819Y-57185714D01*
X135877200Y-57423809D02*
X136591485Y-57661904D01*
X136591485Y-57661904D02*
X136591485Y-57042857D01*
X136258152Y-56233333D02*
X136924819Y-56233333D01*
X135877200Y-56471428D02*
X136591485Y-56709523D01*
X136591485Y-56709523D02*
X136591485Y-56090476D01*
X136754819Y-77642857D02*
X136278628Y-77976190D01*
X136754819Y-78214285D02*
X135754819Y-78214285D01*
X135754819Y-78214285D02*
X135754819Y-77833333D01*
X135754819Y-77833333D02*
X135802438Y-77738095D01*
X135802438Y-77738095D02*
X135850057Y-77690476D01*
X135850057Y-77690476D02*
X135945295Y-77642857D01*
X135945295Y-77642857D02*
X136088152Y-77642857D01*
X136088152Y-77642857D02*
X136183390Y-77690476D01*
X136183390Y-77690476D02*
X136231009Y-77738095D01*
X136231009Y-77738095D02*
X136278628Y-77833333D01*
X136278628Y-77833333D02*
X136278628Y-78214285D01*
X136754819Y-76690476D02*
X136754819Y-77261904D01*
X136754819Y-76976190D02*
X135754819Y-76976190D01*
X135754819Y-76976190D02*
X135897676Y-77071428D01*
X135897676Y-77071428D02*
X135992914Y-77166666D01*
X135992914Y-77166666D02*
X136040533Y-77261904D01*
X135754819Y-76357142D02*
X135754819Y-75738095D01*
X135754819Y-75738095D02*
X136135771Y-76071428D01*
X136135771Y-76071428D02*
X136135771Y-75928571D01*
X136135771Y-75928571D02*
X136183390Y-75833333D01*
X136183390Y-75833333D02*
X136231009Y-75785714D01*
X136231009Y-75785714D02*
X136326247Y-75738095D01*
X136326247Y-75738095D02*
X136564342Y-75738095D01*
X136564342Y-75738095D02*
X136659580Y-75785714D01*
X136659580Y-75785714D02*
X136707200Y-75833333D01*
X136707200Y-75833333D02*
X136754819Y-75928571D01*
X136754819Y-75928571D02*
X136754819Y-76214285D01*
X136754819Y-76214285D02*
X136707200Y-76309523D01*
X136707200Y-76309523D02*
X136659580Y-76357142D01*
X107083333Y-93454819D02*
X106750000Y-92978628D01*
X106511905Y-93454819D02*
X106511905Y-92454819D01*
X106511905Y-92454819D02*
X106892857Y-92454819D01*
X106892857Y-92454819D02*
X106988095Y-92502438D01*
X106988095Y-92502438D02*
X107035714Y-92550057D01*
X107035714Y-92550057D02*
X107083333Y-92645295D01*
X107083333Y-92645295D02*
X107083333Y-92788152D01*
X107083333Y-92788152D02*
X107035714Y-92883390D01*
X107035714Y-92883390D02*
X106988095Y-92931009D01*
X106988095Y-92931009D02*
X106892857Y-92978628D01*
X106892857Y-92978628D02*
X106511905Y-92978628D01*
X107654762Y-92883390D02*
X107559524Y-92835771D01*
X107559524Y-92835771D02*
X107511905Y-92788152D01*
X107511905Y-92788152D02*
X107464286Y-92692914D01*
X107464286Y-92692914D02*
X107464286Y-92645295D01*
X107464286Y-92645295D02*
X107511905Y-92550057D01*
X107511905Y-92550057D02*
X107559524Y-92502438D01*
X107559524Y-92502438D02*
X107654762Y-92454819D01*
X107654762Y-92454819D02*
X107845238Y-92454819D01*
X107845238Y-92454819D02*
X107940476Y-92502438D01*
X107940476Y-92502438D02*
X107988095Y-92550057D01*
X107988095Y-92550057D02*
X108035714Y-92645295D01*
X108035714Y-92645295D02*
X108035714Y-92692914D01*
X108035714Y-92692914D02*
X107988095Y-92788152D01*
X107988095Y-92788152D02*
X107940476Y-92835771D01*
X107940476Y-92835771D02*
X107845238Y-92883390D01*
X107845238Y-92883390D02*
X107654762Y-92883390D01*
X107654762Y-92883390D02*
X107559524Y-92931009D01*
X107559524Y-92931009D02*
X107511905Y-92978628D01*
X107511905Y-92978628D02*
X107464286Y-93073866D01*
X107464286Y-93073866D02*
X107464286Y-93264342D01*
X107464286Y-93264342D02*
X107511905Y-93359580D01*
X107511905Y-93359580D02*
X107559524Y-93407200D01*
X107559524Y-93407200D02*
X107654762Y-93454819D01*
X107654762Y-93454819D02*
X107845238Y-93454819D01*
X107845238Y-93454819D02*
X107940476Y-93407200D01*
X107940476Y-93407200D02*
X107988095Y-93359580D01*
X107988095Y-93359580D02*
X108035714Y-93264342D01*
X108035714Y-93264342D02*
X108035714Y-93073866D01*
X108035714Y-93073866D02*
X107988095Y-92978628D01*
X107988095Y-92978628D02*
X107940476Y-92931009D01*
X107940476Y-92931009D02*
X107845238Y-92883390D01*
X134124819Y-61842857D02*
X133648628Y-62176190D01*
X134124819Y-62414285D02*
X133124819Y-62414285D01*
X133124819Y-62414285D02*
X133124819Y-62033333D01*
X133124819Y-62033333D02*
X133172438Y-61938095D01*
X133172438Y-61938095D02*
X133220057Y-61890476D01*
X133220057Y-61890476D02*
X133315295Y-61842857D01*
X133315295Y-61842857D02*
X133458152Y-61842857D01*
X133458152Y-61842857D02*
X133553390Y-61890476D01*
X133553390Y-61890476D02*
X133601009Y-61938095D01*
X133601009Y-61938095D02*
X133648628Y-62033333D01*
X133648628Y-62033333D02*
X133648628Y-62414285D01*
X133458152Y-60985714D02*
X134124819Y-60985714D01*
X133077200Y-61223809D02*
X133791485Y-61461904D01*
X133791485Y-61461904D02*
X133791485Y-60842857D01*
X133124819Y-60271428D02*
X133124819Y-60176190D01*
X133124819Y-60176190D02*
X133172438Y-60080952D01*
X133172438Y-60080952D02*
X133220057Y-60033333D01*
X133220057Y-60033333D02*
X133315295Y-59985714D01*
X133315295Y-59985714D02*
X133505771Y-59938095D01*
X133505771Y-59938095D02*
X133743866Y-59938095D01*
X133743866Y-59938095D02*
X133934342Y-59985714D01*
X133934342Y-59985714D02*
X134029580Y-60033333D01*
X134029580Y-60033333D02*
X134077200Y-60080952D01*
X134077200Y-60080952D02*
X134124819Y-60176190D01*
X134124819Y-60176190D02*
X134124819Y-60271428D01*
X134124819Y-60271428D02*
X134077200Y-60366666D01*
X134077200Y-60366666D02*
X134029580Y-60414285D01*
X134029580Y-60414285D02*
X133934342Y-60461904D01*
X133934342Y-60461904D02*
X133743866Y-60509523D01*
X133743866Y-60509523D02*
X133505771Y-60509523D01*
X133505771Y-60509523D02*
X133315295Y-60461904D01*
X133315295Y-60461904D02*
X133220057Y-60414285D01*
X133220057Y-60414285D02*
X133172438Y-60366666D01*
X133172438Y-60366666D02*
X133124819Y-60271428D01*
X91357142Y-64454819D02*
X91023809Y-63978628D01*
X90785714Y-64454819D02*
X90785714Y-63454819D01*
X90785714Y-63454819D02*
X91166666Y-63454819D01*
X91166666Y-63454819D02*
X91261904Y-63502438D01*
X91261904Y-63502438D02*
X91309523Y-63550057D01*
X91309523Y-63550057D02*
X91357142Y-63645295D01*
X91357142Y-63645295D02*
X91357142Y-63788152D01*
X91357142Y-63788152D02*
X91309523Y-63883390D01*
X91309523Y-63883390D02*
X91261904Y-63931009D01*
X91261904Y-63931009D02*
X91166666Y-63978628D01*
X91166666Y-63978628D02*
X90785714Y-63978628D01*
X91738095Y-63550057D02*
X91785714Y-63502438D01*
X91785714Y-63502438D02*
X91880952Y-63454819D01*
X91880952Y-63454819D02*
X92119047Y-63454819D01*
X92119047Y-63454819D02*
X92214285Y-63502438D01*
X92214285Y-63502438D02*
X92261904Y-63550057D01*
X92261904Y-63550057D02*
X92309523Y-63645295D01*
X92309523Y-63645295D02*
X92309523Y-63740533D01*
X92309523Y-63740533D02*
X92261904Y-63883390D01*
X92261904Y-63883390D02*
X91690476Y-64454819D01*
X91690476Y-64454819D02*
X92309523Y-64454819D01*
X92928571Y-63454819D02*
X93023809Y-63454819D01*
X93023809Y-63454819D02*
X93119047Y-63502438D01*
X93119047Y-63502438D02*
X93166666Y-63550057D01*
X93166666Y-63550057D02*
X93214285Y-63645295D01*
X93214285Y-63645295D02*
X93261904Y-63835771D01*
X93261904Y-63835771D02*
X93261904Y-64073866D01*
X93261904Y-64073866D02*
X93214285Y-64264342D01*
X93214285Y-64264342D02*
X93166666Y-64359580D01*
X93166666Y-64359580D02*
X93119047Y-64407200D01*
X93119047Y-64407200D02*
X93023809Y-64454819D01*
X93023809Y-64454819D02*
X92928571Y-64454819D01*
X92928571Y-64454819D02*
X92833333Y-64407200D01*
X92833333Y-64407200D02*
X92785714Y-64359580D01*
X92785714Y-64359580D02*
X92738095Y-64264342D01*
X92738095Y-64264342D02*
X92690476Y-64073866D01*
X92690476Y-64073866D02*
X92690476Y-63835771D01*
X92690476Y-63835771D02*
X92738095Y-63645295D01*
X92738095Y-63645295D02*
X92785714Y-63550057D01*
X92785714Y-63550057D02*
X92833333Y-63502438D01*
X92833333Y-63502438D02*
X92928571Y-63454819D01*
X139724819Y-58042857D02*
X139248628Y-58376190D01*
X139724819Y-58614285D02*
X138724819Y-58614285D01*
X138724819Y-58614285D02*
X138724819Y-58233333D01*
X138724819Y-58233333D02*
X138772438Y-58138095D01*
X138772438Y-58138095D02*
X138820057Y-58090476D01*
X138820057Y-58090476D02*
X138915295Y-58042857D01*
X138915295Y-58042857D02*
X139058152Y-58042857D01*
X139058152Y-58042857D02*
X139153390Y-58090476D01*
X139153390Y-58090476D02*
X139201009Y-58138095D01*
X139201009Y-58138095D02*
X139248628Y-58233333D01*
X139248628Y-58233333D02*
X139248628Y-58614285D01*
X139058152Y-57185714D02*
X139724819Y-57185714D01*
X138677200Y-57423809D02*
X139391485Y-57661904D01*
X139391485Y-57661904D02*
X139391485Y-57042857D01*
X138724819Y-56757142D02*
X138724819Y-56138095D01*
X138724819Y-56138095D02*
X139105771Y-56471428D01*
X139105771Y-56471428D02*
X139105771Y-56328571D01*
X139105771Y-56328571D02*
X139153390Y-56233333D01*
X139153390Y-56233333D02*
X139201009Y-56185714D01*
X139201009Y-56185714D02*
X139296247Y-56138095D01*
X139296247Y-56138095D02*
X139534342Y-56138095D01*
X139534342Y-56138095D02*
X139629580Y-56185714D01*
X139629580Y-56185714D02*
X139677200Y-56233333D01*
X139677200Y-56233333D02*
X139724819Y-56328571D01*
X139724819Y-56328571D02*
X139724819Y-56614285D01*
X139724819Y-56614285D02*
X139677200Y-56709523D01*
X139677200Y-56709523D02*
X139629580Y-56757142D01*
X147554819Y-73138094D02*
X146554819Y-73138094D01*
X146554819Y-73138094D02*
X146554819Y-72899999D01*
X146554819Y-72899999D02*
X146602438Y-72757142D01*
X146602438Y-72757142D02*
X146697676Y-72661904D01*
X146697676Y-72661904D02*
X146792914Y-72614285D01*
X146792914Y-72614285D02*
X146983390Y-72566666D01*
X146983390Y-72566666D02*
X147126247Y-72566666D01*
X147126247Y-72566666D02*
X147316723Y-72614285D01*
X147316723Y-72614285D02*
X147411961Y-72661904D01*
X147411961Y-72661904D02*
X147507200Y-72757142D01*
X147507200Y-72757142D02*
X147554819Y-72899999D01*
X147554819Y-72899999D02*
X147554819Y-73138094D01*
X146554819Y-72233332D02*
X146554819Y-71566666D01*
X146554819Y-71566666D02*
X147554819Y-71995237D01*
X140457142Y-87824819D02*
X140123809Y-87348628D01*
X139885714Y-87824819D02*
X139885714Y-86824819D01*
X139885714Y-86824819D02*
X140266666Y-86824819D01*
X140266666Y-86824819D02*
X140361904Y-86872438D01*
X140361904Y-86872438D02*
X140409523Y-86920057D01*
X140409523Y-86920057D02*
X140457142Y-87015295D01*
X140457142Y-87015295D02*
X140457142Y-87158152D01*
X140457142Y-87158152D02*
X140409523Y-87253390D01*
X140409523Y-87253390D02*
X140361904Y-87301009D01*
X140361904Y-87301009D02*
X140266666Y-87348628D01*
X140266666Y-87348628D02*
X139885714Y-87348628D01*
X140838095Y-86920057D02*
X140885714Y-86872438D01*
X140885714Y-86872438D02*
X140980952Y-86824819D01*
X140980952Y-86824819D02*
X141219047Y-86824819D01*
X141219047Y-86824819D02*
X141314285Y-86872438D01*
X141314285Y-86872438D02*
X141361904Y-86920057D01*
X141361904Y-86920057D02*
X141409523Y-87015295D01*
X141409523Y-87015295D02*
X141409523Y-87110533D01*
X141409523Y-87110533D02*
X141361904Y-87253390D01*
X141361904Y-87253390D02*
X140790476Y-87824819D01*
X140790476Y-87824819D02*
X141409523Y-87824819D01*
X141790476Y-86920057D02*
X141838095Y-86872438D01*
X141838095Y-86872438D02*
X141933333Y-86824819D01*
X141933333Y-86824819D02*
X142171428Y-86824819D01*
X142171428Y-86824819D02*
X142266666Y-86872438D01*
X142266666Y-86872438D02*
X142314285Y-86920057D01*
X142314285Y-86920057D02*
X142361904Y-87015295D01*
X142361904Y-87015295D02*
X142361904Y-87110533D01*
X142361904Y-87110533D02*
X142314285Y-87253390D01*
X142314285Y-87253390D02*
X141742857Y-87824819D01*
X141742857Y-87824819D02*
X142361904Y-87824819D01*
X138333333Y-96004819D02*
X138000000Y-95528628D01*
X137761905Y-96004819D02*
X137761905Y-95004819D01*
X137761905Y-95004819D02*
X138142857Y-95004819D01*
X138142857Y-95004819D02*
X138238095Y-95052438D01*
X138238095Y-95052438D02*
X138285714Y-95100057D01*
X138285714Y-95100057D02*
X138333333Y-95195295D01*
X138333333Y-95195295D02*
X138333333Y-95338152D01*
X138333333Y-95338152D02*
X138285714Y-95433390D01*
X138285714Y-95433390D02*
X138238095Y-95481009D01*
X138238095Y-95481009D02*
X138142857Y-95528628D01*
X138142857Y-95528628D02*
X137761905Y-95528628D01*
X139238095Y-95004819D02*
X138761905Y-95004819D01*
X138761905Y-95004819D02*
X138714286Y-95481009D01*
X138714286Y-95481009D02*
X138761905Y-95433390D01*
X138761905Y-95433390D02*
X138857143Y-95385771D01*
X138857143Y-95385771D02*
X139095238Y-95385771D01*
X139095238Y-95385771D02*
X139190476Y-95433390D01*
X139190476Y-95433390D02*
X139238095Y-95481009D01*
X139238095Y-95481009D02*
X139285714Y-95576247D01*
X139285714Y-95576247D02*
X139285714Y-95814342D01*
X139285714Y-95814342D02*
X139238095Y-95909580D01*
X139238095Y-95909580D02*
X139190476Y-95957200D01*
X139190476Y-95957200D02*
X139095238Y-96004819D01*
X139095238Y-96004819D02*
X138857143Y-96004819D01*
X138857143Y-96004819D02*
X138761905Y-95957200D01*
X138761905Y-95957200D02*
X138714286Y-95909580D01*
X87024819Y-81166666D02*
X86548628Y-81499999D01*
X87024819Y-81738094D02*
X86024819Y-81738094D01*
X86024819Y-81738094D02*
X86024819Y-81357142D01*
X86024819Y-81357142D02*
X86072438Y-81261904D01*
X86072438Y-81261904D02*
X86120057Y-81214285D01*
X86120057Y-81214285D02*
X86215295Y-81166666D01*
X86215295Y-81166666D02*
X86358152Y-81166666D01*
X86358152Y-81166666D02*
X86453390Y-81214285D01*
X86453390Y-81214285D02*
X86501009Y-81261904D01*
X86501009Y-81261904D02*
X86548628Y-81357142D01*
X86548628Y-81357142D02*
X86548628Y-81738094D01*
X86024819Y-80833332D02*
X86024819Y-80166666D01*
X86024819Y-80166666D02*
X87024819Y-80595237D01*
X98488095Y-71954819D02*
X98488095Y-72764342D01*
X98488095Y-72764342D02*
X98535714Y-72859580D01*
X98535714Y-72859580D02*
X98583333Y-72907200D01*
X98583333Y-72907200D02*
X98678571Y-72954819D01*
X98678571Y-72954819D02*
X98869047Y-72954819D01*
X98869047Y-72954819D02*
X98964285Y-72907200D01*
X98964285Y-72907200D02*
X99011904Y-72859580D01*
X99011904Y-72859580D02*
X99059523Y-72764342D01*
X99059523Y-72764342D02*
X99059523Y-71954819D01*
X99964285Y-72288152D02*
X99964285Y-72954819D01*
X99726190Y-71907200D02*
X99488095Y-72621485D01*
X99488095Y-72621485D02*
X100107142Y-72621485D01*
X92061905Y-98224819D02*
X92061905Y-97224819D01*
X92061905Y-97224819D02*
X92300000Y-97224819D01*
X92300000Y-97224819D02*
X92442857Y-97272438D01*
X92442857Y-97272438D02*
X92538095Y-97367676D01*
X92538095Y-97367676D02*
X92585714Y-97462914D01*
X92585714Y-97462914D02*
X92633333Y-97653390D01*
X92633333Y-97653390D02*
X92633333Y-97796247D01*
X92633333Y-97796247D02*
X92585714Y-97986723D01*
X92585714Y-97986723D02*
X92538095Y-98081961D01*
X92538095Y-98081961D02*
X92442857Y-98177200D01*
X92442857Y-98177200D02*
X92300000Y-98224819D01*
X92300000Y-98224819D02*
X92061905Y-98224819D01*
X93109524Y-98224819D02*
X93300000Y-98224819D01*
X93300000Y-98224819D02*
X93395238Y-98177200D01*
X93395238Y-98177200D02*
X93442857Y-98129580D01*
X93442857Y-98129580D02*
X93538095Y-97986723D01*
X93538095Y-97986723D02*
X93585714Y-97796247D01*
X93585714Y-97796247D02*
X93585714Y-97415295D01*
X93585714Y-97415295D02*
X93538095Y-97320057D01*
X93538095Y-97320057D02*
X93490476Y-97272438D01*
X93490476Y-97272438D02*
X93395238Y-97224819D01*
X93395238Y-97224819D02*
X93204762Y-97224819D01*
X93204762Y-97224819D02*
X93109524Y-97272438D01*
X93109524Y-97272438D02*
X93061905Y-97320057D01*
X93061905Y-97320057D02*
X93014286Y-97415295D01*
X93014286Y-97415295D02*
X93014286Y-97653390D01*
X93014286Y-97653390D02*
X93061905Y-97748628D01*
X93061905Y-97748628D02*
X93109524Y-97796247D01*
X93109524Y-97796247D02*
X93204762Y-97843866D01*
X93204762Y-97843866D02*
X93395238Y-97843866D01*
X93395238Y-97843866D02*
X93490476Y-97796247D01*
X93490476Y-97796247D02*
X93538095Y-97748628D01*
X93538095Y-97748628D02*
X93585714Y-97653390D01*
X92757142Y-73424819D02*
X92423809Y-72948628D01*
X92185714Y-73424819D02*
X92185714Y-72424819D01*
X92185714Y-72424819D02*
X92566666Y-72424819D01*
X92566666Y-72424819D02*
X92661904Y-72472438D01*
X92661904Y-72472438D02*
X92709523Y-72520057D01*
X92709523Y-72520057D02*
X92757142Y-72615295D01*
X92757142Y-72615295D02*
X92757142Y-72758152D01*
X92757142Y-72758152D02*
X92709523Y-72853390D01*
X92709523Y-72853390D02*
X92661904Y-72901009D01*
X92661904Y-72901009D02*
X92566666Y-72948628D01*
X92566666Y-72948628D02*
X92185714Y-72948628D01*
X93138095Y-72520057D02*
X93185714Y-72472438D01*
X93185714Y-72472438D02*
X93280952Y-72424819D01*
X93280952Y-72424819D02*
X93519047Y-72424819D01*
X93519047Y-72424819D02*
X93614285Y-72472438D01*
X93614285Y-72472438D02*
X93661904Y-72520057D01*
X93661904Y-72520057D02*
X93709523Y-72615295D01*
X93709523Y-72615295D02*
X93709523Y-72710533D01*
X93709523Y-72710533D02*
X93661904Y-72853390D01*
X93661904Y-72853390D02*
X93090476Y-73424819D01*
X93090476Y-73424819D02*
X93709523Y-73424819D01*
X94185714Y-73424819D02*
X94376190Y-73424819D01*
X94376190Y-73424819D02*
X94471428Y-73377200D01*
X94471428Y-73377200D02*
X94519047Y-73329580D01*
X94519047Y-73329580D02*
X94614285Y-73186723D01*
X94614285Y-73186723D02*
X94661904Y-72996247D01*
X94661904Y-72996247D02*
X94661904Y-72615295D01*
X94661904Y-72615295D02*
X94614285Y-72520057D01*
X94614285Y-72520057D02*
X94566666Y-72472438D01*
X94566666Y-72472438D02*
X94471428Y-72424819D01*
X94471428Y-72424819D02*
X94280952Y-72424819D01*
X94280952Y-72424819D02*
X94185714Y-72472438D01*
X94185714Y-72472438D02*
X94138095Y-72520057D01*
X94138095Y-72520057D02*
X94090476Y-72615295D01*
X94090476Y-72615295D02*
X94090476Y-72853390D01*
X94090476Y-72853390D02*
X94138095Y-72948628D01*
X94138095Y-72948628D02*
X94185714Y-72996247D01*
X94185714Y-72996247D02*
X94280952Y-73043866D01*
X94280952Y-73043866D02*
X94471428Y-73043866D01*
X94471428Y-73043866D02*
X94566666Y-72996247D01*
X94566666Y-72996247D02*
X94614285Y-72948628D01*
X94614285Y-72948628D02*
X94661904Y-72853390D01*
X89607142Y-72959580D02*
X89559523Y-73007200D01*
X89559523Y-73007200D02*
X89416666Y-73054819D01*
X89416666Y-73054819D02*
X89321428Y-73054819D01*
X89321428Y-73054819D02*
X89178571Y-73007200D01*
X89178571Y-73007200D02*
X89083333Y-72911961D01*
X89083333Y-72911961D02*
X89035714Y-72816723D01*
X89035714Y-72816723D02*
X88988095Y-72626247D01*
X88988095Y-72626247D02*
X88988095Y-72483390D01*
X88988095Y-72483390D02*
X89035714Y-72292914D01*
X89035714Y-72292914D02*
X89083333Y-72197676D01*
X89083333Y-72197676D02*
X89178571Y-72102438D01*
X89178571Y-72102438D02*
X89321428Y-72054819D01*
X89321428Y-72054819D02*
X89416666Y-72054819D01*
X89416666Y-72054819D02*
X89559523Y-72102438D01*
X89559523Y-72102438D02*
X89607142Y-72150057D01*
X90559523Y-73054819D02*
X89988095Y-73054819D01*
X90273809Y-73054819D02*
X90273809Y-72054819D01*
X90273809Y-72054819D02*
X90178571Y-72197676D01*
X90178571Y-72197676D02*
X90083333Y-72292914D01*
X90083333Y-72292914D02*
X89988095Y-72340533D01*
X91511904Y-73054819D02*
X90940476Y-73054819D01*
X91226190Y-73054819D02*
X91226190Y-72054819D01*
X91226190Y-72054819D02*
X91130952Y-72197676D01*
X91130952Y-72197676D02*
X91035714Y-72292914D01*
X91035714Y-72292914D02*
X90940476Y-72340533D01*
X142657142Y-75454819D02*
X142323809Y-74978628D01*
X142085714Y-75454819D02*
X142085714Y-74454819D01*
X142085714Y-74454819D02*
X142466666Y-74454819D01*
X142466666Y-74454819D02*
X142561904Y-74502438D01*
X142561904Y-74502438D02*
X142609523Y-74550057D01*
X142609523Y-74550057D02*
X142657142Y-74645295D01*
X142657142Y-74645295D02*
X142657142Y-74788152D01*
X142657142Y-74788152D02*
X142609523Y-74883390D01*
X142609523Y-74883390D02*
X142561904Y-74931009D01*
X142561904Y-74931009D02*
X142466666Y-74978628D01*
X142466666Y-74978628D02*
X142085714Y-74978628D01*
X142990476Y-74454819D02*
X143609523Y-74454819D01*
X143609523Y-74454819D02*
X143276190Y-74835771D01*
X143276190Y-74835771D02*
X143419047Y-74835771D01*
X143419047Y-74835771D02*
X143514285Y-74883390D01*
X143514285Y-74883390D02*
X143561904Y-74931009D01*
X143561904Y-74931009D02*
X143609523Y-75026247D01*
X143609523Y-75026247D02*
X143609523Y-75264342D01*
X143609523Y-75264342D02*
X143561904Y-75359580D01*
X143561904Y-75359580D02*
X143514285Y-75407200D01*
X143514285Y-75407200D02*
X143419047Y-75454819D01*
X143419047Y-75454819D02*
X143133333Y-75454819D01*
X143133333Y-75454819D02*
X143038095Y-75407200D01*
X143038095Y-75407200D02*
X142990476Y-75359580D01*
X144180952Y-74883390D02*
X144085714Y-74835771D01*
X144085714Y-74835771D02*
X144038095Y-74788152D01*
X144038095Y-74788152D02*
X143990476Y-74692914D01*
X143990476Y-74692914D02*
X143990476Y-74645295D01*
X143990476Y-74645295D02*
X144038095Y-74550057D01*
X144038095Y-74550057D02*
X144085714Y-74502438D01*
X144085714Y-74502438D02*
X144180952Y-74454819D01*
X144180952Y-74454819D02*
X144371428Y-74454819D01*
X144371428Y-74454819D02*
X144466666Y-74502438D01*
X144466666Y-74502438D02*
X144514285Y-74550057D01*
X144514285Y-74550057D02*
X144561904Y-74645295D01*
X144561904Y-74645295D02*
X144561904Y-74692914D01*
X144561904Y-74692914D02*
X144514285Y-74788152D01*
X144514285Y-74788152D02*
X144466666Y-74835771D01*
X144466666Y-74835771D02*
X144371428Y-74883390D01*
X144371428Y-74883390D02*
X144180952Y-74883390D01*
X144180952Y-74883390D02*
X144085714Y-74931009D01*
X144085714Y-74931009D02*
X144038095Y-74978628D01*
X144038095Y-74978628D02*
X143990476Y-75073866D01*
X143990476Y-75073866D02*
X143990476Y-75264342D01*
X143990476Y-75264342D02*
X144038095Y-75359580D01*
X144038095Y-75359580D02*
X144085714Y-75407200D01*
X144085714Y-75407200D02*
X144180952Y-75454819D01*
X144180952Y-75454819D02*
X144371428Y-75454819D01*
X144371428Y-75454819D02*
X144466666Y-75407200D01*
X144466666Y-75407200D02*
X144514285Y-75359580D01*
X144514285Y-75359580D02*
X144561904Y-75264342D01*
X144561904Y-75264342D02*
X144561904Y-75073866D01*
X144561904Y-75073866D02*
X144514285Y-74978628D01*
X144514285Y-74978628D02*
X144466666Y-74931009D01*
X144466666Y-74931009D02*
X144371428Y-74883390D01*
X90757142Y-75824819D02*
X90423809Y-75348628D01*
X90185714Y-75824819D02*
X90185714Y-74824819D01*
X90185714Y-74824819D02*
X90566666Y-74824819D01*
X90566666Y-74824819D02*
X90661904Y-74872438D01*
X90661904Y-74872438D02*
X90709523Y-74920057D01*
X90709523Y-74920057D02*
X90757142Y-75015295D01*
X90757142Y-75015295D02*
X90757142Y-75158152D01*
X90757142Y-75158152D02*
X90709523Y-75253390D01*
X90709523Y-75253390D02*
X90661904Y-75301009D01*
X90661904Y-75301009D02*
X90566666Y-75348628D01*
X90566666Y-75348628D02*
X90185714Y-75348628D01*
X91090476Y-74824819D02*
X91709523Y-74824819D01*
X91709523Y-74824819D02*
X91376190Y-75205771D01*
X91376190Y-75205771D02*
X91519047Y-75205771D01*
X91519047Y-75205771D02*
X91614285Y-75253390D01*
X91614285Y-75253390D02*
X91661904Y-75301009D01*
X91661904Y-75301009D02*
X91709523Y-75396247D01*
X91709523Y-75396247D02*
X91709523Y-75634342D01*
X91709523Y-75634342D02*
X91661904Y-75729580D01*
X91661904Y-75729580D02*
X91614285Y-75777200D01*
X91614285Y-75777200D02*
X91519047Y-75824819D01*
X91519047Y-75824819D02*
X91233333Y-75824819D01*
X91233333Y-75824819D02*
X91138095Y-75777200D01*
X91138095Y-75777200D02*
X91090476Y-75729580D01*
X92328571Y-74824819D02*
X92423809Y-74824819D01*
X92423809Y-74824819D02*
X92519047Y-74872438D01*
X92519047Y-74872438D02*
X92566666Y-74920057D01*
X92566666Y-74920057D02*
X92614285Y-75015295D01*
X92614285Y-75015295D02*
X92661904Y-75205771D01*
X92661904Y-75205771D02*
X92661904Y-75443866D01*
X92661904Y-75443866D02*
X92614285Y-75634342D01*
X92614285Y-75634342D02*
X92566666Y-75729580D01*
X92566666Y-75729580D02*
X92519047Y-75777200D01*
X92519047Y-75777200D02*
X92423809Y-75824819D01*
X92423809Y-75824819D02*
X92328571Y-75824819D01*
X92328571Y-75824819D02*
X92233333Y-75777200D01*
X92233333Y-75777200D02*
X92185714Y-75729580D01*
X92185714Y-75729580D02*
X92138095Y-75634342D01*
X92138095Y-75634342D02*
X92090476Y-75443866D01*
X92090476Y-75443866D02*
X92090476Y-75205771D01*
X92090476Y-75205771D02*
X92138095Y-75015295D01*
X92138095Y-75015295D02*
X92185714Y-74920057D01*
X92185714Y-74920057D02*
X92233333Y-74872438D01*
X92233333Y-74872438D02*
X92328571Y-74824819D01*
X87166666Y-78004819D02*
X87166666Y-78719104D01*
X87166666Y-78719104D02*
X87119047Y-78861961D01*
X87119047Y-78861961D02*
X87023809Y-78957200D01*
X87023809Y-78957200D02*
X86880952Y-79004819D01*
X86880952Y-79004819D02*
X86785714Y-79004819D01*
X87642857Y-79004819D02*
X87642857Y-78004819D01*
X87642857Y-78004819D02*
X88023809Y-78004819D01*
X88023809Y-78004819D02*
X88119047Y-78052438D01*
X88119047Y-78052438D02*
X88166666Y-78100057D01*
X88166666Y-78100057D02*
X88214285Y-78195295D01*
X88214285Y-78195295D02*
X88214285Y-78338152D01*
X88214285Y-78338152D02*
X88166666Y-78433390D01*
X88166666Y-78433390D02*
X88119047Y-78481009D01*
X88119047Y-78481009D02*
X88023809Y-78528628D01*
X88023809Y-78528628D02*
X87642857Y-78528628D01*
X89166666Y-79004819D02*
X88595238Y-79004819D01*
X88880952Y-79004819D02*
X88880952Y-78004819D01*
X88880952Y-78004819D02*
X88785714Y-78147676D01*
X88785714Y-78147676D02*
X88690476Y-78242914D01*
X88690476Y-78242914D02*
X88595238Y-78290533D01*
X148316666Y-75204819D02*
X148316666Y-75919104D01*
X148316666Y-75919104D02*
X148269047Y-76061961D01*
X148269047Y-76061961D02*
X148173809Y-76157200D01*
X148173809Y-76157200D02*
X148030952Y-76204819D01*
X148030952Y-76204819D02*
X147935714Y-76204819D01*
X149316666Y-76204819D02*
X148745238Y-76204819D01*
X149030952Y-76204819D02*
X149030952Y-75204819D01*
X149030952Y-75204819D02*
X148935714Y-75347676D01*
X148935714Y-75347676D02*
X148840476Y-75442914D01*
X148840476Y-75442914D02*
X148745238Y-75490533D01*
X96954819Y-85916666D02*
X96478628Y-86249999D01*
X96954819Y-86488094D02*
X95954819Y-86488094D01*
X95954819Y-86488094D02*
X95954819Y-86107142D01*
X95954819Y-86107142D02*
X96002438Y-86011904D01*
X96002438Y-86011904D02*
X96050057Y-85964285D01*
X96050057Y-85964285D02*
X96145295Y-85916666D01*
X96145295Y-85916666D02*
X96288152Y-85916666D01*
X96288152Y-85916666D02*
X96383390Y-85964285D01*
X96383390Y-85964285D02*
X96431009Y-86011904D01*
X96431009Y-86011904D02*
X96478628Y-86107142D01*
X96478628Y-86107142D02*
X96478628Y-86488094D01*
X96050057Y-85535713D02*
X96002438Y-85488094D01*
X96002438Y-85488094D02*
X95954819Y-85392856D01*
X95954819Y-85392856D02*
X95954819Y-85154761D01*
X95954819Y-85154761D02*
X96002438Y-85059523D01*
X96002438Y-85059523D02*
X96050057Y-85011904D01*
X96050057Y-85011904D02*
X96145295Y-84964285D01*
X96145295Y-84964285D02*
X96240533Y-84964285D01*
X96240533Y-84964285D02*
X96383390Y-85011904D01*
X96383390Y-85011904D02*
X96954819Y-85583332D01*
X96954819Y-85583332D02*
X96954819Y-84964285D01*
X137938095Y-90054819D02*
X137938095Y-90864342D01*
X137938095Y-90864342D02*
X137985714Y-90959580D01*
X137985714Y-90959580D02*
X138033333Y-91007200D01*
X138033333Y-91007200D02*
X138128571Y-91054819D01*
X138128571Y-91054819D02*
X138319047Y-91054819D01*
X138319047Y-91054819D02*
X138414285Y-91007200D01*
X138414285Y-91007200D02*
X138461904Y-90959580D01*
X138461904Y-90959580D02*
X138509523Y-90864342D01*
X138509523Y-90864342D02*
X138509523Y-90054819D01*
X139128571Y-90483390D02*
X139033333Y-90435771D01*
X139033333Y-90435771D02*
X138985714Y-90388152D01*
X138985714Y-90388152D02*
X138938095Y-90292914D01*
X138938095Y-90292914D02*
X138938095Y-90245295D01*
X138938095Y-90245295D02*
X138985714Y-90150057D01*
X138985714Y-90150057D02*
X139033333Y-90102438D01*
X139033333Y-90102438D02*
X139128571Y-90054819D01*
X139128571Y-90054819D02*
X139319047Y-90054819D01*
X139319047Y-90054819D02*
X139414285Y-90102438D01*
X139414285Y-90102438D02*
X139461904Y-90150057D01*
X139461904Y-90150057D02*
X139509523Y-90245295D01*
X139509523Y-90245295D02*
X139509523Y-90292914D01*
X139509523Y-90292914D02*
X139461904Y-90388152D01*
X139461904Y-90388152D02*
X139414285Y-90435771D01*
X139414285Y-90435771D02*
X139319047Y-90483390D01*
X139319047Y-90483390D02*
X139128571Y-90483390D01*
X139128571Y-90483390D02*
X139033333Y-90531009D01*
X139033333Y-90531009D02*
X138985714Y-90578628D01*
X138985714Y-90578628D02*
X138938095Y-90673866D01*
X138938095Y-90673866D02*
X138938095Y-90864342D01*
X138938095Y-90864342D02*
X138985714Y-90959580D01*
X138985714Y-90959580D02*
X139033333Y-91007200D01*
X139033333Y-91007200D02*
X139128571Y-91054819D01*
X139128571Y-91054819D02*
X139319047Y-91054819D01*
X139319047Y-91054819D02*
X139414285Y-91007200D01*
X139414285Y-91007200D02*
X139461904Y-90959580D01*
X139461904Y-90959580D02*
X139509523Y-90864342D01*
X139509523Y-90864342D02*
X139509523Y-90673866D01*
X139509523Y-90673866D02*
X139461904Y-90578628D01*
X139461904Y-90578628D02*
X139414285Y-90531009D01*
X139414285Y-90531009D02*
X139319047Y-90483390D01*
X106554819Y-64938094D02*
X105554819Y-64938094D01*
X105554819Y-64938094D02*
X105554819Y-64699999D01*
X105554819Y-64699999D02*
X105602438Y-64557142D01*
X105602438Y-64557142D02*
X105697676Y-64461904D01*
X105697676Y-64461904D02*
X105792914Y-64414285D01*
X105792914Y-64414285D02*
X105983390Y-64366666D01*
X105983390Y-64366666D02*
X106126247Y-64366666D01*
X106126247Y-64366666D02*
X106316723Y-64414285D01*
X106316723Y-64414285D02*
X106411961Y-64461904D01*
X106411961Y-64461904D02*
X106507200Y-64557142D01*
X106507200Y-64557142D02*
X106554819Y-64699999D01*
X106554819Y-64699999D02*
X106554819Y-64938094D01*
X105888152Y-63509523D02*
X106554819Y-63509523D01*
X105507200Y-63747618D02*
X106221485Y-63985713D01*
X106221485Y-63985713D02*
X106221485Y-63366666D01*
X146754819Y-82938094D02*
X145754819Y-82938094D01*
X145754819Y-82938094D02*
X145754819Y-82699999D01*
X145754819Y-82699999D02*
X145802438Y-82557142D01*
X145802438Y-82557142D02*
X145897676Y-82461904D01*
X145897676Y-82461904D02*
X145992914Y-82414285D01*
X145992914Y-82414285D02*
X146183390Y-82366666D01*
X146183390Y-82366666D02*
X146326247Y-82366666D01*
X146326247Y-82366666D02*
X146516723Y-82414285D01*
X146516723Y-82414285D02*
X146611961Y-82461904D01*
X146611961Y-82461904D02*
X146707200Y-82557142D01*
X146707200Y-82557142D02*
X146754819Y-82699999D01*
X146754819Y-82699999D02*
X146754819Y-82938094D01*
X145754819Y-82033332D02*
X145754819Y-81414285D01*
X145754819Y-81414285D02*
X146135771Y-81747618D01*
X146135771Y-81747618D02*
X146135771Y-81604761D01*
X146135771Y-81604761D02*
X146183390Y-81509523D01*
X146183390Y-81509523D02*
X146231009Y-81461904D01*
X146231009Y-81461904D02*
X146326247Y-81414285D01*
X146326247Y-81414285D02*
X146564342Y-81414285D01*
X146564342Y-81414285D02*
X146659580Y-81461904D01*
X146659580Y-81461904D02*
X146707200Y-81509523D01*
X146707200Y-81509523D02*
X146754819Y-81604761D01*
X146754819Y-81604761D02*
X146754819Y-81890475D01*
X146754819Y-81890475D02*
X146707200Y-81985713D01*
X146707200Y-81985713D02*
X146659580Y-82033332D01*
X113578609Y-73204819D02*
X113245276Y-72728628D01*
X113007181Y-73204819D02*
X113007181Y-72204819D01*
X113007181Y-72204819D02*
X113388133Y-72204819D01*
X113388133Y-72204819D02*
X113483371Y-72252438D01*
X113483371Y-72252438D02*
X113530990Y-72300057D01*
X113530990Y-72300057D02*
X113578609Y-72395295D01*
X113578609Y-72395295D02*
X113578609Y-72538152D01*
X113578609Y-72538152D02*
X113530990Y-72633390D01*
X113530990Y-72633390D02*
X113483371Y-72681009D01*
X113483371Y-72681009D02*
X113388133Y-72728628D01*
X113388133Y-72728628D02*
X113007181Y-72728628D01*
X114054800Y-73204819D02*
X114245276Y-73204819D01*
X114245276Y-73204819D02*
X114340514Y-73157200D01*
X114340514Y-73157200D02*
X114388133Y-73109580D01*
X114388133Y-73109580D02*
X114483371Y-72966723D01*
X114483371Y-72966723D02*
X114530990Y-72776247D01*
X114530990Y-72776247D02*
X114530990Y-72395295D01*
X114530990Y-72395295D02*
X114483371Y-72300057D01*
X114483371Y-72300057D02*
X114435752Y-72252438D01*
X114435752Y-72252438D02*
X114340514Y-72204819D01*
X114340514Y-72204819D02*
X114150038Y-72204819D01*
X114150038Y-72204819D02*
X114054800Y-72252438D01*
X114054800Y-72252438D02*
X114007181Y-72300057D01*
X114007181Y-72300057D02*
X113959562Y-72395295D01*
X113959562Y-72395295D02*
X113959562Y-72633390D01*
X113959562Y-72633390D02*
X114007181Y-72728628D01*
X114007181Y-72728628D02*
X114054800Y-72776247D01*
X114054800Y-72776247D02*
X114150038Y-72823866D01*
X114150038Y-72823866D02*
X114340514Y-72823866D01*
X114340514Y-72823866D02*
X114435752Y-72776247D01*
X114435752Y-72776247D02*
X114483371Y-72728628D01*
X114483371Y-72728628D02*
X114530990Y-72633390D01*
X102333333Y-99359580D02*
X102285714Y-99407200D01*
X102285714Y-99407200D02*
X102142857Y-99454819D01*
X102142857Y-99454819D02*
X102047619Y-99454819D01*
X102047619Y-99454819D02*
X101904762Y-99407200D01*
X101904762Y-99407200D02*
X101809524Y-99311961D01*
X101809524Y-99311961D02*
X101761905Y-99216723D01*
X101761905Y-99216723D02*
X101714286Y-99026247D01*
X101714286Y-99026247D02*
X101714286Y-98883390D01*
X101714286Y-98883390D02*
X101761905Y-98692914D01*
X101761905Y-98692914D02*
X101809524Y-98597676D01*
X101809524Y-98597676D02*
X101904762Y-98502438D01*
X101904762Y-98502438D02*
X102047619Y-98454819D01*
X102047619Y-98454819D02*
X102142857Y-98454819D01*
X102142857Y-98454819D02*
X102285714Y-98502438D01*
X102285714Y-98502438D02*
X102333333Y-98550057D01*
X102714286Y-98550057D02*
X102761905Y-98502438D01*
X102761905Y-98502438D02*
X102857143Y-98454819D01*
X102857143Y-98454819D02*
X103095238Y-98454819D01*
X103095238Y-98454819D02*
X103190476Y-98502438D01*
X103190476Y-98502438D02*
X103238095Y-98550057D01*
X103238095Y-98550057D02*
X103285714Y-98645295D01*
X103285714Y-98645295D02*
X103285714Y-98740533D01*
X103285714Y-98740533D02*
X103238095Y-98883390D01*
X103238095Y-98883390D02*
X102666667Y-99454819D01*
X102666667Y-99454819D02*
X103285714Y-99454819D01*
X98083333Y-85459580D02*
X98035714Y-85507200D01*
X98035714Y-85507200D02*
X97892857Y-85554819D01*
X97892857Y-85554819D02*
X97797619Y-85554819D01*
X97797619Y-85554819D02*
X97654762Y-85507200D01*
X97654762Y-85507200D02*
X97559524Y-85411961D01*
X97559524Y-85411961D02*
X97511905Y-85316723D01*
X97511905Y-85316723D02*
X97464286Y-85126247D01*
X97464286Y-85126247D02*
X97464286Y-84983390D01*
X97464286Y-84983390D02*
X97511905Y-84792914D01*
X97511905Y-84792914D02*
X97559524Y-84697676D01*
X97559524Y-84697676D02*
X97654762Y-84602438D01*
X97654762Y-84602438D02*
X97797619Y-84554819D01*
X97797619Y-84554819D02*
X97892857Y-84554819D01*
X97892857Y-84554819D02*
X98035714Y-84602438D01*
X98035714Y-84602438D02*
X98083333Y-84650057D01*
X98988095Y-84554819D02*
X98511905Y-84554819D01*
X98511905Y-84554819D02*
X98464286Y-85031009D01*
X98464286Y-85031009D02*
X98511905Y-84983390D01*
X98511905Y-84983390D02*
X98607143Y-84935771D01*
X98607143Y-84935771D02*
X98845238Y-84935771D01*
X98845238Y-84935771D02*
X98940476Y-84983390D01*
X98940476Y-84983390D02*
X98988095Y-85031009D01*
X98988095Y-85031009D02*
X99035714Y-85126247D01*
X99035714Y-85126247D02*
X99035714Y-85364342D01*
X99035714Y-85364342D02*
X98988095Y-85459580D01*
X98988095Y-85459580D02*
X98940476Y-85507200D01*
X98940476Y-85507200D02*
X98845238Y-85554819D01*
X98845238Y-85554819D02*
X98607143Y-85554819D01*
X98607143Y-85554819D02*
X98511905Y-85507200D01*
X98511905Y-85507200D02*
X98464286Y-85459580D01*
X131157142Y-75684819D02*
X130823809Y-75208628D01*
X130585714Y-75684819D02*
X130585714Y-74684819D01*
X130585714Y-74684819D02*
X130966666Y-74684819D01*
X130966666Y-74684819D02*
X131061904Y-74732438D01*
X131061904Y-74732438D02*
X131109523Y-74780057D01*
X131109523Y-74780057D02*
X131157142Y-74875295D01*
X131157142Y-74875295D02*
X131157142Y-75018152D01*
X131157142Y-75018152D02*
X131109523Y-75113390D01*
X131109523Y-75113390D02*
X131061904Y-75161009D01*
X131061904Y-75161009D02*
X130966666Y-75208628D01*
X130966666Y-75208628D02*
X130585714Y-75208628D01*
X131538095Y-74780057D02*
X131585714Y-74732438D01*
X131585714Y-74732438D02*
X131680952Y-74684819D01*
X131680952Y-74684819D02*
X131919047Y-74684819D01*
X131919047Y-74684819D02*
X132014285Y-74732438D01*
X132014285Y-74732438D02*
X132061904Y-74780057D01*
X132061904Y-74780057D02*
X132109523Y-74875295D01*
X132109523Y-74875295D02*
X132109523Y-74970533D01*
X132109523Y-74970533D02*
X132061904Y-75113390D01*
X132061904Y-75113390D02*
X131490476Y-75684819D01*
X131490476Y-75684819D02*
X132109523Y-75684819D01*
X133014285Y-74684819D02*
X132538095Y-74684819D01*
X132538095Y-74684819D02*
X132490476Y-75161009D01*
X132490476Y-75161009D02*
X132538095Y-75113390D01*
X132538095Y-75113390D02*
X132633333Y-75065771D01*
X132633333Y-75065771D02*
X132871428Y-75065771D01*
X132871428Y-75065771D02*
X132966666Y-75113390D01*
X132966666Y-75113390D02*
X133014285Y-75161009D01*
X133014285Y-75161009D02*
X133061904Y-75256247D01*
X133061904Y-75256247D02*
X133061904Y-75494342D01*
X133061904Y-75494342D02*
X133014285Y-75589580D01*
X133014285Y-75589580D02*
X132966666Y-75637200D01*
X132966666Y-75637200D02*
X132871428Y-75684819D01*
X132871428Y-75684819D02*
X132633333Y-75684819D01*
X132633333Y-75684819D02*
X132538095Y-75637200D01*
X132538095Y-75637200D02*
X132490476Y-75589580D01*
X96838095Y-81454819D02*
X96838095Y-82264342D01*
X96838095Y-82264342D02*
X96885714Y-82359580D01*
X96885714Y-82359580D02*
X96933333Y-82407200D01*
X96933333Y-82407200D02*
X97028571Y-82454819D01*
X97028571Y-82454819D02*
X97219047Y-82454819D01*
X97219047Y-82454819D02*
X97314285Y-82407200D01*
X97314285Y-82407200D02*
X97361904Y-82359580D01*
X97361904Y-82359580D02*
X97409523Y-82264342D01*
X97409523Y-82264342D02*
X97409523Y-81454819D01*
X97933333Y-82454819D02*
X98123809Y-82454819D01*
X98123809Y-82454819D02*
X98219047Y-82407200D01*
X98219047Y-82407200D02*
X98266666Y-82359580D01*
X98266666Y-82359580D02*
X98361904Y-82216723D01*
X98361904Y-82216723D02*
X98409523Y-82026247D01*
X98409523Y-82026247D02*
X98409523Y-81645295D01*
X98409523Y-81645295D02*
X98361904Y-81550057D01*
X98361904Y-81550057D02*
X98314285Y-81502438D01*
X98314285Y-81502438D02*
X98219047Y-81454819D01*
X98219047Y-81454819D02*
X98028571Y-81454819D01*
X98028571Y-81454819D02*
X97933333Y-81502438D01*
X97933333Y-81502438D02*
X97885714Y-81550057D01*
X97885714Y-81550057D02*
X97838095Y-81645295D01*
X97838095Y-81645295D02*
X97838095Y-81883390D01*
X97838095Y-81883390D02*
X97885714Y-81978628D01*
X97885714Y-81978628D02*
X97933333Y-82026247D01*
X97933333Y-82026247D02*
X98028571Y-82073866D01*
X98028571Y-82073866D02*
X98219047Y-82073866D01*
X98219047Y-82073866D02*
X98314285Y-82026247D01*
X98314285Y-82026247D02*
X98361904Y-81978628D01*
X98361904Y-81978628D02*
X98409523Y-81883390D01*
X137804761Y-85550057D02*
X137709523Y-85502438D01*
X137709523Y-85502438D02*
X137614285Y-85407200D01*
X137614285Y-85407200D02*
X137471428Y-85264342D01*
X137471428Y-85264342D02*
X137376190Y-85216723D01*
X137376190Y-85216723D02*
X137280952Y-85216723D01*
X137328571Y-85454819D02*
X137233333Y-85407200D01*
X137233333Y-85407200D02*
X137138095Y-85311961D01*
X137138095Y-85311961D02*
X137090476Y-85121485D01*
X137090476Y-85121485D02*
X137090476Y-84788152D01*
X137090476Y-84788152D02*
X137138095Y-84597676D01*
X137138095Y-84597676D02*
X137233333Y-84502438D01*
X137233333Y-84502438D02*
X137328571Y-84454819D01*
X137328571Y-84454819D02*
X137519047Y-84454819D01*
X137519047Y-84454819D02*
X137614285Y-84502438D01*
X137614285Y-84502438D02*
X137709523Y-84597676D01*
X137709523Y-84597676D02*
X137757142Y-84788152D01*
X137757142Y-84788152D02*
X137757142Y-85121485D01*
X137757142Y-85121485D02*
X137709523Y-85311961D01*
X137709523Y-85311961D02*
X137614285Y-85407200D01*
X137614285Y-85407200D02*
X137519047Y-85454819D01*
X137519047Y-85454819D02*
X137328571Y-85454819D01*
X138138095Y-84550057D02*
X138185714Y-84502438D01*
X138185714Y-84502438D02*
X138280952Y-84454819D01*
X138280952Y-84454819D02*
X138519047Y-84454819D01*
X138519047Y-84454819D02*
X138614285Y-84502438D01*
X138614285Y-84502438D02*
X138661904Y-84550057D01*
X138661904Y-84550057D02*
X138709523Y-84645295D01*
X138709523Y-84645295D02*
X138709523Y-84740533D01*
X138709523Y-84740533D02*
X138661904Y-84883390D01*
X138661904Y-84883390D02*
X138090476Y-85454819D01*
X138090476Y-85454819D02*
X138709523Y-85454819D01*
X138554819Y-74642857D02*
X138078628Y-74976190D01*
X138554819Y-75214285D02*
X137554819Y-75214285D01*
X137554819Y-75214285D02*
X137554819Y-74833333D01*
X137554819Y-74833333D02*
X137602438Y-74738095D01*
X137602438Y-74738095D02*
X137650057Y-74690476D01*
X137650057Y-74690476D02*
X137745295Y-74642857D01*
X137745295Y-74642857D02*
X137888152Y-74642857D01*
X137888152Y-74642857D02*
X137983390Y-74690476D01*
X137983390Y-74690476D02*
X138031009Y-74738095D01*
X138031009Y-74738095D02*
X138078628Y-74833333D01*
X138078628Y-74833333D02*
X138078628Y-75214285D01*
X137554819Y-74309523D02*
X137554819Y-73690476D01*
X137554819Y-73690476D02*
X137935771Y-74023809D01*
X137935771Y-74023809D02*
X137935771Y-73880952D01*
X137935771Y-73880952D02*
X137983390Y-73785714D01*
X137983390Y-73785714D02*
X138031009Y-73738095D01*
X138031009Y-73738095D02*
X138126247Y-73690476D01*
X138126247Y-73690476D02*
X138364342Y-73690476D01*
X138364342Y-73690476D02*
X138459580Y-73738095D01*
X138459580Y-73738095D02*
X138507200Y-73785714D01*
X138507200Y-73785714D02*
X138554819Y-73880952D01*
X138554819Y-73880952D02*
X138554819Y-74166666D01*
X138554819Y-74166666D02*
X138507200Y-74261904D01*
X138507200Y-74261904D02*
X138459580Y-74309523D01*
X138554819Y-73214285D02*
X138554819Y-73023809D01*
X138554819Y-73023809D02*
X138507200Y-72928571D01*
X138507200Y-72928571D02*
X138459580Y-72880952D01*
X138459580Y-72880952D02*
X138316723Y-72785714D01*
X138316723Y-72785714D02*
X138126247Y-72738095D01*
X138126247Y-72738095D02*
X137745295Y-72738095D01*
X137745295Y-72738095D02*
X137650057Y-72785714D01*
X137650057Y-72785714D02*
X137602438Y-72833333D01*
X137602438Y-72833333D02*
X137554819Y-72928571D01*
X137554819Y-72928571D02*
X137554819Y-73119047D01*
X137554819Y-73119047D02*
X137602438Y-73214285D01*
X137602438Y-73214285D02*
X137650057Y-73261904D01*
X137650057Y-73261904D02*
X137745295Y-73309523D01*
X137745295Y-73309523D02*
X137983390Y-73309523D01*
X137983390Y-73309523D02*
X138078628Y-73261904D01*
X138078628Y-73261904D02*
X138126247Y-73214285D01*
X138126247Y-73214285D02*
X138173866Y-73119047D01*
X138173866Y-73119047D02*
X138173866Y-72928571D01*
X138173866Y-72928571D02*
X138126247Y-72833333D01*
X138126247Y-72833333D02*
X138078628Y-72785714D01*
X138078628Y-72785714D02*
X137983390Y-72738095D01*
X108833333Y-92609580D02*
X108785714Y-92657200D01*
X108785714Y-92657200D02*
X108642857Y-92704819D01*
X108642857Y-92704819D02*
X108547619Y-92704819D01*
X108547619Y-92704819D02*
X108404762Y-92657200D01*
X108404762Y-92657200D02*
X108309524Y-92561961D01*
X108309524Y-92561961D02*
X108261905Y-92466723D01*
X108261905Y-92466723D02*
X108214286Y-92276247D01*
X108214286Y-92276247D02*
X108214286Y-92133390D01*
X108214286Y-92133390D02*
X108261905Y-91942914D01*
X108261905Y-91942914D02*
X108309524Y-91847676D01*
X108309524Y-91847676D02*
X108404762Y-91752438D01*
X108404762Y-91752438D02*
X108547619Y-91704819D01*
X108547619Y-91704819D02*
X108642857Y-91704819D01*
X108642857Y-91704819D02*
X108785714Y-91752438D01*
X108785714Y-91752438D02*
X108833333Y-91800057D01*
X109166667Y-91704819D02*
X109833333Y-91704819D01*
X109833333Y-91704819D02*
X109404762Y-92704819D01*
X99083333Y-66204819D02*
X98607143Y-66204819D01*
X98607143Y-66204819D02*
X98607143Y-65204819D01*
X99369048Y-65300057D02*
X99416667Y-65252438D01*
X99416667Y-65252438D02*
X99511905Y-65204819D01*
X99511905Y-65204819D02*
X99750000Y-65204819D01*
X99750000Y-65204819D02*
X99845238Y-65252438D01*
X99845238Y-65252438D02*
X99892857Y-65300057D01*
X99892857Y-65300057D02*
X99940476Y-65395295D01*
X99940476Y-65395295D02*
X99940476Y-65490533D01*
X99940476Y-65490533D02*
X99892857Y-65633390D01*
X99892857Y-65633390D02*
X99321429Y-66204819D01*
X99321429Y-66204819D02*
X99940476Y-66204819D01*
X122459580Y-96166666D02*
X122507200Y-96214285D01*
X122507200Y-96214285D02*
X122554819Y-96357142D01*
X122554819Y-96357142D02*
X122554819Y-96452380D01*
X122554819Y-96452380D02*
X122507200Y-96595237D01*
X122507200Y-96595237D02*
X122411961Y-96690475D01*
X122411961Y-96690475D02*
X122316723Y-96738094D01*
X122316723Y-96738094D02*
X122126247Y-96785713D01*
X122126247Y-96785713D02*
X121983390Y-96785713D01*
X121983390Y-96785713D02*
X121792914Y-96738094D01*
X121792914Y-96738094D02*
X121697676Y-96690475D01*
X121697676Y-96690475D02*
X121602438Y-96595237D01*
X121602438Y-96595237D02*
X121554819Y-96452380D01*
X121554819Y-96452380D02*
X121554819Y-96357142D01*
X121554819Y-96357142D02*
X121602438Y-96214285D01*
X121602438Y-96214285D02*
X121650057Y-96166666D01*
X121554819Y-95833332D02*
X121554819Y-95214285D01*
X121554819Y-95214285D02*
X121935771Y-95547618D01*
X121935771Y-95547618D02*
X121935771Y-95404761D01*
X121935771Y-95404761D02*
X121983390Y-95309523D01*
X121983390Y-95309523D02*
X122031009Y-95261904D01*
X122031009Y-95261904D02*
X122126247Y-95214285D01*
X122126247Y-95214285D02*
X122364342Y-95214285D01*
X122364342Y-95214285D02*
X122459580Y-95261904D01*
X122459580Y-95261904D02*
X122507200Y-95309523D01*
X122507200Y-95309523D02*
X122554819Y-95404761D01*
X122554819Y-95404761D02*
X122554819Y-95690475D01*
X122554819Y-95690475D02*
X122507200Y-95785713D01*
X122507200Y-95785713D02*
X122459580Y-95833332D01*
X148154819Y-62138094D02*
X147154819Y-62138094D01*
X147154819Y-62138094D02*
X147154819Y-61899999D01*
X147154819Y-61899999D02*
X147202438Y-61757142D01*
X147202438Y-61757142D02*
X147297676Y-61661904D01*
X147297676Y-61661904D02*
X147392914Y-61614285D01*
X147392914Y-61614285D02*
X147583390Y-61566666D01*
X147583390Y-61566666D02*
X147726247Y-61566666D01*
X147726247Y-61566666D02*
X147916723Y-61614285D01*
X147916723Y-61614285D02*
X148011961Y-61661904D01*
X148011961Y-61661904D02*
X148107200Y-61757142D01*
X148107200Y-61757142D02*
X148154819Y-61899999D01*
X148154819Y-61899999D02*
X148154819Y-62138094D01*
X147154819Y-60709523D02*
X147154819Y-60899999D01*
X147154819Y-60899999D02*
X147202438Y-60995237D01*
X147202438Y-60995237D02*
X147250057Y-61042856D01*
X147250057Y-61042856D02*
X147392914Y-61138094D01*
X147392914Y-61138094D02*
X147583390Y-61185713D01*
X147583390Y-61185713D02*
X147964342Y-61185713D01*
X147964342Y-61185713D02*
X148059580Y-61138094D01*
X148059580Y-61138094D02*
X148107200Y-61090475D01*
X148107200Y-61090475D02*
X148154819Y-60995237D01*
X148154819Y-60995237D02*
X148154819Y-60804761D01*
X148154819Y-60804761D02*
X148107200Y-60709523D01*
X148107200Y-60709523D02*
X148059580Y-60661904D01*
X148059580Y-60661904D02*
X147964342Y-60614285D01*
X147964342Y-60614285D02*
X147726247Y-60614285D01*
X147726247Y-60614285D02*
X147631009Y-60661904D01*
X147631009Y-60661904D02*
X147583390Y-60709523D01*
X147583390Y-60709523D02*
X147535771Y-60804761D01*
X147535771Y-60804761D02*
X147535771Y-60995237D01*
X147535771Y-60995237D02*
X147583390Y-61090475D01*
X147583390Y-61090475D02*
X147631009Y-61138094D01*
X147631009Y-61138094D02*
X147726247Y-61185713D01*
X129916666Y-75204819D02*
X129916666Y-75919104D01*
X129916666Y-75919104D02*
X129869047Y-76061961D01*
X129869047Y-76061961D02*
X129773809Y-76157200D01*
X129773809Y-76157200D02*
X129630952Y-76204819D01*
X129630952Y-76204819D02*
X129535714Y-76204819D01*
X130345238Y-75300057D02*
X130392857Y-75252438D01*
X130392857Y-75252438D02*
X130488095Y-75204819D01*
X130488095Y-75204819D02*
X130726190Y-75204819D01*
X130726190Y-75204819D02*
X130821428Y-75252438D01*
X130821428Y-75252438D02*
X130869047Y-75300057D01*
X130869047Y-75300057D02*
X130916666Y-75395295D01*
X130916666Y-75395295D02*
X130916666Y-75490533D01*
X130916666Y-75490533D02*
X130869047Y-75633390D01*
X130869047Y-75633390D02*
X130297619Y-76204819D01*
X130297619Y-76204819D02*
X130916666Y-76204819D01*
X118609580Y-96166666D02*
X118657200Y-96214285D01*
X118657200Y-96214285D02*
X118704819Y-96357142D01*
X118704819Y-96357142D02*
X118704819Y-96452380D01*
X118704819Y-96452380D02*
X118657200Y-96595237D01*
X118657200Y-96595237D02*
X118561961Y-96690475D01*
X118561961Y-96690475D02*
X118466723Y-96738094D01*
X118466723Y-96738094D02*
X118276247Y-96785713D01*
X118276247Y-96785713D02*
X118133390Y-96785713D01*
X118133390Y-96785713D02*
X117942914Y-96738094D01*
X117942914Y-96738094D02*
X117847676Y-96690475D01*
X117847676Y-96690475D02*
X117752438Y-96595237D01*
X117752438Y-96595237D02*
X117704819Y-96452380D01*
X117704819Y-96452380D02*
X117704819Y-96357142D01*
X117704819Y-96357142D02*
X117752438Y-96214285D01*
X117752438Y-96214285D02*
X117800057Y-96166666D01*
X118038152Y-95309523D02*
X118704819Y-95309523D01*
X117657200Y-95547618D02*
X118371485Y-95785713D01*
X118371485Y-95785713D02*
X118371485Y-95166666D01*
X136754819Y-71442857D02*
X136278628Y-71776190D01*
X136754819Y-72014285D02*
X135754819Y-72014285D01*
X135754819Y-72014285D02*
X135754819Y-71633333D01*
X135754819Y-71633333D02*
X135802438Y-71538095D01*
X135802438Y-71538095D02*
X135850057Y-71490476D01*
X135850057Y-71490476D02*
X135945295Y-71442857D01*
X135945295Y-71442857D02*
X136088152Y-71442857D01*
X136088152Y-71442857D02*
X136183390Y-71490476D01*
X136183390Y-71490476D02*
X136231009Y-71538095D01*
X136231009Y-71538095D02*
X136278628Y-71633333D01*
X136278628Y-71633333D02*
X136278628Y-72014285D01*
X135754819Y-71109523D02*
X135754819Y-70490476D01*
X135754819Y-70490476D02*
X136135771Y-70823809D01*
X136135771Y-70823809D02*
X136135771Y-70680952D01*
X136135771Y-70680952D02*
X136183390Y-70585714D01*
X136183390Y-70585714D02*
X136231009Y-70538095D01*
X136231009Y-70538095D02*
X136326247Y-70490476D01*
X136326247Y-70490476D02*
X136564342Y-70490476D01*
X136564342Y-70490476D02*
X136659580Y-70538095D01*
X136659580Y-70538095D02*
X136707200Y-70585714D01*
X136707200Y-70585714D02*
X136754819Y-70680952D01*
X136754819Y-70680952D02*
X136754819Y-70966666D01*
X136754819Y-70966666D02*
X136707200Y-71061904D01*
X136707200Y-71061904D02*
X136659580Y-71109523D01*
X135754819Y-69585714D02*
X135754819Y-70061904D01*
X135754819Y-70061904D02*
X136231009Y-70109523D01*
X136231009Y-70109523D02*
X136183390Y-70061904D01*
X136183390Y-70061904D02*
X136135771Y-69966666D01*
X136135771Y-69966666D02*
X136135771Y-69728571D01*
X136135771Y-69728571D02*
X136183390Y-69633333D01*
X136183390Y-69633333D02*
X136231009Y-69585714D01*
X136231009Y-69585714D02*
X136326247Y-69538095D01*
X136326247Y-69538095D02*
X136564342Y-69538095D01*
X136564342Y-69538095D02*
X136659580Y-69585714D01*
X136659580Y-69585714D02*
X136707200Y-69633333D01*
X136707200Y-69633333D02*
X136754819Y-69728571D01*
X136754819Y-69728571D02*
X136754819Y-69966666D01*
X136754819Y-69966666D02*
X136707200Y-70061904D01*
X136707200Y-70061904D02*
X136659580Y-70109523D01*
X139457142Y-75454819D02*
X139123809Y-74978628D01*
X138885714Y-75454819D02*
X138885714Y-74454819D01*
X138885714Y-74454819D02*
X139266666Y-74454819D01*
X139266666Y-74454819D02*
X139361904Y-74502438D01*
X139361904Y-74502438D02*
X139409523Y-74550057D01*
X139409523Y-74550057D02*
X139457142Y-74645295D01*
X139457142Y-74645295D02*
X139457142Y-74788152D01*
X139457142Y-74788152D02*
X139409523Y-74883390D01*
X139409523Y-74883390D02*
X139361904Y-74931009D01*
X139361904Y-74931009D02*
X139266666Y-74978628D01*
X139266666Y-74978628D02*
X138885714Y-74978628D01*
X139790476Y-74454819D02*
X140409523Y-74454819D01*
X140409523Y-74454819D02*
X140076190Y-74835771D01*
X140076190Y-74835771D02*
X140219047Y-74835771D01*
X140219047Y-74835771D02*
X140314285Y-74883390D01*
X140314285Y-74883390D02*
X140361904Y-74931009D01*
X140361904Y-74931009D02*
X140409523Y-75026247D01*
X140409523Y-75026247D02*
X140409523Y-75264342D01*
X140409523Y-75264342D02*
X140361904Y-75359580D01*
X140361904Y-75359580D02*
X140314285Y-75407200D01*
X140314285Y-75407200D02*
X140219047Y-75454819D01*
X140219047Y-75454819D02*
X139933333Y-75454819D01*
X139933333Y-75454819D02*
X139838095Y-75407200D01*
X139838095Y-75407200D02*
X139790476Y-75359580D01*
X140742857Y-74454819D02*
X141409523Y-74454819D01*
X141409523Y-74454819D02*
X140980952Y-75454819D01*
X137857142Y-77054819D02*
X137523809Y-76578628D01*
X137285714Y-77054819D02*
X137285714Y-76054819D01*
X137285714Y-76054819D02*
X137666666Y-76054819D01*
X137666666Y-76054819D02*
X137761904Y-76102438D01*
X137761904Y-76102438D02*
X137809523Y-76150057D01*
X137809523Y-76150057D02*
X137857142Y-76245295D01*
X137857142Y-76245295D02*
X137857142Y-76388152D01*
X137857142Y-76388152D02*
X137809523Y-76483390D01*
X137809523Y-76483390D02*
X137761904Y-76531009D01*
X137761904Y-76531009D02*
X137666666Y-76578628D01*
X137666666Y-76578628D02*
X137285714Y-76578628D01*
X138809523Y-77054819D02*
X138238095Y-77054819D01*
X138523809Y-77054819D02*
X138523809Y-76054819D01*
X138523809Y-76054819D02*
X138428571Y-76197676D01*
X138428571Y-76197676D02*
X138333333Y-76292914D01*
X138333333Y-76292914D02*
X138238095Y-76340533D01*
X139666666Y-76388152D02*
X139666666Y-77054819D01*
X139428571Y-76007200D02*
X139190476Y-76721485D01*
X139190476Y-76721485D02*
X139809523Y-76721485D01*
X142154819Y-70238094D02*
X142964342Y-70238094D01*
X142964342Y-70238094D02*
X143059580Y-70190475D01*
X143059580Y-70190475D02*
X143107200Y-70142856D01*
X143107200Y-70142856D02*
X143154819Y-70047618D01*
X143154819Y-70047618D02*
X143154819Y-69857142D01*
X143154819Y-69857142D02*
X143107200Y-69761904D01*
X143107200Y-69761904D02*
X143059580Y-69714285D01*
X143059580Y-69714285D02*
X142964342Y-69666666D01*
X142964342Y-69666666D02*
X142154819Y-69666666D01*
X143154819Y-68666666D02*
X143154819Y-69238094D01*
X143154819Y-68952380D02*
X142154819Y-68952380D01*
X142154819Y-68952380D02*
X142297676Y-69047618D01*
X142297676Y-69047618D02*
X142392914Y-69142856D01*
X142392914Y-69142856D02*
X142440533Y-69238094D01*
X143154819Y-67714285D02*
X143154819Y-68285713D01*
X143154819Y-67999999D02*
X142154819Y-67999999D01*
X142154819Y-67999999D02*
X142297676Y-68095237D01*
X142297676Y-68095237D02*
X142392914Y-68190475D01*
X142392914Y-68190475D02*
X142440533Y-68285713D01*
X145657142Y-75824819D02*
X145323809Y-75348628D01*
X145085714Y-75824819D02*
X145085714Y-74824819D01*
X145085714Y-74824819D02*
X145466666Y-74824819D01*
X145466666Y-74824819D02*
X145561904Y-74872438D01*
X145561904Y-74872438D02*
X145609523Y-74920057D01*
X145609523Y-74920057D02*
X145657142Y-75015295D01*
X145657142Y-75015295D02*
X145657142Y-75158152D01*
X145657142Y-75158152D02*
X145609523Y-75253390D01*
X145609523Y-75253390D02*
X145561904Y-75301009D01*
X145561904Y-75301009D02*
X145466666Y-75348628D01*
X145466666Y-75348628D02*
X145085714Y-75348628D01*
X146609523Y-75824819D02*
X146038095Y-75824819D01*
X146323809Y-75824819D02*
X146323809Y-74824819D01*
X146323809Y-74824819D02*
X146228571Y-74967676D01*
X146228571Y-74967676D02*
X146133333Y-75062914D01*
X146133333Y-75062914D02*
X146038095Y-75110533D01*
X147514285Y-74824819D02*
X147038095Y-74824819D01*
X147038095Y-74824819D02*
X146990476Y-75301009D01*
X146990476Y-75301009D02*
X147038095Y-75253390D01*
X147038095Y-75253390D02*
X147133333Y-75205771D01*
X147133333Y-75205771D02*
X147371428Y-75205771D01*
X147371428Y-75205771D02*
X147466666Y-75253390D01*
X147466666Y-75253390D02*
X147514285Y-75301009D01*
X147514285Y-75301009D02*
X147561904Y-75396247D01*
X147561904Y-75396247D02*
X147561904Y-75634342D01*
X147561904Y-75634342D02*
X147514285Y-75729580D01*
X147514285Y-75729580D02*
X147466666Y-75777200D01*
X147466666Y-75777200D02*
X147371428Y-75824819D01*
X147371428Y-75824819D02*
X147133333Y-75824819D01*
X147133333Y-75824819D02*
X147038095Y-75777200D01*
X147038095Y-75777200D02*
X146990476Y-75729580D01*
X122857142Y-60459580D02*
X122809523Y-60507200D01*
X122809523Y-60507200D02*
X122666666Y-60554819D01*
X122666666Y-60554819D02*
X122571428Y-60554819D01*
X122571428Y-60554819D02*
X122428571Y-60507200D01*
X122428571Y-60507200D02*
X122333333Y-60411961D01*
X122333333Y-60411961D02*
X122285714Y-60316723D01*
X122285714Y-60316723D02*
X122238095Y-60126247D01*
X122238095Y-60126247D02*
X122238095Y-59983390D01*
X122238095Y-59983390D02*
X122285714Y-59792914D01*
X122285714Y-59792914D02*
X122333333Y-59697676D01*
X122333333Y-59697676D02*
X122428571Y-59602438D01*
X122428571Y-59602438D02*
X122571428Y-59554819D01*
X122571428Y-59554819D02*
X122666666Y-59554819D01*
X122666666Y-59554819D02*
X122809523Y-59602438D01*
X122809523Y-59602438D02*
X122857142Y-59650057D01*
X123809523Y-60554819D02*
X123238095Y-60554819D01*
X123523809Y-60554819D02*
X123523809Y-59554819D01*
X123523809Y-59554819D02*
X123428571Y-59697676D01*
X123428571Y-59697676D02*
X123333333Y-59792914D01*
X123333333Y-59792914D02*
X123238095Y-59840533D01*
X124666666Y-59554819D02*
X124476190Y-59554819D01*
X124476190Y-59554819D02*
X124380952Y-59602438D01*
X124380952Y-59602438D02*
X124333333Y-59650057D01*
X124333333Y-59650057D02*
X124238095Y-59792914D01*
X124238095Y-59792914D02*
X124190476Y-59983390D01*
X124190476Y-59983390D02*
X124190476Y-60364342D01*
X124190476Y-60364342D02*
X124238095Y-60459580D01*
X124238095Y-60459580D02*
X124285714Y-60507200D01*
X124285714Y-60507200D02*
X124380952Y-60554819D01*
X124380952Y-60554819D02*
X124571428Y-60554819D01*
X124571428Y-60554819D02*
X124666666Y-60507200D01*
X124666666Y-60507200D02*
X124714285Y-60459580D01*
X124714285Y-60459580D02*
X124761904Y-60364342D01*
X124761904Y-60364342D02*
X124761904Y-60126247D01*
X124761904Y-60126247D02*
X124714285Y-60031009D01*
X124714285Y-60031009D02*
X124666666Y-59983390D01*
X124666666Y-59983390D02*
X124571428Y-59935771D01*
X124571428Y-59935771D02*
X124380952Y-59935771D01*
X124380952Y-59935771D02*
X124285714Y-59983390D01*
X124285714Y-59983390D02*
X124238095Y-60031009D01*
X124238095Y-60031009D02*
X124190476Y-60126247D01*
X94859580Y-66392857D02*
X94907200Y-66440476D01*
X94907200Y-66440476D02*
X94954819Y-66583333D01*
X94954819Y-66583333D02*
X94954819Y-66678571D01*
X94954819Y-66678571D02*
X94907200Y-66821428D01*
X94907200Y-66821428D02*
X94811961Y-66916666D01*
X94811961Y-66916666D02*
X94716723Y-66964285D01*
X94716723Y-66964285D02*
X94526247Y-67011904D01*
X94526247Y-67011904D02*
X94383390Y-67011904D01*
X94383390Y-67011904D02*
X94192914Y-66964285D01*
X94192914Y-66964285D02*
X94097676Y-66916666D01*
X94097676Y-66916666D02*
X94002438Y-66821428D01*
X94002438Y-66821428D02*
X93954819Y-66678571D01*
X93954819Y-66678571D02*
X93954819Y-66583333D01*
X93954819Y-66583333D02*
X94002438Y-66440476D01*
X94002438Y-66440476D02*
X94050057Y-66392857D01*
X94954819Y-65440476D02*
X94954819Y-66011904D01*
X94954819Y-65726190D02*
X93954819Y-65726190D01*
X93954819Y-65726190D02*
X94097676Y-65821428D01*
X94097676Y-65821428D02*
X94192914Y-65916666D01*
X94192914Y-65916666D02*
X94240533Y-66011904D01*
X93954819Y-64535714D02*
X93954819Y-65011904D01*
X93954819Y-65011904D02*
X94431009Y-65059523D01*
X94431009Y-65059523D02*
X94383390Y-65011904D01*
X94383390Y-65011904D02*
X94335771Y-64916666D01*
X94335771Y-64916666D02*
X94335771Y-64678571D01*
X94335771Y-64678571D02*
X94383390Y-64583333D01*
X94383390Y-64583333D02*
X94431009Y-64535714D01*
X94431009Y-64535714D02*
X94526247Y-64488095D01*
X94526247Y-64488095D02*
X94764342Y-64488095D01*
X94764342Y-64488095D02*
X94859580Y-64535714D01*
X94859580Y-64535714D02*
X94907200Y-64583333D01*
X94907200Y-64583333D02*
X94954819Y-64678571D01*
X94954819Y-64678571D02*
X94954819Y-64916666D01*
X94954819Y-64916666D02*
X94907200Y-65011904D01*
X94907200Y-65011904D02*
X94859580Y-65059523D01*
X95254819Y-61642857D02*
X94778628Y-61976190D01*
X95254819Y-62214285D02*
X94254819Y-62214285D01*
X94254819Y-62214285D02*
X94254819Y-61833333D01*
X94254819Y-61833333D02*
X94302438Y-61738095D01*
X94302438Y-61738095D02*
X94350057Y-61690476D01*
X94350057Y-61690476D02*
X94445295Y-61642857D01*
X94445295Y-61642857D02*
X94588152Y-61642857D01*
X94588152Y-61642857D02*
X94683390Y-61690476D01*
X94683390Y-61690476D02*
X94731009Y-61738095D01*
X94731009Y-61738095D02*
X94778628Y-61833333D01*
X94778628Y-61833333D02*
X94778628Y-62214285D01*
X95254819Y-60690476D02*
X95254819Y-61261904D01*
X95254819Y-60976190D02*
X94254819Y-60976190D01*
X94254819Y-60976190D02*
X94397676Y-61071428D01*
X94397676Y-61071428D02*
X94492914Y-61166666D01*
X94492914Y-61166666D02*
X94540533Y-61261904D01*
X94683390Y-60119047D02*
X94635771Y-60214285D01*
X94635771Y-60214285D02*
X94588152Y-60261904D01*
X94588152Y-60261904D02*
X94492914Y-60309523D01*
X94492914Y-60309523D02*
X94445295Y-60309523D01*
X94445295Y-60309523D02*
X94350057Y-60261904D01*
X94350057Y-60261904D02*
X94302438Y-60214285D01*
X94302438Y-60214285D02*
X94254819Y-60119047D01*
X94254819Y-60119047D02*
X94254819Y-59928571D01*
X94254819Y-59928571D02*
X94302438Y-59833333D01*
X94302438Y-59833333D02*
X94350057Y-59785714D01*
X94350057Y-59785714D02*
X94445295Y-59738095D01*
X94445295Y-59738095D02*
X94492914Y-59738095D01*
X94492914Y-59738095D02*
X94588152Y-59785714D01*
X94588152Y-59785714D02*
X94635771Y-59833333D01*
X94635771Y-59833333D02*
X94683390Y-59928571D01*
X94683390Y-59928571D02*
X94683390Y-60119047D01*
X94683390Y-60119047D02*
X94731009Y-60214285D01*
X94731009Y-60214285D02*
X94778628Y-60261904D01*
X94778628Y-60261904D02*
X94873866Y-60309523D01*
X94873866Y-60309523D02*
X95064342Y-60309523D01*
X95064342Y-60309523D02*
X95159580Y-60261904D01*
X95159580Y-60261904D02*
X95207200Y-60214285D01*
X95207200Y-60214285D02*
X95254819Y-60119047D01*
X95254819Y-60119047D02*
X95254819Y-59928571D01*
X95254819Y-59928571D02*
X95207200Y-59833333D01*
X95207200Y-59833333D02*
X95159580Y-59785714D01*
X95159580Y-59785714D02*
X95064342Y-59738095D01*
X95064342Y-59738095D02*
X94873866Y-59738095D01*
X94873866Y-59738095D02*
X94778628Y-59785714D01*
X94778628Y-59785714D02*
X94731009Y-59833333D01*
X94731009Y-59833333D02*
X94683390Y-59928571D01*
X142285714Y-66054819D02*
X142285714Y-65054819D01*
X142285714Y-65054819D02*
X142523809Y-65054819D01*
X142523809Y-65054819D02*
X142666666Y-65102438D01*
X142666666Y-65102438D02*
X142761904Y-65197676D01*
X142761904Y-65197676D02*
X142809523Y-65292914D01*
X142809523Y-65292914D02*
X142857142Y-65483390D01*
X142857142Y-65483390D02*
X142857142Y-65626247D01*
X142857142Y-65626247D02*
X142809523Y-65816723D01*
X142809523Y-65816723D02*
X142761904Y-65911961D01*
X142761904Y-65911961D02*
X142666666Y-66007200D01*
X142666666Y-66007200D02*
X142523809Y-66054819D01*
X142523809Y-66054819D02*
X142285714Y-66054819D01*
X143809523Y-66054819D02*
X143238095Y-66054819D01*
X143523809Y-66054819D02*
X143523809Y-65054819D01*
X143523809Y-65054819D02*
X143428571Y-65197676D01*
X143428571Y-65197676D02*
X143333333Y-65292914D01*
X143333333Y-65292914D02*
X143238095Y-65340533D01*
X144190476Y-65150057D02*
X144238095Y-65102438D01*
X144238095Y-65102438D02*
X144333333Y-65054819D01*
X144333333Y-65054819D02*
X144571428Y-65054819D01*
X144571428Y-65054819D02*
X144666666Y-65102438D01*
X144666666Y-65102438D02*
X144714285Y-65150057D01*
X144714285Y-65150057D02*
X144761904Y-65245295D01*
X144761904Y-65245295D02*
X144761904Y-65340533D01*
X144761904Y-65340533D02*
X144714285Y-65483390D01*
X144714285Y-65483390D02*
X144142857Y-66054819D01*
X144142857Y-66054819D02*
X144761904Y-66054819D01*
X141004761Y-65550057D02*
X140909523Y-65502438D01*
X140909523Y-65502438D02*
X140814285Y-65407200D01*
X140814285Y-65407200D02*
X140671428Y-65264342D01*
X140671428Y-65264342D02*
X140576190Y-65216723D01*
X140576190Y-65216723D02*
X140480952Y-65216723D01*
X140528571Y-65454819D02*
X140433333Y-65407200D01*
X140433333Y-65407200D02*
X140338095Y-65311961D01*
X140338095Y-65311961D02*
X140290476Y-65121485D01*
X140290476Y-65121485D02*
X140290476Y-64788152D01*
X140290476Y-64788152D02*
X140338095Y-64597676D01*
X140338095Y-64597676D02*
X140433333Y-64502438D01*
X140433333Y-64502438D02*
X140528571Y-64454819D01*
X140528571Y-64454819D02*
X140719047Y-64454819D01*
X140719047Y-64454819D02*
X140814285Y-64502438D01*
X140814285Y-64502438D02*
X140909523Y-64597676D01*
X140909523Y-64597676D02*
X140957142Y-64788152D01*
X140957142Y-64788152D02*
X140957142Y-65121485D01*
X140957142Y-65121485D02*
X140909523Y-65311961D01*
X140909523Y-65311961D02*
X140814285Y-65407200D01*
X140814285Y-65407200D02*
X140719047Y-65454819D01*
X140719047Y-65454819D02*
X140528571Y-65454819D01*
X141290476Y-64454819D02*
X141957142Y-64454819D01*
X141957142Y-64454819D02*
X141528571Y-65454819D01*
X89333333Y-97959580D02*
X89285714Y-98007200D01*
X89285714Y-98007200D02*
X89142857Y-98054819D01*
X89142857Y-98054819D02*
X89047619Y-98054819D01*
X89047619Y-98054819D02*
X88904762Y-98007200D01*
X88904762Y-98007200D02*
X88809524Y-97911961D01*
X88809524Y-97911961D02*
X88761905Y-97816723D01*
X88761905Y-97816723D02*
X88714286Y-97626247D01*
X88714286Y-97626247D02*
X88714286Y-97483390D01*
X88714286Y-97483390D02*
X88761905Y-97292914D01*
X88761905Y-97292914D02*
X88809524Y-97197676D01*
X88809524Y-97197676D02*
X88904762Y-97102438D01*
X88904762Y-97102438D02*
X89047619Y-97054819D01*
X89047619Y-97054819D02*
X89142857Y-97054819D01*
X89142857Y-97054819D02*
X89285714Y-97102438D01*
X89285714Y-97102438D02*
X89333333Y-97150057D01*
X89809524Y-98054819D02*
X90000000Y-98054819D01*
X90000000Y-98054819D02*
X90095238Y-98007200D01*
X90095238Y-98007200D02*
X90142857Y-97959580D01*
X90142857Y-97959580D02*
X90238095Y-97816723D01*
X90238095Y-97816723D02*
X90285714Y-97626247D01*
X90285714Y-97626247D02*
X90285714Y-97245295D01*
X90285714Y-97245295D02*
X90238095Y-97150057D01*
X90238095Y-97150057D02*
X90190476Y-97102438D01*
X90190476Y-97102438D02*
X90095238Y-97054819D01*
X90095238Y-97054819D02*
X89904762Y-97054819D01*
X89904762Y-97054819D02*
X89809524Y-97102438D01*
X89809524Y-97102438D02*
X89761905Y-97150057D01*
X89761905Y-97150057D02*
X89714286Y-97245295D01*
X89714286Y-97245295D02*
X89714286Y-97483390D01*
X89714286Y-97483390D02*
X89761905Y-97578628D01*
X89761905Y-97578628D02*
X89809524Y-97626247D01*
X89809524Y-97626247D02*
X89904762Y-97673866D01*
X89904762Y-97673866D02*
X90095238Y-97673866D01*
X90095238Y-97673866D02*
X90190476Y-97626247D01*
X90190476Y-97626247D02*
X90238095Y-97578628D01*
X90238095Y-97578628D02*
X90285714Y-97483390D01*
X111838095Y-75754819D02*
X111838095Y-76564342D01*
X111838095Y-76564342D02*
X111885714Y-76659580D01*
X111885714Y-76659580D02*
X111933333Y-76707200D01*
X111933333Y-76707200D02*
X112028571Y-76754819D01*
X112028571Y-76754819D02*
X112219047Y-76754819D01*
X112219047Y-76754819D02*
X112314285Y-76707200D01*
X112314285Y-76707200D02*
X112361904Y-76659580D01*
X112361904Y-76659580D02*
X112409523Y-76564342D01*
X112409523Y-76564342D02*
X112409523Y-75754819D01*
X112838095Y-75850057D02*
X112885714Y-75802438D01*
X112885714Y-75802438D02*
X112980952Y-75754819D01*
X112980952Y-75754819D02*
X113219047Y-75754819D01*
X113219047Y-75754819D02*
X113314285Y-75802438D01*
X113314285Y-75802438D02*
X113361904Y-75850057D01*
X113361904Y-75850057D02*
X113409523Y-75945295D01*
X113409523Y-75945295D02*
X113409523Y-76040533D01*
X113409523Y-76040533D02*
X113361904Y-76183390D01*
X113361904Y-76183390D02*
X112790476Y-76754819D01*
X112790476Y-76754819D02*
X113409523Y-76754819D01*
X137938095Y-81654819D02*
X137938095Y-82464342D01*
X137938095Y-82464342D02*
X137985714Y-82559580D01*
X137985714Y-82559580D02*
X138033333Y-82607200D01*
X138033333Y-82607200D02*
X138128571Y-82654819D01*
X138128571Y-82654819D02*
X138319047Y-82654819D01*
X138319047Y-82654819D02*
X138414285Y-82607200D01*
X138414285Y-82607200D02*
X138461904Y-82559580D01*
X138461904Y-82559580D02*
X138509523Y-82464342D01*
X138509523Y-82464342D02*
X138509523Y-81654819D01*
X139414285Y-81654819D02*
X139223809Y-81654819D01*
X139223809Y-81654819D02*
X139128571Y-81702438D01*
X139128571Y-81702438D02*
X139080952Y-81750057D01*
X139080952Y-81750057D02*
X138985714Y-81892914D01*
X138985714Y-81892914D02*
X138938095Y-82083390D01*
X138938095Y-82083390D02*
X138938095Y-82464342D01*
X138938095Y-82464342D02*
X138985714Y-82559580D01*
X138985714Y-82559580D02*
X139033333Y-82607200D01*
X139033333Y-82607200D02*
X139128571Y-82654819D01*
X139128571Y-82654819D02*
X139319047Y-82654819D01*
X139319047Y-82654819D02*
X139414285Y-82607200D01*
X139414285Y-82607200D02*
X139461904Y-82559580D01*
X139461904Y-82559580D02*
X139509523Y-82464342D01*
X139509523Y-82464342D02*
X139509523Y-82226247D01*
X139509523Y-82226247D02*
X139461904Y-82131009D01*
X139461904Y-82131009D02*
X139414285Y-82083390D01*
X139414285Y-82083390D02*
X139319047Y-82035771D01*
X139319047Y-82035771D02*
X139128571Y-82035771D01*
X139128571Y-82035771D02*
X139033333Y-82083390D01*
X139033333Y-82083390D02*
X138985714Y-82131009D01*
X138985714Y-82131009D02*
X138938095Y-82226247D01*
X138257142Y-61854819D02*
X137923809Y-61378628D01*
X137685714Y-61854819D02*
X137685714Y-60854819D01*
X137685714Y-60854819D02*
X138066666Y-60854819D01*
X138066666Y-60854819D02*
X138161904Y-60902438D01*
X138161904Y-60902438D02*
X138209523Y-60950057D01*
X138209523Y-60950057D02*
X138257142Y-61045295D01*
X138257142Y-61045295D02*
X138257142Y-61188152D01*
X138257142Y-61188152D02*
X138209523Y-61283390D01*
X138209523Y-61283390D02*
X138161904Y-61331009D01*
X138161904Y-61331009D02*
X138066666Y-61378628D01*
X138066666Y-61378628D02*
X137685714Y-61378628D01*
X139114285Y-61188152D02*
X139114285Y-61854819D01*
X138876190Y-60807200D02*
X138638095Y-61521485D01*
X138638095Y-61521485D02*
X139257142Y-61521485D01*
X140161904Y-61854819D02*
X139590476Y-61854819D01*
X139876190Y-61854819D02*
X139876190Y-60854819D01*
X139876190Y-60854819D02*
X139780952Y-60997676D01*
X139780952Y-60997676D02*
X139685714Y-61092914D01*
X139685714Y-61092914D02*
X139590476Y-61140533D01*
X134124819Y-58042857D02*
X133648628Y-58376190D01*
X134124819Y-58614285D02*
X133124819Y-58614285D01*
X133124819Y-58614285D02*
X133124819Y-58233333D01*
X133124819Y-58233333D02*
X133172438Y-58138095D01*
X133172438Y-58138095D02*
X133220057Y-58090476D01*
X133220057Y-58090476D02*
X133315295Y-58042857D01*
X133315295Y-58042857D02*
X133458152Y-58042857D01*
X133458152Y-58042857D02*
X133553390Y-58090476D01*
X133553390Y-58090476D02*
X133601009Y-58138095D01*
X133601009Y-58138095D02*
X133648628Y-58233333D01*
X133648628Y-58233333D02*
X133648628Y-58614285D01*
X133458152Y-57185714D02*
X134124819Y-57185714D01*
X133077200Y-57423809D02*
X133791485Y-57661904D01*
X133791485Y-57661904D02*
X133791485Y-57042857D01*
X133220057Y-56709523D02*
X133172438Y-56661904D01*
X133172438Y-56661904D02*
X133124819Y-56566666D01*
X133124819Y-56566666D02*
X133124819Y-56328571D01*
X133124819Y-56328571D02*
X133172438Y-56233333D01*
X133172438Y-56233333D02*
X133220057Y-56185714D01*
X133220057Y-56185714D02*
X133315295Y-56138095D01*
X133315295Y-56138095D02*
X133410533Y-56138095D01*
X133410533Y-56138095D02*
X133553390Y-56185714D01*
X133553390Y-56185714D02*
X134124819Y-56757142D01*
X134124819Y-56757142D02*
X134124819Y-56138095D01*
X133061905Y-64054819D02*
X133061905Y-64864342D01*
X133061905Y-64864342D02*
X133109524Y-64959580D01*
X133109524Y-64959580D02*
X133157143Y-65007200D01*
X133157143Y-65007200D02*
X133252381Y-65054819D01*
X133252381Y-65054819D02*
X133442857Y-65054819D01*
X133442857Y-65054819D02*
X133538095Y-65007200D01*
X133538095Y-65007200D02*
X133585714Y-64959580D01*
X133585714Y-64959580D02*
X133633333Y-64864342D01*
X133633333Y-64864342D02*
X133633333Y-64054819D01*
X134633333Y-65054819D02*
X134061905Y-65054819D01*
X134347619Y-65054819D02*
X134347619Y-64054819D01*
X134347619Y-64054819D02*
X134252381Y-64197676D01*
X134252381Y-64197676D02*
X134157143Y-64292914D01*
X134157143Y-64292914D02*
X134061905Y-64340533D01*
X135014286Y-64150057D02*
X135061905Y-64102438D01*
X135061905Y-64102438D02*
X135157143Y-64054819D01*
X135157143Y-64054819D02*
X135395238Y-64054819D01*
X135395238Y-64054819D02*
X135490476Y-64102438D01*
X135490476Y-64102438D02*
X135538095Y-64150057D01*
X135538095Y-64150057D02*
X135585714Y-64245295D01*
X135585714Y-64245295D02*
X135585714Y-64340533D01*
X135585714Y-64340533D02*
X135538095Y-64483390D01*
X135538095Y-64483390D02*
X134966667Y-65054819D01*
X134966667Y-65054819D02*
X135585714Y-65054819D01*
X141057142Y-100284819D02*
X140723809Y-99808628D01*
X140485714Y-100284819D02*
X140485714Y-99284819D01*
X140485714Y-99284819D02*
X140866666Y-99284819D01*
X140866666Y-99284819D02*
X140961904Y-99332438D01*
X140961904Y-99332438D02*
X141009523Y-99380057D01*
X141009523Y-99380057D02*
X141057142Y-99475295D01*
X141057142Y-99475295D02*
X141057142Y-99618152D01*
X141057142Y-99618152D02*
X141009523Y-99713390D01*
X141009523Y-99713390D02*
X140961904Y-99761009D01*
X140961904Y-99761009D02*
X140866666Y-99808628D01*
X140866666Y-99808628D02*
X140485714Y-99808628D01*
X141438095Y-99380057D02*
X141485714Y-99332438D01*
X141485714Y-99332438D02*
X141580952Y-99284819D01*
X141580952Y-99284819D02*
X141819047Y-99284819D01*
X141819047Y-99284819D02*
X141914285Y-99332438D01*
X141914285Y-99332438D02*
X141961904Y-99380057D01*
X141961904Y-99380057D02*
X142009523Y-99475295D01*
X142009523Y-99475295D02*
X142009523Y-99570533D01*
X142009523Y-99570533D02*
X141961904Y-99713390D01*
X141961904Y-99713390D02*
X141390476Y-100284819D01*
X141390476Y-100284819D02*
X142009523Y-100284819D01*
X142866666Y-99618152D02*
X142866666Y-100284819D01*
X142628571Y-99237200D02*
X142390476Y-99951485D01*
X142390476Y-99951485D02*
X143009523Y-99951485D01*
X122159580Y-67392857D02*
X122207200Y-67440476D01*
X122207200Y-67440476D02*
X122254819Y-67583333D01*
X122254819Y-67583333D02*
X122254819Y-67678571D01*
X122254819Y-67678571D02*
X122207200Y-67821428D01*
X122207200Y-67821428D02*
X122111961Y-67916666D01*
X122111961Y-67916666D02*
X122016723Y-67964285D01*
X122016723Y-67964285D02*
X121826247Y-68011904D01*
X121826247Y-68011904D02*
X121683390Y-68011904D01*
X121683390Y-68011904D02*
X121492914Y-67964285D01*
X121492914Y-67964285D02*
X121397676Y-67916666D01*
X121397676Y-67916666D02*
X121302438Y-67821428D01*
X121302438Y-67821428D02*
X121254819Y-67678571D01*
X121254819Y-67678571D02*
X121254819Y-67583333D01*
X121254819Y-67583333D02*
X121302438Y-67440476D01*
X121302438Y-67440476D02*
X121350057Y-67392857D01*
X122254819Y-66440476D02*
X122254819Y-67011904D01*
X122254819Y-66726190D02*
X121254819Y-66726190D01*
X121254819Y-66726190D02*
X121397676Y-66821428D01*
X121397676Y-66821428D02*
X121492914Y-66916666D01*
X121492914Y-66916666D02*
X121540533Y-67011904D01*
X121588152Y-65583333D02*
X122254819Y-65583333D01*
X121207200Y-65821428D02*
X121921485Y-66059523D01*
X121921485Y-66059523D02*
X121921485Y-65440476D01*
X141685714Y-57654819D02*
X141685714Y-56654819D01*
X141685714Y-56654819D02*
X141923809Y-56654819D01*
X141923809Y-56654819D02*
X142066666Y-56702438D01*
X142066666Y-56702438D02*
X142161904Y-56797676D01*
X142161904Y-56797676D02*
X142209523Y-56892914D01*
X142209523Y-56892914D02*
X142257142Y-57083390D01*
X142257142Y-57083390D02*
X142257142Y-57226247D01*
X142257142Y-57226247D02*
X142209523Y-57416723D01*
X142209523Y-57416723D02*
X142161904Y-57511961D01*
X142161904Y-57511961D02*
X142066666Y-57607200D01*
X142066666Y-57607200D02*
X141923809Y-57654819D01*
X141923809Y-57654819D02*
X141685714Y-57654819D01*
X143209523Y-57654819D02*
X142638095Y-57654819D01*
X142923809Y-57654819D02*
X142923809Y-56654819D01*
X142923809Y-56654819D02*
X142828571Y-56797676D01*
X142828571Y-56797676D02*
X142733333Y-56892914D01*
X142733333Y-56892914D02*
X142638095Y-56940533D01*
X144066666Y-56988152D02*
X144066666Y-57654819D01*
X143828571Y-56607200D02*
X143590476Y-57321485D01*
X143590476Y-57321485D02*
X144209523Y-57321485D01*
X142404761Y-60950057D02*
X142309523Y-60902438D01*
X142309523Y-60902438D02*
X142214285Y-60807200D01*
X142214285Y-60807200D02*
X142071428Y-60664342D01*
X142071428Y-60664342D02*
X141976190Y-60616723D01*
X141976190Y-60616723D02*
X141880952Y-60616723D01*
X141928571Y-60854819D02*
X141833333Y-60807200D01*
X141833333Y-60807200D02*
X141738095Y-60711961D01*
X141738095Y-60711961D02*
X141690476Y-60521485D01*
X141690476Y-60521485D02*
X141690476Y-60188152D01*
X141690476Y-60188152D02*
X141738095Y-59997676D01*
X141738095Y-59997676D02*
X141833333Y-59902438D01*
X141833333Y-59902438D02*
X141928571Y-59854819D01*
X141928571Y-59854819D02*
X142119047Y-59854819D01*
X142119047Y-59854819D02*
X142214285Y-59902438D01*
X142214285Y-59902438D02*
X142309523Y-59997676D01*
X142309523Y-59997676D02*
X142357142Y-60188152D01*
X142357142Y-60188152D02*
X142357142Y-60521485D01*
X142357142Y-60521485D02*
X142309523Y-60711961D01*
X142309523Y-60711961D02*
X142214285Y-60807200D01*
X142214285Y-60807200D02*
X142119047Y-60854819D01*
X142119047Y-60854819D02*
X141928571Y-60854819D01*
X142928571Y-60283390D02*
X142833333Y-60235771D01*
X142833333Y-60235771D02*
X142785714Y-60188152D01*
X142785714Y-60188152D02*
X142738095Y-60092914D01*
X142738095Y-60092914D02*
X142738095Y-60045295D01*
X142738095Y-60045295D02*
X142785714Y-59950057D01*
X142785714Y-59950057D02*
X142833333Y-59902438D01*
X142833333Y-59902438D02*
X142928571Y-59854819D01*
X142928571Y-59854819D02*
X143119047Y-59854819D01*
X143119047Y-59854819D02*
X143214285Y-59902438D01*
X143214285Y-59902438D02*
X143261904Y-59950057D01*
X143261904Y-59950057D02*
X143309523Y-60045295D01*
X143309523Y-60045295D02*
X143309523Y-60092914D01*
X143309523Y-60092914D02*
X143261904Y-60188152D01*
X143261904Y-60188152D02*
X143214285Y-60235771D01*
X143214285Y-60235771D02*
X143119047Y-60283390D01*
X143119047Y-60283390D02*
X142928571Y-60283390D01*
X142928571Y-60283390D02*
X142833333Y-60331009D01*
X142833333Y-60331009D02*
X142785714Y-60378628D01*
X142785714Y-60378628D02*
X142738095Y-60473866D01*
X142738095Y-60473866D02*
X142738095Y-60664342D01*
X142738095Y-60664342D02*
X142785714Y-60759580D01*
X142785714Y-60759580D02*
X142833333Y-60807200D01*
X142833333Y-60807200D02*
X142928571Y-60854819D01*
X142928571Y-60854819D02*
X143119047Y-60854819D01*
X143119047Y-60854819D02*
X143214285Y-60807200D01*
X143214285Y-60807200D02*
X143261904Y-60759580D01*
X143261904Y-60759580D02*
X143309523Y-60664342D01*
X143309523Y-60664342D02*
X143309523Y-60473866D01*
X143309523Y-60473866D02*
X143261904Y-60378628D01*
X143261904Y-60378628D02*
X143214285Y-60331009D01*
X143214285Y-60331009D02*
X143119047Y-60283390D01*
X142885714Y-72654819D02*
X142885714Y-71654819D01*
X142885714Y-71654819D02*
X143123809Y-71654819D01*
X143123809Y-71654819D02*
X143266666Y-71702438D01*
X143266666Y-71702438D02*
X143361904Y-71797676D01*
X143361904Y-71797676D02*
X143409523Y-71892914D01*
X143409523Y-71892914D02*
X143457142Y-72083390D01*
X143457142Y-72083390D02*
X143457142Y-72226247D01*
X143457142Y-72226247D02*
X143409523Y-72416723D01*
X143409523Y-72416723D02*
X143361904Y-72511961D01*
X143361904Y-72511961D02*
X143266666Y-72607200D01*
X143266666Y-72607200D02*
X143123809Y-72654819D01*
X143123809Y-72654819D02*
X142885714Y-72654819D01*
X144409523Y-72654819D02*
X143838095Y-72654819D01*
X144123809Y-72654819D02*
X144123809Y-71654819D01*
X144123809Y-71654819D02*
X144028571Y-71797676D01*
X144028571Y-71797676D02*
X143933333Y-71892914D01*
X143933333Y-71892914D02*
X143838095Y-71940533D01*
X144742857Y-71654819D02*
X145361904Y-71654819D01*
X145361904Y-71654819D02*
X145028571Y-72035771D01*
X145028571Y-72035771D02*
X145171428Y-72035771D01*
X145171428Y-72035771D02*
X145266666Y-72083390D01*
X145266666Y-72083390D02*
X145314285Y-72131009D01*
X145314285Y-72131009D02*
X145361904Y-72226247D01*
X145361904Y-72226247D02*
X145361904Y-72464342D01*
X145361904Y-72464342D02*
X145314285Y-72559580D01*
X145314285Y-72559580D02*
X145266666Y-72607200D01*
X145266666Y-72607200D02*
X145171428Y-72654819D01*
X145171428Y-72654819D02*
X144885714Y-72654819D01*
X144885714Y-72654819D02*
X144790476Y-72607200D01*
X144790476Y-72607200D02*
X144742857Y-72559580D01*
X136457142Y-65054819D02*
X136123809Y-64578628D01*
X135885714Y-65054819D02*
X135885714Y-64054819D01*
X135885714Y-64054819D02*
X136266666Y-64054819D01*
X136266666Y-64054819D02*
X136361904Y-64102438D01*
X136361904Y-64102438D02*
X136409523Y-64150057D01*
X136409523Y-64150057D02*
X136457142Y-64245295D01*
X136457142Y-64245295D02*
X136457142Y-64388152D01*
X136457142Y-64388152D02*
X136409523Y-64483390D01*
X136409523Y-64483390D02*
X136361904Y-64531009D01*
X136361904Y-64531009D02*
X136266666Y-64578628D01*
X136266666Y-64578628D02*
X135885714Y-64578628D01*
X136790476Y-64054819D02*
X137409523Y-64054819D01*
X137409523Y-64054819D02*
X137076190Y-64435771D01*
X137076190Y-64435771D02*
X137219047Y-64435771D01*
X137219047Y-64435771D02*
X137314285Y-64483390D01*
X137314285Y-64483390D02*
X137361904Y-64531009D01*
X137361904Y-64531009D02*
X137409523Y-64626247D01*
X137409523Y-64626247D02*
X137409523Y-64864342D01*
X137409523Y-64864342D02*
X137361904Y-64959580D01*
X137361904Y-64959580D02*
X137314285Y-65007200D01*
X137314285Y-65007200D02*
X137219047Y-65054819D01*
X137219047Y-65054819D02*
X136933333Y-65054819D01*
X136933333Y-65054819D02*
X136838095Y-65007200D01*
X136838095Y-65007200D02*
X136790476Y-64959580D01*
X138266666Y-64054819D02*
X138076190Y-64054819D01*
X138076190Y-64054819D02*
X137980952Y-64102438D01*
X137980952Y-64102438D02*
X137933333Y-64150057D01*
X137933333Y-64150057D02*
X137838095Y-64292914D01*
X137838095Y-64292914D02*
X137790476Y-64483390D01*
X137790476Y-64483390D02*
X137790476Y-64864342D01*
X137790476Y-64864342D02*
X137838095Y-64959580D01*
X137838095Y-64959580D02*
X137885714Y-65007200D01*
X137885714Y-65007200D02*
X137980952Y-65054819D01*
X137980952Y-65054819D02*
X138171428Y-65054819D01*
X138171428Y-65054819D02*
X138266666Y-65007200D01*
X138266666Y-65007200D02*
X138314285Y-64959580D01*
X138314285Y-64959580D02*
X138361904Y-64864342D01*
X138361904Y-64864342D02*
X138361904Y-64626247D01*
X138361904Y-64626247D02*
X138314285Y-64531009D01*
X138314285Y-64531009D02*
X138266666Y-64483390D01*
X138266666Y-64483390D02*
X138171428Y-64435771D01*
X138171428Y-64435771D02*
X137980952Y-64435771D01*
X137980952Y-64435771D02*
X137885714Y-64483390D01*
X137885714Y-64483390D02*
X137838095Y-64531009D01*
X137838095Y-64531009D02*
X137790476Y-64626247D01*
X85916666Y-93704819D02*
X85916666Y-94419104D01*
X85916666Y-94419104D02*
X85869047Y-94561961D01*
X85869047Y-94561961D02*
X85773809Y-94657200D01*
X85773809Y-94657200D02*
X85630952Y-94704819D01*
X85630952Y-94704819D02*
X85535714Y-94704819D01*
X86297619Y-93704819D02*
X86916666Y-93704819D01*
X86916666Y-93704819D02*
X86583333Y-94085771D01*
X86583333Y-94085771D02*
X86726190Y-94085771D01*
X86726190Y-94085771D02*
X86821428Y-94133390D01*
X86821428Y-94133390D02*
X86869047Y-94181009D01*
X86869047Y-94181009D02*
X86916666Y-94276247D01*
X86916666Y-94276247D02*
X86916666Y-94514342D01*
X86916666Y-94514342D02*
X86869047Y-94609580D01*
X86869047Y-94609580D02*
X86821428Y-94657200D01*
X86821428Y-94657200D02*
X86726190Y-94704819D01*
X86726190Y-94704819D02*
X86440476Y-94704819D01*
X86440476Y-94704819D02*
X86345238Y-94657200D01*
X86345238Y-94657200D02*
X86297619Y-94609580D01*
X147733333Y-87454819D02*
X147400000Y-86978628D01*
X147161905Y-87454819D02*
X147161905Y-86454819D01*
X147161905Y-86454819D02*
X147542857Y-86454819D01*
X147542857Y-86454819D02*
X147638095Y-86502438D01*
X147638095Y-86502438D02*
X147685714Y-86550057D01*
X147685714Y-86550057D02*
X147733333Y-86645295D01*
X147733333Y-86645295D02*
X147733333Y-86788152D01*
X147733333Y-86788152D02*
X147685714Y-86883390D01*
X147685714Y-86883390D02*
X147638095Y-86931009D01*
X147638095Y-86931009D02*
X147542857Y-86978628D01*
X147542857Y-86978628D02*
X147161905Y-86978628D01*
X148590476Y-86454819D02*
X148400000Y-86454819D01*
X148400000Y-86454819D02*
X148304762Y-86502438D01*
X148304762Y-86502438D02*
X148257143Y-86550057D01*
X148257143Y-86550057D02*
X148161905Y-86692914D01*
X148161905Y-86692914D02*
X148114286Y-86883390D01*
X148114286Y-86883390D02*
X148114286Y-87264342D01*
X148114286Y-87264342D02*
X148161905Y-87359580D01*
X148161905Y-87359580D02*
X148209524Y-87407200D01*
X148209524Y-87407200D02*
X148304762Y-87454819D01*
X148304762Y-87454819D02*
X148495238Y-87454819D01*
X148495238Y-87454819D02*
X148590476Y-87407200D01*
X148590476Y-87407200D02*
X148638095Y-87359580D01*
X148638095Y-87359580D02*
X148685714Y-87264342D01*
X148685714Y-87264342D02*
X148685714Y-87026247D01*
X148685714Y-87026247D02*
X148638095Y-86931009D01*
X148638095Y-86931009D02*
X148590476Y-86883390D01*
X148590476Y-86883390D02*
X148495238Y-86835771D01*
X148495238Y-86835771D02*
X148304762Y-86835771D01*
X148304762Y-86835771D02*
X148209524Y-86883390D01*
X148209524Y-86883390D02*
X148161905Y-86931009D01*
X148161905Y-86931009D02*
X148114286Y-87026247D01*
X118357142Y-73459580D02*
X118309523Y-73507200D01*
X118309523Y-73507200D02*
X118166666Y-73554819D01*
X118166666Y-73554819D02*
X118071428Y-73554819D01*
X118071428Y-73554819D02*
X117928571Y-73507200D01*
X117928571Y-73507200D02*
X117833333Y-73411961D01*
X117833333Y-73411961D02*
X117785714Y-73316723D01*
X117785714Y-73316723D02*
X117738095Y-73126247D01*
X117738095Y-73126247D02*
X117738095Y-72983390D01*
X117738095Y-72983390D02*
X117785714Y-72792914D01*
X117785714Y-72792914D02*
X117833333Y-72697676D01*
X117833333Y-72697676D02*
X117928571Y-72602438D01*
X117928571Y-72602438D02*
X118071428Y-72554819D01*
X118071428Y-72554819D02*
X118166666Y-72554819D01*
X118166666Y-72554819D02*
X118309523Y-72602438D01*
X118309523Y-72602438D02*
X118357142Y-72650057D01*
X119309523Y-73554819D02*
X118738095Y-73554819D01*
X119023809Y-73554819D02*
X119023809Y-72554819D01*
X119023809Y-72554819D02*
X118928571Y-72697676D01*
X118928571Y-72697676D02*
X118833333Y-72792914D01*
X118833333Y-72792914D02*
X118738095Y-72840533D01*
X119642857Y-72554819D02*
X120309523Y-72554819D01*
X120309523Y-72554819D02*
X119880952Y-73554819D01*
X91757142Y-56624819D02*
X91423809Y-56148628D01*
X91185714Y-56624819D02*
X91185714Y-55624819D01*
X91185714Y-55624819D02*
X91566666Y-55624819D01*
X91566666Y-55624819D02*
X91661904Y-55672438D01*
X91661904Y-55672438D02*
X91709523Y-55720057D01*
X91709523Y-55720057D02*
X91757142Y-55815295D01*
X91757142Y-55815295D02*
X91757142Y-55958152D01*
X91757142Y-55958152D02*
X91709523Y-56053390D01*
X91709523Y-56053390D02*
X91661904Y-56101009D01*
X91661904Y-56101009D02*
X91566666Y-56148628D01*
X91566666Y-56148628D02*
X91185714Y-56148628D01*
X92709523Y-56624819D02*
X92138095Y-56624819D01*
X92423809Y-56624819D02*
X92423809Y-55624819D01*
X92423809Y-55624819D02*
X92328571Y-55767676D01*
X92328571Y-55767676D02*
X92233333Y-55862914D01*
X92233333Y-55862914D02*
X92138095Y-55910533D01*
X93042857Y-55624819D02*
X93709523Y-55624819D01*
X93709523Y-55624819D02*
X93280952Y-56624819D01*
%TO.C,R4*%
D13*
X101477500Y-88004724D02*
X101477500Y-87495276D01*
X102522500Y-88004724D02*
X102522500Y-87495276D01*
%TO.C,R21*%
X144845276Y-88277500D02*
X145354724Y-88277500D01*
X144845276Y-89322500D02*
X145354724Y-89322500D01*
%TO.C,Q4*%
X140540000Y-94040000D02*
X142060000Y-94040000D01*
X140540000Y-94090000D02*
X140540000Y-94040000D01*
X140540000Y-95990000D02*
X140540000Y-95210000D01*
X140540000Y-97160000D02*
X140540000Y-97110000D01*
X142060000Y-94040000D02*
X142060000Y-95040000D01*
X142060000Y-96160000D02*
X142060000Y-97160000D01*
X142060000Y-97160000D02*
X140540000Y-97160000D01*
X140000000Y-95220000D02*
X140240000Y-95550000D01*
X139760000Y-95550000D01*
X140000000Y-95220000D01*
G36*
X140240000Y-95550000D02*
G01*
X139760000Y-95550000D01*
X140000000Y-95220000D01*
X140240000Y-95550000D01*
G37*
%TO.C,Q5*%
X97240000Y-86240000D02*
X98760000Y-86240000D01*
X97240000Y-86290000D02*
X97240000Y-86240000D01*
X97240000Y-88190000D02*
X97240000Y-87410000D01*
X97240000Y-89360000D02*
X97240000Y-89310000D01*
X98760000Y-86240000D02*
X98760000Y-87240000D01*
X98760000Y-88360000D02*
X98760000Y-89360000D01*
X98760000Y-89360000D02*
X97240000Y-89360000D01*
X96700000Y-87420000D02*
X96940000Y-87750000D01*
X96460000Y-87750000D01*
X96700000Y-87420000D01*
G36*
X96940000Y-87750000D02*
G01*
X96460000Y-87750000D01*
X96700000Y-87420000D01*
X96940000Y-87750000D01*
G37*
%TO.C,U7*%
X87440000Y-57040000D02*
X88960000Y-57040000D01*
X87440000Y-58040000D02*
X87440000Y-57040000D01*
X87440000Y-60160000D02*
X87440000Y-59160000D01*
X88960000Y-57040000D02*
X88960000Y-57090000D01*
X88960000Y-58210000D02*
X88960000Y-58990000D01*
X88960000Y-60110000D02*
X88960000Y-60160000D01*
X88960000Y-60160000D02*
X87440000Y-60160000D01*
X89500000Y-58980000D02*
X89260000Y-58650000D01*
X89740000Y-58650000D01*
X89500000Y-58980000D01*
G36*
X89500000Y-58980000D02*
G01*
X89260000Y-58650000D01*
X89740000Y-58650000D01*
X89500000Y-58980000D01*
G37*
%TO.C,Q3*%
X87440000Y-60840000D02*
X88960000Y-60840000D01*
X87440000Y-61840000D02*
X87440000Y-60840000D01*
X87440000Y-63960000D02*
X87440000Y-62960000D01*
X88960000Y-60840000D02*
X88960000Y-60890000D01*
X88960000Y-62010000D02*
X88960000Y-62790000D01*
X88960000Y-63910000D02*
X88960000Y-63960000D01*
X88960000Y-63960000D02*
X87440000Y-63960000D01*
X89500000Y-62780000D02*
X89260000Y-62450000D01*
X89740000Y-62450000D01*
X89500000Y-62780000D01*
G36*
X89500000Y-62780000D02*
G01*
X89260000Y-62450000D01*
X89740000Y-62450000D01*
X89500000Y-62780000D01*
G37*
%TO.C,D1*%
X87340000Y-98465000D02*
X87340000Y-99935000D01*
X87340000Y-99935000D02*
X89800000Y-99935000D01*
X89800000Y-98465000D02*
X87340000Y-98465000D01*
%TO.C,R23*%
X144845276Y-91277500D02*
X145354724Y-91277500D01*
X144845276Y-92322500D02*
X145354724Y-92322500D01*
%TO.C,C10*%
X89740000Y-81146267D02*
X89740000Y-80853733D01*
X90760000Y-81146267D02*
X90760000Y-80853733D01*
%TO.C,C18*%
X111146267Y-57240000D02*
X110853733Y-57240000D01*
X111146267Y-58260000D02*
X110853733Y-58260000D01*
%TO.C,C6*%
X103590000Y-88538748D02*
X103590000Y-89961252D01*
X105410000Y-88538748D02*
X105410000Y-89961252D01*
%TO.C,R12*%
X145845276Y-56277500D02*
X146354724Y-56277500D01*
X145845276Y-57322500D02*
X146354724Y-57322500D01*
%TO.C,C8*%
X95490000Y-95288748D02*
X95490000Y-96711252D01*
X97310000Y-95288748D02*
X97310000Y-96711252D01*
%TO.C,L1*%
X108790000Y-98110000D02*
X108790000Y-93890000D01*
X113010000Y-93890000D02*
X113010000Y-98110000D01*
%TO.C,C12*%
X89538748Y-66340000D02*
X90961252Y-66340000D01*
X89538748Y-68160000D02*
X90961252Y-68160000D01*
%TO.C,D2*%
X145565000Y-92940000D02*
X145565000Y-95400000D01*
X147035000Y-92940000D02*
X145565000Y-92940000D01*
X147035000Y-95400000D02*
X147035000Y-92940000D01*
%TO.C,R32*%
X91654724Y-77877500D02*
X91145276Y-77877500D01*
X91654724Y-78922500D02*
X91145276Y-78922500D01*
%TO.C,R31*%
X93454724Y-81477500D02*
X92945276Y-81477500D01*
X93454724Y-82522500D02*
X92945276Y-82522500D01*
%TO.C,R19*%
X92145276Y-58877500D02*
X92654724Y-58877500D01*
X92145276Y-59922500D02*
X92654724Y-59922500D01*
%TO.C,R28*%
X120454724Y-88277500D02*
X119945276Y-88277500D01*
X120454724Y-89322500D02*
X119945276Y-89322500D01*
%TO.C,R1*%
X94727500Y-90995276D02*
X94727500Y-91504724D01*
X95772500Y-90995276D02*
X95772500Y-91504724D01*
%TO.C,D10*%
X143565000Y-92940000D02*
X143565000Y-95400000D01*
X145035000Y-92940000D02*
X143565000Y-92940000D01*
X145035000Y-95400000D02*
X145035000Y-92940000D01*
%TO.C,D11*%
X143690000Y-63150000D02*
X143690000Y-64850000D01*
X143690000Y-63150000D02*
X146950000Y-63150000D01*
X143690000Y-64850000D02*
X146950000Y-64850000D01*
%TO.C,J5*%
X149022500Y-56210000D02*
X159512500Y-56210000D01*
X149022500Y-72290000D02*
X149022500Y-56210000D01*
X150642500Y-72290000D02*
X150642500Y-56210000D01*
X158392500Y-72290000D02*
X158392500Y-56210000D01*
X159512500Y-56210000D02*
X159512500Y-69330000D01*
X159512500Y-69930000D02*
X159512500Y-72290000D01*
X159512500Y-72290000D02*
X149022500Y-72290000D01*
X159512500Y-69630000D02*
X160122500Y-69190000D01*
X160122500Y-70070000D01*
X159512500Y-69630000D01*
G36*
X160122500Y-70070000D02*
G01*
X159512500Y-69630000D01*
X160122500Y-69190000D01*
X160122500Y-70070000D01*
G37*
%TO.C,C13*%
X105896267Y-70740000D02*
X105603733Y-70740000D01*
X105896267Y-71760000D02*
X105603733Y-71760000D01*
%TO.C,R11*%
X141445276Y-77477500D02*
X141954724Y-77477500D01*
X141445276Y-78522500D02*
X141954724Y-78522500D01*
%TO.C,R26*%
X129454724Y-56477500D02*
X128945276Y-56477500D01*
X129454724Y-57522500D02*
X128945276Y-57522500D01*
%TO.C,R27*%
X120454724Y-91477500D02*
X119945276Y-91477500D01*
X120454724Y-92522500D02*
X119945276Y-92522500D01*
%TO.C,R10*%
X109745276Y-70727500D02*
X110254724Y-70727500D01*
X109745276Y-71772500D02*
X110254724Y-71772500D01*
%TO.C,D8*%
X143565000Y-77740000D02*
X143565000Y-80200000D01*
X145035000Y-77740000D02*
X143565000Y-77740000D01*
X145035000Y-80200000D02*
X145035000Y-77740000D01*
%TO.C,U1*%
X103340000Y-96000000D02*
X103340000Y-95200000D01*
X103340000Y-96000000D02*
X103340000Y-96800000D01*
X106460000Y-96000000D02*
X106460000Y-95200000D01*
X106460000Y-96000000D02*
X106460000Y-96800000D01*
X106410000Y-94700000D02*
X106740000Y-94460000D01*
X106740000Y-94940000D01*
X106410000Y-94700000D01*
G36*
X106740000Y-94940000D02*
G01*
X106410000Y-94700000D01*
X106740000Y-94460000D01*
X106740000Y-94940000D01*
G37*
%TO.C,R16*%
X143777500Y-84545276D02*
X143777500Y-85054724D01*
X144822500Y-84545276D02*
X144822500Y-85054724D01*
%TO.C,U5*%
X113050000Y-59640000D02*
X113050000Y-66060000D01*
X113050000Y-66060000D02*
X113320000Y-66060000D01*
X119950000Y-59640000D02*
X119950000Y-66060000D01*
X119950000Y-66060000D02*
X119680000Y-66060000D01*
X113360000Y-67790000D02*
X112890000Y-68130000D01*
X112890000Y-67450000D01*
X113360000Y-67790000D01*
G36*
X113360000Y-67790000D02*
G01*
X112890000Y-68130000D01*
X112890000Y-67450000D01*
X113360000Y-67790000D01*
G37*
%TO.C,C1*%
X99490000Y-95288748D02*
X99490000Y-96711252D01*
X101310000Y-95288748D02*
X101310000Y-96711252D01*
%TO.C,R44*%
X137377500Y-57654724D02*
X137377500Y-57145276D01*
X138422500Y-57654724D02*
X138422500Y-57145276D01*
%TO.C,R13*%
X135777500Y-73745276D02*
X135777500Y-74254724D01*
X136822500Y-73745276D02*
X136822500Y-74254724D01*
%TO.C,R8*%
X104495276Y-92477500D02*
X105004724Y-92477500D01*
X104495276Y-93522500D02*
X105004724Y-93522500D01*
%TO.C,R40*%
X134577500Y-61454724D02*
X134577500Y-60945276D01*
X135622500Y-61454724D02*
X135622500Y-60945276D01*
%TO.C,R20*%
X92145276Y-62077500D02*
X92654724Y-62077500D01*
X92145276Y-63122500D02*
X92654724Y-63122500D01*
%TO.C,R43*%
X140177500Y-57654724D02*
X140177500Y-57145276D01*
X141222500Y-57654724D02*
X141222500Y-57145276D01*
%TO.C,D7*%
X145565000Y-68140000D02*
X145565000Y-70600000D01*
X147035000Y-68140000D02*
X145565000Y-68140000D01*
X147035000Y-70600000D02*
X147035000Y-68140000D01*
%TO.C,R22*%
X140845276Y-88277500D02*
X141354724Y-88277500D01*
X140845276Y-89322500D02*
X141354724Y-89322500D01*
%TO.C,R5*%
X137977500Y-97545276D02*
X137977500Y-98054724D01*
X139022500Y-97545276D02*
X139022500Y-98054724D01*
%TO.C,R7*%
X87477500Y-81254724D02*
X87477500Y-80745276D01*
X88522500Y-81254724D02*
X88522500Y-80745276D01*
%TO.C,U4*%
D12*
X101325000Y-66425000D02*
X97175000Y-66425000D01*
X101325000Y-71575000D02*
X97175000Y-71575000D01*
D13*
X101750000Y-71500000D02*
X101990000Y-71830000D01*
X101510000Y-71830000D01*
X101750000Y-71500000D01*
G36*
X101990000Y-71830000D02*
G01*
X101510000Y-71830000D01*
X101750000Y-71500000D01*
X101990000Y-71830000D01*
G37*
%TO.C,D9*%
X91140000Y-98465000D02*
X91140000Y-99935000D01*
X91140000Y-99935000D02*
X93600000Y-99935000D01*
X93600000Y-98465000D02*
X91140000Y-98465000D01*
%TO.C,R29*%
X93145276Y-73877500D02*
X93654724Y-73877500D01*
X93145276Y-74922500D02*
X93654724Y-74922500D01*
%TO.C,C11*%
X90961252Y-69840000D02*
X89538748Y-69840000D01*
X90961252Y-71660000D02*
X89538748Y-71660000D01*
%TO.C,R38*%
X144554724Y-73077500D02*
X144045276Y-73077500D01*
X144554724Y-74122500D02*
X144045276Y-74122500D01*
%TO.C,R30*%
X91145276Y-76277500D02*
X91654724Y-76277500D01*
X91145276Y-77322500D02*
X91654724Y-77322500D01*
%TO.C,JP1*%
X86600000Y-77050000D02*
X86600000Y-76450000D01*
X87300000Y-75750000D02*
X88700000Y-75750000D01*
X88700000Y-77750000D02*
X87300000Y-77750000D01*
X89400000Y-76450000D02*
X89400000Y-77050000D01*
X86600000Y-76450000D02*
G75*
G02*
X87300000Y-75750000I700000J0D01*
G01*
X87300000Y-77750000D02*
G75*
G02*
X86600000Y-77050000I0J700000D01*
G01*
X88700000Y-75750000D02*
G75*
G02*
X89400000Y-76450000I1J-699999D01*
G01*
X89400000Y-77050000D02*
G75*
G02*
X88700000Y-77750000I-699999J-1D01*
G01*
%TO.C,J1*%
X149675000Y-76620000D02*
X149675000Y-97880000D01*
X150735000Y-78510000D02*
X152565000Y-76680000D01*
X150735000Y-95990000D02*
X150735000Y-78510000D01*
X150815000Y-99020000D02*
X159625000Y-99020000D01*
X152095000Y-74400000D02*
X155815000Y-74400000D01*
X152095000Y-75480000D02*
X152095000Y-74400000D01*
X152095000Y-99020000D02*
X152095000Y-100100000D01*
X152095000Y-100100000D02*
X155815000Y-100100000D01*
X152565000Y-76680000D02*
X157175000Y-76680000D01*
X152565000Y-97820000D02*
X150735000Y-95990000D01*
X155815000Y-74400000D02*
X155815000Y-75480000D01*
X155815000Y-100100000D02*
X155815000Y-99020000D01*
X157095000Y-75480000D02*
X150815000Y-75480000D01*
X157175000Y-76680000D02*
X157175000Y-97820000D01*
X157175000Y-97820000D02*
X152565000Y-97820000D01*
X158235000Y-77160000D02*
X159625000Y-77160000D01*
X158235000Y-82050000D02*
X159625000Y-82050000D01*
X158235000Y-87130000D02*
X159625000Y-87130000D01*
X158235000Y-92230000D02*
X159625000Y-92230000D01*
X158235000Y-97330000D02*
X159625000Y-97330000D01*
X158235000Y-97880000D02*
X158235000Y-76620000D01*
X159625000Y-77160000D02*
X159625000Y-78850000D01*
X159625000Y-78850000D02*
X158235000Y-78850000D01*
X159625000Y-82050000D02*
X159625000Y-83740000D01*
X159625000Y-83740000D02*
X158235000Y-83740000D01*
X159625000Y-87130000D02*
X159625000Y-88820000D01*
X159625000Y-88820000D02*
X158235000Y-88820000D01*
X159625000Y-92230000D02*
X159625000Y-93920000D01*
X159625000Y-93920000D02*
X158235000Y-93920000D01*
X159625000Y-97330000D02*
X159625000Y-99020000D01*
X149675000Y-76620000D02*
G75*
G02*
X150815000Y-75480000I1139999J1D01*
G01*
X150815000Y-99020000D02*
G75*
G02*
X149675000Y-97880000I0J1140000D01*
G01*
X157095000Y-75480000D02*
G75*
G02*
X158235000Y-76620000I1J-1139999D01*
G01*
X158235000Y-97880000D02*
G75*
G02*
X157095000Y-99020000I-1140000J0D01*
G01*
%TO.C,R2*%
X94477500Y-86504724D02*
X94477500Y-85995276D01*
X95522500Y-86504724D02*
X95522500Y-85995276D01*
%TO.C,U8*%
X140340000Y-90240000D02*
X141860000Y-90240000D01*
X140340000Y-91240000D02*
X140340000Y-90240000D01*
X140340000Y-93360000D02*
X140340000Y-92360000D01*
X141860000Y-90240000D02*
X141860000Y-90290000D01*
X141860000Y-91410000D02*
X141860000Y-92190000D01*
X141860000Y-93310000D02*
X141860000Y-93360000D01*
X141860000Y-93360000D02*
X140340000Y-93360000D01*
X142400000Y-92180000D02*
X142160000Y-91850000D01*
X142640000Y-91850000D01*
X142400000Y-92180000D01*
G36*
X142400000Y-92180000D02*
G01*
X142160000Y-91850000D01*
X142640000Y-91850000D01*
X142400000Y-92180000D01*
G37*
%TO.C,D4*%
X106950000Y-68710000D02*
X106950000Y-61700000D01*
X106950000Y-68710000D02*
X110250000Y-68710000D01*
X110250000Y-68710000D02*
X110250000Y-61700000D01*
%TO.C,D3*%
X145565000Y-77740000D02*
X145565000Y-80200000D01*
X147035000Y-77740000D02*
X145565000Y-77740000D01*
X147035000Y-80200000D02*
X147035000Y-77740000D01*
%TO.C,R9*%
X113745276Y-70727500D02*
X114254724Y-70727500D01*
X113745276Y-71772500D02*
X114254724Y-71772500D01*
%TO.C,C2*%
X105396267Y-98490000D02*
X105103733Y-98490000D01*
X105396267Y-99510000D02*
X105103733Y-99510000D01*
%TO.C,C5*%
X98461252Y-82340000D02*
X97038748Y-82340000D01*
X98461252Y-84160000D02*
X97038748Y-84160000D01*
%TO.C,R25*%
X132054724Y-73277500D02*
X131545276Y-73277500D01*
X132054724Y-74322500D02*
X131545276Y-74322500D01*
%TO.C,U9*%
X95540000Y-76040000D02*
X99660000Y-76040000D01*
X99660000Y-81160000D02*
X95540000Y-81160000D01*
X101340000Y-80600000D02*
X101670000Y-80360000D01*
X101670000Y-80840000D01*
X101340000Y-80600000D01*
G36*
X101670000Y-80840000D02*
G01*
X101340000Y-80600000D01*
X101670000Y-80360000D01*
X101670000Y-80840000D01*
G37*
%TO.C,Q2*%
X140140000Y-83040000D02*
X141660000Y-83040000D01*
X140140000Y-83090000D02*
X140140000Y-83040000D01*
X140140000Y-84990000D02*
X140140000Y-84210000D01*
X140140000Y-86160000D02*
X140140000Y-86110000D01*
X141660000Y-83040000D02*
X141660000Y-84040000D01*
X141660000Y-85160000D02*
X141660000Y-86160000D01*
X141660000Y-86160000D02*
X140140000Y-86160000D01*
X139600000Y-84220000D02*
X139840000Y-84550000D01*
X139360000Y-84550000D01*
X139600000Y-84220000D01*
G36*
X139840000Y-84550000D02*
G01*
X139360000Y-84550000D01*
X139600000Y-84220000D01*
X139840000Y-84550000D01*
G37*
%TO.C,R39*%
X137577500Y-70745276D02*
X137577500Y-71254724D01*
X138622500Y-70745276D02*
X138622500Y-71254724D01*
%TO.C,C7*%
X108490000Y-90146267D02*
X108490000Y-89853733D01*
X109510000Y-90146267D02*
X109510000Y-89853733D01*
%TO.C,L2*%
X95740000Y-58090000D02*
X102760000Y-58090000D01*
X95740000Y-59490000D02*
X95740000Y-58090000D01*
X95740000Y-64910000D02*
X95740000Y-63510000D01*
X102760000Y-58090000D02*
X102760000Y-59490000D01*
X102760000Y-63510000D02*
X102760000Y-64910000D01*
X102760000Y-64910000D02*
X95740000Y-64910000D01*
%TO.C,C3*%
X119340000Y-95288748D02*
X119340000Y-96711252D01*
X121160000Y-95288748D02*
X121160000Y-96711252D01*
%TO.C,D6*%
X145565000Y-57940000D02*
X145565000Y-60400000D01*
X147035000Y-57940000D02*
X145565000Y-57940000D01*
X147035000Y-60400000D02*
X147035000Y-57940000D01*
%TO.C,J2*%
X126965000Y-76980000D02*
X130250000Y-76980000D01*
X126965000Y-79630000D02*
X126965000Y-76980000D01*
X126965000Y-82170000D02*
X126965000Y-97520000D01*
X126965000Y-82170000D02*
X133535000Y-82170000D01*
X126965000Y-97520000D02*
X133535000Y-97520000D01*
X133535000Y-82170000D02*
X133535000Y-97520000D01*
%TO.C,C4*%
X115490000Y-95288748D02*
X115490000Y-96711252D01*
X117310000Y-95288748D02*
X117310000Y-96711252D01*
%TO.C,R35*%
X136845276Y-67877500D02*
X137354724Y-67877500D01*
X136845276Y-68922500D02*
X137354724Y-68922500D01*
%TO.C,R37*%
X140445276Y-73077500D02*
X140954724Y-73077500D01*
X140445276Y-74122500D02*
X140954724Y-74122500D01*
%TO.C,R14*%
X141954724Y-75877500D02*
X141445276Y-75877500D01*
X141954724Y-76922500D02*
X141445276Y-76922500D01*
%TO.C,U11*%
X140540000Y-69440000D02*
X142060000Y-69440000D01*
X140540000Y-69490000D02*
X140540000Y-69440000D01*
X140540000Y-71390000D02*
X140540000Y-70610000D01*
X140540000Y-72560000D02*
X140540000Y-72510000D01*
X142060000Y-69440000D02*
X142060000Y-70440000D01*
X142060000Y-71560000D02*
X142060000Y-72560000D01*
X142060000Y-72560000D02*
X140540000Y-72560000D01*
X140000000Y-70620000D02*
X140240000Y-70950000D01*
X139760000Y-70950000D01*
X140000000Y-70620000D01*
G36*
X140240000Y-70950000D02*
G01*
X139760000Y-70950000D01*
X140000000Y-70620000D01*
X140240000Y-70950000D01*
G37*
%TO.C,R15*%
X145245276Y-76277500D02*
X145754724Y-76277500D01*
X145245276Y-77322500D02*
X145754724Y-77322500D01*
%TO.C,C16*%
X124211252Y-57340000D02*
X122788748Y-57340000D01*
X124211252Y-59160000D02*
X122788748Y-59160000D01*
%TO.C,C15*%
X93990000Y-69146267D02*
X93990000Y-68853733D01*
X95010000Y-69146267D02*
X95010000Y-68853733D01*
%TO.C,R18*%
X92145276Y-60477500D02*
X92654724Y-60477500D01*
X92145276Y-61522500D02*
X92654724Y-61522500D01*
%TO.C,D12*%
X143290000Y-65950000D02*
X143290000Y-67650000D01*
X143290000Y-65950000D02*
X146550000Y-65950000D01*
X143290000Y-67650000D02*
X146550000Y-67650000D01*
%TO.C,Q7*%
X140340000Y-65840000D02*
X141860000Y-65840000D01*
X140340000Y-65890000D02*
X140340000Y-65840000D01*
X140340000Y-67790000D02*
X140340000Y-67010000D01*
X140340000Y-68960000D02*
X140340000Y-68910000D01*
X141860000Y-65840000D02*
X141860000Y-66840000D01*
X141860000Y-67960000D02*
X141860000Y-68960000D01*
X141860000Y-68960000D02*
X140340000Y-68960000D01*
X139800000Y-67020000D02*
X140040000Y-67350000D01*
X139560000Y-67350000D01*
X139800000Y-67020000D01*
G36*
X140040000Y-67350000D02*
G01*
X139560000Y-67350000D01*
X139800000Y-67020000D01*
X140040000Y-67350000D01*
G37*
%TO.C,C9*%
X90211252Y-94840000D02*
X88788748Y-94840000D01*
X90211252Y-96660000D02*
X88788748Y-96660000D01*
%TO.C,U2*%
X109290000Y-77350000D02*
X109290000Y-77620000D01*
X109290000Y-84250000D02*
X109290000Y-83980000D01*
X115710000Y-77350000D02*
X109290000Y-77350000D01*
X115710000Y-84250000D02*
X109290000Y-84250000D01*
X107560000Y-77660000D02*
X107220000Y-77190000D01*
X107900000Y-77190000D01*
X107560000Y-77660000D01*
G36*
X107560000Y-77660000D02*
G01*
X107220000Y-77190000D01*
X107900000Y-77190000D01*
X107560000Y-77660000D01*
G37*
%TO.C,U6*%
X139740000Y-79240000D02*
X141260000Y-79240000D01*
X139740000Y-80240000D02*
X139740000Y-79240000D01*
X139740000Y-82360000D02*
X139740000Y-81360000D01*
X141260000Y-79240000D02*
X141260000Y-79290000D01*
X141260000Y-80410000D02*
X141260000Y-81190000D01*
X141260000Y-82310000D02*
X141260000Y-82360000D01*
X141260000Y-82360000D02*
X139740000Y-82360000D01*
X141800000Y-81180000D02*
X141560000Y-80850000D01*
X142040000Y-80850000D01*
X141800000Y-81180000D01*
G36*
X141800000Y-81180000D02*
G01*
X141560000Y-80850000D01*
X142040000Y-80850000D01*
X141800000Y-81180000D01*
G37*
%TO.C,R41*%
X139154724Y-59477500D02*
X138645276Y-59477500D01*
X139154724Y-60522500D02*
X138645276Y-60522500D01*
%TO.C,R42*%
X134577500Y-57654724D02*
X134577500Y-57145276D01*
X135622500Y-57654724D02*
X135622500Y-57145276D01*
%TO.C,U12*%
X137140000Y-61040000D02*
X138660000Y-61040000D01*
X137140000Y-61090000D02*
X137140000Y-61040000D01*
X137140000Y-62990000D02*
X137140000Y-62210000D01*
X137140000Y-64160000D02*
X137140000Y-64110000D01*
X138660000Y-61040000D02*
X138660000Y-62040000D01*
X138660000Y-63160000D02*
X138660000Y-64160000D01*
X138660000Y-64160000D02*
X137140000Y-64160000D01*
X136600000Y-62220000D02*
X136840000Y-62550000D01*
X136360000Y-62550000D01*
X136600000Y-62220000D01*
G36*
X136840000Y-62550000D02*
G01*
X136360000Y-62550000D01*
X136600000Y-62220000D01*
X136840000Y-62550000D01*
G37*
%TO.C,R24*%
X141954724Y-97877500D02*
X141445276Y-97877500D01*
X141954724Y-98922500D02*
X141445276Y-98922500D01*
%TO.C,C14*%
X122740000Y-61490000D02*
X126490000Y-61490000D01*
X122740000Y-70945563D02*
X122740000Y-61490000D01*
X123804437Y-72010000D02*
X122740000Y-70945563D01*
X123804437Y-72010000D02*
X126490000Y-72010000D01*
X124615000Y-72875000D02*
X125865000Y-72875000D01*
X125240000Y-73500000D02*
X125240000Y-72250000D01*
X132195563Y-72010000D02*
X129510000Y-72010000D01*
X132195563Y-72010000D02*
X133260000Y-70945563D01*
X133260000Y-61490000D02*
X129510000Y-61490000D01*
X133260000Y-70945563D02*
X133260000Y-61490000D01*
%TO.C,D14*%
X143565000Y-57940000D02*
X143565000Y-60400000D01*
X145035000Y-57940000D02*
X143565000Y-57940000D01*
X145035000Y-60400000D02*
X145035000Y-57940000D01*
%TO.C,Q8*%
X141340000Y-60840000D02*
X142860000Y-60840000D01*
X141340000Y-60890000D02*
X141340000Y-60840000D01*
X141340000Y-62790000D02*
X141340000Y-62010000D01*
X141340000Y-63960000D02*
X141340000Y-63910000D01*
X142860000Y-60840000D02*
X142860000Y-61840000D01*
X142860000Y-62960000D02*
X142860000Y-63960000D01*
X142860000Y-63960000D02*
X141340000Y-63960000D01*
X140800000Y-62020000D02*
X141040000Y-62350000D01*
X140560000Y-62350000D01*
X140800000Y-62020000D01*
G36*
X141040000Y-62350000D02*
G01*
X140560000Y-62350000D01*
X140800000Y-62020000D01*
X141040000Y-62350000D01*
G37*
%TO.C,D13*%
X143565000Y-68140000D02*
X143565000Y-70600000D01*
X145035000Y-68140000D02*
X143565000Y-68140000D01*
X145035000Y-70600000D02*
X145035000Y-68140000D01*
%TO.C,R36*%
X137354724Y-65477500D02*
X136845276Y-65477500D01*
X137354724Y-66522500D02*
X136845276Y-66522500D01*
%TO.C,J3*%
X88850000Y-83580000D02*
X90550000Y-83580000D01*
X88850000Y-92920000D02*
X90550000Y-92920000D01*
%TO.C,R6*%
X145777500Y-84545276D02*
X145777500Y-85054724D01*
X146822500Y-84545276D02*
X146822500Y-85054724D01*
%TO.C,C17*%
X119711252Y-70340000D02*
X118288748Y-70340000D01*
X119711252Y-72160000D02*
X118288748Y-72160000D01*
%TO.C,R17*%
X92145276Y-57077500D02*
X92654724Y-57077500D01*
X92145276Y-58122500D02*
X92654724Y-58122500D01*
%TD*%
%LPC*%
%TO.C,JP1*%
G36*
X87850000Y-76000000D02*
G01*
X88150000Y-76000000D01*
X88150000Y-77500000D01*
X87850000Y-77500000D01*
X87850000Y-76000000D01*
G37*
%TD*%
D14*
%TO.C,R4*%
X102000000Y-88662500D03*
X102000000Y-86837500D03*
%TD*%
D15*
%TO.C,R21*%
X144187500Y-88800000D03*
X146012500Y-88800000D03*
%TD*%
D16*
%TO.C,Q4*%
X140362500Y-94650000D03*
X140362500Y-96550000D03*
X142237500Y-95600000D03*
%TD*%
%TO.C,Q5*%
X97062500Y-86850000D03*
X97062500Y-88750000D03*
X98937500Y-87800000D03*
%TD*%
D17*
%TO.C,U7*%
X89137500Y-59550000D03*
X89137500Y-57650000D03*
X87262500Y-58600000D03*
%TD*%
%TO.C,Q3*%
X89137500Y-63350000D03*
X89137500Y-61450000D03*
X87262500Y-62400000D03*
%TD*%
D18*
%TO.C,D1*%
X88125000Y-99200000D03*
X89875000Y-99200000D03*
%TD*%
D15*
%TO.C,R23*%
X144187500Y-91800000D03*
X146012500Y-91800000D03*
%TD*%
D19*
%TO.C,C10*%
X90250000Y-81862500D03*
X90250000Y-80137500D03*
%TD*%
D20*
%TO.C,C18*%
X111862500Y-57750000D03*
X110137500Y-57750000D03*
%TD*%
D21*
%TO.C,C6*%
X104500000Y-87687500D03*
X104500000Y-90812500D03*
%TD*%
D15*
%TO.C,R12*%
X145187500Y-56800000D03*
X147012500Y-56800000D03*
%TD*%
D21*
%TO.C,C8*%
X96400000Y-94437500D03*
X96400000Y-97562500D03*
%TD*%
D22*
%TO.C,L1*%
X110900000Y-97500000D03*
X110900000Y-94500000D03*
%TD*%
D23*
%TO.C,C12*%
X88687500Y-67250000D03*
X91812500Y-67250000D03*
%TD*%
D24*
%TO.C,D2*%
X146300000Y-93725000D03*
X146300000Y-95475000D03*
%TD*%
D25*
%TO.C,R32*%
X92312500Y-78400000D03*
X90487500Y-78400000D03*
%TD*%
%TO.C,R31*%
X94112500Y-82000000D03*
X92287500Y-82000000D03*
%TD*%
D15*
%TO.C,R19*%
X91487500Y-59400000D03*
X93312500Y-59400000D03*
%TD*%
D25*
%TO.C,R28*%
X121112500Y-88800000D03*
X119287500Y-88800000D03*
%TD*%
D26*
%TO.C,R1*%
X95250000Y-90337500D03*
X95250000Y-92162500D03*
%TD*%
D24*
%TO.C,D10*%
X144300000Y-93725000D03*
X144300000Y-95475000D03*
%TD*%
D27*
%TO.C,D11*%
X144450000Y-64000000D03*
X146950000Y-64000000D03*
%TD*%
D28*
%TO.C,J5*%
X154042500Y-69630000D03*
D29*
X154042500Y-64550000D03*
X154042500Y-59470000D03*
%TD*%
D20*
%TO.C,C13*%
X106612500Y-71250000D03*
X104887500Y-71250000D03*
%TD*%
D15*
%TO.C,R11*%
X140787500Y-78000000D03*
X142612500Y-78000000D03*
%TD*%
D25*
%TO.C,R26*%
X130112500Y-57000000D03*
X128287500Y-57000000D03*
%TD*%
%TO.C,R27*%
X121112500Y-92000000D03*
X119287500Y-92000000D03*
%TD*%
D15*
%TO.C,R10*%
X109087500Y-71250000D03*
X110912500Y-71250000D03*
%TD*%
D24*
%TO.C,D8*%
X144300000Y-78525000D03*
X144300000Y-80275000D03*
%TD*%
D30*
%TO.C,U1*%
X105850000Y-94862500D03*
X104900000Y-94862500D03*
X103950000Y-94862500D03*
X103950000Y-97137500D03*
X104900000Y-97137500D03*
X105850000Y-97137500D03*
%TD*%
D26*
%TO.C,R16*%
X144300000Y-83887500D03*
X144300000Y-85712500D03*
%TD*%
D31*
%TO.C,U5*%
X114220000Y-67790000D03*
X116500000Y-67790000D03*
D32*
X116500000Y-61490000D03*
D31*
X118780000Y-67790000D03*
%TD*%
D21*
%TO.C,C1*%
X100400000Y-94437500D03*
X100400000Y-97562500D03*
%TD*%
D14*
%TO.C,R44*%
X137900000Y-58312500D03*
X137900000Y-56487500D03*
%TD*%
D26*
%TO.C,R13*%
X136300000Y-73087500D03*
X136300000Y-74912500D03*
%TD*%
D15*
%TO.C,R8*%
X103837500Y-93000000D03*
X105662500Y-93000000D03*
%TD*%
D14*
%TO.C,R40*%
X135100000Y-62112500D03*
X135100000Y-60287500D03*
%TD*%
D15*
%TO.C,R20*%
X91487500Y-62600000D03*
X93312500Y-62600000D03*
%TD*%
D14*
%TO.C,R43*%
X140700000Y-58312500D03*
X140700000Y-56487500D03*
%TD*%
D24*
%TO.C,D7*%
X146300000Y-68925000D03*
X146300000Y-70675000D03*
%TD*%
D15*
%TO.C,R22*%
X140187500Y-88800000D03*
X142012500Y-88800000D03*
%TD*%
D26*
%TO.C,R5*%
X138500000Y-96887500D03*
X138500000Y-98712500D03*
%TD*%
D14*
%TO.C,R7*%
X88000000Y-81912500D03*
X88000000Y-80087500D03*
%TD*%
D33*
%TO.C,U4*%
X101950000Y-70905000D03*
X101950000Y-69635000D03*
X101950000Y-68365000D03*
X101950000Y-67095000D03*
X96550000Y-67095000D03*
X96550000Y-68365000D03*
X96550000Y-69635000D03*
X96550000Y-70905000D03*
D34*
X99250000Y-69000000D03*
%TD*%
D18*
%TO.C,D9*%
X91925000Y-99200000D03*
X93675000Y-99200000D03*
%TD*%
D15*
%TO.C,R29*%
X92487500Y-74400000D03*
X94312500Y-74400000D03*
%TD*%
D35*
%TO.C,C11*%
X91812500Y-70750000D03*
X88687500Y-70750000D03*
%TD*%
D25*
%TO.C,R38*%
X145212500Y-73600000D03*
X143387500Y-73600000D03*
%TD*%
D15*
%TO.C,R30*%
X90487500Y-76800000D03*
X92312500Y-76800000D03*
%TD*%
D36*
%TO.C,JP1*%
X88650000Y-76750000D03*
D37*
X87350000Y-76750000D03*
%TD*%
D38*
%TO.C,J1*%
X153955000Y-79630000D03*
D39*
X153955000Y-84710000D03*
X153955000Y-89790000D03*
X153955000Y-94870000D03*
%TD*%
D14*
%TO.C,R2*%
X95000000Y-87162500D03*
X95000000Y-85337500D03*
%TD*%
D17*
%TO.C,U8*%
X142037500Y-92750000D03*
X142037500Y-90850000D03*
X140162500Y-91800000D03*
%TD*%
D40*
%TO.C,D4*%
X108600000Y-66700000D03*
X108600000Y-61700000D03*
%TD*%
D24*
%TO.C,D3*%
X146300000Y-78525000D03*
X146300000Y-80275000D03*
%TD*%
D15*
%TO.C,R9*%
X113087500Y-71250000D03*
X114912500Y-71250000D03*
%TD*%
D20*
%TO.C,C2*%
X106112500Y-99000000D03*
X104387500Y-99000000D03*
%TD*%
D35*
%TO.C,C5*%
X99312500Y-83250000D03*
X96187500Y-83250000D03*
%TD*%
D25*
%TO.C,R25*%
X132712500Y-73800000D03*
X130887500Y-73800000D03*
%TD*%
D41*
%TO.C,U9*%
X100237500Y-80600000D03*
X100237500Y-79600000D03*
X100237500Y-78600000D03*
X100237500Y-77600000D03*
X100237500Y-76600000D03*
X94962500Y-76600000D03*
X94962500Y-77600000D03*
X94962500Y-78600000D03*
X94962500Y-79600000D03*
X94962500Y-80600000D03*
D42*
X97600000Y-78600000D03*
%TD*%
D16*
%TO.C,Q2*%
X139962500Y-83650000D03*
X139962500Y-85550000D03*
X141837500Y-84600000D03*
%TD*%
D26*
%TO.C,R39*%
X138100000Y-70087500D03*
X138100000Y-71912500D03*
%TD*%
D19*
%TO.C,C7*%
X109000000Y-90862500D03*
X109000000Y-89137500D03*
%TD*%
D43*
%TO.C,L2*%
X102275000Y-61500000D03*
X96225000Y-61500000D03*
%TD*%
D21*
%TO.C,C3*%
X120250000Y-94437500D03*
X120250000Y-97562500D03*
%TD*%
D24*
%TO.C,D6*%
X146300000Y-58725000D03*
X146300000Y-60475000D03*
%TD*%
D44*
%TO.C,J2*%
X130250000Y-79630000D03*
D45*
X130250000Y-84710000D03*
X130250000Y-89790000D03*
X130250000Y-94870000D03*
%TD*%
D21*
%TO.C,C4*%
X116400000Y-94437500D03*
X116400000Y-97562500D03*
%TD*%
D15*
%TO.C,R35*%
X136187500Y-68400000D03*
X138012500Y-68400000D03*
%TD*%
%TO.C,R37*%
X139787500Y-73600000D03*
X141612500Y-73600000D03*
%TD*%
D25*
%TO.C,R14*%
X142612500Y-76400000D03*
X140787500Y-76400000D03*
%TD*%
D16*
%TO.C,U11*%
X140362500Y-70050000D03*
X140362500Y-71950000D03*
X142237500Y-71000000D03*
%TD*%
D15*
%TO.C,R15*%
X144587500Y-76800000D03*
X146412500Y-76800000D03*
%TD*%
D35*
%TO.C,C16*%
X125062500Y-58250000D03*
X121937500Y-58250000D03*
%TD*%
D19*
%TO.C,C15*%
X94500000Y-69862500D03*
X94500000Y-68137500D03*
%TD*%
D15*
%TO.C,R18*%
X91487500Y-61000000D03*
X93312500Y-61000000D03*
%TD*%
D27*
%TO.C,D12*%
X144050000Y-66800000D03*
X146550000Y-66800000D03*
%TD*%
D16*
%TO.C,Q7*%
X140162500Y-66450000D03*
X140162500Y-68350000D03*
X142037500Y-67400000D03*
%TD*%
D35*
%TO.C,C9*%
X91062500Y-95750000D03*
X87937500Y-95750000D03*
%TD*%
D46*
%TO.C,U2*%
X107560000Y-78520000D03*
D47*
X113860000Y-80800000D03*
D46*
X107560000Y-83080000D03*
%TD*%
D17*
%TO.C,U6*%
X141437500Y-81750000D03*
X141437500Y-79850000D03*
X139562500Y-80800000D03*
%TD*%
D25*
%TO.C,R41*%
X139812500Y-60000000D03*
X137987500Y-60000000D03*
%TD*%
D14*
%TO.C,R42*%
X135100000Y-58312500D03*
X135100000Y-56487500D03*
%TD*%
D16*
%TO.C,U12*%
X136962500Y-61650000D03*
X136962500Y-63550000D03*
X138837500Y-62600000D03*
%TD*%
D25*
%TO.C,R24*%
X142612500Y-98400000D03*
X140787500Y-98400000D03*
%TD*%
D48*
%TO.C,C14*%
X128000000Y-70750000D03*
X128000000Y-62750000D03*
%TD*%
D24*
%TO.C,D14*%
X144300000Y-58725000D03*
X144300000Y-60475000D03*
%TD*%
D16*
%TO.C,Q8*%
X141162500Y-61450000D03*
X141162500Y-63350000D03*
X143037500Y-62400000D03*
%TD*%
D24*
%TO.C,D13*%
X144300000Y-68925000D03*
X144300000Y-70675000D03*
%TD*%
D25*
%TO.C,R36*%
X138012500Y-66000000D03*
X136187500Y-66000000D03*
%TD*%
D49*
%TO.C,J3*%
X91355000Y-85360000D03*
X91355000Y-91140000D03*
D50*
X92430000Y-85050000D03*
X92430000Y-85850000D03*
D51*
X92430000Y-87000000D03*
X92430000Y-88000000D03*
X92430000Y-88500000D03*
X92430000Y-89500000D03*
D50*
X92430000Y-90650000D03*
X92430000Y-91450000D03*
X92430000Y-91450000D03*
X92430000Y-90650000D03*
D51*
X92430000Y-90000000D03*
X92430000Y-89000000D03*
X92430000Y-87500000D03*
X92430000Y-86500000D03*
D50*
X92430000Y-85850000D03*
X92430000Y-85050000D03*
D52*
X91855000Y-83930000D03*
D53*
X87675000Y-83930000D03*
D52*
X91855000Y-92570000D03*
D53*
X87675000Y-92570000D03*
%TD*%
D26*
%TO.C,R6*%
X146300000Y-83887500D03*
X146300000Y-85712500D03*
%TD*%
D35*
%TO.C,C17*%
X120562500Y-71250000D03*
X117437500Y-71250000D03*
%TD*%
D15*
%TO.C,R17*%
X91487500Y-57600000D03*
X93312500Y-57600000D03*
%TD*%
%LPD*%
M02*
