%TF.GenerationSoftware,KiCad,Pcbnew,9.0.3+dfsg-1*%
%TF.CreationDate,2026-04-25T17:25:00+02:00*%
%TF.ProjectId,usbpd-adapter,75736270-642d-4616-9461-707465722e6b,rev?*%
%TF.SameCoordinates,Original*%
%TF.FileFunction,Legend,Top*%
%TF.FilePolarity,Positive*%
%FSLAX46Y46*%
G04 Gerber Fmt 4.6, Leading zero omitted, Abs format (unit mm)*
G04 Created by KiCad (PCBNEW 9.0.3+dfsg-1) date 2026-04-25 17:25:00*
%MOMM*%
%LPD*%
G01*
G04 APERTURE LIST*
G04 Aperture macros list*
%AMRoundRect*
0 Rectangle with rounded corners*
0 $1 Rounding radius*
0 $2 $3 $4 $5 $6 $7 $8 $9 X,Y pos of 4 corners*
0 Add a 4 corners polygon primitive as box body*
4,1,4,$2,$3,$4,$5,$6,$7,$8,$9,$2,$3,0*
0 Add four circle primitives for the rounded corners*
1,1,$1+$1,$2,$3*
1,1,$1+$1,$4,$5*
1,1,$1+$1,$6,$7*
1,1,$1+$1,$8,$9*
0 Add four rect primitives between the rounded corners*
20,1,$1+$1,$2,$3,$4,$5,0*
20,1,$1+$1,$4,$5,$6,$7,0*
20,1,$1+$1,$6,$7,$8,$9,0*
20,1,$1+$1,$8,$9,$2,$3,0*%
%AMFreePoly0*
4,1,23,0.500000,-0.750000,0.000000,-0.750000,0.000000,-0.745722,-0.065263,-0.745722,-0.191342,-0.711940,-0.304381,-0.646677,-0.396677,-0.554381,-0.461940,-0.441342,-0.495722,-0.315263,-0.495722,-0.250000,-0.500000,-0.250000,-0.500000,0.250000,-0.495722,0.250000,-0.495722,0.315263,-0.461940,0.441342,-0.396677,0.554381,-0.304381,0.646677,-0.191342,0.711940,-0.065263,0.745722,0.000000,0.745722,
0.000000,0.750000,0.500000,0.750000,0.500000,-0.750000,0.500000,-0.750000,$1*%
%AMFreePoly1*
4,1,23,0.000000,0.745722,0.065263,0.745722,0.191342,0.711940,0.304381,0.646677,0.396677,0.554381,0.461940,0.441342,0.495722,0.315263,0.495722,0.250000,0.500000,0.250000,0.500000,-0.250000,0.495722,-0.250000,0.495722,-0.315263,0.461940,-0.441342,0.396677,-0.554381,0.304381,-0.646677,0.191342,-0.711940,0.065263,-0.745722,0.000000,-0.745722,0.000000,-0.750000,-0.500000,-0.750000,
-0.500000,0.750000,0.000000,0.750000,0.000000,0.745722,0.000000,0.745722,$1*%
G04 Aperture macros list end*
%ADD10C,0.100000*%
%ADD11C,0.250000*%
%ADD12C,0.150000*%
%ADD13C,0.120000*%
%ADD14RoundRect,0.250000X0.650000X-1.500000X0.650000X1.500000X-0.650000X1.500000X-0.650000X-1.500000X0*%
%ADD15RoundRect,0.250000X-0.850000X-0.350000X0.850000X-0.350000X0.850000X0.350000X-0.850000X0.350000X0*%
%ADD16RoundRect,0.249997X-2.950003X-2.650003X2.950003X-2.650003X2.950003X2.650003X-2.950003X2.650003X0*%
%ADD17RoundRect,0.237500X-0.237500X0.250000X-0.237500X-0.250000X0.237500X-0.250000X0.237500X0.250000X0*%
%ADD18RoundRect,0.237500X-0.237500X0.287500X-0.237500X-0.287500X0.237500X-0.287500X0.237500X0.287500X0*%
%ADD19RoundRect,0.250001X0.949999X-0.949999X0.949999X0.949999X-0.949999X0.949999X-0.949999X-0.949999X0*%
%ADD20C,2.400000*%
%ADD21RoundRect,0.250000X1.000000X-1.750000X1.000000X1.750000X-1.000000X1.750000X-1.000000X-1.750000X0*%
%ADD22RoundRect,0.250000X0.925000X1.500000X-0.925000X1.500000X-0.925000X-1.500000X0.925000X-1.500000X0*%
%ADD23RoundRect,0.250000X0.350000X-0.850000X0.350000X0.850000X-0.350000X0.850000X-0.350000X-0.850000X0*%
%ADD24RoundRect,0.249997X2.650003X-2.950003X2.650003X2.950003X-2.650003X2.950003X-2.650003X-2.950003X0*%
%ADD25R,1.550000X0.600000*%
%ADD26R,2.600000X3.100000*%
%ADD27RoundRect,0.237500X-0.250000X-0.237500X0.250000X-0.237500X0.250000X0.237500X-0.250000X0.237500X0*%
%ADD28RoundRect,0.237500X0.300000X0.237500X-0.300000X0.237500X-0.300000X-0.237500X0.300000X-0.237500X0*%
%ADD29RoundRect,0.250000X0.412500X0.650000X-0.412500X0.650000X-0.412500X-0.650000X0.412500X-0.650000X0*%
%ADD30RoundRect,0.237500X0.237500X-0.300000X0.237500X0.300000X-0.237500X0.300000X-0.237500X-0.300000X0*%
%ADD31RoundRect,0.250000X-0.412500X-0.650000X0.412500X-0.650000X0.412500X0.650000X-0.412500X0.650000X0*%
%ADD32RoundRect,0.237500X0.237500X-0.250000X0.237500X0.250000X-0.237500X0.250000X-0.237500X-0.250000X0*%
%ADD33RoundRect,0.237500X0.237500X-0.287500X0.237500X0.287500X-0.237500X0.287500X-0.237500X-0.287500X0*%
%ADD34RoundRect,0.250000X-0.650000X0.412500X-0.650000X-0.412500X0.650000X-0.412500X0.650000X0.412500X0*%
%ADD35RoundRect,0.250000X1.600000X-0.300000X1.600000X0.300000X-1.600000X0.300000X-1.600000X-0.300000X0*%
%ADD36RoundRect,0.150000X-0.150000X0.512500X-0.150000X-0.512500X0.150000X-0.512500X0.150000X0.512500X0*%
%ADD37RoundRect,0.150000X0.587500X0.150000X-0.587500X0.150000X-0.587500X-0.150000X0.587500X-0.150000X0*%
%ADD38FreePoly0,180.000000*%
%ADD39FreePoly1,180.000000*%
%ADD40R,2.780000X2.780000*%
%ADD41C,2.780000*%
%ADD42RoundRect,0.100000X-0.637500X-0.100000X0.637500X-0.100000X0.637500X0.100000X-0.637500X0.100000X0*%
%ADD43R,2.800000X2.800000*%
%ADD44C,2.800000*%
%ADD45C,0.650000*%
%ADD46RoundRect,0.150000X-0.425000X0.150000X-0.425000X-0.150000X0.425000X-0.150000X0.425000X0.150000X0*%
%ADD47RoundRect,0.075000X-0.500000X0.075000X-0.500000X-0.075000X0.500000X-0.075000X0.500000X0.075000X0*%
%ADD48O,2.100000X1.000000*%
%ADD49O,1.800000X1.000000*%
G04 APERTURE END LIST*
D10*
X87291466Y-63896115D02*
X87291466Y-63134211D01*
X87672419Y-62134211D02*
X87672419Y-62705639D01*
X87672419Y-62419925D02*
X86672419Y-62419925D01*
X86672419Y-62419925D02*
X86815276Y-62515163D01*
X86815276Y-62515163D02*
X86910514Y-62610401D01*
X86910514Y-62610401D02*
X86958133Y-62705639D01*
X86767657Y-61753258D02*
X86720038Y-61705639D01*
X86720038Y-61705639D02*
X86672419Y-61610401D01*
X86672419Y-61610401D02*
X86672419Y-61372306D01*
X86672419Y-61372306D02*
X86720038Y-61277068D01*
X86720038Y-61277068D02*
X86767657Y-61229449D01*
X86767657Y-61229449D02*
X86862895Y-61181830D01*
X86862895Y-61181830D02*
X86958133Y-61181830D01*
X86958133Y-61181830D02*
X87100990Y-61229449D01*
X87100990Y-61229449D02*
X87672419Y-61800877D01*
X87672419Y-61800877D02*
X87672419Y-61181830D01*
X86672419Y-60896115D02*
X87672419Y-60562782D01*
X87672419Y-60562782D02*
X86672419Y-60229449D01*
X87291466Y-59296115D02*
X87291466Y-58534211D01*
X86672419Y-57581830D02*
X86672419Y-58058020D01*
X86672419Y-58058020D02*
X87148609Y-58105639D01*
X87148609Y-58105639D02*
X87100990Y-58058020D01*
X87100990Y-58058020D02*
X87053371Y-57962782D01*
X87053371Y-57962782D02*
X87053371Y-57724687D01*
X87053371Y-57724687D02*
X87100990Y-57629449D01*
X87100990Y-57629449D02*
X87148609Y-57581830D01*
X87148609Y-57581830D02*
X87243847Y-57534211D01*
X87243847Y-57534211D02*
X87481942Y-57534211D01*
X87481942Y-57534211D02*
X87577180Y-57581830D01*
X87577180Y-57581830D02*
X87624800Y-57629449D01*
X87624800Y-57629449D02*
X87672419Y-57724687D01*
X87672419Y-57724687D02*
X87672419Y-57962782D01*
X87672419Y-57962782D02*
X87624800Y-58058020D01*
X87624800Y-58058020D02*
X87577180Y-58105639D01*
X86672419Y-57248496D02*
X87672419Y-56915163D01*
X87672419Y-56915163D02*
X86672419Y-56581830D01*
X134241466Y-71946115D02*
X134241466Y-71184211D01*
X134622419Y-70184211D02*
X134622419Y-70755639D01*
X134622419Y-70469925D02*
X133622419Y-70469925D01*
X133622419Y-70469925D02*
X133765276Y-70565163D01*
X133765276Y-70565163D02*
X133860514Y-70660401D01*
X133860514Y-70660401D02*
X133908133Y-70755639D01*
X133717657Y-69803258D02*
X133670038Y-69755639D01*
X133670038Y-69755639D02*
X133622419Y-69660401D01*
X133622419Y-69660401D02*
X133622419Y-69422306D01*
X133622419Y-69422306D02*
X133670038Y-69327068D01*
X133670038Y-69327068D02*
X133717657Y-69279449D01*
X133717657Y-69279449D02*
X133812895Y-69231830D01*
X133812895Y-69231830D02*
X133908133Y-69231830D01*
X133908133Y-69231830D02*
X134050990Y-69279449D01*
X134050990Y-69279449D02*
X134622419Y-69850877D01*
X134622419Y-69850877D02*
X134622419Y-69231830D01*
X133622419Y-68946115D02*
X134622419Y-68612782D01*
X134622419Y-68612782D02*
X133622419Y-68279449D01*
X134241466Y-60946115D02*
X134241466Y-60184211D01*
X133622419Y-59231830D02*
X133622419Y-59708020D01*
X133622419Y-59708020D02*
X134098609Y-59755639D01*
X134098609Y-59755639D02*
X134050990Y-59708020D01*
X134050990Y-59708020D02*
X134003371Y-59612782D01*
X134003371Y-59612782D02*
X134003371Y-59374687D01*
X134003371Y-59374687D02*
X134050990Y-59279449D01*
X134050990Y-59279449D02*
X134098609Y-59231830D01*
X134098609Y-59231830D02*
X134193847Y-59184211D01*
X134193847Y-59184211D02*
X134431942Y-59184211D01*
X134431942Y-59184211D02*
X134527180Y-59231830D01*
X134527180Y-59231830D02*
X134574800Y-59279449D01*
X134574800Y-59279449D02*
X134622419Y-59374687D01*
X134622419Y-59374687D02*
X134622419Y-59612782D01*
X134622419Y-59612782D02*
X134574800Y-59708020D01*
X134574800Y-59708020D02*
X134527180Y-59755639D01*
X133622419Y-58898496D02*
X134622419Y-58565163D01*
X134622419Y-58565163D02*
X133622419Y-58231830D01*
X133670038Y-65922306D02*
X133622419Y-66017544D01*
X133622419Y-66017544D02*
X133622419Y-66160401D01*
X133622419Y-66160401D02*
X133670038Y-66303258D01*
X133670038Y-66303258D02*
X133765276Y-66398496D01*
X133765276Y-66398496D02*
X133860514Y-66446115D01*
X133860514Y-66446115D02*
X134050990Y-66493734D01*
X134050990Y-66493734D02*
X134193847Y-66493734D01*
X134193847Y-66493734D02*
X134384323Y-66446115D01*
X134384323Y-66446115D02*
X134479561Y-66398496D01*
X134479561Y-66398496D02*
X134574800Y-66303258D01*
X134574800Y-66303258D02*
X134622419Y-66160401D01*
X134622419Y-66160401D02*
X134622419Y-66065163D01*
X134622419Y-66065163D02*
X134574800Y-65922306D01*
X134574800Y-65922306D02*
X134527180Y-65874687D01*
X134527180Y-65874687D02*
X134193847Y-65874687D01*
X134193847Y-65874687D02*
X134193847Y-66065163D01*
X134622419Y-65446115D02*
X133622419Y-65446115D01*
X133622419Y-65446115D02*
X134622419Y-64874687D01*
X134622419Y-64874687D02*
X133622419Y-64874687D01*
X134622419Y-64398496D02*
X133622419Y-64398496D01*
X133622419Y-64398496D02*
X133622419Y-64160401D01*
X133622419Y-64160401D02*
X133670038Y-64017544D01*
X133670038Y-64017544D02*
X133765276Y-63922306D01*
X133765276Y-63922306D02*
X133860514Y-63874687D01*
X133860514Y-63874687D02*
X134050990Y-63827068D01*
X134050990Y-63827068D02*
X134193847Y-63827068D01*
X134193847Y-63827068D02*
X134384323Y-63874687D01*
X134384323Y-63874687D02*
X134479561Y-63922306D01*
X134479561Y-63922306D02*
X134574800Y-64017544D01*
X134574800Y-64017544D02*
X134622419Y-64160401D01*
X134622419Y-64160401D02*
X134622419Y-64398496D01*
X134491466Y-81446115D02*
X134491466Y-80684211D01*
X134872419Y-81065163D02*
X134110514Y-81065163D01*
X134872419Y-79684211D02*
X134872419Y-80255639D01*
X134872419Y-79969925D02*
X133872419Y-79969925D01*
X133872419Y-79969925D02*
X134015276Y-80065163D01*
X134015276Y-80065163D02*
X134110514Y-80160401D01*
X134110514Y-80160401D02*
X134158133Y-80255639D01*
X133967657Y-79303258D02*
X133920038Y-79255639D01*
X133920038Y-79255639D02*
X133872419Y-79160401D01*
X133872419Y-79160401D02*
X133872419Y-78922306D01*
X133872419Y-78922306D02*
X133920038Y-78827068D01*
X133920038Y-78827068D02*
X133967657Y-78779449D01*
X133967657Y-78779449D02*
X134062895Y-78731830D01*
X134062895Y-78731830D02*
X134158133Y-78731830D01*
X134158133Y-78731830D02*
X134300990Y-78779449D01*
X134300990Y-78779449D02*
X134872419Y-79350877D01*
X134872419Y-79350877D02*
X134872419Y-78731830D01*
X133872419Y-78446115D02*
X134872419Y-78112782D01*
X134872419Y-78112782D02*
X133872419Y-77779449D01*
X134741466Y-96446115D02*
X134741466Y-95684211D01*
X135122419Y-96065163D02*
X134360514Y-96065163D01*
X134122419Y-94731830D02*
X134122419Y-95208020D01*
X134122419Y-95208020D02*
X134598609Y-95255639D01*
X134598609Y-95255639D02*
X134550990Y-95208020D01*
X134550990Y-95208020D02*
X134503371Y-95112782D01*
X134503371Y-95112782D02*
X134503371Y-94874687D01*
X134503371Y-94874687D02*
X134550990Y-94779449D01*
X134550990Y-94779449D02*
X134598609Y-94731830D01*
X134598609Y-94731830D02*
X134693847Y-94684211D01*
X134693847Y-94684211D02*
X134931942Y-94684211D01*
X134931942Y-94684211D02*
X135027180Y-94731830D01*
X135027180Y-94731830D02*
X135074800Y-94779449D01*
X135074800Y-94779449D02*
X135122419Y-94874687D01*
X135122419Y-94874687D02*
X135122419Y-95112782D01*
X135122419Y-95112782D02*
X135074800Y-95208020D01*
X135074800Y-95208020D02*
X135027180Y-95255639D01*
X134122419Y-94398496D02*
X135122419Y-94065163D01*
X135122419Y-94065163D02*
X134122419Y-93731830D01*
X134170038Y-85672306D02*
X134122419Y-85767544D01*
X134122419Y-85767544D02*
X134122419Y-85910401D01*
X134122419Y-85910401D02*
X134170038Y-86053258D01*
X134170038Y-86053258D02*
X134265276Y-86148496D01*
X134265276Y-86148496D02*
X134360514Y-86196115D01*
X134360514Y-86196115D02*
X134550990Y-86243734D01*
X134550990Y-86243734D02*
X134693847Y-86243734D01*
X134693847Y-86243734D02*
X134884323Y-86196115D01*
X134884323Y-86196115D02*
X134979561Y-86148496D01*
X134979561Y-86148496D02*
X135074800Y-86053258D01*
X135074800Y-86053258D02*
X135122419Y-85910401D01*
X135122419Y-85910401D02*
X135122419Y-85815163D01*
X135122419Y-85815163D02*
X135074800Y-85672306D01*
X135074800Y-85672306D02*
X135027180Y-85624687D01*
X135027180Y-85624687D02*
X134693847Y-85624687D01*
X134693847Y-85624687D02*
X134693847Y-85815163D01*
X135122419Y-85196115D02*
X134122419Y-85196115D01*
X134122419Y-85196115D02*
X135122419Y-84624687D01*
X135122419Y-84624687D02*
X134122419Y-84624687D01*
X135122419Y-84148496D02*
X134122419Y-84148496D01*
X134122419Y-84148496D02*
X134122419Y-83910401D01*
X134122419Y-83910401D02*
X134170038Y-83767544D01*
X134170038Y-83767544D02*
X134265276Y-83672306D01*
X134265276Y-83672306D02*
X134360514Y-83624687D01*
X134360514Y-83624687D02*
X134550990Y-83577068D01*
X134550990Y-83577068D02*
X134693847Y-83577068D01*
X134693847Y-83577068D02*
X134884323Y-83624687D01*
X134884323Y-83624687D02*
X134979561Y-83672306D01*
X134979561Y-83672306D02*
X135074800Y-83767544D01*
X135074800Y-83767544D02*
X135122419Y-83910401D01*
X135122419Y-83910401D02*
X135122419Y-84148496D01*
X134170038Y-90922306D02*
X134122419Y-91017544D01*
X134122419Y-91017544D02*
X134122419Y-91160401D01*
X134122419Y-91160401D02*
X134170038Y-91303258D01*
X134170038Y-91303258D02*
X134265276Y-91398496D01*
X134265276Y-91398496D02*
X134360514Y-91446115D01*
X134360514Y-91446115D02*
X134550990Y-91493734D01*
X134550990Y-91493734D02*
X134693847Y-91493734D01*
X134693847Y-91493734D02*
X134884323Y-91446115D01*
X134884323Y-91446115D02*
X134979561Y-91398496D01*
X134979561Y-91398496D02*
X135074800Y-91303258D01*
X135074800Y-91303258D02*
X135122419Y-91160401D01*
X135122419Y-91160401D02*
X135122419Y-91065163D01*
X135122419Y-91065163D02*
X135074800Y-90922306D01*
X135074800Y-90922306D02*
X135027180Y-90874687D01*
X135027180Y-90874687D02*
X134693847Y-90874687D01*
X134693847Y-90874687D02*
X134693847Y-91065163D01*
X135122419Y-90446115D02*
X134122419Y-90446115D01*
X134122419Y-90446115D02*
X135122419Y-89874687D01*
X135122419Y-89874687D02*
X134122419Y-89874687D01*
X135122419Y-89398496D02*
X134122419Y-89398496D01*
X134122419Y-89398496D02*
X134122419Y-89160401D01*
X134122419Y-89160401D02*
X134170038Y-89017544D01*
X134170038Y-89017544D02*
X134265276Y-88922306D01*
X134265276Y-88922306D02*
X134360514Y-88874687D01*
X134360514Y-88874687D02*
X134550990Y-88827068D01*
X134550990Y-88827068D02*
X134693847Y-88827068D01*
X134693847Y-88827068D02*
X134884323Y-88874687D01*
X134884323Y-88874687D02*
X134979561Y-88922306D01*
X134979561Y-88922306D02*
X135074800Y-89017544D01*
X135074800Y-89017544D02*
X135122419Y-89160401D01*
X135122419Y-89160401D02*
X135122419Y-89398496D01*
X125670038Y-85422306D02*
X125622419Y-85517544D01*
X125622419Y-85517544D02*
X125622419Y-85660401D01*
X125622419Y-85660401D02*
X125670038Y-85803258D01*
X125670038Y-85803258D02*
X125765276Y-85898496D01*
X125765276Y-85898496D02*
X125860514Y-85946115D01*
X125860514Y-85946115D02*
X126050990Y-85993734D01*
X126050990Y-85993734D02*
X126193847Y-85993734D01*
X126193847Y-85993734D02*
X126384323Y-85946115D01*
X126384323Y-85946115D02*
X126479561Y-85898496D01*
X126479561Y-85898496D02*
X126574800Y-85803258D01*
X126574800Y-85803258D02*
X126622419Y-85660401D01*
X126622419Y-85660401D02*
X126622419Y-85565163D01*
X126622419Y-85565163D02*
X126574800Y-85422306D01*
X126574800Y-85422306D02*
X126527180Y-85374687D01*
X126527180Y-85374687D02*
X126193847Y-85374687D01*
X126193847Y-85374687D02*
X126193847Y-85565163D01*
X126622419Y-84946115D02*
X125622419Y-84946115D01*
X125622419Y-84946115D02*
X126622419Y-84374687D01*
X126622419Y-84374687D02*
X125622419Y-84374687D01*
X126622419Y-83898496D02*
X125622419Y-83898496D01*
X125622419Y-83898496D02*
X125622419Y-83660401D01*
X125622419Y-83660401D02*
X125670038Y-83517544D01*
X125670038Y-83517544D02*
X125765276Y-83422306D01*
X125765276Y-83422306D02*
X125860514Y-83374687D01*
X125860514Y-83374687D02*
X126050990Y-83327068D01*
X126050990Y-83327068D02*
X126193847Y-83327068D01*
X126193847Y-83327068D02*
X126384323Y-83374687D01*
X126384323Y-83374687D02*
X126479561Y-83422306D01*
X126479561Y-83422306D02*
X126574800Y-83517544D01*
X126574800Y-83517544D02*
X126622419Y-83660401D01*
X126622419Y-83660401D02*
X126622419Y-83898496D01*
X125670038Y-90672306D02*
X125622419Y-90767544D01*
X125622419Y-90767544D02*
X125622419Y-90910401D01*
X125622419Y-90910401D02*
X125670038Y-91053258D01*
X125670038Y-91053258D02*
X125765276Y-91148496D01*
X125765276Y-91148496D02*
X125860514Y-91196115D01*
X125860514Y-91196115D02*
X126050990Y-91243734D01*
X126050990Y-91243734D02*
X126193847Y-91243734D01*
X126193847Y-91243734D02*
X126384323Y-91196115D01*
X126384323Y-91196115D02*
X126479561Y-91148496D01*
X126479561Y-91148496D02*
X126574800Y-91053258D01*
X126574800Y-91053258D02*
X126622419Y-90910401D01*
X126622419Y-90910401D02*
X126622419Y-90815163D01*
X126622419Y-90815163D02*
X126574800Y-90672306D01*
X126574800Y-90672306D02*
X126527180Y-90624687D01*
X126527180Y-90624687D02*
X126193847Y-90624687D01*
X126193847Y-90624687D02*
X126193847Y-90815163D01*
X126622419Y-90196115D02*
X125622419Y-90196115D01*
X125622419Y-90196115D02*
X126622419Y-89624687D01*
X126622419Y-89624687D02*
X125622419Y-89624687D01*
X126622419Y-89148496D02*
X125622419Y-89148496D01*
X125622419Y-89148496D02*
X125622419Y-88910401D01*
X125622419Y-88910401D02*
X125670038Y-88767544D01*
X125670038Y-88767544D02*
X125765276Y-88672306D01*
X125765276Y-88672306D02*
X125860514Y-88624687D01*
X125860514Y-88624687D02*
X126050990Y-88577068D01*
X126050990Y-88577068D02*
X126193847Y-88577068D01*
X126193847Y-88577068D02*
X126384323Y-88624687D01*
X126384323Y-88624687D02*
X126479561Y-88672306D01*
X126479561Y-88672306D02*
X126574800Y-88767544D01*
X126574800Y-88767544D02*
X126622419Y-88910401D01*
X126622419Y-88910401D02*
X126622419Y-89148496D01*
X126241466Y-96196115D02*
X126241466Y-95434211D01*
X126622419Y-95815163D02*
X125860514Y-95815163D01*
X125622419Y-94481830D02*
X125622419Y-94958020D01*
X125622419Y-94958020D02*
X126098609Y-95005639D01*
X126098609Y-95005639D02*
X126050990Y-94958020D01*
X126050990Y-94958020D02*
X126003371Y-94862782D01*
X126003371Y-94862782D02*
X126003371Y-94624687D01*
X126003371Y-94624687D02*
X126050990Y-94529449D01*
X126050990Y-94529449D02*
X126098609Y-94481830D01*
X126098609Y-94481830D02*
X126193847Y-94434211D01*
X126193847Y-94434211D02*
X126431942Y-94434211D01*
X126431942Y-94434211D02*
X126527180Y-94481830D01*
X126527180Y-94481830D02*
X126574800Y-94529449D01*
X126574800Y-94529449D02*
X126622419Y-94624687D01*
X126622419Y-94624687D02*
X126622419Y-94862782D01*
X126622419Y-94862782D02*
X126574800Y-94958020D01*
X126574800Y-94958020D02*
X126527180Y-95005639D01*
X125622419Y-94148496D02*
X126622419Y-93815163D01*
X126622419Y-93815163D02*
X125622419Y-93481830D01*
X118327693Y-88122419D02*
X117756265Y-88122419D01*
X118041979Y-88122419D02*
X118041979Y-87122419D01*
X118041979Y-87122419D02*
X117946741Y-87265276D01*
X117946741Y-87265276D02*
X117851503Y-87360514D01*
X117851503Y-87360514D02*
X117756265Y-87408133D01*
X118708646Y-87217657D02*
X118756265Y-87170038D01*
X118756265Y-87170038D02*
X118851503Y-87122419D01*
X118851503Y-87122419D02*
X119089598Y-87122419D01*
X119089598Y-87122419D02*
X119184836Y-87170038D01*
X119184836Y-87170038D02*
X119232455Y-87217657D01*
X119232455Y-87217657D02*
X119280074Y-87312895D01*
X119280074Y-87312895D02*
X119280074Y-87408133D01*
X119280074Y-87408133D02*
X119232455Y-87550990D01*
X119232455Y-87550990D02*
X118661027Y-88122419D01*
X118661027Y-88122419D02*
X119280074Y-88122419D01*
X119565789Y-87122419D02*
X119899122Y-88122419D01*
X119899122Y-88122419D02*
X120232455Y-87122419D01*
X114280074Y-87122419D02*
X113803884Y-87122419D01*
X113803884Y-87122419D02*
X113756265Y-87598609D01*
X113756265Y-87598609D02*
X113803884Y-87550990D01*
X113803884Y-87550990D02*
X113899122Y-87503371D01*
X113899122Y-87503371D02*
X114137217Y-87503371D01*
X114137217Y-87503371D02*
X114232455Y-87550990D01*
X114232455Y-87550990D02*
X114280074Y-87598609D01*
X114280074Y-87598609D02*
X114327693Y-87693847D01*
X114327693Y-87693847D02*
X114327693Y-87931942D01*
X114327693Y-87931942D02*
X114280074Y-88027180D01*
X114280074Y-88027180D02*
X114232455Y-88074800D01*
X114232455Y-88074800D02*
X114137217Y-88122419D01*
X114137217Y-88122419D02*
X113899122Y-88122419D01*
X113899122Y-88122419D02*
X113803884Y-88074800D01*
X113803884Y-88074800D02*
X113756265Y-88027180D01*
X114613408Y-87122419D02*
X114946741Y-88122419D01*
X114946741Y-88122419D02*
X115280074Y-87122419D01*
X99161027Y-92122419D02*
X99494360Y-93122419D01*
X99494360Y-93122419D02*
X99827693Y-92122419D01*
X100161027Y-93122419D02*
X100161027Y-92455752D01*
X100161027Y-92122419D02*
X100113408Y-92170038D01*
X100113408Y-92170038D02*
X100161027Y-92217657D01*
X100161027Y-92217657D02*
X100208646Y-92170038D01*
X100208646Y-92170038D02*
X100161027Y-92122419D01*
X100161027Y-92122419D02*
X100161027Y-92217657D01*
X100637217Y-92455752D02*
X100637217Y-93122419D01*
X100637217Y-92550990D02*
X100684836Y-92503371D01*
X100684836Y-92503371D02*
X100780074Y-92455752D01*
X100780074Y-92455752D02*
X100922931Y-92455752D01*
X100922931Y-92455752D02*
X101018169Y-92503371D01*
X101018169Y-92503371D02*
X101065788Y-92598609D01*
X101065788Y-92598609D02*
X101065788Y-93122419D01*
D11*
X124495571Y-96811717D02*
X124447952Y-96859336D01*
X124447952Y-96859336D02*
X124305095Y-96954574D01*
X124305095Y-96954574D02*
X124209857Y-97002193D01*
X124209857Y-97002193D02*
X124067000Y-97049812D01*
X124067000Y-97049812D02*
X123828904Y-97097431D01*
X123828904Y-97097431D02*
X123638428Y-97097431D01*
X123638428Y-97097431D02*
X123400333Y-97049812D01*
X123400333Y-97049812D02*
X123257476Y-97002193D01*
X123257476Y-97002193D02*
X123162238Y-96954574D01*
X123162238Y-96954574D02*
X123019380Y-96859336D01*
X123019380Y-96859336D02*
X122971761Y-96811717D01*
X124019380Y-95859336D02*
X124067000Y-95906955D01*
X124067000Y-95906955D02*
X124114619Y-96049812D01*
X124114619Y-96049812D02*
X124114619Y-96145050D01*
X124114619Y-96145050D02*
X124067000Y-96287907D01*
X124067000Y-96287907D02*
X123971761Y-96383145D01*
X123971761Y-96383145D02*
X123876523Y-96430764D01*
X123876523Y-96430764D02*
X123686047Y-96478383D01*
X123686047Y-96478383D02*
X123543190Y-96478383D01*
X123543190Y-96478383D02*
X123352714Y-96430764D01*
X123352714Y-96430764D02*
X123257476Y-96383145D01*
X123257476Y-96383145D02*
X123162238Y-96287907D01*
X123162238Y-96287907D02*
X123114619Y-96145050D01*
X123114619Y-96145050D02*
X123114619Y-96049812D01*
X123114619Y-96049812D02*
X123162238Y-95906955D01*
X123162238Y-95906955D02*
X123209857Y-95859336D01*
X124495571Y-95526002D02*
X124447952Y-95478383D01*
X124447952Y-95478383D02*
X124305095Y-95383145D01*
X124305095Y-95383145D02*
X124209857Y-95335526D01*
X124209857Y-95335526D02*
X124067000Y-95287907D01*
X124067000Y-95287907D02*
X123828904Y-95240288D01*
X123828904Y-95240288D02*
X123638428Y-95240288D01*
X123638428Y-95240288D02*
X123400333Y-95287907D01*
X123400333Y-95287907D02*
X123257476Y-95335526D01*
X123257476Y-95335526D02*
X123162238Y-95383145D01*
X123162238Y-95383145D02*
X123019380Y-95478383D01*
X123019380Y-95478383D02*
X122971761Y-95526002D01*
X123828904Y-94049811D02*
X123828904Y-93573621D01*
X124114619Y-94145049D02*
X123114619Y-93811716D01*
X123114619Y-93811716D02*
X124114619Y-93478383D01*
X124019380Y-93145049D02*
X124067000Y-93097430D01*
X124067000Y-93097430D02*
X124114619Y-93145049D01*
X124114619Y-93145049D02*
X124067000Y-93192668D01*
X124067000Y-93192668D02*
X124019380Y-93145049D01*
X124019380Y-93145049D02*
X124114619Y-93145049D01*
X123590809Y-91573621D02*
X123590809Y-91906954D01*
X124114619Y-91906954D02*
X123114619Y-91906954D01*
X123114619Y-91906954D02*
X123114619Y-91430764D01*
X124114619Y-90621240D02*
X123590809Y-90621240D01*
X123590809Y-90621240D02*
X123495571Y-90668859D01*
X123495571Y-90668859D02*
X123447952Y-90764097D01*
X123447952Y-90764097D02*
X123447952Y-90954573D01*
X123447952Y-90954573D02*
X123495571Y-91049811D01*
X124067000Y-90621240D02*
X124114619Y-90716478D01*
X124114619Y-90716478D02*
X124114619Y-90954573D01*
X124114619Y-90954573D02*
X124067000Y-91049811D01*
X124067000Y-91049811D02*
X123971761Y-91097430D01*
X123971761Y-91097430D02*
X123876523Y-91097430D01*
X123876523Y-91097430D02*
X123781285Y-91049811D01*
X123781285Y-91049811D02*
X123733666Y-90954573D01*
X123733666Y-90954573D02*
X123733666Y-90716478D01*
X123733666Y-90716478D02*
X123686047Y-90621240D01*
X124067000Y-89716478D02*
X124114619Y-89811716D01*
X124114619Y-89811716D02*
X124114619Y-90002192D01*
X124114619Y-90002192D02*
X124067000Y-90097430D01*
X124067000Y-90097430D02*
X124019380Y-90145049D01*
X124019380Y-90145049D02*
X123924142Y-90192668D01*
X123924142Y-90192668D02*
X123638428Y-90192668D01*
X123638428Y-90192668D02*
X123543190Y-90145049D01*
X123543190Y-90145049D02*
X123495571Y-90097430D01*
X123495571Y-90097430D02*
X123447952Y-90002192D01*
X123447952Y-90002192D02*
X123447952Y-89811716D01*
X123447952Y-89811716D02*
X123495571Y-89716478D01*
X124114619Y-89287906D02*
X123114619Y-89287906D01*
X124114619Y-88859335D02*
X123590809Y-88859335D01*
X123590809Y-88859335D02*
X123495571Y-88906954D01*
X123495571Y-88906954D02*
X123447952Y-89002192D01*
X123447952Y-89002192D02*
X123447952Y-89145049D01*
X123447952Y-89145049D02*
X123495571Y-89240287D01*
X123495571Y-89240287D02*
X123543190Y-89287906D01*
X124114619Y-87954573D02*
X123590809Y-87954573D01*
X123590809Y-87954573D02*
X123495571Y-88002192D01*
X123495571Y-88002192D02*
X123447952Y-88097430D01*
X123447952Y-88097430D02*
X123447952Y-88287906D01*
X123447952Y-88287906D02*
X123495571Y-88383144D01*
X124067000Y-87954573D02*
X124114619Y-88049811D01*
X124114619Y-88049811D02*
X124114619Y-88287906D01*
X124114619Y-88287906D02*
X124067000Y-88383144D01*
X124067000Y-88383144D02*
X123971761Y-88430763D01*
X123971761Y-88430763D02*
X123876523Y-88430763D01*
X123876523Y-88430763D02*
X123781285Y-88383144D01*
X123781285Y-88383144D02*
X123733666Y-88287906D01*
X123733666Y-88287906D02*
X123733666Y-88049811D01*
X123733666Y-88049811D02*
X123686047Y-87954573D01*
X123447952Y-87621239D02*
X123447952Y-87240287D01*
X123114619Y-87478382D02*
X123971761Y-87478382D01*
X123971761Y-87478382D02*
X124067000Y-87430763D01*
X124067000Y-87430763D02*
X124114619Y-87335525D01*
X124114619Y-87335525D02*
X124114619Y-87240287D01*
X109652568Y-98614619D02*
X109652568Y-99424142D01*
X109652568Y-99424142D02*
X109700187Y-99519380D01*
X109700187Y-99519380D02*
X109747806Y-99567000D01*
X109747806Y-99567000D02*
X109843044Y-99614619D01*
X109843044Y-99614619D02*
X110033520Y-99614619D01*
X110033520Y-99614619D02*
X110128758Y-99567000D01*
X110128758Y-99567000D02*
X110176377Y-99519380D01*
X110176377Y-99519380D02*
X110223996Y-99424142D01*
X110223996Y-99424142D02*
X110223996Y-98614619D01*
X110652568Y-99567000D02*
X110795425Y-99614619D01*
X110795425Y-99614619D02*
X111033520Y-99614619D01*
X111033520Y-99614619D02*
X111128758Y-99567000D01*
X111128758Y-99567000D02*
X111176377Y-99519380D01*
X111176377Y-99519380D02*
X111223996Y-99424142D01*
X111223996Y-99424142D02*
X111223996Y-99328904D01*
X111223996Y-99328904D02*
X111176377Y-99233666D01*
X111176377Y-99233666D02*
X111128758Y-99186047D01*
X111128758Y-99186047D02*
X111033520Y-99138428D01*
X111033520Y-99138428D02*
X110843044Y-99090809D01*
X110843044Y-99090809D02*
X110747806Y-99043190D01*
X110747806Y-99043190D02*
X110700187Y-98995571D01*
X110700187Y-98995571D02*
X110652568Y-98900333D01*
X110652568Y-98900333D02*
X110652568Y-98805095D01*
X110652568Y-98805095D02*
X110700187Y-98709857D01*
X110700187Y-98709857D02*
X110747806Y-98662238D01*
X110747806Y-98662238D02*
X110843044Y-98614619D01*
X110843044Y-98614619D02*
X111081139Y-98614619D01*
X111081139Y-98614619D02*
X111223996Y-98662238D01*
X111985901Y-99090809D02*
X112128758Y-99138428D01*
X112128758Y-99138428D02*
X112176377Y-99186047D01*
X112176377Y-99186047D02*
X112223996Y-99281285D01*
X112223996Y-99281285D02*
X112223996Y-99424142D01*
X112223996Y-99424142D02*
X112176377Y-99519380D01*
X112176377Y-99519380D02*
X112128758Y-99567000D01*
X112128758Y-99567000D02*
X112033520Y-99614619D01*
X112033520Y-99614619D02*
X111652568Y-99614619D01*
X111652568Y-99614619D02*
X111652568Y-98614619D01*
X111652568Y-98614619D02*
X111985901Y-98614619D01*
X111985901Y-98614619D02*
X112081139Y-98662238D01*
X112081139Y-98662238D02*
X112128758Y-98709857D01*
X112128758Y-98709857D02*
X112176377Y-98805095D01*
X112176377Y-98805095D02*
X112176377Y-98900333D01*
X112176377Y-98900333D02*
X112128758Y-98995571D01*
X112128758Y-98995571D02*
X112081139Y-99043190D01*
X112081139Y-99043190D02*
X111985901Y-99090809D01*
X111985901Y-99090809D02*
X111652568Y-99090809D01*
X112652568Y-99233666D02*
X113414473Y-99233666D01*
X114462091Y-99519380D02*
X114414472Y-99567000D01*
X114414472Y-99567000D02*
X114271615Y-99614619D01*
X114271615Y-99614619D02*
X114176377Y-99614619D01*
X114176377Y-99614619D02*
X114033520Y-99567000D01*
X114033520Y-99567000D02*
X113938282Y-99471761D01*
X113938282Y-99471761D02*
X113890663Y-99376523D01*
X113890663Y-99376523D02*
X113843044Y-99186047D01*
X113843044Y-99186047D02*
X113843044Y-99043190D01*
X113843044Y-99043190D02*
X113890663Y-98852714D01*
X113890663Y-98852714D02*
X113938282Y-98757476D01*
X113938282Y-98757476D02*
X114033520Y-98662238D01*
X114033520Y-98662238D02*
X114176377Y-98614619D01*
X114176377Y-98614619D02*
X114271615Y-98614619D01*
X114271615Y-98614619D02*
X114414472Y-98662238D01*
X114414472Y-98662238D02*
X114462091Y-98709857D01*
X114890663Y-99233666D02*
X115652568Y-99233666D01*
X116128758Y-99614619D02*
X116128758Y-98614619D01*
X116128758Y-98614619D02*
X116509710Y-98614619D01*
X116509710Y-98614619D02*
X116604948Y-98662238D01*
X116604948Y-98662238D02*
X116652567Y-98709857D01*
X116652567Y-98709857D02*
X116700186Y-98805095D01*
X116700186Y-98805095D02*
X116700186Y-98947952D01*
X116700186Y-98947952D02*
X116652567Y-99043190D01*
X116652567Y-99043190D02*
X116604948Y-99090809D01*
X116604948Y-99090809D02*
X116509710Y-99138428D01*
X116509710Y-99138428D02*
X116128758Y-99138428D01*
X117033520Y-98614619D02*
X117271615Y-99614619D01*
X117271615Y-99614619D02*
X117462091Y-98900333D01*
X117462091Y-98900333D02*
X117652567Y-99614619D01*
X117652567Y-99614619D02*
X117890663Y-98614619D01*
X118843043Y-99614619D02*
X118509710Y-99138428D01*
X118271615Y-99614619D02*
X118271615Y-98614619D01*
X118271615Y-98614619D02*
X118652567Y-98614619D01*
X118652567Y-98614619D02*
X118747805Y-98662238D01*
X118747805Y-98662238D02*
X118795424Y-98709857D01*
X118795424Y-98709857D02*
X118843043Y-98805095D01*
X118843043Y-98805095D02*
X118843043Y-98947952D01*
X118843043Y-98947952D02*
X118795424Y-99043190D01*
X118795424Y-99043190D02*
X118747805Y-99090809D01*
X118747805Y-99090809D02*
X118652567Y-99138428D01*
X118652567Y-99138428D02*
X118271615Y-99138428D01*
X119271615Y-99233666D02*
X120033520Y-99233666D01*
X120366853Y-98614619D02*
X120700186Y-99614619D01*
X120700186Y-99614619D02*
X121033519Y-98614619D01*
X121890662Y-99614619D02*
X121319234Y-99614619D01*
X121604948Y-99614619D02*
X121604948Y-98614619D01*
X121604948Y-98614619D02*
X121509710Y-98757476D01*
X121509710Y-98757476D02*
X121414472Y-98852714D01*
X121414472Y-98852714D02*
X121319234Y-98900333D01*
X122319234Y-99519380D02*
X122366853Y-99567000D01*
X122366853Y-99567000D02*
X122319234Y-99614619D01*
X122319234Y-99614619D02*
X122271615Y-99567000D01*
X122271615Y-99567000D02*
X122319234Y-99519380D01*
X122319234Y-99519380D02*
X122319234Y-99614619D01*
X123319233Y-99614619D02*
X122747805Y-99614619D01*
X123033519Y-99614619D02*
X123033519Y-98614619D01*
X123033519Y-98614619D02*
X122938281Y-98757476D01*
X122938281Y-98757476D02*
X122843043Y-98852714D01*
X122843043Y-98852714D02*
X122747805Y-98900333D01*
X123700186Y-99328904D02*
X124176376Y-99328904D01*
X123604948Y-99614619D02*
X123938281Y-98614619D01*
X123938281Y-98614619D02*
X124271614Y-99614619D01*
X124604948Y-99233666D02*
X125366853Y-99233666D01*
X125795424Y-98709857D02*
X125843043Y-98662238D01*
X125843043Y-98662238D02*
X125938281Y-98614619D01*
X125938281Y-98614619D02*
X126176376Y-98614619D01*
X126176376Y-98614619D02*
X126271614Y-98662238D01*
X126271614Y-98662238D02*
X126319233Y-98709857D01*
X126319233Y-98709857D02*
X126366852Y-98805095D01*
X126366852Y-98805095D02*
X126366852Y-98900333D01*
X126366852Y-98900333D02*
X126319233Y-99043190D01*
X126319233Y-99043190D02*
X125747805Y-99614619D01*
X125747805Y-99614619D02*
X126366852Y-99614619D01*
X126985900Y-98614619D02*
X127081138Y-98614619D01*
X127081138Y-98614619D02*
X127176376Y-98662238D01*
X127176376Y-98662238D02*
X127223995Y-98709857D01*
X127223995Y-98709857D02*
X127271614Y-98805095D01*
X127271614Y-98805095D02*
X127319233Y-98995571D01*
X127319233Y-98995571D02*
X127319233Y-99233666D01*
X127319233Y-99233666D02*
X127271614Y-99424142D01*
X127271614Y-99424142D02*
X127223995Y-99519380D01*
X127223995Y-99519380D02*
X127176376Y-99567000D01*
X127176376Y-99567000D02*
X127081138Y-99614619D01*
X127081138Y-99614619D02*
X126985900Y-99614619D01*
X126985900Y-99614619D02*
X126890662Y-99567000D01*
X126890662Y-99567000D02*
X126843043Y-99519380D01*
X126843043Y-99519380D02*
X126795424Y-99424142D01*
X126795424Y-99424142D02*
X126747805Y-99233666D01*
X126747805Y-99233666D02*
X126747805Y-98995571D01*
X126747805Y-98995571D02*
X126795424Y-98805095D01*
X126795424Y-98805095D02*
X126843043Y-98709857D01*
X126843043Y-98709857D02*
X126890662Y-98662238D01*
X126890662Y-98662238D02*
X126985900Y-98614619D01*
X127700186Y-98709857D02*
X127747805Y-98662238D01*
X127747805Y-98662238D02*
X127843043Y-98614619D01*
X127843043Y-98614619D02*
X128081138Y-98614619D01*
X128081138Y-98614619D02*
X128176376Y-98662238D01*
X128176376Y-98662238D02*
X128223995Y-98709857D01*
X128223995Y-98709857D02*
X128271614Y-98805095D01*
X128271614Y-98805095D02*
X128271614Y-98900333D01*
X128271614Y-98900333D02*
X128223995Y-99043190D01*
X128223995Y-99043190D02*
X127652567Y-99614619D01*
X127652567Y-99614619D02*
X128271614Y-99614619D01*
X129128757Y-98614619D02*
X128938281Y-98614619D01*
X128938281Y-98614619D02*
X128843043Y-98662238D01*
X128843043Y-98662238D02*
X128795424Y-98709857D01*
X128795424Y-98709857D02*
X128700186Y-98852714D01*
X128700186Y-98852714D02*
X128652567Y-99043190D01*
X128652567Y-99043190D02*
X128652567Y-99424142D01*
X128652567Y-99424142D02*
X128700186Y-99519380D01*
X128700186Y-99519380D02*
X128747805Y-99567000D01*
X128747805Y-99567000D02*
X128843043Y-99614619D01*
X128843043Y-99614619D02*
X129033519Y-99614619D01*
X129033519Y-99614619D02*
X129128757Y-99567000D01*
X129128757Y-99567000D02*
X129176376Y-99519380D01*
X129176376Y-99519380D02*
X129223995Y-99424142D01*
X129223995Y-99424142D02*
X129223995Y-99186047D01*
X129223995Y-99186047D02*
X129176376Y-99090809D01*
X129176376Y-99090809D02*
X129128757Y-99043190D01*
X129128757Y-99043190D02*
X129033519Y-98995571D01*
X129033519Y-98995571D02*
X128843043Y-98995571D01*
X128843043Y-98995571D02*
X128747805Y-99043190D01*
X128747805Y-99043190D02*
X128700186Y-99090809D01*
X128700186Y-99090809D02*
X128652567Y-99186047D01*
X129843043Y-98614619D02*
X129938281Y-98614619D01*
X129938281Y-98614619D02*
X130033519Y-98662238D01*
X130033519Y-98662238D02*
X130081138Y-98709857D01*
X130081138Y-98709857D02*
X130128757Y-98805095D01*
X130128757Y-98805095D02*
X130176376Y-98995571D01*
X130176376Y-98995571D02*
X130176376Y-99233666D01*
X130176376Y-99233666D02*
X130128757Y-99424142D01*
X130128757Y-99424142D02*
X130081138Y-99519380D01*
X130081138Y-99519380D02*
X130033519Y-99567000D01*
X130033519Y-99567000D02*
X129938281Y-99614619D01*
X129938281Y-99614619D02*
X129843043Y-99614619D01*
X129843043Y-99614619D02*
X129747805Y-99567000D01*
X129747805Y-99567000D02*
X129700186Y-99519380D01*
X129700186Y-99519380D02*
X129652567Y-99424142D01*
X129652567Y-99424142D02*
X129604948Y-99233666D01*
X129604948Y-99233666D02*
X129604948Y-98995571D01*
X129604948Y-98995571D02*
X129652567Y-98805095D01*
X129652567Y-98805095D02*
X129700186Y-98709857D01*
X129700186Y-98709857D02*
X129747805Y-98662238D01*
X129747805Y-98662238D02*
X129843043Y-98614619D01*
X131033519Y-98947952D02*
X131033519Y-99614619D01*
X130795424Y-98567000D02*
X130557329Y-99281285D01*
X130557329Y-99281285D02*
X131176376Y-99281285D01*
X131509710Y-98709857D02*
X131557329Y-98662238D01*
X131557329Y-98662238D02*
X131652567Y-98614619D01*
X131652567Y-98614619D02*
X131890662Y-98614619D01*
X131890662Y-98614619D02*
X131985900Y-98662238D01*
X131985900Y-98662238D02*
X132033519Y-98709857D01*
X132033519Y-98709857D02*
X132081138Y-98805095D01*
X132081138Y-98805095D02*
X132081138Y-98900333D01*
X132081138Y-98900333D02*
X132033519Y-99043190D01*
X132033519Y-99043190D02*
X131462091Y-99614619D01*
X131462091Y-99614619D02*
X132081138Y-99614619D01*
X132985900Y-98614619D02*
X132509710Y-98614619D01*
X132509710Y-98614619D02*
X132462091Y-99090809D01*
X132462091Y-99090809D02*
X132509710Y-99043190D01*
X132509710Y-99043190D02*
X132604948Y-98995571D01*
X132604948Y-98995571D02*
X132843043Y-98995571D01*
X132843043Y-98995571D02*
X132938281Y-99043190D01*
X132938281Y-99043190D02*
X132985900Y-99090809D01*
X132985900Y-99090809D02*
X133033519Y-99186047D01*
X133033519Y-99186047D02*
X133033519Y-99424142D01*
X133033519Y-99424142D02*
X132985900Y-99519380D01*
X132985900Y-99519380D02*
X132938281Y-99567000D01*
X132938281Y-99567000D02*
X132843043Y-99614619D01*
X132843043Y-99614619D02*
X132604948Y-99614619D01*
X132604948Y-99614619D02*
X132509710Y-99567000D01*
X132509710Y-99567000D02*
X132462091Y-99519380D01*
D10*
X125991466Y-81196115D02*
X125991466Y-80434211D01*
X126372419Y-80815163D02*
X125610514Y-80815163D01*
X126372419Y-79434211D02*
X126372419Y-80005639D01*
X126372419Y-79719925D02*
X125372419Y-79719925D01*
X125372419Y-79719925D02*
X125515276Y-79815163D01*
X125515276Y-79815163D02*
X125610514Y-79910401D01*
X125610514Y-79910401D02*
X125658133Y-80005639D01*
X125467657Y-79053258D02*
X125420038Y-79005639D01*
X125420038Y-79005639D02*
X125372419Y-78910401D01*
X125372419Y-78910401D02*
X125372419Y-78672306D01*
X125372419Y-78672306D02*
X125420038Y-78577068D01*
X125420038Y-78577068D02*
X125467657Y-78529449D01*
X125467657Y-78529449D02*
X125562895Y-78481830D01*
X125562895Y-78481830D02*
X125658133Y-78481830D01*
X125658133Y-78481830D02*
X125800990Y-78529449D01*
X125800990Y-78529449D02*
X126372419Y-79100877D01*
X126372419Y-79100877D02*
X126372419Y-78481830D01*
X125372419Y-78196115D02*
X126372419Y-77862782D01*
X126372419Y-77862782D02*
X125372419Y-77529449D01*
D12*
X106554819Y-64938094D02*
X105554819Y-64938094D01*
X105554819Y-64938094D02*
X105554819Y-64699999D01*
X105554819Y-64699999D02*
X105602438Y-64557142D01*
X105602438Y-64557142D02*
X105697676Y-64461904D01*
X105697676Y-64461904D02*
X105792914Y-64414285D01*
X105792914Y-64414285D02*
X105983390Y-64366666D01*
X105983390Y-64366666D02*
X106126247Y-64366666D01*
X106126247Y-64366666D02*
X106316723Y-64414285D01*
X106316723Y-64414285D02*
X106411961Y-64461904D01*
X106411961Y-64461904D02*
X106507200Y-64557142D01*
X106507200Y-64557142D02*
X106554819Y-64699999D01*
X106554819Y-64699999D02*
X106554819Y-64938094D01*
X105888152Y-63509523D02*
X106554819Y-63509523D01*
X105507200Y-63747618D02*
X106221485Y-63985713D01*
X106221485Y-63985713D02*
X106221485Y-63366666D01*
X111838095Y-75754819D02*
X111838095Y-76564342D01*
X111838095Y-76564342D02*
X111885714Y-76659580D01*
X111885714Y-76659580D02*
X111933333Y-76707200D01*
X111933333Y-76707200D02*
X112028571Y-76754819D01*
X112028571Y-76754819D02*
X112219047Y-76754819D01*
X112219047Y-76754819D02*
X112314285Y-76707200D01*
X112314285Y-76707200D02*
X112361904Y-76659580D01*
X112361904Y-76659580D02*
X112409523Y-76564342D01*
X112409523Y-76564342D02*
X112409523Y-75754819D01*
X112838095Y-75850057D02*
X112885714Y-75802438D01*
X112885714Y-75802438D02*
X112980952Y-75754819D01*
X112980952Y-75754819D02*
X113219047Y-75754819D01*
X113219047Y-75754819D02*
X113314285Y-75802438D01*
X113314285Y-75802438D02*
X113361904Y-75850057D01*
X113361904Y-75850057D02*
X113409523Y-75945295D01*
X113409523Y-75945295D02*
X113409523Y-76040533D01*
X113409523Y-76040533D02*
X113361904Y-76183390D01*
X113361904Y-76183390D02*
X112790476Y-76754819D01*
X112790476Y-76754819D02*
X113409523Y-76754819D01*
X93634819Y-62642857D02*
X93158628Y-62976190D01*
X93634819Y-63214285D02*
X92634819Y-63214285D01*
X92634819Y-63214285D02*
X92634819Y-62833333D01*
X92634819Y-62833333D02*
X92682438Y-62738095D01*
X92682438Y-62738095D02*
X92730057Y-62690476D01*
X92730057Y-62690476D02*
X92825295Y-62642857D01*
X92825295Y-62642857D02*
X92968152Y-62642857D01*
X92968152Y-62642857D02*
X93063390Y-62690476D01*
X93063390Y-62690476D02*
X93111009Y-62738095D01*
X93111009Y-62738095D02*
X93158628Y-62833333D01*
X93158628Y-62833333D02*
X93158628Y-63214285D01*
X93634819Y-61690476D02*
X93634819Y-62261904D01*
X93634819Y-61976190D02*
X92634819Y-61976190D01*
X92634819Y-61976190D02*
X92777676Y-62071428D01*
X92777676Y-62071428D02*
X92872914Y-62166666D01*
X92872914Y-62166666D02*
X92920533Y-62261904D01*
X92634819Y-61357142D02*
X92634819Y-60738095D01*
X92634819Y-60738095D02*
X93015771Y-61071428D01*
X93015771Y-61071428D02*
X93015771Y-60928571D01*
X93015771Y-60928571D02*
X93063390Y-60833333D01*
X93063390Y-60833333D02*
X93111009Y-60785714D01*
X93111009Y-60785714D02*
X93206247Y-60738095D01*
X93206247Y-60738095D02*
X93444342Y-60738095D01*
X93444342Y-60738095D02*
X93539580Y-60785714D01*
X93539580Y-60785714D02*
X93587200Y-60833333D01*
X93587200Y-60833333D02*
X93634819Y-60928571D01*
X93634819Y-60928571D02*
X93634819Y-61214285D01*
X93634819Y-61214285D02*
X93587200Y-61309523D01*
X93587200Y-61309523D02*
X93539580Y-61357142D01*
X93684819Y-58842857D02*
X93208628Y-59176190D01*
X93684819Y-59414285D02*
X92684819Y-59414285D01*
X92684819Y-59414285D02*
X92684819Y-59033333D01*
X92684819Y-59033333D02*
X92732438Y-58938095D01*
X92732438Y-58938095D02*
X92780057Y-58890476D01*
X92780057Y-58890476D02*
X92875295Y-58842857D01*
X92875295Y-58842857D02*
X93018152Y-58842857D01*
X93018152Y-58842857D02*
X93113390Y-58890476D01*
X93113390Y-58890476D02*
X93161009Y-58938095D01*
X93161009Y-58938095D02*
X93208628Y-59033333D01*
X93208628Y-59033333D02*
X93208628Y-59414285D01*
X93684819Y-57890476D02*
X93684819Y-58461904D01*
X93684819Y-58176190D02*
X92684819Y-58176190D01*
X92684819Y-58176190D02*
X92827676Y-58271428D01*
X92827676Y-58271428D02*
X92922914Y-58366666D01*
X92922914Y-58366666D02*
X92970533Y-58461904D01*
X92780057Y-57509523D02*
X92732438Y-57461904D01*
X92732438Y-57461904D02*
X92684819Y-57366666D01*
X92684819Y-57366666D02*
X92684819Y-57128571D01*
X92684819Y-57128571D02*
X92732438Y-57033333D01*
X92732438Y-57033333D02*
X92780057Y-56985714D01*
X92780057Y-56985714D02*
X92875295Y-56938095D01*
X92875295Y-56938095D02*
X92970533Y-56938095D01*
X92970533Y-56938095D02*
X93113390Y-56985714D01*
X93113390Y-56985714D02*
X93684819Y-57557142D01*
X93684819Y-57557142D02*
X93684819Y-56938095D01*
X90684819Y-62738094D02*
X89684819Y-62738094D01*
X89684819Y-62738094D02*
X89684819Y-62499999D01*
X89684819Y-62499999D02*
X89732438Y-62357142D01*
X89732438Y-62357142D02*
X89827676Y-62261904D01*
X89827676Y-62261904D02*
X89922914Y-62214285D01*
X89922914Y-62214285D02*
X90113390Y-62166666D01*
X90113390Y-62166666D02*
X90256247Y-62166666D01*
X90256247Y-62166666D02*
X90446723Y-62214285D01*
X90446723Y-62214285D02*
X90541961Y-62261904D01*
X90541961Y-62261904D02*
X90637200Y-62357142D01*
X90637200Y-62357142D02*
X90684819Y-62499999D01*
X90684819Y-62499999D02*
X90684819Y-62738094D01*
X89684819Y-61833332D02*
X89684819Y-61166666D01*
X89684819Y-61166666D02*
X90684819Y-61595237D01*
X90684819Y-58938094D02*
X89684819Y-58938094D01*
X89684819Y-58938094D02*
X89684819Y-58699999D01*
X89684819Y-58699999D02*
X89732438Y-58557142D01*
X89732438Y-58557142D02*
X89827676Y-58461904D01*
X89827676Y-58461904D02*
X89922914Y-58414285D01*
X89922914Y-58414285D02*
X90113390Y-58366666D01*
X90113390Y-58366666D02*
X90256247Y-58366666D01*
X90256247Y-58366666D02*
X90446723Y-58414285D01*
X90446723Y-58414285D02*
X90541961Y-58461904D01*
X90541961Y-58461904D02*
X90637200Y-58557142D01*
X90637200Y-58557142D02*
X90684819Y-58699999D01*
X90684819Y-58699999D02*
X90684819Y-58938094D01*
X89684819Y-57509523D02*
X89684819Y-57699999D01*
X89684819Y-57699999D02*
X89732438Y-57795237D01*
X89732438Y-57795237D02*
X89780057Y-57842856D01*
X89780057Y-57842856D02*
X89922914Y-57938094D01*
X89922914Y-57938094D02*
X90113390Y-57985713D01*
X90113390Y-57985713D02*
X90494342Y-57985713D01*
X90494342Y-57985713D02*
X90589580Y-57938094D01*
X90589580Y-57938094D02*
X90637200Y-57890475D01*
X90637200Y-57890475D02*
X90684819Y-57795237D01*
X90684819Y-57795237D02*
X90684819Y-57604761D01*
X90684819Y-57604761D02*
X90637200Y-57509523D01*
X90637200Y-57509523D02*
X90589580Y-57461904D01*
X90589580Y-57461904D02*
X90494342Y-57414285D01*
X90494342Y-57414285D02*
X90256247Y-57414285D01*
X90256247Y-57414285D02*
X90161009Y-57461904D01*
X90161009Y-57461904D02*
X90113390Y-57509523D01*
X90113390Y-57509523D02*
X90065771Y-57604761D01*
X90065771Y-57604761D02*
X90065771Y-57795237D01*
X90065771Y-57795237D02*
X90113390Y-57890475D01*
X90113390Y-57890475D02*
X90161009Y-57938094D01*
X90161009Y-57938094D02*
X90256247Y-57985713D01*
X135416666Y-72704819D02*
X135416666Y-73419104D01*
X135416666Y-73419104D02*
X135369047Y-73561961D01*
X135369047Y-73561961D02*
X135273809Y-73657200D01*
X135273809Y-73657200D02*
X135130952Y-73704819D01*
X135130952Y-73704819D02*
X135035714Y-73704819D01*
X136369047Y-72704819D02*
X135892857Y-72704819D01*
X135892857Y-72704819D02*
X135845238Y-73181009D01*
X135845238Y-73181009D02*
X135892857Y-73133390D01*
X135892857Y-73133390D02*
X135988095Y-73085771D01*
X135988095Y-73085771D02*
X136226190Y-73085771D01*
X136226190Y-73085771D02*
X136321428Y-73133390D01*
X136321428Y-73133390D02*
X136369047Y-73181009D01*
X136369047Y-73181009D02*
X136416666Y-73276247D01*
X136416666Y-73276247D02*
X136416666Y-73514342D01*
X136416666Y-73514342D02*
X136369047Y-73609580D01*
X136369047Y-73609580D02*
X136321428Y-73657200D01*
X136321428Y-73657200D02*
X136226190Y-73704819D01*
X136226190Y-73704819D02*
X135988095Y-73704819D01*
X135988095Y-73704819D02*
X135892857Y-73657200D01*
X135892857Y-73657200D02*
X135845238Y-73609580D01*
X122159580Y-67392857D02*
X122207200Y-67440476D01*
X122207200Y-67440476D02*
X122254819Y-67583333D01*
X122254819Y-67583333D02*
X122254819Y-67678571D01*
X122254819Y-67678571D02*
X122207200Y-67821428D01*
X122207200Y-67821428D02*
X122111961Y-67916666D01*
X122111961Y-67916666D02*
X122016723Y-67964285D01*
X122016723Y-67964285D02*
X121826247Y-68011904D01*
X121826247Y-68011904D02*
X121683390Y-68011904D01*
X121683390Y-68011904D02*
X121492914Y-67964285D01*
X121492914Y-67964285D02*
X121397676Y-67916666D01*
X121397676Y-67916666D02*
X121302438Y-67821428D01*
X121302438Y-67821428D02*
X121254819Y-67678571D01*
X121254819Y-67678571D02*
X121254819Y-67583333D01*
X121254819Y-67583333D02*
X121302438Y-67440476D01*
X121302438Y-67440476D02*
X121350057Y-67392857D01*
X122254819Y-66440476D02*
X122254819Y-67011904D01*
X122254819Y-66726190D02*
X121254819Y-66726190D01*
X121254819Y-66726190D02*
X121397676Y-66821428D01*
X121397676Y-66821428D02*
X121492914Y-66916666D01*
X121492914Y-66916666D02*
X121540533Y-67011904D01*
X121588152Y-65583333D02*
X122254819Y-65583333D01*
X121207200Y-65821428D02*
X121921485Y-66059523D01*
X121921485Y-66059523D02*
X121921485Y-65440476D01*
X99083333Y-66204819D02*
X98607143Y-66204819D01*
X98607143Y-66204819D02*
X98607143Y-65204819D01*
X99369048Y-65300057D02*
X99416667Y-65252438D01*
X99416667Y-65252438D02*
X99511905Y-65204819D01*
X99511905Y-65204819D02*
X99750000Y-65204819D01*
X99750000Y-65204819D02*
X99845238Y-65252438D01*
X99845238Y-65252438D02*
X99892857Y-65300057D01*
X99892857Y-65300057D02*
X99940476Y-65395295D01*
X99940476Y-65395295D02*
X99940476Y-65490533D01*
X99940476Y-65490533D02*
X99892857Y-65633390D01*
X99892857Y-65633390D02*
X99321429Y-66204819D01*
X99321429Y-66204819D02*
X99940476Y-66204819D01*
X115988095Y-56704819D02*
X115988095Y-57514342D01*
X115988095Y-57514342D02*
X116035714Y-57609580D01*
X116035714Y-57609580D02*
X116083333Y-57657200D01*
X116083333Y-57657200D02*
X116178571Y-57704819D01*
X116178571Y-57704819D02*
X116369047Y-57704819D01*
X116369047Y-57704819D02*
X116464285Y-57657200D01*
X116464285Y-57657200D02*
X116511904Y-57609580D01*
X116511904Y-57609580D02*
X116559523Y-57514342D01*
X116559523Y-57514342D02*
X116559523Y-56704819D01*
X117511904Y-56704819D02*
X117035714Y-56704819D01*
X117035714Y-56704819D02*
X116988095Y-57181009D01*
X116988095Y-57181009D02*
X117035714Y-57133390D01*
X117035714Y-57133390D02*
X117130952Y-57085771D01*
X117130952Y-57085771D02*
X117369047Y-57085771D01*
X117369047Y-57085771D02*
X117464285Y-57133390D01*
X117464285Y-57133390D02*
X117511904Y-57181009D01*
X117511904Y-57181009D02*
X117559523Y-57276247D01*
X117559523Y-57276247D02*
X117559523Y-57514342D01*
X117559523Y-57514342D02*
X117511904Y-57609580D01*
X117511904Y-57609580D02*
X117464285Y-57657200D01*
X117464285Y-57657200D02*
X117369047Y-57704819D01*
X117369047Y-57704819D02*
X117130952Y-57704819D01*
X117130952Y-57704819D02*
X117035714Y-57657200D01*
X117035714Y-57657200D02*
X116988095Y-57609580D01*
X98488095Y-71954819D02*
X98488095Y-72764342D01*
X98488095Y-72764342D02*
X98535714Y-72859580D01*
X98535714Y-72859580D02*
X98583333Y-72907200D01*
X98583333Y-72907200D02*
X98678571Y-72954819D01*
X98678571Y-72954819D02*
X98869047Y-72954819D01*
X98869047Y-72954819D02*
X98964285Y-72907200D01*
X98964285Y-72907200D02*
X99011904Y-72859580D01*
X99011904Y-72859580D02*
X99059523Y-72764342D01*
X99059523Y-72764342D02*
X99059523Y-71954819D01*
X99964285Y-72288152D02*
X99964285Y-72954819D01*
X99726190Y-71907200D02*
X99488095Y-72621485D01*
X99488095Y-72621485D02*
X100107142Y-72621485D01*
X109357142Y-73204819D02*
X109023809Y-72728628D01*
X108785714Y-73204819D02*
X108785714Y-72204819D01*
X108785714Y-72204819D02*
X109166666Y-72204819D01*
X109166666Y-72204819D02*
X109261904Y-72252438D01*
X109261904Y-72252438D02*
X109309523Y-72300057D01*
X109309523Y-72300057D02*
X109357142Y-72395295D01*
X109357142Y-72395295D02*
X109357142Y-72538152D01*
X109357142Y-72538152D02*
X109309523Y-72633390D01*
X109309523Y-72633390D02*
X109261904Y-72681009D01*
X109261904Y-72681009D02*
X109166666Y-72728628D01*
X109166666Y-72728628D02*
X108785714Y-72728628D01*
X110309523Y-73204819D02*
X109738095Y-73204819D01*
X110023809Y-73204819D02*
X110023809Y-72204819D01*
X110023809Y-72204819D02*
X109928571Y-72347676D01*
X109928571Y-72347676D02*
X109833333Y-72442914D01*
X109833333Y-72442914D02*
X109738095Y-72490533D01*
X110928571Y-72204819D02*
X111023809Y-72204819D01*
X111023809Y-72204819D02*
X111119047Y-72252438D01*
X111119047Y-72252438D02*
X111166666Y-72300057D01*
X111166666Y-72300057D02*
X111214285Y-72395295D01*
X111214285Y-72395295D02*
X111261904Y-72585771D01*
X111261904Y-72585771D02*
X111261904Y-72823866D01*
X111261904Y-72823866D02*
X111214285Y-73014342D01*
X111214285Y-73014342D02*
X111166666Y-73109580D01*
X111166666Y-73109580D02*
X111119047Y-73157200D01*
X111119047Y-73157200D02*
X111023809Y-73204819D01*
X111023809Y-73204819D02*
X110928571Y-73204819D01*
X110928571Y-73204819D02*
X110833333Y-73157200D01*
X110833333Y-73157200D02*
X110785714Y-73109580D01*
X110785714Y-73109580D02*
X110738095Y-73014342D01*
X110738095Y-73014342D02*
X110690476Y-72823866D01*
X110690476Y-72823866D02*
X110690476Y-72585771D01*
X110690476Y-72585771D02*
X110738095Y-72395295D01*
X110738095Y-72395295D02*
X110785714Y-72300057D01*
X110785714Y-72300057D02*
X110833333Y-72252438D01*
X110833333Y-72252438D02*
X110928571Y-72204819D01*
X113578609Y-73204819D02*
X113245276Y-72728628D01*
X113007181Y-73204819D02*
X113007181Y-72204819D01*
X113007181Y-72204819D02*
X113388133Y-72204819D01*
X113388133Y-72204819D02*
X113483371Y-72252438D01*
X113483371Y-72252438D02*
X113530990Y-72300057D01*
X113530990Y-72300057D02*
X113578609Y-72395295D01*
X113578609Y-72395295D02*
X113578609Y-72538152D01*
X113578609Y-72538152D02*
X113530990Y-72633390D01*
X113530990Y-72633390D02*
X113483371Y-72681009D01*
X113483371Y-72681009D02*
X113388133Y-72728628D01*
X113388133Y-72728628D02*
X113007181Y-72728628D01*
X114054800Y-73204819D02*
X114245276Y-73204819D01*
X114245276Y-73204819D02*
X114340514Y-73157200D01*
X114340514Y-73157200D02*
X114388133Y-73109580D01*
X114388133Y-73109580D02*
X114483371Y-72966723D01*
X114483371Y-72966723D02*
X114530990Y-72776247D01*
X114530990Y-72776247D02*
X114530990Y-72395295D01*
X114530990Y-72395295D02*
X114483371Y-72300057D01*
X114483371Y-72300057D02*
X114435752Y-72252438D01*
X114435752Y-72252438D02*
X114340514Y-72204819D01*
X114340514Y-72204819D02*
X114150038Y-72204819D01*
X114150038Y-72204819D02*
X114054800Y-72252438D01*
X114054800Y-72252438D02*
X114007181Y-72300057D01*
X114007181Y-72300057D02*
X113959562Y-72395295D01*
X113959562Y-72395295D02*
X113959562Y-72633390D01*
X113959562Y-72633390D02*
X114007181Y-72728628D01*
X114007181Y-72728628D02*
X114054800Y-72776247D01*
X114054800Y-72776247D02*
X114150038Y-72823866D01*
X114150038Y-72823866D02*
X114340514Y-72823866D01*
X114340514Y-72823866D02*
X114435752Y-72776247D01*
X114435752Y-72776247D02*
X114483371Y-72728628D01*
X114483371Y-72728628D02*
X114530990Y-72633390D01*
X110357142Y-59539580D02*
X110309523Y-59587200D01*
X110309523Y-59587200D02*
X110166666Y-59634819D01*
X110166666Y-59634819D02*
X110071428Y-59634819D01*
X110071428Y-59634819D02*
X109928571Y-59587200D01*
X109928571Y-59587200D02*
X109833333Y-59491961D01*
X109833333Y-59491961D02*
X109785714Y-59396723D01*
X109785714Y-59396723D02*
X109738095Y-59206247D01*
X109738095Y-59206247D02*
X109738095Y-59063390D01*
X109738095Y-59063390D02*
X109785714Y-58872914D01*
X109785714Y-58872914D02*
X109833333Y-58777676D01*
X109833333Y-58777676D02*
X109928571Y-58682438D01*
X109928571Y-58682438D02*
X110071428Y-58634819D01*
X110071428Y-58634819D02*
X110166666Y-58634819D01*
X110166666Y-58634819D02*
X110309523Y-58682438D01*
X110309523Y-58682438D02*
X110357142Y-58730057D01*
X111309523Y-59634819D02*
X110738095Y-59634819D01*
X111023809Y-59634819D02*
X111023809Y-58634819D01*
X111023809Y-58634819D02*
X110928571Y-58777676D01*
X110928571Y-58777676D02*
X110833333Y-58872914D01*
X110833333Y-58872914D02*
X110738095Y-58920533D01*
X111880952Y-59063390D02*
X111785714Y-59015771D01*
X111785714Y-59015771D02*
X111738095Y-58968152D01*
X111738095Y-58968152D02*
X111690476Y-58872914D01*
X111690476Y-58872914D02*
X111690476Y-58825295D01*
X111690476Y-58825295D02*
X111738095Y-58730057D01*
X111738095Y-58730057D02*
X111785714Y-58682438D01*
X111785714Y-58682438D02*
X111880952Y-58634819D01*
X111880952Y-58634819D02*
X112071428Y-58634819D01*
X112071428Y-58634819D02*
X112166666Y-58682438D01*
X112166666Y-58682438D02*
X112214285Y-58730057D01*
X112214285Y-58730057D02*
X112261904Y-58825295D01*
X112261904Y-58825295D02*
X112261904Y-58872914D01*
X112261904Y-58872914D02*
X112214285Y-58968152D01*
X112214285Y-58968152D02*
X112166666Y-59015771D01*
X112166666Y-59015771D02*
X112071428Y-59063390D01*
X112071428Y-59063390D02*
X111880952Y-59063390D01*
X111880952Y-59063390D02*
X111785714Y-59111009D01*
X111785714Y-59111009D02*
X111738095Y-59158628D01*
X111738095Y-59158628D02*
X111690476Y-59253866D01*
X111690476Y-59253866D02*
X111690476Y-59444342D01*
X111690476Y-59444342D02*
X111738095Y-59539580D01*
X111738095Y-59539580D02*
X111785714Y-59587200D01*
X111785714Y-59587200D02*
X111880952Y-59634819D01*
X111880952Y-59634819D02*
X112071428Y-59634819D01*
X112071428Y-59634819D02*
X112166666Y-59587200D01*
X112166666Y-59587200D02*
X112214285Y-59539580D01*
X112214285Y-59539580D02*
X112261904Y-59444342D01*
X112261904Y-59444342D02*
X112261904Y-59253866D01*
X112261904Y-59253866D02*
X112214285Y-59158628D01*
X112214285Y-59158628D02*
X112166666Y-59111009D01*
X112166666Y-59111009D02*
X112071428Y-59063390D01*
X118357142Y-73459580D02*
X118309523Y-73507200D01*
X118309523Y-73507200D02*
X118166666Y-73554819D01*
X118166666Y-73554819D02*
X118071428Y-73554819D01*
X118071428Y-73554819D02*
X117928571Y-73507200D01*
X117928571Y-73507200D02*
X117833333Y-73411961D01*
X117833333Y-73411961D02*
X117785714Y-73316723D01*
X117785714Y-73316723D02*
X117738095Y-73126247D01*
X117738095Y-73126247D02*
X117738095Y-72983390D01*
X117738095Y-72983390D02*
X117785714Y-72792914D01*
X117785714Y-72792914D02*
X117833333Y-72697676D01*
X117833333Y-72697676D02*
X117928571Y-72602438D01*
X117928571Y-72602438D02*
X118071428Y-72554819D01*
X118071428Y-72554819D02*
X118166666Y-72554819D01*
X118166666Y-72554819D02*
X118309523Y-72602438D01*
X118309523Y-72602438D02*
X118357142Y-72650057D01*
X119309523Y-73554819D02*
X118738095Y-73554819D01*
X119023809Y-73554819D02*
X119023809Y-72554819D01*
X119023809Y-72554819D02*
X118928571Y-72697676D01*
X118928571Y-72697676D02*
X118833333Y-72792914D01*
X118833333Y-72792914D02*
X118738095Y-72840533D01*
X119642857Y-72554819D02*
X120309523Y-72554819D01*
X120309523Y-72554819D02*
X119880952Y-73554819D01*
X122857142Y-60459580D02*
X122809523Y-60507200D01*
X122809523Y-60507200D02*
X122666666Y-60554819D01*
X122666666Y-60554819D02*
X122571428Y-60554819D01*
X122571428Y-60554819D02*
X122428571Y-60507200D01*
X122428571Y-60507200D02*
X122333333Y-60411961D01*
X122333333Y-60411961D02*
X122285714Y-60316723D01*
X122285714Y-60316723D02*
X122238095Y-60126247D01*
X122238095Y-60126247D02*
X122238095Y-59983390D01*
X122238095Y-59983390D02*
X122285714Y-59792914D01*
X122285714Y-59792914D02*
X122333333Y-59697676D01*
X122333333Y-59697676D02*
X122428571Y-59602438D01*
X122428571Y-59602438D02*
X122571428Y-59554819D01*
X122571428Y-59554819D02*
X122666666Y-59554819D01*
X122666666Y-59554819D02*
X122809523Y-59602438D01*
X122809523Y-59602438D02*
X122857142Y-59650057D01*
X123809523Y-60554819D02*
X123238095Y-60554819D01*
X123523809Y-60554819D02*
X123523809Y-59554819D01*
X123523809Y-59554819D02*
X123428571Y-59697676D01*
X123428571Y-59697676D02*
X123333333Y-59792914D01*
X123333333Y-59792914D02*
X123238095Y-59840533D01*
X124666666Y-59554819D02*
X124476190Y-59554819D01*
X124476190Y-59554819D02*
X124380952Y-59602438D01*
X124380952Y-59602438D02*
X124333333Y-59650057D01*
X124333333Y-59650057D02*
X124238095Y-59792914D01*
X124238095Y-59792914D02*
X124190476Y-59983390D01*
X124190476Y-59983390D02*
X124190476Y-60364342D01*
X124190476Y-60364342D02*
X124238095Y-60459580D01*
X124238095Y-60459580D02*
X124285714Y-60507200D01*
X124285714Y-60507200D02*
X124380952Y-60554819D01*
X124380952Y-60554819D02*
X124571428Y-60554819D01*
X124571428Y-60554819D02*
X124666666Y-60507200D01*
X124666666Y-60507200D02*
X124714285Y-60459580D01*
X124714285Y-60459580D02*
X124761904Y-60364342D01*
X124761904Y-60364342D02*
X124761904Y-60126247D01*
X124761904Y-60126247D02*
X124714285Y-60031009D01*
X124714285Y-60031009D02*
X124666666Y-59983390D01*
X124666666Y-59983390D02*
X124571428Y-59935771D01*
X124571428Y-59935771D02*
X124380952Y-59935771D01*
X124380952Y-59935771D02*
X124285714Y-59983390D01*
X124285714Y-59983390D02*
X124238095Y-60031009D01*
X124238095Y-60031009D02*
X124190476Y-60126247D01*
X94859580Y-66392857D02*
X94907200Y-66440476D01*
X94907200Y-66440476D02*
X94954819Y-66583333D01*
X94954819Y-66583333D02*
X94954819Y-66678571D01*
X94954819Y-66678571D02*
X94907200Y-66821428D01*
X94907200Y-66821428D02*
X94811961Y-66916666D01*
X94811961Y-66916666D02*
X94716723Y-66964285D01*
X94716723Y-66964285D02*
X94526247Y-67011904D01*
X94526247Y-67011904D02*
X94383390Y-67011904D01*
X94383390Y-67011904D02*
X94192914Y-66964285D01*
X94192914Y-66964285D02*
X94097676Y-66916666D01*
X94097676Y-66916666D02*
X94002438Y-66821428D01*
X94002438Y-66821428D02*
X93954819Y-66678571D01*
X93954819Y-66678571D02*
X93954819Y-66583333D01*
X93954819Y-66583333D02*
X94002438Y-66440476D01*
X94002438Y-66440476D02*
X94050057Y-66392857D01*
X94954819Y-65440476D02*
X94954819Y-66011904D01*
X94954819Y-65726190D02*
X93954819Y-65726190D01*
X93954819Y-65726190D02*
X94097676Y-65821428D01*
X94097676Y-65821428D02*
X94192914Y-65916666D01*
X94192914Y-65916666D02*
X94240533Y-66011904D01*
X93954819Y-64535714D02*
X93954819Y-65011904D01*
X93954819Y-65011904D02*
X94431009Y-65059523D01*
X94431009Y-65059523D02*
X94383390Y-65011904D01*
X94383390Y-65011904D02*
X94335771Y-64916666D01*
X94335771Y-64916666D02*
X94335771Y-64678571D01*
X94335771Y-64678571D02*
X94383390Y-64583333D01*
X94383390Y-64583333D02*
X94431009Y-64535714D01*
X94431009Y-64535714D02*
X94526247Y-64488095D01*
X94526247Y-64488095D02*
X94764342Y-64488095D01*
X94764342Y-64488095D02*
X94859580Y-64535714D01*
X94859580Y-64535714D02*
X94907200Y-64583333D01*
X94907200Y-64583333D02*
X94954819Y-64678571D01*
X94954819Y-64678571D02*
X94954819Y-64916666D01*
X94954819Y-64916666D02*
X94907200Y-65011904D01*
X94907200Y-65011904D02*
X94859580Y-65059523D01*
X105107142Y-73039580D02*
X105059523Y-73087200D01*
X105059523Y-73087200D02*
X104916666Y-73134819D01*
X104916666Y-73134819D02*
X104821428Y-73134819D01*
X104821428Y-73134819D02*
X104678571Y-73087200D01*
X104678571Y-73087200D02*
X104583333Y-72991961D01*
X104583333Y-72991961D02*
X104535714Y-72896723D01*
X104535714Y-72896723D02*
X104488095Y-72706247D01*
X104488095Y-72706247D02*
X104488095Y-72563390D01*
X104488095Y-72563390D02*
X104535714Y-72372914D01*
X104535714Y-72372914D02*
X104583333Y-72277676D01*
X104583333Y-72277676D02*
X104678571Y-72182438D01*
X104678571Y-72182438D02*
X104821428Y-72134819D01*
X104821428Y-72134819D02*
X104916666Y-72134819D01*
X104916666Y-72134819D02*
X105059523Y-72182438D01*
X105059523Y-72182438D02*
X105107142Y-72230057D01*
X106059523Y-73134819D02*
X105488095Y-73134819D01*
X105773809Y-73134819D02*
X105773809Y-72134819D01*
X105773809Y-72134819D02*
X105678571Y-72277676D01*
X105678571Y-72277676D02*
X105583333Y-72372914D01*
X105583333Y-72372914D02*
X105488095Y-72420533D01*
X106392857Y-72134819D02*
X107011904Y-72134819D01*
X107011904Y-72134819D02*
X106678571Y-72515771D01*
X106678571Y-72515771D02*
X106821428Y-72515771D01*
X106821428Y-72515771D02*
X106916666Y-72563390D01*
X106916666Y-72563390D02*
X106964285Y-72611009D01*
X106964285Y-72611009D02*
X107011904Y-72706247D01*
X107011904Y-72706247D02*
X107011904Y-72944342D01*
X107011904Y-72944342D02*
X106964285Y-73039580D01*
X106964285Y-73039580D02*
X106916666Y-73087200D01*
X106916666Y-73087200D02*
X106821428Y-73134819D01*
X106821428Y-73134819D02*
X106535714Y-73134819D01*
X106535714Y-73134819D02*
X106440476Y-73087200D01*
X106440476Y-73087200D02*
X106392857Y-73039580D01*
X89607142Y-65759580D02*
X89559523Y-65807200D01*
X89559523Y-65807200D02*
X89416666Y-65854819D01*
X89416666Y-65854819D02*
X89321428Y-65854819D01*
X89321428Y-65854819D02*
X89178571Y-65807200D01*
X89178571Y-65807200D02*
X89083333Y-65711961D01*
X89083333Y-65711961D02*
X89035714Y-65616723D01*
X89035714Y-65616723D02*
X88988095Y-65426247D01*
X88988095Y-65426247D02*
X88988095Y-65283390D01*
X88988095Y-65283390D02*
X89035714Y-65092914D01*
X89035714Y-65092914D02*
X89083333Y-64997676D01*
X89083333Y-64997676D02*
X89178571Y-64902438D01*
X89178571Y-64902438D02*
X89321428Y-64854819D01*
X89321428Y-64854819D02*
X89416666Y-64854819D01*
X89416666Y-64854819D02*
X89559523Y-64902438D01*
X89559523Y-64902438D02*
X89607142Y-64950057D01*
X90559523Y-65854819D02*
X89988095Y-65854819D01*
X90273809Y-65854819D02*
X90273809Y-64854819D01*
X90273809Y-64854819D02*
X90178571Y-64997676D01*
X90178571Y-64997676D02*
X90083333Y-65092914D01*
X90083333Y-65092914D02*
X89988095Y-65140533D01*
X90940476Y-64950057D02*
X90988095Y-64902438D01*
X90988095Y-64902438D02*
X91083333Y-64854819D01*
X91083333Y-64854819D02*
X91321428Y-64854819D01*
X91321428Y-64854819D02*
X91416666Y-64902438D01*
X91416666Y-64902438D02*
X91464285Y-64950057D01*
X91464285Y-64950057D02*
X91511904Y-65045295D01*
X91511904Y-65045295D02*
X91511904Y-65140533D01*
X91511904Y-65140533D02*
X91464285Y-65283390D01*
X91464285Y-65283390D02*
X90892857Y-65854819D01*
X90892857Y-65854819D02*
X91511904Y-65854819D01*
X89607142Y-72959580D02*
X89559523Y-73007200D01*
X89559523Y-73007200D02*
X89416666Y-73054819D01*
X89416666Y-73054819D02*
X89321428Y-73054819D01*
X89321428Y-73054819D02*
X89178571Y-73007200D01*
X89178571Y-73007200D02*
X89083333Y-72911961D01*
X89083333Y-72911961D02*
X89035714Y-72816723D01*
X89035714Y-72816723D02*
X88988095Y-72626247D01*
X88988095Y-72626247D02*
X88988095Y-72483390D01*
X88988095Y-72483390D02*
X89035714Y-72292914D01*
X89035714Y-72292914D02*
X89083333Y-72197676D01*
X89083333Y-72197676D02*
X89178571Y-72102438D01*
X89178571Y-72102438D02*
X89321428Y-72054819D01*
X89321428Y-72054819D02*
X89416666Y-72054819D01*
X89416666Y-72054819D02*
X89559523Y-72102438D01*
X89559523Y-72102438D02*
X89607142Y-72150057D01*
X90559523Y-73054819D02*
X89988095Y-73054819D01*
X90273809Y-73054819D02*
X90273809Y-72054819D01*
X90273809Y-72054819D02*
X90178571Y-72197676D01*
X90178571Y-72197676D02*
X90083333Y-72292914D01*
X90083333Y-72292914D02*
X89988095Y-72340533D01*
X91511904Y-73054819D02*
X90940476Y-73054819D01*
X91226190Y-73054819D02*
X91226190Y-72054819D01*
X91226190Y-72054819D02*
X91130952Y-72197676D01*
X91130952Y-72197676D02*
X91035714Y-72292914D01*
X91035714Y-72292914D02*
X90940476Y-72340533D01*
X101024819Y-87916666D02*
X100548628Y-88249999D01*
X101024819Y-88488094D02*
X100024819Y-88488094D01*
X100024819Y-88488094D02*
X100024819Y-88107142D01*
X100024819Y-88107142D02*
X100072438Y-88011904D01*
X100072438Y-88011904D02*
X100120057Y-87964285D01*
X100120057Y-87964285D02*
X100215295Y-87916666D01*
X100215295Y-87916666D02*
X100358152Y-87916666D01*
X100358152Y-87916666D02*
X100453390Y-87964285D01*
X100453390Y-87964285D02*
X100501009Y-88011904D01*
X100501009Y-88011904D02*
X100548628Y-88107142D01*
X100548628Y-88107142D02*
X100548628Y-88488094D01*
X100358152Y-87059523D02*
X101024819Y-87059523D01*
X99977200Y-87297618D02*
X100691485Y-87535713D01*
X100691485Y-87535713D02*
X100691485Y-86916666D01*
X101024819Y-91238094D02*
X100024819Y-91238094D01*
X100024819Y-91238094D02*
X100024819Y-90999999D01*
X100024819Y-90999999D02*
X100072438Y-90857142D01*
X100072438Y-90857142D02*
X100167676Y-90761904D01*
X100167676Y-90761904D02*
X100262914Y-90714285D01*
X100262914Y-90714285D02*
X100453390Y-90666666D01*
X100453390Y-90666666D02*
X100596247Y-90666666D01*
X100596247Y-90666666D02*
X100786723Y-90714285D01*
X100786723Y-90714285D02*
X100881961Y-90761904D01*
X100881961Y-90761904D02*
X100977200Y-90857142D01*
X100977200Y-90857142D02*
X101024819Y-90999999D01*
X101024819Y-90999999D02*
X101024819Y-91238094D01*
X101024819Y-89714285D02*
X101024819Y-90285713D01*
X101024819Y-89999999D02*
X100024819Y-89999999D01*
X100024819Y-89999999D02*
X100167676Y-90095237D01*
X100167676Y-90095237D02*
X100262914Y-90190475D01*
X100262914Y-90190475D02*
X100310533Y-90285713D01*
X92109580Y-81642857D02*
X92157200Y-81690476D01*
X92157200Y-81690476D02*
X92204819Y-81833333D01*
X92204819Y-81833333D02*
X92204819Y-81928571D01*
X92204819Y-81928571D02*
X92157200Y-82071428D01*
X92157200Y-82071428D02*
X92061961Y-82166666D01*
X92061961Y-82166666D02*
X91966723Y-82214285D01*
X91966723Y-82214285D02*
X91776247Y-82261904D01*
X91776247Y-82261904D02*
X91633390Y-82261904D01*
X91633390Y-82261904D02*
X91442914Y-82214285D01*
X91442914Y-82214285D02*
X91347676Y-82166666D01*
X91347676Y-82166666D02*
X91252438Y-82071428D01*
X91252438Y-82071428D02*
X91204819Y-81928571D01*
X91204819Y-81928571D02*
X91204819Y-81833333D01*
X91204819Y-81833333D02*
X91252438Y-81690476D01*
X91252438Y-81690476D02*
X91300057Y-81642857D01*
X92204819Y-80690476D02*
X92204819Y-81261904D01*
X92204819Y-80976190D02*
X91204819Y-80976190D01*
X91204819Y-80976190D02*
X91347676Y-81071428D01*
X91347676Y-81071428D02*
X91442914Y-81166666D01*
X91442914Y-81166666D02*
X91490533Y-81261904D01*
X91204819Y-80071428D02*
X91204819Y-79976190D01*
X91204819Y-79976190D02*
X91252438Y-79880952D01*
X91252438Y-79880952D02*
X91300057Y-79833333D01*
X91300057Y-79833333D02*
X91395295Y-79785714D01*
X91395295Y-79785714D02*
X91585771Y-79738095D01*
X91585771Y-79738095D02*
X91823866Y-79738095D01*
X91823866Y-79738095D02*
X92014342Y-79785714D01*
X92014342Y-79785714D02*
X92109580Y-79833333D01*
X92109580Y-79833333D02*
X92157200Y-79880952D01*
X92157200Y-79880952D02*
X92204819Y-79976190D01*
X92204819Y-79976190D02*
X92204819Y-80071428D01*
X92204819Y-80071428D02*
X92157200Y-80166666D01*
X92157200Y-80166666D02*
X92109580Y-80214285D01*
X92109580Y-80214285D02*
X92014342Y-80261904D01*
X92014342Y-80261904D02*
X91823866Y-80309523D01*
X91823866Y-80309523D02*
X91585771Y-80309523D01*
X91585771Y-80309523D02*
X91395295Y-80261904D01*
X91395295Y-80261904D02*
X91300057Y-80214285D01*
X91300057Y-80214285D02*
X91252438Y-80166666D01*
X91252438Y-80166666D02*
X91204819Y-80071428D01*
X106859580Y-89416666D02*
X106907200Y-89464285D01*
X106907200Y-89464285D02*
X106954819Y-89607142D01*
X106954819Y-89607142D02*
X106954819Y-89702380D01*
X106954819Y-89702380D02*
X106907200Y-89845237D01*
X106907200Y-89845237D02*
X106811961Y-89940475D01*
X106811961Y-89940475D02*
X106716723Y-89988094D01*
X106716723Y-89988094D02*
X106526247Y-90035713D01*
X106526247Y-90035713D02*
X106383390Y-90035713D01*
X106383390Y-90035713D02*
X106192914Y-89988094D01*
X106192914Y-89988094D02*
X106097676Y-89940475D01*
X106097676Y-89940475D02*
X106002438Y-89845237D01*
X106002438Y-89845237D02*
X105954819Y-89702380D01*
X105954819Y-89702380D02*
X105954819Y-89607142D01*
X105954819Y-89607142D02*
X106002438Y-89464285D01*
X106002438Y-89464285D02*
X106050057Y-89416666D01*
X105954819Y-88559523D02*
X105954819Y-88749999D01*
X105954819Y-88749999D02*
X106002438Y-88845237D01*
X106002438Y-88845237D02*
X106050057Y-88892856D01*
X106050057Y-88892856D02*
X106192914Y-88988094D01*
X106192914Y-88988094D02*
X106383390Y-89035713D01*
X106383390Y-89035713D02*
X106764342Y-89035713D01*
X106764342Y-89035713D02*
X106859580Y-88988094D01*
X106859580Y-88988094D02*
X106907200Y-88940475D01*
X106907200Y-88940475D02*
X106954819Y-88845237D01*
X106954819Y-88845237D02*
X106954819Y-88654761D01*
X106954819Y-88654761D02*
X106907200Y-88559523D01*
X106907200Y-88559523D02*
X106859580Y-88511904D01*
X106859580Y-88511904D02*
X106764342Y-88464285D01*
X106764342Y-88464285D02*
X106526247Y-88464285D01*
X106526247Y-88464285D02*
X106431009Y-88511904D01*
X106431009Y-88511904D02*
X106383390Y-88559523D01*
X106383390Y-88559523D02*
X106335771Y-88654761D01*
X106335771Y-88654761D02*
X106335771Y-88845237D01*
X106335771Y-88845237D02*
X106383390Y-88940475D01*
X106383390Y-88940475D02*
X106431009Y-88988094D01*
X106431009Y-88988094D02*
X106526247Y-89035713D01*
X98609580Y-96166666D02*
X98657200Y-96214285D01*
X98657200Y-96214285D02*
X98704819Y-96357142D01*
X98704819Y-96357142D02*
X98704819Y-96452380D01*
X98704819Y-96452380D02*
X98657200Y-96595237D01*
X98657200Y-96595237D02*
X98561961Y-96690475D01*
X98561961Y-96690475D02*
X98466723Y-96738094D01*
X98466723Y-96738094D02*
X98276247Y-96785713D01*
X98276247Y-96785713D02*
X98133390Y-96785713D01*
X98133390Y-96785713D02*
X97942914Y-96738094D01*
X97942914Y-96738094D02*
X97847676Y-96690475D01*
X97847676Y-96690475D02*
X97752438Y-96595237D01*
X97752438Y-96595237D02*
X97704819Y-96452380D01*
X97704819Y-96452380D02*
X97704819Y-96357142D01*
X97704819Y-96357142D02*
X97752438Y-96214285D01*
X97752438Y-96214285D02*
X97800057Y-96166666D01*
X98133390Y-95595237D02*
X98085771Y-95690475D01*
X98085771Y-95690475D02*
X98038152Y-95738094D01*
X98038152Y-95738094D02*
X97942914Y-95785713D01*
X97942914Y-95785713D02*
X97895295Y-95785713D01*
X97895295Y-95785713D02*
X97800057Y-95738094D01*
X97800057Y-95738094D02*
X97752438Y-95690475D01*
X97752438Y-95690475D02*
X97704819Y-95595237D01*
X97704819Y-95595237D02*
X97704819Y-95404761D01*
X97704819Y-95404761D02*
X97752438Y-95309523D01*
X97752438Y-95309523D02*
X97800057Y-95261904D01*
X97800057Y-95261904D02*
X97895295Y-95214285D01*
X97895295Y-95214285D02*
X97942914Y-95214285D01*
X97942914Y-95214285D02*
X98038152Y-95261904D01*
X98038152Y-95261904D02*
X98085771Y-95309523D01*
X98085771Y-95309523D02*
X98133390Y-95404761D01*
X98133390Y-95404761D02*
X98133390Y-95595237D01*
X98133390Y-95595237D02*
X98181009Y-95690475D01*
X98181009Y-95690475D02*
X98228628Y-95738094D01*
X98228628Y-95738094D02*
X98323866Y-95785713D01*
X98323866Y-95785713D02*
X98514342Y-95785713D01*
X98514342Y-95785713D02*
X98609580Y-95738094D01*
X98609580Y-95738094D02*
X98657200Y-95690475D01*
X98657200Y-95690475D02*
X98704819Y-95595237D01*
X98704819Y-95595237D02*
X98704819Y-95404761D01*
X98704819Y-95404761D02*
X98657200Y-95309523D01*
X98657200Y-95309523D02*
X98609580Y-95261904D01*
X98609580Y-95261904D02*
X98514342Y-95214285D01*
X98514342Y-95214285D02*
X98323866Y-95214285D01*
X98323866Y-95214285D02*
X98228628Y-95261904D01*
X98228628Y-95261904D02*
X98181009Y-95309523D01*
X98181009Y-95309523D02*
X98133390Y-95404761D01*
X114454819Y-95916666D02*
X114454819Y-96392856D01*
X114454819Y-96392856D02*
X113454819Y-96392856D01*
X114454819Y-95059523D02*
X114454819Y-95630951D01*
X114454819Y-95345237D02*
X113454819Y-95345237D01*
X113454819Y-95345237D02*
X113597676Y-95440475D01*
X113597676Y-95440475D02*
X113692914Y-95535713D01*
X113692914Y-95535713D02*
X113740533Y-95630951D01*
X113761905Y-92704819D02*
X113761905Y-91704819D01*
X113761905Y-91704819D02*
X114000000Y-91704819D01*
X114000000Y-91704819D02*
X114142857Y-91752438D01*
X114142857Y-91752438D02*
X114238095Y-91847676D01*
X114238095Y-91847676D02*
X114285714Y-91942914D01*
X114285714Y-91942914D02*
X114333333Y-92133390D01*
X114333333Y-92133390D02*
X114333333Y-92276247D01*
X114333333Y-92276247D02*
X114285714Y-92466723D01*
X114285714Y-92466723D02*
X114238095Y-92561961D01*
X114238095Y-92561961D02*
X114142857Y-92657200D01*
X114142857Y-92657200D02*
X114000000Y-92704819D01*
X114000000Y-92704819D02*
X113761905Y-92704819D01*
X114714286Y-91800057D02*
X114761905Y-91752438D01*
X114761905Y-91752438D02*
X114857143Y-91704819D01*
X114857143Y-91704819D02*
X115095238Y-91704819D01*
X115095238Y-91704819D02*
X115190476Y-91752438D01*
X115190476Y-91752438D02*
X115238095Y-91800057D01*
X115238095Y-91800057D02*
X115285714Y-91895295D01*
X115285714Y-91895295D02*
X115285714Y-91990533D01*
X115285714Y-91990533D02*
X115238095Y-92133390D01*
X115238095Y-92133390D02*
X114666667Y-92704819D01*
X114666667Y-92704819D02*
X115285714Y-92704819D01*
X97134819Y-92166666D02*
X96658628Y-92499999D01*
X97134819Y-92738094D02*
X96134819Y-92738094D01*
X96134819Y-92738094D02*
X96134819Y-92357142D01*
X96134819Y-92357142D02*
X96182438Y-92261904D01*
X96182438Y-92261904D02*
X96230057Y-92214285D01*
X96230057Y-92214285D02*
X96325295Y-92166666D01*
X96325295Y-92166666D02*
X96468152Y-92166666D01*
X96468152Y-92166666D02*
X96563390Y-92214285D01*
X96563390Y-92214285D02*
X96611009Y-92261904D01*
X96611009Y-92261904D02*
X96658628Y-92357142D01*
X96658628Y-92357142D02*
X96658628Y-92738094D01*
X97134819Y-91214285D02*
X97134819Y-91785713D01*
X97134819Y-91499999D02*
X96134819Y-91499999D01*
X96134819Y-91499999D02*
X96277676Y-91595237D01*
X96277676Y-91595237D02*
X96372914Y-91690475D01*
X96372914Y-91690475D02*
X96420533Y-91785713D01*
X92954819Y-75166666D02*
X92478628Y-75499999D01*
X92954819Y-75738094D02*
X91954819Y-75738094D01*
X91954819Y-75738094D02*
X91954819Y-75357142D01*
X91954819Y-75357142D02*
X92002438Y-75261904D01*
X92002438Y-75261904D02*
X92050057Y-75214285D01*
X92050057Y-75214285D02*
X92145295Y-75166666D01*
X92145295Y-75166666D02*
X92288152Y-75166666D01*
X92288152Y-75166666D02*
X92383390Y-75214285D01*
X92383390Y-75214285D02*
X92431009Y-75261904D01*
X92431009Y-75261904D02*
X92478628Y-75357142D01*
X92478628Y-75357142D02*
X92478628Y-75738094D01*
X91954819Y-74833332D02*
X91954819Y-74214285D01*
X91954819Y-74214285D02*
X92335771Y-74547618D01*
X92335771Y-74547618D02*
X92335771Y-74404761D01*
X92335771Y-74404761D02*
X92383390Y-74309523D01*
X92383390Y-74309523D02*
X92431009Y-74261904D01*
X92431009Y-74261904D02*
X92526247Y-74214285D01*
X92526247Y-74214285D02*
X92764342Y-74214285D01*
X92764342Y-74214285D02*
X92859580Y-74261904D01*
X92859580Y-74261904D02*
X92907200Y-74309523D01*
X92907200Y-74309523D02*
X92954819Y-74404761D01*
X92954819Y-74404761D02*
X92954819Y-74690475D01*
X92954819Y-74690475D02*
X92907200Y-74785713D01*
X92907200Y-74785713D02*
X92859580Y-74833332D01*
X106754819Y-96761904D02*
X107564342Y-96761904D01*
X107564342Y-96761904D02*
X107659580Y-96714285D01*
X107659580Y-96714285D02*
X107707200Y-96666666D01*
X107707200Y-96666666D02*
X107754819Y-96571428D01*
X107754819Y-96571428D02*
X107754819Y-96380952D01*
X107754819Y-96380952D02*
X107707200Y-96285714D01*
X107707200Y-96285714D02*
X107659580Y-96238095D01*
X107659580Y-96238095D02*
X107564342Y-96190476D01*
X107564342Y-96190476D02*
X106754819Y-96190476D01*
X107754819Y-95190476D02*
X107754819Y-95761904D01*
X107754819Y-95476190D02*
X106754819Y-95476190D01*
X106754819Y-95476190D02*
X106897676Y-95571428D01*
X106897676Y-95571428D02*
X106992914Y-95666666D01*
X106992914Y-95666666D02*
X107040533Y-95761904D01*
X102609580Y-96166666D02*
X102657200Y-96214285D01*
X102657200Y-96214285D02*
X102704819Y-96357142D01*
X102704819Y-96357142D02*
X102704819Y-96452380D01*
X102704819Y-96452380D02*
X102657200Y-96595237D01*
X102657200Y-96595237D02*
X102561961Y-96690475D01*
X102561961Y-96690475D02*
X102466723Y-96738094D01*
X102466723Y-96738094D02*
X102276247Y-96785713D01*
X102276247Y-96785713D02*
X102133390Y-96785713D01*
X102133390Y-96785713D02*
X101942914Y-96738094D01*
X101942914Y-96738094D02*
X101847676Y-96690475D01*
X101847676Y-96690475D02*
X101752438Y-96595237D01*
X101752438Y-96595237D02*
X101704819Y-96452380D01*
X101704819Y-96452380D02*
X101704819Y-96357142D01*
X101704819Y-96357142D02*
X101752438Y-96214285D01*
X101752438Y-96214285D02*
X101800057Y-96166666D01*
X102704819Y-95214285D02*
X102704819Y-95785713D01*
X102704819Y-95499999D02*
X101704819Y-95499999D01*
X101704819Y-95499999D02*
X101847676Y-95595237D01*
X101847676Y-95595237D02*
X101942914Y-95690475D01*
X101942914Y-95690475D02*
X101990533Y-95785713D01*
X107083333Y-93454819D02*
X106750000Y-92978628D01*
X106511905Y-93454819D02*
X106511905Y-92454819D01*
X106511905Y-92454819D02*
X106892857Y-92454819D01*
X106892857Y-92454819D02*
X106988095Y-92502438D01*
X106988095Y-92502438D02*
X107035714Y-92550057D01*
X107035714Y-92550057D02*
X107083333Y-92645295D01*
X107083333Y-92645295D02*
X107083333Y-92788152D01*
X107083333Y-92788152D02*
X107035714Y-92883390D01*
X107035714Y-92883390D02*
X106988095Y-92931009D01*
X106988095Y-92931009D02*
X106892857Y-92978628D01*
X106892857Y-92978628D02*
X106511905Y-92978628D01*
X107654762Y-92883390D02*
X107559524Y-92835771D01*
X107559524Y-92835771D02*
X107511905Y-92788152D01*
X107511905Y-92788152D02*
X107464286Y-92692914D01*
X107464286Y-92692914D02*
X107464286Y-92645295D01*
X107464286Y-92645295D02*
X107511905Y-92550057D01*
X107511905Y-92550057D02*
X107559524Y-92502438D01*
X107559524Y-92502438D02*
X107654762Y-92454819D01*
X107654762Y-92454819D02*
X107845238Y-92454819D01*
X107845238Y-92454819D02*
X107940476Y-92502438D01*
X107940476Y-92502438D02*
X107988095Y-92550057D01*
X107988095Y-92550057D02*
X108035714Y-92645295D01*
X108035714Y-92645295D02*
X108035714Y-92692914D01*
X108035714Y-92692914D02*
X107988095Y-92788152D01*
X107988095Y-92788152D02*
X107940476Y-92835771D01*
X107940476Y-92835771D02*
X107845238Y-92883390D01*
X107845238Y-92883390D02*
X107654762Y-92883390D01*
X107654762Y-92883390D02*
X107559524Y-92931009D01*
X107559524Y-92931009D02*
X107511905Y-92978628D01*
X107511905Y-92978628D02*
X107464286Y-93073866D01*
X107464286Y-93073866D02*
X107464286Y-93264342D01*
X107464286Y-93264342D02*
X107511905Y-93359580D01*
X107511905Y-93359580D02*
X107559524Y-93407200D01*
X107559524Y-93407200D02*
X107654762Y-93454819D01*
X107654762Y-93454819D02*
X107845238Y-93454819D01*
X107845238Y-93454819D02*
X107940476Y-93407200D01*
X107940476Y-93407200D02*
X107988095Y-93359580D01*
X107988095Y-93359580D02*
X108035714Y-93264342D01*
X108035714Y-93264342D02*
X108035714Y-93073866D01*
X108035714Y-93073866D02*
X107988095Y-92978628D01*
X107988095Y-92978628D02*
X107940476Y-92931009D01*
X107940476Y-92931009D02*
X107845238Y-92883390D01*
X112083333Y-92704819D02*
X111750000Y-92228628D01*
X111511905Y-92704819D02*
X111511905Y-91704819D01*
X111511905Y-91704819D02*
X111892857Y-91704819D01*
X111892857Y-91704819D02*
X111988095Y-91752438D01*
X111988095Y-91752438D02*
X112035714Y-91800057D01*
X112035714Y-91800057D02*
X112083333Y-91895295D01*
X112083333Y-91895295D02*
X112083333Y-92038152D01*
X112083333Y-92038152D02*
X112035714Y-92133390D01*
X112035714Y-92133390D02*
X111988095Y-92181009D01*
X111988095Y-92181009D02*
X111892857Y-92228628D01*
X111892857Y-92228628D02*
X111511905Y-92228628D01*
X112988095Y-91704819D02*
X112511905Y-91704819D01*
X112511905Y-91704819D02*
X112464286Y-92181009D01*
X112464286Y-92181009D02*
X112511905Y-92133390D01*
X112511905Y-92133390D02*
X112607143Y-92085771D01*
X112607143Y-92085771D02*
X112845238Y-92085771D01*
X112845238Y-92085771D02*
X112940476Y-92133390D01*
X112940476Y-92133390D02*
X112988095Y-92181009D01*
X112988095Y-92181009D02*
X113035714Y-92276247D01*
X113035714Y-92276247D02*
X113035714Y-92514342D01*
X113035714Y-92514342D02*
X112988095Y-92609580D01*
X112988095Y-92609580D02*
X112940476Y-92657200D01*
X112940476Y-92657200D02*
X112845238Y-92704819D01*
X112845238Y-92704819D02*
X112607143Y-92704819D01*
X112607143Y-92704819D02*
X112511905Y-92657200D01*
X112511905Y-92657200D02*
X112464286Y-92609580D01*
X87024819Y-81166666D02*
X86548628Y-81499999D01*
X87024819Y-81738094D02*
X86024819Y-81738094D01*
X86024819Y-81738094D02*
X86024819Y-81357142D01*
X86024819Y-81357142D02*
X86072438Y-81261904D01*
X86072438Y-81261904D02*
X86120057Y-81214285D01*
X86120057Y-81214285D02*
X86215295Y-81166666D01*
X86215295Y-81166666D02*
X86358152Y-81166666D01*
X86358152Y-81166666D02*
X86453390Y-81214285D01*
X86453390Y-81214285D02*
X86501009Y-81261904D01*
X86501009Y-81261904D02*
X86548628Y-81357142D01*
X86548628Y-81357142D02*
X86548628Y-81738094D01*
X86024819Y-80833332D02*
X86024819Y-80166666D01*
X86024819Y-80166666D02*
X87024819Y-80595237D01*
X98404761Y-91800057D02*
X98309523Y-91752438D01*
X98309523Y-91752438D02*
X98214285Y-91657200D01*
X98214285Y-91657200D02*
X98071428Y-91514342D01*
X98071428Y-91514342D02*
X97976190Y-91466723D01*
X97976190Y-91466723D02*
X97880952Y-91466723D01*
X97928571Y-91704819D02*
X97833333Y-91657200D01*
X97833333Y-91657200D02*
X97738095Y-91561961D01*
X97738095Y-91561961D02*
X97690476Y-91371485D01*
X97690476Y-91371485D02*
X97690476Y-91038152D01*
X97690476Y-91038152D02*
X97738095Y-90847676D01*
X97738095Y-90847676D02*
X97833333Y-90752438D01*
X97833333Y-90752438D02*
X97928571Y-90704819D01*
X97928571Y-90704819D02*
X98119047Y-90704819D01*
X98119047Y-90704819D02*
X98214285Y-90752438D01*
X98214285Y-90752438D02*
X98309523Y-90847676D01*
X98309523Y-90847676D02*
X98357142Y-91038152D01*
X98357142Y-91038152D02*
X98357142Y-91371485D01*
X98357142Y-91371485D02*
X98309523Y-91561961D01*
X98309523Y-91561961D02*
X98214285Y-91657200D01*
X98214285Y-91657200D02*
X98119047Y-91704819D01*
X98119047Y-91704819D02*
X97928571Y-91704819D01*
X99309523Y-91704819D02*
X98738095Y-91704819D01*
X99023809Y-91704819D02*
X99023809Y-90704819D01*
X99023809Y-90704819D02*
X98928571Y-90847676D01*
X98928571Y-90847676D02*
X98833333Y-90942914D01*
X98833333Y-90942914D02*
X98738095Y-90990533D01*
X87166666Y-78004819D02*
X87166666Y-78719104D01*
X87166666Y-78719104D02*
X87119047Y-78861961D01*
X87119047Y-78861961D02*
X87023809Y-78957200D01*
X87023809Y-78957200D02*
X86880952Y-79004819D01*
X86880952Y-79004819D02*
X86785714Y-79004819D01*
X87642857Y-79004819D02*
X87642857Y-78004819D01*
X87642857Y-78004819D02*
X88023809Y-78004819D01*
X88023809Y-78004819D02*
X88119047Y-78052438D01*
X88119047Y-78052438D02*
X88166666Y-78100057D01*
X88166666Y-78100057D02*
X88214285Y-78195295D01*
X88214285Y-78195295D02*
X88214285Y-78338152D01*
X88214285Y-78338152D02*
X88166666Y-78433390D01*
X88166666Y-78433390D02*
X88119047Y-78481009D01*
X88119047Y-78481009D02*
X88023809Y-78528628D01*
X88023809Y-78528628D02*
X87642857Y-78528628D01*
X89166666Y-79004819D02*
X88595238Y-79004819D01*
X88880952Y-79004819D02*
X88880952Y-78004819D01*
X88880952Y-78004819D02*
X88785714Y-78147676D01*
X88785714Y-78147676D02*
X88690476Y-78242914D01*
X88690476Y-78242914D02*
X88595238Y-78290533D01*
X134166666Y-75204819D02*
X134166666Y-75919104D01*
X134166666Y-75919104D02*
X134119047Y-76061961D01*
X134119047Y-76061961D02*
X134023809Y-76157200D01*
X134023809Y-76157200D02*
X133880952Y-76204819D01*
X133880952Y-76204819D02*
X133785714Y-76204819D01*
X135166666Y-76204819D02*
X134595238Y-76204819D01*
X134880952Y-76204819D02*
X134880952Y-75204819D01*
X134880952Y-75204819D02*
X134785714Y-75347676D01*
X134785714Y-75347676D02*
X134690476Y-75442914D01*
X134690476Y-75442914D02*
X134595238Y-75490533D01*
X96954819Y-85916666D02*
X96478628Y-86249999D01*
X96954819Y-86488094D02*
X95954819Y-86488094D01*
X95954819Y-86488094D02*
X95954819Y-86107142D01*
X95954819Y-86107142D02*
X96002438Y-86011904D01*
X96002438Y-86011904D02*
X96050057Y-85964285D01*
X96050057Y-85964285D02*
X96145295Y-85916666D01*
X96145295Y-85916666D02*
X96288152Y-85916666D01*
X96288152Y-85916666D02*
X96383390Y-85964285D01*
X96383390Y-85964285D02*
X96431009Y-86011904D01*
X96431009Y-86011904D02*
X96478628Y-86107142D01*
X96478628Y-86107142D02*
X96478628Y-86488094D01*
X96050057Y-85535713D02*
X96002438Y-85488094D01*
X96002438Y-85488094D02*
X95954819Y-85392856D01*
X95954819Y-85392856D02*
X95954819Y-85154761D01*
X95954819Y-85154761D02*
X96002438Y-85059523D01*
X96002438Y-85059523D02*
X96050057Y-85011904D01*
X96050057Y-85011904D02*
X96145295Y-84964285D01*
X96145295Y-84964285D02*
X96240533Y-84964285D01*
X96240533Y-84964285D02*
X96383390Y-85011904D01*
X96383390Y-85011904D02*
X96954819Y-85583332D01*
X96954819Y-85583332D02*
X96954819Y-84964285D01*
X118261905Y-92704819D02*
X118261905Y-91704819D01*
X118261905Y-91704819D02*
X118500000Y-91704819D01*
X118500000Y-91704819D02*
X118642857Y-91752438D01*
X118642857Y-91752438D02*
X118738095Y-91847676D01*
X118738095Y-91847676D02*
X118785714Y-91942914D01*
X118785714Y-91942914D02*
X118833333Y-92133390D01*
X118833333Y-92133390D02*
X118833333Y-92276247D01*
X118833333Y-92276247D02*
X118785714Y-92466723D01*
X118785714Y-92466723D02*
X118738095Y-92561961D01*
X118738095Y-92561961D02*
X118642857Y-92657200D01*
X118642857Y-92657200D02*
X118500000Y-92704819D01*
X118500000Y-92704819D02*
X118261905Y-92704819D01*
X119166667Y-91704819D02*
X119785714Y-91704819D01*
X119785714Y-91704819D02*
X119452381Y-92085771D01*
X119452381Y-92085771D02*
X119595238Y-92085771D01*
X119595238Y-92085771D02*
X119690476Y-92133390D01*
X119690476Y-92133390D02*
X119738095Y-92181009D01*
X119738095Y-92181009D02*
X119785714Y-92276247D01*
X119785714Y-92276247D02*
X119785714Y-92514342D01*
X119785714Y-92514342D02*
X119738095Y-92609580D01*
X119738095Y-92609580D02*
X119690476Y-92657200D01*
X119690476Y-92657200D02*
X119595238Y-92704819D01*
X119595238Y-92704819D02*
X119309524Y-92704819D01*
X119309524Y-92704819D02*
X119214286Y-92657200D01*
X119214286Y-92657200D02*
X119166667Y-92609580D01*
X102333333Y-99359580D02*
X102285714Y-99407200D01*
X102285714Y-99407200D02*
X102142857Y-99454819D01*
X102142857Y-99454819D02*
X102047619Y-99454819D01*
X102047619Y-99454819D02*
X101904762Y-99407200D01*
X101904762Y-99407200D02*
X101809524Y-99311961D01*
X101809524Y-99311961D02*
X101761905Y-99216723D01*
X101761905Y-99216723D02*
X101714286Y-99026247D01*
X101714286Y-99026247D02*
X101714286Y-98883390D01*
X101714286Y-98883390D02*
X101761905Y-98692914D01*
X101761905Y-98692914D02*
X101809524Y-98597676D01*
X101809524Y-98597676D02*
X101904762Y-98502438D01*
X101904762Y-98502438D02*
X102047619Y-98454819D01*
X102047619Y-98454819D02*
X102142857Y-98454819D01*
X102142857Y-98454819D02*
X102285714Y-98502438D01*
X102285714Y-98502438D02*
X102333333Y-98550057D01*
X102714286Y-98550057D02*
X102761905Y-98502438D01*
X102761905Y-98502438D02*
X102857143Y-98454819D01*
X102857143Y-98454819D02*
X103095238Y-98454819D01*
X103095238Y-98454819D02*
X103190476Y-98502438D01*
X103190476Y-98502438D02*
X103238095Y-98550057D01*
X103238095Y-98550057D02*
X103285714Y-98645295D01*
X103285714Y-98645295D02*
X103285714Y-98740533D01*
X103285714Y-98740533D02*
X103238095Y-98883390D01*
X103238095Y-98883390D02*
X102666667Y-99454819D01*
X102666667Y-99454819D02*
X103285714Y-99454819D01*
X98083333Y-85459580D02*
X98035714Y-85507200D01*
X98035714Y-85507200D02*
X97892857Y-85554819D01*
X97892857Y-85554819D02*
X97797619Y-85554819D01*
X97797619Y-85554819D02*
X97654762Y-85507200D01*
X97654762Y-85507200D02*
X97559524Y-85411961D01*
X97559524Y-85411961D02*
X97511905Y-85316723D01*
X97511905Y-85316723D02*
X97464286Y-85126247D01*
X97464286Y-85126247D02*
X97464286Y-84983390D01*
X97464286Y-84983390D02*
X97511905Y-84792914D01*
X97511905Y-84792914D02*
X97559524Y-84697676D01*
X97559524Y-84697676D02*
X97654762Y-84602438D01*
X97654762Y-84602438D02*
X97797619Y-84554819D01*
X97797619Y-84554819D02*
X97892857Y-84554819D01*
X97892857Y-84554819D02*
X98035714Y-84602438D01*
X98035714Y-84602438D02*
X98083333Y-84650057D01*
X98988095Y-84554819D02*
X98511905Y-84554819D01*
X98511905Y-84554819D02*
X98464286Y-85031009D01*
X98464286Y-85031009D02*
X98511905Y-84983390D01*
X98511905Y-84983390D02*
X98607143Y-84935771D01*
X98607143Y-84935771D02*
X98845238Y-84935771D01*
X98845238Y-84935771D02*
X98940476Y-84983390D01*
X98940476Y-84983390D02*
X98988095Y-85031009D01*
X98988095Y-85031009D02*
X99035714Y-85126247D01*
X99035714Y-85126247D02*
X99035714Y-85364342D01*
X99035714Y-85364342D02*
X98988095Y-85459580D01*
X98988095Y-85459580D02*
X98940476Y-85507200D01*
X98940476Y-85507200D02*
X98845238Y-85554819D01*
X98845238Y-85554819D02*
X98607143Y-85554819D01*
X98607143Y-85554819D02*
X98511905Y-85507200D01*
X98511905Y-85507200D02*
X98464286Y-85459580D01*
X108833333Y-92609580D02*
X108785714Y-92657200D01*
X108785714Y-92657200D02*
X108642857Y-92704819D01*
X108642857Y-92704819D02*
X108547619Y-92704819D01*
X108547619Y-92704819D02*
X108404762Y-92657200D01*
X108404762Y-92657200D02*
X108309524Y-92561961D01*
X108309524Y-92561961D02*
X108261905Y-92466723D01*
X108261905Y-92466723D02*
X108214286Y-92276247D01*
X108214286Y-92276247D02*
X108214286Y-92133390D01*
X108214286Y-92133390D02*
X108261905Y-91942914D01*
X108261905Y-91942914D02*
X108309524Y-91847676D01*
X108309524Y-91847676D02*
X108404762Y-91752438D01*
X108404762Y-91752438D02*
X108547619Y-91704819D01*
X108547619Y-91704819D02*
X108642857Y-91704819D01*
X108642857Y-91704819D02*
X108785714Y-91752438D01*
X108785714Y-91752438D02*
X108833333Y-91800057D01*
X109166667Y-91704819D02*
X109833333Y-91704819D01*
X109833333Y-91704819D02*
X109404762Y-92704819D01*
X122459580Y-96166666D02*
X122507200Y-96214285D01*
X122507200Y-96214285D02*
X122554819Y-96357142D01*
X122554819Y-96357142D02*
X122554819Y-96452380D01*
X122554819Y-96452380D02*
X122507200Y-96595237D01*
X122507200Y-96595237D02*
X122411961Y-96690475D01*
X122411961Y-96690475D02*
X122316723Y-96738094D01*
X122316723Y-96738094D02*
X122126247Y-96785713D01*
X122126247Y-96785713D02*
X121983390Y-96785713D01*
X121983390Y-96785713D02*
X121792914Y-96738094D01*
X121792914Y-96738094D02*
X121697676Y-96690475D01*
X121697676Y-96690475D02*
X121602438Y-96595237D01*
X121602438Y-96595237D02*
X121554819Y-96452380D01*
X121554819Y-96452380D02*
X121554819Y-96357142D01*
X121554819Y-96357142D02*
X121602438Y-96214285D01*
X121602438Y-96214285D02*
X121650057Y-96166666D01*
X121554819Y-95833332D02*
X121554819Y-95214285D01*
X121554819Y-95214285D02*
X121935771Y-95547618D01*
X121935771Y-95547618D02*
X121935771Y-95404761D01*
X121935771Y-95404761D02*
X121983390Y-95309523D01*
X121983390Y-95309523D02*
X122031009Y-95261904D01*
X122031009Y-95261904D02*
X122126247Y-95214285D01*
X122126247Y-95214285D02*
X122364342Y-95214285D01*
X122364342Y-95214285D02*
X122459580Y-95261904D01*
X122459580Y-95261904D02*
X122507200Y-95309523D01*
X122507200Y-95309523D02*
X122554819Y-95404761D01*
X122554819Y-95404761D02*
X122554819Y-95690475D01*
X122554819Y-95690475D02*
X122507200Y-95785713D01*
X122507200Y-95785713D02*
X122459580Y-95833332D01*
X95988095Y-75004819D02*
X95988095Y-75814342D01*
X95988095Y-75814342D02*
X96035714Y-75909580D01*
X96035714Y-75909580D02*
X96083333Y-75957200D01*
X96083333Y-75957200D02*
X96178571Y-76004819D01*
X96178571Y-76004819D02*
X96369047Y-76004819D01*
X96369047Y-76004819D02*
X96464285Y-75957200D01*
X96464285Y-75957200D02*
X96511904Y-75909580D01*
X96511904Y-75909580D02*
X96559523Y-75814342D01*
X96559523Y-75814342D02*
X96559523Y-75004819D01*
X96940476Y-75004819D02*
X97559523Y-75004819D01*
X97559523Y-75004819D02*
X97226190Y-75385771D01*
X97226190Y-75385771D02*
X97369047Y-75385771D01*
X97369047Y-75385771D02*
X97464285Y-75433390D01*
X97464285Y-75433390D02*
X97511904Y-75481009D01*
X97511904Y-75481009D02*
X97559523Y-75576247D01*
X97559523Y-75576247D02*
X97559523Y-75814342D01*
X97559523Y-75814342D02*
X97511904Y-75909580D01*
X97511904Y-75909580D02*
X97464285Y-75957200D01*
X97464285Y-75957200D02*
X97369047Y-76004819D01*
X97369047Y-76004819D02*
X97083333Y-76004819D01*
X97083333Y-76004819D02*
X96988095Y-75957200D01*
X96988095Y-75957200D02*
X96940476Y-75909580D01*
X129916666Y-75204819D02*
X129916666Y-75919104D01*
X129916666Y-75919104D02*
X129869047Y-76061961D01*
X129869047Y-76061961D02*
X129773809Y-76157200D01*
X129773809Y-76157200D02*
X129630952Y-76204819D01*
X129630952Y-76204819D02*
X129535714Y-76204819D01*
X130345238Y-75300057D02*
X130392857Y-75252438D01*
X130392857Y-75252438D02*
X130488095Y-75204819D01*
X130488095Y-75204819D02*
X130726190Y-75204819D01*
X130726190Y-75204819D02*
X130821428Y-75252438D01*
X130821428Y-75252438D02*
X130869047Y-75300057D01*
X130869047Y-75300057D02*
X130916666Y-75395295D01*
X130916666Y-75395295D02*
X130916666Y-75490533D01*
X130916666Y-75490533D02*
X130869047Y-75633390D01*
X130869047Y-75633390D02*
X130297619Y-76204819D01*
X130297619Y-76204819D02*
X130916666Y-76204819D01*
X118609580Y-96166666D02*
X118657200Y-96214285D01*
X118657200Y-96214285D02*
X118704819Y-96357142D01*
X118704819Y-96357142D02*
X118704819Y-96452380D01*
X118704819Y-96452380D02*
X118657200Y-96595237D01*
X118657200Y-96595237D02*
X118561961Y-96690475D01*
X118561961Y-96690475D02*
X118466723Y-96738094D01*
X118466723Y-96738094D02*
X118276247Y-96785713D01*
X118276247Y-96785713D02*
X118133390Y-96785713D01*
X118133390Y-96785713D02*
X117942914Y-96738094D01*
X117942914Y-96738094D02*
X117847676Y-96690475D01*
X117847676Y-96690475D02*
X117752438Y-96595237D01*
X117752438Y-96595237D02*
X117704819Y-96452380D01*
X117704819Y-96452380D02*
X117704819Y-96357142D01*
X117704819Y-96357142D02*
X117752438Y-96214285D01*
X117752438Y-96214285D02*
X117800057Y-96166666D01*
X118038152Y-95309523D02*
X118704819Y-95309523D01*
X117657200Y-95547618D02*
X118371485Y-95785713D01*
X118371485Y-95785713D02*
X118371485Y-95166666D01*
X89333333Y-97959580D02*
X89285714Y-98007200D01*
X89285714Y-98007200D02*
X89142857Y-98054819D01*
X89142857Y-98054819D02*
X89047619Y-98054819D01*
X89047619Y-98054819D02*
X88904762Y-98007200D01*
X88904762Y-98007200D02*
X88809524Y-97911961D01*
X88809524Y-97911961D02*
X88761905Y-97816723D01*
X88761905Y-97816723D02*
X88714286Y-97626247D01*
X88714286Y-97626247D02*
X88714286Y-97483390D01*
X88714286Y-97483390D02*
X88761905Y-97292914D01*
X88761905Y-97292914D02*
X88809524Y-97197676D01*
X88809524Y-97197676D02*
X88904762Y-97102438D01*
X88904762Y-97102438D02*
X89047619Y-97054819D01*
X89047619Y-97054819D02*
X89142857Y-97054819D01*
X89142857Y-97054819D02*
X89285714Y-97102438D01*
X89285714Y-97102438D02*
X89333333Y-97150057D01*
X89809524Y-98054819D02*
X90000000Y-98054819D01*
X90000000Y-98054819D02*
X90095238Y-98007200D01*
X90095238Y-98007200D02*
X90142857Y-97959580D01*
X90142857Y-97959580D02*
X90238095Y-97816723D01*
X90238095Y-97816723D02*
X90285714Y-97626247D01*
X90285714Y-97626247D02*
X90285714Y-97245295D01*
X90285714Y-97245295D02*
X90238095Y-97150057D01*
X90238095Y-97150057D02*
X90190476Y-97102438D01*
X90190476Y-97102438D02*
X90095238Y-97054819D01*
X90095238Y-97054819D02*
X89904762Y-97054819D01*
X89904762Y-97054819D02*
X89809524Y-97102438D01*
X89809524Y-97102438D02*
X89761905Y-97150057D01*
X89761905Y-97150057D02*
X89714286Y-97245295D01*
X89714286Y-97245295D02*
X89714286Y-97483390D01*
X89714286Y-97483390D02*
X89761905Y-97578628D01*
X89761905Y-97578628D02*
X89809524Y-97626247D01*
X89809524Y-97626247D02*
X89904762Y-97673866D01*
X89904762Y-97673866D02*
X90095238Y-97673866D01*
X90095238Y-97673866D02*
X90190476Y-97626247D01*
X90190476Y-97626247D02*
X90238095Y-97578628D01*
X90238095Y-97578628D02*
X90285714Y-97483390D01*
X85916666Y-93704819D02*
X85916666Y-94419104D01*
X85916666Y-94419104D02*
X85869047Y-94561961D01*
X85869047Y-94561961D02*
X85773809Y-94657200D01*
X85773809Y-94657200D02*
X85630952Y-94704819D01*
X85630952Y-94704819D02*
X85535714Y-94704819D01*
X86297619Y-93704819D02*
X86916666Y-93704819D01*
X86916666Y-93704819D02*
X86583333Y-94085771D01*
X86583333Y-94085771D02*
X86726190Y-94085771D01*
X86726190Y-94085771D02*
X86821428Y-94133390D01*
X86821428Y-94133390D02*
X86869047Y-94181009D01*
X86869047Y-94181009D02*
X86916666Y-94276247D01*
X86916666Y-94276247D02*
X86916666Y-94514342D01*
X86916666Y-94514342D02*
X86869047Y-94609580D01*
X86869047Y-94609580D02*
X86821428Y-94657200D01*
X86821428Y-94657200D02*
X86726190Y-94704819D01*
X86726190Y-94704819D02*
X86440476Y-94704819D01*
X86440476Y-94704819D02*
X86345238Y-94657200D01*
X86345238Y-94657200D02*
X86297619Y-94609580D01*
X116583333Y-92704819D02*
X116250000Y-92228628D01*
X116011905Y-92704819D02*
X116011905Y-91704819D01*
X116011905Y-91704819D02*
X116392857Y-91704819D01*
X116392857Y-91704819D02*
X116488095Y-91752438D01*
X116488095Y-91752438D02*
X116535714Y-91800057D01*
X116535714Y-91800057D02*
X116583333Y-91895295D01*
X116583333Y-91895295D02*
X116583333Y-92038152D01*
X116583333Y-92038152D02*
X116535714Y-92133390D01*
X116535714Y-92133390D02*
X116488095Y-92181009D01*
X116488095Y-92181009D02*
X116392857Y-92228628D01*
X116392857Y-92228628D02*
X116011905Y-92228628D01*
X117440476Y-91704819D02*
X117250000Y-91704819D01*
X117250000Y-91704819D02*
X117154762Y-91752438D01*
X117154762Y-91752438D02*
X117107143Y-91800057D01*
X117107143Y-91800057D02*
X117011905Y-91942914D01*
X117011905Y-91942914D02*
X116964286Y-92133390D01*
X116964286Y-92133390D02*
X116964286Y-92514342D01*
X116964286Y-92514342D02*
X117011905Y-92609580D01*
X117011905Y-92609580D02*
X117059524Y-92657200D01*
X117059524Y-92657200D02*
X117154762Y-92704819D01*
X117154762Y-92704819D02*
X117345238Y-92704819D01*
X117345238Y-92704819D02*
X117440476Y-92657200D01*
X117440476Y-92657200D02*
X117488095Y-92609580D01*
X117488095Y-92609580D02*
X117535714Y-92514342D01*
X117535714Y-92514342D02*
X117535714Y-92276247D01*
X117535714Y-92276247D02*
X117488095Y-92181009D01*
X117488095Y-92181009D02*
X117440476Y-92133390D01*
X117440476Y-92133390D02*
X117345238Y-92085771D01*
X117345238Y-92085771D02*
X117154762Y-92085771D01*
X117154762Y-92085771D02*
X117059524Y-92133390D01*
X117059524Y-92133390D02*
X117011905Y-92181009D01*
X117011905Y-92181009D02*
X116964286Y-92276247D01*
D13*
%TO.C,D4*%
X106950000Y-68710000D02*
X110250000Y-68710000D01*
X106950000Y-68710000D02*
X106950000Y-61700000D01*
X110250000Y-68710000D02*
X110250000Y-61700000D01*
%TO.C,U2*%
X109290000Y-77350000D02*
X109290000Y-77620000D01*
X109290000Y-84250000D02*
X109290000Y-83980000D01*
X115710000Y-77350000D02*
X109290000Y-77350000D01*
X115710000Y-84250000D02*
X109290000Y-84250000D01*
X107560000Y-77660000D02*
X107220000Y-77190000D01*
X107900000Y-77190000D01*
X107560000Y-77660000D01*
G36*
X107560000Y-77660000D02*
G01*
X107220000Y-77190000D01*
X107900000Y-77190000D01*
X107560000Y-77660000D01*
G37*
%TO.C,R13*%
X92272500Y-61745276D02*
X92272500Y-62254724D01*
X91227500Y-61745276D02*
X91227500Y-62254724D01*
%TO.C,R12*%
X92322500Y-57945276D02*
X92322500Y-58454724D01*
X91277500Y-57945276D02*
X91277500Y-58454724D01*
%TO.C,D7*%
X89535000Y-60340000D02*
X88065000Y-60340000D01*
X88065000Y-60340000D02*
X88065000Y-62800000D01*
X89535000Y-62800000D02*
X89535000Y-60340000D01*
%TO.C,D6*%
X89535000Y-56540000D02*
X88065000Y-56540000D01*
X88065000Y-56540000D02*
X88065000Y-59000000D01*
X89535000Y-59000000D02*
X89535000Y-56540000D01*
%TO.C,J5*%
X134872500Y-72290000D02*
X134872500Y-56210000D01*
X136492500Y-72290000D02*
X136492500Y-56210000D01*
X144242500Y-72290000D02*
X144242500Y-56210000D01*
X145362500Y-72290000D02*
X134872500Y-72290000D01*
X145362500Y-69930000D02*
X145362500Y-72290000D01*
X134872500Y-56210000D02*
X145362500Y-56210000D01*
X145362500Y-56210000D02*
X145362500Y-69330000D01*
X145972500Y-70070000D02*
X145362500Y-69630000D01*
X145972500Y-69190000D01*
X145972500Y-70070000D01*
G36*
X145972500Y-70070000D02*
G01*
X145362500Y-69630000D01*
X145972500Y-69190000D01*
X145972500Y-70070000D01*
G37*
%TO.C,C14*%
X125240000Y-73500000D02*
X125240000Y-72250000D01*
X124615000Y-72875000D02*
X125865000Y-72875000D01*
X123804437Y-72010000D02*
X126490000Y-72010000D01*
X123804437Y-72010000D02*
X122740000Y-70945563D01*
X132195563Y-72010000D02*
X129510000Y-72010000D01*
X132195563Y-72010000D02*
X133260000Y-70945563D01*
X122740000Y-70945563D02*
X122740000Y-61490000D01*
X133260000Y-70945563D02*
X133260000Y-61490000D01*
X122740000Y-61490000D02*
X126490000Y-61490000D01*
X133260000Y-61490000D02*
X129510000Y-61490000D01*
%TO.C,L2*%
X102760000Y-64910000D02*
X95740000Y-64910000D01*
X102760000Y-63510000D02*
X102760000Y-64910000D01*
X102760000Y-58090000D02*
X102760000Y-59490000D01*
X95740000Y-64910000D02*
X95740000Y-63510000D01*
X95740000Y-59490000D02*
X95740000Y-58090000D01*
X95740000Y-58090000D02*
X102760000Y-58090000D01*
%TO.C,U5*%
X113050000Y-66060000D02*
X113320000Y-66060000D01*
X119950000Y-66060000D02*
X119680000Y-66060000D01*
X113050000Y-59640000D02*
X113050000Y-66060000D01*
X119950000Y-59640000D02*
X119950000Y-66060000D01*
X113360000Y-67790000D02*
X112890000Y-68130000D01*
X112890000Y-67450000D01*
X113360000Y-67790000D01*
G36*
X113360000Y-67790000D02*
G01*
X112890000Y-68130000D01*
X112890000Y-67450000D01*
X113360000Y-67790000D01*
G37*
D12*
%TO.C,U4*%
X101325000Y-71575000D02*
X97175000Y-71575000D01*
X101325000Y-66425000D02*
X97175000Y-66425000D01*
D13*
X101990000Y-71830000D02*
X101510000Y-71830000D01*
X101750000Y-71500000D01*
X101990000Y-71830000D01*
G36*
X101990000Y-71830000D02*
G01*
X101510000Y-71830000D01*
X101750000Y-71500000D01*
X101990000Y-71830000D01*
G37*
%TO.C,R10*%
X109745276Y-70727500D02*
X110254724Y-70727500D01*
X109745276Y-71772500D02*
X110254724Y-71772500D01*
%TO.C,R9*%
X113745276Y-70727500D02*
X114254724Y-70727500D01*
X113745276Y-71772500D02*
X114254724Y-71772500D01*
%TO.C,C18*%
X111146267Y-58260000D02*
X110853733Y-58260000D01*
X111146267Y-57240000D02*
X110853733Y-57240000D01*
%TO.C,C17*%
X119711252Y-72160000D02*
X118288748Y-72160000D01*
X119711252Y-70340000D02*
X118288748Y-70340000D01*
%TO.C,C16*%
X124211252Y-59160000D02*
X122788748Y-59160000D01*
X124211252Y-57340000D02*
X122788748Y-57340000D01*
%TO.C,C15*%
X93990000Y-69146267D02*
X93990000Y-68853733D01*
X95010000Y-69146267D02*
X95010000Y-68853733D01*
%TO.C,C13*%
X105896267Y-71760000D02*
X105603733Y-71760000D01*
X105896267Y-70740000D02*
X105603733Y-70740000D01*
%TO.C,C12*%
X89538748Y-66340000D02*
X90961252Y-66340000D01*
X89538748Y-68160000D02*
X90961252Y-68160000D01*
%TO.C,C11*%
X90961252Y-71660000D02*
X89538748Y-71660000D01*
X90961252Y-69840000D02*
X89538748Y-69840000D01*
%TO.C,R4*%
X101477500Y-88004724D02*
X101477500Y-87495276D01*
X102522500Y-88004724D02*
X102522500Y-87495276D01*
%TO.C,D1*%
X101265000Y-90450000D02*
X101265000Y-92910000D01*
X101265000Y-92910000D02*
X102735000Y-92910000D01*
X102735000Y-92910000D02*
X102735000Y-90450000D01*
%TO.C,C10*%
X89740000Y-81146267D02*
X89740000Y-80853733D01*
X90760000Y-81146267D02*
X90760000Y-80853733D01*
%TO.C,C6*%
X103590000Y-88538748D02*
X103590000Y-89961252D01*
X105410000Y-88538748D02*
X105410000Y-89961252D01*
%TO.C,C8*%
X95490000Y-95288748D02*
X95490000Y-96711252D01*
X97310000Y-95288748D02*
X97310000Y-96711252D01*
%TO.C,L1*%
X108790000Y-98110000D02*
X108790000Y-93890000D01*
X113010000Y-93890000D02*
X113010000Y-98110000D01*
%TO.C,D2*%
X113765000Y-88340000D02*
X113765000Y-90800000D01*
X115235000Y-88340000D02*
X113765000Y-88340000D01*
X115235000Y-90800000D02*
X115235000Y-88340000D01*
%TO.C,R1*%
X94727500Y-90995276D02*
X94727500Y-91504724D01*
X95772500Y-90995276D02*
X95772500Y-91504724D01*
%TO.C,R3*%
X90477500Y-76754724D02*
X90477500Y-76245276D01*
X91522500Y-76754724D02*
X91522500Y-76245276D01*
%TO.C,U1*%
X103340000Y-96000000D02*
X103340000Y-95200000D01*
X103340000Y-96000000D02*
X103340000Y-96800000D01*
X106460000Y-96000000D02*
X106460000Y-95200000D01*
X106460000Y-96000000D02*
X106460000Y-96800000D01*
X106740000Y-94940000D02*
X106410000Y-94700000D01*
X106740000Y-94460000D01*
X106740000Y-94940000D01*
G36*
X106740000Y-94940000D02*
G01*
X106410000Y-94700000D01*
X106740000Y-94460000D01*
X106740000Y-94940000D01*
G37*
%TO.C,C1*%
X99490000Y-95288748D02*
X99490000Y-96711252D01*
X101310000Y-95288748D02*
X101310000Y-96711252D01*
%TO.C,R8*%
X104495276Y-92477500D02*
X105004724Y-92477500D01*
X104495276Y-93522500D02*
X105004724Y-93522500D01*
%TO.C,R5*%
X111727500Y-90254724D02*
X111727500Y-89745276D01*
X112772500Y-90254724D02*
X112772500Y-89745276D01*
%TO.C,R7*%
X87477500Y-81254724D02*
X87477500Y-80745276D01*
X88522500Y-81254724D02*
X88522500Y-80745276D01*
%TO.C,Q1*%
X97500000Y-87190000D02*
X96850000Y-87190000D01*
X97500000Y-87190000D02*
X98150000Y-87190000D01*
X97500000Y-90310000D02*
X96850000Y-90310000D01*
X97500000Y-90310000D02*
X98150000Y-90310000D01*
X98902500Y-90590000D02*
X98422500Y-90590000D01*
X98662500Y-90260000D01*
X98902500Y-90590000D01*
G36*
X98902500Y-90590000D02*
G01*
X98422500Y-90590000D01*
X98662500Y-90260000D01*
X98902500Y-90590000D01*
G37*
%TO.C,JP1*%
X86600000Y-77050000D02*
X86600000Y-76450000D01*
X87300000Y-75750000D02*
X88700000Y-75750000D01*
X88700000Y-77750000D02*
X87300000Y-77750000D01*
X89400000Y-76450000D02*
X89400000Y-77050000D01*
X86600000Y-76450000D02*
G75*
G02*
X87300000Y-75750000I700000J0D01*
G01*
X87300000Y-77750000D02*
G75*
G02*
X86600000Y-77050000I0J700000D01*
G01*
X88700000Y-75750000D02*
G75*
G02*
X89400000Y-76450000I1J-699999D01*
G01*
X89400000Y-77050000D02*
G75*
G02*
X88700000Y-77750000I-699999J-1D01*
G01*
%TO.C,J1*%
X135525000Y-76620000D02*
X135525000Y-97880000D01*
X136585000Y-78510000D02*
X138415000Y-76680000D01*
X136585000Y-95990000D02*
X136585000Y-78510000D01*
X136665000Y-99020000D02*
X145475000Y-99020000D01*
X137945000Y-74400000D02*
X141665000Y-74400000D01*
X137945000Y-75480000D02*
X137945000Y-74400000D01*
X137945000Y-99020000D02*
X137945000Y-100100000D01*
X137945000Y-100100000D02*
X141665000Y-100100000D01*
X138415000Y-76680000D02*
X143025000Y-76680000D01*
X138415000Y-97820000D02*
X136585000Y-95990000D01*
X141665000Y-74400000D02*
X141665000Y-75480000D01*
X141665000Y-100100000D02*
X141665000Y-99020000D01*
X142945000Y-75480000D02*
X136665000Y-75480000D01*
X143025000Y-76680000D02*
X143025000Y-97820000D01*
X143025000Y-97820000D02*
X138415000Y-97820000D01*
X144085000Y-77160000D02*
X145475000Y-77160000D01*
X144085000Y-82050000D02*
X145475000Y-82050000D01*
X144085000Y-87130000D02*
X145475000Y-87130000D01*
X144085000Y-92230000D02*
X145475000Y-92230000D01*
X144085000Y-97330000D02*
X145475000Y-97330000D01*
X144085000Y-97880000D02*
X144085000Y-76620000D01*
X145475000Y-77160000D02*
X145475000Y-78850000D01*
X145475000Y-78850000D02*
X144085000Y-78850000D01*
X145475000Y-82050000D02*
X145475000Y-83740000D01*
X145475000Y-83740000D02*
X144085000Y-83740000D01*
X145475000Y-87130000D02*
X145475000Y-88820000D01*
X145475000Y-88820000D02*
X144085000Y-88820000D01*
X145475000Y-92230000D02*
X145475000Y-93920000D01*
X145475000Y-93920000D02*
X144085000Y-93920000D01*
X145475000Y-97330000D02*
X145475000Y-99020000D01*
X135525000Y-76620000D02*
G75*
G02*
X136665000Y-75480000I1139999J1D01*
G01*
X136665000Y-99020000D02*
G75*
G02*
X135525000Y-97880000I0J1140000D01*
G01*
X142945000Y-75480000D02*
G75*
G02*
X144085000Y-76620000I1J-1139999D01*
G01*
X144085000Y-97880000D02*
G75*
G02*
X142945000Y-99020000I-1140000J0D01*
G01*
%TO.C,R2*%
X94477500Y-86504724D02*
X94477500Y-85995276D01*
X95522500Y-86504724D02*
X95522500Y-85995276D01*
%TO.C,D3*%
X118265000Y-88340000D02*
X118265000Y-90800000D01*
X119735000Y-88340000D02*
X118265000Y-88340000D01*
X119735000Y-90800000D02*
X119735000Y-88340000D01*
%TO.C,C2*%
X105396267Y-98490000D02*
X105103733Y-98490000D01*
X105396267Y-99510000D02*
X105103733Y-99510000D01*
%TO.C,C5*%
X98461252Y-82340000D02*
X97038748Y-82340000D01*
X98461252Y-84160000D02*
X97038748Y-84160000D01*
%TO.C,C7*%
X108490000Y-90146267D02*
X108490000Y-89853733D01*
X109510000Y-90146267D02*
X109510000Y-89853733D01*
%TO.C,C3*%
X119340000Y-95288748D02*
X119340000Y-96711252D01*
X121160000Y-95288748D02*
X121160000Y-96711252D01*
%TO.C,U3*%
X96750000Y-76265000D02*
X94550000Y-76265000D01*
X96750000Y-76265000D02*
X98950000Y-76265000D01*
X96750000Y-81735000D02*
X94550000Y-81735000D01*
X96750000Y-81735000D02*
X98950000Y-81735000D01*
X92890000Y-76725000D02*
X92560000Y-76965000D01*
X92560000Y-76485000D01*
X92890000Y-76725000D01*
G36*
X92890000Y-76725000D02*
G01*
X92560000Y-76965000D01*
X92560000Y-76485000D01*
X92890000Y-76725000D01*
G37*
%TO.C,J2*%
X126965000Y-76980000D02*
X130250000Y-76980000D01*
X126965000Y-79630000D02*
X126965000Y-76980000D01*
X126965000Y-82170000D02*
X126965000Y-97520000D01*
X126965000Y-82170000D02*
X133535000Y-82170000D01*
X126965000Y-97520000D02*
X133535000Y-97520000D01*
X133535000Y-82170000D02*
X133535000Y-97520000D01*
%TO.C,C4*%
X115490000Y-95288748D02*
X115490000Y-96711252D01*
X117310000Y-95288748D02*
X117310000Y-96711252D01*
%TO.C,C9*%
X90211252Y-94840000D02*
X88788748Y-94840000D01*
X90211252Y-96660000D02*
X88788748Y-96660000D01*
%TO.C,J3*%
X88850000Y-83580000D02*
X90550000Y-83580000D01*
X88850000Y-92920000D02*
X90550000Y-92920000D01*
%TO.C,R6*%
X116227500Y-90254724D02*
X116227500Y-89745276D01*
X117272500Y-90254724D02*
X117272500Y-89745276D01*
%TD*%
%LPC*%
%TO.C,JP1*%
G36*
X88150000Y-77500000D02*
G01*
X87850000Y-77500000D01*
X87850000Y-76000000D01*
X88150000Y-76000000D01*
X88150000Y-77500000D01*
G37*
%TD*%
D14*
%TO.C,D4*%
X108600000Y-66700000D03*
X108600000Y-61700000D03*
%TD*%
D15*
%TO.C,U2*%
X107560000Y-78520000D03*
D16*
X113860000Y-80800000D03*
D15*
X107560000Y-83080000D03*
%TD*%
D17*
%TO.C,R13*%
X91750000Y-61087500D03*
X91750000Y-62912500D03*
%TD*%
%TO.C,R12*%
X91800000Y-57287500D03*
X91800000Y-59112500D03*
%TD*%
D18*
%TO.C,D7*%
X88800000Y-61125000D03*
X88800000Y-62875000D03*
%TD*%
%TO.C,D6*%
X88800000Y-57325000D03*
X88800000Y-59075000D03*
%TD*%
D19*
%TO.C,J5*%
X139892500Y-69630000D03*
D20*
X139892500Y-64550000D03*
X139892500Y-59470000D03*
%TD*%
D21*
%TO.C,C14*%
X128000000Y-70750000D03*
X128000000Y-62750000D03*
%TD*%
D22*
%TO.C,L2*%
X102275000Y-61500000D03*
X96225000Y-61500000D03*
%TD*%
D23*
%TO.C,U5*%
X114220000Y-67790000D03*
X116500000Y-67790000D03*
D24*
X116500000Y-61490000D03*
D23*
X118780000Y-67790000D03*
%TD*%
D25*
%TO.C,U4*%
X101950000Y-70905000D03*
X101950000Y-69635000D03*
X101950000Y-68365000D03*
X101950000Y-67095000D03*
X96550000Y-67095000D03*
X96550000Y-68365000D03*
X96550000Y-69635000D03*
X96550000Y-70905000D03*
D26*
X99250000Y-69000000D03*
%TD*%
D27*
%TO.C,R10*%
X109087500Y-71250000D03*
X110912500Y-71250000D03*
%TD*%
%TO.C,R9*%
X113087500Y-71250000D03*
X114912500Y-71250000D03*
%TD*%
D28*
%TO.C,C18*%
X111862500Y-57750000D03*
X110137500Y-57750000D03*
%TD*%
D29*
%TO.C,C17*%
X120562500Y-71250000D03*
X117437500Y-71250000D03*
%TD*%
%TO.C,C16*%
X125062500Y-58250000D03*
X121937500Y-58250000D03*
%TD*%
D30*
%TO.C,C15*%
X94500000Y-69862500D03*
X94500000Y-68137500D03*
%TD*%
D28*
%TO.C,C13*%
X106612500Y-71250000D03*
X104887500Y-71250000D03*
%TD*%
D31*
%TO.C,C12*%
X88687500Y-67250000D03*
X91812500Y-67250000D03*
%TD*%
D29*
%TO.C,C11*%
X91812500Y-70750000D03*
X88687500Y-70750000D03*
%TD*%
D32*
%TO.C,R4*%
X102000000Y-88662500D03*
X102000000Y-86837500D03*
%TD*%
D33*
%TO.C,D1*%
X102000000Y-92125000D03*
X102000000Y-90375000D03*
%TD*%
D30*
%TO.C,C10*%
X90250000Y-81862500D03*
X90250000Y-80137500D03*
%TD*%
D34*
%TO.C,C6*%
X104500000Y-87687500D03*
X104500000Y-90812500D03*
%TD*%
%TO.C,C8*%
X96400000Y-94437500D03*
X96400000Y-97562500D03*
%TD*%
D35*
%TO.C,L1*%
X110900000Y-97500000D03*
X110900000Y-94500000D03*
%TD*%
D18*
%TO.C,D2*%
X114500000Y-89125000D03*
X114500000Y-90875000D03*
%TD*%
D17*
%TO.C,R1*%
X95250000Y-90337500D03*
X95250000Y-92162500D03*
%TD*%
D32*
%TO.C,R3*%
X91000000Y-77412500D03*
X91000000Y-75587500D03*
%TD*%
D36*
%TO.C,U1*%
X105850000Y-94862500D03*
X104900000Y-94862500D03*
X103950000Y-94862500D03*
X103950000Y-97137500D03*
X104900000Y-97137500D03*
X105850000Y-97137500D03*
%TD*%
D34*
%TO.C,C1*%
X100400000Y-94437500D03*
X100400000Y-97562500D03*
%TD*%
D27*
%TO.C,R8*%
X103837500Y-93000000D03*
X105662500Y-93000000D03*
%TD*%
D32*
%TO.C,R5*%
X112250000Y-90912500D03*
X112250000Y-89087500D03*
%TD*%
%TO.C,R7*%
X88000000Y-81912500D03*
X88000000Y-80087500D03*
%TD*%
D37*
%TO.C,Q1*%
X98437500Y-89700000D03*
X98437500Y-87800000D03*
X96562500Y-88750000D03*
%TD*%
D38*
%TO.C,JP1*%
X88650000Y-76750000D03*
D39*
X87350000Y-76750000D03*
%TD*%
D40*
%TO.C,J1*%
X139805000Y-79630000D03*
D41*
X139805000Y-84710000D03*
X139805000Y-89790000D03*
X139805000Y-94870000D03*
%TD*%
D32*
%TO.C,R2*%
X95000000Y-87162500D03*
X95000000Y-85337500D03*
%TD*%
D18*
%TO.C,D3*%
X119000000Y-89125000D03*
X119000000Y-90875000D03*
%TD*%
D28*
%TO.C,C2*%
X106112500Y-99000000D03*
X104387500Y-99000000D03*
%TD*%
D29*
%TO.C,C5*%
X99312500Y-83250000D03*
X96187500Y-83250000D03*
%TD*%
D30*
%TO.C,C7*%
X109000000Y-90862500D03*
X109000000Y-89137500D03*
%TD*%
D34*
%TO.C,C3*%
X120250000Y-94437500D03*
X120250000Y-97562500D03*
%TD*%
D42*
%TO.C,U3*%
X93887500Y-76725000D03*
X93887500Y-77375000D03*
X93887500Y-78025000D03*
X93887500Y-78675000D03*
X93887500Y-79325000D03*
X93887500Y-79975000D03*
X93887500Y-80625000D03*
X93887500Y-81275000D03*
X99612500Y-81275000D03*
X99612500Y-80625000D03*
X99612500Y-79975000D03*
X99612500Y-79325000D03*
X99612500Y-78675000D03*
X99612500Y-78025000D03*
X99612500Y-77375000D03*
X99612500Y-76725000D03*
%TD*%
D43*
%TO.C,J2*%
X130250000Y-79630000D03*
D44*
X130250000Y-84710000D03*
X130250000Y-89790000D03*
X130250000Y-94870000D03*
%TD*%
D34*
%TO.C,C4*%
X116400000Y-94437500D03*
X116400000Y-97562500D03*
%TD*%
D29*
%TO.C,C9*%
X91062500Y-95750000D03*
X87937500Y-95750000D03*
%TD*%
D45*
%TO.C,J3*%
X91355000Y-85360000D03*
X91355000Y-91140000D03*
D46*
X92430000Y-85050000D03*
X92430000Y-85850000D03*
D47*
X92430000Y-87000000D03*
X92430000Y-88000000D03*
X92430000Y-88500000D03*
X92430000Y-89500000D03*
D46*
X92430000Y-90650000D03*
X92430000Y-91450000D03*
X92430000Y-91450000D03*
X92430000Y-90650000D03*
D47*
X92430000Y-90000000D03*
X92430000Y-89000000D03*
X92430000Y-87500000D03*
X92430000Y-86500000D03*
D46*
X92430000Y-85850000D03*
X92430000Y-85050000D03*
D48*
X91855000Y-83930000D03*
D49*
X87675000Y-83930000D03*
D48*
X91855000Y-92570000D03*
D49*
X87675000Y-92570000D03*
%TD*%
D32*
%TO.C,R6*%
X116750000Y-90912500D03*
X116750000Y-89087500D03*
%TD*%
%LPD*%
M02*
