%TF.GenerationSoftware,KiCad,Pcbnew,8.0.3*%
%TF.CreationDate,2024-06-16T17:33:43+02:00*%
%TF.ProjectId,csa_ultrabus_v2,6373615f-756c-4747-9261-6275735f7632,rev?*%
%TF.SameCoordinates,Original*%
%TF.FileFunction,Drillmap*%
%TF.FilePolarity,Positive*%
%FSLAX45Y45*%
G04 Gerber Fmt 4.5, Leading zero omitted, Abs format (unit mm)*
G04 Created by KiCad (PCBNEW 8.0.3) date 2024-06-16 17:33:43*
%MOMM*%
%LPD*%
G01*
G04 APERTURE LIST*
%ADD10C,0.050000*%
%ADD11C,0.200000*%
%ADD12C,0.250000*%
%ADD13C,0.279400*%
%ADD14C,0.320000*%
%ADD15C,0.400000*%
G04 APERTURE END LIST*
D10*
X5283200Y-15495761D02*
X24378920Y-15495761D01*
X5283200Y-5218819D02*
X5283200Y-7391400D01*
X3670300Y-7391400D02*
X5283200Y-7391400D01*
X24378920Y-5219700D02*
X5283200Y-5219700D01*
X5283200Y-13335000D02*
X5283200Y-15495761D01*
X24378920Y-15495761D02*
X24378920Y-5219700D01*
X3670300Y-13335000D02*
X5283200Y-13335000D01*
X3670300Y-7393940D02*
X3670300Y-13332460D01*
D11*
D12*
X15220745Y-6155776D02*
X15470745Y-6405776D01*
X15470745Y-6155776D02*
X15220745Y-6405776D01*
X17252745Y-6155776D02*
X17502745Y-6405776D01*
X17502745Y-6155776D02*
X17252745Y-6405776D01*
D13*
X4089400Y-7950200D02*
G75*
G02*
X3810000Y-7950200I-139700J0D01*
G01*
X3810000Y-7950200D02*
G75*
G02*
X4089400Y-7950200I139700J0D01*
G01*
X4089400Y-12776200D02*
G75*
G02*
X3810000Y-12776200I-139700J0D01*
G01*
X3810000Y-12776200D02*
G75*
G02*
X4089400Y-12776200I139700J0D01*
G01*
X6075680Y-7863200D02*
G75*
G02*
X5796280Y-7863200I-139700J0D01*
G01*
X5796280Y-7863200D02*
G75*
G02*
X6075680Y-7863200I139700J0D01*
G01*
X6075680Y-12863200D02*
G75*
G02*
X5796280Y-12863200I-139700J0D01*
G01*
X5796280Y-12863200D02*
G75*
G02*
X6075680Y-12863200I139700J0D01*
G01*
X8028940Y-5999480D02*
G75*
G02*
X7749540Y-5999480I-139700J0D01*
G01*
X7749540Y-5999480D02*
G75*
G02*
X8028940Y-5999480I139700J0D01*
G01*
X8028940Y-15001240D02*
G75*
G02*
X7749540Y-15001240I-139700J0D01*
G01*
X7749540Y-15001240D02*
G75*
G02*
X8028940Y-15001240I139700J0D01*
G01*
X10039465Y-5994881D02*
G75*
G02*
X9760065Y-5994881I-139700J0D01*
G01*
X9760065Y-5994881D02*
G75*
G02*
X10039465Y-5994881I139700J0D01*
G01*
X10039465Y-14996641D02*
G75*
G02*
X9760065Y-14996641I-139700J0D01*
G01*
X9760065Y-14996641D02*
G75*
G02*
X10039465Y-14996641I139700J0D01*
G01*
X12071465Y-5994881D02*
G75*
G02*
X11792065Y-5994881I-139700J0D01*
G01*
X11792065Y-5994881D02*
G75*
G02*
X12071465Y-5994881I139700J0D01*
G01*
X12071465Y-14996641D02*
G75*
G02*
X11792065Y-14996641I-139700J0D01*
G01*
X11792065Y-14996641D02*
G75*
G02*
X12071465Y-14996641I139700J0D01*
G01*
X14103465Y-5994881D02*
G75*
G02*
X13824065Y-5994881I-139700J0D01*
G01*
X13824065Y-5994881D02*
G75*
G02*
X14103465Y-5994881I139700J0D01*
G01*
X14103465Y-14996641D02*
G75*
G02*
X13824065Y-14996641I-139700J0D01*
G01*
X13824065Y-14996641D02*
G75*
G02*
X14103465Y-14996641I139700J0D01*
G01*
D14*
X5968266Y-5805345D02*
X5968266Y-6125345D01*
X5808266Y-5965345D02*
X6128266Y-5965345D01*
X5984443Y-14705172D02*
X5984443Y-15025172D01*
X5824443Y-14865172D02*
X6144443Y-14865172D01*
X10896600Y-5809000D02*
X10896600Y-6129000D01*
X10736600Y-5969000D02*
X11056600Y-5969000D01*
X10909300Y-14711700D02*
X10909300Y-15031700D01*
X10749300Y-14871700D02*
X11069300Y-14871700D01*
X21294928Y-5809000D02*
X21294928Y-6129000D01*
X21134928Y-5969000D02*
X21454928Y-5969000D01*
X21296313Y-14717261D02*
X21296313Y-15037261D01*
X21136313Y-14877261D02*
X21456313Y-14877261D01*
D15*
X15995168Y-5660199D02*
X15995168Y-5377353D01*
X15712322Y-5377353D01*
X15712322Y-5660199D01*
X15995168Y-5660199D01*
X17011168Y-5660199D02*
X17011168Y-5377353D01*
X16728322Y-5377353D01*
X16728322Y-5660199D01*
X17011168Y-5660199D01*
D11*
X3928577Y-15809745D02*
X3928577Y-15609745D01*
X3928577Y-15609745D02*
X3976196Y-15609745D01*
X3976196Y-15609745D02*
X4004767Y-15619269D01*
X4004767Y-15619269D02*
X4023815Y-15638316D01*
X4023815Y-15638316D02*
X4033339Y-15657364D01*
X4033339Y-15657364D02*
X4042862Y-15695459D01*
X4042862Y-15695459D02*
X4042862Y-15724031D01*
X4042862Y-15724031D02*
X4033339Y-15762126D01*
X4033339Y-15762126D02*
X4023815Y-15781173D01*
X4023815Y-15781173D02*
X4004767Y-15800221D01*
X4004767Y-15800221D02*
X3976196Y-15809745D01*
X3976196Y-15809745D02*
X3928577Y-15809745D01*
X4128577Y-15809745D02*
X4128577Y-15676412D01*
X4128577Y-15714507D02*
X4138101Y-15695459D01*
X4138101Y-15695459D02*
X4147624Y-15685935D01*
X4147624Y-15685935D02*
X4166672Y-15676412D01*
X4166672Y-15676412D02*
X4185720Y-15676412D01*
X4252386Y-15809745D02*
X4252386Y-15676412D01*
X4252386Y-15609745D02*
X4242863Y-15619269D01*
X4242863Y-15619269D02*
X4252386Y-15628793D01*
X4252386Y-15628793D02*
X4261910Y-15619269D01*
X4261910Y-15619269D02*
X4252386Y-15609745D01*
X4252386Y-15609745D02*
X4252386Y-15628793D01*
X4376196Y-15809745D02*
X4357148Y-15800221D01*
X4357148Y-15800221D02*
X4347624Y-15781173D01*
X4347624Y-15781173D02*
X4347624Y-15609745D01*
X4480958Y-15809745D02*
X4461910Y-15800221D01*
X4461910Y-15800221D02*
X4452386Y-15781173D01*
X4452386Y-15781173D02*
X4452386Y-15609745D01*
X4709529Y-15809745D02*
X4709529Y-15609745D01*
X4709529Y-15609745D02*
X4776196Y-15752602D01*
X4776196Y-15752602D02*
X4842863Y-15609745D01*
X4842863Y-15609745D02*
X4842863Y-15809745D01*
X5023815Y-15809745D02*
X5023815Y-15704983D01*
X5023815Y-15704983D02*
X5014291Y-15685935D01*
X5014291Y-15685935D02*
X4995244Y-15676412D01*
X4995244Y-15676412D02*
X4957148Y-15676412D01*
X4957148Y-15676412D02*
X4938101Y-15685935D01*
X5023815Y-15800221D02*
X5004767Y-15809745D01*
X5004767Y-15809745D02*
X4957148Y-15809745D01*
X4957148Y-15809745D02*
X4938101Y-15800221D01*
X4938101Y-15800221D02*
X4928577Y-15781173D01*
X4928577Y-15781173D02*
X4928577Y-15762126D01*
X4928577Y-15762126D02*
X4938101Y-15743078D01*
X4938101Y-15743078D02*
X4957148Y-15733554D01*
X4957148Y-15733554D02*
X5004767Y-15733554D01*
X5004767Y-15733554D02*
X5023815Y-15724031D01*
X5119053Y-15676412D02*
X5119053Y-15876412D01*
X5119053Y-15685935D02*
X5138101Y-15676412D01*
X5138101Y-15676412D02*
X5176196Y-15676412D01*
X5176196Y-15676412D02*
X5195244Y-15685935D01*
X5195244Y-15685935D02*
X5204767Y-15695459D01*
X5204767Y-15695459D02*
X5214291Y-15714507D01*
X5214291Y-15714507D02*
X5214291Y-15771650D01*
X5214291Y-15771650D02*
X5204767Y-15790697D01*
X5204767Y-15790697D02*
X5195244Y-15800221D01*
X5195244Y-15800221D02*
X5176196Y-15809745D01*
X5176196Y-15809745D02*
X5138101Y-15809745D01*
X5138101Y-15809745D02*
X5119053Y-15800221D01*
X5300005Y-15790697D02*
X5309529Y-15800221D01*
X5309529Y-15800221D02*
X5300005Y-15809745D01*
X5300005Y-15809745D02*
X5290482Y-15800221D01*
X5290482Y-15800221D02*
X5300005Y-15790697D01*
X5300005Y-15790697D02*
X5300005Y-15809745D01*
X5300005Y-15685935D02*
X5309529Y-15695459D01*
X5309529Y-15695459D02*
X5300005Y-15704983D01*
X5300005Y-15704983D02*
X5290482Y-15695459D01*
X5290482Y-15695459D02*
X5300005Y-15685935D01*
X5300005Y-15685935D02*
X5300005Y-15704983D01*
X3467800Y-16038261D02*
X3667800Y-16238261D01*
X3667800Y-16038261D02*
X3467800Y-16238261D01*
X3919053Y-16048793D02*
X3928577Y-16039269D01*
X3928577Y-16039269D02*
X3947624Y-16029745D01*
X3947624Y-16029745D02*
X3995243Y-16029745D01*
X3995243Y-16029745D02*
X4014291Y-16039269D01*
X4014291Y-16039269D02*
X4023815Y-16048793D01*
X4023815Y-16048793D02*
X4033339Y-16067840D01*
X4033339Y-16067840D02*
X4033339Y-16086888D01*
X4033339Y-16086888D02*
X4023815Y-16115459D01*
X4023815Y-16115459D02*
X3909529Y-16229745D01*
X3909529Y-16229745D02*
X4033339Y-16229745D01*
X4119053Y-16210697D02*
X4128577Y-16220221D01*
X4128577Y-16220221D02*
X4119053Y-16229745D01*
X4119053Y-16229745D02*
X4109529Y-16220221D01*
X4109529Y-16220221D02*
X4119053Y-16210697D01*
X4119053Y-16210697D02*
X4119053Y-16229745D01*
X4309529Y-16029745D02*
X4214291Y-16029745D01*
X4214291Y-16029745D02*
X4204767Y-16124983D01*
X4204767Y-16124983D02*
X4214291Y-16115459D01*
X4214291Y-16115459D02*
X4233339Y-16105935D01*
X4233339Y-16105935D02*
X4280958Y-16105935D01*
X4280958Y-16105935D02*
X4300005Y-16115459D01*
X4300005Y-16115459D02*
X4309529Y-16124983D01*
X4309529Y-16124983D02*
X4319053Y-16144031D01*
X4319053Y-16144031D02*
X4319053Y-16191650D01*
X4319053Y-16191650D02*
X4309529Y-16210697D01*
X4309529Y-16210697D02*
X4300005Y-16220221D01*
X4300005Y-16220221D02*
X4280958Y-16229745D01*
X4280958Y-16229745D02*
X4233339Y-16229745D01*
X4233339Y-16229745D02*
X4214291Y-16220221D01*
X4214291Y-16220221D02*
X4204767Y-16210697D01*
X4442863Y-16029745D02*
X4461910Y-16029745D01*
X4461910Y-16029745D02*
X4480958Y-16039269D01*
X4480958Y-16039269D02*
X4490482Y-16048793D01*
X4490482Y-16048793D02*
X4500005Y-16067840D01*
X4500005Y-16067840D02*
X4509529Y-16105935D01*
X4509529Y-16105935D02*
X4509529Y-16153554D01*
X4509529Y-16153554D02*
X4500005Y-16191650D01*
X4500005Y-16191650D02*
X4490482Y-16210697D01*
X4490482Y-16210697D02*
X4480958Y-16220221D01*
X4480958Y-16220221D02*
X4461910Y-16229745D01*
X4461910Y-16229745D02*
X4442863Y-16229745D01*
X4442863Y-16229745D02*
X4423815Y-16220221D01*
X4423815Y-16220221D02*
X4414291Y-16210697D01*
X4414291Y-16210697D02*
X4404767Y-16191650D01*
X4404767Y-16191650D02*
X4395244Y-16153554D01*
X4395244Y-16153554D02*
X4395244Y-16105935D01*
X4395244Y-16105935D02*
X4404767Y-16067840D01*
X4404767Y-16067840D02*
X4414291Y-16048793D01*
X4414291Y-16048793D02*
X4423815Y-16039269D01*
X4423815Y-16039269D02*
X4442863Y-16029745D01*
X4633339Y-16029745D02*
X4652386Y-16029745D01*
X4652386Y-16029745D02*
X4671434Y-16039269D01*
X4671434Y-16039269D02*
X4680958Y-16048793D01*
X4680958Y-16048793D02*
X4690482Y-16067840D01*
X4690482Y-16067840D02*
X4700005Y-16105935D01*
X4700005Y-16105935D02*
X4700005Y-16153554D01*
X4700005Y-16153554D02*
X4690482Y-16191650D01*
X4690482Y-16191650D02*
X4680958Y-16210697D01*
X4680958Y-16210697D02*
X4671434Y-16220221D01*
X4671434Y-16220221D02*
X4652386Y-16229745D01*
X4652386Y-16229745D02*
X4633339Y-16229745D01*
X4633339Y-16229745D02*
X4614291Y-16220221D01*
X4614291Y-16220221D02*
X4604767Y-16210697D01*
X4604767Y-16210697D02*
X4595244Y-16191650D01*
X4595244Y-16191650D02*
X4585720Y-16153554D01*
X4585720Y-16153554D02*
X4585720Y-16105935D01*
X4585720Y-16105935D02*
X4595244Y-16067840D01*
X4595244Y-16067840D02*
X4604767Y-16048793D01*
X4604767Y-16048793D02*
X4614291Y-16039269D01*
X4614291Y-16039269D02*
X4633339Y-16029745D01*
X4785720Y-16229745D02*
X4785720Y-16096412D01*
X4785720Y-16115459D02*
X4795244Y-16105935D01*
X4795244Y-16105935D02*
X4814291Y-16096412D01*
X4814291Y-16096412D02*
X4842863Y-16096412D01*
X4842863Y-16096412D02*
X4861910Y-16105935D01*
X4861910Y-16105935D02*
X4871434Y-16124983D01*
X4871434Y-16124983D02*
X4871434Y-16229745D01*
X4871434Y-16124983D02*
X4880958Y-16105935D01*
X4880958Y-16105935D02*
X4900005Y-16096412D01*
X4900005Y-16096412D02*
X4928577Y-16096412D01*
X4928577Y-16096412D02*
X4947625Y-16105935D01*
X4947625Y-16105935D02*
X4957148Y-16124983D01*
X4957148Y-16124983D02*
X4957148Y-16229745D01*
X5052386Y-16229745D02*
X5052386Y-16096412D01*
X5052386Y-16115459D02*
X5061910Y-16105935D01*
X5061910Y-16105935D02*
X5080958Y-16096412D01*
X5080958Y-16096412D02*
X5109529Y-16096412D01*
X5109529Y-16096412D02*
X5128577Y-16105935D01*
X5128577Y-16105935D02*
X5138101Y-16124983D01*
X5138101Y-16124983D02*
X5138101Y-16229745D01*
X5138101Y-16124983D02*
X5147625Y-16105935D01*
X5147625Y-16105935D02*
X5166672Y-16096412D01*
X5166672Y-16096412D02*
X5195244Y-16096412D01*
X5195244Y-16096412D02*
X5214291Y-16105935D01*
X5214291Y-16105935D02*
X5223815Y-16124983D01*
X5223815Y-16124983D02*
X5223815Y-16229745D01*
X5614291Y-16020221D02*
X5442863Y-16277364D01*
X5871434Y-16029745D02*
X5890482Y-16029745D01*
X5890482Y-16029745D02*
X5909529Y-16039269D01*
X5909529Y-16039269D02*
X5919053Y-16048793D01*
X5919053Y-16048793D02*
X5928577Y-16067840D01*
X5928577Y-16067840D02*
X5938101Y-16105935D01*
X5938101Y-16105935D02*
X5938101Y-16153554D01*
X5938101Y-16153554D02*
X5928577Y-16191650D01*
X5928577Y-16191650D02*
X5919053Y-16210697D01*
X5919053Y-16210697D02*
X5909529Y-16220221D01*
X5909529Y-16220221D02*
X5890482Y-16229745D01*
X5890482Y-16229745D02*
X5871434Y-16229745D01*
X5871434Y-16229745D02*
X5852386Y-16220221D01*
X5852386Y-16220221D02*
X5842863Y-16210697D01*
X5842863Y-16210697D02*
X5833339Y-16191650D01*
X5833339Y-16191650D02*
X5823815Y-16153554D01*
X5823815Y-16153554D02*
X5823815Y-16105935D01*
X5823815Y-16105935D02*
X5833339Y-16067840D01*
X5833339Y-16067840D02*
X5842863Y-16048793D01*
X5842863Y-16048793D02*
X5852386Y-16039269D01*
X5852386Y-16039269D02*
X5871434Y-16029745D01*
X6023815Y-16210697D02*
X6033339Y-16220221D01*
X6033339Y-16220221D02*
X6023815Y-16229745D01*
X6023815Y-16229745D02*
X6014291Y-16220221D01*
X6014291Y-16220221D02*
X6023815Y-16210697D01*
X6023815Y-16210697D02*
X6023815Y-16229745D01*
X6157148Y-16029745D02*
X6176196Y-16029745D01*
X6176196Y-16029745D02*
X6195244Y-16039269D01*
X6195244Y-16039269D02*
X6204767Y-16048793D01*
X6204767Y-16048793D02*
X6214291Y-16067840D01*
X6214291Y-16067840D02*
X6223815Y-16105935D01*
X6223815Y-16105935D02*
X6223815Y-16153554D01*
X6223815Y-16153554D02*
X6214291Y-16191650D01*
X6214291Y-16191650D02*
X6204767Y-16210697D01*
X6204767Y-16210697D02*
X6195244Y-16220221D01*
X6195244Y-16220221D02*
X6176196Y-16229745D01*
X6176196Y-16229745D02*
X6157148Y-16229745D01*
X6157148Y-16229745D02*
X6138101Y-16220221D01*
X6138101Y-16220221D02*
X6128577Y-16210697D01*
X6128577Y-16210697D02*
X6119053Y-16191650D01*
X6119053Y-16191650D02*
X6109529Y-16153554D01*
X6109529Y-16153554D02*
X6109529Y-16105935D01*
X6109529Y-16105935D02*
X6119053Y-16067840D01*
X6119053Y-16067840D02*
X6128577Y-16048793D01*
X6128577Y-16048793D02*
X6138101Y-16039269D01*
X6138101Y-16039269D02*
X6157148Y-16029745D01*
X6319053Y-16229745D02*
X6357148Y-16229745D01*
X6357148Y-16229745D02*
X6376196Y-16220221D01*
X6376196Y-16220221D02*
X6385720Y-16210697D01*
X6385720Y-16210697D02*
X6404767Y-16182126D01*
X6404767Y-16182126D02*
X6414291Y-16144031D01*
X6414291Y-16144031D02*
X6414291Y-16067840D01*
X6414291Y-16067840D02*
X6404767Y-16048793D01*
X6404767Y-16048793D02*
X6395244Y-16039269D01*
X6395244Y-16039269D02*
X6376196Y-16029745D01*
X6376196Y-16029745D02*
X6338101Y-16029745D01*
X6338101Y-16029745D02*
X6319053Y-16039269D01*
X6319053Y-16039269D02*
X6309529Y-16048793D01*
X6309529Y-16048793D02*
X6300006Y-16067840D01*
X6300006Y-16067840D02*
X6300006Y-16115459D01*
X6300006Y-16115459D02*
X6309529Y-16134507D01*
X6309529Y-16134507D02*
X6319053Y-16144031D01*
X6319053Y-16144031D02*
X6338101Y-16153554D01*
X6338101Y-16153554D02*
X6376196Y-16153554D01*
X6376196Y-16153554D02*
X6395244Y-16144031D01*
X6395244Y-16144031D02*
X6404767Y-16134507D01*
X6404767Y-16134507D02*
X6414291Y-16115459D01*
X6528577Y-16115459D02*
X6509529Y-16105935D01*
X6509529Y-16105935D02*
X6500006Y-16096412D01*
X6500006Y-16096412D02*
X6490482Y-16077364D01*
X6490482Y-16077364D02*
X6490482Y-16067840D01*
X6490482Y-16067840D02*
X6500006Y-16048793D01*
X6500006Y-16048793D02*
X6509529Y-16039269D01*
X6509529Y-16039269D02*
X6528577Y-16029745D01*
X6528577Y-16029745D02*
X6566672Y-16029745D01*
X6566672Y-16029745D02*
X6585720Y-16039269D01*
X6585720Y-16039269D02*
X6595244Y-16048793D01*
X6595244Y-16048793D02*
X6604767Y-16067840D01*
X6604767Y-16067840D02*
X6604767Y-16077364D01*
X6604767Y-16077364D02*
X6595244Y-16096412D01*
X6595244Y-16096412D02*
X6585720Y-16105935D01*
X6585720Y-16105935D02*
X6566672Y-16115459D01*
X6566672Y-16115459D02*
X6528577Y-16115459D01*
X6528577Y-16115459D02*
X6509529Y-16124983D01*
X6509529Y-16124983D02*
X6500006Y-16134507D01*
X6500006Y-16134507D02*
X6490482Y-16153554D01*
X6490482Y-16153554D02*
X6490482Y-16191650D01*
X6490482Y-16191650D02*
X6500006Y-16210697D01*
X6500006Y-16210697D02*
X6509529Y-16220221D01*
X6509529Y-16220221D02*
X6528577Y-16229745D01*
X6528577Y-16229745D02*
X6566672Y-16229745D01*
X6566672Y-16229745D02*
X6585720Y-16220221D01*
X6585720Y-16220221D02*
X6595244Y-16210697D01*
X6595244Y-16210697D02*
X6604767Y-16191650D01*
X6604767Y-16191650D02*
X6604767Y-16153554D01*
X6604767Y-16153554D02*
X6595244Y-16134507D01*
X6595244Y-16134507D02*
X6585720Y-16124983D01*
X6585720Y-16124983D02*
X6566672Y-16115459D01*
X6776196Y-16096412D02*
X6776196Y-16229745D01*
X6728577Y-16020221D02*
X6680958Y-16163078D01*
X6680958Y-16163078D02*
X6804767Y-16163078D01*
X6871434Y-16029745D02*
X6871434Y-16067840D01*
X6947625Y-16029745D02*
X6947625Y-16067840D01*
X7242863Y-16305935D02*
X7233339Y-16296412D01*
X7233339Y-16296412D02*
X7214291Y-16267840D01*
X7214291Y-16267840D02*
X7204768Y-16248793D01*
X7204768Y-16248793D02*
X7195244Y-16220221D01*
X7195244Y-16220221D02*
X7185720Y-16172602D01*
X7185720Y-16172602D02*
X7185720Y-16134507D01*
X7185720Y-16134507D02*
X7195244Y-16086888D01*
X7195244Y-16086888D02*
X7204768Y-16058316D01*
X7204768Y-16058316D02*
X7214291Y-16039269D01*
X7214291Y-16039269D02*
X7233339Y-16010697D01*
X7233339Y-16010697D02*
X7242863Y-16001173D01*
X7309529Y-16048793D02*
X7319053Y-16039269D01*
X7319053Y-16039269D02*
X7338101Y-16029745D01*
X7338101Y-16029745D02*
X7385720Y-16029745D01*
X7385720Y-16029745D02*
X7404768Y-16039269D01*
X7404768Y-16039269D02*
X7414291Y-16048793D01*
X7414291Y-16048793D02*
X7423815Y-16067840D01*
X7423815Y-16067840D02*
X7423815Y-16086888D01*
X7423815Y-16086888D02*
X7414291Y-16115459D01*
X7414291Y-16115459D02*
X7300006Y-16229745D01*
X7300006Y-16229745D02*
X7423815Y-16229745D01*
X7661910Y-16229745D02*
X7661910Y-16029745D01*
X7747625Y-16229745D02*
X7747625Y-16124983D01*
X7747625Y-16124983D02*
X7738101Y-16105935D01*
X7738101Y-16105935D02*
X7719053Y-16096412D01*
X7719053Y-16096412D02*
X7690482Y-16096412D01*
X7690482Y-16096412D02*
X7671434Y-16105935D01*
X7671434Y-16105935D02*
X7661910Y-16115459D01*
X7871434Y-16229745D02*
X7852387Y-16220221D01*
X7852387Y-16220221D02*
X7842863Y-16210697D01*
X7842863Y-16210697D02*
X7833339Y-16191650D01*
X7833339Y-16191650D02*
X7833339Y-16134507D01*
X7833339Y-16134507D02*
X7842863Y-16115459D01*
X7842863Y-16115459D02*
X7852387Y-16105935D01*
X7852387Y-16105935D02*
X7871434Y-16096412D01*
X7871434Y-16096412D02*
X7900006Y-16096412D01*
X7900006Y-16096412D02*
X7919053Y-16105935D01*
X7919053Y-16105935D02*
X7928577Y-16115459D01*
X7928577Y-16115459D02*
X7938101Y-16134507D01*
X7938101Y-16134507D02*
X7938101Y-16191650D01*
X7938101Y-16191650D02*
X7928577Y-16210697D01*
X7928577Y-16210697D02*
X7919053Y-16220221D01*
X7919053Y-16220221D02*
X7900006Y-16229745D01*
X7900006Y-16229745D02*
X7871434Y-16229745D01*
X8052387Y-16229745D02*
X8033339Y-16220221D01*
X8033339Y-16220221D02*
X8023815Y-16201173D01*
X8023815Y-16201173D02*
X8023815Y-16029745D01*
X8204768Y-16220221D02*
X8185720Y-16229745D01*
X8185720Y-16229745D02*
X8147625Y-16229745D01*
X8147625Y-16229745D02*
X8128577Y-16220221D01*
X8128577Y-16220221D02*
X8119053Y-16201173D01*
X8119053Y-16201173D02*
X8119053Y-16124983D01*
X8119053Y-16124983D02*
X8128577Y-16105935D01*
X8128577Y-16105935D02*
X8147625Y-16096412D01*
X8147625Y-16096412D02*
X8185720Y-16096412D01*
X8185720Y-16096412D02*
X8204768Y-16105935D01*
X8204768Y-16105935D02*
X8214291Y-16124983D01*
X8214291Y-16124983D02*
X8214291Y-16144031D01*
X8214291Y-16144031D02*
X8119053Y-16163078D01*
X8290482Y-16220221D02*
X8309530Y-16229745D01*
X8309530Y-16229745D02*
X8347625Y-16229745D01*
X8347625Y-16229745D02*
X8366672Y-16220221D01*
X8366672Y-16220221D02*
X8376196Y-16201173D01*
X8376196Y-16201173D02*
X8376196Y-16191650D01*
X8376196Y-16191650D02*
X8366672Y-16172602D01*
X8366672Y-16172602D02*
X8347625Y-16163078D01*
X8347625Y-16163078D02*
X8319053Y-16163078D01*
X8319053Y-16163078D02*
X8300006Y-16153554D01*
X8300006Y-16153554D02*
X8290482Y-16134507D01*
X8290482Y-16134507D02*
X8290482Y-16124983D01*
X8290482Y-16124983D02*
X8300006Y-16105935D01*
X8300006Y-16105935D02*
X8319053Y-16096412D01*
X8319053Y-16096412D02*
X8347625Y-16096412D01*
X8347625Y-16096412D02*
X8366672Y-16105935D01*
X8442863Y-16305935D02*
X8452387Y-16296412D01*
X8452387Y-16296412D02*
X8471434Y-16267840D01*
X8471434Y-16267840D02*
X8480958Y-16248793D01*
X8480958Y-16248793D02*
X8490482Y-16220221D01*
X8490482Y-16220221D02*
X8500006Y-16172602D01*
X8500006Y-16172602D02*
X8500006Y-16134507D01*
X8500006Y-16134507D02*
X8490482Y-16086888D01*
X8490482Y-16086888D02*
X8480958Y-16058316D01*
X8480958Y-16058316D02*
X8471434Y-16039269D01*
X8471434Y-16039269D02*
X8452387Y-16010697D01*
X8452387Y-16010697D02*
X8442863Y-16001173D01*
X8804768Y-16305935D02*
X8795244Y-16296412D01*
X8795244Y-16296412D02*
X8776196Y-16267840D01*
X8776196Y-16267840D02*
X8766673Y-16248793D01*
X8766673Y-16248793D02*
X8757149Y-16220221D01*
X8757149Y-16220221D02*
X8747625Y-16172602D01*
X8747625Y-16172602D02*
X8747625Y-16134507D01*
X8747625Y-16134507D02*
X8757149Y-16086888D01*
X8757149Y-16086888D02*
X8766673Y-16058316D01*
X8766673Y-16058316D02*
X8776196Y-16039269D01*
X8776196Y-16039269D02*
X8795244Y-16010697D01*
X8795244Y-16010697D02*
X8804768Y-16001173D01*
X8880958Y-16096412D02*
X8880958Y-16229745D01*
X8880958Y-16115459D02*
X8890482Y-16105935D01*
X8890482Y-16105935D02*
X8909530Y-16096412D01*
X8909530Y-16096412D02*
X8938101Y-16096412D01*
X8938101Y-16096412D02*
X8957149Y-16105935D01*
X8957149Y-16105935D02*
X8966673Y-16124983D01*
X8966673Y-16124983D02*
X8966673Y-16229745D01*
X9090482Y-16229745D02*
X9071434Y-16220221D01*
X9071434Y-16220221D02*
X9061911Y-16210697D01*
X9061911Y-16210697D02*
X9052387Y-16191650D01*
X9052387Y-16191650D02*
X9052387Y-16134507D01*
X9052387Y-16134507D02*
X9061911Y-16115459D01*
X9061911Y-16115459D02*
X9071434Y-16105935D01*
X9071434Y-16105935D02*
X9090482Y-16096412D01*
X9090482Y-16096412D02*
X9119054Y-16096412D01*
X9119054Y-16096412D02*
X9138101Y-16105935D01*
X9138101Y-16105935D02*
X9147625Y-16115459D01*
X9147625Y-16115459D02*
X9157149Y-16134507D01*
X9157149Y-16134507D02*
X9157149Y-16191650D01*
X9157149Y-16191650D02*
X9147625Y-16210697D01*
X9147625Y-16210697D02*
X9138101Y-16220221D01*
X9138101Y-16220221D02*
X9119054Y-16229745D01*
X9119054Y-16229745D02*
X9090482Y-16229745D01*
X9214292Y-16096412D02*
X9290482Y-16096412D01*
X9242863Y-16029745D02*
X9242863Y-16201173D01*
X9242863Y-16201173D02*
X9252387Y-16220221D01*
X9252387Y-16220221D02*
X9271434Y-16229745D01*
X9271434Y-16229745D02*
X9290482Y-16229745D01*
X9509530Y-16096412D02*
X9509530Y-16296412D01*
X9509530Y-16105935D02*
X9528577Y-16096412D01*
X9528577Y-16096412D02*
X9566673Y-16096412D01*
X9566673Y-16096412D02*
X9585720Y-16105935D01*
X9585720Y-16105935D02*
X9595244Y-16115459D01*
X9595244Y-16115459D02*
X9604768Y-16134507D01*
X9604768Y-16134507D02*
X9604768Y-16191650D01*
X9604768Y-16191650D02*
X9595244Y-16210697D01*
X9595244Y-16210697D02*
X9585720Y-16220221D01*
X9585720Y-16220221D02*
X9566673Y-16229745D01*
X9566673Y-16229745D02*
X9528577Y-16229745D01*
X9528577Y-16229745D02*
X9509530Y-16220221D01*
X9719054Y-16229745D02*
X9700006Y-16220221D01*
X9700006Y-16220221D02*
X9690482Y-16201173D01*
X9690482Y-16201173D02*
X9690482Y-16029745D01*
X9880958Y-16229745D02*
X9880958Y-16124983D01*
X9880958Y-16124983D02*
X9871435Y-16105935D01*
X9871435Y-16105935D02*
X9852387Y-16096412D01*
X9852387Y-16096412D02*
X9814292Y-16096412D01*
X9814292Y-16096412D02*
X9795244Y-16105935D01*
X9880958Y-16220221D02*
X9861911Y-16229745D01*
X9861911Y-16229745D02*
X9814292Y-16229745D01*
X9814292Y-16229745D02*
X9795244Y-16220221D01*
X9795244Y-16220221D02*
X9785720Y-16201173D01*
X9785720Y-16201173D02*
X9785720Y-16182126D01*
X9785720Y-16182126D02*
X9795244Y-16163078D01*
X9795244Y-16163078D02*
X9814292Y-16153554D01*
X9814292Y-16153554D02*
X9861911Y-16153554D01*
X9861911Y-16153554D02*
X9880958Y-16144031D01*
X9947625Y-16096412D02*
X10023815Y-16096412D01*
X9976196Y-16029745D02*
X9976196Y-16201173D01*
X9976196Y-16201173D02*
X9985720Y-16220221D01*
X9985720Y-16220221D02*
X10004768Y-16229745D01*
X10004768Y-16229745D02*
X10023815Y-16229745D01*
X10166673Y-16220221D02*
X10147625Y-16229745D01*
X10147625Y-16229745D02*
X10109530Y-16229745D01*
X10109530Y-16229745D02*
X10090482Y-16220221D01*
X10090482Y-16220221D02*
X10080958Y-16201173D01*
X10080958Y-16201173D02*
X10080958Y-16124983D01*
X10080958Y-16124983D02*
X10090482Y-16105935D01*
X10090482Y-16105935D02*
X10109530Y-16096412D01*
X10109530Y-16096412D02*
X10147625Y-16096412D01*
X10147625Y-16096412D02*
X10166673Y-16105935D01*
X10166673Y-16105935D02*
X10176196Y-16124983D01*
X10176196Y-16124983D02*
X10176196Y-16144031D01*
X10176196Y-16144031D02*
X10080958Y-16163078D01*
X10347625Y-16229745D02*
X10347625Y-16029745D01*
X10347625Y-16220221D02*
X10328577Y-16229745D01*
X10328577Y-16229745D02*
X10290482Y-16229745D01*
X10290482Y-16229745D02*
X10271435Y-16220221D01*
X10271435Y-16220221D02*
X10261911Y-16210697D01*
X10261911Y-16210697D02*
X10252387Y-16191650D01*
X10252387Y-16191650D02*
X10252387Y-16134507D01*
X10252387Y-16134507D02*
X10261911Y-16115459D01*
X10261911Y-16115459D02*
X10271435Y-16105935D01*
X10271435Y-16105935D02*
X10290482Y-16096412D01*
X10290482Y-16096412D02*
X10328577Y-16096412D01*
X10328577Y-16096412D02*
X10347625Y-16105935D01*
X10423816Y-16305935D02*
X10433339Y-16296412D01*
X10433339Y-16296412D02*
X10452387Y-16267840D01*
X10452387Y-16267840D02*
X10461911Y-16248793D01*
X10461911Y-16248793D02*
X10471435Y-16220221D01*
X10471435Y-16220221D02*
X10480958Y-16172602D01*
X10480958Y-16172602D02*
X10480958Y-16134507D01*
X10480958Y-16134507D02*
X10471435Y-16086888D01*
X10471435Y-16086888D02*
X10461911Y-16058316D01*
X10461911Y-16058316D02*
X10452387Y-16039269D01*
X10452387Y-16039269D02*
X10433339Y-16010697D01*
X10433339Y-16010697D02*
X10423816Y-16001173D01*
X3667800Y-16458261D02*
G75*
G02*
X3467800Y-16458261I-100000J0D01*
G01*
X3467800Y-16458261D02*
G75*
G02*
X3667800Y-16458261I100000J0D01*
G01*
X3919053Y-16368793D02*
X3928577Y-16359269D01*
X3928577Y-16359269D02*
X3947624Y-16349745D01*
X3947624Y-16349745D02*
X3995243Y-16349745D01*
X3995243Y-16349745D02*
X4014291Y-16359269D01*
X4014291Y-16359269D02*
X4023815Y-16368793D01*
X4023815Y-16368793D02*
X4033339Y-16387840D01*
X4033339Y-16387840D02*
X4033339Y-16406888D01*
X4033339Y-16406888D02*
X4023815Y-16435459D01*
X4023815Y-16435459D02*
X3909529Y-16549745D01*
X3909529Y-16549745D02*
X4033339Y-16549745D01*
X4119053Y-16530697D02*
X4128577Y-16540221D01*
X4128577Y-16540221D02*
X4119053Y-16549745D01*
X4119053Y-16549745D02*
X4109529Y-16540221D01*
X4109529Y-16540221D02*
X4119053Y-16530697D01*
X4119053Y-16530697D02*
X4119053Y-16549745D01*
X4195244Y-16349745D02*
X4328577Y-16349745D01*
X4328577Y-16349745D02*
X4242863Y-16549745D01*
X4414291Y-16549745D02*
X4452386Y-16549745D01*
X4452386Y-16549745D02*
X4471434Y-16540221D01*
X4471434Y-16540221D02*
X4480958Y-16530697D01*
X4480958Y-16530697D02*
X4500005Y-16502126D01*
X4500005Y-16502126D02*
X4509529Y-16464031D01*
X4509529Y-16464031D02*
X4509529Y-16387840D01*
X4509529Y-16387840D02*
X4500005Y-16368793D01*
X4500005Y-16368793D02*
X4490482Y-16359269D01*
X4490482Y-16359269D02*
X4471434Y-16349745D01*
X4471434Y-16349745D02*
X4433339Y-16349745D01*
X4433339Y-16349745D02*
X4414291Y-16359269D01*
X4414291Y-16359269D02*
X4404767Y-16368793D01*
X4404767Y-16368793D02*
X4395244Y-16387840D01*
X4395244Y-16387840D02*
X4395244Y-16435459D01*
X4395244Y-16435459D02*
X4404767Y-16454507D01*
X4404767Y-16454507D02*
X4414291Y-16464031D01*
X4414291Y-16464031D02*
X4433339Y-16473554D01*
X4433339Y-16473554D02*
X4471434Y-16473554D01*
X4471434Y-16473554D02*
X4490482Y-16464031D01*
X4490482Y-16464031D02*
X4500005Y-16454507D01*
X4500005Y-16454507D02*
X4509529Y-16435459D01*
X4680958Y-16416412D02*
X4680958Y-16549745D01*
X4633339Y-16340221D02*
X4585720Y-16483078D01*
X4585720Y-16483078D02*
X4709529Y-16483078D01*
X4785720Y-16549745D02*
X4785720Y-16416412D01*
X4785720Y-16435459D02*
X4795244Y-16425935D01*
X4795244Y-16425935D02*
X4814291Y-16416412D01*
X4814291Y-16416412D02*
X4842863Y-16416412D01*
X4842863Y-16416412D02*
X4861910Y-16425935D01*
X4861910Y-16425935D02*
X4871434Y-16444983D01*
X4871434Y-16444983D02*
X4871434Y-16549745D01*
X4871434Y-16444983D02*
X4880958Y-16425935D01*
X4880958Y-16425935D02*
X4900005Y-16416412D01*
X4900005Y-16416412D02*
X4928577Y-16416412D01*
X4928577Y-16416412D02*
X4947625Y-16425935D01*
X4947625Y-16425935D02*
X4957148Y-16444983D01*
X4957148Y-16444983D02*
X4957148Y-16549745D01*
X5052386Y-16549745D02*
X5052386Y-16416412D01*
X5052386Y-16435459D02*
X5061910Y-16425935D01*
X5061910Y-16425935D02*
X5080958Y-16416412D01*
X5080958Y-16416412D02*
X5109529Y-16416412D01*
X5109529Y-16416412D02*
X5128577Y-16425935D01*
X5128577Y-16425935D02*
X5138101Y-16444983D01*
X5138101Y-16444983D02*
X5138101Y-16549745D01*
X5138101Y-16444983D02*
X5147625Y-16425935D01*
X5147625Y-16425935D02*
X5166672Y-16416412D01*
X5166672Y-16416412D02*
X5195244Y-16416412D01*
X5195244Y-16416412D02*
X5214291Y-16425935D01*
X5214291Y-16425935D02*
X5223815Y-16444983D01*
X5223815Y-16444983D02*
X5223815Y-16549745D01*
X5614291Y-16340221D02*
X5442863Y-16597364D01*
X5871434Y-16349745D02*
X5890482Y-16349745D01*
X5890482Y-16349745D02*
X5909529Y-16359269D01*
X5909529Y-16359269D02*
X5919053Y-16368793D01*
X5919053Y-16368793D02*
X5928577Y-16387840D01*
X5928577Y-16387840D02*
X5938101Y-16425935D01*
X5938101Y-16425935D02*
X5938101Y-16473554D01*
X5938101Y-16473554D02*
X5928577Y-16511650D01*
X5928577Y-16511650D02*
X5919053Y-16530697D01*
X5919053Y-16530697D02*
X5909529Y-16540221D01*
X5909529Y-16540221D02*
X5890482Y-16549745D01*
X5890482Y-16549745D02*
X5871434Y-16549745D01*
X5871434Y-16549745D02*
X5852386Y-16540221D01*
X5852386Y-16540221D02*
X5842863Y-16530697D01*
X5842863Y-16530697D02*
X5833339Y-16511650D01*
X5833339Y-16511650D02*
X5823815Y-16473554D01*
X5823815Y-16473554D02*
X5823815Y-16425935D01*
X5823815Y-16425935D02*
X5833339Y-16387840D01*
X5833339Y-16387840D02*
X5842863Y-16368793D01*
X5842863Y-16368793D02*
X5852386Y-16359269D01*
X5852386Y-16359269D02*
X5871434Y-16349745D01*
X6023815Y-16530697D02*
X6033339Y-16540221D01*
X6033339Y-16540221D02*
X6023815Y-16549745D01*
X6023815Y-16549745D02*
X6014291Y-16540221D01*
X6014291Y-16540221D02*
X6023815Y-16530697D01*
X6023815Y-16530697D02*
X6023815Y-16549745D01*
X6223815Y-16549745D02*
X6109529Y-16549745D01*
X6166672Y-16549745D02*
X6166672Y-16349745D01*
X6166672Y-16349745D02*
X6147625Y-16378316D01*
X6147625Y-16378316D02*
X6128577Y-16397364D01*
X6128577Y-16397364D02*
X6109529Y-16406888D01*
X6414291Y-16549745D02*
X6300006Y-16549745D01*
X6357148Y-16549745D02*
X6357148Y-16349745D01*
X6357148Y-16349745D02*
X6338101Y-16378316D01*
X6338101Y-16378316D02*
X6319053Y-16397364D01*
X6319053Y-16397364D02*
X6300006Y-16406888D01*
X6538101Y-16349745D02*
X6557148Y-16349745D01*
X6557148Y-16349745D02*
X6576196Y-16359269D01*
X6576196Y-16359269D02*
X6585720Y-16368793D01*
X6585720Y-16368793D02*
X6595244Y-16387840D01*
X6595244Y-16387840D02*
X6604767Y-16425935D01*
X6604767Y-16425935D02*
X6604767Y-16473554D01*
X6604767Y-16473554D02*
X6595244Y-16511650D01*
X6595244Y-16511650D02*
X6585720Y-16530697D01*
X6585720Y-16530697D02*
X6576196Y-16540221D01*
X6576196Y-16540221D02*
X6557148Y-16549745D01*
X6557148Y-16549745D02*
X6538101Y-16549745D01*
X6538101Y-16549745D02*
X6519053Y-16540221D01*
X6519053Y-16540221D02*
X6509529Y-16530697D01*
X6509529Y-16530697D02*
X6500006Y-16511650D01*
X6500006Y-16511650D02*
X6490482Y-16473554D01*
X6490482Y-16473554D02*
X6490482Y-16425935D01*
X6490482Y-16425935D02*
X6500006Y-16387840D01*
X6500006Y-16387840D02*
X6509529Y-16368793D01*
X6509529Y-16368793D02*
X6519053Y-16359269D01*
X6519053Y-16359269D02*
X6538101Y-16349745D01*
X6728577Y-16349745D02*
X6747625Y-16349745D01*
X6747625Y-16349745D02*
X6766672Y-16359269D01*
X6766672Y-16359269D02*
X6776196Y-16368793D01*
X6776196Y-16368793D02*
X6785720Y-16387840D01*
X6785720Y-16387840D02*
X6795244Y-16425935D01*
X6795244Y-16425935D02*
X6795244Y-16473554D01*
X6795244Y-16473554D02*
X6785720Y-16511650D01*
X6785720Y-16511650D02*
X6776196Y-16530697D01*
X6776196Y-16530697D02*
X6766672Y-16540221D01*
X6766672Y-16540221D02*
X6747625Y-16549745D01*
X6747625Y-16549745D02*
X6728577Y-16549745D01*
X6728577Y-16549745D02*
X6709529Y-16540221D01*
X6709529Y-16540221D02*
X6700006Y-16530697D01*
X6700006Y-16530697D02*
X6690482Y-16511650D01*
X6690482Y-16511650D02*
X6680958Y-16473554D01*
X6680958Y-16473554D02*
X6680958Y-16425935D01*
X6680958Y-16425935D02*
X6690482Y-16387840D01*
X6690482Y-16387840D02*
X6700006Y-16368793D01*
X6700006Y-16368793D02*
X6709529Y-16359269D01*
X6709529Y-16359269D02*
X6728577Y-16349745D01*
X6871434Y-16349745D02*
X6871434Y-16387840D01*
X6947625Y-16349745D02*
X6947625Y-16387840D01*
X7242863Y-16625935D02*
X7233339Y-16616412D01*
X7233339Y-16616412D02*
X7214291Y-16587840D01*
X7214291Y-16587840D02*
X7204768Y-16568793D01*
X7204768Y-16568793D02*
X7195244Y-16540221D01*
X7195244Y-16540221D02*
X7185720Y-16492602D01*
X7185720Y-16492602D02*
X7185720Y-16454507D01*
X7185720Y-16454507D02*
X7195244Y-16406888D01*
X7195244Y-16406888D02*
X7204768Y-16378316D01*
X7204768Y-16378316D02*
X7214291Y-16359269D01*
X7214291Y-16359269D02*
X7233339Y-16330697D01*
X7233339Y-16330697D02*
X7242863Y-16321173D01*
X7423815Y-16549745D02*
X7309529Y-16549745D01*
X7366672Y-16549745D02*
X7366672Y-16349745D01*
X7366672Y-16349745D02*
X7347625Y-16378316D01*
X7347625Y-16378316D02*
X7328577Y-16397364D01*
X7328577Y-16397364D02*
X7309529Y-16406888D01*
X7500006Y-16368793D02*
X7509529Y-16359269D01*
X7509529Y-16359269D02*
X7528577Y-16349745D01*
X7528577Y-16349745D02*
X7576196Y-16349745D01*
X7576196Y-16349745D02*
X7595244Y-16359269D01*
X7595244Y-16359269D02*
X7604768Y-16368793D01*
X7604768Y-16368793D02*
X7614291Y-16387840D01*
X7614291Y-16387840D02*
X7614291Y-16406888D01*
X7614291Y-16406888D02*
X7604768Y-16435459D01*
X7604768Y-16435459D02*
X7490482Y-16549745D01*
X7490482Y-16549745D02*
X7614291Y-16549745D01*
X7852387Y-16549745D02*
X7852387Y-16349745D01*
X7938101Y-16549745D02*
X7938101Y-16444983D01*
X7938101Y-16444983D02*
X7928577Y-16425935D01*
X7928577Y-16425935D02*
X7909530Y-16416412D01*
X7909530Y-16416412D02*
X7880958Y-16416412D01*
X7880958Y-16416412D02*
X7861910Y-16425935D01*
X7861910Y-16425935D02*
X7852387Y-16435459D01*
X8061910Y-16549745D02*
X8042863Y-16540221D01*
X8042863Y-16540221D02*
X8033339Y-16530697D01*
X8033339Y-16530697D02*
X8023815Y-16511650D01*
X8023815Y-16511650D02*
X8023815Y-16454507D01*
X8023815Y-16454507D02*
X8033339Y-16435459D01*
X8033339Y-16435459D02*
X8042863Y-16425935D01*
X8042863Y-16425935D02*
X8061910Y-16416412D01*
X8061910Y-16416412D02*
X8090482Y-16416412D01*
X8090482Y-16416412D02*
X8109530Y-16425935D01*
X8109530Y-16425935D02*
X8119053Y-16435459D01*
X8119053Y-16435459D02*
X8128577Y-16454507D01*
X8128577Y-16454507D02*
X8128577Y-16511650D01*
X8128577Y-16511650D02*
X8119053Y-16530697D01*
X8119053Y-16530697D02*
X8109530Y-16540221D01*
X8109530Y-16540221D02*
X8090482Y-16549745D01*
X8090482Y-16549745D02*
X8061910Y-16549745D01*
X8242863Y-16549745D02*
X8223815Y-16540221D01*
X8223815Y-16540221D02*
X8214291Y-16521173D01*
X8214291Y-16521173D02*
X8214291Y-16349745D01*
X8395244Y-16540221D02*
X8376196Y-16549745D01*
X8376196Y-16549745D02*
X8338101Y-16549745D01*
X8338101Y-16549745D02*
X8319053Y-16540221D01*
X8319053Y-16540221D02*
X8309530Y-16521173D01*
X8309530Y-16521173D02*
X8309530Y-16444983D01*
X8309530Y-16444983D02*
X8319053Y-16425935D01*
X8319053Y-16425935D02*
X8338101Y-16416412D01*
X8338101Y-16416412D02*
X8376196Y-16416412D01*
X8376196Y-16416412D02*
X8395244Y-16425935D01*
X8395244Y-16425935D02*
X8404768Y-16444983D01*
X8404768Y-16444983D02*
X8404768Y-16464031D01*
X8404768Y-16464031D02*
X8309530Y-16483078D01*
X8480958Y-16540221D02*
X8500006Y-16549745D01*
X8500006Y-16549745D02*
X8538101Y-16549745D01*
X8538101Y-16549745D02*
X8557149Y-16540221D01*
X8557149Y-16540221D02*
X8566673Y-16521173D01*
X8566673Y-16521173D02*
X8566673Y-16511650D01*
X8566673Y-16511650D02*
X8557149Y-16492602D01*
X8557149Y-16492602D02*
X8538101Y-16483078D01*
X8538101Y-16483078D02*
X8509530Y-16483078D01*
X8509530Y-16483078D02*
X8490482Y-16473554D01*
X8490482Y-16473554D02*
X8480958Y-16454507D01*
X8480958Y-16454507D02*
X8480958Y-16444983D01*
X8480958Y-16444983D02*
X8490482Y-16425935D01*
X8490482Y-16425935D02*
X8509530Y-16416412D01*
X8509530Y-16416412D02*
X8538101Y-16416412D01*
X8538101Y-16416412D02*
X8557149Y-16425935D01*
X8633339Y-16625935D02*
X8642863Y-16616412D01*
X8642863Y-16616412D02*
X8661911Y-16587840D01*
X8661911Y-16587840D02*
X8671434Y-16568793D01*
X8671434Y-16568793D02*
X8680958Y-16540221D01*
X8680958Y-16540221D02*
X8690482Y-16492602D01*
X8690482Y-16492602D02*
X8690482Y-16454507D01*
X8690482Y-16454507D02*
X8680958Y-16406888D01*
X8680958Y-16406888D02*
X8671434Y-16378316D01*
X8671434Y-16378316D02*
X8661911Y-16359269D01*
X8661911Y-16359269D02*
X8642863Y-16330697D01*
X8642863Y-16330697D02*
X8633339Y-16321173D01*
X8995244Y-16625935D02*
X8985720Y-16616412D01*
X8985720Y-16616412D02*
X8966673Y-16587840D01*
X8966673Y-16587840D02*
X8957149Y-16568793D01*
X8957149Y-16568793D02*
X8947625Y-16540221D01*
X8947625Y-16540221D02*
X8938101Y-16492602D01*
X8938101Y-16492602D02*
X8938101Y-16454507D01*
X8938101Y-16454507D02*
X8947625Y-16406888D01*
X8947625Y-16406888D02*
X8957149Y-16378316D01*
X8957149Y-16378316D02*
X8966673Y-16359269D01*
X8966673Y-16359269D02*
X8985720Y-16330697D01*
X8985720Y-16330697D02*
X8995244Y-16321173D01*
X9071434Y-16416412D02*
X9071434Y-16549745D01*
X9071434Y-16435459D02*
X9080958Y-16425935D01*
X9080958Y-16425935D02*
X9100006Y-16416412D01*
X9100006Y-16416412D02*
X9128577Y-16416412D01*
X9128577Y-16416412D02*
X9147625Y-16425935D01*
X9147625Y-16425935D02*
X9157149Y-16444983D01*
X9157149Y-16444983D02*
X9157149Y-16549745D01*
X9280958Y-16549745D02*
X9261911Y-16540221D01*
X9261911Y-16540221D02*
X9252387Y-16530697D01*
X9252387Y-16530697D02*
X9242863Y-16511650D01*
X9242863Y-16511650D02*
X9242863Y-16454507D01*
X9242863Y-16454507D02*
X9252387Y-16435459D01*
X9252387Y-16435459D02*
X9261911Y-16425935D01*
X9261911Y-16425935D02*
X9280958Y-16416412D01*
X9280958Y-16416412D02*
X9309530Y-16416412D01*
X9309530Y-16416412D02*
X9328577Y-16425935D01*
X9328577Y-16425935D02*
X9338101Y-16435459D01*
X9338101Y-16435459D02*
X9347625Y-16454507D01*
X9347625Y-16454507D02*
X9347625Y-16511650D01*
X9347625Y-16511650D02*
X9338101Y-16530697D01*
X9338101Y-16530697D02*
X9328577Y-16540221D01*
X9328577Y-16540221D02*
X9309530Y-16549745D01*
X9309530Y-16549745D02*
X9280958Y-16549745D01*
X9404768Y-16416412D02*
X9480958Y-16416412D01*
X9433339Y-16349745D02*
X9433339Y-16521173D01*
X9433339Y-16521173D02*
X9442863Y-16540221D01*
X9442863Y-16540221D02*
X9461911Y-16549745D01*
X9461911Y-16549745D02*
X9480958Y-16549745D01*
X9700006Y-16416412D02*
X9700006Y-16616412D01*
X9700006Y-16425935D02*
X9719054Y-16416412D01*
X9719054Y-16416412D02*
X9757149Y-16416412D01*
X9757149Y-16416412D02*
X9776196Y-16425935D01*
X9776196Y-16425935D02*
X9785720Y-16435459D01*
X9785720Y-16435459D02*
X9795244Y-16454507D01*
X9795244Y-16454507D02*
X9795244Y-16511650D01*
X9795244Y-16511650D02*
X9785720Y-16530697D01*
X9785720Y-16530697D02*
X9776196Y-16540221D01*
X9776196Y-16540221D02*
X9757149Y-16549745D01*
X9757149Y-16549745D02*
X9719054Y-16549745D01*
X9719054Y-16549745D02*
X9700006Y-16540221D01*
X9909530Y-16549745D02*
X9890482Y-16540221D01*
X9890482Y-16540221D02*
X9880958Y-16521173D01*
X9880958Y-16521173D02*
X9880958Y-16349745D01*
X10071435Y-16549745D02*
X10071435Y-16444983D01*
X10071435Y-16444983D02*
X10061911Y-16425935D01*
X10061911Y-16425935D02*
X10042863Y-16416412D01*
X10042863Y-16416412D02*
X10004768Y-16416412D01*
X10004768Y-16416412D02*
X9985720Y-16425935D01*
X10071435Y-16540221D02*
X10052387Y-16549745D01*
X10052387Y-16549745D02*
X10004768Y-16549745D01*
X10004768Y-16549745D02*
X9985720Y-16540221D01*
X9985720Y-16540221D02*
X9976196Y-16521173D01*
X9976196Y-16521173D02*
X9976196Y-16502126D01*
X9976196Y-16502126D02*
X9985720Y-16483078D01*
X9985720Y-16483078D02*
X10004768Y-16473554D01*
X10004768Y-16473554D02*
X10052387Y-16473554D01*
X10052387Y-16473554D02*
X10071435Y-16464031D01*
X10138101Y-16416412D02*
X10214292Y-16416412D01*
X10166673Y-16349745D02*
X10166673Y-16521173D01*
X10166673Y-16521173D02*
X10176196Y-16540221D01*
X10176196Y-16540221D02*
X10195244Y-16549745D01*
X10195244Y-16549745D02*
X10214292Y-16549745D01*
X10357149Y-16540221D02*
X10338101Y-16549745D01*
X10338101Y-16549745D02*
X10300006Y-16549745D01*
X10300006Y-16549745D02*
X10280958Y-16540221D01*
X10280958Y-16540221D02*
X10271435Y-16521173D01*
X10271435Y-16521173D02*
X10271435Y-16444983D01*
X10271435Y-16444983D02*
X10280958Y-16425935D01*
X10280958Y-16425935D02*
X10300006Y-16416412D01*
X10300006Y-16416412D02*
X10338101Y-16416412D01*
X10338101Y-16416412D02*
X10357149Y-16425935D01*
X10357149Y-16425935D02*
X10366673Y-16444983D01*
X10366673Y-16444983D02*
X10366673Y-16464031D01*
X10366673Y-16464031D02*
X10271435Y-16483078D01*
X10538101Y-16549745D02*
X10538101Y-16349745D01*
X10538101Y-16540221D02*
X10519054Y-16549745D01*
X10519054Y-16549745D02*
X10480958Y-16549745D01*
X10480958Y-16549745D02*
X10461911Y-16540221D01*
X10461911Y-16540221D02*
X10452387Y-16530697D01*
X10452387Y-16530697D02*
X10442863Y-16511650D01*
X10442863Y-16511650D02*
X10442863Y-16454507D01*
X10442863Y-16454507D02*
X10452387Y-16435459D01*
X10452387Y-16435459D02*
X10461911Y-16425935D01*
X10461911Y-16425935D02*
X10480958Y-16416412D01*
X10480958Y-16416412D02*
X10519054Y-16416412D01*
X10519054Y-16416412D02*
X10538101Y-16425935D01*
X10614292Y-16625935D02*
X10623816Y-16616412D01*
X10623816Y-16616412D02*
X10642863Y-16587840D01*
X10642863Y-16587840D02*
X10652387Y-16568793D01*
X10652387Y-16568793D02*
X10661911Y-16540221D01*
X10661911Y-16540221D02*
X10671435Y-16492602D01*
X10671435Y-16492602D02*
X10671435Y-16454507D01*
X10671435Y-16454507D02*
X10661911Y-16406888D01*
X10661911Y-16406888D02*
X10652387Y-16378316D01*
X10652387Y-16378316D02*
X10642863Y-16359269D01*
X10642863Y-16359269D02*
X10623816Y-16330697D01*
X10623816Y-16330697D02*
X10614292Y-16321173D01*
X3567800Y-16678261D02*
X3567800Y-16878261D01*
X3467800Y-16778261D02*
X3667800Y-16778261D01*
X3909529Y-16669745D02*
X4033339Y-16669745D01*
X4033339Y-16669745D02*
X3966672Y-16745935D01*
X3966672Y-16745935D02*
X3995243Y-16745935D01*
X3995243Y-16745935D02*
X4014291Y-16755459D01*
X4014291Y-16755459D02*
X4023815Y-16764983D01*
X4023815Y-16764983D02*
X4033339Y-16784031D01*
X4033339Y-16784031D02*
X4033339Y-16831650D01*
X4033339Y-16831650D02*
X4023815Y-16850697D01*
X4023815Y-16850697D02*
X4014291Y-16860221D01*
X4014291Y-16860221D02*
X3995243Y-16869745D01*
X3995243Y-16869745D02*
X3938101Y-16869745D01*
X3938101Y-16869745D02*
X3919053Y-16860221D01*
X3919053Y-16860221D02*
X3909529Y-16850697D01*
X4119053Y-16850697D02*
X4128577Y-16860221D01*
X4128577Y-16860221D02*
X4119053Y-16869745D01*
X4119053Y-16869745D02*
X4109529Y-16860221D01*
X4109529Y-16860221D02*
X4119053Y-16850697D01*
X4119053Y-16850697D02*
X4119053Y-16869745D01*
X4204767Y-16688793D02*
X4214291Y-16679269D01*
X4214291Y-16679269D02*
X4233339Y-16669745D01*
X4233339Y-16669745D02*
X4280958Y-16669745D01*
X4280958Y-16669745D02*
X4300005Y-16679269D01*
X4300005Y-16679269D02*
X4309529Y-16688793D01*
X4309529Y-16688793D02*
X4319053Y-16707840D01*
X4319053Y-16707840D02*
X4319053Y-16726888D01*
X4319053Y-16726888D02*
X4309529Y-16755459D01*
X4309529Y-16755459D02*
X4195244Y-16869745D01*
X4195244Y-16869745D02*
X4319053Y-16869745D01*
X4442863Y-16669745D02*
X4461910Y-16669745D01*
X4461910Y-16669745D02*
X4480958Y-16679269D01*
X4480958Y-16679269D02*
X4490482Y-16688793D01*
X4490482Y-16688793D02*
X4500005Y-16707840D01*
X4500005Y-16707840D02*
X4509529Y-16745935D01*
X4509529Y-16745935D02*
X4509529Y-16793555D01*
X4509529Y-16793555D02*
X4500005Y-16831650D01*
X4500005Y-16831650D02*
X4490482Y-16850697D01*
X4490482Y-16850697D02*
X4480958Y-16860221D01*
X4480958Y-16860221D02*
X4461910Y-16869745D01*
X4461910Y-16869745D02*
X4442863Y-16869745D01*
X4442863Y-16869745D02*
X4423815Y-16860221D01*
X4423815Y-16860221D02*
X4414291Y-16850697D01*
X4414291Y-16850697D02*
X4404767Y-16831650D01*
X4404767Y-16831650D02*
X4395244Y-16793555D01*
X4395244Y-16793555D02*
X4395244Y-16745935D01*
X4395244Y-16745935D02*
X4404767Y-16707840D01*
X4404767Y-16707840D02*
X4414291Y-16688793D01*
X4414291Y-16688793D02*
X4423815Y-16679269D01*
X4423815Y-16679269D02*
X4442863Y-16669745D01*
X4633339Y-16669745D02*
X4652386Y-16669745D01*
X4652386Y-16669745D02*
X4671434Y-16679269D01*
X4671434Y-16679269D02*
X4680958Y-16688793D01*
X4680958Y-16688793D02*
X4690482Y-16707840D01*
X4690482Y-16707840D02*
X4700005Y-16745935D01*
X4700005Y-16745935D02*
X4700005Y-16793555D01*
X4700005Y-16793555D02*
X4690482Y-16831650D01*
X4690482Y-16831650D02*
X4680958Y-16850697D01*
X4680958Y-16850697D02*
X4671434Y-16860221D01*
X4671434Y-16860221D02*
X4652386Y-16869745D01*
X4652386Y-16869745D02*
X4633339Y-16869745D01*
X4633339Y-16869745D02*
X4614291Y-16860221D01*
X4614291Y-16860221D02*
X4604767Y-16850697D01*
X4604767Y-16850697D02*
X4595244Y-16831650D01*
X4595244Y-16831650D02*
X4585720Y-16793555D01*
X4585720Y-16793555D02*
X4585720Y-16745935D01*
X4585720Y-16745935D02*
X4595244Y-16707840D01*
X4595244Y-16707840D02*
X4604767Y-16688793D01*
X4604767Y-16688793D02*
X4614291Y-16679269D01*
X4614291Y-16679269D02*
X4633339Y-16669745D01*
X4785720Y-16869745D02*
X4785720Y-16736412D01*
X4785720Y-16755459D02*
X4795244Y-16745935D01*
X4795244Y-16745935D02*
X4814291Y-16736412D01*
X4814291Y-16736412D02*
X4842863Y-16736412D01*
X4842863Y-16736412D02*
X4861910Y-16745935D01*
X4861910Y-16745935D02*
X4871434Y-16764983D01*
X4871434Y-16764983D02*
X4871434Y-16869745D01*
X4871434Y-16764983D02*
X4880958Y-16745935D01*
X4880958Y-16745935D02*
X4900005Y-16736412D01*
X4900005Y-16736412D02*
X4928577Y-16736412D01*
X4928577Y-16736412D02*
X4947625Y-16745935D01*
X4947625Y-16745935D02*
X4957148Y-16764983D01*
X4957148Y-16764983D02*
X4957148Y-16869745D01*
X5052386Y-16869745D02*
X5052386Y-16736412D01*
X5052386Y-16755459D02*
X5061910Y-16745935D01*
X5061910Y-16745935D02*
X5080958Y-16736412D01*
X5080958Y-16736412D02*
X5109529Y-16736412D01*
X5109529Y-16736412D02*
X5128577Y-16745935D01*
X5128577Y-16745935D02*
X5138101Y-16764983D01*
X5138101Y-16764983D02*
X5138101Y-16869745D01*
X5138101Y-16764983D02*
X5147625Y-16745935D01*
X5147625Y-16745935D02*
X5166672Y-16736412D01*
X5166672Y-16736412D02*
X5195244Y-16736412D01*
X5195244Y-16736412D02*
X5214291Y-16745935D01*
X5214291Y-16745935D02*
X5223815Y-16764983D01*
X5223815Y-16764983D02*
X5223815Y-16869745D01*
X5614291Y-16660221D02*
X5442863Y-16917364D01*
X5871434Y-16669745D02*
X5890482Y-16669745D01*
X5890482Y-16669745D02*
X5909529Y-16679269D01*
X5909529Y-16679269D02*
X5919053Y-16688793D01*
X5919053Y-16688793D02*
X5928577Y-16707840D01*
X5928577Y-16707840D02*
X5938101Y-16745935D01*
X5938101Y-16745935D02*
X5938101Y-16793555D01*
X5938101Y-16793555D02*
X5928577Y-16831650D01*
X5928577Y-16831650D02*
X5919053Y-16850697D01*
X5919053Y-16850697D02*
X5909529Y-16860221D01*
X5909529Y-16860221D02*
X5890482Y-16869745D01*
X5890482Y-16869745D02*
X5871434Y-16869745D01*
X5871434Y-16869745D02*
X5852386Y-16860221D01*
X5852386Y-16860221D02*
X5842863Y-16850697D01*
X5842863Y-16850697D02*
X5833339Y-16831650D01*
X5833339Y-16831650D02*
X5823815Y-16793555D01*
X5823815Y-16793555D02*
X5823815Y-16745935D01*
X5823815Y-16745935D02*
X5833339Y-16707840D01*
X5833339Y-16707840D02*
X5842863Y-16688793D01*
X5842863Y-16688793D02*
X5852386Y-16679269D01*
X5852386Y-16679269D02*
X5871434Y-16669745D01*
X6023815Y-16850697D02*
X6033339Y-16860221D01*
X6033339Y-16860221D02*
X6023815Y-16869745D01*
X6023815Y-16869745D02*
X6014291Y-16860221D01*
X6014291Y-16860221D02*
X6023815Y-16850697D01*
X6023815Y-16850697D02*
X6023815Y-16869745D01*
X6223815Y-16869745D02*
X6109529Y-16869745D01*
X6166672Y-16869745D02*
X6166672Y-16669745D01*
X6166672Y-16669745D02*
X6147625Y-16698316D01*
X6147625Y-16698316D02*
X6128577Y-16717364D01*
X6128577Y-16717364D02*
X6109529Y-16726888D01*
X6300006Y-16688793D02*
X6309529Y-16679269D01*
X6309529Y-16679269D02*
X6328577Y-16669745D01*
X6328577Y-16669745D02*
X6376196Y-16669745D01*
X6376196Y-16669745D02*
X6395244Y-16679269D01*
X6395244Y-16679269D02*
X6404767Y-16688793D01*
X6404767Y-16688793D02*
X6414291Y-16707840D01*
X6414291Y-16707840D02*
X6414291Y-16726888D01*
X6414291Y-16726888D02*
X6404767Y-16755459D01*
X6404767Y-16755459D02*
X6290482Y-16869745D01*
X6290482Y-16869745D02*
X6414291Y-16869745D01*
X6585720Y-16669745D02*
X6547625Y-16669745D01*
X6547625Y-16669745D02*
X6528577Y-16679269D01*
X6528577Y-16679269D02*
X6519053Y-16688793D01*
X6519053Y-16688793D02*
X6500006Y-16717364D01*
X6500006Y-16717364D02*
X6490482Y-16755459D01*
X6490482Y-16755459D02*
X6490482Y-16831650D01*
X6490482Y-16831650D02*
X6500006Y-16850697D01*
X6500006Y-16850697D02*
X6509529Y-16860221D01*
X6509529Y-16860221D02*
X6528577Y-16869745D01*
X6528577Y-16869745D02*
X6566672Y-16869745D01*
X6566672Y-16869745D02*
X6585720Y-16860221D01*
X6585720Y-16860221D02*
X6595244Y-16850697D01*
X6595244Y-16850697D02*
X6604767Y-16831650D01*
X6604767Y-16831650D02*
X6604767Y-16784031D01*
X6604767Y-16784031D02*
X6595244Y-16764983D01*
X6595244Y-16764983D02*
X6585720Y-16755459D01*
X6585720Y-16755459D02*
X6566672Y-16745935D01*
X6566672Y-16745935D02*
X6528577Y-16745935D01*
X6528577Y-16745935D02*
X6509529Y-16755459D01*
X6509529Y-16755459D02*
X6500006Y-16764983D01*
X6500006Y-16764983D02*
X6490482Y-16784031D01*
X6728577Y-16669745D02*
X6747625Y-16669745D01*
X6747625Y-16669745D02*
X6766672Y-16679269D01*
X6766672Y-16679269D02*
X6776196Y-16688793D01*
X6776196Y-16688793D02*
X6785720Y-16707840D01*
X6785720Y-16707840D02*
X6795244Y-16745935D01*
X6795244Y-16745935D02*
X6795244Y-16793555D01*
X6795244Y-16793555D02*
X6785720Y-16831650D01*
X6785720Y-16831650D02*
X6776196Y-16850697D01*
X6776196Y-16850697D02*
X6766672Y-16860221D01*
X6766672Y-16860221D02*
X6747625Y-16869745D01*
X6747625Y-16869745D02*
X6728577Y-16869745D01*
X6728577Y-16869745D02*
X6709529Y-16860221D01*
X6709529Y-16860221D02*
X6700006Y-16850697D01*
X6700006Y-16850697D02*
X6690482Y-16831650D01*
X6690482Y-16831650D02*
X6680958Y-16793555D01*
X6680958Y-16793555D02*
X6680958Y-16745935D01*
X6680958Y-16745935D02*
X6690482Y-16707840D01*
X6690482Y-16707840D02*
X6700006Y-16688793D01*
X6700006Y-16688793D02*
X6709529Y-16679269D01*
X6709529Y-16679269D02*
X6728577Y-16669745D01*
X6871434Y-16669745D02*
X6871434Y-16707840D01*
X6947625Y-16669745D02*
X6947625Y-16707840D01*
X7242863Y-16945935D02*
X7233339Y-16936412D01*
X7233339Y-16936412D02*
X7214291Y-16907840D01*
X7214291Y-16907840D02*
X7204768Y-16888793D01*
X7204768Y-16888793D02*
X7195244Y-16860221D01*
X7195244Y-16860221D02*
X7185720Y-16812602D01*
X7185720Y-16812602D02*
X7185720Y-16774507D01*
X7185720Y-16774507D02*
X7195244Y-16726888D01*
X7195244Y-16726888D02*
X7204768Y-16698316D01*
X7204768Y-16698316D02*
X7214291Y-16679269D01*
X7214291Y-16679269D02*
X7233339Y-16650697D01*
X7233339Y-16650697D02*
X7242863Y-16641173D01*
X7404768Y-16669745D02*
X7366672Y-16669745D01*
X7366672Y-16669745D02*
X7347625Y-16679269D01*
X7347625Y-16679269D02*
X7338101Y-16688793D01*
X7338101Y-16688793D02*
X7319053Y-16717364D01*
X7319053Y-16717364D02*
X7309529Y-16755459D01*
X7309529Y-16755459D02*
X7309529Y-16831650D01*
X7309529Y-16831650D02*
X7319053Y-16850697D01*
X7319053Y-16850697D02*
X7328577Y-16860221D01*
X7328577Y-16860221D02*
X7347625Y-16869745D01*
X7347625Y-16869745D02*
X7385720Y-16869745D01*
X7385720Y-16869745D02*
X7404768Y-16860221D01*
X7404768Y-16860221D02*
X7414291Y-16850697D01*
X7414291Y-16850697D02*
X7423815Y-16831650D01*
X7423815Y-16831650D02*
X7423815Y-16784031D01*
X7423815Y-16784031D02*
X7414291Y-16764983D01*
X7414291Y-16764983D02*
X7404768Y-16755459D01*
X7404768Y-16755459D02*
X7385720Y-16745935D01*
X7385720Y-16745935D02*
X7347625Y-16745935D01*
X7347625Y-16745935D02*
X7328577Y-16755459D01*
X7328577Y-16755459D02*
X7319053Y-16764983D01*
X7319053Y-16764983D02*
X7309529Y-16784031D01*
X7661910Y-16869745D02*
X7661910Y-16669745D01*
X7747625Y-16869745D02*
X7747625Y-16764983D01*
X7747625Y-16764983D02*
X7738101Y-16745935D01*
X7738101Y-16745935D02*
X7719053Y-16736412D01*
X7719053Y-16736412D02*
X7690482Y-16736412D01*
X7690482Y-16736412D02*
X7671434Y-16745935D01*
X7671434Y-16745935D02*
X7661910Y-16755459D01*
X7871434Y-16869745D02*
X7852387Y-16860221D01*
X7852387Y-16860221D02*
X7842863Y-16850697D01*
X7842863Y-16850697D02*
X7833339Y-16831650D01*
X7833339Y-16831650D02*
X7833339Y-16774507D01*
X7833339Y-16774507D02*
X7842863Y-16755459D01*
X7842863Y-16755459D02*
X7852387Y-16745935D01*
X7852387Y-16745935D02*
X7871434Y-16736412D01*
X7871434Y-16736412D02*
X7900006Y-16736412D01*
X7900006Y-16736412D02*
X7919053Y-16745935D01*
X7919053Y-16745935D02*
X7928577Y-16755459D01*
X7928577Y-16755459D02*
X7938101Y-16774507D01*
X7938101Y-16774507D02*
X7938101Y-16831650D01*
X7938101Y-16831650D02*
X7928577Y-16850697D01*
X7928577Y-16850697D02*
X7919053Y-16860221D01*
X7919053Y-16860221D02*
X7900006Y-16869745D01*
X7900006Y-16869745D02*
X7871434Y-16869745D01*
X8052387Y-16869745D02*
X8033339Y-16860221D01*
X8033339Y-16860221D02*
X8023815Y-16841174D01*
X8023815Y-16841174D02*
X8023815Y-16669745D01*
X8204768Y-16860221D02*
X8185720Y-16869745D01*
X8185720Y-16869745D02*
X8147625Y-16869745D01*
X8147625Y-16869745D02*
X8128577Y-16860221D01*
X8128577Y-16860221D02*
X8119053Y-16841174D01*
X8119053Y-16841174D02*
X8119053Y-16764983D01*
X8119053Y-16764983D02*
X8128577Y-16745935D01*
X8128577Y-16745935D02*
X8147625Y-16736412D01*
X8147625Y-16736412D02*
X8185720Y-16736412D01*
X8185720Y-16736412D02*
X8204768Y-16745935D01*
X8204768Y-16745935D02*
X8214291Y-16764983D01*
X8214291Y-16764983D02*
X8214291Y-16784031D01*
X8214291Y-16784031D02*
X8119053Y-16803078D01*
X8290482Y-16860221D02*
X8309530Y-16869745D01*
X8309530Y-16869745D02*
X8347625Y-16869745D01*
X8347625Y-16869745D02*
X8366672Y-16860221D01*
X8366672Y-16860221D02*
X8376196Y-16841174D01*
X8376196Y-16841174D02*
X8376196Y-16831650D01*
X8376196Y-16831650D02*
X8366672Y-16812602D01*
X8366672Y-16812602D02*
X8347625Y-16803078D01*
X8347625Y-16803078D02*
X8319053Y-16803078D01*
X8319053Y-16803078D02*
X8300006Y-16793555D01*
X8300006Y-16793555D02*
X8290482Y-16774507D01*
X8290482Y-16774507D02*
X8290482Y-16764983D01*
X8290482Y-16764983D02*
X8300006Y-16745935D01*
X8300006Y-16745935D02*
X8319053Y-16736412D01*
X8319053Y-16736412D02*
X8347625Y-16736412D01*
X8347625Y-16736412D02*
X8366672Y-16745935D01*
X8442863Y-16945935D02*
X8452387Y-16936412D01*
X8452387Y-16936412D02*
X8471434Y-16907840D01*
X8471434Y-16907840D02*
X8480958Y-16888793D01*
X8480958Y-16888793D02*
X8490482Y-16860221D01*
X8490482Y-16860221D02*
X8500006Y-16812602D01*
X8500006Y-16812602D02*
X8500006Y-16774507D01*
X8500006Y-16774507D02*
X8490482Y-16726888D01*
X8490482Y-16726888D02*
X8480958Y-16698316D01*
X8480958Y-16698316D02*
X8471434Y-16679269D01*
X8471434Y-16679269D02*
X8452387Y-16650697D01*
X8452387Y-16650697D02*
X8442863Y-16641173D01*
X8804768Y-16945935D02*
X8795244Y-16936412D01*
X8795244Y-16936412D02*
X8776196Y-16907840D01*
X8776196Y-16907840D02*
X8766673Y-16888793D01*
X8766673Y-16888793D02*
X8757149Y-16860221D01*
X8757149Y-16860221D02*
X8747625Y-16812602D01*
X8747625Y-16812602D02*
X8747625Y-16774507D01*
X8747625Y-16774507D02*
X8757149Y-16726888D01*
X8757149Y-16726888D02*
X8766673Y-16698316D01*
X8766673Y-16698316D02*
X8776196Y-16679269D01*
X8776196Y-16679269D02*
X8795244Y-16650697D01*
X8795244Y-16650697D02*
X8804768Y-16641173D01*
X8880958Y-16736412D02*
X8880958Y-16869745D01*
X8880958Y-16755459D02*
X8890482Y-16745935D01*
X8890482Y-16745935D02*
X8909530Y-16736412D01*
X8909530Y-16736412D02*
X8938101Y-16736412D01*
X8938101Y-16736412D02*
X8957149Y-16745935D01*
X8957149Y-16745935D02*
X8966673Y-16764983D01*
X8966673Y-16764983D02*
X8966673Y-16869745D01*
X9090482Y-16869745D02*
X9071434Y-16860221D01*
X9071434Y-16860221D02*
X9061911Y-16850697D01*
X9061911Y-16850697D02*
X9052387Y-16831650D01*
X9052387Y-16831650D02*
X9052387Y-16774507D01*
X9052387Y-16774507D02*
X9061911Y-16755459D01*
X9061911Y-16755459D02*
X9071434Y-16745935D01*
X9071434Y-16745935D02*
X9090482Y-16736412D01*
X9090482Y-16736412D02*
X9119054Y-16736412D01*
X9119054Y-16736412D02*
X9138101Y-16745935D01*
X9138101Y-16745935D02*
X9147625Y-16755459D01*
X9147625Y-16755459D02*
X9157149Y-16774507D01*
X9157149Y-16774507D02*
X9157149Y-16831650D01*
X9157149Y-16831650D02*
X9147625Y-16850697D01*
X9147625Y-16850697D02*
X9138101Y-16860221D01*
X9138101Y-16860221D02*
X9119054Y-16869745D01*
X9119054Y-16869745D02*
X9090482Y-16869745D01*
X9214292Y-16736412D02*
X9290482Y-16736412D01*
X9242863Y-16669745D02*
X9242863Y-16841174D01*
X9242863Y-16841174D02*
X9252387Y-16860221D01*
X9252387Y-16860221D02*
X9271434Y-16869745D01*
X9271434Y-16869745D02*
X9290482Y-16869745D01*
X9509530Y-16736412D02*
X9509530Y-16936412D01*
X9509530Y-16745935D02*
X9528577Y-16736412D01*
X9528577Y-16736412D02*
X9566673Y-16736412D01*
X9566673Y-16736412D02*
X9585720Y-16745935D01*
X9585720Y-16745935D02*
X9595244Y-16755459D01*
X9595244Y-16755459D02*
X9604768Y-16774507D01*
X9604768Y-16774507D02*
X9604768Y-16831650D01*
X9604768Y-16831650D02*
X9595244Y-16850697D01*
X9595244Y-16850697D02*
X9585720Y-16860221D01*
X9585720Y-16860221D02*
X9566673Y-16869745D01*
X9566673Y-16869745D02*
X9528577Y-16869745D01*
X9528577Y-16869745D02*
X9509530Y-16860221D01*
X9719054Y-16869745D02*
X9700006Y-16860221D01*
X9700006Y-16860221D02*
X9690482Y-16841174D01*
X9690482Y-16841174D02*
X9690482Y-16669745D01*
X9880958Y-16869745D02*
X9880958Y-16764983D01*
X9880958Y-16764983D02*
X9871435Y-16745935D01*
X9871435Y-16745935D02*
X9852387Y-16736412D01*
X9852387Y-16736412D02*
X9814292Y-16736412D01*
X9814292Y-16736412D02*
X9795244Y-16745935D01*
X9880958Y-16860221D02*
X9861911Y-16869745D01*
X9861911Y-16869745D02*
X9814292Y-16869745D01*
X9814292Y-16869745D02*
X9795244Y-16860221D01*
X9795244Y-16860221D02*
X9785720Y-16841174D01*
X9785720Y-16841174D02*
X9785720Y-16822126D01*
X9785720Y-16822126D02*
X9795244Y-16803078D01*
X9795244Y-16803078D02*
X9814292Y-16793555D01*
X9814292Y-16793555D02*
X9861911Y-16793555D01*
X9861911Y-16793555D02*
X9880958Y-16784031D01*
X9947625Y-16736412D02*
X10023815Y-16736412D01*
X9976196Y-16669745D02*
X9976196Y-16841174D01*
X9976196Y-16841174D02*
X9985720Y-16860221D01*
X9985720Y-16860221D02*
X10004768Y-16869745D01*
X10004768Y-16869745D02*
X10023815Y-16869745D01*
X10166673Y-16860221D02*
X10147625Y-16869745D01*
X10147625Y-16869745D02*
X10109530Y-16869745D01*
X10109530Y-16869745D02*
X10090482Y-16860221D01*
X10090482Y-16860221D02*
X10080958Y-16841174D01*
X10080958Y-16841174D02*
X10080958Y-16764983D01*
X10080958Y-16764983D02*
X10090482Y-16745935D01*
X10090482Y-16745935D02*
X10109530Y-16736412D01*
X10109530Y-16736412D02*
X10147625Y-16736412D01*
X10147625Y-16736412D02*
X10166673Y-16745935D01*
X10166673Y-16745935D02*
X10176196Y-16764983D01*
X10176196Y-16764983D02*
X10176196Y-16784031D01*
X10176196Y-16784031D02*
X10080958Y-16803078D01*
X10347625Y-16869745D02*
X10347625Y-16669745D01*
X10347625Y-16860221D02*
X10328577Y-16869745D01*
X10328577Y-16869745D02*
X10290482Y-16869745D01*
X10290482Y-16869745D02*
X10271435Y-16860221D01*
X10271435Y-16860221D02*
X10261911Y-16850697D01*
X10261911Y-16850697D02*
X10252387Y-16831650D01*
X10252387Y-16831650D02*
X10252387Y-16774507D01*
X10252387Y-16774507D02*
X10261911Y-16755459D01*
X10261911Y-16755459D02*
X10271435Y-16745935D01*
X10271435Y-16745935D02*
X10290482Y-16736412D01*
X10290482Y-16736412D02*
X10328577Y-16736412D01*
X10328577Y-16736412D02*
X10347625Y-16745935D01*
X10423816Y-16945935D02*
X10433339Y-16936412D01*
X10433339Y-16936412D02*
X10452387Y-16907840D01*
X10452387Y-16907840D02*
X10461911Y-16888793D01*
X10461911Y-16888793D02*
X10471435Y-16860221D01*
X10471435Y-16860221D02*
X10480958Y-16812602D01*
X10480958Y-16812602D02*
X10480958Y-16774507D01*
X10480958Y-16774507D02*
X10471435Y-16726888D01*
X10471435Y-16726888D02*
X10461911Y-16698316D01*
X10461911Y-16698316D02*
X10452387Y-16679269D01*
X10452387Y-16679269D02*
X10433339Y-16650697D01*
X10433339Y-16650697D02*
X10423816Y-16641173D01*
X3638511Y-17168973D02*
X3638511Y-17027550D01*
X3497089Y-17027550D01*
X3497089Y-17168973D01*
X3638511Y-17168973D01*
X4014291Y-17056412D02*
X4014291Y-17189745D01*
X3966672Y-16980221D02*
X3919053Y-17123078D01*
X3919053Y-17123078D02*
X4042862Y-17123078D01*
X4119053Y-17170697D02*
X4128577Y-17180221D01*
X4128577Y-17180221D02*
X4119053Y-17189745D01*
X4119053Y-17189745D02*
X4109529Y-17180221D01*
X4109529Y-17180221D02*
X4119053Y-17170697D01*
X4119053Y-17170697D02*
X4119053Y-17189745D01*
X4252386Y-16989745D02*
X4271434Y-16989745D01*
X4271434Y-16989745D02*
X4290482Y-16999269D01*
X4290482Y-16999269D02*
X4300005Y-17008793D01*
X4300005Y-17008793D02*
X4309529Y-17027840D01*
X4309529Y-17027840D02*
X4319053Y-17065935D01*
X4319053Y-17065935D02*
X4319053Y-17113555D01*
X4319053Y-17113555D02*
X4309529Y-17151650D01*
X4309529Y-17151650D02*
X4300005Y-17170697D01*
X4300005Y-17170697D02*
X4290482Y-17180221D01*
X4290482Y-17180221D02*
X4271434Y-17189745D01*
X4271434Y-17189745D02*
X4252386Y-17189745D01*
X4252386Y-17189745D02*
X4233339Y-17180221D01*
X4233339Y-17180221D02*
X4223815Y-17170697D01*
X4223815Y-17170697D02*
X4214291Y-17151650D01*
X4214291Y-17151650D02*
X4204767Y-17113555D01*
X4204767Y-17113555D02*
X4204767Y-17065935D01*
X4204767Y-17065935D02*
X4214291Y-17027840D01*
X4214291Y-17027840D02*
X4223815Y-17008793D01*
X4223815Y-17008793D02*
X4233339Y-16999269D01*
X4233339Y-16999269D02*
X4252386Y-16989745D01*
X4442863Y-16989745D02*
X4461910Y-16989745D01*
X4461910Y-16989745D02*
X4480958Y-16999269D01*
X4480958Y-16999269D02*
X4490482Y-17008793D01*
X4490482Y-17008793D02*
X4500005Y-17027840D01*
X4500005Y-17027840D02*
X4509529Y-17065935D01*
X4509529Y-17065935D02*
X4509529Y-17113555D01*
X4509529Y-17113555D02*
X4500005Y-17151650D01*
X4500005Y-17151650D02*
X4490482Y-17170697D01*
X4490482Y-17170697D02*
X4480958Y-17180221D01*
X4480958Y-17180221D02*
X4461910Y-17189745D01*
X4461910Y-17189745D02*
X4442863Y-17189745D01*
X4442863Y-17189745D02*
X4423815Y-17180221D01*
X4423815Y-17180221D02*
X4414291Y-17170697D01*
X4414291Y-17170697D02*
X4404767Y-17151650D01*
X4404767Y-17151650D02*
X4395244Y-17113555D01*
X4395244Y-17113555D02*
X4395244Y-17065935D01*
X4395244Y-17065935D02*
X4404767Y-17027840D01*
X4404767Y-17027840D02*
X4414291Y-17008793D01*
X4414291Y-17008793D02*
X4423815Y-16999269D01*
X4423815Y-16999269D02*
X4442863Y-16989745D01*
X4633339Y-16989745D02*
X4652386Y-16989745D01*
X4652386Y-16989745D02*
X4671434Y-16999269D01*
X4671434Y-16999269D02*
X4680958Y-17008793D01*
X4680958Y-17008793D02*
X4690482Y-17027840D01*
X4690482Y-17027840D02*
X4700005Y-17065935D01*
X4700005Y-17065935D02*
X4700005Y-17113555D01*
X4700005Y-17113555D02*
X4690482Y-17151650D01*
X4690482Y-17151650D02*
X4680958Y-17170697D01*
X4680958Y-17170697D02*
X4671434Y-17180221D01*
X4671434Y-17180221D02*
X4652386Y-17189745D01*
X4652386Y-17189745D02*
X4633339Y-17189745D01*
X4633339Y-17189745D02*
X4614291Y-17180221D01*
X4614291Y-17180221D02*
X4604767Y-17170697D01*
X4604767Y-17170697D02*
X4595244Y-17151650D01*
X4595244Y-17151650D02*
X4585720Y-17113555D01*
X4585720Y-17113555D02*
X4585720Y-17065935D01*
X4585720Y-17065935D02*
X4595244Y-17027840D01*
X4595244Y-17027840D02*
X4604767Y-17008793D01*
X4604767Y-17008793D02*
X4614291Y-16999269D01*
X4614291Y-16999269D02*
X4633339Y-16989745D01*
X4785720Y-17189745D02*
X4785720Y-17056412D01*
X4785720Y-17075459D02*
X4795244Y-17065935D01*
X4795244Y-17065935D02*
X4814291Y-17056412D01*
X4814291Y-17056412D02*
X4842863Y-17056412D01*
X4842863Y-17056412D02*
X4861910Y-17065935D01*
X4861910Y-17065935D02*
X4871434Y-17084983D01*
X4871434Y-17084983D02*
X4871434Y-17189745D01*
X4871434Y-17084983D02*
X4880958Y-17065935D01*
X4880958Y-17065935D02*
X4900005Y-17056412D01*
X4900005Y-17056412D02*
X4928577Y-17056412D01*
X4928577Y-17056412D02*
X4947625Y-17065935D01*
X4947625Y-17065935D02*
X4957148Y-17084983D01*
X4957148Y-17084983D02*
X4957148Y-17189745D01*
X5052386Y-17189745D02*
X5052386Y-17056412D01*
X5052386Y-17075459D02*
X5061910Y-17065935D01*
X5061910Y-17065935D02*
X5080958Y-17056412D01*
X5080958Y-17056412D02*
X5109529Y-17056412D01*
X5109529Y-17056412D02*
X5128577Y-17065935D01*
X5128577Y-17065935D02*
X5138101Y-17084983D01*
X5138101Y-17084983D02*
X5138101Y-17189745D01*
X5138101Y-17084983D02*
X5147625Y-17065935D01*
X5147625Y-17065935D02*
X5166672Y-17056412D01*
X5166672Y-17056412D02*
X5195244Y-17056412D01*
X5195244Y-17056412D02*
X5214291Y-17065935D01*
X5214291Y-17065935D02*
X5223815Y-17084983D01*
X5223815Y-17084983D02*
X5223815Y-17189745D01*
X5614291Y-16980221D02*
X5442863Y-17237364D01*
X5871434Y-16989745D02*
X5890482Y-16989745D01*
X5890482Y-16989745D02*
X5909529Y-16999269D01*
X5909529Y-16999269D02*
X5919053Y-17008793D01*
X5919053Y-17008793D02*
X5928577Y-17027840D01*
X5928577Y-17027840D02*
X5938101Y-17065935D01*
X5938101Y-17065935D02*
X5938101Y-17113555D01*
X5938101Y-17113555D02*
X5928577Y-17151650D01*
X5928577Y-17151650D02*
X5919053Y-17170697D01*
X5919053Y-17170697D02*
X5909529Y-17180221D01*
X5909529Y-17180221D02*
X5890482Y-17189745D01*
X5890482Y-17189745D02*
X5871434Y-17189745D01*
X5871434Y-17189745D02*
X5852386Y-17180221D01*
X5852386Y-17180221D02*
X5842863Y-17170697D01*
X5842863Y-17170697D02*
X5833339Y-17151650D01*
X5833339Y-17151650D02*
X5823815Y-17113555D01*
X5823815Y-17113555D02*
X5823815Y-17065935D01*
X5823815Y-17065935D02*
X5833339Y-17027840D01*
X5833339Y-17027840D02*
X5842863Y-17008793D01*
X5842863Y-17008793D02*
X5852386Y-16999269D01*
X5852386Y-16999269D02*
X5871434Y-16989745D01*
X6023815Y-17170697D02*
X6033339Y-17180221D01*
X6033339Y-17180221D02*
X6023815Y-17189745D01*
X6023815Y-17189745D02*
X6014291Y-17180221D01*
X6014291Y-17180221D02*
X6023815Y-17170697D01*
X6023815Y-17170697D02*
X6023815Y-17189745D01*
X6223815Y-17189745D02*
X6109529Y-17189745D01*
X6166672Y-17189745D02*
X6166672Y-16989745D01*
X6166672Y-16989745D02*
X6147625Y-17018316D01*
X6147625Y-17018316D02*
X6128577Y-17037364D01*
X6128577Y-17037364D02*
X6109529Y-17046888D01*
X6404767Y-16989745D02*
X6309529Y-16989745D01*
X6309529Y-16989745D02*
X6300006Y-17084983D01*
X6300006Y-17084983D02*
X6309529Y-17075459D01*
X6309529Y-17075459D02*
X6328577Y-17065935D01*
X6328577Y-17065935D02*
X6376196Y-17065935D01*
X6376196Y-17065935D02*
X6395244Y-17075459D01*
X6395244Y-17075459D02*
X6404767Y-17084983D01*
X6404767Y-17084983D02*
X6414291Y-17104031D01*
X6414291Y-17104031D02*
X6414291Y-17151650D01*
X6414291Y-17151650D02*
X6404767Y-17170697D01*
X6404767Y-17170697D02*
X6395244Y-17180221D01*
X6395244Y-17180221D02*
X6376196Y-17189745D01*
X6376196Y-17189745D02*
X6328577Y-17189745D01*
X6328577Y-17189745D02*
X6309529Y-17180221D01*
X6309529Y-17180221D02*
X6300006Y-17170697D01*
X6480958Y-16989745D02*
X6614291Y-16989745D01*
X6614291Y-16989745D02*
X6528577Y-17189745D01*
X6785720Y-16989745D02*
X6690482Y-16989745D01*
X6690482Y-16989745D02*
X6680958Y-17084983D01*
X6680958Y-17084983D02*
X6690482Y-17075459D01*
X6690482Y-17075459D02*
X6709529Y-17065935D01*
X6709529Y-17065935D02*
X6757148Y-17065935D01*
X6757148Y-17065935D02*
X6776196Y-17075459D01*
X6776196Y-17075459D02*
X6785720Y-17084983D01*
X6785720Y-17084983D02*
X6795244Y-17104031D01*
X6795244Y-17104031D02*
X6795244Y-17151650D01*
X6795244Y-17151650D02*
X6785720Y-17170697D01*
X6785720Y-17170697D02*
X6776196Y-17180221D01*
X6776196Y-17180221D02*
X6757148Y-17189745D01*
X6757148Y-17189745D02*
X6709529Y-17189745D01*
X6709529Y-17189745D02*
X6690482Y-17180221D01*
X6690482Y-17180221D02*
X6680958Y-17170697D01*
X6871434Y-16989745D02*
X6871434Y-17027840D01*
X6947625Y-16989745D02*
X6947625Y-17027840D01*
X7242863Y-17265935D02*
X7233339Y-17256412D01*
X7233339Y-17256412D02*
X7214291Y-17227840D01*
X7214291Y-17227840D02*
X7204768Y-17208793D01*
X7204768Y-17208793D02*
X7195244Y-17180221D01*
X7195244Y-17180221D02*
X7185720Y-17132602D01*
X7185720Y-17132602D02*
X7185720Y-17094507D01*
X7185720Y-17094507D02*
X7195244Y-17046888D01*
X7195244Y-17046888D02*
X7204768Y-17018316D01*
X7204768Y-17018316D02*
X7214291Y-16999269D01*
X7214291Y-16999269D02*
X7233339Y-16970697D01*
X7233339Y-16970697D02*
X7242863Y-16961174D01*
X7309529Y-17008793D02*
X7319053Y-16999269D01*
X7319053Y-16999269D02*
X7338101Y-16989745D01*
X7338101Y-16989745D02*
X7385720Y-16989745D01*
X7385720Y-16989745D02*
X7404768Y-16999269D01*
X7404768Y-16999269D02*
X7414291Y-17008793D01*
X7414291Y-17008793D02*
X7423815Y-17027840D01*
X7423815Y-17027840D02*
X7423815Y-17046888D01*
X7423815Y-17046888D02*
X7414291Y-17075459D01*
X7414291Y-17075459D02*
X7300006Y-17189745D01*
X7300006Y-17189745D02*
X7423815Y-17189745D01*
X7661910Y-17189745D02*
X7661910Y-16989745D01*
X7747625Y-17189745D02*
X7747625Y-17084983D01*
X7747625Y-17084983D02*
X7738101Y-17065935D01*
X7738101Y-17065935D02*
X7719053Y-17056412D01*
X7719053Y-17056412D02*
X7690482Y-17056412D01*
X7690482Y-17056412D02*
X7671434Y-17065935D01*
X7671434Y-17065935D02*
X7661910Y-17075459D01*
X7871434Y-17189745D02*
X7852387Y-17180221D01*
X7852387Y-17180221D02*
X7842863Y-17170697D01*
X7842863Y-17170697D02*
X7833339Y-17151650D01*
X7833339Y-17151650D02*
X7833339Y-17094507D01*
X7833339Y-17094507D02*
X7842863Y-17075459D01*
X7842863Y-17075459D02*
X7852387Y-17065935D01*
X7852387Y-17065935D02*
X7871434Y-17056412D01*
X7871434Y-17056412D02*
X7900006Y-17056412D01*
X7900006Y-17056412D02*
X7919053Y-17065935D01*
X7919053Y-17065935D02*
X7928577Y-17075459D01*
X7928577Y-17075459D02*
X7938101Y-17094507D01*
X7938101Y-17094507D02*
X7938101Y-17151650D01*
X7938101Y-17151650D02*
X7928577Y-17170697D01*
X7928577Y-17170697D02*
X7919053Y-17180221D01*
X7919053Y-17180221D02*
X7900006Y-17189745D01*
X7900006Y-17189745D02*
X7871434Y-17189745D01*
X8052387Y-17189745D02*
X8033339Y-17180221D01*
X8033339Y-17180221D02*
X8023815Y-17161174D01*
X8023815Y-17161174D02*
X8023815Y-16989745D01*
X8204768Y-17180221D02*
X8185720Y-17189745D01*
X8185720Y-17189745D02*
X8147625Y-17189745D01*
X8147625Y-17189745D02*
X8128577Y-17180221D01*
X8128577Y-17180221D02*
X8119053Y-17161174D01*
X8119053Y-17161174D02*
X8119053Y-17084983D01*
X8119053Y-17084983D02*
X8128577Y-17065935D01*
X8128577Y-17065935D02*
X8147625Y-17056412D01*
X8147625Y-17056412D02*
X8185720Y-17056412D01*
X8185720Y-17056412D02*
X8204768Y-17065935D01*
X8204768Y-17065935D02*
X8214291Y-17084983D01*
X8214291Y-17084983D02*
X8214291Y-17104031D01*
X8214291Y-17104031D02*
X8119053Y-17123078D01*
X8290482Y-17180221D02*
X8309530Y-17189745D01*
X8309530Y-17189745D02*
X8347625Y-17189745D01*
X8347625Y-17189745D02*
X8366672Y-17180221D01*
X8366672Y-17180221D02*
X8376196Y-17161174D01*
X8376196Y-17161174D02*
X8376196Y-17151650D01*
X8376196Y-17151650D02*
X8366672Y-17132602D01*
X8366672Y-17132602D02*
X8347625Y-17123078D01*
X8347625Y-17123078D02*
X8319053Y-17123078D01*
X8319053Y-17123078D02*
X8300006Y-17113555D01*
X8300006Y-17113555D02*
X8290482Y-17094507D01*
X8290482Y-17094507D02*
X8290482Y-17084983D01*
X8290482Y-17084983D02*
X8300006Y-17065935D01*
X8300006Y-17065935D02*
X8319053Y-17056412D01*
X8319053Y-17056412D02*
X8347625Y-17056412D01*
X8347625Y-17056412D02*
X8366672Y-17065935D01*
X8442863Y-17265935D02*
X8452387Y-17256412D01*
X8452387Y-17256412D02*
X8471434Y-17227840D01*
X8471434Y-17227840D02*
X8480958Y-17208793D01*
X8480958Y-17208793D02*
X8490482Y-17180221D01*
X8490482Y-17180221D02*
X8500006Y-17132602D01*
X8500006Y-17132602D02*
X8500006Y-17094507D01*
X8500006Y-17094507D02*
X8490482Y-17046888D01*
X8490482Y-17046888D02*
X8480958Y-17018316D01*
X8480958Y-17018316D02*
X8471434Y-16999269D01*
X8471434Y-16999269D02*
X8452387Y-16970697D01*
X8452387Y-16970697D02*
X8442863Y-16961174D01*
X8804768Y-17265935D02*
X8795244Y-17256412D01*
X8795244Y-17256412D02*
X8776196Y-17227840D01*
X8776196Y-17227840D02*
X8766673Y-17208793D01*
X8766673Y-17208793D02*
X8757149Y-17180221D01*
X8757149Y-17180221D02*
X8747625Y-17132602D01*
X8747625Y-17132602D02*
X8747625Y-17094507D01*
X8747625Y-17094507D02*
X8757149Y-17046888D01*
X8757149Y-17046888D02*
X8766673Y-17018316D01*
X8766673Y-17018316D02*
X8776196Y-16999269D01*
X8776196Y-16999269D02*
X8795244Y-16970697D01*
X8795244Y-16970697D02*
X8804768Y-16961174D01*
X8880958Y-17056412D02*
X8880958Y-17189745D01*
X8880958Y-17075459D02*
X8890482Y-17065935D01*
X8890482Y-17065935D02*
X8909530Y-17056412D01*
X8909530Y-17056412D02*
X8938101Y-17056412D01*
X8938101Y-17056412D02*
X8957149Y-17065935D01*
X8957149Y-17065935D02*
X8966673Y-17084983D01*
X8966673Y-17084983D02*
X8966673Y-17189745D01*
X9090482Y-17189745D02*
X9071434Y-17180221D01*
X9071434Y-17180221D02*
X9061911Y-17170697D01*
X9061911Y-17170697D02*
X9052387Y-17151650D01*
X9052387Y-17151650D02*
X9052387Y-17094507D01*
X9052387Y-17094507D02*
X9061911Y-17075459D01*
X9061911Y-17075459D02*
X9071434Y-17065935D01*
X9071434Y-17065935D02*
X9090482Y-17056412D01*
X9090482Y-17056412D02*
X9119054Y-17056412D01*
X9119054Y-17056412D02*
X9138101Y-17065935D01*
X9138101Y-17065935D02*
X9147625Y-17075459D01*
X9147625Y-17075459D02*
X9157149Y-17094507D01*
X9157149Y-17094507D02*
X9157149Y-17151650D01*
X9157149Y-17151650D02*
X9147625Y-17170697D01*
X9147625Y-17170697D02*
X9138101Y-17180221D01*
X9138101Y-17180221D02*
X9119054Y-17189745D01*
X9119054Y-17189745D02*
X9090482Y-17189745D01*
X9214292Y-17056412D02*
X9290482Y-17056412D01*
X9242863Y-16989745D02*
X9242863Y-17161174D01*
X9242863Y-17161174D02*
X9252387Y-17180221D01*
X9252387Y-17180221D02*
X9271434Y-17189745D01*
X9271434Y-17189745D02*
X9290482Y-17189745D01*
X9509530Y-17056412D02*
X9509530Y-17256412D01*
X9509530Y-17065935D02*
X9528577Y-17056412D01*
X9528577Y-17056412D02*
X9566673Y-17056412D01*
X9566673Y-17056412D02*
X9585720Y-17065935D01*
X9585720Y-17065935D02*
X9595244Y-17075459D01*
X9595244Y-17075459D02*
X9604768Y-17094507D01*
X9604768Y-17094507D02*
X9604768Y-17151650D01*
X9604768Y-17151650D02*
X9595244Y-17170697D01*
X9595244Y-17170697D02*
X9585720Y-17180221D01*
X9585720Y-17180221D02*
X9566673Y-17189745D01*
X9566673Y-17189745D02*
X9528577Y-17189745D01*
X9528577Y-17189745D02*
X9509530Y-17180221D01*
X9719054Y-17189745D02*
X9700006Y-17180221D01*
X9700006Y-17180221D02*
X9690482Y-17161174D01*
X9690482Y-17161174D02*
X9690482Y-16989745D01*
X9880958Y-17189745D02*
X9880958Y-17084983D01*
X9880958Y-17084983D02*
X9871435Y-17065935D01*
X9871435Y-17065935D02*
X9852387Y-17056412D01*
X9852387Y-17056412D02*
X9814292Y-17056412D01*
X9814292Y-17056412D02*
X9795244Y-17065935D01*
X9880958Y-17180221D02*
X9861911Y-17189745D01*
X9861911Y-17189745D02*
X9814292Y-17189745D01*
X9814292Y-17189745D02*
X9795244Y-17180221D01*
X9795244Y-17180221D02*
X9785720Y-17161174D01*
X9785720Y-17161174D02*
X9785720Y-17142126D01*
X9785720Y-17142126D02*
X9795244Y-17123078D01*
X9795244Y-17123078D02*
X9814292Y-17113555D01*
X9814292Y-17113555D02*
X9861911Y-17113555D01*
X9861911Y-17113555D02*
X9880958Y-17104031D01*
X9947625Y-17056412D02*
X10023815Y-17056412D01*
X9976196Y-16989745D02*
X9976196Y-17161174D01*
X9976196Y-17161174D02*
X9985720Y-17180221D01*
X9985720Y-17180221D02*
X10004768Y-17189745D01*
X10004768Y-17189745D02*
X10023815Y-17189745D01*
X10166673Y-17180221D02*
X10147625Y-17189745D01*
X10147625Y-17189745D02*
X10109530Y-17189745D01*
X10109530Y-17189745D02*
X10090482Y-17180221D01*
X10090482Y-17180221D02*
X10080958Y-17161174D01*
X10080958Y-17161174D02*
X10080958Y-17084983D01*
X10080958Y-17084983D02*
X10090482Y-17065935D01*
X10090482Y-17065935D02*
X10109530Y-17056412D01*
X10109530Y-17056412D02*
X10147625Y-17056412D01*
X10147625Y-17056412D02*
X10166673Y-17065935D01*
X10166673Y-17065935D02*
X10176196Y-17084983D01*
X10176196Y-17084983D02*
X10176196Y-17104031D01*
X10176196Y-17104031D02*
X10080958Y-17123078D01*
X10347625Y-17189745D02*
X10347625Y-16989745D01*
X10347625Y-17180221D02*
X10328577Y-17189745D01*
X10328577Y-17189745D02*
X10290482Y-17189745D01*
X10290482Y-17189745D02*
X10271435Y-17180221D01*
X10271435Y-17180221D02*
X10261911Y-17170697D01*
X10261911Y-17170697D02*
X10252387Y-17151650D01*
X10252387Y-17151650D02*
X10252387Y-17094507D01*
X10252387Y-17094507D02*
X10261911Y-17075459D01*
X10261911Y-17075459D02*
X10271435Y-17065935D01*
X10271435Y-17065935D02*
X10290482Y-17056412D01*
X10290482Y-17056412D02*
X10328577Y-17056412D01*
X10328577Y-17056412D02*
X10347625Y-17065935D01*
X10423816Y-17265935D02*
X10433339Y-17256412D01*
X10433339Y-17256412D02*
X10452387Y-17227840D01*
X10452387Y-17227840D02*
X10461911Y-17208793D01*
X10461911Y-17208793D02*
X10471435Y-17180221D01*
X10471435Y-17180221D02*
X10480958Y-17132602D01*
X10480958Y-17132602D02*
X10480958Y-17094507D01*
X10480958Y-17094507D02*
X10471435Y-17046888D01*
X10471435Y-17046888D02*
X10461911Y-17018316D01*
X10461911Y-17018316D02*
X10452387Y-16999269D01*
X10452387Y-16999269D02*
X10433339Y-16970697D01*
X10433339Y-16970697D02*
X10423816Y-16961174D01*
M02*
