M48
; DRILL file {KiCad 8.0.3} date 2024-06-16T17:33:40+0200
; FORMAT={-:-/ absolute / metric / decimal}
; #@! TF.CreationDate,2024-06-16T17:33:40+02:00
; #@! TF.GenerationSoftware,Kicad,Pcbnew,8.0.3
; #@! TF.FileFunction,Plated,1,2,PTH
FMAT,2
METRIC
; #@! TA.AperFunction,Plated,PTH,ViaDrill
T1C0.300
; #@! TA.AperFunction,Plated,PTH,ViaDrill
T2C0.500
; #@! TA.AperFunction,Plated,PTH,ViaDrill
T3C0.600
; #@! TA.AperFunction,Plated,PTH,ComponentDrill
T4C0.700
; #@! TA.AperFunction,Plated,PTH,ComponentDrill
T5C0.813
; #@! TA.AperFunction,Plated,PTH,ComponentDrill
T6C0.914
; #@! TA.AperFunction,Plated,PTH,ComponentDrill
T7C1.000
; #@! TA.AperFunction,Plated,PTH,ComponentDrill
T8C1.016
; #@! TA.AperFunction,Plated,PTH,ComponentDrill
T9C1.500
%
G90
G05
T1
X48.895Y-86.36
X48.895Y-88.773
X64.516Y-82.677
X66.04Y-86.106
X67.437Y-88.646
X67.437Y-125.222
X67.818Y-68.199
X67.818Y-82.931
X68.861Y-87.862
X69.088Y-73.279
X69.327Y-131.651
X69.469Y-91.313
X69.611Y-82.169
X69.85Y-119.253
X69.85Y-136.652
X69.977Y-121.666
X70.358Y-93.853
X70.358Y-102.235
X70.485Y-83.566
X70.485Y-99.822
X70.739Y-81.026
X70.739Y-95.885
X70.866Y-87.518
X70.866Y-88.9
X70.979Y-127.117
X70.993Y-116.84
X71.12Y-102.616
X71.12Y-104.902
X71.12Y-118.491
X71.12Y-129.032
X71.121Y-90.899
X71.374Y-98.933
X71.486Y-78.486
X71.628Y-115.824
X71.707Y-92.819
X71.77Y-123.952
X71.882Y-101.024
X71.946Y-107.363
X72.136Y-75.819
X72.136Y-88.519
X72.136Y-105.029
X72.136Y-117.602
X72.136Y-130.429
X72.164Y-93.535
X72.263Y-89.662
X72.263Y-91.44
X72.469Y-92.281
X72.505Y-95.139
X72.517Y-115.57
X72.553Y-94.291
X72.619Y-97.815
X72.644Y-100.203
X72.659Y-113.914
X72.732Y-101.05
X72.771Y-107.569
X72.786Y-127.889
X72.839Y-96.917
X72.898Y-79.629
X72.898Y-85.979
X72.898Y-109.982
X72.898Y-110.744
X73.025Y-84.836
X73.025Y-104.013
X73.025Y-114.681
X73.039Y-121.705
X73.173Y-95.664
X73.382Y-101.727
X73.391Y-132.842
X73.512Y-96.398
X73.66Y-111.872
X73.675Y-116.618
X73.689Y-120.142
X73.787Y-88.646
X73.787Y-108.839
X73.831Y-111.039
X73.914Y-97.79
X73.914Y-98.679
X73.914Y-102.997
X73.914Y-103.759
X73.914Y-105.918
X74.041Y-113.411
X74.101Y-120.885
X74.295Y-109.982
X74.295Y-118.872
X74.422Y-112.649
X74.422Y-134.239
X88.519Y-141.859
X91.059Y-139.192
X131.572Y-66.04
X150.114Y-59.69
X150.368Y-68.128
X153.416Y-71.882
X160.782Y-72.644
X172.974Y-71.882
X176.784Y-59.69
X181.565Y-73.361
X181.864Y-65.278
X182.372Y-59.436
X182.88Y-57.912
X182.88Y-62.23
X183.388Y-65.278
X183.388Y-72.729
X187.96Y-65.786
X188.468Y-60.198
X188.86Y-62.873
X192.024Y-78.902
X192.532Y-65.278
X193.04Y-61.468
X193.802Y-68.834
X194.31Y-67.564
X194.564Y-60.198
X194.862Y-62.738
X195.58Y-67.818
X197.612Y-73.406
X198.374Y-67.056
X199.136Y-64.77
X199.644Y-68.834
T2
X134.888Y-144.645
X139.015Y-118.769
X155.525Y-117.34
X155.684Y-141.153
X155.843Y-138.613
X156.16Y-75.113
X182.672Y-128.135
X186.799Y-128.294
X188.863Y-151.392
X190.133Y-148.614
X193.308Y-110.673
X193.308Y-128.453
X194.737Y-141.153
X194.895Y-133.533
X200.69Y-107.339
X201.404Y-138.93
X201.563Y-150.201
X212.328Y-134.644
X213.916Y-139.248
X219.807Y-146.558
X226.806Y-83.074
X226.806Y-145.304
X227.124Y-118.158
X227.6Y-122.047
X227.917Y-66.881
X228.076Y-119.745
X228.552Y-65.453
X228.79Y-124.508
X229.981Y-114.824
X229.981Y-144.986
X230.14Y-75.613
X231.013Y-122.603
X231.092Y-134.35
X231.41Y-67.993
X231.727Y-136.811
X232.045Y-65.611
X232.204Y-66.881
X232.362Y-79.105
X232.68Y-101.886
X232.759Y-69.263
X234.109Y-79.105
X235.537Y-71.803
X235.696Y-94.345
X236.569Y-100.695
X236.728Y-134.985
X237.204Y-99.266
X237.284Y-74.343
X237.998Y-76.883
X238.712Y-56.642
X241.252Y-81.248
X241.252Y-94.345
X241.332Y-84.026
X241.808Y-80.058
T3
X108.535Y-129.405
X108.853Y-133.85
X109.488Y-131.31
X109.805Y-136.39
X118.457Y-128.214
X124.013Y-65.905
X124.093Y-90.035
X124.252Y-68.286
X124.41Y-114.8
X126.95Y-114.8
X127.585Y-127.262
X129.014Y-69.318
X130.046Y-89.956
X130.205Y-124.404
X131.713Y-141.153
X134.094Y-130.04
X139.888Y-110.911
X143.46Y-120.198
X143.778Y-88.448
X143.778Y-90.988
X143.778Y-93.528
X143.778Y-96.068
X143.778Y-98.608
X143.778Y-101.148
X143.778Y-103.688
X143.778Y-106.228
X143.778Y-113.848
X143.857Y-147.026
X144.413Y-85.908
X144.413Y-117.419
X144.73Y-125.278
X144.73Y-141.153
X145.048Y-84.003
X145.048Y-113.768
X145.365Y-116.308
X145.683Y-101.783
X146.318Y-108.133
X146.953Y-121.468
X147.27Y-133.85
X149.493Y-80.828
X149.572Y-117.658
X149.652Y-129.088
X149.731Y-110.673
X149.731Y-112.578
X149.81Y-102.418
X149.81Y-125.278
X150.128Y-82.733
X150.128Y-97.338
X150.128Y-99.878
X150.128Y-141.153
X150.128Y-144.328
X150.445Y-104.958
X151.318Y-130.358
X152.033Y-114.165
X152.033Y-126.865
X152.033Y-128.135
X153.62Y-133.85
X153.938Y-121.468
X154.255Y-73.287
X154.573Y-108.133
X155.525Y-133.215
X155.843Y-110.99
X155.843Y-113.53
X155.843Y-127.818
X156.16Y-136.073
X156.637Y-84.003
X156.795Y-125.595
X156.795Y-133.85
X157.272Y-117.023
X157.589Y-82.733
X157.748Y-123.373
X159.97Y-78.605
X161.161Y-80.748
X161.955Y-77.97
X162.431Y-123.531
X162.431Y-124.722
X162.431Y-127.341
X162.907Y-81.304
X164.098Y-80.113
X164.098Y-148.138
X165.209Y-79.081
X166.003Y-124.643
X166.241Y-139.883
X166.32Y-84.241
X166.32Y-123.214
X166.32Y-126.151
X166.876Y-134.247
X167.386Y-69.342
X171.718Y-75.43
X172.035Y-82.018
X172.353Y-115.594
X172.353Y-142.423
X172.988Y-137.343
X173.305Y-140.2
X173.623Y-83.05
X173.782Y-79.161
X174.893Y-73.208
X176.798Y-108.133
X178.054Y-68.326
X178.385Y-125.039
X178.833Y-69.596
X179.973Y-79.558
X180.449Y-151.074
X180.492Y-56.236
X180.608Y-80.589
X180.608Y-148.773
X181.243Y-78.923
X182.83Y-81.621
X183.068Y-74.874
X183.307Y-124.801
X183.465Y-78.684
X184.18Y-130.675
X184.497Y-112.022
X184.894Y-106.863
X186.72Y-125.754
X188.468Y-69.342
X188.581Y-66.812
X189.498Y-82.098
X192.117Y-77.335
X193.943Y-80.431
X194.498Y-82.177
X196.483Y-79.796
X196.8Y-76.065
X197.753Y-118.293
X198.388Y-115.753
X199.023Y-104.323
X199.023Y-106.863
X199.023Y-113.213
X199.578Y-108.133
X199.658Y-110.673
X200.531Y-102.418
X200.928Y-73.843
X200.928Y-105.593
X201.168Y-58.928
X201.563Y-70.668
X201.563Y-97.338
X201.563Y-99.878
X201.93Y-77.335
X202.198Y-94.798
X202.198Y-103.688
X209.629Y-115.118
X210.106Y-79.319
X210.423Y-85.908
X210.502Y-67.175
X210.582Y-117.578
X210.741Y-71.303
X211.614Y-119.801
X211.693Y-88.448
X212.328Y-90.988
X212.487Y-122.738
X212.646Y-76.383
X212.804Y-93.528
X215.027Y-96.068
X215.106Y-70.35
X215.503Y-131.548
X215.503Y-141.788
X216.138Y-98.608
X216.138Y-125.278
X216.614Y-101.148
X216.773Y-94.48
X217.091Y-70.985
X217.408Y-127.818
X218.678Y-130.358
X219.313Y-77.97
X219.551Y-107.418
X227.838Y-78.153
X231.14Y-141.884
X232.41Y-140.614
T4
X128.016Y-56.388
X130.556Y-56.388
T5
X56.515Y-84.582
X56.515Y-87.122
X56.515Y-89.662
X56.515Y-92.202
X56.515Y-94.742
X56.515Y-97.282
X56.515Y-99.822
X56.515Y-102.362
X56.515Y-104.902
X56.515Y-107.442
X56.515Y-109.982
X56.515Y-112.522
X56.515Y-115.062
X56.515Y-117.602
X56.515Y-120.142
X56.515Y-122.682
X57.658Y-72.136
X58.293Y-137.795
X59.055Y-84.582
X59.055Y-87.122
X59.055Y-89.662
X59.055Y-92.202
X59.055Y-94.742
X59.055Y-97.282
X59.055Y-99.822
X59.055Y-102.362
X59.055Y-104.902
X59.055Y-107.442
X59.055Y-109.982
X59.055Y-112.522
X59.055Y-115.062
X59.055Y-117.602
X59.055Y-120.142
X59.055Y-122.682
X60.198Y-72.136
X60.833Y-137.795
X61.595Y-84.582
X61.595Y-87.122
X61.595Y-89.662
X61.595Y-92.202
X61.595Y-94.742
X61.595Y-97.282
X61.595Y-99.822
X61.595Y-102.362
X61.595Y-104.902
X61.595Y-107.442
X61.595Y-109.982
X61.595Y-112.522
X61.595Y-115.062
X61.595Y-117.602
X61.595Y-120.142
X61.595Y-122.682
X87.898Y-150.043
X90.438Y-150.043
X106.948Y-137.343
X106.948Y-139.883
X110.758Y-140.518
X110.758Y-143.058
X127.268Y-142.423
X127.268Y-144.963
X131.078Y-146.233
X131.078Y-148.773
X153.938Y-80.193
X153.938Y-82.733
X169.813Y-80.193
X169.813Y-82.733
X169.813Y-142.423
X169.813Y-144.963
X169.813Y-147.503
X169.813Y-150.043
X185.688Y-147.503
X185.688Y-150.043
X186.323Y-79.558
X186.323Y-82.098
X207.01Y-54.078
X207.01Y-56.618
X207.01Y-59.158
X207.01Y-61.698
X207.01Y-64.238
X207.01Y-66.778
X207.01Y-69.318
X207.01Y-71.858
X207.01Y-74.398
X207.01Y-76.938
X207.01Y-79.478
X207.01Y-82.018
X207.01Y-84.558
X207.01Y-87.098
X207.01Y-89.638
X207.01Y-92.178
X207.01Y-94.718
X207.01Y-97.258
X207.01Y-99.798
X207.01Y-102.338
X207.01Y-104.878
X207.01Y-107.418
X207.01Y-109.958
X207.01Y-112.498
X207.01Y-115.038
X207.01Y-117.578
X207.01Y-120.118
X207.01Y-122.658
X207.01Y-125.198
X207.01Y-127.738
X207.01Y-130.278
X207.01Y-132.818
X207.01Y-135.358
X207.01Y-137.898
X207.01Y-140.438
X207.01Y-142.978
X207.01Y-145.518
X207.01Y-148.058
X207.01Y-150.598
X207.01Y-153.138
X215.503Y-111.308
X215.503Y-113.848
X224.028Y-54.102
X224.028Y-56.642
X224.028Y-59.182
X224.028Y-61.722
X224.028Y-64.262
X224.028Y-66.802
X224.028Y-69.342
X224.028Y-71.882
X224.028Y-74.422
X224.028Y-76.962
X224.028Y-79.502
X224.028Y-82.042
X224.028Y-84.582
X224.028Y-87.122
X224.028Y-89.662
X224.028Y-92.202
X224.028Y-94.742
X224.028Y-97.282
X224.028Y-99.822
X224.028Y-102.362
X224.028Y-104.902
X224.028Y-107.442
X224.028Y-109.982
X224.028Y-112.522
X224.028Y-115.062
X224.028Y-117.602
X224.028Y-120.142
X224.028Y-122.682
X224.028Y-125.222
X224.028Y-127.762
X224.028Y-130.302
X224.028Y-132.842
X224.028Y-135.382
X224.028Y-137.922
X224.028Y-140.462
X224.028Y-143.002
X224.028Y-145.542
X224.028Y-148.082
X224.028Y-150.622
X224.028Y-153.162
X229.87Y-152.044
X232.41Y-152.044
T6
X76.048Y-65.634
X76.048Y-68.174
X76.048Y-70.714
X76.048Y-73.254
X76.048Y-75.794
X76.048Y-78.334
X76.048Y-80.874
X76.048Y-83.414
X76.048Y-85.954
X76.048Y-88.494
X76.048Y-91.034
X76.048Y-93.574
X76.048Y-96.114
X76.048Y-98.654
X76.048Y-101.194
X76.048Y-103.734
X76.048Y-106.274
X76.048Y-108.814
X76.048Y-111.354
X76.048Y-113.894
X76.048Y-116.434
X76.048Y-118.974
X76.048Y-121.514
X76.048Y-124.054
X76.048Y-126.594
X76.048Y-129.134
X76.048Y-131.674
X76.048Y-134.214
X76.048Y-136.754
X76.048Y-139.294
X76.048Y-141.834
X76.048Y-144.374
X81.128Y-65.634
X81.128Y-68.174
X81.128Y-70.714
X81.128Y-73.254
X81.128Y-75.794
X81.128Y-78.334
X81.128Y-80.874
X81.128Y-83.414
X81.128Y-85.954
X81.128Y-88.494
X81.128Y-91.034
X81.128Y-93.574
X81.128Y-96.114
X81.128Y-98.654
X81.128Y-101.194
X81.128Y-103.734
X81.128Y-106.274
X81.128Y-108.814
X81.128Y-111.354
X81.128Y-113.894
X81.128Y-116.434
X81.128Y-118.974
X81.128Y-121.514
X81.128Y-124.054
X81.128Y-126.594
X81.128Y-129.134
X81.128Y-131.674
X81.128Y-134.214
X81.128Y-136.754
X81.128Y-139.294
X81.128Y-141.834
X81.128Y-144.374
X96.153Y-65.588
X96.153Y-68.128
X96.153Y-70.668
X96.153Y-73.208
X96.153Y-75.748
X96.153Y-78.288
X96.153Y-80.828
X96.153Y-83.368
X96.153Y-85.908
X96.153Y-88.448
X96.153Y-90.988
X96.153Y-93.528
X96.153Y-96.068
X96.153Y-98.608
X96.153Y-101.148
X96.153Y-103.688
X96.153Y-106.228
X96.153Y-108.768
X96.153Y-111.308
X96.153Y-113.848
X96.153Y-116.388
X96.153Y-118.928
X96.153Y-121.468
X96.153Y-124.008
X96.153Y-126.548
X96.153Y-129.088
X96.153Y-131.628
X96.153Y-134.168
X96.153Y-136.708
X96.153Y-139.248
X96.153Y-141.788
X96.153Y-144.328
X101.233Y-65.588
X101.233Y-68.128
X101.233Y-70.668
X101.233Y-73.208
X101.233Y-75.748
X101.233Y-78.288
X101.233Y-80.828
X101.233Y-83.368
X101.233Y-85.908
X101.233Y-88.448
X101.233Y-90.988
X101.233Y-93.528
X101.233Y-96.068
X101.233Y-98.608
X101.233Y-101.148
X101.233Y-103.688
X101.233Y-106.228
X101.233Y-108.768
X101.233Y-111.308
X101.233Y-113.848
X101.233Y-116.388
X101.233Y-118.928
X101.233Y-121.468
X101.233Y-124.008
X101.233Y-126.548
X101.233Y-129.088
X101.233Y-131.628
X101.233Y-134.168
X101.233Y-136.708
X101.233Y-139.248
X101.233Y-141.788
X101.233Y-144.328
X116.473Y-65.588
X116.473Y-68.128
X116.473Y-70.668
X116.473Y-73.208
X116.473Y-75.748
X116.473Y-78.288
X116.473Y-80.828
X116.473Y-83.368
X116.473Y-85.908
X116.473Y-88.448
X116.473Y-90.988
X116.473Y-93.528
X116.473Y-96.068
X116.473Y-98.608
X116.473Y-101.148
X116.473Y-103.688
X116.473Y-106.228
X116.473Y-108.768
X116.473Y-111.308
X116.473Y-113.848
X116.473Y-116.388
X116.473Y-118.928
X116.473Y-121.468
X116.473Y-124.008
X116.473Y-126.548
X116.473Y-129.088
X116.473Y-131.628
X116.473Y-134.168
X116.473Y-136.708
X116.473Y-139.248
X116.473Y-141.788
X116.473Y-144.328
X121.553Y-65.588
X121.553Y-68.128
X121.553Y-70.668
X121.553Y-73.208
X121.553Y-75.748
X121.553Y-78.288
X121.553Y-80.828
X121.553Y-83.368
X121.553Y-85.908
X121.553Y-88.448
X121.553Y-90.988
X121.553Y-93.528
X121.553Y-96.068
X121.553Y-98.608
X121.553Y-101.148
X121.553Y-103.688
X121.553Y-106.228
X121.553Y-108.768
X121.553Y-111.308
X121.553Y-113.848
X121.553Y-116.388
X121.553Y-118.928
X121.553Y-121.468
X121.553Y-124.008
X121.553Y-126.548
X121.553Y-129.088
X121.553Y-131.628
X121.553Y-134.168
X121.553Y-136.708
X121.553Y-139.248
X121.553Y-141.788
X121.553Y-144.328
X126.633Y-62.413
X129.173Y-62.413
X129.49Y-99.243
X129.49Y-101.783
X129.49Y-104.323
X129.49Y-108.212
X129.49Y-110.752
X131.713Y-62.413
X136.793Y-65.588
X136.793Y-68.128
X136.793Y-70.668
X136.793Y-73.208
X136.793Y-75.748
X136.793Y-78.288
X136.793Y-80.828
X136.793Y-83.368
X136.793Y-85.908
X136.793Y-88.448
X136.793Y-90.988
X136.793Y-93.528
X136.793Y-96.068
X136.793Y-98.608
X136.793Y-101.148
X136.793Y-103.688
X136.793Y-106.228
X136.793Y-108.768
X136.793Y-111.308
X136.793Y-113.848
X136.793Y-116.388
X136.793Y-118.928
X136.793Y-121.468
X136.793Y-124.008
X136.793Y-126.548
X136.793Y-129.088
X136.793Y-131.628
X136.793Y-134.168
X136.793Y-136.708
X136.793Y-139.248
X136.793Y-141.788
X136.793Y-144.328
X141.873Y-65.588
X141.873Y-68.128
X141.873Y-70.668
X141.873Y-73.208
X141.873Y-75.748
X141.873Y-78.288
X141.873Y-80.828
X141.873Y-83.368
X141.873Y-85.908
X141.873Y-88.448
X141.873Y-90.988
X141.873Y-93.528
X141.873Y-96.068
X141.873Y-98.608
X141.873Y-101.148
X141.873Y-103.688
X141.873Y-106.228
X141.873Y-108.768
X141.873Y-111.308
X141.873Y-113.848
X141.873Y-116.388
X141.873Y-118.928
X141.873Y-121.468
X141.873Y-124.008
X141.873Y-126.548
X141.873Y-129.088
X141.873Y-131.628
X141.873Y-134.168
X141.873Y-136.708
X141.873Y-139.248
X141.873Y-141.788
X141.873Y-144.328
X146.318Y-148.773
X146.318Y-151.948
X148.858Y-148.773
X148.858Y-151.948
X151.398Y-148.773
X151.398Y-151.948
X154.89Y-149.09
X154.89Y-151.63
X170.765Y-124.008
X170.765Y-126.548
X170.765Y-129.088
X170.765Y-133.215
X170.765Y-135.755
X170.765Y-138.295
X185.928Y-54.483
X188.468Y-54.483
X191.008Y-54.483
X235.661Y-152.502
X238.201Y-152.502
X240.741Y-152.502
T7
X159.018Y-84.003
X159.018Y-86.543
X159.018Y-89.083
X159.018Y-91.623
X159.018Y-94.163
X159.018Y-96.703
X159.018Y-99.243
X159.018Y-101.783
X159.018Y-104.323
X159.018Y-106.863
X159.018Y-109.403
X159.018Y-111.943
X159.018Y-114.483
X159.018Y-117.023
X159.018Y-119.563
X159.018Y-122.103
X159.018Y-124.643
X159.018Y-127.183
X159.018Y-129.723
X159.018Y-132.263
X159.018Y-134.803
X159.018Y-137.343
X159.018Y-139.883
X159.018Y-142.423
X159.018Y-144.963
X164.098Y-84.003
X164.098Y-86.543
X164.098Y-89.083
X164.098Y-91.623
X164.098Y-94.163
X164.098Y-96.703
X164.098Y-99.243
X164.098Y-101.783
X164.098Y-104.323
X164.098Y-106.863
X164.098Y-109.403
X164.098Y-111.943
X164.098Y-114.483
X164.098Y-117.023
X164.098Y-119.563
X164.098Y-122.103
X164.098Y-124.643
X164.098Y-127.183
X164.098Y-129.723
X164.098Y-132.263
X164.098Y-134.803
X164.098Y-137.343
X164.098Y-139.883
X164.098Y-142.423
X164.098Y-144.963
X175.528Y-84.003
X175.528Y-86.543
X175.528Y-89.083
X175.528Y-91.623
X175.528Y-94.163
X175.528Y-96.703
X175.528Y-99.243
X175.528Y-101.783
X175.528Y-104.323
X175.528Y-106.863
X175.528Y-109.403
X175.528Y-111.943
X175.528Y-114.483
X175.528Y-117.023
X175.528Y-119.563
X175.528Y-122.103
X175.528Y-124.643
X175.528Y-127.183
X175.528Y-129.723
X175.528Y-132.263
X175.528Y-134.803
X175.528Y-137.343
X175.528Y-139.883
X175.528Y-142.423
X175.528Y-144.963
X180.608Y-84.003
X180.608Y-86.543
X180.608Y-89.083
X180.608Y-91.623
X180.608Y-94.163
X180.608Y-96.703
X180.608Y-99.243
X180.608Y-101.783
X180.608Y-104.323
X180.608Y-106.863
X180.608Y-109.403
X180.608Y-111.943
X180.608Y-114.483
X180.608Y-117.023
X180.608Y-119.563
X180.608Y-122.103
X180.608Y-124.643
X180.608Y-127.183
X180.608Y-129.723
X180.608Y-132.263
X180.608Y-134.803
X180.608Y-137.343
X180.608Y-139.883
X180.608Y-142.423
X180.608Y-144.963
X191.403Y-84.003
X191.403Y-86.543
X191.403Y-89.083
X191.403Y-91.623
X191.403Y-94.163
X191.403Y-96.703
X191.403Y-99.243
X191.403Y-101.783
X191.403Y-104.323
X191.403Y-106.863
X191.403Y-109.403
X191.403Y-111.943
X191.403Y-114.483
X191.403Y-117.023
X191.403Y-119.563
X191.403Y-122.103
X191.403Y-124.643
X191.403Y-127.183
X191.403Y-129.723
X191.403Y-132.263
X191.403Y-134.803
X191.403Y-137.343
X191.403Y-139.883
X191.403Y-142.423
X191.403Y-144.963
X196.483Y-84.003
X196.483Y-86.543
X196.483Y-89.083
X196.483Y-91.623
X196.483Y-94.163
X196.483Y-96.703
X196.483Y-99.243
X196.483Y-101.783
X196.483Y-104.323
X196.483Y-106.863
X196.483Y-109.403
X196.483Y-111.943
X196.483Y-114.483
X196.483Y-117.023
X196.483Y-119.563
X196.483Y-122.103
X196.483Y-124.643
X196.483Y-127.183
X196.483Y-129.723
X196.483Y-132.263
X196.483Y-134.803
X196.483Y-137.343
X196.483Y-139.883
X196.483Y-142.423
X196.483Y-144.963
X234.426Y-82.836
X234.426Y-85.376
X234.426Y-87.916
X234.426Y-90.456
X234.426Y-92.996
X234.426Y-95.536
X234.426Y-98.076
X234.426Y-100.616
X234.426Y-103.156
X234.426Y-105.696
X234.426Y-108.236
X234.426Y-110.776
X234.426Y-113.316
X234.426Y-115.856
X234.426Y-118.396
X234.426Y-120.936
X234.426Y-123.476
X234.426Y-126.016
X234.426Y-128.556
X234.426Y-131.096
X234.426Y-133.636
X234.426Y-136.176
X239.506Y-82.836
X239.506Y-85.376
X239.506Y-87.916
X239.506Y-90.456
X239.506Y-92.996
X239.506Y-95.536
X239.506Y-98.076
X239.506Y-100.616
X239.506Y-103.156
X239.506Y-105.696
X239.506Y-108.236
X239.506Y-110.776
X239.506Y-113.316
X239.506Y-115.856
X239.506Y-118.396
X239.506Y-120.936
X239.506Y-123.476
X239.506Y-126.016
X239.506Y-128.556
X239.506Y-131.096
X239.506Y-133.636
X239.506Y-136.176
T8
X42.037Y-84.582
X42.037Y-87.122
X42.037Y-89.662
X42.037Y-92.202
X42.037Y-94.742
X42.037Y-97.282
X42.037Y-99.822
X42.037Y-102.362
X42.037Y-104.902
X42.037Y-107.442
X42.037Y-109.982
X42.037Y-112.522
X42.037Y-115.062
X42.037Y-117.602
X42.037Y-120.142
X42.037Y-122.682
X44.577Y-84.582
X44.577Y-87.122
X44.577Y-89.662
X44.577Y-92.202
X44.577Y-94.742
X44.577Y-97.282
X44.577Y-99.822
X44.577Y-102.362
X44.577Y-104.902
X44.577Y-107.442
X44.577Y-109.982
X44.577Y-112.522
X44.577Y-115.062
X44.577Y-117.602
X44.577Y-120.142
X44.577Y-122.682
X47.117Y-84.582
X47.117Y-87.122
X47.117Y-89.662
X47.117Y-92.202
X47.117Y-94.742
X47.117Y-97.282
X47.117Y-99.822
X47.117Y-102.362
X47.117Y-104.902
X47.117Y-107.442
X47.117Y-109.982
X47.117Y-112.522
X47.117Y-115.062
X47.117Y-117.602
X47.117Y-120.142
X47.117Y-122.682
T9
X155.997Y-65.348
X161.077Y-65.348
X166.157Y-65.348
X171.237Y-65.348
M30
